<?xml version="1.0" encoding="UTF-8"?>
<svg xmlns="http://www.w3.org/2000/svg" version="1.1" viewBox="0 0 32 32">
  <defs>
    <style>
      .cls-1 {
        fill: #fff;
      }
    </style>
  </defs>
  <!-- Generator: Adobe Illustrator 28.6.0, SVG Export Plug-In . SVG Version: 1.2.0 Build 709)  -->
  <g>
    <g id="Layer_1">
      <g id="Layer_1-2" data-name="Layer_1">
        <g id="trashcan-outline">
          <path class="cls-1" d="M27,7h-5v-2c0-.9-1.1-2-2-2h-8c-.9,0-2,1.1-2,2v2h-5c-.6,0-1,1.4-1,2s.4,1,1,1h1v19c0,.5.5,1,1,1h18c.5,0,1-.5,1-1V10h1c.6,0,1-.4,1-1s-.4-2-1-2ZM12,5h8v2h-8v-2ZM24,28H8V10h16v18Z"/>
          <g>
            <path class="cls-1" d="M11,26c.7,0,1-.4,1-1v-12c0-.6-.3-1-1-1s-1,.4-1,1v12c0,.6.3,1,1,1Z"/>
            <path class="cls-1" d="M16,26c.6,0,1-.4,1-1v-12c0-.6-.4-1-1-1s-1,.4-1,1v12c0,.6.4,1,1,1Z"/>
            <path class="cls-1" d="M21,26c.6,0,1-.4,1-1v-12c0-.6-.4-1-1-1s-1,.4-1,1v12c0,.6.4,1,1,1Z"/>
          </g>
        </g>
      </g>
    </g>
  </g>
</svg>