<?xml version="1.0" encoding="UTF-8"?>
<svg xmlns="http://www.w3.org/2000/svg" version="1.1" viewBox="0 0 32 32">
  <defs>
    <style>
      .cls-1 {
        fill: #4a4a4a;
      }
    </style>
  </defs>
  <!-- Generator: Adobe Illustrator 28.6.0, SVG Export Plug-In . SVG Version: 1.2.0 Build 709)  -->
  <g>
    <g id="Layer_1">
      <g id="Layer_1-2" data-name="Layer_1">
        <path class="cls-1" d="M24,11.1c-.7-2.4-3-4.1-5.6-4.1h-.7c-1.1-1.5-3.4-1.8-5.3-1.8-3.9,0-7,2.8-7.7,6.7-1.6,1.1-2.7,2.9-2.7,4.6,0,3,2.5,5.4,5.6,5.4h4.4v-2h-4.4c-2.2,0-3.6-1.8-3.6-3.5s.9-2.4,2.2-3.1l.5-.2v-.5c.2-3.6,2.6-5.6,5.6-5.6s3.7.3,5.1,2.1h0c.3-.2.8-.2,1.2-.2,2,0,3.6,1.5,3.8,3.4v1.1c.1,0,1.2-.3,1.2-.3.4-.1.8-.2,1.2-.2,2.1,0,3.9,1.6,3.9,3.5s-1.8,3.5-3.9,3.5h-6.8v2h6.8c3.2,0,5.8-2.5,5.8-5.4s-2.6-5.5-5.9-5.5"/>
        <path class="cls-1" d="M15,11l-4.8,6.5c-.1.2,0,.4.2.4h3.5v9c0,.6.4,1,1,1h0c.6,0,1-.4,1-1v-9h3.5c.2,0,.4-.2.2-.4"/>
      </g>
    </g>
  </g>
</svg>