<?xml version="1.0" encoding="utf-8"?>
<!-- Generator: Adobe Illustrator 21.0.0, SVG Export Plug-In . SVG Version: 6.00 Build 0)  -->
<svg version="1.1" xmlns="http://www.w3.org/2000/svg" xmlns:xlink="http://www.w3.org/1999/xlink" x="0px" y="0px"
	 viewBox="0 0 32 32" enable-background="new 0 0 32 32" xml:space="preserve">
<g id="Layer_1">
	<g id="Layer_2">
		
			<linearGradient id="SVGID_1_" gradientUnits="userSpaceOnUse" x1="1.7189" y1="25.2452" x2="30.2811" y2="8.7548" gradientTransform="matrix(1 0 0 -1 0 33)">
			<stop  offset="0" style="stop-color:#FFFFFF"/>
			<stop  offset="0.7545" style="stop-color:#F5F5F5"/>
			<stop  offset="0.9973" style="stop-color:#F5F5F5"/>
		</linearGradient>
		<polygon fill="url(#SVGID_1_)" points="31,23 1,23 1,9 31,9 		"/>
	</g>
	<g>
		<path id="outline_5_" fill="#4A4A4A" d="M31,8H1C0,8,0,9,0,9v14c0,0,0,1,1,1h30c1,0,1-1,1-1V9C32,9,32,8,31,8z M30,22H2V10h28V22z
			"/>
	</g>
</g>
<g id="Layer_2_1_">
	<g>
		<g>
			<path fill="#07A8E8" d="M9,12l-5,4v4h2v-4h2l0,4h6v-4L9,12z M12,18h-2v-2h2V18z"/>
		</g>
	</g>
</g>
</svg>
