<?xml version="1.0" encoding="utf-8"?>
<!-- Generator: Adobe Illustrator 21.0.0, SVG Export Plug-In . SVG Version: 6.00 Build 0)  -->
<svg version="1.1" id="Layer_1" xmlns="http://www.w3.org/2000/svg" xmlns:xlink="http://www.w3.org/1999/xlink" x="0px" y="0px"
	 viewBox="0 0 32 32" style="enable-background:new 0 0 32 32;" xml:space="preserve">
<style type="text/css">
	.st0{fill:url(#SVGID_1_);}
	.st1{fill:#4A4A4A;}
	.st2{fill:#0592E1;}
	.st3{fill:url(#SVGID_2_);}
</style>
<g id="Layer_2">

		<linearGradient id="SVGID_1_" gradientUnits="userSpaceOnUse" x1="5.9019" y1="35.9019" x2="20.0981" y2="44.0981" gradientTransform="matrix(1 0 0 1 0 -17)">
		<stop  offset="0" style="stop-color:#FFFFFF"/>
		<stop  offset="0.7545" style="stop-color:#F5F5F5"/>
		<stop  offset="0.9973" style="stop-color:#F5F5F5"/>
	</linearGradient>
	<polygon class="st0" points="19,29 7,29 7,17 19,17 	"/>
</g>
<g>
	<path class="st1" d="M19,16H7c-1,0-1,1-1,1v12c0,0,0,1,1,1h12c1,0,1-1,1-1V17C20,17,20,16,19,16z M18,28H8V18h10V28z"/>
	<g>
		<path id="checkmark" class="st2" d="M11.1,26.8c0.1,0.2,0.4,0.3,0.7,0.3l0,0l0,0c0.3,0,0.5-0.1,0.7-0.4l5.3-6.3
			c0.3-0.4,0.3-1-0.1-1.2c-0.4-0.2-1-0.2-1.3,0.1l-4.6,5.5l-2.2-2.5C9.3,22,8.7,22,8.3,22.3c-0.4,0.3-0.4,0.9-0.1,1.2L11.1,26.8z"/>
	</g>
</g>
<g id="Layer_2_1_">

		<linearGradient id="SVGID_2_" gradientUnits="userSpaceOnUse" x1="5.9019" y1="19.9019" x2="20.0981" y2="28.0981" gradientTransform="matrix(1 0 0 1 0 -17)">
		<stop  offset="0" style="stop-color:#FFFFFF"/>
		<stop  offset="0.7545" style="stop-color:#F5F5F5"/>
		<stop  offset="0.9973" style="stop-color:#F5F5F5"/>
	</linearGradient>
	<polygon class="st3" points="19,13 7,13 7,1 19,1 	"/>
</g>
<path class="st1" d="M19,0H7C6,0,6,1,6,1v12c0,0,0,1,1,1h12c1,0,1-1,1-1V1C20,1,20,0,19,0z M18,12H8V2h10V12z"/>
</svg>
