<?xml version="1.0" encoding="utf-8"?>
<!-- Generator: Adobe Illustrator 21.0.0, SVG Export Plug-In . SVG Version: 6.00 Build 0)  -->
<svg version="1.1" id="Layer_1" xmlns="http://www.w3.org/2000/svg" xmlns:xlink="http://www.w3.org/1999/xlink" x="0px" y="0px"
	 viewBox="0 0 48 48" style="enable-background:new 0 0 48 48;" xml:space="preserve">
<style type="text/css">
	.st0{fill:url(#SVGID_1_);}
	.st1{fill:#4A4A4A;}
	.st2{fill:#0592E1;}
</style>
<g id="Layer_2">

		<linearGradient id="SVGID_1_" gradientUnits="userSpaceOnUse" x1="3.8888" y1="35.6112" x2="44.1112" y2="12.3888" gradientTransform="matrix(1 0 0 -1 0 48)">
		<stop  offset="0" style="stop-color:#FFFFFF"/>
		<stop  offset="0.7545" style="stop-color:#F5F5F5"/>
		<stop  offset="0.9973" style="stop-color:#F5F5F5"/>
	</linearGradient>
	<polygon class="st0" points="41,41 7,41 7,7 41,7 	"/>
</g>
<g>
	<path class="st1" d="M41,6H7C6,6,6,7,6,7v34c0,0,0,1,1,1h34c1,0,1-1,1-1V7C42,7,42,6,41,6z M40,40H8V8h32V40z"/>
	<g>
		<path id="checkmark" class="st2" d="M19.6,34c0.4,0.6,1.2,0.8,1.8,0.8l0,0l0,0c0.8,0,1.4-0.4,1.8-1L37,16.4
			c0.8-1,0.6-2.7-0.4-3.4c-1-0.8-2.7-0.6-3.4,0.4l-12.1,15l-5.6-6.8c-0.6-0.8-2.2-1-3.3-0.2c-1,0.8-1.2,2.4-0.2,3.4L19.6,34z"/>
	</g>
</g>
</svg>
