<?xml version="1.0" encoding="utf-8"?>
<!-- Generator: Adobe Illustrator 21.0.0, SVG Export Plug-In . SVG Version: 6.00 Build 0)  -->
<svg version="1.1" id="Layer_1" xmlns="http://www.w3.org/2000/svg" xmlns:xlink="http://www.w3.org/1999/xlink" x="0px" y="0px"
	 viewBox="0 0 48 48" style="enable-background:new 0 0 48 48;" xml:space="preserve">
<style type="text/css">
	.st0{fill:url(#SVGID_1_);}
	.st1{fill:#4A4A4A;}
	.st2{fill:#0592E1;}
	.st3{fill:url(#SVGID_2_);}
</style>
<g id="Layer_2">

		<linearGradient id="SVGID_1_" gradientUnits="userSpaceOnUse" x1="9.5359" y1="30.5359" x2="28.4641" y2="41.4641" gradientTransform="matrix(1 0 0 1 0 -1)">
		<stop  offset="0" style="stop-color:#FFFFFF"/>
		<stop  offset="0.7545" style="stop-color:#F5F5F5"/>
		<stop  offset="0.9973" style="stop-color:#F5F5F5"/>
	</linearGradient>
	<polygon class="st0" points="27,43 11,43 11,27 27,27 	"/>
</g>
<g>
	<path class="st1" d="M27,26H11c-1,0-1,1-1,1v16c0,0,0,1,1,1h16c1,0,1-1,1-1V27C28,27,28,26,27,26z M26,42H12V28h14V42z"/>
	<g>
		<path id="checkmark" class="st2" d="M16.4,40.4c0.2,0.3,0.6,0.4,1,0.4l0,0l0,0c0.4,0,0.7-0.2,1-0.5l7.4-9.1
			c0.4-0.5,0.3-1.4-0.2-1.8c-0.5-0.4-1.4-0.3-1.8,0.2l-6.5,7.8l-3-3.6c-0.3-0.4-1.2-0.5-1.8-0.1c-0.5,0.4-0.6,1.3-0.1,1.8L16.4,40.4
			z"/>
	</g>
</g>
<g id="Layer_2_1_">

		<linearGradient id="SVGID_2_" gradientUnits="userSpaceOnUse" x1="9.5359" y1="8.5359" x2="28.4641" y2="19.4641" gradientTransform="matrix(1 0 0 1 0 -1)">
		<stop  offset="0" style="stop-color:#FFFFFF"/>
		<stop  offset="0.7545" style="stop-color:#F5F5F5"/>
		<stop  offset="0.9973" style="stop-color:#F5F5F5"/>
	</linearGradient>
	<polygon class="st3" points="27,21 11,21 11,5 27,5 	"/>
</g>
<path class="st1" d="M27,4H11c-1,0-1,1-1,1v16c0,0,0,1,1,1h16c1,0,1-1,1-1V5C28,5,28,4,27,4z M26,20H12V6h14V20z"/>
</svg>
