<?xml version="1.0" encoding="utf-8"?>
<!-- Generator: Adobe Illustrator 21.0.0, SVG Export Plug-In . SVG Version: 6.00 Build 0)  -->
<svg version="1.1" id="Layer_1" xmlns="http://www.w3.org/2000/svg" xmlns:xlink="http://www.w3.org/1999/xlink" x="0px" y="0px"
	 viewBox="0 0 48 48" style="enable-background:new 0 0 48 48;" xml:space="preserve">
<style type="text/css">
	.st0{fill:url(#SVGID_1_);}
	.st1{fill:#4A4A4A;}
	.st2{fill:#1AA9E8;}
</style>
<g id="Layer_2">
	
		<linearGradient id="SVGID_1_" gradientUnits="userSpaceOnUse" x1="3.4869" y1="13.1567" x2="44.5131" y2="36.8433" gradientTransform="matrix(1 0 0 1 0 -1)">
		<stop  offset="0" style="stop-color:#FFFFFF"/>
		<stop  offset="0.7545" style="stop-color:#F5F5F5"/>
		<stop  offset="0.9973" style="stop-color:#F5F5F5"/>
	</linearGradient>
	<polygon class="st0" points="45,35 3,35 3,13 45,13 	"/>
</g>
<g>
	<path id="outline_5_" class="st1" d="M45,12H3c-1,0-1,1-1,1v22c0,0,0,1,1,1h42c1,0,1-1,1-1V13C46,13,46,12,45,12z M44,34H4V14h40
		V34z"/>
</g>
<g>
	<path class="st2" d="M16.7,19.6l-1.1,7.1c0,0.1,0,0.2,0,0.3c0,0.1,0,0.2,0.1,0.3s0.1,0.1,0.3,0.1c0.3,0,0.6-0.1,0.9-0.4
		c0.5-0.4,0.9-0.9,1.3-1.6s0.5-1.5,0.5-2.5c0-1.6-0.5-2.8-1.4-3.7c-0.9-0.9-2.1-1.4-3.6-1.4c-1.1,0-2.1,0.3-3.1,0.8
		c-0.9,0.5-1.6,1.3-2.1,2.3S7.8,23,7.8,24.3c0,1.9,0.5,3.4,1.6,4.6s2.5,1.7,4.2,1.7c0.8,0,1.6-0.1,2.4-0.4s1.5-0.7,2.2-1.3H20
		c-0.5,0.6-1,1-1.4,1.4c-0.7,0.5-1.4,0.9-2.3,1.2c-0.9,0.3-1.8,0.5-2.8,0.5c-1.4,0-2.6-0.3-3.7-1c-1.1-0.6-2-1.5-2.6-2.7
		s-0.9-2.5-0.9-3.9c0-1.5,0.3-2.8,1-4.1c0.6-1.2,1.5-2.2,2.6-2.8c1.1-0.7,2.3-1,3.8-1c1.9,0,3.4,0.6,4.6,1.8
		c1.2,1.2,1.8,2.7,1.8,4.6c0,1.1-0.2,2.1-0.7,3.1c-0.5,0.9-1.1,1.7-2,2.2c-0.7,0.4-1.3,0.6-1.9,0.6c-0.4,0-0.7-0.1-0.9-0.3
		c-0.2-0.2-0.4-0.4-0.5-0.8c-0.4,0.4-0.8,0.7-1.1,0.8c-0.3,0.2-0.7,0.2-1.1,0.2c-0.8,0-1.5-0.3-2.1-1s-0.9-1.6-0.9-2.8
		c0-1.5,0.4-2.8,1.1-4s1.6-1.8,2.7-1.8c0.4,0,0.8,0.1,1.1,0.3c0.3,0.2,0.7,0.5,1,1l0.2-1h1.7V19.6z M10.8,25.5
		c0,0.7,0.2,1.3,0.5,1.7c0.2,0.3,0.5,0.4,0.9,0.4s0.7-0.2,1-0.5s0.6-1,0.8-1.9c0.2-0.9,0.3-1.8,0.3-2.6c0-0.6-0.1-1-0.4-1.3
		c-0.3-0.3-0.5-0.4-0.9-0.4s-0.7,0.1-1,0.4c-0.4,0.4-0.7,1-0.9,1.9C10.9,24,10.8,24.8,10.8,25.5z"/>
</g>
</svg>
