<?xml version="1.0" encoding="utf-8"?>
<!-- Generator: Adobe Illustrator 21.0.0, SVG Export Plug-In . SVG Version: 6.00 Build 0)  -->
<svg version="1.1" id="Layer_1" xmlns="http://www.w3.org/2000/svg" xmlns:xlink="http://www.w3.org/1999/xlink" x="0px" y="0px"
	 viewBox="0 0 32 32" style="enable-background:new 0 0 32 32;" xml:space="preserve">
<style type="text/css">
	.st0{fill:url(#SVGID_1_);}
	.st1{fill:#4A4A4A;}
	.st2{fill:#1AA9E8;}
</style>
<g id="Layer_2">
	
		<linearGradient id="SVGID_1_" gradientUnits="userSpaceOnUse" x1="1.7189" y1="8.7548" x2="30.2811" y2="25.2452" gradientTransform="matrix(1 0 0 1 0 -1)">
		<stop  offset="0" style="stop-color:#FFFFFF"/>
		<stop  offset="0.7545" style="stop-color:#F5F5F5"/>
		<stop  offset="0.9973" style="stop-color:#F5F5F5"/>
	</linearGradient>
	<polygon class="st0" points="31,23 1,23 1,9 31,9 	"/>
</g>
<g>
	<path id="outline_5_" class="st1" d="M31,8H1C0,8,0,9,0,9v14c0,0,0,1,1,1h30c1,0,1-1,1-1V9C32,9,32,8,31,8z M30,22H2V10h28V22z"/>
</g>
<g>
	<path class="st2" d="M10.3,13l-0.6,4.1c0,0.1,0,0.1,0,0.2s0,0.1,0.1,0.1c0,0,0.1,0.1,0.2,0.1c0.2,0,0.3-0.1,0.5-0.2
		c0.3-0.2,0.5-0.5,0.7-0.9s0.3-0.9,0.3-1.4c0-0.9-0.3-1.6-0.8-2.1C10.1,12.3,9.4,12,8.5,12c-0.6,0-1.2,0.2-1.8,0.5
		c-0.5,0.3-0.9,0.8-1.2,1.3c-0.3,0.6-0.4,1.2-0.4,1.9c0,1.1,0.3,2,0.9,2.6c0.6,0.6,1.4,1,2.4,1c0.5,0,0.9-0.1,1.4-0.2
		c0.4-0.2,0.9-0.4,1.3-0.7h1.1c-0.3,0.3-0.5,0.6-0.8,0.8c-0.4,0.3-0.8,0.5-1.3,0.7s-1,0.3-1.6,0.3c-0.8,0-1.5-0.2-2.1-0.5
		c-0.6-0.4-1.1-0.9-1.5-1.6s-0.5-1.4-0.5-2.2c0-0.9,0.2-1.6,0.6-2.3s0.9-1.2,1.5-1.6c0.6-0.4,1.3-0.6,2.2-0.6c1.1,0,2,0.3,2.6,1
		c0.7,0.7,1,1.6,1,2.6c0,0.6-0.1,1.2-0.4,1.8c-0.3,0.5-0.6,1-1.2,1.3c-0.4,0.2-0.8,0.4-1.1,0.4c-0.2,0-0.4,0-0.5-0.1
		s-0.2-0.2-0.3-0.5c-0.2,0.2-0.4,0.4-0.6,0.5c-0.2,0.1-0.4,0.1-0.6,0.1c-0.5,0-0.8-0.2-1.2-0.6c-0.3-0.4-0.5-0.9-0.5-1.6
		c0-0.8,0.2-1.6,0.6-2.3s0.9-1,1.6-1c0.2,0,0.5,0.1,0.6,0.2c0.2,0.1,0.4,0.3,0.6,0.6l0-0.8H10.3z M6.9,16.4c0,0.4,0.1,0.7,0.3,0.9
		c0.1,0.2,0.3,0.3,0.5,0.3s0.4-0.1,0.6-0.3c0.2-0.2,0.3-0.6,0.5-1.1S9,15.1,9,14.7c0-0.3-0.1-0.6-0.2-0.8c-0.1-0.2-0.3-0.3-0.5-0.3
		s-0.4,0.1-0.6,0.3C7.3,14.2,7.2,14.5,7,15C6.9,15.5,6.9,16,6.9,16.4z"/>
</g>
</svg>
