<?xml version="1.0" encoding="utf-8"?>
<!-- Generator: Adobe Illustrator 21.0.0, SVG Export Plug-In . SVG Version: 6.00 Build 0)  -->
<svg version="1.1" id="Layer_1" xmlns="http://www.w3.org/2000/svg" xmlns:xlink="http://www.w3.org/1999/xlink" x="0px" y="0px"
	 viewBox="0 0 48 48" style="enable-background:new 0 0 48 48;" xml:space="preserve">
<style type="text/css">
	.st0{fill:#4A4A4A;}
</style>
<g>
	<path class="st0" d="M44,34v2h1c1,0,1-1,1-1v-1H44z"/>
	<path class="st0" d="M6,34H4H2v1c0,0,0,1,1,1h3V34z"/>
	<rect x="12" y="34" class="st0" width="4" height="2"/>
	<rect x="32" y="34" class="st0" width="4" height="2"/>
	<path class="st0" d="M46,13c0,0,0-1-1-1h-1v2v2h2V13z"/>
	<path class="st0" d="M4,14h2v-2H3c-1,0-1,1-1,1v3h2V14z"/>
	<rect x="2" y="22" class="st0" width="2" height="4"/>
	<rect x="2" y="32" class="st0" width="2" height="2"/>
	<rect x="42" y="34" class="st0" width="2" height="2"/>
	<rect x="44" y="32" class="st0" width="2" height="2"/>
	<rect x="42" y="12" class="st0" width="2" height="2"/>
	<rect x="44" y="22" class="st0" width="2" height="4"/>
	<rect x="22" y="34" class="st0" width="4" height="2"/>
	<rect x="12" y="12" class="st0" width="4" height="2"/>
	<rect x="22" y="12" class="st0" width="2" height="2"/>
	<rect x="32" y="12" class="st0" width="4" height="2"/>
	<rect x="24" y="12" class="st0" width="2" height="2"/>
</g>
</svg>
