<?xml version="1.0" encoding="utf-8"?>
<!-- Generator: Adobe Illustrator 21.0.0, SVG Export Plug-In . SVG Version: 6.00 Build 0)  -->
<svg version="1.1" id="Layer_1" xmlns="http://www.w3.org/2000/svg" xmlns:xlink="http://www.w3.org/1999/xlink" x="0px" y="0px"
	 viewBox="0 0 48 48" style="enable-background:new 0 0 48 48;" xml:space="preserve">
<style type="text/css">
	.st0{fill:url(#SVGID_1_);}
	.st1{fill:#4A4A4A;}
	.st2{fill:#1AA9E8;}
	.st3{fill:#606060;}
</style>
<g id="Layer_2">
	
		<linearGradient id="SVGID_1_" gradientUnits="userSpaceOnUse" x1="7.0718" y1="14.8039" x2="38.9282" y2="33.1961" gradientTransform="matrix(1 0 0 1 0 -1)">
		<stop  offset="0" style="stop-color:#FFFFFF"/>
		<stop  offset="0.7545" style="stop-color:#F5F5F5"/>
		<stop  offset="0.9973" style="stop-color:#F5F5F5"/>
	</linearGradient>
	<polygon class="st0" points="35,39 11,39 11,7 35,7 	"/>
</g>
<g>
	<path class="st1" d="M35,6H11c-1,0-1,1-1,1v32c0,0,0,1,1,1h24c1,0,1-1,1-1V16v-2V7C36,7,36,6,35,6z M34,38H12V16h22V38z M12,14V8
		h22v6H12z"/>
	<rect x="14" y="18" class="st2" width="18" height="2"/>
	<rect x="14" y="22" class="st2" width="18" height="2"/>
	<rect x="14" y="26" class="st2" width="18" height="2"/>
	<rect x="14" y="30" class="st2" width="18" height="2"/>
	<rect x="14" y="34" class="st2" width="18" height="2"/>
</g>
<polygon class="st3" points="28,12 30,10 26,10 "/>
</svg>
