<?xml version="1.0" encoding="utf-8"?>
<!-- Generator: Adobe Illustrator 21.0.0, SVG Export Plug-In . SVG Version: 6.00 Build 0)  -->
<svg version="1.1" id="Layer_1" xmlns="http://www.w3.org/2000/svg" xmlns:xlink="http://www.w3.org/1999/xlink" x="0px" y="0px"
	 viewBox="0 0 48 48" style="enable-background:new 0 0 48 48;" xml:space="preserve">
<style type="text/css">
	.st0{fill:#F3F3F3;}
</style>
<g>
	<path class="st0" d="M35,6H11c-1,0-1,1-1,1v32c0,0,0,1,1,1h24c1,0,1-1,1-1V16v-2V7C36,7,36,6,35,6z M34,38H12V16h22V38z M12,14V8
		h22v6H12z"/>
	<rect x="14" y="18" class="st0" width="18" height="2"/>
	<rect x="14" y="22" class="st0" width="18" height="2"/>
	<rect x="14" y="26" class="st0" width="18" height="2"/>
	<rect x="14" y="30" class="st0" width="18" height="2"/>
	<rect x="14" y="34" class="st0" width="18" height="2"/>
</g>
<polygon class="st0" points="28,12 30,10 26,10 "/>
</svg>
