<?xml version="1.0" encoding="utf-8"?>
<!-- Generator: Adobe Illustrator 21.0.0, SVG Export Plug-In . SVG Version: 6.00 Build 0)  -->
<svg version="1.1" id="Layer_1" xmlns="http://www.w3.org/2000/svg" xmlns:xlink="http://www.w3.org/1999/xlink" x="0px" y="0px"
	 viewBox="0 0 32 32" style="enable-background:new 0 0 32 32;" xml:space="preserve">
<style type="text/css">
	.st0{fill:url(#SVGID_1_);}
	.st1{fill:#4A4A4A;}
	.st2{fill:#1AA9E8;}
	.st3{fill:#606060;}
</style>
<g id="Layer_2">
	
		<linearGradient id="SVGID_1_" gradientUnits="userSpaceOnUse" x1="2.5538" y1="8.2369" x2="29.4462" y2="23.7631" gradientTransform="matrix(1 0 0 1 0 -1)">
		<stop  offset="0" style="stop-color:#FFFFFF"/>
		<stop  offset="0.7545" style="stop-color:#F5F5F5"/>
		<stop  offset="0.9973" style="stop-color:#F5F5F5"/>
	</linearGradient>
	<polygon class="st0" points="27,27 5,27 5,3 27,3 	"/>
</g>
<g>
	<path class="st1" d="M27,2H5C4,2,4,3,4,3v24c0,0,0,1,1,1h22c1,0,1-1,1-1V12v-2V3C28,3,28,2,27,2z M26,26H6V12h20V26z M6,10V4h20v6
		H6z"/>
	<rect x="8" y="14" class="st2" width="16" height="2"/>
	<rect x="8" y="18" class="st2" width="16" height="2"/>
	<rect x="8" y="22" class="st2" width="16" height="2"/>
</g>
<polygon class="st3" points="22,8 24,6 20,6 "/>
</svg>
