<?xml version="1.0" encoding="utf-8"?>
<!-- Generator: Adobe Illustrator 21.0.0, SVG Export Plug-In . SVG Version: 6.00 Build 0)  -->
<svg version="1.1" id="Layer_1" xmlns="http://www.w3.org/2000/svg" xmlns:xlink="http://www.w3.org/1999/xlink" x="0px" y="0px"
	 viewBox="0 0 48 48" style="enable-background:new 0 0 48 48;" xml:space="preserve">
<style type="text/css">
	.st0{fill:url(#SVGID_1_);}
	.st1{fill:url(#SVGID_2_);}
	.st2{fill:#07A8E8;}
	.st3{fill:#4A4A4A;}
</style>
<g id="Layer_2_1_">
	
		<linearGradient id="SVGID_1_" gradientUnits="userSpaceOnUse" x1="6.1375" y1="33.2493" x2="20.8624" y2="41.7507" gradientTransform="matrix(1 0 0 1 0 -1)">
		<stop  offset="0" style="stop-color:#FFFFFF"/>
		<stop  offset="0.7545" style="stop-color:#F5F5F5"/>
		<stop  offset="0.9973" style="stop-color:#F5F5F5"/>
	</linearGradient>
	<path class="st0" d="M13.5,45L13.5,45C8.8,45,5,41.2,5,36.5v0c0-4.7,3.8-8.5,8.5-8.5h0c4.7,0,8.5,3.8,8.5,8.5v0
		C22,41.2,18.2,45,13.5,45z"/>
</g>
<g id="Layer_2">
	
		<linearGradient id="SVGID_2_" gradientUnits="userSpaceOnUse" x1="6.1375" y1="8.2493" x2="20.8624" y2="16.7507" gradientTransform="matrix(1 0 0 1 0 -1)">
		<stop  offset="0" style="stop-color:#FFFFFF"/>
		<stop  offset="0.7545" style="stop-color:#F5F5F5"/>
		<stop  offset="0.9973" style="stop-color:#F5F5F5"/>
	</linearGradient>
	<path class="st1" d="M13.5,20L13.5,20C8.8,20,5,16.2,5,11.5v0C5,6.8,8.8,3,13.5,3h0c4.7,0,8.5,3.8,8.5,8.5v0
		C22,16.2,18.2,20,13.5,20z"/>
</g>
<g>
	<circle class="st2" cx="13.5" cy="11.5" r="4.6"/>
	<g>
		<g>
			<path class="st3" d="M13.5,2C8.3,2,4,6.3,4,11.5S8.3,21,13.5,21s9.5-4.3,9.5-9.5S18.7,2,13.5,2z M13.5,19C9.4,19,6,15.6,6,11.5
				S9.4,4,13.5,4S21,7.4,21,11.5S17.6,19,13.5,19z"/>
		</g>
	</g>
	<g>
		<g>
			<path class="st3" d="M13.5,27C8.3,27,4,31.3,4,36.5S8.3,46,13.5,46s9.5-4.3,9.5-9.5S18.7,27,13.5,27z M13.5,44
				C9.4,44,6,40.6,6,36.5S9.4,29,13.5,29s7.5,3.4,7.5,7.5S17.6,44,13.5,44z"/>
		</g>
	</g>
</g>
</svg>
