<?xml version="1.0" encoding="utf-8"?>
<!-- Generator: Adobe Illustrator 21.0.0, SVG Export Plug-In . SVG Version: 6.00 Build 0)  -->
<svg version="1.1" id="Layer_1" xmlns="http://www.w3.org/2000/svg" xmlns:xlink="http://www.w3.org/1999/xlink" x="0px" y="0px"
	 viewBox="0 0 32 32" style="enable-background:new 0 0 32 32;" xml:space="preserve">
<style type="text/css">
	.st0{fill:url(#SVGID_1_);}
	.st1{fill:#4A4A4A;}
	.st2{fill:#07A8E8;}
</style>
<g id="Layer_2">
	
		<linearGradient id="SVGID_1_" gradientUnits="userSpaceOnUse" x1="6.4721" y1="11.4991" x2="25.5279" y2="22.5009" gradientTransform="matrix(1 0 0 1 0 -1)">
		<stop  offset="0" style="stop-color:#FFFFFF"/>
		<stop  offset="0.7545" style="stop-color:#F5F5F5"/>
		<stop  offset="0.9973" style="stop-color:#F5F5F5"/>
	</linearGradient>
	<path class="st0" d="M16,27L16,27C9.9,27,5,22.1,5,16v0C5,9.9,9.9,5,16,5h0c6.1,0,11,4.9,11,11v0C27,22.1,22.1,27,16,27z"/>
</g>
<g>
	<g>
		<g>
			<path class="st1" d="M16,4C9.4,4,4,9.4,4,16s5.4,12,12,12s12-5.4,12-12S22.6,4,16,4z M16,25.5c-5.2,0-9.5-4.2-9.5-9.5
				s4.2-9.5,9.5-9.5s9.5,4.2,9.5,9.5S21.2,25.5,16,25.5z"/>
		</g>
	</g>
	<circle class="st2" cx="16" cy="16" r="5.1"/>
</g>
</svg>
