<?xml version="1.0" encoding="UTF-8"?>
<!-- Generated by Pixelmator Pro 3.4.3 -->
<svg width="32" height="32" viewBox="0 0 32 32" xmlns="http://www.w3.org/2000/svg">
    <g id="Group">
        <g id="g1">
            <path id="Path" fill="#ffffff" stroke="none" d="M 23.700001 6.299999 L 23.799999 12.5 C 23.799999 12.700001 23.700001 12.799999 23.6 12.9 C 23.5 13 23.299999 13 23.1 13 L 17.1 11.200001 C 16.9 11.1 16.799999 11 16.700001 10.799999 C 16.700001 10.6 16.700001 10.4 16.9 10.299999 L 18.6 9 C 17.799999 8.700001 16.9 8.5 16 8.4 C 13.9 8.299999 13.7 5.799999 16.200001 5.9 C 17.9 6 19.5 6.5 20.9 7.299999 L 22.799999 5.799999 C 23 5.700001 23.200001 5.700001 23.4 5.700001 C 23.6 5.9 23.700001 6.1 23.700001 6.299999 Z"/>
            <path id="Path-copy" fill="#ffffff" stroke="none" d="M 5.742498 8.049999 L 11.942499 7.950001 C 12.1425 7.950001 12.242498 8.049999 12.342499 8.15 C 12.442499 8.25 12.442499 8.450001 12.442499 8.65 L 10.6425 14.65 C 10.5425 14.85 10.442499 14.950001 10.242498 15.049999 C 10.0425 15.049999 9.842499 15.049999 9.742498 14.85 L 8.442499 13.15 C 8.1425 13.950001 7.942499 14.85 7.842499 15.75 C 7.742498 17.850002 5.242498 18.050001 5.342499 15.549999 C 5.442499 13.85 5.942499 12.25 6.742498 10.85 L 5.242498 8.950001 C 5.1425 8.75 5.1425 8.549999 5.1425 8.35 C 5.342499 8.15 5.5425 8.049999 5.742498 8.049999 Z"/>
            <path id="Path-copy-2" fill="#ffffff" stroke="none" d="M 7.492498 26.007502 L 7.3925 19.807501 C 7.3925 19.6075 7.492498 19.507502 7.592499 19.407501 C 7.692499 19.307501 7.8925 19.307501 8.092499 19.307501 L 14.092499 21.1075 C 14.2925 21.2075 14.3925 21.307501 14.492498 21.507502 C 14.492498 21.7075 14.492498 21.907501 14.2925 22.007502 L 12.592499 23.307501 C 13.3925 23.6075 14.2925 23.807501 15.192499 23.907501 C 17.292501 24.007502 19.292501 23.307501 20.792501 21.907501 C 22.3925 20.507502 24.592501 21.907501 22.592501 23.807501 C 22.292501 23.907501 22.092501 24.1075 21.792501 24.307501 C 19.8925 25.807501 17.4925 26.507502 14.992498 26.407501 C 13.2925 26.307501 11.692499 25.807501 10.2925 25.007502 L 8.3925 26.507502 C 8.192499 26.6075 7.992498 26.6075 7.7925 26.6075 C 7.592499 26.407501 7.492498 26.2075 7.492498 26.007502 Z"/>
        </g>
    </g>
</svg>
