<?xml version="1.0" encoding="UTF-8"?>
<svg xmlns="http://www.w3.org/2000/svg" xmlns:xlink="http://www.w3.org/1999/xlink" width="32px" height="32px" viewBox="0 0 32 32" x="0px" y="0px" version="1.1">
  <defs>
    <linearGradient id="fire" gradientUnits="userSpaceOnUse" x1="22.7044" y1="28.1874" x2="10.1815" y2="6.4971">
      <stop offset="0" style="stop-color:#F8FC74"/>
      <stop offset="0.3963" style="stop-color:#F5AC0F"/>
      <stop offset="0.6982" style="stop-color:#DC4015"/>
      <stop offset="1" style="stop-color:#B5481D"/>
    </linearGradient>
  </defs>
  <g>
    <path d="M25.9,21.3c0-0.4,0-0.9-0.1-1.3c-0.2-1-0.6-2.1-1-3.3c-1.1-2.8-1.4-5.6,0.7-8c0.1-0.1,0.1-0.2,0-0.3c-0.1-0.1-0.2-0.2-0.3-0.1c-3.3,0.5-5,5-5.5,6.7C18.2,12.2,18,6.8,18,2.5c0-0.1-0.1-0.2-0.1-0.2c-0.1,0-0.2,0-0.3,0c-2.6,1.6-3.9,5.3-4.4,7.9c-0.4,2.4-0.5,6.9-1.6,8.6c0,0,0,0,0,0c-0.6-2.1-2.2-5.9-3.7-7c-0.4-0.3-0.8-0.6-1.2-0.9c-0.1-0.1-0.2-0.1-0.3,0c-0.1,0.1-0.1,0.2-0.1,0.3c0.7,2,0.5,4.4,0.3,6.7C6,21.8,5.6,25.8,9.8,28.4c0.2,0.1,0.4,0.2,0.6,0.3c1.5,0.8,3.4,1.3,5.3,1.3c0.1,0,0.3,0,0.4,0c0.1,0,0.3,0,0.4,0c5.1,0,9.3-3.3,9.3-7.4C25.9,22.2,25.9,21.8,25.9,21.3" stroke="none" stroke-width="0" style="fill:url(&quot;#fire&quot;);"/>
  </g>
</svg>
