<?xml version="1.0" encoding="utf-8"?>
<!-- Generator: Adobe Illustrator 21.0.0, SVG Export Plug-In . SVG Version: 6.00 Build 0)  -->
<svg version="1.1" id="Layer_1" xmlns="http://www.w3.org/2000/svg" xmlns:xlink="http://www.w3.org/1999/xlink" x="0px" y="0px"
	 viewBox="0 0 48 48" style="enable-background:new 0 0 48 48;" xml:space="preserve">
<style type="text/css">
	.st0{fill:url(#SVGID_1_);}
</style>
<g>
	
		<linearGradient id="SVGID_1_" gradientUnits="userSpaceOnUse" x1="33.879" y1="6.9962" x2="15.1172" y2="39.4925" gradientTransform="matrix(1 0 0 -1 0 49)">
		<stop  offset="0" style="stop-color:#F8FC74"/>
		<stop  offset="0.3963" style="stop-color:#F5AC0F"/>
		<stop  offset="0.6982" style="stop-color:#DC4015"/>
		<stop  offset="1" style="stop-color:#B5481D"/>
	</linearGradient>
	<path class="st0" d="M38.6,31.7c0-0.6,0-1.3-0.1-1.9c-0.3-1.5-0.9-3.1-1.5-4.9c-1.6-4.2-2.1-8.4,1-12c0.1-0.1,0.1-0.3,0-0.4
		c-0.1-0.1-0.3-0.3-0.4-0.1c-4.9,0.7-7.5,7.5-8.2,10c-2.2-4.2-2.5-12.3-2.5-18.7c0-0.1-0.1-0.3-0.1-0.3c-0.1,0-0.3,0-0.4,0
		c-3.9,2.4-5.8,7.9-6.6,11.8C19,18.7,18.8,25.4,17.2,28l0,0c-0.9-3.1-3.3-8.8-5.5-10.5c-0.6-0.4-1.2-0.9-1.8-1.3
		c-0.1-0.1-0.3-0.1-0.4,0c-0.1,0.1-0.1,0.3-0.1,0.4c1,3,0.7,6.6,0.4,10c-0.9,5.8-1.5,11.8,4.8,15.7c0.3,0.1,0.6,0.3,0.9,0.4
		c2.2,1.2,5.1,1.9,7.9,1.9c0.1,0,0.4,0,0.6,0c0.1,0,0.4,0,0.6,0c7.6,0,13.9-4.9,13.9-11.1C38.6,33.1,38.6,32.5,38.6,31.7"/>
</g>
</svg>
