<?xml version="1.0" encoding="UTF-8"?>
<svg xmlns="http://www.w3.org/2000/svg" xmlns:xlink="http://www.w3.org/1999/xlink" width="32px" height="32px" viewBox="0 0 32 32" x="0px" y="0px" version="1.1">
  <defs>
    <path id="dbase" d="M16,1C10.4,1,4,3.1,4,6.4c0,0,0,0,0,0c0,0,0,0,0,0v6.7V20v6.8c0,3.3,6.4,5.3,12,5.3c5.6,0,12-1.9,12-5.3V20v-6.8V6.4C28,3.1,21.6,1,16,1zM26,26.7c0,1.2-4.5,3.3-10,3.3c-5.5,0-10-2.1-10-3.3V23c2.2,1.3,6.5,2,10,2c3.5,0,7.8-0.7,10-2V26.7zM26,20c0,1.2-4.5,3-10,3c-5.5,0-10-1.9-10-3v-3c2.2,1.3,6.5,2,10,2c3.5,0,7.8-0.7,10-2V20zM26,14c0,1.2-4.5,3-10,3c-5.5,0-10-1.8-10-3v-4c2.2,1.3,6.5,2,10,2c3.5,0,7.8-0.7,10-2V14zM16,10C10.5,10,6,8.2,6,7c0-1.2,4.5-4,10-4c5.5,0,10,2.8,10,4C26,8.2,21.5,10,16,10z"/>
  </defs>
  <g>
    <use xlink:href="#dbase" fill="#ffffff" stroke="#ffffff" stroke-width="0"/>
  </g>
</svg>
