<?xml version="1.0" encoding="UTF-8"?>
<svg xmlns="http://www.w3.org/2000/svg" xmlns:xlink="http://www.w3.org/1999/xlink" width="32px" height="32px" viewBox="0 0 32 32" x="0px" y="0px" version="1.1">
  <defs>
    <rect id="maskcanvas" width="32px" height="32px" fill="#ffffff"/>
    <mask id="sqlclientmask">
      <use xlink:href="#maskcanvas"/>
      <path d="M25.647,25.127l-5.209-6.939h-0.376l-0.379,0.379l-0.556-0.768c1.235-1.253,1.999-2.97,1.999-4.865C21.127,9.111,18.018,6,14.193,6c-3.824,0-6.934,3.111-6.934,6.934c0,3.824,3.11,6.935,6.934,6.935c1.133,0,2.2-0.279,3.146-0.763l0.693,0.79l-0.418,0.419v0.198c0,0,5.131,6.441,5.449,6.76c0.316,0.318,1.032,0.199,1.032,0.199s1.035-0.598,1.551-1.114C26.165,25.842,25.647,25.127,25.647,25.127zM9.708,12.934c0-2.472,2.012-4.485,4.485-4.485c2.473,0,4.484,2.013,4.484,4.485c0,2.474-2.012,4.486-4.484,4.486C11.72,17.42,9.708,15.408,9.708,12.934z" transform="translate(8 5)" fill="#000000" stroke="#000000" stroke-width="2"/>
      <circle fill="#000000"/>
    </mask>
    <path id="dbase" d="M16,1C10.4,1,4,3.1,4,6.4c0,0,0,0,0,0c0,0,0,0,0,0v6.7V20v6.8c0,3.3,6.4,5.3,12,5.3c5.6,0,12-1.9,12-5.3V20v-6.8V6.4C28,3.1,21.6,1,16,1zM26,26.7c0,1.2-4.5,3.3-10,3.3c-5.5,0-10-2.1-10-3.3V23c2.2,1.3,6.5,2,10,2c3.5,0,7.8-0.7,10-2V26.7zM26,20c0,1.2-4.5,3-10,3c-5.5,0-10-1.9-10-3v-3c2.2,1.3,6.5,2,10,2c3.5,0,7.8-0.7,10-2V20zM26,14c0,1.2-4.5,3-10,3c-5.5,0-10-1.8-10-3v-4c2.2,1.3,6.5,2,10,2c3.5,0,7.8-0.7,10-2V14zM16,10C10.5,10,6,8.2,6,7c0-1.2,4.5-4,10-4c5.5,0,10,2.8,10,4C26,8.2,21.5,10,16,10z"/>
    <path id="magnifying-glass" d="M25.647,25.127l-5.209-6.939h-0.376l-0.379,0.379l-0.556-0.768c1.235-1.253,1.999-2.97,1.999-4.865C21.127,9.111,18.018,6,14.193,6c-3.824,0-6.934,3.111-6.934,6.934c0,3.824,3.11,6.935,6.934,6.935c1.133,0,2.2-0.279,3.146-0.763l0.693,0.79l-0.418,0.419v0.198c0,0,5.131,6.441,5.449,6.76c0.316,0.318,1.032,0.199,1.032,0.199s1.035-0.598,1.551-1.114C26.165,25.842,25.647,25.127,25.647,25.127zM9.708,12.934c0-2.472,2.012-4.485,4.485-4.485c2.473,0,4.484,2.013,4.484,4.485c0,2.474-2.012,4.486-4.484,4.486C11.72,17.42,9.708,15.408,9.708,12.934z"/>
  </defs>
  <g>
    <use xlink:href="#dbase" fill="#ffffff" stroke="#ffffff" stroke-width="0" transform="scale(0.9) translate(-4 -1)" style="mask:url(&quot;#sqlclientmask&quot;);"/>
    <use xlink:href="#magnifying-glass" fill="#ffffff" stroke="#ffffff" stroke-width="0" transform="scale(0.9) translate(4 4)"/>
  </g>
</svg>
