<?xml version="1.0" encoding="UTF-8"?>
<svg xmlns="http://www.w3.org/2000/svg" xmlns:xlink="http://www.w3.org/1999/xlink" width="32px" height="32px" viewBox="0 0 32 32" x="0px" y="0px" version="1.1">
  <defs/>
  <g>
    <path d="M26.1,18.6c-1,0-2,0.5-2.5,1.3l-3.5-2.5c0.4-0.6,0.6-1.3,0.6-2c0-0.9-0.3-1.7-0.8-2.3l4.5-4.6c0.3,0.1,0.6,0.2,0.9,0.2c1.1,0,2-0.9,2-2c0-1.1-0.9-2-2-2c-1.1,0-2,0.9-2,2c0,0.4,0.1,0.8,0.3,1.1l-4.4,4.6c-0.7-0.6-1.5-0.9-2.5-0.9c-0.8,0-1.6,0.3-2.3,0.7l-3.2-3.7c0.5-0.6,0.8-1.4,0.8-2.2c0-1.9-1.5-3.5-3.5-3.5S5.2,4.3,5.2,6.2s1.5,3.5,3.5,3.5c0.7,0,1.3-0.2,1.9-0.6l3.2,3.7c-0.6,0.7-1,1.6-1,2.6c0,0.5,0.1,1,0.3,1.5l-4.7,2c-0.6-0.9-1.5-1.5-2.6-1.5c-1.7,0-3.1,1.4-3.1,3.1s1.4,3.1,3.1,3.1s3.1-1.4,3.1-3.1c0-0.2,0-0.5-0.1-0.7l4.8-2.1c0.5,0.7,1.3,1.3,2.3,1.5l0,5.7c-1.2,0.2-2.2,1.3-2.2,2.6c0,1.4,1.2,2.6,2.6,2.6c1.4,0,2.6-1.2,2.6-2.6c0-1.3-0.9-2.3-2.1-2.6l0-5.6c1,0,2-0.4,2.7-1.1l3.6,2.6c-0.1,0.3-0.2,0.6-0.2,1c0,1.7,1.4,3.2,3.2,3.2s3.2-1.4,3.2-3.2S27.8,18.6,26.1,18.6z" fill="#4a4a4a" stroke="#4a4a4a" stroke-width="0"/>
  </g>
</svg>
