<?xml version="1.0" encoding="UTF-8"?>
<!-- Generator: Adobe Illustrator 24.2.3, SVG Export Plug-In . SVG Version: 6.00 Build 0)  -->
<svg xmlns="http://www.w3.org/2000/svg" xmlns:xlink="http://www.w3.org/1999/xlink" version="1.1" id="Layer_1" x="0px" y="0px" viewBox="0 0 32 32" style="enable-background:new 0 0 32 32;" xml:space="preserve">
<style type="text/css">
	.st0{display:none;}
	.st1{display:inline;}
	.st2{fill:#4A4A4A;}
	.st3{fill:url(#headfill_1_);}
</style>

<g id="Layer_2_1_">
	<path class="st2" d="M16,2C8.3,2,2,8.3,2,16s6.3,14,14,14s14-6.3,14-14S23.7,2,16,2z M16,28C9.4,28,4,22.6,4,16S9.4,4,16,4   s12,5.4,12,12S22.6,28,16,28z"/>
	<circle class="st2" cx="20" cy="12" r="2"/>
	<circle class="st2" cx="12" cy="12" r="2"/>
</g>
<path class="st2" d="M12,18c0,2.7-4,2.7-4,0c0-1.2,2-4,2-4S12,16.8,12,18z"/>
<path class="st2" d="M18,24c0,0-0.7-0.4-2-0.4c-1.2,0-2,0.4-2,0.4c-0.6,0-1-0.4-1-1v0c0-0.6,1.2-1.4,3-1.4c2,0,3,0.8,3,1.4v0  C19,23.6,18.6,24,18,24z"/>
</svg>
