<?xml version="1.0" encoding="utf-8"?>
<!-- Generator: Adobe Illustrator 24.2.3, SVG Export Plug-In . SVG Version: 6.00 Build 0)  -->
<svg version="1.1" id="Layer_1" xmlns="http://www.w3.org/2000/svg" xmlns:xlink="http://www.w3.org/1999/xlink" x="0px" y="0px"
	 viewBox="0 0 32 32" style="enable-background:new 0 0 32 32;" xml:space="preserve">
<style type="text/css">
	.st0{fill:#4A4A4A;}
</style>
<g id="Layer_2_1_">
	<path class="st0" d="M16,2C8.3,2,2,8.3,2,16s6.3,14,14,14s14-6.3,14-14S23.7,2,16,2z M16,28C9.4,28,4,22.6,4,16S9.4,4,16,4
		s12,5.4,12,12S22.6,28,16,28z"/>
	<path class="st0" d="M20,10c1.1,0,2,0.9,2,2s-0.9,2-2,2s-2-0.9-2-2S18.9,10,20,10z"/>
	<path class="st0" d="M12,10c1.1,0,2,0.9,2,2s-0.9,2-2,2s-2-0.9-2-2S10.9,10,12,10z"/>
	<path class="st0" d="M23.7,19.4c-0.3-0.7-1.2-0.8-1.7-0.3c-1.2,1.2-3,3.9-6,3.9c-4,0-4.8-2.7-6-3.9c-0.5-0.5-1.4-0.3-1.7,0.3l0,0
		c-0.2,0.4-0.1,0.9,0.2,1.2c1,1.1,2.5,4.4,7.6,4.4c4.9,0,6.4-3.3,7.4-4.4C23.8,20.3,23.9,19.8,23.7,19.4L23.7,19.4z"/>
</g>
<path class="st0" d="M13.3,9.6l-2.6-1.5c-0.5-0.3-0.6-0.9-0.4-1.4l0,0c0.3-0.5,0.9-0.6,1.4-0.4l2.6,1.5c0.5,0.3,0.6,0.9,0.4,1.4l0,0
	C14.4,9.7,13.8,9.9,13.3,9.6z"/>
<path class="st0" d="M21.3,8.1l-2.6,1.5c-0.5,0.3-1.1,0.1-1.4-0.4l0,0c-0.3-0.5-0.1-1.1,0.4-1.4l2.6-1.5c0.5-0.3,1.1-0.1,1.4,0.4
	l0,0C21.9,7.2,21.8,7.8,21.3,8.1z"/>
</svg>
