<?xml version="1.0" encoding="utf-8"?>
<!-- Generator: Adobe Illustrator 24.2.3, SVG Export Plug-In . SVG Version: 6.00 Build 0)  -->
<svg version="1.1" id="Layer_1" xmlns="http://www.w3.org/2000/svg" xmlns:xlink="http://www.w3.org/1999/xlink" x="0px" y="0px"
	 viewBox="0 0 32 32" style="enable-background:new 0 0 32 32;" xml:space="preserve">
<style type="text/css">
	.st0{fill:#4A4A4A;}
</style>
<g id="Layer_2_1_">
	<path class="st0" d="M16,2C8.3,2,2,8.3,2,16s6.3,14,14,14s14-6.3,14-14S23.7,2,16,2z M16,28C9.4,28,4,22.6,4,16S9.4,4,16,4
		s12,5.4,12,12S22.6,28,16,28z"/>
	<circle class="st0" cx="20" cy="12" r="2"/>
	<circle class="st0" cx="12" cy="12" r="2"/>
</g>
<path class="st0" d="M24.6,21.2c0-0.8-0.8-1.2-1.4-1c-1.6,0.6-2.8,1.9-5.2,0.8c-0.1,0-1.9-1-2-1c-3.4-1.5-6.6-0.5-7.9,0.1
	c-0.4,0.1-0.7,0.6-0.7,1c0,0.8,0.8,1.2,1.4,1c1.6-0.6,3.2-1.1,6.2-0.1c0.1,0,1.9,1,2,1c3.4,1.5,5.6-0.2,7-0.8
	C24.3,22,24.6,21.6,24.6,21.2z"/>
</svg>
