<?xml version="1.0" encoding="utf-8"?>
<!-- Generator: Adobe Illustrator 24.2.3, SVG Export Plug-In . SVG Version: 6.00 Build 0)  -->
<svg version="1.1" id="Layer_1" xmlns="http://www.w3.org/2000/svg" xmlns:xlink="http://www.w3.org/1999/xlink" x="0px" y="0px"
	 viewBox="0 0 32 32" style="enable-background:new 0 0 32 32;" xml:space="preserve">
<style type="text/css">
	.st0{fill:#4A4A4A;}
</style>
<g id="Layer_2_1_">
	<path class="st0" d="M16,2C8.3,2,2,8.3,2,16s6.3,14,14,14s14-6.3,14-14S23.7,2,16,2z M16,28C9.4,28,4,22.6,4,16S9.4,4,16,4
		s12,5.4,12,12S22.6,28,16,28z"/>
	<path class="st0" d="M19.5,11c0.8,0,1.5,0.4,1.5,1s-0.7,1-1.5,1S18,12.6,18,12S18.7,11,19.5,11z"/>
	<path class="st0" d="M12.5,11c0.8,0,1.5,0.4,1.5,1s-0.7,1-1.5,1c-0.8,0-1.5-0.4-1.5-1S11.7,11,12.5,11z"/>
	<path class="st0" d="M23.7,18.4c-0.3-0.7-1.2-0.8-1.7-0.3c-1.2,1.2-3,3.9-6,3.9c-4,0-4.8-2.7-6-3.9c-0.5-0.5-1.4-0.3-1.7,0.3l0,0
		c-0.2,0.4-0.1,0.9,0.2,1.2c1,1.1,2.5,4.4,7.6,4.4c4.9,0,6.4-3.3,7.4-4.4C23.8,19.3,23.9,18.8,23.7,18.4L23.7,18.4z"/>
</g>
<path class="st0" d="M13.3,9.6l-2.6-1.5c-0.5-0.3-0.6-0.9-0.4-1.4l0,0c0.3-0.5,0.9-0.6,1.4-0.4c0,0,3.2,2.4,3,2.9l0,0
	C14.4,9.7,13.8,9.9,13.3,9.6z"/>
<path class="st0" d="M21.3,8.1l-2.6,1.5c-0.5,0.3-1.1,0.1-1.4-0.4l0,0c-0.3-0.5,3-2.9,3-2.9c0.5-0.3,1.1-0.1,1.4,0.4l0,0
	C21.9,7.2,21.8,7.8,21.3,8.1z"/>
<path class="st0" d="M8.8,6.7c0.3,1.2-1.8,4.2-3,4c-2.3-0.4-4-9-4-9S8.4,4.8,8.8,6.7z"/>
<path class="st0" d="M22.9,6.7c-0.3,1.2,1.8,4.2,3,4c2.3-0.4,4-9,4-9S23.3,4.8,22.9,6.7z"/>
<path class="st0" d="M19,21.7c0.4-0.6,2.3-0.9,2.7-0.4c0.8,1.1-1.9,5.1-1.9,5.1S18.4,22.6,19,21.7z"/>
<path class="st0" d="M12.7,21.7c-0.4-0.6-2.3-0.9-2.7-0.4c-0.8,1.1,1.9,5.1,1.9,5.1S13.3,22.6,12.7,21.7z"/>
</svg>
