<?xml version="1.0" encoding="utf-8"?>
<!-- Generator: Adobe Illustrator 24.2.3, SVG Export Plug-In . SVG Version: 6.00 Build 0)  -->
<svg version="1.1" id="Layer_1" xmlns="http://www.w3.org/2000/svg" xmlns:xlink="http://www.w3.org/1999/xlink" x="0px" y="0px"
	 viewBox="0 0 32 32" style="enable-background:new 0 0 32 32;" xml:space="preserve">
<style type="text/css">
	.st0{fill:#F3F3F3;}
	.st1{fill:#4A4A4A;}
</style>
<rect x="8" y="18" class="st0" width="16" height="4"/>
<g id="Layer_2_1_">
	<path class="st1" d="M16,2C8.3,2,2,8.3,2,16s6.3,14,14,14s14-6.3,14-14S23.7,2,16,2z M16,28C9.4,28,4,22.6,4,16S9.4,4,16,4
		s12,5.4,12,12S22.6,28,16,28z"/>
	<path class="st1" d="M20,10l2,2c0,1.1-0.9,2-2,2s-2-0.9-2-2S18.9,10,20,10z"/>
	<path class="st1" d="M12,10c1.1,0,2,0.9,2,2s-0.9,2-2,2s-2-0.9-2-2L12,10z"/>
</g>
<path class="st1" d="M21,16H11c-2.2,0-4,1.8-4,4s1.8,4,4,4h10c2.2,0,4-1.8,4-4S23.2,16,21,16z M23,20.9c0,0.6-0.5,1.1-1.1,1.1H10.1
	C9.5,22,9,21.5,9,20.9v-1.8c0-0.6,0.5-1.1,1.1-1.1h11.8c0.6,0,1.1,0.5,1.1,1.1C23,19.1,23,20.9,23,20.9z"/>
</svg>
