<?xml version="1.0" encoding="utf-8"?>
<!-- Generator: Adobe Illustrator 24.2.3, SVG Export Plug-In . SVG Version: 6.00 Build 0)  -->
<svg version="1.1" xmlns="http://www.w3.org/2000/svg" xmlns:xlink="http://www.w3.org/1999/xlink" x="0px" y="0px"
	 viewBox="0 0 32 32" style="enable-background:new 0 0 32 32;" xml:space="preserve">
<style type="text/css">
	.st0{display:none;}
	.st1{display:inline;}
	.st2{fill:#4A4A4A;}
	.st3{fill:url(#headfill_1_);}
</style>
<g id="Layer_1" class="st0">
	<g class="st1">
		<g>
			<path id="headoutline" class="st2" d="M2.1,15.9C2.1,8.2,8.3,2,16,2s14.1,6.2,14.1,13.9S23.7,30,16,30S2.1,23.6,2.1,15.9z
				 M3.8,15.9c0,6.7,5.5,12.3,12.2,12.3c6.8,0,12.3-5.5,12.3-12.3c0-6.7-5.5-12.2-12.3-12.2C9.4,3.7,3.9,9.2,3.8,15.9z"/>
		</g>
		<g>
			
				<radialGradient id="headfill_1_" cx="16.0634" cy="18.0473" r="12.1276" gradientTransform="matrix(1 0 0 -1 0 34)" gradientUnits="userSpaceOnUse">
				<stop  offset="0" style="stop-color:#FCC610"/>
				<stop  offset="1" style="stop-color:#FFD62A"/>
			</radialGradient>
			<path id="headfill" class="st3" d="M3.8,15.9C3.9,9.2,9.3,4,16,4s12.4,5.2,12.4,11.9C28.4,22.7,22.8,28,16,28
				C9.2,27.9,3.8,22.6,3.8,15.9z"/>
		</g>
		<path class="st2" d="M10.1,12.9c0-1,1-1,2-1s3,0,3,1s-2,1-3,1S10.1,13.9,10.1,12.9z"/>
		<g>
			<path id="righteye" class="st2" d="M18.7,12.3c0-1,0.8-1.7,1.8-1.7s1.7,0.8,1.7,1.8s-0.8,1.8-1.8,1.7
				C19.5,14.1,18.7,13.3,18.7,12.3z"/>
		</g>
		<path class="st2" d="M6.2,28.4c-2.7-1.1-4.7-3.3-5.3-6.6c-0.2-0.7,0.4-1.3,1-1.1c0.4,0,0.6,0.3,0.7,0.8c0.2,1,0.6,1.9,1.1,2.8
			c2.5,3.5,7.2,4.1,10.5,1.5c0.3-0.3,0.7-0.4,1-0.2c0.6,0.3,0.7,1.1,0.1,1.5c-1.2,0.9-2.5,1.5-3.9,1.9C9.9,29.2,8.3,29,6.2,28.4z"/>
	</g>
</g>
<g id="Layer_2">
	<path class="st2" d="M16,2C8.3,2,2,8.3,2,16s6.3,14,14,14s14-6.3,14-14S23.7,2,16,2z M16,28C9.4,28,4,22.6,4,16S9.4,4,16,4
		s12,5.4,12,12S22.6,28,16,28z"/>
	<circle class="st2" cx="20" cy="12" r="2"/>
	<circle class="st2" cx="12" cy="12" r="2"/>
	<path class="st2" d="M23.7,22.4c0.2-0.4,0.1-0.9-0.2-1.2c-1-1.1-3.7-3.4-7.4-3.4c-3.9,0-6.6,2.3-7.6,3.4c-0.3,0.3-0.4,0.8-0.2,1.2
		l0,0c0.3,0.6,1.2,0.8,1.7,0.3c1.2-1.2,3.4-2.9,6-2.9c2.6,0,4.8,1.7,6,2.9C22.5,23.2,23.4,23.1,23.7,22.4L23.7,22.4z"/>
</g>
</svg>
