<?xml version="1.0" encoding="UTF-8"?>
<!-- Generator: Adobe Illustrator 24.2.3, SVG Export Plug-In . SVG Version: 6.00 Build 0)  -->
<svg xmlns="http://www.w3.org/2000/svg" xmlns:xlink="http://www.w3.org/1999/xlink" version="1.1" x="0px" y="0px" viewBox="0 0 32 32" style="enable-background:new 0 0 32 32;" xml:space="preserve">
<style type="text/css">
	.st0{display:none;}
	.st1{display:inline;}
	.st2{fill:#4A4A4A;}
	.st3{fill:url(#headfill_1_);}
</style>

<g id="Layer_2">
	<path class="st2" d="M16,2C8.3,2,2,8.3,2,16s6.3,14,14,14s14-6.3,14-14S23.7,2,16,2z M16,28C9.4,28,4,22.6,4,16S9.4,4,16,4   s12,5.4,12,12S22.6,28,16,28z"/>
	<circle class="st2" cx="20" cy="12" r="2"/>
	<circle class="st2" cx="12" cy="12" r="2"/>
	<path class="st2" d="M23.7,22.4c0.2-0.4,0.1-0.9-0.2-1.2c-1-1.1-3.7-3.4-7.4-3.4c-3.9,0-6.6,2.3-7.6,3.4c-0.3,0.3-0.4,0.8-0.2,1.2   l0,0c0.3,0.6,1.2,0.8,1.7,0.3c1.2-1.2,3.4-2.9,6-2.9c2.6,0,4.8,1.7,6,2.9C22.5,23.2,23.4,23.1,23.7,22.4L23.7,22.4z"/>
</g>
</svg>
