<?xml version="1.0" encoding="utf-8"?>
<!-- Generator: Adobe Illustrator 24.2.3, SVG Export Plug-In . SVG Version: 6.00 Build 0)  -->
<svg version="1.1" id="Layer_1" xmlns="http://www.w3.org/2000/svg" xmlns:xlink="http://www.w3.org/1999/xlink" x="0px" y="0px"
	 viewBox="0 0 32 32" style="enable-background:new 0 0 32 32;" xml:space="preserve">
<style type="text/css">
	.st0{fill:#4A4A4A;}
</style>
<g id="Layer_2_1_">
	<path class="st0" d="M16,2C8.3,2,2,8.3,2,16s6.3,14,14,14s14-6.3,14-14S23.7,2,16,2z M16,28C9.4,28,4,22.6,4,16S9.4,4,16,4
		s12,5.4,12,12S22.6,28,16,28z"/>
	<circle class="st0" cx="20" cy="12" r="2"/>
	<circle class="st0" cx="12" cy="12" r="2"/>
	<path class="st0" d="M23.7,19.4c0.2,0.4,0.1,0.9-0.2,1.2c-1,1.1-3.7,3.4-7.4,3.4c-3.9,0-6.6-2.3-7.6-3.4c-0.3-0.3-0.4-0.8-0.2-1.2
		l0,0c0.3-0.6,1.2-0.8,1.7-0.3c1.2,1.2,3.4,2.9,6,2.9s4.8-1.7,6-2.9C22.5,18.6,23.4,18.7,23.7,19.4L23.7,19.4z"/>
</g>
<path class="st0" d="M16,1C8.3,1,2.3,2.8,2.2,4.3C2,6,8.3,9,16,9s15-3,14.2-4.7C29.5,2.9,23.7,1,16,1z M16.2,6.6
	c-6.6,0-11.3-1.3-12-2.3C4,4,9.6,1.9,16.2,1.9S28,4,28.2,4.3C28.8,5.4,22.8,6.6,16.2,6.6z"/>
</svg>
