<?xml version="1.0" encoding="utf-8"?>
<!-- Generator: Adobe Illustrator 24.2.3, SVG Export Plug-In . SVG Version: 6.00 Build 0)  -->
<svg version="1.1" id="Layer_1" xmlns="http://www.w3.org/2000/svg" xmlns:xlink="http://www.w3.org/1999/xlink" x="0px" y="0px"
	 viewBox="0 0 32 32" style="enable-background:new 0 0 32 32;" xml:space="preserve">
<style type="text/css">
	.st0{fill:#4A4A4A;}
</style>
<g id="Layer_2_1_">
	<path class="st0" d="M16,2C8.3,2,2,8.3,2,16s6.3,14,14,14s14-6.3,14-14S23.7,2,16,2z M16,28C9.4,28,4,22.6,4,16S9.4,4,16,4
		s12,5.4,12,12S22.6,28,16,28z"/>
	<circle class="st0" cx="20" cy="12" r="2"/>
	<circle class="st0" cx="12" cy="12" r="2"/>
	<path class="st0" d="M19,22l-2.1,1.4c-0.6,0.4-1.3,0.4-1.8,0L13,22c-0.6,0-1-0.4-1-1v0c0-0.6,0.4-1,1-1l0.3-0.5
		c0.4-0.7,1.3-0.9,1.9-0.3L16,20l0.8-0.8c0.6-0.6,1.5-0.4,1.9,0.3L19,20c0.6,0,1,0.4,1,1v0C20,21.6,19.6,22,19,22z"/>
</g>
</svg>
