<?xml version="1.0" encoding="utf-8"?>
<!-- Generator: Adobe Illustrator 24.2.3, SVG Export Plug-In . SVG Version: 6.00 Build 0)  -->
<svg version="1.1" id="Layer_1" xmlns="http://www.w3.org/2000/svg" xmlns:xlink="http://www.w3.org/1999/xlink" x="0px" y="0px"
	 viewBox="0 0 32 32" style="enable-background:new 0 0 32 32;" xml:space="preserve">
<style type="text/css">
	.st0{fill:#4A4A4A;}
</style>
<g id="Layer_2_1_">
	<path class="st0" d="M16,2C8.3,2,2,8.3,2,16s6.3,14,14,14s14-6.3,14-14S23.7,2,16,2z M16,28C9.4,28,4,22.6,4,16S9.4,4,16,4
		s12,5.4,12,12S22.6,28,16,28z"/>
	<circle class="st0" cx="20" cy="12" r="2"/>
	<circle class="st0" cx="12" cy="12" r="2"/>
	<path class="st0" d="M19.8,24.4l-8.7-5c-0.5-0.3-0.6-0.9-0.4-1.4h0c0.3-0.5,0.9-0.6,1.4-0.4l8.7,5c0.5,0.3,0.6,0.9,0.4,1.4h0
		C20.9,24.5,20.3,24.6,19.8,24.4z"/>
	<path class="st0" d="M20.8,19.4l-8.7,5c-0.5,0.3-1.1,0.1-1.4-0.4h0c-0.3-0.5-0.1-1.1,0.4-1.4l8.7-5c0.5-0.3,1.1-0.1,1.4,0.4h0
		C21.5,18.5,21.3,19.1,20.8,19.4z"/>
</g>
</svg>
