<?xml version="1.0" encoding="utf-8"?>
<!-- Generator: Adobe Illustrator 24.2.3, SVG Export Plug-In . SVG Version: 6.00 Build 0)  -->
<svg version="1.1" id="Layer_1" xmlns="http://www.w3.org/2000/svg" xmlns:xlink="http://www.w3.org/1999/xlink" x="0px" y="0px"
	 viewBox="0 0 32 32" style="enable-background:new 0 0 32 32;" xml:space="preserve">
<style type="text/css">
	.st0{fill:#F3F3F3;}
	.st1{fill:#4A4A4A;}
</style>
<polygon class="st0" points="19.2,24.5 12.4,24.3 8.1,19.1 24.1,19.1 "/>
<g id="Layer_2_1_">
	<path class="st1" d="M16,2C8.3,2,2,8.3,2,16s6.3,14,14,14s14-6.3,14-14S23.7,2,16,2z M16,28C9.4,28,4,22.6,4,16S9.4,4,16,4
		s12,5.4,12,12S22.6,28,16,28z"/>
	<path class="st1" d="M20,10l2,2c0,1.1-0.9,2-2,2s-2-0.9-2-2S18.9,10,20,10z"/>
	<path class="st1" d="M12,10c1.1,0,2,0.9,2,2s-0.9,2-2,2s-2-0.9-2-2L12,10z"/>
</g>
<path class="st1" d="M6,18c0,0,1,8,10,8c8,0,10-8,10-8H6z M16,24c-4,0-7-4-7-4h14C23,20,20,24,16,24z"/>
<path class="st1" d="M10.6,9.4l1.9-1.1c0.4-0.3,0.6-0.8,0.3-1.2l-0.1-0.2c-0.3-0.4-0.8-0.6-1.2-0.3L9.6,7.7C9.1,7.9,9,8.5,9.2,8.9
	l0.1,0.2C9.6,9.5,10.1,9.7,10.6,9.4z"/>
<path class="st1" d="M21.4,9.4l-1.7-1C19.2,8.1,19,7.5,19.3,7l0,0c0.3-0.5,0.9-0.6,1.4-0.4l1.7,1C22.8,7.9,23,8.5,22.7,9l0,0
	C22.5,9.5,21.8,9.6,21.4,9.4z"/>
</svg>
