<?xml version="1.0" encoding="utf-8"?>
<!-- Generator: Adobe Illustrator 24.2.3, SVG Export Plug-In . SVG Version: 6.00 Build 0)  -->
<svg version="1.1" id="Layer_2_1_" xmlns="http://www.w3.org/2000/svg" xmlns:xlink="http://www.w3.org/1999/xlink" x="0px" y="0px"
	 viewBox="0 0 32 32" style="enable-background:new 0 0 32 32;" xml:space="preserve">
<style type="text/css">
	.st0{fill:#4A4A4A;}
	.st1{fill:#F3F3F3;}
</style>
<path class="st0" d="M16,2C8.3,2,2,8.3,2,16s6.3,14,14,14s14-6.3,14-14S23.7,2,16,2z M16,28C9.4,28,4,22.6,4,16S9.4,4,16,4
	s12,5.4,12,12S22.6,28,16,28z"/>
<circle class="st0" cx="20" cy="12" r="2"/>
<circle class="st0" cx="12" cy="12" r="2"/>
<circle class="st0" cx="16" cy="22" r="2"/>
<g>
	<path class="st0" d="M15.9,24.5L5.7,29.1c-0.7,0.3-1.5,0-1.8-0.7l-0.5-1.1c-0.3-0.7,0-1.5,0.7-1.8l10.2-4.6c0.7-0.3,1.5,0,1.8,0.7
		l0.5,1.1C16.9,23.4,16.6,24.2,15.9,24.5z"/>
	<rect x="4.1" y="24.4" transform="matrix(0.9111 -0.4122 0.4122 0.9111 -9.6596 6.0067)" class="st1" width="10" height="2"/>
</g>
<path class="st0" d="M10,15"/>
<path class="st0" d="M4.3,26.4l-0.6-0.8c2-1.5,3.7-3.1,3.8-3.6c0-0.2-0.5-0.6-0.8-0.9c-0.6-0.6-1.2-1.3-1.2-2.1
	c0-0.4,0.4-0.9,0.9-1.5C6.8,17,7.5,16.3,7.5,16c0-0.4-0.9-1.1-1.7-1.6l0.5-0.9c0.5,0.3,2.3,1.3,2.3,2.4c0,0.8-0.7,1.5-1.3,2.2
	c-0.3,0.3-0.6,0.7-0.7,0.8c0,0.3,0.6,0.9,1,1.3c0.6,0.6,1,1.1,1,1.6C8.5,23.1,5.9,25.2,4.3,26.4z"/>
</svg>
