<?xml version="1.0" encoding="UTF-8"?>
<!-- Generator: Adobe Illustrator 24.2.3, SVG Export Plug-In . SVG Version: 6.00 Build 0)  -->
<svg xmlns="http://www.w3.org/2000/svg" xmlns:xlink="http://www.w3.org/1999/xlink" version="1.1" x="0px" y="0px" viewBox="0 0 32 32" style="enable-background:new 0 0 32 32;" xml:space="preserve">
<style type="text/css">
	.st0{display:none;}
	.st1{display:inline;}
	.st2{fill:#4A4A4A;}
	.st3{fill:url(#headfill_1_);}
</style>

<g id="Layer_2">
	<path class="st2" d="M16,2C8.3,2,2,8.3,2,16s6.3,14,14,14s14-6.3,14-14S23.7,2,16,2z M16,28C9.4,28,4,22.6,4,16S9.4,4,16,4   s12,5.4,12,12S22.6,28,16,28z"/>
	<circle class="st2" cx="20" cy="12" r="2"/>
	<path class="st2" d="M22.9,21.7c0.1,0.4-0.1,0.9-0.5,1.1c-1.3,0.8-4.5,2.2-8.1,1.1c-3.8-1.1-5.6-4.2-6.3-5.5   c-0.2-0.4-0.1-0.9,0.2-1.2l0,0c0.5-0.5,1.3-0.4,1.7,0.2c0.8,1.5,2.4,3.8,4.9,4.5c2.5,0.8,5.1-0.2,6.6-1C22,20.6,22.8,21,22.9,21.7   L22.9,21.7z"/>
	<path class="st2" d="M14,13h-4c-0.6,0-1-0.4-1-1v0c0-0.6,0.4-1,1-1h4c0.6,0,1,0.4,1,1v0C15,12.6,14.6,13,14,13z"/>
</g>
</svg>
