<?xml version="1.0" encoding="utf-8"?>
<!-- Generator: Adobe Illustrator 24.2.3, SVG Export Plug-In . SVG Version: 6.00 Build 0)  -->
<svg version="1.1" id="Layer_2_1_" xmlns="http://www.w3.org/2000/svg" xmlns:xlink="http://www.w3.org/1999/xlink" x="0px" y="0px"
	 viewBox="0 0 32 32" style="enable-background:new 0 0 32 32;" xml:space="preserve">
<style type="text/css">
	.st0{fill:#4A4A4A;}
</style>
<path class="st0" d="M16,2C8.3,2,2,8.3,2,16s6.3,14,14,14s14-6.3,14-14S23.7,2,16,2z M16,28C9.4,28,4,22.6,4,16S9.4,4,16,4
	s12,5.4,12,12S22.6,28,16,28z"/>
<path class="st0" d="M14.8,11.2c-0.2-0.5-4.1-2-4.1-2C10.3,8.9,9.7,9,9.4,9.5s-0.1,1.1,0.4,1.4l1.6,0.9l-1.5,0.8
	c-0.5,0.3-0.7,0.9-0.4,1.3c0.3,0.5,0.9,0.7,1.3,0.4c0,0,3.8-2,3.8-2C14.9,12,15,11.5,14.8,11.2z"/>
<path class="st0" d="M17.4,12.2c0.2,0.5,4.1,2,4.1,2c0.5,0.3,1.1,0.1,1.4-0.4s0.1-1.1-0.4-1.4l-1.6-0.9l1.5-0.8
	c0.5-0.3,0.7-0.9,0.4-1.3C22.5,9,21.9,8.8,21.4,9c0,0-3.8,2-3.8,2C17.3,11.4,17.2,11.8,17.4,12.2z"/>
<path class="st0" d="M16,16c-3.3,0-6,2.2-6,5c0,1.9,1.2,3.5,3,4.3c0.2-0.8,1.4-1.3,3-1.3s2.8,0.6,3,1.3c1.8-0.9,3-2.5,3-4.3
	C22,18.2,19.3,16,16,16z"/>
</svg>
