<?xml version="1.0" encoding="UTF-8"?>
<!-- Generated by Pixelmator Pro 3.6.18 -->
<svg width="48" height="48" viewBox="0 0 48 48" xmlns="http://www.w3.org/2000/svg">
    <path id="Rectangle" fill="#f0f0f0" fill-rule="evenodd" stroke="#b3b3b3" stroke-width="2" d="M 1 47 L 47 47 L 47 1 L 1 1 Z"/>
    <path id="Oval" fill="none" stroke="#4a4a4a" stroke-width="4" stroke-linecap="round" stroke-linejoin="round" d="M 34 24 C 34 18.477154 29.522846 14 24 14 C 18.477152 14 14 18.477154 14 24 C 14 29.522848 18.477152 34 24 34 C 29.522846 34 34 29.522848 34 24 Z"/>
    <path id="Oval-copy" fill="#4a4a4a" stroke="none" d="M 28 24 C 28 21.790861 26.209139 20 24 20 C 21.790861 20 20 21.790861 20 24 C 20 26.209139 21.790861 28 24 28 C 26.209139 28 28 26.209139 28 24 Z"/>
    <path id="path1" fill="#4a4a4a" fill-rule="evenodd" stroke="none" d="M 22 14 L 26 14 L 26 8 L 22 8 Z"/>
    <path id="Rectangle-copy-2" fill="#4a4a4a" fill-rule="evenodd" stroke="none" d="M 8 26 L 14 26 L 14 22 L 8 22 Z"/>
    <path id="Rectangle-copy-3" fill="#4a4a4a" fill-rule="evenodd" stroke="none" d="M 22 40 L 26 40 L 26 34 L 22 34 Z"/>
    <path id="Rectangle-copy" fill="#4a4a4a" fill-rule="evenodd" stroke="none" d="M 34 26 L 40 26 L 40 22 L 34 22 Z"/>
</svg>
