<?xml version="1.0" standalone="no"?>
<!DOCTYPE svg PUBLIC "-//W3C//DTD SVG 20010904//EN"
 "http://www.w3.org/TR/2001/REC-SVG-20010904/DTD/svg10.dtd">
<svg version="1.0" xmlns="http://www.w3.org/2000/svg"
 width="700.000000pt" height="700.000000pt" viewBox="0 0 700.000000 700.000000"
 preserveAspectRatio="xMidYMid meet">
<metadata>
Created by potrace 1.11, written by Peter Selinger 2001-2013
</metadata>
<g transform="translate(0.000000,700.000000) scale(0.100000,-0.100000)"
fill="#000000" stroke="none">
<path d="M3335 6704 c-431 -33 -735 -102 -1079 -246 -1005 -419 -1736 -1336
-1915 -2404 -35 -208 -44 -323 -44 -549 -1 -238 11 -375 49 -585 224 -1232
1134 -2210 2350 -2525 272 -70 499 -98 804 -98 368 0 652 44 995 153 619 198
1170 591 1565 1115 117 156 167 234 259 402 197 359 325 774 372 1203 16 148
16 512 0 660 -104 948 -584 1763 -1361 2307 -425 298 -924 486 -1455 548 -130
15 -446 26 -540 19z m666 -1176 c39 -13 113 -61 245 -159 273 -203 547 -457
645 -599 92 -134 167 -201 276 -248 127 -55 241 -126 353 -220 144 -122 255
-264 331 -426 59 -126 76 -200 61 -267 -18 -80 -64 -152 -130 -205 -83 -66
-98 -72 -212 -83 -160 -17 -255 -14 -337 10 -39 12 -78 19 -86 16 -7 -3 -38
-54 -67 -113 -139 -281 -339 -570 -522 -760 -60 -61 -108 -117 -108 -125 0
-23 -41 -190 -70 -284 -16 -49 -30 -105 -32 -124 -3 -33 0 -36 61 -71 125 -71
171 -126 171 -205 0 -30 -3 -35 -17 -31 -10 2 -28 7 -40 11 -18 5 -24 1 -29
-19 -6 -24 -10 -26 -61 -26 -66 0 -220 17 -281 31 l-44 9 -126 -118 c-144
-134 -182 -165 -267 -216 -52 -31 -69 -36 -121 -36 -43 0 -65 5 -74 15 -7 8
-23 15 -36 15 -23 0 -24 3 -24 60 l0 61 81 77 c70 67 81 83 86 119 l6 42 -55
24 c-66 29 -249 63 -418 77 -146 12 -222 24 -304 48 -56 16 -62 21 -95 75 -20
32 -53 85 -73 117 -21 32 -54 89 -75 127 -105 194 -255 373 -383 457 -36 24
-126 74 -200 111 -159 79 -231 129 -322 222 -126 129 -207 283 -228 435 -13
85 -6 151 21 226 23 63 17 76 -48 116 -30 18 -49 38 -59 64 -8 20 -26 60 -39
87 -13 28 -35 76 -48 107 -34 76 -88 155 -197 283 -103 122 -109 142 -58 200
34 39 82 67 167 96 233 81 550 -128 611 -401 6 -30 19 -80 27 -111 l15 -57 82
33 c44 18 119 48 166 68 261 106 314 120 497 138 263 26 591 -40 904 -181 61
-27 134 -65 162 -84 104 -69 184 -99 274 -104 74 -4 88 -2 136 22 62 30 101
79 152 190 45 97 98 162 185 227 80 59 113 105 83 115 -10 3 -63 23 -118 44
-55 21 -125 46 -155 55 -259 82 -520 197 -648 284 -148 102 -285 245 -313 328
-18 56 2 66 116 59 112 -7 200 -31 347 -95 63 -28 147 -59 187 -70 86 -24 221
-38 221 -24 0 23 -79 120 -130 160 -106 83 -171 155 -207 229 -18 39 -35 84
-36 100 -2 26 4 32 52 57 59 29 116 35 172 15z"/>
<path d="M3960 2622 c-63 -14 -384 -20 -752 -12 -130 3 -239 2 -242 -1 -10
-10 33 -160 64 -228 66 -140 178 -304 220 -320 43 -17 302 -79 377 -90 84 -13
359 -15 367 -3 13 21 27 287 24 467 l-3 200 -55 -13z"/>
</g>
</svg>
