<?xml version="1.0" encoding="UTF-8"?>
<!-- Generated by Pixelmator Pro 3.4.3 -->
<svg width="48" height="48" viewBox="0 0 48 48" xmlns="http://www.w3.org/2000/svg">
    <g id="markers-filled">
        <path id="shadow-filled" fill="#000000" fill-opacity="0.503829" fill-rule="evenodd" stroke="none" d="M 37 18.434782 C 37 9.982426 33.156822 6 25 6 C 16.84318 6 13 9.982426 13 18.434782 C 13 26.88714 25 39 25 39 C 25 39 37 26.88714 37 18.434782 Z"/>
        <path id="highlight-filled" fill="#ffffff" fill-opacity="0.699576" fill-rule="evenodd" stroke="none" d="M 35 18.434782 C 35 9.982426 31.15682 6 23 6 C 14.84318 6 11 9.982426 11 18.434782 C 11 26.88714 23 39 23 39 C 23 39 35 26.88714 35 18.434782 Z"/>
        <path id="blue-filled" fill="#308fe2" fill-rule="evenodd" stroke="#2773b7" d="M 36 18.434782 C 36 9.982426 32.156822 6 24 6 C 15.84318 6 12 9.982426 12 18.434782 C 12 26.88714 24 39 24 39 C 24 39 36 26.88714 36 18.434782 Z"/>
    </g>
</svg>
