<?xml version="1.0" encoding="UTF-8"?>
<!-- Generated by Pixelmator Pro 3.4.3 -->
<svg width="48" height="48" viewBox="0 0 48 48" xmlns="http://www.w3.org/2000/svg">
    <g id="markers">
        <path id="shadow" fill="#000000" fill-opacity="0.49832" fill-rule="evenodd" stroke="none" d="M 25 39 C 25 39 13 26.887897 13 18.435547 C 13 9.9832 16.843187 6 25 6 C 33.156815 6 37 9.9832 37 18.435547 C 37 26.887897 25 39 25 39 Z M 25 24 C 28.313705 24 31 21.313705 31 18 C 31 14.686295 28.313705 12 25 12 C 21.686295 12 19 14.686295 19 18 C 19 21.313705 21.686295 24 25 24 Z"/>
        <path id="highlight" fill="#ffffff" fill-opacity="0.702159" fill-rule="evenodd" stroke="none" d="M 23 39 C 23 39 11 26.887897 11 18.435547 C 11 9.9832 14.843188 6 23 6 C 31.156813 6 35 9.9832 35 18.435547 C 35 26.887897 23 39 23 39 Z M 23 24 C 26.313705 24 29 21.313705 29 18 C 29 14.686295 26.313705 12 23 12 C 19.686295 12 17 14.686295 17 18 C 17 21.313705 19.686295 24 23 24 Z"/>
        <path id="yellow" fill="#ffb82f" fill-rule="evenodd" stroke="#d29727" d="M 24 39 C 24 39 12 26.887897 12 18.435547 C 12 9.9832 15.843188 6 24 6 C 32.156815 6 36 9.9832 36 18.435547 C 36 26.887897 24 39 24 39 Z M 24 24 C 27.313705 24 30 21.313705 30 18 C 30 14.686295 27.313705 12 24 12 C 20.686295 12 18 14.686295 18 18 C 18 21.313705 20.686295 24 24 24 Z"/>
    </g>
</svg>
