<?xml version="1.0" encoding="UTF-8"?>
<svg xmlns="http://www.w3.org/2000/svg" xmlns:xlink="http://www.w3.org/1999/xlink" width="32px" height="32px" viewBox="0 0 32 32" x="0px" y="0px" version="1.1">
  <defs>
    <rect id="maskcanvas" width="32px" height="32px" fill="#ffffff"/>
    <mask id="filecirclemask">
      <use xlink:href="#maskcanvas"/>
      <circle cx="29" cy="16" r="12" transform="scale(0.6) translate(24 24)" stroke="#000000" stroke-width="3"/>
    </mask>
    <mask id="plusmask">
      <use xlink:href="#maskcanvas"/>
      <path d="M21.78,14.625h-4.346v-4.426c0-0.386-0.321-0.699-0.718-0.699h-1.434c-0.397,0-0.719,0.313-0.719,0.699v4.426h-4.346c-0.397,0-0.718,0.313-0.718,0.699v1.308c0,0.386,0.321,0.699,0.718,0.699h4.346v4.471c0,0.385,0.322,0.698,0.719,0.698h1.434c0.397,0,0.718-0.313,0.718-0.698v-4.471h4.346c0.397,0,0.72-0.312,0.72-0.699v-1.308C22.5,14.938,22.178,14.625,21.78,14.625z" fill="#000000"/>
    </mask>
    <path id="file-outline" d="M21,0H10C8,0,8,2,8,2v28c0,0,0,2,2,2h20c2,0,2-2,2-2V11L21,0zM30,29c0,0,0,1-1,1H11c-1,0-1-0.6-1-0.9V3c0,0,0-1,1-1h9l10,10L30,29z"/>
    <path id="file-corner" d="M32,1c0-1-1-1-1-1h-6.2c-0.3,0-0.6,0-0.7,0.3c-0.1,0.3-0.1,0.6,0.2,0.8l6.5,6.1c0.2,0.2,0.6,0.3,0.8,0.2C31.8,7.2,32,6.9,32,6.6"/>
  </defs>
  <g>
    <use xlink:href="#file-outline" mask="url(#circlemask)" fill="#4a4a4a" stroke="#4a4a4a" stroke-width="0" transform="translate(-8 0)" style="mask:url(&quot;#filecirclemask&quot;);"/>
    <use xlink:href="#file-corner" fill="#4a4a4a" stroke="#4a4a4a" stroke-width="0" transform="translate(-8 0)" style="mask:url(&quot;#filecirclemask&quot;);"/>
    <circle cx="16" cy="16" r="12" fill="#4a4a4a" stroke="#4a4a4a" stroke-width="0" style="mask:url(&quot;#plusmask&quot;);" transform="scale(0.6) translate(24 24)"/>
  </g>
</svg>
