<?xml version="1.0" encoding="utf-8"?>
<!-- Generator: Adobe Illustrator 19.2.1, SVG Export Plug-In . SVG Version: 6.00 Build 0)  -->
<svg version="1.1" id="Layer_1" xmlns="http://www.w3.org/2000/svg" xmlns:xlink="http://www.w3.org/1999/xlink" x="0px" y="0px"
	 viewBox="0 0 32 32" style="enable-background:new 0 0 32 32;" xml:space="preserve">
<style type="text/css">
	.st0{fill:none;}
	.st1{fill:#F3F3F3;}
</style>
<g>
	<g>
		<path id="folder-fill" class="st0" d="M2,12v16h28V6H20l-4,6H2z"/>
	</g>
	<g>
		<path id="folder-outline" class="st1" d="M30,3H19l-4,6H2c-1,0-2,0.5-2,1.5v16C0,28,1,29,2,29c0,0,27,0,28,0s2-1,2-2V5
			C32,4,31,3,30,3z M3,26V12h14l4-6h8v20H3z"/>
	</g>
	<g>
		<path id="folder-tab" class="st1" d="M2,3C1,3,1,5,1,5v1h12l2-3C15,3,3,3,2,3z"/>
	</g>
</g>
</svg>
