<?xml version="1.0" encoding="utf-8"?>
<!-- Generator: Adobe Illustrator 19.2.1, SVG Export Plug-In . SVG Version: 6.00 Build 0)  -->
<svg version="1.1" id="Layer_1" xmlns="http://www.w3.org/2000/svg" xmlns:xlink="http://www.w3.org/1999/xlink" x="0px" y="0px"
	 viewBox="0 0 32 32" style="enable-background:new 0 0 32 32;" xml:space="preserve">
<style type="text/css">
	.st0{fill:none;}
	.st1{fill:#F3F3F3;}
</style>
<g>
	<g>
		<path id="folder-fill" class="st0" d="M2,12v16h28V6H20l-4,6H2z"/>
	</g>
	<g>
		<path id="folder-outline" class="st1" d="M30,4H19l-4,6H2c-1,0-2,0.5-2,1.5v16C0,29,1,30,2,30c0,0,27,0,28,0s2-1,2-2V6
			C32,5,31,4,30,4z M2,28V12h14l4-6h10v22H2z"/>
	</g>
	<g>
		<path id="folder-tab" class="st1" d="M3,6C2,6,1,7,1,7v1h12l1-2C14,6,4,6,3,6z"/>
	</g>
</g>
</svg>
