<?xml version="1.0" encoding="UTF-8"?>
<!-- Generator: Adobe Illustrator 19.2.1, SVG Export Plug-In . SVG Version: 6.00 Build 0)  -->
<svg xmlns="http://www.w3.org/2000/svg" xmlns:xlink="http://www.w3.org/1999/xlink" version="1.1" id="Layer_1" x="0px" y="0px" viewBox="0 0 48 48" style="enable-background:new 0 0 48 48;" xml:space="preserve">
<style type="text/css">
	.st0{display:none;}
	.st1{display:inline;fill:#4A4A4A;}
	.st2{display:inline;}
	.st3{fill:#EFEFEF;}
	.st4{fill:#F3F3F3;}
	.st5{fill:#4A4A4A;}
	.st6{display:inline;fill:#F3F3F3;}
	.st7{display:inline;fill:none;stroke:#F3F3F3;stroke-miterlimit:10;}
	.st8{display:inline;fill:none;stroke:#4A4A4A;stroke-width:3;stroke-miterlimit:10;}
	.st9{fill:none;stroke:#4A4A4A;stroke-width:3;stroke-miterlimit:10;}
</style>






<g id="Layer_7">
	<path class="st5" d="M28.5,24c-1.9,0-3.5-1.6-3.5-3.5c0-1.7,1.3-3.2,3-3.4c-1.2-0.7-2.5-1.1-4-1.1c-4.4,0-8,3.6-8,8s3.6,8,8,8   s8-3.6,8-8c0-0.7-0.1-1.4-0.3-2.1C31.2,23.1,29.9,24,28.5,24z"/>
</g>
<path class="st9" d="M45,21c0,0-18.6-25.2-42,0"/>
<path class="st9" d="M45,26.8c0,0-18.6,25.2-42,0"/>
</svg>
