<?xml version="1.0" encoding="utf-8"?>
<!-- Generator: Adobe Illustrator 19.2.1, SVG Export Plug-In . SVG Version: 6.00 Build 0)  -->
<svg version="1.1" id="Layer_1" xmlns="http://www.w3.org/2000/svg" xmlns:xlink="http://www.w3.org/1999/xlink" x="0px" y="0px"
	 viewBox="0 0 32 32" style="enable-background:new 0 0 32 32;" xml:space="preserve">
<style type="text/css">
	.st0{fill:url(#folder-fill_1_);}
	.st1{fill:#4A4A4A;}
	.st2{fill:#1C8BE9;}
</style>
<g>

		<linearGradient id="folder-fill_1_" gradientUnits="userSpaceOnUse" x1="16" y1="-1.800800e-10" x2="16" y2="-22" gradientTransform="matrix(1 0 0 -1 0 6)">
		<stop  offset="0" style="stop-color:#D1D1D1"/>
		<stop  offset="1" style="stop-color:#D1D1D1"/>
	</linearGradient>
	<path id="folder-fill" class="st0" d="M2,12v16h28V6H20l-4,6H2z"/>
	<g>
		<path id="folder-outline" class="st1" d="M30,4H19l-4,6H2c-1,0-2,0.5-2,1.5v16C0,29,1,30,2,30c0,0,27,0,28,0s2-1,2-2V6
			C32,5,31,4,30,4z M2,28V12h14l4-6h10v22H2z"/>
	</g>
	<g>
		<path id="folder-tab" class="st1" d="M1,6C0,6,0,7.1,0,7.1V8h14V6C14,6,2,6,1,6z"/>
	</g>
</g>
<g>
	<path id="bunny" class="st2" d="M21.3,12c0.4,0.2,1.6,1.2,2.4,1.9c0.1,0.1,0.2,0.2,0.4,0.3c0.1,0.1,0.2,0.2,0.4,0.4
		c0.3,0.4,0.7,1,1.1,1.1c1.5,0.6,2.6,1.8,3,3.2c0,0.2-0.1,0.6-0.2,0.7s-0.5,0.4-0.6,0.5c-0.2,0.1-1.4,0.1-1.4,0.1
		c-0.1,0-0.4-0.1-0.5-0.1c0,0-0.1,0-0.1,0s0,0,0,0s0,0,0,0c0,0-0.1,0.1-0.1,0.2c-0.6,1.2-1.3,2.3-2.3,3.3c0,0,0,0-0.1,0.1l-0.1,0v0
		c0,0.1,0,0.1-0.1,0.2c0,0.1,0,0.4-0.1,0.5c0,0.1-0.1,0.4-0.1,0.5c0,0.1,0,0.1,0,0.2c0,0-0.1,0,0,0.1l0,0c0.2,0.1,0.4,0.2,0.6,0.4
		c0.2,0.1,0.3,0.4,0.3,0.6c0,0,0,0,0,0c0,0-0.1,0-0.2,0c0,0,0,0.1-0.1,0.2c-0.1,0-0.1,0-0.3,0c-0.2,0-0.6,0-0.8,0
		c-0.1,0-0.2,0-0.4,0c0,0-0.1,0-0.1,0s-0.1,0.1-0.1,0.1c-0.2,0.2-0.5,0.5-0.8,0.7c-0.1,0.1-0.2,0.2-0.4,0.3c-0.1,0-0.1,0.1-0.2,0.1
		c0,0,0,0-0.1,0c0,0-0.1,0-0.1,0c-0.1,0-0.2,0-0.3,0c0,0-0.1-0.1-0.1-0.1c-0.1,0-0.1,0-0.1,0c-0.1,0-0.1,0-0.1-0.1c0,0,0-0.1,0-0.1
		c0-0.2,0.1-0.3,0.2-0.5c0.1-0.1,0.2-0.2,0.4-0.4c0,0,0.1-0.1,0.1-0.1s0-0.1,0-0.1c-0.1,0-0.2-0.1-0.4-0.1c-0.3,0-0.6-0.1-0.9-0.1
		c-0.6,0-1.2,0-1.8-0.2c0,0,0,0-0.1,0c0,0,0,0,0-0.1c-0.1,0-0.1-0.1-0.1-0.1c-0.1-0.1-0.1-0.2-0.2-0.4c-0.1-0.2-0.2-0.5-0.4-0.7
		s-0.3-0.5-0.4-0.6c-0.1,0-0.1-0.1-0.2-0.2c-0.4-0.5-1-0.9-1.5-1.1c-0.1-0.1-0.2-0.1-0.4-0.1c-1-0.5-1.9-1.8-1.6-2.9
		c0.1-0.1,0.1-0.1,0.1-0.2v-0.1c0,0,0,0,0,0c0,0,0,0,0-0.1c-0.1,0-0.2-0.1-0.2-0.1c-0.1,0-0.1-0.1-0.2-0.2s-0.1-0.2-0.1-0.3
		c-0.2-0.6-0.6-1.1-1.1-1.6c-0.6-0.5,0.3-0.9,0.8-1c1,0,1.9,0.7,2.1,1.7c0,0.1,0.1,0.2,0.1,0.3c0,0,0.1,0.1,0.1,0.1v0
		c0,0.1,0,0.1,0.1,0c0.2,0,0.3-0.1,0.4-0.1c0.2-0.1,0.6-0.2,0.8-0.4c0.2,0,0.3-0.1,0.4-0.1c1.6-0.5,3.5-0.1,4.9,0.6
		c0.1,0.1,0.2,0.1,0.4,0.2c0.1,0,0.2,0.1,0.4,0.1c0.4,0.1,1,0.2,1.3-0.1c0.1-0.2,0.2-0.4,0.4-0.6c0.1-0.2,0.2-0.5,0.4-0.6
		c0.2-0.1,0.4-0.2,0.5-0.4c0.1-0.1,0.1-0.2,0.1-0.3v0c0,0,0,0,0,0l-0.1-0.1c0,0-0.1,0-0.1,0c-0.6-0.3-1.2-0.5-1.8-0.7
		c-0.1-0.1-0.3-0.1-0.5-0.2c-0.1-0.1-0.2-0.1-0.4-0.1c-0.6-0.2-1.1-0.7-1.6-1.1c-0.1-0.1-0.1-0.2-0.2-0.3c0-0.1-0.2-0.4-0.1-0.4
		c0.2-0.1,1.1,0,1.6,0.2c0.1,0.1,0.3,0.1,0.4,0.1c0.4,0.2,0.9,0.3,1.3,0.3c-0.1-0.4-0.5-0.6-0.8-0.9c-0.1-0.2-0.3-0.3-0.4-0.4
		c-0.1-0.2-0.2-0.6-0.2-0.7C20.5,11.9,20.8,11.8,21.3,12z M21.2,22.9c-0.2,0-0.4,0.1-0.6,0.1C20,23,19.4,23,18.8,23
		c-0.5,0-1,0-1.6,0c0.1,0.3,0.1,0.6,0.2,0.9c0.1,0.2,0.2,0.5,0.4,0.7c0.1,0.1,0.1,0.2,0.2,0.4c0,0,0.1,0,0.1,0.1c0,0,0,0,0.1,0
		c0,0,0.1,0,0.2,0c0.3,0,0.6,0.1,0.9,0.2c0.4,0,0.6,0.1,1,0.1c0.2,0,0.4,0,0.6,0c0,0,0,0,0.1,0c0,0,0,0,0,0c0,0,0,0,0-0.1
		c0,0,0.1-0.1,0.1-0.2C21.2,24.3,21.2,23.6,21.2,22.9"/>
</g>
</svg>
