<?xml version="1.0" encoding="utf-8"?>
<!-- Generator: Adobe Illustrator 19.2.1, SVG Export Plug-In . SVG Version: 6.00 Build 0)  -->
<svg version="1.1" id="Layer_1" xmlns="http://www.w3.org/2000/svg" xmlns:xlink="http://www.w3.org/1999/xlink" x="0px" y="0px"
	 viewBox="0 0 32 32" style="enable-background:new 0 0 32 32;" xml:space="preserve">
<style type="text/css">
	.st0{fill:#4A4A4A;}
	.st1{fill:#008CFF;}
</style>
<g>
	<path class="st0" d="M24.7,11.1c-0.2,0-0.4,0-0.7,0C23.3,8.7,21,7,18.4,7c-0.3,0-0.7,0-1.1,0.1c-1.5-1.3-3-1.8-4.9-1.8
		c-3.9,0-7,2.8-7.7,6.7C3.1,13.1,2,14.9,2,16.6c0,3,2.5,5.4,5.6,5.4H12v-2H7.6C5.4,20,4,18.2,4,16.5c0-1.2,0.9-2.4,2.2-3.1l0.5-0.2
		l0.1-0.5c0.3-3.2,2.8-5.5,5.8-5.5c1.5,0,2.7,0.5,3.9,1.6l0.4,0.4l0.5-0.1C17.7,9,18.2,9,18.6,9c2,0,3.6,1.5,3.8,3.4l0.1,1.1
		l1.1-0.3c0.4-0.1,0.8-0.2,1.2-0.2c2.1,0,3.9,1.6,3.9,3.5S26.9,20,24.8,20H18v2h6.8c3.2,0,5.8-2.5,5.8-5.4
		C30.5,13.6,27.8,11.1,24.7,11.1z"/>
</g>
<polygon class="st1" points="15,12 10,18 14,18 14,28 16,28 16,18 20,18 "/>
</svg>
