<?xml version="1.0" encoding="UTF-8"?>
<!-- Generator: Adobe Illustrator 19.2.1, SVG Export Plug-In . SVG Version: 6.00 Build 0)  -->
<svg xmlns="http://www.w3.org/2000/svg" xmlns:xlink="http://www.w3.org/1999/xlink" version="1.1" x="0px" y="0px" viewBox="0 0 48 48" style="enable-background:new 0 0 48 48;" xml:space="preserve">
<style type="text/css">
	.st0{display:none;}
	.st1{display:inline;}
	.st2{fill:#4A4A4A;}
	.st3{display:inline;fill:#4A4A4A;}
</style>

<g id="Layer_2">
	<g>
		<path class="st2" d="M37.7,16.5c-0.3,0-0.2-1.5-0.7-1.5c-1.1-3.8-4.9-6-9-6c-0.5,0-1.4-0.2-2,0c-2.4-2-4-2-7-2    C12.9,7,8.2,9.4,6.2,17.9C3.7,19.7,2,22.3,2,25c0,4.7,2.1,9,7,9h7v-4h-6c-3.5,0-4-2.3-4-5c0-1.9,1-3.9,3-5h1v-1    c1.4-4.9,2.3-8.5,9-8c2.4,0.2,4.1,0.4,6,2.2l1.2-0.2l1-0.1c2.5,0,7.1,2.6,7.4,5.6l0,1.3c0,0,2.5-0.1,3.5,0.1    c2.9,0.6,3.9,1.7,3.8,5.1c-0.1,3-1.7,5-5,5h-5v4h5c7.3,0,9-4.4,9-9C46,17.9,42.6,16.5,37.7,16.5z"/>
		<g>
			<path id="arrow" class="st2" d="M25.2,17.5C25,17.2,24.7,17,24.4,17c-0.3,0-0.6,0.2-0.8,0.5l-6.5,9     c-0.3,0.3-0.3,0.8-0.1,1c0.2,0.3,0.5,0.5,0.9,0.5h4v12c0,1,1.2,1,2.4,1c1.3,0,2.6-0.1,2.6-0.9L27,28h4c0.3,0,0.6,0,0.8-0.5     c0.2-0.3,0.2-0.8-0.1-1.1L25.2,17.5z"/>
		</g>
	</g>
</g>
</svg>
