<?xml version="1.0" encoding="UTF-8"?>
<svg xmlns="http://www.w3.org/2000/svg" xmlns:xlink="http://www.w3.org/1999/xlink" width="32px" height="32px" viewBox="0 0 32 32" x="0px" y="0px" version="1.1">
  <defs>
    <path id="octagon-outline" d="M20,6l6,5.5v8.5L19.9,26H12l-6-6v-8.5L12.1,6H20M20.4,4h-8.8c-0.2,0-0.4,0.1-0.6,0.3l-6.7,6.2C4.1,10.6,4,10.8,4,11v9.4c0,0.2,0.1,0.4,0.2,0.6l6.7,6.7c0.2,0.2,0.4,0.3,0.6,0.3h8.9c0.2,0,0.4-0.1,0.6-0.3l6.8-6.7c0.2-0.2,0.2-0.4,0.2-0.6V11c0-0.2-0.1-0.4-0.3-0.6L21,4.3C20.8,4.1,20.6,4,20.4,4L20.4,4z"/>
  </defs>
  <g>
    <use xlink:href="#octagon-outline" fill="#ffffff" stroke="#ffffff" stroke-width="0" transform="scale(1.2) translate(-2 -2)"/>
    <path d="M27,10.4c-2.8-1.8-3.2,4.3-5.1,4.6c0.4-3,1.9-4.8,1.9-8.2c-3.4-3.7-3.3,5.8-5,6.7c-0.7-2.7,0-6.8-1-9.3c-2.7-1.1-2.4,2.4-2.3,5.3c0,0.2,0,0.4,0,0.5c0,0,0,0.1,0,0.1c0,0.2,0,0.4,0,0.5c0,0,0,0,0,0.1c0,0.2,0,0.4,0,0.6c0,0,0,0.1,0,0.1c0,0.2,0,0.3-0.1,0.5c0,0,0,0.1,0,0.1c0,0.2-0.1,0.3-0.1,0.4c0,0,0,0,0,0.1c0,0.1-0.1,0.3-0.2,0.4c-0.1-0.3-0.3-0.5-0.4-0.8c0-0.1-0.1-0.1-0.1-0.2l0,0c-0.4-0.9-0.7-2-1.2-3.1c0-0.1-0.1-0.1-0.1-0.2c0-0.1-0.1-0.2-0.1-0.2c0,0,0,0,0-0.1c0-0.1,0-0.1-0.1-0.2c0,0,0-0.1,0-0.1c0,0,0-0.1-0.1-0.2c0,0,0-0.1-0.1-0.1c0,0,0-0.1-0.1-0.2c0,0,0-0.1-0.1-0.1c0,0,0-0.1-0.1-0.2c0,0,0-0.1-0.1-0.1c0,0,0-0.1-0.1-0.1c0,0,0-0.1-0.1-0.1c0,0-0.1-0.1-0.1-0.1c0,0,0-0.1-0.1-0.1c0,0-0.1-0.1-0.1-0.1c0,0-0.1-0.1-0.1-0.1c0,0-0.1-0.1-0.1-0.1c0,0-0.1-0.1-0.1-0.1C12,6,12,6,11.9,6c0,0-0.1-0.1-0.1-0.1c0,0-0.1-0.1-0.1-0.1c0,0-0.1-0.1-0.1-0.1c0,0-0.1-0.1-0.1-0.1c0,0-0.1,0-0.1-0.1c0,0-0.1,0-0.1-0.1c0,0-0.1,0-0.1,0c0,0-0.1,0-0.1,0c0,0-0.1,0-0.1,0c0,0-0.1,0-0.1,0c0,0-0.1,0-0.1,0c-0.1,0-0.1,0-0.2,0.1c0,0,0,0-0.1,0c-0.1,0-0.1,0.1-0.2,0.1c0,0,0,0,0,0C10.1,5.7,10,5.9,9.9,6.1c0,0,0,0,0,0l0,0C9.8,6.2,9.7,6.4,9.6,6.6c-0.4,1.8,1.4,4.5,2.2,7.1h0c0,0.1,0.1,0.3,0.1,0.4c0,0,0,0,0,0.1c0,0.1,0.1,0.3,0.1,0.4c0,0,0,0.1,0,0.1c0,0.1,0,0.2,0.1,0.3c0,0,0,0.1,0,0.1c0,0.1,0,0.2,0,0.3c0,0,0,0.1,0,0.1c0,0.1,0,0.2,0,0.3c0,0,0,0.1,0,0.1c0,0.1,0,0.2,0,0.3c0,0,0,0,0,0.1c0,0.3-0.1,0.5-0.2,0.8l0,0c-0.2,0.6-0.6,1.1-1.2,1.5c-1.5-0.5-2.5-4-5.1-3.2c-1.9,0.6,0.4,3.4,1,4c0.4,0.4,1.1,0.8,1.7,1.3c1.5,1.6,3,4,4.6,5c3.4,2.1,7.5,0.8,9.4-1.6c1.4-1.7,0.9-4.2,1.7-6.3C25,15.4,27.3,13.8,27,10.4z" transform="scale(.8) translate(4 5)" fill="#ffffff"/>
  </g>
</svg>
