<?xml version="1.0" encoding="utf-8"?>
<!-- Generator: Adobe Illustrator 22.1.0, SVG Export Plug-In . SVG Version: 6.00 Build 0)  -->
<svg version="1.1" id="Layer_1" xmlns="http://www.w3.org/2000/svg" xmlns:xlink="http://www.w3.org/1999/xlink" x="0px" y="0px"
	 viewBox="0 0 32 32" style="enable-background:new 0 0 32 32;" xml:space="preserve">
<style type="text/css">
	.st0{fill:#D67B03;}
</style>
<g>
	<g>
		<path class="st0" d="M15.5,6h-1c-0.2,0-0.4,0.3-0.5,0.7V10h2V6.7C16,6.3,15.8,6,15.5,6z M14,23.3c0,0.4,0.2,0.7,0.5,0.7h1
			c0.3,0,0.5-0.3,0.5-0.7V20h-2V23.3z"/>
	</g>
</g>
<g>
	<g>
		<path class="st0" d="M7.3,18.3C7,18.5,6.8,18.8,6.9,19L7.5,20C7.6,20.2,8,20.2,8.3,20l2.9-1.7l-1-1.7L7.3,18.3z M23.1,11L22.5,10
			c-0.1-0.2-0.5-0.2-0.8-0.1l-2.9,1.7l1,1.7l2.9-1.7C23,11.5,23.2,11.2,23.1,11z"/>
	</g>
</g>
<g>
	<g>
		<path class="st0" d="M7.5,10L6.9,11c-0.1,0.2,0.1,0.5,0.4,0.8l2.9,1.7l1-1.7L8.3,10C8,9.8,7.6,9.8,7.5,10z M22.7,18.3l-2.9-1.7
			l-1,1.7l2.9,1.7c0.3,0.2,0.7,0.2,0.8-0.1l0.5-0.9C23.2,18.8,23,18.5,22.7,18.3z"/>
	</g>
</g>
<rect x="14" y="14" class="st0" width="2" height="2"/>
</svg>
