<?xml version="1.0" encoding="utf-8"?>
<!-- Generator: Adobe Illustrator 22.1.0, SVG Export Plug-In . SVG Version: 6.00 Build 0)  -->
<svg version="1.1" id="Layer_1" xmlns="http://www.w3.org/2000/svg" xmlns:xlink="http://www.w3.org/1999/xlink" x="0px" y="0px"
	 viewBox="0 0 32 32" style="enable-background:new 0 0 32 32;" xml:space="preserve">
<style type="text/css">
	.st0{fill:#4A4A4A;}
	.st1{fill:#FFDB06;}
</style>
<rect y="0" class="st0" width="32" height="32"/>
<rect x="2" y="2" class="st1" width="28" height="28"/>
<rect x="18" y="6" class="st0" width="2" height="2"/>
<path class="st0" d="M19.3,23.9L12.4,17c-0.3-0.3-0.4-0.6-0.4-1V4h-2v12.6c0,0.3,0.1,0.6,0.2,0.8l0.3,0.5c0.1,0.1,0.1,0.2,0.2,0.3
	l6.7,6.7c0.4,0.4,0.6,0.8,0.6,1.4V28h2v-2.3c0-0.5-0.1-1-0.4-1.4l-0.1-0.2C19.4,24.1,19.4,24,19.3,23.9z"/>
<rect x="18" y="14" class="st0" width="2" height="2"/>
<rect x="18" y="10" class="st0" width="2" height="2"/>
<rect x="18" y="18" class="st0" width="2" height="2"/>
</svg>
