<?xml version="1.0" encoding="utf-8"?>
<!-- Generator: Adobe Illustrator 27.2.0, SVG Export Plug-In . SVG Version: 6.00 Build 0)  -->
<svg version="1.1" id="Layer_1" xmlns="http://www.w3.org/2000/svg" xmlns:xlink="http://www.w3.org/1999/xlink" x="0px" y="0px"
	 viewBox="0 0 32 32" style="enable-background:new 0 0 32 32;" xml:space="preserve">
<style type="text/css">
	.st0{fill:#4A4A4A;}
</style>
<g id="Layer_1_00000050620784310038472250000011755199488935289224_">
	<g id="Layer_1_1_">
		<g>
			<g>
				<path id="pencil" class="st0" d="M25.3,7.1l-3.6-3.6c0,0-1.4-1.4-2.8,0.1S4.7,17.9,4.7,17.9c-0.1,0.1,0,0.3-0.1,0.5l-3,7.9
					c-0.1,0.4,0,0.8,0.3,1c0.2,0.2,0.5,0.3,0.7,0.3c0.1,0,0.2,0,0.3-0.1l5-2l2.9-1.2c0.1-0.1,0.5-0.1,0.5-0.2c0,0,13.4-13.6,14-14.3
					C26.7,8.4,25.3,7.1,25.3,7.1z M20.3,4.9l1.4,1.4c0,0-11.9,12.1-12.7,12.9c-0.7,0.7,0,1.4,0.7,0.7C10.4,19.1,22.4,7,22.4,7
					l1.4,1.4l-14,14.3L6.7,24l-1.5-1.5l1-3.2"/>
			</g>
		</g>
	</g>
</g>
<g id="Layer_3">
	<g>
		<g transform="translate(2 10)">
			<path id="checkmark_00000053534879430949992320000006323510336311523493_" class="st0" d="M19.1,17.7c0.2,0.3,0.6,0.4,0.9,0.4
				l0,0l0,0c0.4,0,0.7-0.2,0.9-0.5l6.9-8.7c0.4-0.5,0.3-1.3-0.2-1.7s-1.3-0.3-1.7,0.2l-6,7.5l-2.8-3.4c-0.3-0.4-1.1-0.5-1.6-0.1
				s-0.6,1.2-0.1,1.7L19.1,17.7z"/>
		</g>
	</g>
</g>
</svg>
