<?xml version="1.0" encoding="utf-8"?>
<!-- Generator: Adobe Illustrator 19.2.1, SVG Export Plug-In . SVG Version: 6.00 Build 0)  -->
<svg version="1.1" id="Layer_1" xmlns="http://www.w3.org/2000/svg" xmlns:xlink="http://www.w3.org/1999/xlink" x="0px" y="0px"
	 viewBox="0 0 32 32" style="enable-background:new 0 0 32 32;" xml:space="preserve">
<style type="text/css">
	.st0{fill:#4A4A4A;}
</style>
<g>
	<g>
		<path id="pencil" class="st0" d="M27.2,5.5l-4-3.1c0,0-1.6-1.2-2.8,0.4S8,18.8,8,18.8c-0.1,0.1,0,0.3,0,0.5l-2,8.2
			c-0.1,0.4,0.1,0.8,0.4,1c0.2,0.2,0.5,0.2,0.7,0.2c0.1,0,0.2,0,0.3-0.1l4.7-2.6l2.7-1.5c0.1-0.1,0.5-0.2,0.5-0.3
			c0,0,11.6-15.1,12.2-15.9C28.7,6.7,27.2,5.5,27.2,5.5z M13.7,22.9l-2.9,1.6l-1.7-1.3l0.6-3.3L21.9,4l1.6,1.2
			c0,0-10.3,13.5-11,14.3c-0.6,0.8,0.2,1.4,0.8,0.6s11-14.3,11-14.3L25.9,7L13.7,22.9z"/>
	</g>
</g>
</svg>
