<?xml version="1.0" encoding="utf-8"?>
<!-- Generator: Adobe Illustrator 27.2.0, SVG Export Plug-In . SVG Version: 6.00 Build 0)  -->
<svg version="1.1" xmlns="http://www.w3.org/2000/svg" xmlns:xlink="http://www.w3.org/1999/xlink" x="0px" y="0px"
	 viewBox="0 0 32 32" style="enable-background:new 0 0 32 32;" xml:space="preserve">
<style type="text/css">
	.st0{fill:#FFFFFF;}
	.st1{fill:#FFEC00;}
	.st2{fill:#4A4A4A;}
</style>
<g id="Layer_1">
	<polygon class="st0" points="14.1,23.1 6.3,26 9.2,17.3 13.4,17.7 	"/>
	<g id="Layer_2_00000090278506175979124400000004532886122303726487_">
		<polygon class="st1" points="13.4,22.5 12,19.7 9.5,18.9 23.3,4.1 27.9,8.6 		"/>
	</g>
	<g id="Layer_1_1_">
		<g>
			<g>
				<path id="pencil" class="st2" d="M28.3,7.1l-3.6-3.6c0,0-1.4-1.4-2.8,0.1S7.7,17.9,7.7,17.9c-0.1,0.1,0,0.3-0.1,0.5l-3,7.9
					c-0.1,0.4,0,0.8,0.3,1c0.2,0.2,0.5,0.3,0.7,0.3c0.1,0,0.2,0,0.3-0.1l5-2l2.9-1.2c0.1-0.1,0.5-0.1,0.5-0.2c0,0,13.4-13.6,14-14.3
					C29.7,8.4,28.3,7.1,28.3,7.1z M12.8,22.7L9.7,24l-1.5-1.5l1-3.2L23.3,4.9l1.4,1.4c0,0-11.9,12.1-12.7,12.9
					c-0.7,0.7,0,1.4,0.7,0.7C13.4,19.1,25.4,7,25.4,7l1.4,1.4L12.8,22.7z"/>
			</g>
		</g>
	</g>
</g>
<g id="Layer_3">
</g>
</svg>
