<?xml version="1.0" encoding="UTF-8"?>
<svg xmlns="http://www.w3.org/2000/svg" xmlns:xlink="http://www.w3.org/1999/xlink" width="32px" height="32px" viewBox="0 0 32 32" x="0px" y="0px" version="1.1">
  <defs>
    <path id="pencil" d="M27.16,5.756l-4.032-3.093c0,0-1.586-1.218-2.804,0.369S8.045,19.038,8.045,19.038c-0.075,0.098,0.033,0.334,0.002,0.453l-2.021,8.204c-0.094,0.357,0.077,0.764,0.37,0.989c0.197,0.151,0.463,0.228,0.697,0.197c0.115-0.015,0.238-0.044,0.343-0.103l4.655-2.625l2.673-1.508c0.106-0.061,0.454-0.167,0.527-0.266c0,0,11.565-15.075,12.174-15.868C28.682,6.924,27.16,5.756,27.16,5.756zM13.704,23.161l-2.863,1.595l-1.725-1.322l0.621-3.316L21.911,4.25l1.587,1.217c0,0-10.348,13.488-10.956,14.281c-0.609,0.793,0.185,1.402,0.793,0.609c0.609-0.793,10.956-14.281,10.956-14.281l1.587,1.217L13.704,23.161z"/>
    <path id="checkmark" d="M20.6,14.6c0.2,0.3,0.6,0.4,0.9,0.4l0,0l0,0c0.4,0,0.7-0.2,0.9-0.5l6.9-8.7c0.4-0.5,0.3-1.3-0.2-1.7s-1.3-0.3-1.7,0.2l-6,7.5l-2.8-3.4C18.3,8,17.5,7.9,17,8.3s-0.6,1.2-0.1,1.7L20.6,14.6z"/>
  </defs>
  <g>
    <use xlink:href="#pencil" fill="#ffffff" stroke="#ffffff" stroke-width="0" transform="translate(-4 2)"/>
    <use xlink:href="#checkmark" transform="translate(2 10)" fill="#ffffff"/>
  </g>
</svg>
