<?xml version="1.0" encoding="utf-8"?>
<!-- Generator: Adobe Illustrator 27.2.0, SVG Export Plug-In . SVG Version: 6.00 Build 0)  -->
<svg version="1.1" id="Layer_1" xmlns="http://www.w3.org/2000/svg" xmlns:xlink="http://www.w3.org/1999/xlink" x="0px" y="0px"
	 viewBox="0 0 32 32" style="enable-background:new 0 0 32 32;" xml:space="preserve">
<style type="text/css">
	.st0{fill:#F3F3F3;}
</style>
<g id="Layer_1_00000175284080368119375270000005849076533009453716_">
	<g id="Layer_1_1_">
		<g>
			<g>
				<path id="pencil" class="st0" d="M25.3,7.1l-3.6-3.6c0,0-1.4-1.4-2.8,0.1S4.7,17.9,4.7,17.9c-0.1,0.1,0,0.3-0.1,0.5l-3,7.9
					c-0.1,0.4,0,0.8,0.3,1c0.2,0.2,0.5,0.3,0.7,0.3c0.1,0,0.2,0,0.3-0.1l5-2l2.9-1.2c0.1-0.1,0.5-0.1,0.5-0.2c0,0,13.4-13.6,14-14.3
					C26.7,8.4,25.3,7.1,25.3,7.1z M9.8,22.7L6.7,24l-1.5-1.5l1-3.2L20.3,4.9l1.4,1.4c0,0-11.9,12.1-12.7,12.9
					c-0.7,0.7,0,1.4,0.7,0.7C10.4,19.1,22.4,7,22.4,7l1.4,1.4L9.8,22.7z"/>
			</g>
		</g>
	</g>
</g>
<g id="Layer_3">
	<g transform="translate(8 8)">
		<path id="cross" class="st0" d="M21.9,17.9l-3.1-3.1l3.1-3.1c0.3-0.3,0.3-0.7,0-1l-1-1c-0.3-0.3-0.7-0.3-1,0l-3.1,3.1l-3.1-3.1
			c-0.3-0.3-0.7-0.3-1,0l-0.9,0.9c-0.3,0.3-0.3,0.7,0,1l3.1,3.1l-3.1,3.2c-0.3,0.3-0.3,0.7,0,1l1,1c0.3,0.3,0.7,0.3,1,0l3.1-3.2
			l3.1,3.1c0.3,0.3,0.7,0.3,1,0l0.9-0.9C22.2,18.6,22.2,18.2,21.9,17.9z"/>
	</g>
</g>
</svg>
