<?xml version="1.0" encoding="UTF-8"?>
<svg xmlns="http://www.w3.org/2000/svg" xmlns:xlink="http://www.w3.org/1999/xlink" width="32px" height="32px" viewBox="0 0 32 32" x="0px" y="0px" version="1.1">
  <defs>
    <path id="pencil" d="M27.16,5.756l-4.032-3.093c0,0-1.586-1.218-2.804,0.369S8.045,19.038,8.045,19.038c-0.075,0.098,0.033,0.334,0.002,0.453l-2.021,8.204c-0.094,0.357,0.077,0.764,0.37,0.989c0.197,0.151,0.463,0.228,0.697,0.197c0.115-0.015,0.238-0.044,0.343-0.103l4.655-2.625l2.673-1.508c0.106-0.061,0.454-0.167,0.527-0.266c0,0,11.565-15.075,12.174-15.868C28.682,6.924,27.16,5.756,27.16,5.756zM13.704,23.161l-2.863,1.595l-1.725-1.322l0.621-3.316L21.911,4.25l1.587,1.217c0,0-10.348,13.488-10.956,14.281c-0.609,0.793,0.185,1.402,0.793,0.609c0.609-0.793,10.956-14.281,10.956-14.281l1.587,1.217L13.704,23.161z"/>
    <path id="cross" d="M21.073,19.092l-3.087-3.059l3.115-3.143c0.272-0.275,0.265-0.724-0.018-1.002l-1.02-1.009c-0.281-0.28-0.729-0.284-1.002-0.01l-3.115,3.145l-3.087-3.059c-0.282-0.28-0.729-0.284-1.002-0.009l-0.921,0.929c-0.272,0.275-0.263,0.723,0.019,1.001l3.086,3.059l-3.146,3.176c-0.271,0.273-0.263,0.723,0.019,1.002l1.018,1.01c0.282,0.278,0.732,0.282,1.002,0.009l3.146-3.176l3.088,3.059c0.282,0.28,0.73,0.285,1.002,0.011l0.921-0.93C21.365,19.82,21.355,19.371,21.073,19.092z"/>
  </defs>
  <g>
    <use xlink:href="#pencil" fill="#ffffff" stroke="#ffffff" stroke-width="0" transform="translate(-4 2)"/>
    <use xlink:href="#cross" transform="translate(8 8)" fill="#ffffff"/>
  </g>
</svg>
