<?xml version="1.0" encoding="UTF-8"?>
<svg xmlns="http://www.w3.org/2000/svg" xmlns:xlink="http://www.w3.org/1999/xlink" width="32px" height="32px" viewBox="0 0 32 32" x="0px" y="0px" version="1.1">
  <defs>
    <path id="arrow" d="M16.5,8.5c-0.1-0.2-0.3-0.3-0.5-0.3c-0.2,0-0.4,0.1-0.5,0.3l-4.3,6C11,14.7,11,15,11.1,15.2c0.1,0.2,0.3,0.4,0.6,0.4h2.8v7.9c0,0.8,0.7,1.5,1.5,1.5c0.8,0,1.5-0.7,1.5-1.5v-7.9h2.8c0.2,0,0.5-0.1,0.6-0.4c0.1-0.2,0.1-0.5-0.1-0.7L16.5,8.5z"/>
  </defs>
  <g>
    <path d="M27,4H5C4,4,4,5,4,5v22c0,0,0,1,1,1h22c1,0,1-1,1-1V5C28,5,28,4,27,4zM26,26H6V6h20V26z" fill="#ffffff" stroke="#ffffff" stroke-width="0"/>
    <use xlink:href="#arrow" fill="#ffffff" stroke="#ffffff" stroke-width="0" transform="scale(0.8) rotate(90) translate(10 -36)"/>
    <use xlink:href="#arrow" fill="#ffffff" stroke="#ffffff" stroke-width="0" transform="scale(0.8) rotate(-90) translate(-30 2)"/>
  </g>
</svg>
