<?xml version="1.0" encoding="UTF-8"?>
<svg xmlns="http://www.w3.org/2000/svg" xmlns:xlink="http://www.w3.org/1999/xlink" width="32px" height="32px" viewBox="0 0 32 32" x="0px" y="0px" version="1.1">
  <defs/>
  <g>
    <path d="M5.8,2.5c1.1-0.6,2.7-0.6,3.8,0l18,10.9c1.1,0.6,1.8,1.8,1.8,3.1s-0.7,2.5-1.8,3.1l-18,10c-1.1,0.6-2.7,0.7-3.8,0C4.7,28.9,4,27.8,4,26.5V5.7C4,4.3,4.7,3.2,5.8,2.5zM26.5,15.4L8.5,4.5C8,4.2,7.4,4.2,6.9,4.5c-0.5,0.2-1,0.7-1,1.3v20.9c0,0.5,0.5,1,1,1.3c0.5,0.3,1.1,0.3,1.6,0l18-10c0.5-0.3,0.8-0.8,0.8-1.4C27.3,15.9,27,15.4,26.5,15.4z" fill="#4a4a4a" stroke="#4a4a4a" stroke-width="0"/>
  </g>
</svg>
