<?xml version="1.0" encoding="utf-8"?>
<!-- Generator: Adobe Illustrator 19.2.1, SVG Export Plug-In . SVG Version: 6.00 Build 0)  -->
<svg version="1.1" id="Layer_1" xmlns="http://www.w3.org/2000/svg" xmlns:xlink="http://www.w3.org/1999/xlink" x="0px" y="0px"
	 viewBox="0 0 32 32" style="enable-background:new 0 0 32 32;" xml:space="preserve">
<style type="text/css">
	.st0{fill:#0592E1;}
</style>
<circle class="st0" cx="15" cy="15" r="6"/>
<g>
	<polygon class="st0" points="10.7,16.9 3,15 10.7,13.1 	"/>
	<polygon class="st0" points="19.3,16.9 19.3,13.1 27,15 	"/>
	<polygon class="st0" points="16.9,19.3 15,27 13.1,19.3 	"/>
	<polygon class="st0" points="16.9,10.7 13.1,10.7 15,3 	"/>
	<polygon class="st0" points="18.8,17.8 21,25.4 15.5,19.7 	"/>
	<polygon class="st0" points="14.5,10.3 11.2,12.2 9,4.6 	"/>
	<polygon class="st0" points="19.7,15.5 25.4,21 17.8,18.8 	"/>
	<polygon class="st0" points="12.2,11.2 10.3,14.5 4.6,9 	"/>
	<polygon class="st0" points="17.8,11.2 25.4,9 19.7,14.5 	"/>
	<polygon class="st0" points="10.3,15.5 12.2,18.8 4.6,21 	"/>
	<polygon class="st0" points="15.5,10.3 21,4.6 18.8,12.2 	"/>
	<polygon class="st0" points="11.2,17.8 14.5,19.7 9,25.4 	"/>
</g>
</svg>
