<?xml version="1.0" encoding="UTF-8"?>
<!-- Generator: Adobe Illustrator 21.0.0, SVG Export Plug-In . SVG Version: 6.00 Build 0)  -->
<svg xmlns="http://www.w3.org/2000/svg" xmlns:xlink="http://www.w3.org/1999/xlink" version="1.1" x="0px" y="0px" viewBox="0 0 32 32" style="enable-background:new 0 0 32 32;" xml:space="preserve">
<style type="text/css">
	.st0{display:none;}
	.st1{display:inline;}
	.st2{fill:#4A4A4A;}
	.st3{fill:#1AA9E8;}
	.st4{fill:none;stroke:#1AA9E8;stroke-miterlimit:10;}
	.st5{display:inline;fill:#606060;}
	.st6{fill:#24BCFF;}
</style>

<g id="Layer_2">
	<g>
		<g>
			<path class="st2" d="M16,4C9.4,4,4,9.4,4,16s5.4,12,12,12s12-5.4,12-12S22.6,4,16,4z M16,26c-5.5,0-10-4.5-10-10S10.5,6,16,6     s10,4.5,10,10S21.5,26,16,26z"/>
		</g>
	</g>
	<g>
		<g>
			<path class="st6" d="M16,6C10.5,6,6,10.5,6,16s4.5,10,10,10s10-4.5,10-10S21.5,6,16,6z M22,16.9c0,0.6-0.5,1.1-1.1,1.1h-9.8     c-0.6,0-1.1-0.5-1.1-1.1v-1.8c0-0.6,0.5-1.1,1.1-1.1h9.8c0.6,0,1.1,0.5,1.1,1.1V16.9z"/>
		</g>
	</g>
</g>
</svg>
