<?xml version="1.0" encoding="utf-8"?>
<!-- Generator: Adobe Illustrator 22.1.0, SVG Export Plug-In . SVG Version: 6.00 Build 0)  -->
<svg version="1.1" id="Layer_1" xmlns="http://www.w3.org/2000/svg" xmlns:xlink="http://www.w3.org/1999/xlink" x="0px" y="0px"
	 viewBox="0 0 32 32" style="enable-background:new 0 0 32 32;" xml:space="preserve">
<style type="text/css">
	.st0{fill:#892910;}
</style>
<g>
	<g>
		<path class="st0" d="M17,2C12.8,2,9.1,4,6.8,7h2.5c2-1.9,4.7-3.1,7.7-3.1c6.2,0,11.1,5,11.1,11.1s-5,11.1-11.1,11.1
			c-5.5,0-10-3.9-11-9.1H4.2c1,6.2,6.3,11,12.8,11c7.2,0,13-5.8,13-13S24.2,2,17,2z"/>
	</g>
</g>
<path class="st0" d="M17,15.6L17,15.6c-0.6,0-1-0.4-1-1V8c0-0.6,0.4-1,1-1l0,0c0.6,0,1,0.4,1,1v6.6C18,15.1,17.6,15.6,17,15.6z"/>
<path class="st0" d="M16.3,14.8L16.3,14.8c0.4-0.4,1-0.4,1.4,0l4.1,4.1c0.4,0.4,0.4,1,0,1.4l0,0c-0.4,0.4-1,0.4-1.4,0l-4.1-4.1
	C15.9,15.8,15.9,15.1,16.3,14.8z"/>
<polygon class="st0" points="12,10 4,11 5,3 "/>
</svg>
