<?xml version="1.0" encoding="UTF-8"?>
<svg xmlns="http://www.w3.org/2000/svg" xmlns:xlink="http://www.w3.org/1999/xlink" width="32px" height="32px" viewBox="0 0 32 32" x="0px" y="0px" version="1.1">
  <defs/>
  <g>
    <polygon points="11.825,20.748 13.503,21.998 7.461,30.107 4.745,32 5.782,28.857   " fill="#4a4a4a" stroke="#4a4a4a" stroke-width="0"/>
    <path d="M17.789,7.068L24.5,12.07c1.121,0.834,3.701-0.842,4.66-1.78c0.083-0.112,0.069-0.209,0.055-0.308c-0.015-0.097-0.029-0.194-0.084-0.235l-10.63-7.92c-0.057-0.042-0.152-0.027-0.251-0.013c-0.098,0.014-0.195,0.028-0.277,0.141C17.348,3.142,16.67,6.234,17.789,7.068z" fill="#ffffff" stroke="#4a4a4a" stroke-width="1.7445"/>
    <rect x="15.613" y="8.844" transform="matrix(-0.8019 -0.5974 0.5974 -0.8019 27.1822 33.2411)" width="6.977" height="6.541" fill="#ffffff" stroke="#4a4a4a" stroke-width="1.7445"/>
    <path d="M6.613,14.282l13.985,10.419c0.169,0.123,0.365,0.096,0.49-0.07l0.417-0.561c1.624-2.182,1.124-5.25-1.001-6.834l-6.432-4.792c-2.294-1.709-5.614-1.225-7.322,1.069l-0.208,0.28C6.417,13.961,6.444,14.156,6.613,14.282z" fill="#ffffff" stroke="#4a4a4a" stroke-width="1.7445"/>
  </g>
</svg>
