<?xml version="1.0" encoding="utf-8"?>
<!-- Generator: Adobe Illustrator 21.0.0, SVG Export Plug-In . SVG Version: 6.00 Build 0)  -->
<svg version="1.1" id="Layer_1" xmlns="http://www.w3.org/2000/svg" xmlns:xlink="http://www.w3.org/1999/xlink" x="0px" y="0px"
	 viewBox="0 0 32 32" style="enable-background:new 0 0 32 32;" xml:space="preserve">
<style type="text/css">
	.st0{fill:#4A4A4A;}
	.st1{fill:none;stroke:#4A4A4A;stroke-width:3;stroke-miterlimit:10;}
	.st2{fill:#B22828;}
</style>
<g id="Layer_7">
	<path class="st0" d="M19.1,16c-1.3,0-2.4-1.1-2.4-2.4c0-1.1,0.9-2.2,2.1-2.3c-0.8-0.5-1.7-0.7-2.7-0.7c-3,0-5.5,2.5-5.5,5.5
		s2.5,5.5,5.5,5.5s5.5-2.5,5.5-5.5c0-0.5-0.1-0.9-0.2-1.5C21,15.4,20,16,19.1,16z"/>
</g>
<path class="st1" d="M29.9,14c0,0-12.3-16.6-27.7,0"/>
<path class="st1" d="M29.9,17.8c0,0-12.3,16.6-27.7,0"/>
<path class="st2" d="M29.1,5.7L5.7,29.1c-0.6,0.6-1.5,0.6-2.1,0l-0.7-0.7c-0.6-0.6-0.6-1.5,0-2.1L26.3,2.9c0.6-0.6,1.5-0.6,2.1,0
	l0.7,0.7C29.7,4.2,29.7,5.2,29.1,5.7z"/>
</svg>
