<?xml version="1.0" encoding="utf-8"?>
<!-- Generator: Adobe Illustrator 22.1.0, SVG Export Plug-In . SVG Version: 6.00 Build 0)  -->
<svg version="1.1" id="Layer_1" xmlns="http://www.w3.org/2000/svg" xmlns:xlink="http://www.w3.org/1999/xlink" x="0px" y="0px"
	 viewBox="0 0 32 32" style="enable-background:new 0 0 32 32;" xml:space="preserve">
<style type="text/css">
	.st0{fill:#FF001F;}
</style>
<path class="st0" d="M24,14.5v1c0,0.3-0.3,0.5-0.7,0.5H6.7C6.3,15.9,6,15.7,6,15.5v-1C6,14.2,6.3,14,6.7,14h16.6
	C23.7,14,24,14.2,24,14.5z"/>
<path class="st0" d="M19,6.9l1,0.6c0.2,0.1,0.2,0.5,0.1,0.8l-8.4,14.4c-0.1,0.4-0.5,0.5-0.7,0.4l-0.9-0.5C9.8,22.4,9.8,22,10,21.7
	l8.3-14.4C18.5,7,18.8,6.8,19,6.9z"/>
<path class="st0" d="M20,22.5l-1,0.6c-0.2,0.1-0.5,0-0.7-0.4L10,8.3C9.8,8,9.8,7.6,10,7.5L10.9,7c0.3-0.2,0.6,0,0.8,0.3L20,21.6
	C20.2,22,20.2,22.4,20,22.5z"/>
</svg>
