<?xml version="1.0" encoding="utf-8"?>
<!-- Generator: Adobe Illustrator 21.0.0, SVG Export Plug-In . SVG Version: 6.00 Build 0)  -->
<svg version="1.1" id="Layer_1" xmlns="http://www.w3.org/2000/svg" xmlns:xlink="http://www.w3.org/1999/xlink" x="0px" y="0px"
	 viewBox="0 0 48 48" style="enable-background:new 0 0 48 48;" xml:space="preserve">
<style type="text/css">
	.st0{fill:#CE0000;}
</style>
<path class="st0" d="M25.2,42h-2.3c-1,0-1.8-0.8-1.8-1.8V7.8c0-1,0.8-1.8,1.8-1.8h2.3c1,0,1.8,0.8,1.8,1.8v32.3
	C27,41.2,26.2,42,25.2,42z"/>
<path class="st0" d="M6,25.2v-2.3c0-1,0.8-1.8,1.8-1.8h32.3c1,0,1.8,0.8,1.8,1.8v2.3c0,1-0.8,1.8-1.8,1.8H7.8C6.8,27,6,26.2,6,25.2z
	"/>
<path class="st0" d="M10.4,12.1l1.7-1.7c0.7-0.7,1.9-0.7,2.6,0l22.9,22.9c0.7,0.7,0.7,1.9,0,2.6l-1.7,1.7c-0.7,0.7-1.9,0.7-2.6,0
	L10.4,14.7C9.7,14,9.7,12.8,10.4,12.1z"/>
<path class="st0" d="M12.1,37.6l-1.7-1.7c-0.7-0.7-0.7-1.9,0-2.6l22.9-22.9c0.7-0.7,1.9-0.7,2.6,0l1.7,1.7c0.7,0.7,0.7,1.9,0,2.6
	L14.7,37.6C14,38.3,12.8,38.3,12.1,37.6z"/>
</svg>
