<?xml version="1.0" encoding="UTF-8"?>
<svg xmlns="http://www.w3.org/2000/svg" xmlns:xlink="http://www.w3.org/1999/xlink" width="32px" height="32px" viewBox="0 0 32 32" x="0px" y="0px" version="1.1">
  <defs>
    <g id="clock">
      <polygon points="20.5,8.6 14,15 14,25 16,25 16,16 21.9,10   "/>
      <path d="M16,30C8.3,30,2,23.7,2,16C2,8.3,8.3,2,16,2c7.7,0,14,6.3,14,14C30,23.7,23.7,30,16,30zM16,4C9.4,4,4,9.4,4,16c0,6.6,5.4,12,12,12c6.6,0,12-5.4,12-12C28,9.4,22.6,4,16,4z"/>
    </g>
  </defs>
  <g>
    <use xlink:href="#clock" fill="#ffffff" stroke="#ffffff" stroke-width="0"/>
  </g>
</svg>
