<?xml version="1.0" encoding="utf-8"?>
<!-- Generator: Adobe Illustrator 25.4.1, SVG Export Plug-In . SVG Version: 6.00 Build 0)  -->
<svg version="1.1" id="Layer_1" xmlns="http://www.w3.org/2000/svg" xmlns:xlink="http://www.w3.org/1999/xlink" x="0px" y="0px"
	 viewBox="0 0 32 32" style="enable-background:new 0 0 32 32;" xml:space="preserve">
<style type="text/css">
	.st0{fill:#4A4A4A;}
</style>
<path class="st0" d="M2,10.8v10.5c0,0.5,0.2,1,0.5,1.3l6.9,6.9c0.3,0.3,0.8,0.5,1.3,0.5h11.4c0.5,0,1-0.2,1.4-0.6l6.1-6.9
	c0.3-0.3,0.5-0.8,0.5-1.2V10.8c0-0.5-0.2-0.9-0.5-1.3l-6.9-7C22.2,2.2,21.7,2,21.2,2H10.8c-0.5,0-1,0.2-1.3,0.5L2.5,9.5
	C2.2,9.8,2,10.3,2,10.8z M27.6,21.5l-5,5.8c-0.3,0.4-0.9,0.6-1.4,0.6h-9.4c-0.5,0-1-0.2-1.3-0.5l-5.9-5.9C4.2,21.2,4,20.7,4,20.2
	v-8.5c0-0.5,0.2-1,0.5-1.3l5.9-5.9C10.8,4.2,11.3,4,11.8,4h8.5c0.5,0,1,0.2,1.3,0.5l5.9,5.9c0.3,0.3,0.5,0.8,0.5,1.3v8.6
	C28,20.8,27.8,21.2,27.6,21.5z"/>
<path class="st0" d="M19.7,22.5L9.5,12.3c-0.3-0.3-0.3-0.8,0-1.2l1.7-1.7c0.3-0.3,0.8-0.3,1.2,0l10.1,10.1c0.3,0.3,0.3,0.8,0,1.2
	l-1.7,1.7C20.5,22.8,20,22.8,19.7,22.5z"/>
<path class="st0" d="M11.2,22.5l-1.7-1.7c-0.3-0.3-0.3-0.8,0-1.2L19.7,9.5c0.3-0.3,0.8-0.3,1.2,0l1.7,1.7c0.3,0.3,0.3,0.8,0,1.2
	L12.3,22.5C12,22.8,11.5,22.8,11.2,22.5z"/>
</svg>
