<?xml version="1.0" encoding="UTF-8"?>
<svg xmlns="http://www.w3.org/2000/svg" xmlns:xlink="http://www.w3.org/1999/xlink" width="32px" height="32px" viewBox="0 0 32 32" x="0px" y="0px" version="1.1">
  <defs>
    <path id="octagon-fill" d="M20,6l6,5.5v8.5L19.9,26H12l-6-6v-8.5L12.1,6H20"/>
    <path id="octagon-outline" d="M20,6l6,5.5v8.5L19.9,26H12l-6-6v-8.5L12.1,6H20M20.4,4h-8.8c-0.2,0-0.4,0.1-0.6,0.3l-6.7,6.2C4.1,10.6,4,10.8,4,11v9.4c0,0.2,0.1,0.4,0.2,0.6l6.7,6.7c0.2,0.2,0.4,0.3,0.6,0.3h8.9c0.2,0,0.4-0.1,0.6-0.3l6.8-6.7c0.2-0.2,0.2-0.4,0.2-0.6V11c0-0.2-0.1-0.4-0.3-0.6L21,4.3C20.8,4.1,20.6,4,20.4,4L20.4,4z"/>
    <path id="cross" d="M21.073,19.092l-3.087-3.059l3.115-3.143c0.272-0.275,0.265-0.724-0.018-1.002l-1.02-1.009c-0.281-0.28-0.729-0.284-1.002-0.01l-3.115,3.145l-3.087-3.059c-0.282-0.28-0.729-0.284-1.002-0.009l-0.921,0.929c-0.272,0.275-0.263,0.723,0.019,1.001l3.086,3.059l-3.146,3.176c-0.271,0.273-0.263,0.723,0.019,1.002l1.018,1.01c0.282,0.278,0.732,0.282,1.002,0.009l3.146-3.176l3.088,3.059c0.282,0.28,0.73,0.285,1.002,0.011l0.921-0.93C21.365,19.82,21.355,19.371,21.073,19.092z"/>
  </defs>
  <g>
    <use xlink:href="#octagon-fill" fill="#e40015" transform="scale(1.2) translate(-2 -2)" stroke="#e40015" stroke-width="0.5"/>
    <use xlink:href="#octagon-outline" fill="#e40015" stroke="#4a4a4a" stroke-width="0" transform="scale(1.2) translate(-2 -2)"/>
    <use xlink:href="#cross" transform="scale(1.2) translate(-2 -2)" fill="#ffffff"/>
  </g>
</svg>
