<?xml version="1.0" encoding="UTF-8"?>
<svg xmlns="http://www.w3.org/2000/svg" xmlns:xlink="http://www.w3.org/1999/xlink" width="32px" height="32px" viewBox="0 0 32 32" x="0px" y="0px" version="1.1">
  <defs/>
  <g>
    <path d="M26.1,6.1c-0.1-0.3-0.4-0.4-0.6-0.4h-2.7c-1.4-1.6-2.9-2.8-4.6-3.5c-0.1,0-0.2-0.1-0.2-0.1C17.4,2,12.8,2,12.8,2c-3,0-3.4,2-3.4,2.9c0,0,0,0.1,0,0.1C8,5.2,7.2,6,7.2,7.4c0,0.1,0,0.5,0,0.8C6.8,8.3,6.4,8.6,6.1,8.9c-0.5,0.6-0.5,1.9-0.5,1.9c0,0.4,0.1,0.9,0.4,1.3c-0.1,0.1-0.2,0.2-0.3,0.2c-0.5,0.5-0.8,0.8-0.8,1.7c0,1.4,0.8,2,2,2.6c1.3,0.7,3,1.1,5,1.1h0.2c-0.2,1.1-0.5,2.1-1,3.1l-0.4,0.6C10,22.9,9.6,24,9.6,24.8c0,2.2,1.2,3.6,3.5,4.2l0.2,0.1c0.1,0,0.1,0,0.2,0c0.1,0,0.3,0,0.4-0.1c0.2-0.1,0.3-0.3,0.3-0.4l0.9-4.1l3.8-4c0.2-0.3,0.7-0.8,1.4-1.8l0.6-0.8c0.7-1,1.1-1.4,1.3-1.5c0.2-0.1,0.6-0.2,1-0.2h2.2c0.3,0,0.5-0.2,0.6-0.4c0.7-1.5,1-3.2,1-4.8C27,9.3,26.7,7.7,26.1,6.1zM24.7,14.3c-2.5,0-3,0.3-3.2,0.3c-0.2,0.1-0.7,0.3-2.1,2.3c0,0,0,0,0,0c-0.3,0.4-0.8,1.1-1.6,2l-4.1,4.3c-0.1,0.1-0.1,0.2-0.2,0.3L12.9,27c-0.5-0.2-0.8-0.5-1.1-0.8c-0.3-0.4-0.5-0.9-0.5-1.5c0-0.6,0.2-1.3,0.7-2l0.3-0.5c1.1-1.8,1.7-3.6,1.7-5.3l0-0.2c0-0.2-0.1-0.4-0.2-0.5c-0.1-0.1-0.3-0.2-0.5-0.2h-0.4c-2.1,0-3.8-0.2-4.8-0.6c-1.3-0.5-1.5-0.8-1.5-1.3c0-0.6,0.2-0.8,0.8-1.4c0.2-0.2,0.4-0.3,0.8-0.3c0.2,0,0.5,0,0.9,0l0.3,0l0.6,0c0,0,0,0,0,0l0,0c0,0,0,0,0,0c0.1,0,0.1,0,0.2,0c0,0,0,0,0,0c0.1,0,0.2-0.1,0.3-0.2c0,0,0,0,0,0v0c0,0,0,0,0,0l0,0v0c0.1-0.1,0.1-0.2,0.2-0.3c0-0.1,0-0.1,0-0.2c0,0,0,0,0,0c0,0,0,0,0,0c0-0.1,0-0.2-0.1-0.3l0,0v0v0c0,0,0,0,0,0c0,0,0,0,0,0c0,0,0,0,0,0c0,0,0,0,0,0c0-0.1-0.1-0.1-0.1-0.2c0,0,0,0,0,0l0,0c0,0,0,0,0,0v0h0c0,0,0,0,0,0c-0.1-0.1-0.2-0.2-0.3-0.2l0,0c0,0,0,0,0,0c0,0,0,0,0,0c-0.1,0-0.1,0-0.2,0l-0.9,0c-0.3,0-0.5,0-0.8,0c-0.2,0-0.4,0-0.7,0.1c-0.1-0.1-0.1-0.2-0.1-0.3c0-0.3,0.1-0.9,0.5-1.1c0.2-0.1,0.4-0.1,0.6-0.2L11,9.4c0.1,0,0.2,0,0.2,0l0,0l0,0c0.1,0,0.2-0.1,0.2-0.2l0,0v0c0.1-0.1,0.1-0.2,0.2-0.3l0,0c0,0,0,0,0,0c0-0.1,0-0.1,0-0.2c0-0.1,0-0.2,0-0.2v0c0-0.1-0.1-0.2-0.2-0.3l0,0c-0.1-0.1-0.1-0.1-0.2-0.1l0,0h0c-0.1,0-0.1,0-0.2,0H9.5c-0.2,0-0.5,0-0.7,0L8.8,7.8c0-0.3,0.1-0.8,0.4-1c0.3-0.1,0.6-0.2,1.1-0.3l1.4,0c0.1,0,0.2,0,0.2,0h0c0,0,0,0,0,0c0.1,0,0.2-0.1,0.3-0.2l0,0v0c0.1-0.1,0.1-0.2,0.2-0.3l0,0c0,0,0,0,0,0c0-0.1,0-0.1,0-0.2c0,0,0,0,0,0c0-0.1,0-0.1,0-0.2l0,0l0,0c0-0.1-0.1-0.2-0.2-0.3c0,0,0,0,0,0c0,0,0,0,0,0l0,0c-0.1-0.1-0.1-0.1-0.2-0.1c0,0,0,0,0,0c-0.1,0-0.1,0-0.2,0c0,0,0,0,0,0h-0.7l0-0.1c0,0,0,0,0,0c0-0.5,0.2-1.1,0.4-1.2c0.3-0.2,0.7-0.3,1.3-0.3c0,0,0.1,0,0.1,0c0.1,0,0.1,0,0.2,0c0.2,0,1.7-0.1,3.6-0.1h0.1l0.8,0c1.7,1,3,2.1,4.1,3.5c0.1,0.2,0.3,0.3,0.5,0.3h2.4c0.4,1.1,0.6,2.2,0.6,3.3C25.3,11.9,25.1,13.1,24.7,14.3z" fill="#4a4a4a" stroke="#4a4a4a" stroke-width="0"/>
  </g>
</svg>
