<?xml version="1.0" encoding="UTF-8"?>
<svg xmlns="http://www.w3.org/2000/svg" xmlns:xlink="http://www.w3.org/1999/xlink" width="32px" height="32px" viewBox="0 0 32 32" x="0px" y="0px" version="1.1">
  <defs/>
  <g>
    <path d="M26,15.4c-0.1-0.2-0.4-0.4-0.6-0.4h-2.2c-0.5,0-0.9-0.1-1.1-0.2c-0.2-0.1-0.5-0.5-1.3-1.5l-0.6-0.8c-0.7-1-1.1-1.5-1.4-1.8l-3.8-4l-0.9-4.1c0-0.2-0.2-0.3-0.3-0.4C13.7,2,13.5,2,13.3,2l-0.2,0.1C10.8,2.6,9.6,4,9.6,6.2c0,0.8,0.4,1.9,1.1,3.3l0.3,0.6c0.5,1,0.9,2.1,1.1,3.2H12c-2.1,0-3.8,0.4-5,1.1c-1.3,0.7-2,1.8-2,3c0,1,0.3,1.9,1,2.7c-0.3,0.5-0.4,0.9-0.4,1.3c0,0.6,0.2,1.1,0.5,1.5c0.3,0.3,0.7,0.6,1.2,0.8c0,0.1,0,0.3,0,0.4c0,1.4,0.8,2.2,2.2,2.4c0,0,0,0.1,0,0.1c0,1.1,0.6,2.5,3.4,2.5h0.8c0.1,0,0.2,0,0.3-0.1l0.6-0.3c0.9,0.2,1.7,0.4,2.4,0.4c0.3,0,0.6,0,1.1-0.1c0.1,0,0.2,0,0.2-0.1c1.6-0.8,3.2-1.9,4.6-3.5h2.7c0.3,0,0.5-0.2,0.6-0.4c0.6-1.6,0.9-3.2,0.9-4.8C27,18.5,26.7,16.9,26,15.4zM17.2,27.5l1-0.4c0.2-0.1,0.3-0.2,0.4-0.4c0.1-0.2,0-0.4,0-0.5c-0.3-0.6-0.7-1.2-1.2-1.6l0.5-0.2c0.2-0.1,0.3-0.2,0.4-0.4c0.1-0.2,0-0.4-0.1-0.6c-0.4-0.6-0.8-1.1-1.2-1.5c0.2-0.1,0.3-0.2,0.3-0.4c0.1-0.2,0-0.4,0-0.5c-0.4-0.7-0.9-1.3-1.5-1.7c0.1-0.1,0.2-0.2,0.2-0.3c0.1-0.2,0-0.4,0-0.5c-0.9-1.7-2.2-2.5-4-2.5c-0.4,0-0.7,0.1-1.2,0.2c-0.4,0.1-0.8,0.2-1.3,0.4l-0.8,0c-0.3,0-0.5,0.2-0.6,0.4c-0.1,0.2-0.1,0.5,0.1,0.7l0.3,0.3c0.1,0.1,0.3,0.2,0.5,0.2l0.7,0c0.1,0,0.2,0,0.2-0.1c0.5-0.2,0.9-0.4,1.3-0.5c0.4-0.1,0.7-0.2,0.9-0.2c0.7,0,1.3,0.3,1.8,0.9l-3.3,1.5l-1.2,0c-0.8,0-1.4-0.2-1.9-0.7c-0.5-0.5-0.8-1.1-0.8-1.8c0-0.5,0.2-1.2,1.5-1.7c1.1-0.4,2.7-0.6,4.8-0.6h0.4c0,0,0,0,0,0c0.4,0,0.7-0.3,0.7-0.7c0,0,0-0.1,0-0.1l0-0.1c0-1.7-0.6-3.5-1.7-5.3c0,0,0,0,0,0L12,8.3c-0.4-0.7-0.7-1.4-0.7-2c0-0.6,0.2-1.1,0.5-1.5C12,4.5,12.4,4.2,12.9,4l0.7,3.4c0,0.1,0.1,0.2,0.2,0.3l4.1,4.3c0.7,0.9,1.3,1.6,1.6,2c1.4,1.9,1.9,2.2,2.1,2.3c0.2,0.1,0.7,0.3,3.2,0.3c0.4,1.2,0.6,2.4,0.6,3.7c0,1.1-0.2,2.2-0.6,3.3h-2.4c-0.2,0-0.4,0.1-0.5,0.3c-1.1,1.4-2.4,2.5-4.1,3.5L17.2,27.5zM12.8,27.4c-0.6,0-1.1-0.1-1.3-0.3c-0.2-0.1-0.3-0.3-0.4-0.6h1.5c0.1,0,0.2,0,0.3-0.1l2.7-1.2c0.3,0.3,0.6,0.5,0.8,0.8c0,0,0,0,0,0l-3,1.3H12.8zM7.3,21.4c0-0.1,0-0.2,0.1-0.3c0.6,0.2,1.3,0.4,2.2,0.4h1c0.1,0,0.2,0,0.3-0.1l2.9-1.3c0.5,0.1,0.9,0.4,1.2,0.8l-3.4,1.5H9.5c-0.8,0-1.4-0.1-1.8-0.3C7.5,21.9,7.3,21.7,7.3,21.4zM11.8,24c0.1,0,0.2,0,0.3-0.1l3-1.3c0.3,0.2,0.6,0.4,0.9,0.7l-3.5,1.6h-1.5c-0.8,0-1.3-0.1-1.7-0.3c-0.3-0.1-0.4-0.3-0.4-0.6L11.8,24z" fill="#4a4a4a" stroke="#4a4a4a" stroke-width="0"/>
  </g>
</svg>
