<?xml version="1.0" encoding="utf-8"?>
<!-- Generator: Adobe Illustrator 22.1.0, SVG Export Plug-In . SVG Version: 6.00 Build 0)  -->
<svg version="1.1" id="Layer_1" xmlns="http://www.w3.org/2000/svg" xmlns:xlink="http://www.w3.org/1999/xlink" x="0px" y="0px"
	 viewBox="0 0 32 32" style="enable-background:new 0 0 32 32;" xml:space="preserve">
<style type="text/css">
	.st0{fill:#3B7C03;}
	.st1{fill:#044D84;}
	.st2{fill:#4A4A4A;}
</style>
<path class="st0" d="M15.7,24.3L8.4,17C8.2,16.7,8,16.4,8,16V4H6v12.6c0,0.3,0.1,0.6,0.2,0.8l0.3,0.5C6.6,18,6.6,18,6.7,18.1
	l7.6,7.6L15.7,24.3z"/>
<path class="st1" d="M24,11l-0.3-0.7l-8-8l-1.4,1.4l7.2,7.2c0.3,0.3,0.5-1.3,0.5-0.8v8.8c0,0.4-0.2,0.9-0.5,1.2l-7.2,7.2l1.4,1.4
	l7.6-7.6c0.1-0.1,0.2-0.2,0.2-0.3l0.3-0.5c0.1-0.2,0.2-0.4,0.2-0.6V11z"/>
<rect x="14" y="0" class="st2" width="2" height="32"/>
</svg>
