<?xml version="1.0" encoding="utf-8"?>
<!-- Generator: Adobe Illustrator 19.2.1, SVG Export Plug-In . SVG Version: 6.00 Build 0)  -->
<svg version="1.1" id="Layer_1" xmlns="http://www.w3.org/2000/svg" xmlns:xlink="http://www.w3.org/1999/xlink" x="0px" y="0px"
	 viewBox="0 0 32 32" style="enable-background:new 0 0 32 32;" xml:space="preserve">
<style type="text/css">
	.st0{fill:#4A4A4A;}
	.st1{fill:#075399;}
</style>
<g>
	<path class="st0" d="M24.7,26c-0.4,0-0.7,0-1,0v-0.1c0-0.1,0-0.2,0-0.3c0-1.1,0-2.2-0.3-3.3c-0.6-2.3-1.8-4.2-3.9-5.4
		c-0.2-0.1-0.3-0.3-0.4-0.5c-0.2-0.4,0.2-1.3,0.6-1.6c1-0.6,1.7-1.4,2.4-2.3c1.2-1.7,1.7-3.7,1.7-5.7c0-0.3,0-0.1,0-0.5
		c0.4,0,0.8,0,1.1,0c0,0,0.1-0.1,0.1-0.3c0-0.5,0-1.2,0-1.7C25,4,25,4,24.7,4c-1.6,0-3.3,0-4.9,0c-4,0-8,0-12,0
		C7.6,4,7.5,4.1,7.5,4.3c0,0.5,0,1.2,0,1.7c0,0.2,0.1,0.3,0.3,0.3c0.4,0,0.7,0,1.1,0c0,0.3,0,0.1,0,0.3C8.8,7.8,9,9,9.4,10.2
		c0.6,1.8,1.6,3.4,3.3,4.5c0.4,0.3,0.7,0.7,0.8,1.1c0.1,0.5,0,0.9-0.4,1.1c-1.7,1-2.9,2.5-3.6,4.3c-0.5,1.4-0.7,2.9-0.7,4.4
		c0,0.1,0,0.2,0,0.3c-0.4,0-0.8,0-1.1,0c-0.2,0-0.3,0.1-0.2,0.2c0,0.5,0,1,0,1.5c0,0.2,0.1,0.3,0.3,0.3c1.3,0,2.6,0,4,0
		c4.3,0,8.6,0,12.9,0c0.2,0,0.3-0.1,0.3-0.3c0-0.5,0-1,0-1.5C25,26,24.9,25.9,24.7,26z M22.6,26c-4.2,0-8.4,0-12.7,0
		c0-1,0-1.2,0-1.6c0.1-1.7,0.6-3.3,1.6-4.7c0.5-0.7,1.2-1.4,1.9-1.8c0.9-0.5,1.2-1.4,1-2.4c-0.1-0.5-0.4-0.9-0.7-1.3
		c0-0.1-0.1-0.1-0.2-0.2c-1.6-0.9-2.6-2.2-3.2-3.9c0,0-0.5-2.9-0.3-4.1c0,0,8.7,0,13,0c0,0,0,1.5,0,2c-0.1,1.6-1.1,3-2.1,4.3
		c-0.5,0.7-1.2,1.3-2,1.7c-0.1,0.1-0.2,0.1-0.3,0.3c-0.5,0.6-0.8,1.3-0.7,2.1c0.1,0.6,0.3,1.1,0.9,1.4c1.8,1,2.8,2.6,3.4,4.6
		c0.3,1,0.4,2.3,0.4,3.3C22.6,25.7,22.6,26,22.6,26z"/>
	<path class="st1" d="M16.2,24.1c-1.4,0-2.9,0-4.3,0c-0.2,0-0.3,0-0.3-0.3c0.2-1.4,0.6-2.6,1.5-3.7c0.4-0.5,0.9-0.9,1.5-1.2
		c0.6-0.4,1.1-0.9,1.4-1.6c0-0.1,0.1-0.1,0.2-0.2c0.1,0.1,0.1,0.1,0.2,0.2c0.3,0.7,0.8,1.3,1.5,1.7c0.9,0.5,1.5,1.3,2,2.2
		c0.5,0.8,0.7,1.7,0.8,2.7c0,0.2-0.1,0.3-0.3,0.3C19.1,24.1,17.7,24.1,16.2,24.1z"/>
	<path class="st1" d="M20.1,9.9c0,0.1,0.1,0.1,0.1,0.2c0,0.1-0.1,0.2-0.1,0.2c-0.5,1.1-1.3,2.1-2.4,2.6c-0.1,0.1-0.2,0.2-0.3,0.3
		c-0.4,0.5-0.7,1-0.9,1.6c0,0.1-0.1,0.1-0.2,0.2c0-0.1-0.1-0.1-0.1-0.2c-0.2-0.7-0.6-1.2-1.1-1.7C15,13,14.9,13,14.8,12.9
		c-0.3-0.2-0.7-0.4-1-0.7c-0.2-0.2-0.2-0.2,0.1-0.3c2-0.7,4.1-1.3,6.1-2C20,9.9,20,9.9,20.1,9.9z"/>
</g>
</svg>
