<?xml version="1.0" encoding="utf-8"?>
<!-- Generator: Adobe Illustrator 25.4.1, SVG Export Plug-In . SVG Version: 6.00 Build 0)  -->
<svg version="1.1" id="Layer_1" xmlns="http://www.w3.org/2000/svg" xmlns:xlink="http://www.w3.org/1999/xlink" x="0px" y="0px"
	 viewBox="0 0 32 32" style="enable-background:new 0 0 32 32;" xml:space="preserve">
<style type="text/css">
	.st0{fill:#F3F3F3;}
</style>
<g>
	<g>
		<path id="triangle-outline" class="st0" d="M26.4,28H5.6c-1.3,0-2.4-0.7-3.1-1.8s-0.6-2.7,0-3.8l10-18c0.6-1.1,1.8-1.8,3.1-1.8
			s2.5,0.7,3.1,1.8l10.9,18c0.6,1.1,0.6,2.7,0,3.8C28.9,27.3,27.7,28,26.4,28z M15.5,4.7c-0.6,0-1.1,0.3-1.4,0.8l-10,18
			c-0.3,0.5-0.3,1.1,0,1.6s0.8,1,1.3,1h20.9c0.6,0,1.1-0.5,1.3-1c0.3-0.5,0.3-1.1,0-1.6l-10.9-18C16.6,5,16.1,4.7,15.5,4.7z"/>
	</g>
	<g>
		<path id="exclamationmark" class="st0" d="M17.2,22.9c0,0.4-0.2,0.8-0.5,1.1c-0.3,0.3-0.7,0.4-1.1,0.4s-0.8-0.1-1-0.4
			c-0.3-0.3-0.4-0.6-0.4-1s0.2-0.8,0.5-1.1s0.7-0.4,1.1-0.4c0.4,0,0.8,0.1,1.1,0.4C17,22.1,17.2,22.4,17.2,22.9z M17.1,10.1
			c0,0.3-0.1,1.3-0.2,2.8l-0.6,6.8c0,0.4-0.2,0.6-0.5,0.6c-0.3,0-0.5-0.2-0.6-0.6l-0.7-6.8c-0.1-1.4-0.2-2.3-0.2-2.7
			c0-1.4,0.5-2.1,1.5-2.1c0.5,0,0.9,0.3,1.1,0.8C17,9.1,17.1,9.6,17.1,10.1z"/>
	</g>
</g>
</svg>
