<?xml version="1.0" standalone="no"?>
<!DOCTYPE svg PUBLIC "-//W3C//DTD SVG 20010904//EN"
 "http://www.w3.org/TR/2001/REC-SVG-20010904/DTD/svg10.dtd">
<svg version="1.0" xmlns="http://www.w3.org/2000/svg"
 width="700.000000pt" height="700.000000pt" viewBox="0 0 700.000000 700.000000"
 preserveAspectRatio="xMidYMid meet">
<metadata>
Created by potrace 1.11, written by Peter Selinger 2001-2013
</metadata>
<g transform="translate(0.000000,700.000000) scale(0.100000,-0.100000)"
fill="#000000" stroke="none">
<path d="M2489 6471 c-20 -4 -50 -16 -67 -27 -16 -10 -411 -372 -877 -804
-467 -432 -880 -813 -919 -847 -38 -34 -76 -73 -83 -85 -10 -18 -12 -291 -13
-1308 l0 -1285 23 -48 c17 -37 214 -239 922 -948 511 -511 916 -909 937 -920
37 -19 67 -19 1262 -17 l1223 3 37 26 c57 40 1854 1817 1871 1849 13 26 15
190 13 1338 l-3 1308 -35 46 c-51 67 -1812 1668 -1868 1698 l-46 25 -1171 1
c-643 1 -1186 -1 -1206 -5z m2222 -1780 c24 -15 110 -95 190 -177 128 -131
147 -155 157 -196 9 -37 10 -59 1 -95 -11 -45 -39 -75 -438 -476 l-426 -428
419 -416 c252 -251 424 -430 432 -450 8 -18 14 -54 14 -81 0 -68 -31 -112
-192 -268 -103 -101 -143 -134 -173 -143 -109 -30 -97 -40 -574 431 l-426 420
-425 -430 c-234 -237 -438 -435 -453 -441 -45 -17 -124 -13 -165 8 -20 11
-107 91 -194 178 -130 132 -158 166 -168 202 -13 50 -6 106 18 143 9 14 205
216 435 449 l419 423 -425 421 c-402 397 -426 423 -436 468 -8 35 -8 59 1 95
10 41 29 65 156 194 79 81 159 154 177 162 43 21 127 20 168 0 18 -9 218 -202
445 -428 l414 -411 416 422 c230 233 431 430 447 438 17 8 55 15 86 15 44 0
64 -6 100 -29z"/>
</g>
</svg>
