<?xml version="1.0" encoding="utf-8"?>
<!-- Generator: Adobe Illustrator 19.2.1, SVG Export Plug-In . SVG Version: 6.00 Build 0)  -->
<svg version="1.1" xmlns="http://www.w3.org/2000/svg" xmlns:xlink="http://www.w3.org/1999/xlink" x="0px" y="0px"
	 viewBox="0 0 32 32" style="enable-background:new 0 0 32 32;" xml:space="preserve">
<style type="text/css">
	.st0{fill:#1C8BE9;}
	.st1{fill:#4A4A4A;}
</style>
<g id="Layer_1">
	<path class="st0" d="M11.4,25.3l1.3-1.6c0,0,0,0,0,0l0.5-2.7c-2.7-0.7-4.5-3.4-4-6.2c0.5-3,3.4-5,6.4-4.5c2.9,0.5,4.8,3.1,4.5,6
		l2.7,0.5c0-0.1,0-0.2,0-0.3l2-0.7c0.4-0.1,0.6-0.5,0.6-0.9c0-0.5-0.1-0.9-0.2-1.4l-0.1-0.2c-0.1-0.4-0.2-0.9-0.4-1.3
		c-0.1-0.4-0.5-0.6-0.9-0.6l-2.1,0.2c-0.2-0.4-0.5-0.7-0.8-1.1l0.9-1.9c0.2-0.4,0.1-0.8-0.2-1.1c-0.3-0.3-0.7-0.5-1.1-0.8l-0.3-0.2
		c-0.4-0.2-0.8-0.4-1.2-0.6c-0.4-0.2-0.8-0.1-1.1,0.2l-1.3,1.6c-0.4-0.1-0.9-0.2-1.3-0.2l-0.7-2C14.5,5.2,14.1,5,13.7,5
		c-0.4,0-0.9,0.1-1.4,0.2l-0.2,0.1c-0.4,0.1-0.9,0.2-1.3,0.4c-0.4,0.1-0.6,0.5-0.6,0.9l0.2,2.1c-0.4,0.2-0.7,0.5-1.1,0.8L7.5,8.6
		C7.2,8.4,6.7,8.5,6.5,8.8C6.1,9.2,5.8,9.6,5.6,10c-0.3,0.4-0.5,0.9-0.7,1.3c0,0.1-0.1,0.1-0.1,0.2c-0.1,0.3,0.1,0.6,0.3,0.8
		l1.6,1.3c-0.1,0.4-0.2,0.9-0.2,1.3l-2,0.7C4.2,15.9,4,16.3,4,16.7c0.1,1,0.3,2,0.7,2.9c0.1,0.4,0.5,0.6,0.9,0.6l2.1-0.2
		c0.2,0.4,0.5,0.7,0.8,1.1l-0.9,1.9c-0.2,0.4-0.1,0.8,0.2,1.1c0.4,0.3,0.8,0.6,1.2,0.9c0.4,0.3,0.9,0.5,1.3,0.7
		C10.7,25.7,11.1,25.6,11.4,25.3z"/>
</g>
<g id="Layer_1_copy">
	<path class="st0" d="M26.2,19.5c-0.1,0.1-0.2,0.2-0.3,0.3c-2.2,2-5.7,1.9-7.8-0.4c-0.1-0.1-0.2-0.3-0.3-0.4l-2,1.8
		c0.3,0.3,0.5,0.6,0.8,0.9l-0.6,2c-0.1,0.4,0,0.8,0.4,1c0.8,0.5,1.7,1,2.7,1.3c0.4,0.1,0.8,0,1-0.4l1.1-1.8c0.4,0.1,0.9,0.1,1.3,0.1
		l1,1.9c0.2,0.4,0.6,0.5,1,0.5c0.5-0.1,1-0.2,1.4-0.4c0.5-0.2,0.9-0.4,1.4-0.6c0.4-0.2,0.5-0.6,0.5-1l-0.5-2.1
		c0.3-0.2,0.5-0.5,0.8-0.7L26.2,19.5z"/>
	<circle class="st1" cx="14" cy="10" r="0"/>
</g>
</svg>
