<?xml version="1.0" encoding="UTF-8"?>
<svg id="Layer_1" xmlns="http://www.w3.org/2000/svg" xmlns:xlink="http://www.w3.org/1999/xlink" version="1.1" viewBox="0 0 32 32">
  <!-- Generator: Adobe Illustrator 29.3.1, SVG Export Plug-In . SVG Version: 2.1.0 Build 151)  -->
  <defs>
    <style>
      .st0 {
        fill: #4a4a4a;
      }
    </style>
  </defs>
  <path class="st0" d="M13.7,20.1c.4,1.3,1,2.2,1.3,2.7.3,0,2.4.5,2.8.5h.8c0,0,.3-2.2.3-3.3-.8.3-4.3.2-5.2,0Z"/>
  <path class="st0" d="M16,0C7.2,0,0,7.2,0,16s7.2,16,16,16,16-7.2,16-16S24.8,0,16,0ZM27.2,16.4c-.4.1-1.7.1-1.7.1-.2,0-.4,0-.6-.1h-.2s-.1.2-.1.3c-.8,1.6-1.7,3.1-3,4.3h0v.6c0,.2-.4,1.5-.4,1.6.3.3.5.5.7.6.3.2.4.4.4.8h-.3s0,.2,0,.3h0c-.4,0-1.3,0-1.5,0h-.2l-.2.2c-.4.4-1.3,1.2-1.5,1.3,0,0-.2,0-.4.2h-.7s0-.1-.1-.1h0v-.3c0-.3,0-.4.4-.6.1-.1.4-.3.4-.4v-.4c-.2-.3-3.2-.6-4.1-.8h-.1c0,0,0-.2,0-.3,0,0-1.1-1.9-1.7-2.5-.5-.7-2.3-1.6-2.4-1.7-1.4-.6-2.6-2.3-2.2-3.7v-.4c0,0-.6-.5-.6-.8-.2-1.4-.7-2.1-1.5-2.6-.7-.6.4-1.2,1.1-1.3,1.3,0,2.5.9,2.7,2.2v.6c.2,0,.4,0,.6-.2.4-.1,1.4-.5,1.6-.6,2.1-.7,4.5,0,6.5.9.1,0,1.8,1.2,2.5.4.2-.3.4-.5.5-.9.1-.4.4-.6.6-.8.3-.2.5-.4.6-.5,0-.1,0-.3,0-.4,0,0,0,0-.2,0-.8-.4-1.6-.6-2.4-.9-.2,0-2.6-1.3-3.4-2.3,0-.1-.3-.5,0-.6.4-.3,2.3.3,2.6.6.5.2,1.4.6,2,.6-.2-.5-1.7-1.7-1.9-2s-.4-.7-.3-.9c.4-.1,1,0,1,0h0c.6.3,2,1.4,2.9,2.4,0,0,1.8,2.2,2.3,2.3,1.9.7,3.4,2.4,3.9,4.2,0,.3,0,.7-.3.9,0,.2-.6.6-.9.7Z"/>
</svg>