<?xml version="1.0" encoding="UTF-8"?>
<svg xmlns="http://www.w3.org/2000/svg" xmlns:xlink="http://www.w3.org/1999/xlink" width="32px" height="32px" viewBox="0 0 32 32" x="0px" y="0px" version="1.1">
  <defs>
    <path id="folder-tab" d="M2,5C1.016,5,1,6,1,6v2h12.5l2-3C15.5,5,3,5,2,5z"/>
    <path id="folder-outline" d="M30,4H19l-4,6H2c-1,0-2,0.5-2,1.5v16C0,29,1,30,2,30c0,0,27,0,28,0s2-1,2-2V6C32,5,31,4,30,4zM2,28V12h14l4-6h10v22H2z"/>
    <rect id="maskcanvas" width="32px" height="32px" fill="#ffffff"/>
    <mask id="calendarmask">
      <use xlink:href="#maskcanvas"/>
      <path d="M26,4h-3v2c0,0,0,1-1.5,1S20,6,20,6V4h-8v2c0,0,0,1-1.5,1S9,6,9,6V4H6c0,0-2,0-2,2v22c0,0,0,2,2,2h20c2,0,2-2,2-2V6C28,4,26,4,26,4zM26,27c0,0,0,1-1,1H7c-1,0-1-1-1-1V10h20V27z" fill="#ffffff" stroke="#000000" stroke-width="2" transform="scale(0.8) translate(7 10)"/>
      <path d="M10.5,2.5C10.232,2.5,10,2.731,10,3v3c0,0.269,0.232,0.5,0.5,0.5C10.769,6.5,11,6.269,11,6V3C11,2.731,10.769,2.5,10.5,2.5z" fill="#ffffff" stroke="#000000" stroke-width="2" transform="scale(0.8) translate(7 10)"/>
      <path d="M21.5,6.5C21.769,6.5,22,6.269,22,6V3c0-0.269-0.231-0.5-0.5-0.5S21,2.731,21,3v3C21,6.269,21.231,6.5,21.5,6.5z" fill="#ffffff" stroke="#000000" stroke-width="2" transform="scale(0.8) translate(7 10)"/>
      <path d="M26,27c0,0,0,1-1,1H7c-1,0-1-1-1-1V10h20V27z" transform="scale(0.8) translate(7 10)" fill="#000000"/>
      <path d="M10.8,12.9h10.4v2.5c-0.9,0.8-1.7,1.8-2.3,2.8c-0.7,1.2-1.3,2.5-1.7,4c-0.3,1.1-0.6,2.5-0.7,4.1h-3.5c0.3-2.2,0.7-4,1.3-5.5c0.6-1.5,1.5-3,2.8-4.7h-6.3V12.9z" transform="scale(0.8) translate(7 10)" fill="#000000"/>
    </mask>
    <g id="calendar-outline">
      <path d="M26,4h-3v2c0,0,0,1-1.5,1S20,6,20,6V4h-8v2c0,0,0,1-1.5,1S9,6,9,6V4H6c0,0-2,0-2,2v22c0,0,0,2,2,2h20c2,0,2-2,2-2V6C28,4,26,4,26,4zM26,27c0,0,0,1-1,1H7c-1,0-1-1-1-1V10h20V27z"/>
      <path d="M10.5,2.5C10.232,2.5,10,2.731,10,3v3c0,0.269,0.232,0.5,0.5,0.5C10.769,6.5,11,6.269,11,6V3C11,2.731,10.769,2.5,10.5,2.5z"/>
      <path d="M21.5,6.5C21.769,6.5,22,6.269,22,6V3c0-0.269-0.231-0.5-0.5-0.5S21,2.731,21,3v3C21,6.269,21.231,6.5,21.5,6.5z"/>
    </g>
    <path id="calendar-seven" d="M10.8,12.9h10.4v2.5c-0.9,0.8-1.7,1.8-2.3,2.8c-0.7,1.2-1.3,2.5-1.7,4c-0.3,1.1-0.6,2.5-0.7,4.1h-3.5c0.3-2.2,0.7-4,1.3-5.5c0.6-1.5,1.5-3,2.8-4.7h-6.3V12.9z"/>
  </defs>
  <g>
    <use xlink:href="#folder-outline" fill="#ffffff" stroke="#ffffff" stroke-width="0" style="mask:url(&quot;#calendarmask&quot;);"/>
    <use xlink:href="#folder-tab" fill="#ffffff" stroke="#ffffff" stroke-width="0"/>
    <use xlink:href="#calendar-outline" fill="#ffffff" stroke="#ffffff" stroke-width="0" transform="scale(0.8) translate(7 10)"/>
    <use xlink:href="#calendar-seven" transform="scale(0.8) translate(7 10)" fill="#ffffff"/>
  </g>
</svg>
