<?xml version="1.0" encoding="UTF-8"?>
<svg xmlns="http://www.w3.org/2000/svg" xmlns:xlink="http://www.w3.org/1999/xlink" width="32px" height="32px" viewBox="0 0 32 32" x="0px" y="0px" version="1.1">
  <defs>
    <path id="folder-tab" d="M2,5C1.016,5,1,6,1,6v2h12.5l2-3C15.5,5,3,5,2,5z"/>
    <path id="folder-fill" d="M2,12v16h28V6H20l-4,6H2z" style="fill:url(&quot;#folder-fill-gradient&quot;);"/>
    <path id="folder-outline" d="M30,4H19l-4,6H2c-1,0-2,0.5-2,1.5v16C0,29,1,30,2,30c0,0,27,0,28,0s2-1,2-2V6C32,5,31,4,30,4zM2,28V12h14l4-6h10v22H2z"/>
    <linearGradient id="folder-fill-gradient" gradientUnits="userSpaceOnUse" x1="16" y1="6" x2="16" y2="28">
      <stop offset="0" style="stop-color:#FFFFFF"/>
      <stop offset="1" style="stop-color:#f2f2f2"/>
    </linearGradient>
    <rect id="maskcanvas" width="32px" height="32px" fill="#ffffff"/>
    <mask id="downloadmask">
      <use xlink:href="#maskcanvas"/>
      <path d="M15.5,22.5c0.1,0.2,0.3,0.3,0.5,0.3c0.2,0,0.4-0.1,0.5-0.3l4.3-6c0.1-0.2,0.2-0.5,0.1-0.7c-0.1-0.2-0.3-0.4-0.6-0.4h-2.8V7.5C17.5,6.7,16.8,6,16,6c-0.8,0-1.5,0.7-1.5,1.5v7.9h-2.8c-0.2,0-0.5,0.1-0.6,0.4C11,16,11,16.3,11.1,16.5L15.5,22.5z" stroke="#000000" stroke-width="2"/>
    </mask>
    <path id="downloadarrow" d="M15.5,22.5c0.1,0.2,0.3,0.3,0.5,0.3c0.2,0,0.4-0.1,0.5-0.3l4.3-6c0.1-0.2,0.2-0.5,0.1-0.7c-0.1-0.2-0.3-0.4-0.6-0.4h-2.8V7.5C17.5,6.7,16.8,6,16,6c-0.8,0-1.5,0.7-1.5,1.5v7.9h-2.8c-0.2,0-0.5,0.1-0.6,0.4C11,16,11,16.3,11.1,16.5L15.5,22.5z"/>
    <path id="downloadcontainer" d="M25,20c0,0-1,0-1,1c0,0.4,0-0.6,0,4H8v-4c0-1-1-1-1-1s-1,0-1,1c0,0.4,0,0.4,0,5c0,0,0,1,1,1h18c1,0,1-1,1-1l0,0v-5C26,20,25,20,25,20z"/>
  </defs>
  <g>
    <use xlink:href="#folder-fill" fill="#ffffff"/>
    <use xlink:href="#folder-outline" fill="#4a4a4a" stroke="#4a4a4a" stroke-width="0" style="mask:url(&quot;#downloadmask&quot;);"/>
    <use xlink:href="#folder-tab" fill="#4a4a4a" stroke="#4a4a4a" stroke-width="0"/>
    <use xlink:href="#downloadarrow" fill="#4a4a4a" stroke="#4a4a4a" stroke-width="0"/>
    <use xlink:href="#downloadcontainer" fill="#4a4a4a" stroke="#4a4a4a" stroke-width="0"/>
  </g>
</svg>
