<?xml version="1.0" encoding="UTF-8"?>
<svg xmlns="http://www.w3.org/2000/svg" xmlns:xlink="http://www.w3.org/1999/xlink" width="32px" height="32px" viewBox="0 0 32 32" x="0px" y="0px" version="1.1">
  <defs>
    <path id="folder-tab" d="M2,5C1.016,5,1,6,1,6v2h12.5l2-3C15.5,5,3,5,2,5z"/>
    <path id="folder-fill" d="M2,12v16h28V6H20l-4,6H2z" style="fill:url(&quot;#folder-fill-gradient&quot;);"/>
    <path id="folder-outline" d="M30,4H19l-4,6H2c-1,0-2,0.5-2,1.5v16C0,29,1,30,2,30c0,0,27,0,28,0s2-1,2-2V6C32,5,31,4,30,4zM2,28V12h14l4-6h10v22H2z"/>
    <linearGradient id="folder-fill-gradient" gradientUnits="userSpaceOnUse" x1="16" y1="6" x2="16" y2="28">
      <stop offset="0" style="stop-color:#FFFFFF"/>
      <stop offset="1" style="stop-color:#f2f2f2"/>
    </linearGradient>
    <rect id="maskcanvas" width="32px" height="32px" fill="#ffffff"/>
    <mask id="emailmask">
      <use xlink:href="#maskcanvas"/>
      <path d="M24.4,15.9c-0.1,1.5-0.5,2.8-1.3,3.9c-0.8,1.1-2.1,1.6-3.7,1.6c-0.6,0-1-0.2-1.4-0.5s-0.7-0.7-0.8-1.3c-0.3,0.6-0.6,1-1.1,1.3c-0.4,0.3-0.9,0.4-1.5,0.4c-1,0-1.8-0.4-2.3-1.2s-0.7-1.9-0.6-3.2c0.2-1.7,0.7-3.1,1.5-4.1c0.8-1,1.8-1.5,3-1.5c0.8,0,1.5,0.1,2,0.3c0.5,0.2,1,0.4,1.6,0.8l0,0h0.1l-0.5,5.8c0,0.6,0,1,0.1,1.2c0.1,0.2,0.3,0.3,0.5,0.3c0.8,0,1.4-0.4,1.8-1.1s0.7-1.7,0.8-2.8c0.1-2.3-0.3-4.1-1.4-5.4c-1-1.3-2.6-1.9-4.7-1.9c-2.1,0-3.7,0.7-4.9,2.1c-1.2,1.4-1.9,3.3-2,5.7c-0.1,2.3,0.4,4.2,1.5,5.5c1.1,1.4,2.7,2,4.7,2c0.6,0,1.2-0.1,1.8-0.2c0.6-0.1,1.1-0.3,1.6-0.5l0.4,1.7c-0.5,0.3-1,0.5-1.7,0.7c-0.7,0.2-1.4,0.2-2.1,0.2c-2.8,0-4.9-0.8-6.4-2.5s-2.2-4-2.1-7c0.1-2.9,1-5.2,2.6-6.9s3.8-2.6,6.5-2.6c2.7,0,4.7,0.8,6.1,2.4C23.9,10.9,24.5,13.1,24.4,15.9zM14.1,17c-0.1,0.8,0,1.4,0.2,1.9c0.2,0.4,0.5,0.6,0.9,0.6c0.4,0,0.7-0.1,1-0.3c0.3-0.2,0.5-0.6,0.8-1.1l0.4-4.6c-0.1,0-0.3-0.1-0.4-0.1c-0.1,0-0.3,0-0.4,0c-0.7,0-1.2,0.3-1.6,0.9C14.4,14.8,14.2,15.8,14.1,17z" transform="scale(1.1) translate(2 2)" stroke="#000000" stroke-width="2"/>
    </mask>
    <path id="at-sign" d="M24.4,15.9c-0.1,1.5-0.5,2.8-1.3,3.9c-0.8,1.1-2.1,1.6-3.7,1.6c-0.6,0-1-0.2-1.4-0.5s-0.7-0.7-0.8-1.3c-0.3,0.6-0.6,1-1.1,1.3c-0.4,0.3-0.9,0.4-1.5,0.4c-1,0-1.8-0.4-2.3-1.2s-0.7-1.9-0.6-3.2c0.2-1.7,0.7-3.1,1.5-4.1c0.8-1,1.8-1.5,3-1.5c0.8,0,1.5,0.1,2,0.3c0.5,0.2,1,0.4,1.6,0.8l0,0h0.1l-0.5,5.8c0,0.6,0,1,0.1,1.2c0.1,0.2,0.3,0.3,0.5,0.3c0.8,0,1.4-0.4,1.8-1.1s0.7-1.7,0.8-2.8c0.1-2.3-0.3-4.1-1.4-5.4c-1-1.3-2.6-1.9-4.7-1.9c-2.1,0-3.7,0.7-4.9,2.1c-1.2,1.4-1.9,3.3-2,5.7c-0.1,2.3,0.4,4.2,1.5,5.5c1.1,1.4,2.7,2,4.7,2c0.6,0,1.2-0.1,1.8-0.2c0.6-0.1,1.1-0.3,1.6-0.5l0.4,1.7c-0.5,0.3-1,0.5-1.7,0.7c-0.7,0.2-1.4,0.2-2.1,0.2c-2.8,0-4.9-0.8-6.4-2.5s-2.2-4-2.1-7c0.1-2.9,1-5.2,2.6-6.9s3.8-2.6,6.5-2.6c2.7,0,4.7,0.8,6.1,2.4C23.9,10.9,24.5,13.1,24.4,15.9zM14.1,17c-0.1,0.8,0,1.4,0.2,1.9c0.2,0.4,0.5,0.6,0.9,0.6c0.4,0,0.7-0.1,1-0.3c0.3-0.2,0.5-0.6,0.8-1.1l0.4-4.6c-0.1,0-0.3-0.1-0.4-0.1c-0.1,0-0.3,0-0.4,0c-0.7,0-1.2,0.3-1.6,0.9C14.4,14.8,14.2,15.8,14.1,17z"/>
  </defs>
  <g>
    <use xlink:href="#folder-fill" fill="#ffffff"/>
    <use xlink:href="#folder-outline" fill="#4a4a4a" stroke="#4a4a4a" stroke-width="0" style="mask:url(&quot;#emailmask&quot;);"/>
    <use xlink:href="#folder-tab" fill="#4a4a4a" stroke="#4a4a4a" stroke-width="0"/>
    <use xlink:href="#at-sign" fill="#4a4a4a" stroke="#4a4a4a" stroke-width="0" transform="scale(1.1) translate(2 2)"/>
  </g>
</svg>
