<?xml version="1.0" encoding="UTF-8"?>
<svg xmlns="http://www.w3.org/2000/svg" xmlns:xlink="http://www.w3.org/1999/xlink" width="32px" height="32px" viewBox="0 0 32 32" x="0px" y="0px" version="1.1">
  <defs>
    <path id="folder-tab" d="M2,5C1.016,5,1,6,1,6v2h12.5l2-3C15.5,5,3,5,2,5z"/>
    <path id="folder-fill" d="M2,12v16h28V6H20l-4,6H2z" style="fill:url(&quot;#folder-fill-gradient&quot;);"/>
    <path id="folder-outline" d="M30,4H19l-4,6H2c-1,0-2,0.5-2,1.5v16C0,29,1,30,2,30c0,0,27,0,28,0s2-1,2-2V6C32,5,31,4,30,4zM2,28V12h14l4-6h10v22H2z"/>
    <linearGradient id="folder-fill-gradient" gradientUnits="userSpaceOnUse" x1="16" y1="6" x2="16" y2="28">
      <stop offset="0" style="stop-color:#FFFFFF"/>
      <stop offset="1" style="stop-color:#f2f2f2"/>
    </linearGradient>
    <rect id="maskcanvas" width="32px" height="32px" fill="#ffffff"/>
    <mask id="footstepmask">
      <use xlink:href="#maskcanvas"/>
      <path d="M13,9.4c-0.2-2.6-0.4-7-4.4-6.8C7.7,2.7,7,3,6.5,3.6C4.7,5.6,5,9.8,5,10c0.3,2.8,0.6,3.8,1,5.1c0.1,0.4,0.2,0.7,0.3,1.2c0,0.2,0.2,0.3,0.4,0.3c0,0,0.1,0,0.1,0l4.7-0.9c0.2,0,0.3-0.2,0.3-0.4c-0.1-1.5,0.3-2.4,0.7-3.2C12.7,11.3,13.1,10.6,13,9.4L13,9.4z" transform="scale(0.8) translate(10 10)" fill="#000000" stroke="#000000" stroke-width="2"/>
      <path d="M12.1,17.7L12.1,17.7c-0.1-0.3-0.3-0.4-0.5-0.3l-4.6,0.9c-0.1,0-0.2,0.1-0.2,0.2c-0.1,0.1-0.1,0.2-0.1,0.3c0.6,3,1.4,4.8,3.4,4.8c0.2,0,0.4,0,0.6-0.1c0.6-0.1,1.3-0.3,1.7-0.9c0.5-0.8,0.4-2.1-0.3-4.7C12.2,17.9,12.1,17.8,12.1,17.7z" transform="scale(0.8) translate(10 10)" fill="#000000" stroke="#000000" stroke-width="2"/>
      <path d="M23.9,9.9c-0.6-0.6-1.3-1-2.1-1c-4-0.2-4.3,4.2-4.4,6.8l0,0.1c-0.1,1.1,0.3,1.8,0.6,2.5c0.4,0.8,0.8,1.7,0.7,3.2c0,0.2,0.1,0.4,0.3,0.4l4.7,0.9c0,0,0.1,0,0.1,0c0.2,0,0.3-0.1,0.4-0.3c0.1-0.4,0.2-0.8,0.3-1.2c0.3-1.3,0.6-2.3,1-5.1C25.4,16.1,25.6,11.9,23.9,9.9z" transform="scale(0.8) translate(10 10)" fill="#000000" stroke="#000000" stroke-width="2"/>
      <path d="M23.2,24.6l-4.6-0.9c-0.2,0-0.4,0.1-0.4,0.3l0,0c0,0.1,0,0.1-0.1,0.2c-0.7,2.6-0.8,3.9-0.3,4.7c0.4,0.6,1.1,0.8,1.7,0.9c0.2,0,0.4,0.1,0.6,0.1c2,0,2.7-1.8,3.4-4.8c0-0.1,0-0.2-0.1-0.3C23.4,24.7,23.3,24.6,23.2,24.6z" transform="scale(0.8) translate(10 10)" fill="#000000" stroke="#000000" stroke-width="2"/>
    </mask>
  </defs>
  <g>
    <use xlink:href="#folder-fill" fill="#ffffff"/>
    <use xlink:href="#folder-outline" fill="#4a4a4a" stroke="#4a4a4a" stroke-width="0" style="mask:url(&quot;#footstepmask&quot;);"/>
    <use xlink:href="#folder-tab" fill="#4a4a4a" stroke="#4a4a4a" stroke-width="0"/>
    <path d="M13,9.4c-0.2-2.6-0.4-7-4.4-6.8C7.7,2.7,7,3,6.5,3.6C4.7,5.6,5,9.8,5,10c0.3,2.8,0.6,3.8,1,5.1c0.1,0.4,0.2,0.7,0.3,1.2c0,0.2,0.2,0.3,0.4,0.3c0,0,0.1,0,0.1,0l4.7-0.9c0.2,0,0.3-0.2,0.3-0.4c-0.1-1.5,0.3-2.4,0.7-3.2C12.7,11.3,13.1,10.6,13,9.4L13,9.4z" fill="#4a4a4a" stroke="#4a4a4a" stroke-width="0" transform="scale(0.8) translate(10 10)"/>
    <path d="M12.1,17.7L12.1,17.7c-0.1-0.3-0.3-0.4-0.5-0.3l-4.6,0.9c-0.1,0-0.2,0.1-0.2,0.2c-0.1,0.1-0.1,0.2-0.1,0.3c0.6,3,1.4,4.8,3.4,4.8c0.2,0,0.4,0,0.6-0.1c0.6-0.1,1.3-0.3,1.7-0.9c0.5-0.8,0.4-2.1-0.3-4.7C12.2,17.9,12.1,17.8,12.1,17.7z" fill="#4a4a4a" stroke="#4a4a4a" stroke-width="0" transform="scale(0.8) translate(10 10)"/>
    <path d="M23.9,9.9c-0.6-0.6-1.3-1-2.1-1c-4-0.2-4.3,4.2-4.4,6.8l0,0.1c-0.1,1.1,0.3,1.8,0.6,2.5c0.4,0.8,0.8,1.7,0.7,3.2c0,0.2,0.1,0.4,0.3,0.4l4.7,0.9c0,0,0.1,0,0.1,0c0.2,0,0.3-0.1,0.4-0.3c0.1-0.4,0.2-0.8,0.3-1.2c0.3-1.3,0.6-2.3,1-5.1C25.4,16.1,25.6,11.9,23.9,9.9z" fill="#4a4a4a" stroke="#4a4a4a" stroke-width="0" transform="scale(0.8) translate(10 10)"/>
    <path d="M23.2,24.6l-4.6-0.9c-0.2,0-0.4,0.1-0.4,0.3l0,0c0,0.1,0,0.1-0.1,0.2c-0.7,2.6-0.8,3.9-0.3,4.7c0.4,0.6,1.1,0.8,1.7,0.9c0.2,0,0.4,0.1,0.6,0.1c2,0,2.7-1.8,3.4-4.8c0-0.1,0-0.2-0.1-0.3C23.4,24.7,23.3,24.6,23.2,24.6z" fill="#4a4a4a" stroke="#4a4a4a" stroke-width="0" transform="scale(0.8) translate(10 10)"/>
  </g>
</svg>
