<?xml version="1.0" encoding="UTF-8"?>
<svg xmlns="http://www.w3.org/2000/svg" xmlns:xlink="http://www.w3.org/1999/xlink" width="32px" height="32px" viewBox="0 0 32 32" x="0px" y="0px" version="1.1">
  <defs>
    <path id="folder-tab" d="M2,5C1.016,5,1,6,1,6v2h12.5l2-3C15.5,5,3,5,2,5z"/>
    <path id="folder-outline" d="M30,4H19l-4,6H2c-1,0-2,0.5-2,1.5v16C0,29,1,30,2,30c0,0,27,0,28,0s2-1,2-2V6C32,5,31,4,30,4zM2,28V12h14l4-6h10v22H2z"/>
    <rect id="maskcanvas" width="32px" height="32px" fill="#ffffff"/>
    <mask id="forbiddenmask">
      <use xlink:href="#maskcanvas"/>
      <path d="M16.25,2.75c-7.168,0-13,5.832-13,13c0,7.168,5.832,13,13,13c7.168,0,13-5.832,13-13C29.25,8.582,23.418,2.75,16.25,2.75zM6.25,15.75c0-5.514,4.486-10,10-10c2.271,0,4.361,0.77,6.041,2.05L8.765,22.359C7.206,20.595,6.25,18.284,6.25,15.75zM16.25,25.75c-2.262,0-4.343-0.764-6.02-2.034L23.752,9.16c1.55,1.762,2.498,4.065,2.498,6.59C26.25,21.264,21.764,25.75,16.25,25.75z" transform="scale(0.7) translate(11 15)" stroke="#000000" stroke-width="3"/>
    </mask>
    <path id="forbidden" d="M16.25,2.75c-7.168,0-13,5.832-13,13c0,7.168,5.832,13,13,13c7.168,0,13-5.832,13-13C29.25,8.582,23.418,2.75,16.25,2.75zM6.25,15.75c0-5.514,4.486-10,10-10c2.271,0,4.361,0.77,6.041,2.05L8.765,22.359C7.206,20.595,6.25,18.284,6.25,15.75zM16.25,25.75c-2.262,0-4.343-0.764-6.02-2.034L23.752,9.16c1.55,1.762,2.498,4.065,2.498,6.59C26.25,21.264,21.764,25.75,16.25,25.75z"/>
  </defs>
  <g>
    <use xlink:href="#folder-outline" fill="#ffffff" stroke="#ffffff" stroke-width="0" style="mask:url(&quot;#forbiddenmask&quot;);"/>
    <use xlink:href="#folder-tab" fill="#ffffff" stroke="#ffffff" stroke-width="0"/>
    <use xlink:href="#forbidden" fill="#ffffff" stroke="#ffffff" stroke-width="0" transform="scale(0.7) translate(11 15)"/>
  </g>
</svg>
