<?xml version="1.0" encoding="UTF-8"?>
<svg xmlns="http://www.w3.org/2000/svg" xmlns:xlink="http://www.w3.org/1999/xlink" width="32px" height="32px" viewBox="0 0 32 32" x="0px" y="0px" version="1.1">
  <defs>
    <path id="folder-tab" d="M2,5C1.016,5,1,6,1,6v2h12.5l2-3C15.5,5,3,5,2,5z"/>
    <path id="folder-outline" d="M30,4H19l-4,6H2c-1,0-2,0.5-2,1.5v16C0,29,1,30,2,30c0,0,27,0,28,0s2-1,2-2V6C32,5,31,4,30,4zM2,28V12h14l4-6h10v22H2z"/>
    <rect id="maskcanvas" width="32px" height="32px" fill="#ffffff"/>
    <mask id="infomask">
      <use xlink:href="#maskcanvas"/>
      <circle cx="16" cy="16" r="15" transform="scale(0.85) translate(7.5 7)" fill="#000000"/>
    </mask>
  </defs>
  <g>
    <use xlink:href="#folder-outline" fill="#ffffff" stroke="#ffffff" stroke-width="0" style="mask:url(&quot;#infomask&quot;);"/>
    <use xlink:href="#folder-tab" fill="#ffffff" stroke="#ffffff" stroke-width="0"/>
    <path d="M16,29.9C8.4,29.9,2.1,23.6,2.1,16C2.1,8.3,8.4,2,16,2C23.7,2,30,8.3,30,16C30,23.6,23.7,29.9,16,29.9zM16,4C9.5,4,4.1,9.4,4.1,16c0,6.6,5.3,11.9,11.9,11.9C22.6,27.9,28,22.5,28,16C28,9.4,22.6,4,16,4z" fill="#ffffff" stroke="#ffffff" stroke-width="0" transform="scale(0.85) translate(7.5 7)"/>
    <path d="M18,23c0,0.553-0.447,1-1,1h-2c-0.552,0-1-0.447-1-1v-9c0-0.552,0.448-1,1-1h2c0.553,0,1,0.448,1,1V23z" fill="#ffffff" stroke="#ffffff" stroke-width="0" transform="scale(0.85) translate(7.5 7)"/>
    <circle cx="16" cy="9.875" r="2" fill="#ffffff" stroke="#ffffff" stroke-width="0" transform="scale(0.85) translate(7.5 7)"/>
  </g>
</svg>
