<?xml version="1.0" encoding="UTF-8"?>
<svg xmlns="http://www.w3.org/2000/svg" xmlns:xlink="http://www.w3.org/1999/xlink" width="32px" height="32px" viewBox="0 0 32 32" x="0px" y="0px" version="1.1">
  <defs>
    <path id="folder-tab" d="M2,5C1.016,5,1,6,1,6v2h12.5l2-3C15.5,5,3,5,2,5z"/>
    <path id="folder-outline" d="M30,4H19l-4,6H2c-1,0-2,0.5-2,1.5v16C0,29,1,30,2,30c0,0,27,0,28,0s2-1,2-2V6C32,5,31,4,30,4zM2,28V12h14l4-6h10v22H2z"/>
    <rect id="maskcanvas" width="32px" height="32px" fill="#ffffff"/>
    <mask id="speech-cloudmask">
      <use xlink:href="#maskcanvas"/>
      <path d="M13.1,29c-0.1,0-0.2,0-0.4-0.1C12.3,28.8,12,28.4,12,28v-4c-4-0.6-7-4.5-7-9c0-4.9,3.7-9,8.3-9h7.4c4.6,0,8.3,4.1,8.3,9c0,4.9-3.7,9-8.3,9h-2.4l-4.5,4.7C13.6,28.9,13.4,29,13.1,29zM13.3,8C9.8,8,7,11.2,7,15c0,3.8,2.7,6.9,6.1,7c0.5,0,0.9,0.5,0.9,1v2.5l3.2-3.2c0.2-0.2,0.4-0.3,0.7-0.3h2.8c3.5,0,6.3-3.1,6.3-7c0-3.9-2.8-7-6.3-7H13.3z" transform="scale(0.8) translate(7 11)" fill="#000000" stroke="#000000" stroke-width="2"/>
    </mask>
    <path id="speech-cloud-outline" d="M13.1,29c-0.1,0-0.2,0-0.4-0.1C12.3,28.8,12,28.4,12,28v-4c-4-0.6-7-4.5-7-9c0-4.9,3.7-9,8.3-9h7.4c4.6,0,8.3,4.1,8.3,9c0,4.9-3.7,9-8.3,9h-2.4l-4.5,4.7C13.6,28.9,13.4,29,13.1,29zM13.3,8C9.8,8,7,11.2,7,15c0,3.8,2.7,6.9,6.1,7c0.5,0,0.9,0.5,0.9,1v2.5l3.2-3.2c0.2-0.2,0.4-0.3,0.7-0.3h2.8c3.5,0,6.3-3.1,6.3-7c0-3.9-2.8-7-6.3-7H13.3z"/>
  </defs>
  <g>
    <use xlink:href="#folder-outline" fill="#ffffff" stroke="#ffffff" stroke-width="0" style="mask:url(&quot;#speech-cloudmask&quot;);"/>
    <use xlink:href="#folder-tab" fill="#ffffff" stroke="#ffffff" stroke-width="0"/>
    <use xlink:href="#speech-cloud-outline" fill="#ffffff" stroke="#ffffff" stroke-width="0" transform="scale(0.8) translate(7 11)"/>
  </g>
</svg>
