<?xml version="1.0" encoding="UTF-8"?>
<svg xmlns="http://www.w3.org/2000/svg" xmlns:xlink="http://www.w3.org/1999/xlink" width="32px" height="32px" viewBox="0 0 32 32" x="0px" y="0px" version="1.1">
  <defs>
    <path id="folder-tab" d="M2,5C1.016,5,1,6,1,6v2h12.5l2-3C15.5,5,3,5,2,5z"/>
    <path id="folder-outline" d="M30,4H19l-4,6H2c-1,0-2,0.5-2,1.5v16C0,29,1,30,2,30c0,0,27,0,28,0s2-1,2-2V6C32,5,31,4,30,4zM2,28V12h14l4-6h10v22H2z"/>
    <rect id="maskcanvas" width="32px" height="32px" fill="#ffffff"/>
    <mask id="lockedmask">
      <use xlink:href="#maskcanvas"/>
      <path d="M26,27c0,2-2,2-2,2H7c-2,0-2-2-2-2V16c0,0,0-2,2-2h17c2,0,2,2,2,2V27z" transform="scale(0.7) translate(13 14)" fill="#000000"/>
      <path d="M25,12h-3V8.363c0-4.079-3.324-7.54-7.398-7.354C10.31,1.205,8,4.587,8,9v3H6c0,0-3,0-3,3v13c0,0,0,3,3,3h19c3,0,3-3,3-3V15C28,15,28,12,25,12zM10,12V8c0-3,2.774-5,5-5c2.226,0,5,2,5,5v4M26,27c0,2-2,2-2,2H7c-2,0-2-2-2-2V16c0,0,0-2,2-2h17c2,0,2,2,2,2V27z" transform="scale(0.7) translate(13 14)" stroke="#000000" stroke-width="4"/>
    </mask>
    <path id="lock-hole" d="M15,17.998C13,17.996,13,19,13,21v5h4v-5C17,19,17,18,15,17.998z"/>
    <path id="lock-outline" d="M25,12h-3V8.363c0-4.079-3.324-7.54-7.398-7.354C10.31,1.205,8,4.587,8,9v3H6c0,0-3,0-3,3v13c0,0,0,3,3,3h19c3,0,3-3,3-3V15C28,15,28,12,25,12zM10,12V8c0-3,2.774-5,5-5c2.226,0,5,2,5,5v4M26,27c0,2-2,2-2,2H7c-2,0-2-2-2-2V16c0,0,0-2,2-2h17c2,0,2,2,2,2V27z"/>
  </defs>
  <g>
    <use xlink:href="#folder-outline" fill="#ffffff" stroke="#ffffff" stroke-width="0" style="mask:url(&quot;#lockedmask&quot;);"/>
    <use xlink:href="#folder-tab" fill="#ffffff" stroke="#ffffff" stroke-width="0"/>
    <use xlink:href="#lock-hole" fill="#ffffff" stroke="#ffffff" stroke-width="0" transform="scale(0.7) translate(13 14)"/>
    <use xlink:href="#lock-outline" fill="#ffffff" stroke="#ffffff" stroke-width="0" transform="scale(0.7) translate(13 14)"/>
  </g>
</svg>
