<?xml version="1.0" encoding="utf-8"?>
<!-- Generator: Adobe Illustrator 25.4.0, SVG Export Plug-In . SVG Version: 6.00 Build 0)  -->
<svg version="1.1" id="Layer_1" xmlns="http://www.w3.org/2000/svg" xmlns:xlink="http://www.w3.org/1999/xlink" x="0px" y="0px"
	 viewBox="0 0 48 48" style="enable-background:new 0 0 48 48;" xml:space="preserve">
<style type="text/css">
	.st0{fill:#4A4A4A;}
</style>
<g>
	<g>
		<path id="folder-outline" class="st0" d="M34,16H23.5c-0.3,0-0.6,0.1-0.9,0.4L19,20H6c-1.1,0-2,0.9-2,2v17.5C4,41,5,42,6,42h28
			c1.1,0,2-0.9,2-2V18C36,16.9,35.1,16,34,16z M6,40V22h13.4c0.4,0,0.7-0.1,0.9-0.4L24,18l0,0h10v22H6z"/>
	</g>
	<g>
		<path id="folder-tab" class="st0" d="M5,16c-1,0-1,1.1-1,1.1V18h14v-2C18,16,6,16,5,16z"/>
	</g>
</g>
<g>
	<g>
		<path class="st0" d="M26,6c0,0-12,0-13,0s-1,1.1-1,1.1V8h14V6z M42,6H31.5c-0.3,0-0.6,0.1-0.9,0.4L27,10H14c-1.1,0-2,0.9-2,2v2h2
			v-2h13.4c0.4,0,0.7-0.1,0.9-0.4L32,8h10v22h-4v2h4c1.1,0,2-0.9,2-2V8C44,6.9,43.1,6,42,6z"/>
	</g>
</g>
</svg>
