<?xml version="1.0" encoding="UTF-8"?>
<svg xmlns="http://www.w3.org/2000/svg" xmlns:xlink="http://www.w3.org/1999/xlink" width="32px" height="32px" viewBox="0 0 32 32" x="0px" y="0px" version="1.1">
  <defs>
    <path id="folder-tab" d="M2,5C1.016,5,1,6,1,6v2h12.5l2-3C15.5,5,3,5,2,5z"/>
    <path id="folder-fill" d="M2,12v16h28V6H20l-4,6H2z" style="fill:url(&quot;#folder-fill-gradient&quot;);"/>
    <path id="folder-outline" d="M30,4H19l-4,6H2c-1,0-2,0.5-2,1.5v16C0,29,1,30,2,30c0,0,27,0,28,0s2-1,2-2V6C32,5,31,4,30,4zM2,28V12h14l4-6h10v22H2z"/>
    <linearGradient id="folder-fill-gradient" gradientUnits="userSpaceOnUse" x1="16" y1="6" x2="16" y2="28">
      <stop offset="0" style="stop-color:#FFFFFF"/>
      <stop offset="1" style="stop-color:#f2f2f2"/>
    </linearGradient>
    <rect id="maskcanvas" width="32px" height="32px" fill="#ffffff"/>
    <mask id="peoplemask">
      <use xlink:href="#maskcanvas"/>
      <path d="M26.5,19.2c0,0-2.5,1.5-4.9,1.6l-0.5,0c-0.6-0.1-1.4-0.4-1.9-0.6c-1.2-0.5-2-1.1-2-1.1c-1.9,1-3.4,2.7-4.4,4.8H1.8c-0.1,0-0.2-0.3-0.2-0.5c0-4,1.8-7.5,4.6-9.1c0.8,0.5,2.4,1.3,4.4,1.3c1.9,0,3.6-0.9,4.4-1.3c0.2,0.1,0.2,0.3,0.4,0.4c-0.1-0.4-0.3-0.7-0.3-1.1c0,0,0,0,0,0c0,0.4,0.3,0.7,0.3,1.1c0.3,2,1.7,3.6,3.4,4.5c0.6,0.3,1.2,0.5,1.9,0.6C21,20,21.4,20,21.8,20c3.5,0,6.3-2.8,6.3-6.3c0-1.3-0.4-2.6-1.1-3.6l0,0c0,0,0,0,0,0c-1.1-1.6-2.8-2.7-4.9-2.7c-3.2,0-6,2.5-6,5.6c0,0,0,0,0,0c-1,0-0.4-0.1-0.5-0.2L15,12.6l-0.2,0.1l-0.2,0l-0.4,0.4c-0.6,0.4-2,1.1-3.6,1.1c-2,0-3.8-1.3-3.8-1.3l-0.4-0.3l-0.5,0.2C2.3,14.6,0,18.7,0,23.4c0,0.9,0.4,1.1,1,1.6l0.7,0.3l10.4,0.1c-0.7,2-0.8,3.2-0.8,5.2c0,0.8,0.8,1.4,0.8,1.4h8l0.8-5.9c-0.4-0.2-0.8-0.6-1-1.1c-0.1-0.3-0.3-0.6-0.3-1c0-0.9,0.2-1.8,1.4-2l0.6-0.1c1.7,0.1,1.9,1.1,1.9,2.1c0,0.9-0.4,1.7-1.2,2l1.2,5.9h7.4c0,0,1.1-0.5,1.1-1.3C32,25.6,30.1,21.1,26.5,19.2zM21.8,9.1c0.9,0,1.7,0.2,2.4,0.7c-0.4,0.1-0.7,0.3-1.1,0.5c-2,0.9-3.4,1.4-4.4,0.1C19.5,9.5,20.6,9.1,21.8,9.1zM17.2,13.7c0-0.7,0.2-1.4,0.5-2.1c0.8,0.8,1.7,1.1,2.6,1.1c1.3,0,2.6-0.6,3.6-1c0.6-0.3,1.6-0.7,1.8-0.6c0.5,0.7,0.8,1.6,0.8,2.6c0,2.6-2.1,4.6-4.6,4.6c-0.6,0-1.2-0.1-1.8-0.4c-1.5-0.6-2.6-2.1-2.8-3.8C17.2,14,17.2,13.9,17.2,13.7z" transform="scale(0.7) translate(12 13)" fill="#000000" stroke="#000000" stroke-width="2"/>
      <path d="M10.6,12.7c3.5,0,6.3-2.8,6.3-6.3c0-1.3-0.4-2.6-1.1-3.6l0,0c0,0,0,0,0,0c-1.1-1.6-3-2.7-5.2-2.7C7.1,0,4.2,2.8,4.2,6.3S7.1,12.7,10.6,12.7zM10.6,1.7c0.9,0,1.7,0.2,2.4,0.7c-0.4,0.1-0.7,0.3-1.1,0.5c-2,0.9-3.4,1.4-4.4,0.1C8.3,2.1,9.4,1.7,10.6,1.7zM6.4,4.3C7.2,5.1,8.1,5.4,9,5.4c1.3,0,2.6-0.6,3.6-1c0.6-0.3,1.6-0.7,1.8-0.6c0.5,0.7,0.8,1.6,0.8,2.6c0,2.6-2.1,4.7-4.7,4.7C8,11,5.9,8.9,5.9,6.3C5.9,5.6,6.1,4.9,6.4,4.3z" transform="scale(0.7) translate(12 13)" fill="#000000" stroke="#000000" stroke-width="2"/>
    </mask>
  </defs>
  <g>
    <use xlink:href="#folder-fill" fill="#ffffff"/>
    <use xlink:href="#folder-outline" fill="#4a4a4a" stroke="#4a4a4a" stroke-width="0" style="mask:url(&quot;#peoplemask&quot;);"/>
    <use xlink:href="#folder-tab" fill="#4a4a4a" stroke="#4a4a4a" stroke-width="0"/>
    <path d="M26.5,19.2c0,0-2.5,1.5-4.9,1.6l-0.5,0c-0.6-0.1-1.4-0.4-1.9-0.6c-1.2-0.5-2-1.1-2-1.1c-1.9,1-3.4,2.7-4.4,4.8H1.8c-0.1,0-0.2-0.3-0.2-0.5c0-4,1.8-7.5,4.6-9.1c0.8,0.5,2.4,1.3,4.4,1.3c1.9,0,3.6-0.9,4.4-1.3c0.2,0.1,0.2,0.3,0.4,0.4c-0.1-0.4-0.3-0.7-0.3-1.1c0,0,0,0,0,0c0,0.4,0.3,0.7,0.3,1.1c0.3,2,1.7,3.6,3.4,4.5c0.6,0.3,1.2,0.5,1.9,0.6C21,20,21.4,20,21.8,20c3.5,0,6.3-2.8,6.3-6.3c0-1.3-0.4-2.6-1.1-3.6l0,0c0,0,0,0,0,0c-1.1-1.6-2.8-2.7-4.9-2.7c-3.2,0-6,2.5-6,5.6c0,0,0,0,0,0c-1,0-0.4-0.1-0.5-0.2L15,12.6l-0.2,0.1l-0.2,0l-0.4,0.4c-0.6,0.4-2,1.1-3.6,1.1c-2,0-3.8-1.3-3.8-1.3l-0.4-0.3l-0.5,0.2C2.3,14.6,0,18.7,0,23.4c0,0.9,0.4,1.1,1,1.6l0.7,0.3l10.4,0.1c-0.7,2-0.8,3.2-0.8,5.2c0,0.8,0.8,1.4,0.8,1.4h8l0.8-5.9c-0.4-0.2-0.8-0.6-1-1.1c-0.1-0.3-0.3-0.6-0.3-1c0-0.9,0.2-1.8,1.4-2l0.6-0.1c1.7,0.1,1.9,1.1,1.9,2.1c0,0.9-0.4,1.7-1.2,2l1.2,5.9h7.4c0,0,1.1-0.5,1.1-1.3C32,25.6,30.1,21.1,26.5,19.2zM21.8,9.1c0.9,0,1.7,0.2,2.4,0.7c-0.4,0.1-0.7,0.3-1.1,0.5c-2,0.9-3.4,1.4-4.4,0.1C19.5,9.5,20.6,9.1,21.8,9.1zM17.2,13.7c0-0.7,0.2-1.4,0.5-2.1c0.8,0.8,1.7,1.1,2.6,1.1c1.3,0,2.6-0.6,3.6-1c0.6-0.3,1.6-0.7,1.8-0.6c0.5,0.7,0.8,1.6,0.8,2.6c0,2.6-2.1,4.6-4.6,4.6c-0.6,0-1.2-0.1-1.8-0.4c-1.5-0.6-2.6-2.1-2.8-3.8C17.2,14,17.2,13.9,17.2,13.7z" fill="#4a4a4a" stroke="#4a4a4a" stroke-width="0" transform="scale(0.7) translate(12 13)"/>
    <path d="M10.6,12.7c3.5,0,6.3-2.8,6.3-6.3c0-1.3-0.4-2.6-1.1-3.6l0,0c0,0,0,0,0,0c-1.1-1.6-3-2.7-5.2-2.7C7.1,0,4.2,2.8,4.2,6.3S7.1,12.7,10.6,12.7zM10.6,1.7c0.9,0,1.7,0.2,2.4,0.7c-0.4,0.1-0.7,0.3-1.1,0.5c-2,0.9-3.4,1.4-4.4,0.1C8.3,2.1,9.4,1.7,10.6,1.7zM6.4,4.3C7.2,5.1,8.1,5.4,9,5.4c1.3,0,2.6-0.6,3.6-1c0.6-0.3,1.6-0.7,1.8-0.6c0.5,0.7,0.8,1.6,0.8,2.6c0,2.6-2.1,4.7-4.7,4.7C8,11,5.9,8.9,5.9,6.3C5.9,5.6,6.1,4.9,6.4,4.3z" fill="#4a4a4a" stroke="#4a4a4a" stroke-width="0" transform="scale(0.7) translate(12 13)"/>
  </g>
</svg>
