<?xml version="1.0" encoding="UTF-8"?>
<svg xmlns="http://www.w3.org/2000/svg" xmlns:xlink="http://www.w3.org/1999/xlink" width="32px" height="32px" viewBox="0 0 32 32" x="0px" y="0px" version="1.1">
  <defs>
    <path id="folder-tab" d="M2,5C1.016,5,1,6,1,6v2h12.5l2-3C15.5,5,3,5,2,5z"/>
    <path id="folder-outline" d="M30,4H19l-4,6H2c-1,0-2,0.5-2,1.5v16C0,29,1,30,2,30c0,0,27,0,28,0s2-1,2-2V6C32,5,31,4,30,4zM2,28V12h14l4-6h10v22H2z"/>
    <rect id="maskcanvas" width="32px" height="32px" fill="#ffffff"/>
    <mask id="personmask">
      <use xlink:href="#maskcanvas"/>
      <path d="M21,16C21.1,16,20.9,16,21,16L21,16zM21.1,16c0,0-2.6,2-5.6,2S10,16,10,16c-4.3,2.3-7,7.5-7,13.5c0,1,1,1.5,1,1.5h23c0,0,1-0.5,1-1.5C28,23.5,25.4,18.3,21.1,16z" transform="scale(0.7) translate(12 14)" fill="#000000" stroke="#000000" stroke-width="2"/>
      <path d="M26.4,31.9H4.6l-0.2-0.1c-0.5-0.3-1.4-1-1.4-2.1c0-5.6,2.7-10.5,7-12.6l0.5-0.3l0.5,0.4c0,0,2.1,1.6,4.5,1.6c1.9,0,3.5-0.9,4.2-1.3l0.5-0.4l0.2,0l0.2-0.1l0.5,0.3c4.3,2.1,6.9,6.9,6.9,12.5c0,1.1-0.9,1.8-1.4,2.1L26.4,31.9zM5.1,30.2h20.7c0.1-0.1,0.3-0.2,0.3-0.4c0-4.8-2.1-8.8-5.5-10.7c-0.9,0.5-2.9,1.6-5.2,1.6c-2.3,0-4.2-1-5.2-1.6c-3.4,1.9-5.5,6-5.5,10.8C4.9,29.9,5,30.1,5.1,30.2z" transform="scale(0.7) translate(12 14)" fill="#000000" stroke="#000000" stroke-width="2"/>
      <path d="M21.7,5.2L21.7,5.2C21.7,5.2,21.6,5.2,21.7,5.2C20.3,3.3,18,2,15.5,2C11.4,2,8,5.4,8,9.5s3.4,7.5,7.5,7.5S23,13.6,23,9.5C23,7.9,22.5,6.4,21.7,5.2zM15.5,4c1,0,2,0.3,2.8,0.8c-0.4,0.2-0.9,0.4-1.3,0.5c-2.4,1.1-4,1.7-5.2,0.1C12.8,4.5,14.1,4,15.5,4zM15.5,15c-3,0-5.5-2.5-5.5-5.5c0-0.9,0.2-1.7,0.6-2.4c0.9,1,2,1.3,3,1.3c1.5,0,3.1-0.7,4.3-1.2c0.7-0.3,1.9-0.8,2.2-0.7c0.6,0.9,1,1.9,1,3.1C21,12.5,18.5,15,15.5,15z" transform="scale(0.7) translate(12 14)" fill="#000000" stroke="#000000" stroke-width="2"/>
    </mask>
    <path id="user-body-outline" d="M26.4,31.9H4.6l-0.2-0.1c-0.5-0.3-1.4-1-1.4-2.1c0-5.6,2.7-10.5,7-12.6l0.5-0.3l0.5,0.4c0,0,2.1,1.6,4.5,1.6c1.9,0,3.5-0.9,4.2-1.3l0.5-0.4l0.2,0l0.2-0.1l0.5,0.3c4.3,2.1,6.9,6.9,6.9,12.5c0,1.1-0.9,1.8-1.4,2.1L26.4,31.9zM5.1,30.2h20.7c0.1-0.1,0.3-0.2,0.3-0.4c0-4.8-2.1-8.8-5.5-10.7c-0.9,0.5-2.9,1.6-5.2,1.6c-2.3,0-4.2-1-5.2-1.6c-3.4,1.9-5.5,6-5.5,10.8C4.9,29.9,5,30.1,5.1,30.2z"/>
    <path id="user-head" d="M21.7,5.2L21.7,5.2C21.7,5.2,21.6,5.2,21.7,5.2C20.3,3.3,18,2,15.5,2C11.4,2,8,5.4,8,9.5s3.4,7.5,7.5,7.5S23,13.6,23,9.5C23,7.9,22.5,6.4,21.7,5.2zM15.5,4c1,0,2,0.3,2.8,0.8c-0.4,0.2-0.9,0.4-1.3,0.5c-2.4,1.1-4,1.7-5.2,0.1C12.8,4.5,14.1,4,15.5,4zM15.5,15c-3,0-5.5-2.5-5.5-5.5c0-0.9,0.2-1.7,0.6-2.4c0.9,1,2,1.3,3,1.3c1.5,0,3.1-0.7,4.3-1.2c0.7-0.3,1.9-0.8,2.2-0.7c0.6,0.9,1,1.9,1,3.1C21,12.5,18.5,15,15.5,15z"/>
  </defs>
  <g>
    <use xlink:href="#folder-outline" fill="#ffffff" stroke="#ffffff" stroke-width="0" style="mask:url(&quot;#personmask&quot;);"/>
    <use xlink:href="#folder-tab" fill="#ffffff" stroke="#ffffff" stroke-width="0"/>
    <use xlink:href="#user-body-outline" fill="#ffffff" stroke="#ffffff" stroke-width="0" transform="scale(0.7) translate(12 14)"/>
    <use xlink:href="#user-head" fill="#ffffff" stroke="#ffffff" stroke-width="0" transform="scale(0.7) translate(12 14)"/>
  </g>
</svg>
