<?xml version="1.0" encoding="UTF-8"?>
<svg xmlns="http://www.w3.org/2000/svg" xmlns:xlink="http://www.w3.org/1999/xlink" width="32px" height="32px" viewBox="0 0 32 32" x="0px" y="0px" version="1.1">
  <defs>
    <path id="folder-tab" d="M2,5C1.016,5,1,6,1,6v2h12.5l2-3C15.5,5,3,5,2,5z"/>
    <path id="folder-fill" d="M2,12v16h28V6H20l-4,6H2z" style="fill:url(&quot;#folder-fill-gradient&quot;);"/>
    <path id="folder-outline" d="M30,4H19l-4,6H2c-1,0-2,0.5-2,1.5v16C0,29,1,30,2,30c0,0,27,0,28,0s2-1,2-2V6C32,5,31,4,30,4zM2,28V12h14l4-6h10v22H2z"/>
    <linearGradient id="folder-fill-gradient" gradientUnits="userSpaceOnUse" x1="16" y1="6" x2="16" y2="28">
      <stop offset="0" style="stop-color:#FFFFFF"/>
      <stop offset="1" style="stop-color:#f2f2f2"/>
    </linearGradient>
    <rect id="maskcanvas" width="32px" height="32px" fill="#ffffff"/>
    <mask id="piechartmask">
      <use xlink:href="#maskcanvas"/>
      <path d="M15.4,18.6C15.4,18.6,15.4,18.6,15.4,18.6L17,5.8C10.1,5,3.9,9.8,3.1,16.7c-0.8,6.8,4,13.1,10.9,13.9c2.1,0.3,4,0,5.9-0.7L15.4,18.6z" transform="scale(0.8) translate(9 9)" fill="#000000" stroke="#000000" stroke-width="4"/>
      <path d="M27.1,13.6c0-0.1-7.5,3.2-10.5,4.5l4.6,11.2c3.6-1.8,6.2-5.3,6.7-9.6C28.1,17.5,27.8,15.5,27.1,13.6z" transform="scale(0.8) translate(9 9)" fill="#000000" stroke="#000000" stroke-width="4"/>
      <path d="M17.6,15.2l1.7-13.3l1,0.1c4.1,0.5,7.7,3.2,9.3,7.1L30,10L17.6,15.2zM21,4.2L20,12l7.3-3.1C26,6.5,23.7,4.8,21,4.2z" transform="scale(0.8) translate(9 9)" fill="#000000" stroke="#000000" stroke-width="4"/>
    </mask>
  </defs>
  <g>
    <use xlink:href="#folder-fill" fill="#ffffff"/>
    <use xlink:href="#folder-outline" fill="#4a4a4a" stroke="#4a4a4a" stroke-width="0" style="mask:url(&quot;#piechartmask&quot;);"/>
    <use xlink:href="#folder-tab" fill="#4a4a4a" stroke="#4a4a4a" stroke-width="0"/>
    <path d="M15.4,18.6C15.4,18.6,15.4,18.6,15.4,18.6L17,5.8C10.1,5,3.9,9.8,3.1,16.7c-0.8,6.8,4,13.1,10.9,13.9c2.1,0.3,4,0,5.9-0.7L15.4,18.6z" fill="#008641" stroke="#4a4a4a" stroke-width="0" transform="scale(0.8) translate(9 9)"/>
    <path d="M27.1,13.6c0-0.1-7.5,3.2-10.5,4.5l4.6,11.2c3.6-1.8,6.2-5.3,6.7-9.6C28.1,17.5,27.8,15.5,27.1,13.6z" fill="#4576EF" stroke="#4a4a4a" stroke-width="0" transform="scale(0.8) translate(9 9)"/>
    <path d="M18,15.3L19.7,2l1,0.1c4.1,0.5,7.7,3.2,9.3,7.1l0.4,0.9L18,15.3z" fill="#EC1C24" stroke="#4a4a4a" stroke-width="0" transform="scale(0.8) translate(9 9)"/>
  </g>
</svg>
