<?xml version="1.0" encoding="UTF-8"?>
<svg xmlns="http://www.w3.org/2000/svg" xmlns:xlink="http://www.w3.org/1999/xlink" width="32px" height="32px" viewBox="0 0 32 32" x="0px" y="0px" version="1.1">
  <defs>
    <path id="folder-tab" d="M2,5C1.016,5,1,6,1,6v2h12.5l2-3C15.5,5,3,5,2,5z"/>
    <path id="folder-outline" d="M30,4H19l-4,6H2c-1,0-2,0.5-2,1.5v16C0,29,1,30,2,30c0,0,27,0,28,0s2-1,2-2V6C32,5,31,4,30,4zM2,28V12h14l4-6h10v22H2z"/>
    <rect id="maskcanvas" width="32px" height="32px" fill="#ffffff"/>
    <mask id="projectsmask"><use xlink:href="#maskcanvas"/><rect x="10" y="8" width="16" height="16" transform="translate(0 6)" fill="#000000" stroke="#000000" stroke-width="2"/>/&gt;<path d="M28,26H8V6h20V26zM10,24h16V8H10V24z" transform="translate(0 6)" fill="#000000" stroke="#000000" stroke-width="2"/></mask>
  </defs>
  <g><use xlink:href="#folder-outline" fill="#ffffff" stroke="#ffffff" stroke-width="0" style="mask:url(&quot;#projectsmask&quot;);"/><use xlink:href="#folder-tab" fill="#ffffff" stroke="#ffffff" stroke-width="0"/>/&gt;<path d="M28,26H8V6h20V26zM10,24h16V8H10V24z" fill="#ffffff" stroke="#ffffff" stroke-width="0" transform="translate(0 6)"/><polygon points="12,10 12,12 12,14 14,14 14,12 20,12 20,14 22,14 22,12 22,10   " fill="#ffffff" stroke="#ffffff" stroke-width="0" transform="translate(0 6)"/><polygon points="15,13 15,14 15,15 15,16 15,17 19,17 19,16 19,15 19,14 19,13 " fill="#ffffff" stroke="#ffffff" stroke-width="0" transform="translate(0 6)"/><polygon points="16,18 14,18 14,22 16,22 16,20 22,20 22,22 24,22 24,20 24,18   " fill="#ffffff" stroke="#ffffff" stroke-width="0" transform="translate(0 6)"/></g>
</svg>
