<?xml version="1.0" encoding="UTF-8"?>
<svg xmlns="http://www.w3.org/2000/svg" xmlns:xlink="http://www.w3.org/1999/xlink" width="32px" height="32px" viewBox="0 0 32 32" x="0px" y="0px" version="1.1">
  <defs>
    <path id="folder-tab" d="M2,5C1.016,5,1,6,1,6v2h12.5l2-3C15.5,5,3,5,2,5z"/>
    <path id="folder-outline" d="M30,4H19l-4,6H2c-1,0-2,0.5-2,1.5v16C0,29,1,30,2,30c0,0,27,0,28,0s2-1,2-2V6C32,5,31,4,30,4zM2,28V12h14l4-6h10v22H2z"/>
    <rect id="maskcanvas" width="32px" height="32px" fill="#ffffff"/>
    <mask id="publicationsmask">
      <use xlink:href="#maskcanvas"/>
      <path d="M30,12l0,17c0,1-1,1-1,1H11c-1,0-1-1-1-1V3c0,0,0-1,1-1h9" transform="scale(0.5) translate(12 32)" fill="#000000"/>
    </mask>
    <mask id="publicationsmask2">
      <use xlink:href="#maskcanvas"/>
      <path d="M30,12l0,17c0,1-1,1-1,1H11c-1,0-1-1-1-1V3c0,0,0-1,1-1h9" transform="translate(-8 6)" fill="#000000"/>
    </mask>
    <path id="file-outline" d="M21,0H10C8,0,8,2,8,2v28c0,0,0,2,2,2h20c2,0,2-2,2-2V11L21,0zM30,29c0,0,0,1-1,1H11c-1,0-1-0.6-1-0.9V3c0,0,0-1,1-1h9l10,10L30,29z"/>
    <path id="file-corner" d="M32,1c0-1-1-1-1-1h-6.2c-0.3,0-0.6,0-0.7,0.3c-0.1,0.3-0.1,0.6,0.2,0.8l6.5,6.1c0.2,0.2,0.6,0.3,0.8,0.2C31.8,7.2,32,6.9,32,6.6"/>
  </defs>
  <g>
    <use xlink:href="#folder-outline" fill="#ffffff" stroke="#ffffff" stroke-width="0" style="mask:url(&quot;#publicationsmask&quot;);"/>
    <use xlink:href="#folder-tab" fill="#ffffff" stroke="#ffffff" stroke-width="0"/>
    <use xlink:href="#file-outline" fill="#ffffff" stroke="#ffffff" stroke-width="0" transform="scale(0.5) translate(20 26)" style="mask:url(&quot;#publicationsmask2&quot;);"/>
    <use xlink:href="#file-corner" fill="#ffffff" stroke="#ffffff" stroke-width="0" transform="scale(0.5) translate(20 26)"/>
    <use xlink:href="#file-outline" fill="#ffffff" stroke="#ffffff" stroke-width="0" transform="scale(0.5) translate(12 32)"/>
    <use xlink:href="#file-corner" fill="#ffffff" stroke="#ffffff" stroke-width="0" transform="scale(0.5) translate(12 32)"/>
  </g>
</svg>
