<?xml version="1.0" encoding="UTF-8"?>
<svg xmlns="http://www.w3.org/2000/svg" xmlns:xlink="http://www.w3.org/1999/xlink" width="32px" height="32px" viewBox="0 0 32 32" x="0px" y="0px" version="1.1">
  <defs/>
  <g>
    <path d="M27,2H7.002C6,2,6,3,6,3v26c0,0,0,1,1,1h20c1,0,1-1,1-1V3C28,3,28,2,27,2zM26,28H8V4h18V28z" fill="#ffffff" stroke="#ffffff" stroke-width="0"/>
    <path d="M23,6h-5h-3h-4c-1,0-1,1-1,1s0,6,0,7s1,1,1,1h12c0,0,1,0,1-1s0-7,0-7S24,6,23,6zM15,7h3v1h-3V7zM23,14H11V7h3v1.427c0,0.301,0.34,0.558,0.641,0.558L18.356,9C18.656,9,19,8.728,19,8.427V7h4V14z" fill="#ffffff" stroke="#ffffff" stroke-width="0"/>
    <path d="M23,17h-5h-3h-4c-1,0-1,1-1,1s0,6,0,7s1,1,1,1h12c0,0,1,0,1-1s0-7,0-7S24,17,23,17zM15,18h3v1h-3V18zM23,25H11v-7h3v1.427c0,0.302,0.34,0.558,0.641,0.558L18.356,20c0.3,0,0.644-0.271,0.644-0.573V18h4V25z" fill="#ffffff" stroke="#ffffff" stroke-width="0"/>
  </g>
</svg>
