<?xml version="1.0" encoding="UTF-8"?>
<svg xmlns="http://www.w3.org/2000/svg" xmlns:xlink="http://www.w3.org/1999/xlink" width="32px" height="32px" viewBox="0 0 32 32" x="0px" y="0px" version="1.1">
  <defs>
    <path id="folder-tab" d="M2,5C1.016,5,1,6,1,6v2h12.5l2-3C15.5,5,3,5,2,5z"/>
    <path id="folder-outline" d="M30,4H19l-4,6H2c-1,0-2,0.5-2,1.5v16C0,29,1,30,2,30c0,0,27,0,28,0s2-1,2-2V6C32,5,31,4,30,4zM2,28V12h14l4-6h10v22H2z"/>
    <rect id="maskcanvas" width="32px" height="32px" fill="#ffffff"/>
    <mask id="savemask">
      <use xlink:href="#maskcanvas"/>
      <path d="M15,27h-2v-5h2V27zM26,27h-5v-7h-9l-1,1v6H7l-1-1V6h2v10l1,1h14l1-1V6h2V27z" transform="scale(0.7) translate(8.5 16)" fill="#000000" stroke="#000000" stroke-width="2"/>
      <path d="M27,4H5C4,4,4,5,4,5v22l2,2h18.1l0,0h2.3c0.8,0,1.5-0.9,1.5-1.7V5C28,5,27.9,4,27,4zM10,6h12v9H10V6zM15,27h-2v-5h2V27zM26,27h-5v-7h-9l-1,1v6H7l-1-1V6h2v10l1,1h14l1-1V6h2V27z" transform="scale(0.7) translate(8.5 16)" fill="#000000" stroke="#000000" stroke-width="2"/>
    </mask>
    <path id="floppy-outline" d="M27,4H5C4,4,4,5,4,5v22l2,2h18.1l0,0h2.3c0.8,0,1.5-0.9,1.5-1.7V5C28,5,27.9,4,27,4zM10,6h12v9H10V6zM15,27h-2v-5h2V27zM26,27h-5v-7h-9l-1,1v6H7l-1-1V6h2v10l1,1h14l1-1V6h2V27z"/>
    <rect id="floppy-label" x="10" y="6" width="12" height="9"/>
  </defs>
  <g>
    <use xlink:href="#folder-outline" fill="#ffffff" stroke="#ffffff" stroke-width="0" style="mask:url(&quot;#savemask&quot;);"/>
    <use xlink:href="#folder-tab" fill="#ffffff" stroke="#ffffff" stroke-width="0"/>
    <use xlink:href="#floppy-outline" fill="#ffffff" stroke="#ffffff" stroke-width="0" transform="scale(0.7) translate(8.5 16)"/>
    <use xlink:href="#floppy-label" transform="scale(0.7) translate(8.5 16)" fill="transparent"/>
  </g>
</svg>
