<?xml version="1.0" encoding="UTF-8"?>
<svg xmlns="http://www.w3.org/2000/svg" xmlns:xlink="http://www.w3.org/1999/xlink" width="32px" height="32px" viewBox="0 0 32 32" x="0px" y="0px" version="1.1">
  <defs>
    <path id="folder-tab" d="M2,5C1.016,5,1,6,1,6v2h12.5l2-3C15.5,5,3,5,2,5z"/>
    <path id="folder-outline" d="M30,4H19l-4,6H2c-1,0-2,0.5-2,1.5v16C0,29,1,30,2,30c0,0,27,0,28,0s2-1,2-2V6C32,5,31,4,30,4zM2,28V12h14l4-6h10v22H2z"/>
    <rect id="maskcanvas" width="32px" height="32px" fill="#ffffff"/>
    <mask id="searchmask">
      <use xlink:href="#maskcanvas"/>
      <path d="M25.647,25.127l-5.209-6.939h-0.376l-0.379,0.379l-0.556-0.768c1.235-1.253,1.999-2.97,1.999-4.865C21.127,9.111,18.018,6,14.193,6c-3.824,0-6.934,3.111-6.934,6.934c0,3.824,3.11,6.935,6.934,6.935c1.133,0,2.2-0.279,3.146-0.763l0.693,0.79l-0.418,0.419v0.198c0,0,5.131,6.441,5.449,6.76c0.316,0.318,1.032,0.199,1.032,0.199s1.035-0.598,1.551-1.114C26.165,25.842,25.647,25.127,25.647,25.127zM9.708,12.934c0-2.472,2.012-4.485,4.485-4.485c2.473,0,4.484,2.013,4.484,4.485c0,2.474-2.012,4.486-4.484,4.486C11.72,17.42,9.708,15.408,9.708,12.934z" fill="#ffffff" stroke="#000000" stroke-width="2" transform="translate(35 2) rotate(80)"/>
    </mask>
    <path id="magnifying-glass" d="M25.647,25.127l-5.209-6.939h-0.376l-0.379,0.379l-0.556-0.768c1.235-1.253,1.999-2.97,1.999-4.865C21.127,9.111,18.018,6,14.193,6c-3.824,0-6.934,3.111-6.934,6.934c0,3.824,3.11,6.935,6.934,6.935c1.133,0,2.2-0.279,3.146-0.763l0.693,0.79l-0.418,0.419v0.198c0,0,5.131,6.441,5.449,6.76c0.316,0.318,1.032,0.199,1.032,0.199s1.035-0.598,1.551-1.114C26.165,25.842,25.647,25.127,25.647,25.127zM9.708,12.934c0-2.472,2.012-4.485,4.485-4.485c2.473,0,4.484,2.013,4.484,4.485c0,2.474-2.012,4.486-4.484,4.486C11.72,17.42,9.708,15.408,9.708,12.934z"/>
  </defs>
  <g>
    <use xlink:href="#folder-outline" fill="#ffffff" stroke="#ffffff" stroke-width="0" style="mask:url(&quot;#searchmask&quot;);"/>
    <use xlink:href="#folder-tab" fill="#ffffff" stroke="#ffffff" stroke-width="0"/>
    <use xlink:href="#magnifying-glass" fill="#ffffff" stroke="#ffffff" stroke-width="0" transform="translate(35 2) rotate(80)"/>
  </g>
</svg>
