<?xml version="1.0" encoding="UTF-8"?>
<!-- Generator: Adobe Illustrator 19.2.1, SVG Export Plug-In . SVG Version: 6.00 Build 0)  -->
<svg xmlns="http://www.w3.org/2000/svg" xmlns:xlink="http://www.w3.org/1999/xlink" version="1.1" id="Layer_1" x="0px" y="0px" viewBox="0 0 48 48" style="enable-background:new 0 0 48 48;" xml:space="preserve">
<style type="text/css">
	.st0{fill:#F3F3F3;}
	.st1{display:none;}
	.st2{display:inline;fill:url(#SVGID_1_);}
	.st3{display:inline;}
	.st4{fill:#4A4A4A;}
	.st5{display:inline;fill:#4A4A4A;}
	.st6{fill:#1C8BE9;}
	.st7{fill:#4576EF;}
</style>
<ellipse class="st0" cx="24" cy="24" rx="17.8" ry="18.9"/>
<g id="Layer_1_2_">



</g>
<g id="Layer_2">
	<g>
		<path id="earth-fill" class="st7" d="M24,42.3c-5,0-9.6-2.1-12.7-5.6c0.1-0.3,1-2.9,1.5-4c0.7-1.2,0.9-1.3,2.2-2.6    c1.4-1.2-2.7-1.8-3.7-2.8c-0.9-1-1.4-1-2.5-1.9c-0.9-0.7-1.3,2.2-1.5,3.7c-0.3-1.3-0.5-2.7-0.5-4.1c0-3.7,1.2-7,3-9.8    c-0.5,1.7-1.1,4.1,1.1,3.5c2.3-0.8,2.5-1.8,2.5-1.8l1.4-2.3c0,0,0.2,3.4,0.4,3.8c0.3,0.4,1.4,1.9,1.7-0.1c0.8-3.6,0.9-4.6,2.2-4.6    c1.3,0,4-1,4.2,2.1c0.3,3.1-0.3,1.3-2,2.1c-1.7,0.8-2.2,3.7-0.5,4c1.6,0.3,5.1,1.8,5.1,1.8l1.7,2l0.5,2.1c0,0,0.3,2.3,0.3,2.6    s0,2.2,0,2.2s0.1,4.4,1.6,3.2c1.6-1,5.9-7.7,5-10.3c-0.9-2.6-1-2.8,0.7-3.7c1.6-0.9,2.8-2,2.7-3.2c0-0.9,0-1.3,0-2    c1.3,2.5,2.1,5.3,2.1,8.2C41.2,34.6,33.5,42.3,24,42.3z"/>
	</g>
	<path class="st4" d="M24,4C13,4,4,13,4,24s9,20,20,20s20-9,20-20S35,4,24,4z M24,40.7c-9.2,0-16.7-7.5-16.7-16.7S14.8,7.3,24,7.3   S40.7,14.8,40.7,24S33.2,40.7,24,40.7z"/>
</g>
</svg>
