<?xml version="1.0" encoding="utf-8"?>
<!-- Generator: Adobe Illustrator 19.2.1, SVG Export Plug-In . SVG Version: 6.00 Build 0)  -->
<svg version="1.1" id="Layer_1" xmlns="http://www.w3.org/2000/svg" xmlns:xlink="http://www.w3.org/1999/xlink" x="0px" y="0px"
	 viewBox="0 0 32 32" style="enable-background:new 0 0 32 32;" xml:space="preserve">
<style type="text/css">
	.st0{fill:#F3F3F3;}
	.st1{fill:#4576EF;}
	.st2{fill:#4A4A4A;}
</style>
<circle class="st0" cx="16" cy="16" r="15"/>
<g id="Layer_2">
	<g>
		<path id="earth-fill" class="st1" d="M16,28.8c-3.5,0-6.7-1.5-8.9-3.9c0.1-0.2,0.7-2,1.1-2.8c0.5-0.9,0.6-0.9,1.5-1.8
			c1-0.9-1.9-1.3-2.6-2c-0.6-0.7-1-0.7-1.8-1.3c-0.6-0.5-0.9,1.6-1.1,2.6c-0.2-0.9-0.4-1.9-0.4-2.9c0-2.6,0.8-4.9,2.1-6.9
			c-0.4,1.2-0.8,2.9,0.8,2.4C8.4,11.7,8.5,11,8.5,11l1-1.6c0,0,0.2,2.3,0.3,2.7c0.2,0.3,1,1.3,1.2-0.1c0.5-2.5,0.6-3.2,1.5-3.2
			c0.9,0,2.8-0.7,3,1.5c0.2,2.2-0.2,0.9-1.4,1.5c-1.2,0.5-1.5,2.6-0.4,2.8c1.1,0.2,3.6,1.3,3.6,1.3l1.2,1.4l0.4,1.5
			c0,0,0.2,1.6,0.2,1.8c0,0.2,0,1.6,0,1.6s0.1,3.1,1.1,2.3c1.1-0.7,4.1-5.4,3.5-7.2c-0.6-1.8-0.7-2,0.5-2.6c1.1-0.6,2-1.4,1.9-2.3
			c0-0.6,0-0.9,0-1.4c0.9,1.7,1.4,3.7,1.4,5.7C28,23.4,22.6,28.8,16,28.8z"/>
	</g>
	<path class="st2" d="M16,1C7.7,1,1,7.7,1,16s6.7,15,15,15s15-6.7,15-15S24.3,1,16,1z M16,29C9.1,29,3,22.9,3,16S9.1,3,16,3
		s13,6.1,13,13S22.9,29,16,29z"/>
</g>
</svg>
