<?xml version="1.0" encoding="utf-8"?>
<!-- Generator: Adobe Illustrator 25.2.1, SVG Export Plug-In . SVG Version: 6.00 Build 0)  -->
<svg version="1.1" id="Layer_1" xmlns="http://www.w3.org/2000/svg" xmlns:xlink="http://www.w3.org/1999/xlink" x="0px" y="0px"
	 viewBox="0 0 48 48" style="enable-background:new 0 0 48 48;" xml:space="preserve">
<style type="text/css">
	.st0{fill:#F3F3F3;}
</style>
<g>
	<g>
		<path id="folder-outline" class="st0" d="M45,4H30l-8,8H0v29.2C0,42.9,1.1,44,3,44c0,0,40.5,0,42,0s3-1.4,3-2.9V7
			C48,5.5,46.5,4,45,4z M4,40V16h20l8-8h12v32H4z"/>
	</g>
</g>
<path class="st0" d="M2,4L2,4C0.9,4,0,4.9,0,6v2h20l4-4H2z"/>
<g>
	<path class="st0" d="M13.7,18C10.6,18,8,20.3,8,23s2.6,5,5.7,5s5.7-2.3,5.7-5S16.9,18,13.7,18z M13.7,25.5c-1.6,0-2.9-1.1-2.9-2.5
		s1.3-2.5,2.9-2.5s2.9,1.1,2.9,2.5C16.6,24.4,15.3,25.5,13.7,25.5z"/>
	<path class="st0" d="M13.7,27.9c-3.2,0-5.7,2.3-5.7,5s2.6,5,5.7,5s5.7-2.3,5.7-5S16.9,27.9,13.7,27.9z M13.7,35.5
		c-1.6,0-2.9-1.1-2.9-2.5c0-1.4,1.3-2.5,2.9-2.5s2.9,1.1,2.9,2.5C16.6,34.4,15.3,35.5,13.7,35.5z"/>
	<path class="st0" d="M35.8,21.4l-18.6,9.4l-1.4-2.1l7-3.6c1.9-1,3.9-1.8,6-2.3l6.7-1.9C35.9,20.8,36.2,21.3,35.8,21.4z"/>
	<path class="st0" d="M35.8,34.9l-18.6-9.4l-1.4,2.1l7,3.6c1.9,1,3.9,1.8,6,2.3l6.7,1.9C35.9,35.4,36.2,35,35.8,34.9z"/>
</g>
</svg>
