<?xml version="1.0" encoding="UTF-8"?>
<svg xmlns="http://www.w3.org/2000/svg" xmlns:xlink="http://www.w3.org/1999/xlink" width="32px" height="32px" viewBox="0 0 32 32" x="0px" y="0px" version="1.1">
  <defs>
    <path id="folder-tab" d="M2,5C1.016,5,1,6,1,6v2h12.5l2-3C15.5,5,3,5,2,5z"/>
    <path id="folder-outline" d="M30,4H19l-4,6H2c-1,0-2,0.5-2,1.5v16C0,29,1,30,2,30c0,0,27,0,28,0s2-1,2-2V6C32,5,31,4,30,4zM2,28V12h14l4-6h10v22H2z"/>
    <rect id="maskcanvas" width="32px" height="32px" fill="#ffffff"/>
    <mask id="starmask">
      <use xlink:href="#maskcanvas"/>
      <path d="M26.354,13.584l-5.81,4.358l2.111,6.902c0.083,0.266-0.015,0.556-0.24,0.72c-0.115,0.086-0.253,0.129-0.391,0.129c-0.128,0-0.259-0.038-0.371-0.116l-5.992-4.127l-5.99,4.127c-0.228,0.157-0.535,0.154-0.761-0.013c-0.226-0.164-0.322-0.454-0.24-0.72l2.11-6.902l-5.808-4.358c-0.223-0.168-0.317-0.459-0.231-0.727c0.086-0.268,0.331-0.451,0.613-0.457l7.294-0.146l2.394-6.815C15.136,5.175,15.383,5,15.661,5c0.28,0,0.53,0.175,0.622,0.439l2.394,6.815l7.293,0.146c0.281,0.006,0.528,0.189,0.615,0.457C26.668,13.125,26.576,13.417,26.354,13.584z" fill="#ffffff" stroke="#000000" stroke-width="4" transform="translate(4.5 5)"/>
    </mask>
    <path id="star-outline" d="M22.024,26.693c-0.339,0-0.664-0.103-0.942-0.295l-5.421-3.734L10.239,26.4c-0.568,0.392-1.365,0.38-1.922-0.031c-0.565-0.411-0.809-1.144-0.602-1.818l1.905-6.229l-5.247-3.937c-0.566-0.426-0.8-1.163-0.583-1.834c0.215-0.67,0.835-1.133,1.542-1.148l6.603-0.133l2.164-6.161C14.333,4.444,14.961,4,15.661,4c0.706,0,1.335,0.446,1.566,1.11l2.163,6.158l6.6,0.132c0.708,0.016,1.328,0.478,1.546,1.148c0.212,0.682-0.023,1.414-0.58,1.834l-5.251,3.938l1.906,6.23c0.209,0.67-0.034,1.404-0.608,1.821C22.729,26.577,22.379,26.693,22.024,26.693zM15.661,20.236l5.75,3.96l-2.028-6.633l5.576-4.183l-6.996-0.141l-2.3-6.55l-2.301,6.55l-6.995,0.141l5.575,4.183l-2.028,6.632L15.661,20.236z"/>
  </defs>
  <g>
    <use xlink:href="#folder-outline" fill="#ffffff" stroke="#ffffff" stroke-width="0" style="mask:url(&quot;#starmask&quot;);"/>
    <use xlink:href="#folder-tab" fill="#ffffff" stroke="#ffffff" stroke-width="0"/>
    <use xlink:href="#star-outline" fill="#ffffff" stroke="#ffffff" stroke-width="0" transform="translate(4.5 5)"/>
  </g>
</svg>
