<?xml version="1.0" encoding="UTF-8"?>
<svg xmlns="http://www.w3.org/2000/svg" xmlns:xlink="http://www.w3.org/1999/xlink" width="32px" height="32px" viewBox="0 0 32 32" x="0px" y="0px" version="1.1">
  <defs>
    <path id="folder-tab" d="M2,5C1.016,5,1,6,1,6v2h12.5l2-3C15.5,5,3,5,2,5z"/>
    <path id="folder-fill" d="M2,12v16h28V6H20l-4,6H2z" style="fill:url(&quot;#folder-fill-gradient&quot;);"/>
    <path id="folder-outline" d="M30,4H19l-4,6H2c-1,0-2,0.5-2,1.5v16C0,29,1,30,2,30c0,0,27,0,28,0s2-1,2-2V6C32,5,31,4,30,4zM2,28V12h14l4-6h10v22H2z"/>
    <linearGradient id="folder-fill-gradient" gradientUnits="userSpaceOnUse" x1="16" y1="6" x2="16" y2="28">
      <stop offset="0" style="stop-color:#FFFFFF"/>
      <stop offset="1" style="stop-color:#f2f2f2"/>
    </linearGradient>
    <rect id="maskcanvas" width="32px" height="32px" fill="#ffffff"/>
    <mask id="targetmask">
      <use xlink:href="#maskcanvas"/>
      <circle cx="16" cy="16" r="15" transform="scale(0.8) translate(6 10)" fill="#000000"/>
    </mask>
  </defs>
  <g>
    <use xlink:href="#folder-fill" fill="#ffffff"/>
    <use xlink:href="#folder-outline" fill="#4a4a4a" stroke="#4a4a4a" stroke-width="0" style="mask:url(&quot;#targetmask&quot;);"/>
    <use xlink:href="#folder-tab" fill="#4a4a4a" stroke="#4a4a4a" stroke-width="0"/>
    <circle cx="14.9" cy="16" r="12.9" fill="#ffffff" transform="scale(0.8) translate(6 10)"/>
    <path d="M16,29.9C8.4,29.9,2.1,23.6,2.1,16C2.1,8.3,8.4,2,16,2C23.7,2,30,8.3,30,16C30,23.6,23.7,29.9,16,29.9zM16,4C9.5,4,4.1,9.4,4.1,16c0,6.6,5.3,11.9,11.9,11.9C22.6,27.9,28,22.5,28,16C28,9.4,22.6,4,16,4z" fill="#d3241e" stroke="#4a4a4a" stroke-width="0" transform="scale(0.8) translate(6 10)"/>
    <path d="M16,23.1c-4,0-7.2-3.2-7.2-7.2c0-4,3.2-7.2,7.2-7.2s7.2,3.2,7.2,7.2C23.2,19.9,20,23.1,16,23.1zM16,10.8c-2.9,0-5.2,2.3-5.2,5.2s2.3,5.2,5.2,5.2c2.9,0,5.2-2.3,5.2-5.2S18.9,10.8,16,10.8z" fill="#d3241e" stroke="#4a4a4a" stroke-width="0" transform="scale(0.8) translate(6 10)"/>
    <path d="M16,17.5c-0.9,0-1.6-0.7-1.6-1.6s0.7-1.6,1.6-1.6c0.9,0,1.6,0.7,1.6,1.6S16.9,17.5,16,17.5zM16,15.5c-0.2,0-0.4,0.2-0.4,0.4s0.2,0.4,0.4,0.4s0.4-0.2,0.4-0.4S16.3,15.5,16,15.5z" fill="#d3241e" stroke="#4a4a4a" stroke-width="0" transform="scale(0.8) translate(6 10)"/>
  </g>
</svg>
