<?xml version="1.0" encoding="UTF-8"?>
<!-- Generator: Adobe Illustrator 19.2.1, SVG Export Plug-In . SVG Version: 6.00 Build 0)  -->
<svg xmlns="http://www.w3.org/2000/svg" xmlns:xlink="http://www.w3.org/1999/xlink" version="1.1" x="0px" y="0px" viewBox="0 0 32 32" style="enable-background:new 0 0 32 32;" xml:space="preserve">
<style type="text/css">
	.st0{display:none;}
	.st1{display:inline;}
	.st2{fill:#4A4A4A;}
</style>

<g id="Layer_2">
	<g>
		<path class="st2" d="M16,18c4.4,0,8-3.6,8-8s-3.6-8-8-8s-8,3.6-8,8S11.6,18,16,18z M16.2,4.1c3.1,0,5.7,2.6,5.7,5.7    s-2.6,5.7-5.7,5.7s-5.7-2.6-5.7-5.7S13,4.1,16.2,4.1z"/>
		<g>
			<g>
				<path class="st2" d="M27.7,23.2C26.5,20.3,23.8,20,22,19c-1.4,1.4-4,2-6,2c-2,0-4.6-0.7-6-2c-1.8,1-4.2,1.5-5.6,4.2      c-0.2,0.5-0.3,1-0.2,1.5L5,32h21.8l1.1-7.2C28,24.2,27.9,23.7,27.7,23.2z M26,24.9L25,30H7l-1-5.2c-0.1-0.3,0-0.6,0.2-0.9      c1.2-1.6,3.3-1.9,4.7-2.5c1.2,0.8,3.4,1.2,5,1.2c1.7,0,3.9-0.4,5-1.2c1.5,0.6,3.8,0.8,4.8,2.5C26,24.2,26,24.5,26,24.9z"/>
			</g>
		</g>
		<polygon class="st2" points="18,25 17,30 15,30 14,25 16,21   "/>
	</g>
</g>
</svg>
