<?xml version="1.0" encoding="UTF-8"?>
<svg xmlns="http://www.w3.org/2000/svg" xmlns:xlink="http://www.w3.org/1999/xlink" width="32px" height="32px" viewBox="0 0 32 32" x="0px" y="0px" version="1.1">
  <defs/>
  <g>
    <path d="M16.3,11.8c0.1,3.1-0.5,5.6-1.9,7.7c-0.5,0.8-1.1,1.4-1.8,2C11,22.9,9.3,23,7.5,22.1c-1.6-0.9-2.8-2.2-3.7-3.7c-1-1.7-1.5-3.6-1.7-5.6C2,11.2,1.8,9.6,1.7,8.1C1.6,7,2.1,6.2,3,6c0.3-0.1,0.6,0,0.8,0c3.3,0.7,6.6,0.4,9.7-0.9c0.9-0.4,2,0.2,2.3,1.1c0.1,0.3,0.1,0.6,0.1,0.9C16.1,8.9,16.2,10.7,16.3,11.8zM13.2,15.7c-1.3,2-5.7,2.4-7.3,0.6C6,17,6.2,17.6,6.7,18.1c1.6,1.7,4.7,1.5,6-0.4C13.1,17.1,13.3,16.5,13.2,15.7zM12.6,10.4c0,0-0.3-0.1-0.3-0.1c-0.5,0-1,0.1-1.4,0.5c-0.4,0.4-0.3,0.8,0.1,1.2c0.6,0.5,1.9,0.4,2.4-0.2c0.3-0.4,0.3-0.9-0.1-1.1C13,10.5,12.9,10.5,12.6,10.4zM6.1,12.8c0.4,0,0.9-0.1,1.3-0.5c0.3-0.3,0.3-0.8-0.1-1.1c-0.6-0.5-2-0.4-2.5,0.2c-0.3,0.4-0.3,0.8,0.1,1.1C5.3,12.7,5.6,12.8,6.1,12.8z" fill="#4a4a4a" stroke="#4a4a4a" stroke-width="0"/>
    <path d="M15.1,20.1c0.2,0.7,0.4,1.5,0.7,2.2c0.5,1.3,1.2,2.5,2.2,3.5c1.8,1.7,3.7,1.9,5.7,0.4c1.6-1.2,2.7-2.8,3.5-4.7c0.5-1.3,0.8-2.7,0.9-4.1c0.1-1.4,0.2-2.7,0.4-4.1c0.1-0.8-0.2-1.3-0.8-1.6c-0.1-0.1-0.3-0.1-0.5,0c-1.5,0.3-3,0.5-4.6,0.4c-1.9-0.1-3.6-0.6-5.3-1.2c-0.1,0-0.2-0.1-0.2-0.2c0-0.2,0-0.5-0.1-0.8c0.1,0,0.2,0.1,0.3,0.1c1.5,0.6,3.1,1,4.7,1.2c1.3,0.1,2.6,0,3.9-0.2c0.4-0.1,0.8-0.2,1.2-0.2c0.3,0,0.6,0.1,0.9,0.2c0.8,0.4,1.4,1.2,1.3,2.1c-0.1,1.2-0.2,2.3-0.3,3.5c-0.1,1.1-0.2,2.3-0.5,3.4c-0.6,2.6-1.9,4.9-4,6.6c-0.9,0.7-1.8,1.2-3,1.4c-1.4,0.2-2.6-0.3-3.7-1.2c-1.5-1.2-2.4-2.8-3-4.6c-0.1-0.4-0.2-0.8-0.3-1.2c0-0.1,0-0.3,0.1-0.4C14.8,20.5,15,20.3,15.1,20.1z" fill="#4a4a4a" stroke="#4a4a4a" stroke-width="0"/>
    <path d="M24.6,23.7c-1.2-1.9-5.4-2.2-6.9-0.6c0.1-0.7,0.3-1.2,0.8-1.6c1.2-1.3,3.5-1.4,4.9-0.3c0.6,0.5,1,1.1,1.2,1.8C24.5,23.2,24.5,23.4,24.6,23.7z" fill="#4a4a4a" stroke="#4a4a4a" stroke-width="0"/>
    <path d="M18.9,17.5c-0.5-0.1-0.9-0.2-1.2-0.4c-0.5-0.4-0.4-0.9,0.1-1.3c0.6-0.3,1.6-0.3,2.1,0.2c0.5,0.4,0.5,1-0.1,1.3C19.5,17.4,19.2,17.4,18.9,17.5z" fill="#4a4a4a" stroke="#4a4a4a" stroke-width="0"/>
    <path d="M24.7,18c-0.5,0-0.9-0.2-1.2-0.4c-0.5-0.4-0.4-1,0.1-1.3c0.6-0.3,1.6-0.3,2.1,0.2c0.5,0.4,0.5,1-0.1,1.3C25.3,17.9,25,17.9,24.7,18z" fill="#4a4a4a" stroke="#4a4a4a" stroke-width="0"/>
  </g>
</svg>
