<?xml version="1.0" encoding="utf-8"?>
<!-- Generator: Adobe Illustrator 24.1.2, SVG Export Plug-In . SVG Version: 6.00 Build 0)  -->
<svg version="1.1" id="Layer_1" xmlns="http://www.w3.org/2000/svg" xmlns:xlink="http://www.w3.org/1999/xlink" x="0px" y="0px"
	 viewBox="0 0 48 48" style="enable-background:new 0 0 48 48;" xml:space="preserve">
<style type="text/css">
	.st0{fill:#F9D93D;}
	.st1{fill:none;}
	.st2{fill:#4A4A4A;}
	.st3{fill:#FFFFFF;}
	.st4{fill:#FF7B7B;}
</style>
<g id="Layer_4_3_">
	<path class="st0" d="M39,29c-4.1,4.1-7,4-7,4V12c-10.1,0-13,1-13,1V7h22v13C41,20,40.6,27.4,39,29z"/>
</g>
<g id="Layer_2_1_">
	<path class="st1" d="M39,8c0,0-5,1-9,1s-9-1-9-1c-0.6,0-1.1,0.5-1.1,1.1c0,2.3,0.1,8.2,0.1,10.9c0,10,6.1,12,10,12
		c3.7,0,9.9-1.8,10-11c0-3,0-9.5,0-12C40,8.4,39.6,8,39,8z M22,16c0-1.1,1.3-2,3-2s3,0.9,3,2s-1.3,2-3,2S22,17.1,22,16z M30,29
		c-5,0-6-5-6-5s4.5,2,6,2c3,0,6-2,6-2S35,29,30,29z M35,18c-1.7,0-3-0.9-3-2s1.3-2,3-2s3,0.9,3,2S36.7,18,35,18z"/>
	<ellipse class="st2" cx="35" cy="16" rx="3" ry="2"/>
	<g>
		<g>
			<path class="st2" d="M40,6c0,0-6.9,1-10,1c-3,0-10-1-10-1c-1.1,0-2,0.9-2,2c0,1.3,0,3.1,0,4.9c0.7,0.1,1.4,0.1,1.9,0.1
				c0-1.6,0-3,0-3.9C19.9,8.5,20.4,8,21,8c0,0,5,1,9,1s9-1,9-1c0.6,0,1,0.4,1,1c0,2.5,0,9,0,12c-0.1,8.1-4.9,10.5-8.6,10.9
				c-0.2,0.8-0.5,1.4-0.8,2.1C35.1,33.8,42,31.6,42,21V8C42,6.9,41.1,6,40,6z"/>
		</g>
	</g>
	<g>
		<g>
			<path class="st2" d="M32,25.7V28c0,0.2,0,0.5,0,0.7c3.3-1.1,4-4.7,4-4.7S34.2,25.2,32,25.7z"/>
		</g>
	</g>
</g>
<g id="Layer_1_1_">
	<g id="Layer_5">
		<path class="st3" d="M18,41c0,0,10.4,0.7,11-12c0.2-3.5,0-14,0-14H18V41z"/>
		<path class="st4" d="M18,41c0,0-10.4,0.7-11-12c-0.2-3.5,0-14,0-14h11V41z"/>
	</g>
	<g id="Layer_4">
		<g>
			<g>
				<path class="st2" d="M28,14c0,0-6.9,1-10,1c-3,0-10-1-10-1c-1.1,0-2,0.9-2,2c0,3.2,0,9.5,0,12c0,12,7.4,14,12,14
					c4.4,0,12-1.9,12-13V16C30,14.9,29.1,14,28,14z M28,29c-0.1,9.2-6.3,11-10,11c-3.9,0-10-2-10-12c0-2.7-0.1-8.6-0.1-10.9
					C7.9,16.5,8.4,16,9,16c0,0,5,1,9,1s9-1,9-1c0.6,0,1,0.4,1,1C28,19.5,28,26,28,29z"/>
			</g>
		</g>
		<path class="st2" d="M24,32c0,0-1,5-6,5s-6-5-6-5s4.5,2,6,2C21,34,24,32,24,32z"/>
		<ellipse class="st2" cx="13" cy="24" rx="3" ry="2"/>
		<ellipse class="st2" cx="23" cy="24" rx="3" ry="2"/>
	</g>
</g>
</svg>
