<?xml version="1.0" encoding="utf-8"?>
<!-- Generator: Adobe Illustrator 24.1.2, SVG Export Plug-In . SVG Version: 6.00 Build 0)  -->
<svg version="1.1" id="Layer_1" xmlns="http://www.w3.org/2000/svg" xmlns:xlink="http://www.w3.org/1999/xlink" x="0px" y="0px"
	 viewBox="0 0 48 48" style="enable-background:new 0 0 48 48;" xml:space="preserve">
<style type="text/css">
	.st0{fill:#F3F3F3;}
</style>
<path class="st0" d="M12.3,27.7c0,0,4,1.8,5.7,2V11H7c0,0-0.2,10.5,0,14c0.6,12.7,11,12,11,12v-4.4C13.3,32.5,12.3,27.7,12.3,27.7z
	 M10.3,19.7c0-1.1,1.3-2,3-2s3,0.9,3,2c0,1.1-1.3,2-3,2S10.3,20.8,10.3,19.7z"/>
<g id="Layer_4_3_">
</g>
<g id="Layer_1_1_">
	<g id="Layer_4">
		<g>
			<g>
				<path class="st0" d="M28,10c0,0-6.9,0-10,0c-3,0-10,0-10,0c-1.1,0-2,0.9-2,2c0,3.2,0,9.5,0,12c0,12,7.4,14,12,14
					c4.4,0,12-1.9,12-13V12C30,10.9,29.1,10,28,10z M28,25c-0.1,9.2-6.3,11-10,11c-3.9,0-10-2-10-12c0-2.7-0.1-8.6-0.1-10.9
					C7.9,12.5,8.4,12,9,12c0,0,5,0,9,0s9,0,9,0c0.6,0,1,0.4,1,1C28,15.5,28,22,28,25z"/>
			</g>
		</g>
		<path class="st0" d="M24,28c0,0-1,5-6,5c-0.1,0-0.2-3,0-3C21,30,24,28,24,28z"/>
		<ellipse class="st0" cx="23" cy="20" rx="3" ry="2"/>
	</g>
</g>
</svg>
