<?xml version="1.0" encoding="UTF-8"?>
<!-- Generator: Adobe Illustrator 19.2.1, SVG Export Plug-In . SVG Version: 6.00 Build 0)  -->
<svg xmlns="http://www.w3.org/2000/svg" xmlns:xlink="http://www.w3.org/1999/xlink" version="1.1" x="0px" y="0px" viewBox="0 0 32 32" style="enable-background:new 0 0 32 32;" xml:space="preserve">
<style type="text/css">
	.st0{display:none;}
	.st1{display:inline;fill:#FFFFFF;}
	.st2{display:inline;fill:#CE0000;}
	.st3{fill:#F3F3F3;}
</style>

<g id="Layer_4">
	<g>
		<g>
			<path class="st3" d="M26,2c0,0-6.9,1-10,1C13,3,6,2,6,2C4.9,2,4,2.9,4,4c0,3.2,0,9.5,0,12c0,12,7.4,14,12,14c4.4,0,12-1.9,12-13     V4C28,2.9,27.1,2,26,2z M26,17c-0.1,9.2-6.3,11-10,11c-3.9,0-10-2-10-12c0-2.7-0.1-8.6-0.1-10.9C5.9,4.5,6.4,4,7,4c0,0,5,1,9,1     s9-1,9-1c0.6,0,1,0.4,1,1C26,7.5,26,14,26,17z"/>
		</g>
	</g>
	<path class="st3" d="M22,20c0,0-1,5-6,5c-5,0-6-5-6-5s4.5,2,6,2C19,22,22,20,22,20z"/>
	<ellipse class="st3" cx="11" cy="12" rx="3" ry="2"/>
	<ellipse class="st3" cx="21" cy="12" rx="3" ry="2"/>
</g>
</svg>
