<?xml version="1.0" encoding="UTF-8"?>
<!-- Generator: Adobe Illustrator 19.2.1, SVG Export Plug-In . SVG Version: 6.00 Build 0)  -->
<svg xmlns="http://www.w3.org/2000/svg" xmlns:xlink="http://www.w3.org/1999/xlink" version="1.1" x="0px" y="0px" viewBox="0 0 32 32" style="enable-background:new 0 0 32 32;" xml:space="preserve">
<style type="text/css">
	.st0{display:none;}
	.st1{display:inline;fill:#4A4A4A;}
	.st2{display:inline;}
	.st3{fill:#4A4A4A;}
</style>

<g id="Layer_2">
	<g>
		<g>
			<path class="st3" d="M12.1,0c-4.4,0-8,3.6-8,8c0,3.1,1.8,5.8,4.4,7.1c-0.4-1.1-0.6-2.4-0.6-3.8c0,0,0,0,0,0     c-0.8-1-1.3-2.2-1.3-3.6c0-3.1,2.5-5.7,5.7-5.7c0.9,0,1.8,0.2,2.5,0.6c0.6-0.2,1.2-0.4,1.9-0.6C16.9,2,17.1,2,17.3,2     C15.9,0.7,14.1,0,12.1,0z M10.3,18.9c0.5,0.3,1.1,0.5,1.6,0.7c-0.3-0.2-0.6-0.4-0.9-0.6C10.8,18.9,10.6,18.9,10.3,18.9z      M0.2,21.2C0,21.7,0,22.5,0.1,23v5h3v-3.5C3,24,3,23.1,3.2,22.6c1.4-2.6,3.5-3.3,5.2-4.2c-1-0.3-1.8-0.8-2.5-1.4     C4.1,18,1.7,18.5,0.2,21.2z"/>
		</g>
	</g>
</g>
<g id="Layer_3">
	<g id="Layer_2_3_">
		<g id="Layer_2_4_">
			<g>
				<path class="st3" d="M18,20c4.4,0,8-3.6,8-8s-3.6-8-8-8s-8,3.6-8,8S13.6,20,18,20z M18.2,6.1c3.1,0,5.7,2.6,5.7,5.7      s-2.6,5.7-5.7,5.7s-5.7-2.6-5.7-5.7S15,6.1,18.2,6.1z"/>
				<path class="st3" d="M29.8,25.1C28.6,22.3,25.9,22,24,21c-1.4,1.4-4,2-6.1,2s-4.6-0.7-6.1-2c-1.8,1-4.2,1.5-5.7,4.2      C5.9,25.7,5.9,26.5,6,27v5h24l-0.1-5C30.1,28.6,30.1,25.8,29.8,25.1z"/>
			</g>
		</g>
	</g>
</g>
</svg>
