<svg viewBox="0 0 32 32" xmlns="http://www.w3.org/2000/svg"><path d="m16 1c8.3 0 15 6.7 15 15s-6.7 15-15 15-15-6.7-15-15 6.7-15 15-15z" fill="#fff"/><g fill="#ffa300"><path d="m19.2 5.9c.6.3 2 1.4 2.9 2.4.1.1 1.8 2.2 2.3 2.3 1.9.7 3.4 2.4 3.9 4.2 0 .3-.1.7-.3.9-.1.2-.6.6-.9.7-.4.1-1.7.1-1.7.1-.2 0-.4 0-.6-.1h-.2s-.1.2-.1.3c-.8 1.6-1.7 3.1-3 4.3h-.1v.6c0 .2-.4 1.5-.4 1.6.3.3.5.5.7.6.3.2.4.4.4.8s0 0 0 0h-.3s0 .2-.1.3c.1 0 0 0-.1 0-.4 0-1.3 0-1.5-.1h-.2l-.2.2c-.4.4-1.3 1.2-1.5 1.3-.1 0-.2.1-.4.2h-.7s0-.1-.1-.1h-.1v-.3c0-.3.1-.4.4-.6.1-.1.4-.3.4-.4v-.4c-.2-.3-3.2-.6-4.1-.8 0 0 0 0-.1 0 0-.1 0-.2-.1-.3 0-.1-1.1-1.9-1.7-2.5-.5-.7-2.3-1.6-2.4-1.7-1.4-.6-2.6-2.3-2.2-3.7 0-.1 0-.2 0-.4 0-.1-.6-.5-.6-.8-.2-1.4-.7-2.1-1.5-2.6-.7-.6.4-1.2 1.1-1.3 1.3 0 2.5.9 2.7 2.2v.6q0 0 0 0c.2 0 .4-.1.6-.2.4-.1 1.4-.5 1.6-.6 2.1-.7 4.5-.1 6.5.9.1 0 1.8 1.2 2.5.4.2-.3.4-.5.5-.9s.4-.6.6-.8c.3-.2.5-.4.6-.5 0-.1.1-.3.1-.4 0 .1-.1.1-.2.1-.8-.4-1.6-.6-2.4-.9-.2 0-2.6-1.3-3.4-2.3 0-.1-.3-.5-.1-.6.4-.3 2.3.3 2.6.6.5.2 1.4.6 2 .6-.2-.5-1.7-1.7-1.9-2s-.4-.7-.3-.9c.4-.1 1 0 1 0zm-.3 14.1c-.6.3-4.4.2-5.3.1.4 1.3 1 2.2 1.3 2.7.3.1 2.4.5 2.8.5h.8c.1 0 .3-2.3.3-3.3"/><path d="m16 0c-8.8 0-16 7.2-16 16s7.2 16 16 16 16-7.2 16-16-7.2-16-16-16zm0 30c-7.7 0-14-6.3-14-14s6.3-14 14-14 14 6.3 14 14-6.3 14-14 14z"/></g></svg>