<?xml version="1.0" encoding="utf-8"?>
<!-- Generator: Adobe Illustrator 21.0.0, SVG Export Plug-In . SVG Version: 6.00 Build 0)  -->
<svg version="1.1" id="Layer_3" xmlns="http://www.w3.org/2000/svg" xmlns:xlink="http://www.w3.org/1999/xlink" x="0px" y="0px"
	 viewBox="0 0 48 48" style="enable-background:new 0 0 48 48;" xml:space="preserve">
<style type="text/css">
	.st0{fill:#F3F3F3;}
</style>
<g id="Layer_3_1_">
	<g>
		<g>
			<path class="st0" d="M33.2,6H14.8C9.9,6,6,9.9,6,14.8v18.3c0,5,3.9,8.9,8.9,8.9h18.3c4.8,0,8.8-3.9,8.8-8.8V14.8
				C42,9.9,38.1,6,33.2,6z M38,28.8c0,5.6-3.5,9.2-9.2,9.2h-9.8c-5.6,0-9.1-3.5-9.1-9.2v-9.8c0-5.6,3.5-9.1,9.2-9.1H29
				c5.6,0,9,3.5,9,9.2V28.8z"/>
		</g>
	</g>
	<g>
		<g>
			<path class="st0" d="M25.3,14h-2.5c-4.9,0-8.7,3.9-8.7,8.7v2.5c0,4.9,3.9,8.7,8.7,8.7h2.5c4.9,0,8.7-3.9,8.7-8.7v-2.5
				C34,17.9,30.1,14,25.3,14z M24,30c-3.8,0-6-2.2-6-6s2.2-6,6-6s6,2.2,6,6S27.8,30,24,30z"/>
		</g>
	</g>
	<circle class="st0" cx="33.5" cy="14.5" r="2.5"/>
</g>
</svg>
