<?xml version="1.0" encoding="utf-8"?>
<!-- Generator: Adobe Illustrator 21.0.0, SVG Export Plug-In . SVG Version: 6.00 Build 0)  -->
<svg version="1.1" id="Layer_3" xmlns="http://www.w3.org/2000/svg" xmlns:xlink="http://www.w3.org/1999/xlink" x="0px" y="0px"
	 viewBox="0 0 48 48" style="enable-background:new 0 0 48 48;" xml:space="preserve">
<style type="text/css">
	.st0{fill:url(#SVGID_1_);}
	.st1{fill:#FFFFFF;}
</style>
<g id="Layer_2">
	
		<linearGradient id="SVGID_1_" gradientUnits="userSpaceOnUse" x1="5.6964" y1="6.6964" x2="42.2507" y2="43.2507" gradientTransform="matrix(1 0 0 -1 0 49)">
		<stop  offset="0" style="stop-color:#FFD87F"/>
		<stop  offset="0.4992" style="stop-color:#FF3F5F"/>
		<stop  offset="1" style="stop-color:#B300BF"/>
	</linearGradient>
	<path class="st0" d="M38.1,44H9.9C6.6,44,4,41.4,4,38.1V9.9C4,6.6,6.6,4,9.9,4h28.3C41.4,4,44,6.6,44,9.9v28.3
		C44,41.4,41.4,44,38.1,44z"/>
</g>
<g id="Layer_3_1_">
	<g>
		<g>
			<path class="st1" d="M32.1,8H15.9C11.5,8,8,11.5,8,15.9v16.3c0,4.4,3.5,7.9,7.9,7.9h16.3c4.3,0,7.9-3.5,7.9-7.9V15.9
				C40,11.5,36.5,8,32.1,8z M37.3,28.3c0,4.9-4,9.1-9.1,9.1h-8.7c-4.9,0-8.9-4-8.9-9.1v-8.7c0-4.9,4-8.9,9.1-8.9h8.7
				c4.9,0,8.9,4,8.9,9.1V28.3z"/>
		</g>
	</g>
	<g>
		<g>
			<path class="st1" d="M25.1,15h-2.3c-4.4,0-7.9,3.5-7.9,7.9v2.3c0,4.4,3.5,7.9,7.9,7.9h2.3c4.4,0,7.9-3.5,7.9-7.9v-2.3
				C33,18.5,29.5,15,25.1,15z M23.9,30.9c-3.8,0-6.8-3-6.8-6.8s3-6.8,6.8-6.8s6.8,3,6.8,6.8S27.7,30.9,23.9,30.9z"/>
		</g>
	</g>
	<circle class="st1" cx="32.5" cy="15.5" r="2.5"/>
</g>
</svg>
