<?xml version="1.0" encoding="utf-8"?>
<!-- Generator: Adobe Illustrator 21.0.0, SVG Export Plug-In . SVG Version: 6.00 Build 0)  -->
<svg version="1.1" id="Layer_1" xmlns="http://www.w3.org/2000/svg" xmlns:xlink="http://www.w3.org/1999/xlink" x="0px" y="0px"
	 viewBox="0 0 32 32" style="enable-background:new 0 0 32 32;" xml:space="preserve">
<style type="text/css">
	.st0{fill:#F3F3F3;}
</style>
<image style="display:none;overflow:visible;enable-background:new    ;" width="16" height="16" xlink:href="../../../../../var/installedmodules/webhare/webshop/web/img/product_range.16x16.png"  transform="matrix(1.5795 0 0 1.4574 1 5)">
</image>
<g id="Layer_3">
	<g>
		<g>
			<path class="st0" d="M22.1,4H9.9C6.6,4,4,6.6,4,9.9v12.2C4,25.4,6.6,28,9.9,28h12.2c3.2,0,5.9-2.6,5.9-5.9V9.9
				C28,6.6,25.4,4,22.1,4z M26,19.2c0,3.7-3,6.8-6.8,6.8h-6.5C9,26,6,23,6,19.2v-6.5C6,9,9,6,12.8,6h6.5C23,6,26,9,26,12.8V19.2z"/>
		</g>
	</g>
	<g>
		<g>
			<path class="st0" d="M16.8,10h-1.5c-2.9,0-5.2,2.3-5.2,5.2v1.5c0,2.9,2.3,5.2,5.2,5.2h1.5c2.9,0,5.2-2.3,5.2-5.2v-1.5
				C22,12.3,19.7,10,16.8,10z M16,20.5c-2.5,0-4.5-2-4.5-4.5s2-4.5,4.5-4.5s4.5,2,4.5,4.5S18.5,20.5,16,20.5z"/>
		</g>
	</g>
	<circle class="st0" cx="22" cy="10" r="2"/>
</g>
</svg>
