<?xml version="1.0" encoding="UTF-8"?>
<!-- Generator: Adobe Illustrator 21.0.0, SVG Export Plug-In . SVG Version: 6.00 Build 0)  -->
<svg xmlns="http://www.w3.org/2000/svg" xmlns:xlink="http://www.w3.org/1999/xlink" version="1.1" x="0px" y="0px" viewBox="0 0 32 32" style="enable-background:new 0 0 32 32;" xml:space="preserve">
<style type="text/css">
	.st0{fill:url(#SVGID_1_);}
	.st1{fill:#FFFFFF;}
	.st2{display:none;}
	.st3{display:inline;}
</style>
<g id="Layer_2">
	<linearGradient id="SVGID_1_" gradientUnits="userSpaceOnUse" x1="3.206" y1="28.794" x2="28.794" y2="3.206">
		<stop offset="0" style="stop-color:#FFD87F"/>
		<stop offset="0.4992" style="stop-color:#FF3F5F"/>
		<stop offset="1" style="stop-color:#B300BF"/>
	</linearGradient>
	<path class="st0" d="M25.9,30H6.1C3.8,30,2,28.2,2,25.9V6.1C2,3.8,3.8,2,6.1,2h19.8C28.2,2,30,3.8,30,6.1v19.8   C30,28.2,28.2,30,25.9,30z"/>
</g>
<g id="Layer_3">
	<g>
		<g>
			<path class="st1" d="M22.1,4H9.9C6.6,4,4,6.6,4,9.9v12.2C4,25.4,6.6,28,9.9,28h12.2c3.2,0,5.9-2.6,5.9-5.9V9.9     C28,6.6,25.4,4,22.1,4z M26,19.2c0,3.7-3,6.8-6.8,6.8h-6.5C9,26,6,23,6,19.2v-6.5C6,9,9,6,12.8,6h6.5C23,6,26,9,26,12.8V19.2z"/>
		</g>
	</g>
	<g>
		<g>
			<path class="st1" d="M16.8,10h-1.5c-2.9,0-5.2,2.3-5.2,5.2v1.5c0,2.9,2.3,5.2,5.2,5.2h1.5c2.9,0,5.2-2.3,5.2-5.2v-1.5     C22,12.3,19.7,10,16.8,10z M16,20.5c-2.5,0-4.5-2-4.5-4.5s2-4.5,4.5-4.5s4.5,2,4.5,4.5S18.5,20.5,16,20.5z"/>
		</g>
	</g>
	<circle class="st1" cx="22" cy="10" r="2"/>
</g>

</svg>
