<?xml version="1.0" encoding="utf-8"?>
<!-- Generator: Adobe Illustrator 21.0.0, SVG Export Plug-In . SVG Version: 6.00 Build 0)  -->
<svg version="1.1" id="Layer_3" xmlns="http://www.w3.org/2000/svg" xmlns:xlink="http://www.w3.org/1999/xlink" x="0px" y="0px"
	 viewBox="0 0 48 48" style="enable-background:new 0 0 48 48;" xml:space="preserve">
<style type="text/css">
	.st0{fill:#F3F3F3;}
</style>
<g>
	<g>
		<path class="st0" d="M44.1,2H3.9C2.9,2,2,2.9,2,3.9v40.2c0,1,0.9,1.9,1.9,1.9h40.2c1,0,1.9-0.9,1.9-1.9V3.9C46,2.9,45.1,2,44.1,2z
			 M16,40h-6V18h6V40z M13,16c-1.7,0-3-1.3-3-3s1.3-3,3-3s3,1.3,3,3S14.7,16,13,16z M38,40h-6V27c0-1.6-1.3-3-3-3s-3,1.4-3,3v13h-6
			V18h6v2c3-2,6-2,6-2c3.1,0,5,1,6,5.5V40z"/>
	</g>
</g>
</svg>
