<?xml version="1.0" encoding="utf-8"?>
<!-- Generator: Adobe Illustrator 21.0.0, SVG Export Plug-In . SVG Version: 6.00 Build 0)  -->
<svg version="1.1" id="Layer_1" xmlns="http://www.w3.org/2000/svg" xmlns:xlink="http://www.w3.org/1999/xlink" x="0px" y="0px"
	 viewBox="0 0 32 32" style="enable-background:new 0 0 32 32;" xml:space="preserve">
<style type="text/css">
	.st0{fill:#0077B5;}
</style>
<g>
	<g>
		<path class="st0" d="M2,2v28h28V2H2z M12,26H8V12h4V26z M10,10c-1.1,0-2-0.9-2-2s0.9-2,2-2s2,0.9,2,2S11.1,10,10,10z M26,26h-4
			v-8.3c0-1-0.9-1.9-2-1.9s-2,0.9-2,1.9V26h-4V12h4v1.3c2-1.3,4-1.3,4-1.3c2,0,3.3,0.6,4,3.5V26z"/>
	</g>
</g>
</svg>
