<?xml version="1.0" encoding="utf-8"?>
<!-- Generator: Adobe Illustrator 21.0.0, SVG Export Plug-In . SVG Version: 6.00 Build 0)  -->
<svg version="1.1" id="Layer_3" xmlns="http://www.w3.org/2000/svg" xmlns:xlink="http://www.w3.org/1999/xlink" x="0px" y="0px"
	 viewBox="0 0 48 48" style="enable-background:new 0 0 48 48;" xml:space="preserve">
<style type="text/css">
	.st0{fill:#0077B5;}
	.st1{fill:#FFFFFF;}
</style>
<path class="st0" d="M44.1,46H3.9C2.9,46,2,45.1,2,44.1V3.9C2,2.9,2.9,2,3.9,2h40.2C45.1,2,46,2.9,46,3.9v40.2
	C46,45.1,45.1,46,44.1,46z"/>
<g>
	<rect x="10" y="18" class="st1" width="6" height="22"/>
	<circle class="st1" cx="13" cy="13" r="3"/>
	<path class="st1" d="M32,18c0,0-3,0-6,2v-2h-6v22h6V27c0-1.6,1.3-3,3-3h0c1.7,0,3,1.4,3,3v13h6V23.5C37,19,35.1,18,32,18z"/>
</g>
</svg>
