<?xml version="1.0" encoding="utf-8"?>
<!-- Generator: Adobe Illustrator 21.0.0, SVG Export Plug-In . SVG Version: 6.00 Build 0)  -->
<svg version="1.1" id="Layer_3" xmlns="http://www.w3.org/2000/svg" xmlns:xlink="http://www.w3.org/1999/xlink" x="0px" y="0px"
	 viewBox="0 0 48 48" style="enable-background:new 0 0 48 48;" xml:space="preserve">
<style type="text/css">
	.st0{fill:#F3F3F3;}
</style>
<g>
	<g>
		<path class="st0" d="M44.7,5.4C43.3,3.3,41,2,38.4,2H9.6C5.4,2,2,5.4,2,9.6v28.8C2,42.6,5.4,46,9.6,46h28.8c2.6,0,5-1.3,6.3-3.4
			c0.8-1.2,1.3-2.7,1.3-4.3V9.6C46,8,45.5,6.6,44.7,5.4z M12,40c-2.2,0-4-1.8-4-4s1.8-4,4-4s4,1.8,4,4S14.2,40,12,40z M24,40
			c0-9-7-16-16-16v-6c12,0,22,8.5,22,22H24z M36,40c0-15-13-28-28-28V6c19.5,0,34,14.5,34,34H36z"/>
	</g>
</g>
</svg>
