<?xml version="1.0" encoding="utf-8"?>
<!-- Generator: Adobe Illustrator 21.0.0, SVG Export Plug-In . SVG Version: 6.00 Build 0)  -->
<svg version="1.1" id="Layer_3" xmlns="http://www.w3.org/2000/svg" xmlns:xlink="http://www.w3.org/1999/xlink" x="0px" y="0px"
	 viewBox="0 0 48 48" style="enable-background:new 0 0 48 48;" xml:space="preserve">
<style type="text/css">
	.st0{fill:#FFAA00;}
	.st1{fill:#FFFFFF;}
</style>
<path class="st0" d="M44.7,5.4C43.3,3.3,41,2,38.4,2H9.6C5.4,2,2,5.4,2,9.6v28.8C2,42.6,5.4,46,9.6,46h28.8c2.6,0,5-1.3,6.3-3.4
	c0.8-1.2,1.3-2.7,1.3-4.3V9.6C46,8,45.5,6.6,44.7,5.4z M38.2,38.2h-5.2"/>
<g>
	<g id="rssobjects_1_">
		<path class="st1" d="M8,18v6c9,0,16,7,16,16h6C30,26.5,20,18,8,18z"/>
		<path class="st1" d="M8,6v6c15,0,28,13,28,28h6C42,20.5,27.5,6,8,6z"/>
	</g>
</g>
<circle class="st1" cx="12" cy="36" r="4"/>
</svg>
