<?xml version="1.0" encoding="utf-8"?>
<!-- Generator: Adobe Illustrator 21.0.0, SVG Export Plug-In . SVG Version: 6.00 Build 0)  -->
<svg version="1.1" id="Layer_1" xmlns="http://www.w3.org/2000/svg" xmlns:xlink="http://www.w3.org/1999/xlink" x="0px" y="0px"
	 viewBox="0 0 32 32" style="enable-background:new 0 0 32 32;" xml:space="preserve">
<style type="text/css">
	.st0{fill:#FFAA00;}
	.st1{fill:#FFFFFF;}
</style>
<path class="st0" d="M29.2,4.1c-0.9-1.3-2.3-2.1-4-2.1H6.9C4.2,2,2,4.2,2,6.9v18.3C2,27.8,4.2,30,6.9,30h18.3c1.7,0,3.2-0.8,4-2.1
	c0.5-0.8,0.8-1.7,0.8-2.7V6.9C30,5.8,29.7,4.9,29.2,4.1z M25.1,25.1h-3.3"/>
<g>
	<g id="rssobjects_1_">
		<path class="st1" d="M6,12v4c6,0,10,4,10,10h4C20,17,14,12,6,12z"/>
		<path class="st1" d="M6,4v4c10,0,18,8,18,18h4C28,13,19,4,6,4z"/>
	</g>
</g>
<circle class="st1" cx="8.5" cy="23.5" r="2.5"/>
</svg>
