<?xml version="1.0" encoding="utf-8"?>
<!-- Generator: Adobe Illustrator 21.0.0, SVG Export Plug-In . SVG Version: 6.00 Build 0)  -->
<svg version="1.1" id="Layer_1" xmlns="http://www.w3.org/2000/svg" xmlns:xlink="http://www.w3.org/1999/xlink" x="0px" y="0px"
	 viewBox="0 0 32 32" style="enable-background:new 0 0 32 32;" xml:space="preserve">
<style type="text/css">
	.st0{fill:#F3F3F3;}
</style>
<g>
	<g>
		<path class="st0" d="M29.2,4.1c-0.9-1.3-2.3-2.1-4-2.1H6.9C4.2,2,2,4.2,2,6.9v18.3C2,27.8,4.2,30,6.9,30h18.3c1.7,0,3.2-0.8,4-2.1
			c0.5-0.8,0.8-1.7,0.8-2.7V6.9C30,5.8,29.7,4.9,29.2,4.1z M8.5,26C7.1,26,6,24.9,6,23.5S7.1,21,8.5,21s2.5,1.1,2.5,2.5
			S9.9,26,8.5,26z M16,26c0-6-4-10-10-10v-4c8,0,14,5,14,14H16z M24,26C24,16,16,8,6,8V4c13,0,22,9,22,22H24z"/>
	</g>
</g>
</svg>
