<?xml version="1.0" encoding="utf-8"?>
<!-- Generator: Adobe Illustrator 21.0.0, SVG Export Plug-In . SVG Version: 6.00 Build 0)  -->
<svg version="1.1" id="Layer_1" xmlns="http://www.w3.org/2000/svg" xmlns:xlink="http://www.w3.org/1999/xlink" x="0px" y="0px"
	 viewBox="0 0 32 32" style="enable-background:new 0 0 32 32;" xml:space="preserve">
<style type="text/css">
	.st0{clip-path:url(#SVGID_2_);fill:#509CF6;}
	.st1{clip-path:url(#SVGID_2_);fill:#FEFEFE;}
	.st2{fill:#509DF7;}
</style>
<g id="mnIVWT.tif">
	<g>
		<defs>
			<path id="SVGID_1_" d="M21.8,3.5c-0.3,0.2-0.6,0.2-1,0C21.1,3.5,21.4,3.5,21.8,3.5z"/>
		</defs>
		<clipPath id="SVGID_2_">
			<use xlink:href="#SVGID_1_"  style="overflow:visible;"/>
		</clipPath>
		<path class="st0" d="M21.8,3.5c0.1,0,0.2,0,0.4,0c0.2,0.1,0.5,0.1,0.8,0.1c0.9,0,1.7,0.4,2.4,1c0.5,0.4,1,0.5,1.6,0.3
			c0.7-0.3,1.5-0.5,2.2-0.9c0.2-0.1,0.5-0.3,0.7,0c0.2,0.2,0.1,0.5,0,0.7c-0.4,0.8-0.8,1.5-1.5,2.1c0.6-0.1,1.1-0.3,1.6-0.4
			c0.3-0.1,0.5-0.2,0.7,0.1c0.2,0.3,0,0.5-0.2,0.8c-0.5,0.7-1.1,1.4-1.9,1.9c-0.4,0.3-0.6,0.7-0.6,1.2c-0.1,4.5-1.6,8.4-4.5,11.8
			c-2.7,3.1-6.1,5.2-10.2,5.7c-2.7,0.3-5.5,0.4-8.2-0.4c-1.4-0.4-2.6-1-3.9-1.6c-0.3-0.1-0.5-0.3-0.5-0.7c0.2-0.4,0.6-0.3,1-0.3
			c1.8,0.1,3.5-0.3,5.2-1c0.7-0.3,1.3-0.6,1.9-1.1c-0.5-0.2-0.9-0.2-1.4-0.4c-1.6-0.7-2.7-1.8-3.5-3.3c-0.3-0.7-0.1-1.1,0.7-1
			c0.3,0,0.5,0.1,0.7,0c-1.9-0.9-3.2-2.4-3.7-4.5c-0.1-0.3-0.1-0.5-0.1-0.8c0-0.7,0.3-0.9,0.9-0.7c0.3,0.1,0.6,0.3,1,0.3
			c-0.7-0.8-1.3-1.6-1.6-2.6c-0.5-1.5-0.5-3,0.1-4.5c0.3-0.9,0.8-1,1.4-0.3C4.7,6.8,6.4,8,8.3,9c1.8,1,3.8,1.5,5.8,1.8
			c0.6,0.1,0.7,0,0.7-0.6c0-1.2,0.1-2.3,0.7-3.3c1-1.8,2.4-3.2,4.7-3.3c0.1,0,0.2,0,0.2-0.1c0.1,0,0.2,0,0.4,0
			C21.1,3.6,21.4,3.6,21.8,3.5z"/>
		<path class="st1" d="M0.6,25.3c1.7,1.2,3.6,2,5.7,2.3c5.8,1.1,11,0,15.5-4.1c3.6-3.2,5.4-7.4,5.7-12.2c0.1-1.2,0.2-2.1,1.3-2.8
			c0.6-0.3,0.9-0.9,1.3-1.5c0.1-0.2,0.3-0.3,0.3-0.6c-1,0.3-2,0.7-3.2,0.8c1.2-0.9,2-1.9,2.5-3.4c-1.1,0.6-2.1,1-3.2,1.3
			c-0.5,0.1-0.8,0.1-1.1-0.3c-0.8-0.8-1.8-1.2-2.9-1.4c-0.1,0-0.3,0-0.4-0.1c2.7,0,5.4,0,8.2,0c0.3,0,0.4,0.1,0.4,0.4c0,8,0,16,0,24
			c0,0.3-0.1,0.4-0.4,0.4c-9.8,0-19.6,0-29.4,0c-0.3,0-0.4-0.1-0.4-0.4c0-0.9,0-1.8,0-2.8C0.6,25.1,0.6,25.2,0.6,25.3z"/>
		<path class="st1" d="M0.6,25.3c0,0-0.1-0.1-0.1-0.1c0-7.1,0-14.1,0-21.2c0-0.4,0.1-0.5,0.5-0.5c6.5,0,13,0,19.5,0
			c-0.6,0.3-1.2,0.3-1.8,0.6c-2.5,1.2-3.8,3.6-3.5,6.4c0.1,0.7-0.2,0.6-0.6,0.5c-3.7-0.4-7-1.8-9.8-4.2C4,6.3,3.3,5.5,2.6,4.7
			C1.8,6.1,1.5,7.5,1.8,9c0.3,1.5,1.1,2.7,2.4,3.8c-1,0-1.8-0.3-2.5-0.7c-0.5,2.3,1.4,4.7,4.6,6.1c-0.7,0.2-1.3,0.2-2,0.1
			c-0.4-0.1-0.5,0.1-0.3,0.5c1,2.1,2.6,3.4,4.9,3.7c0.1,0,0.3,0,0.4,0c0,0.2-0.2,0.3-0.3,0.4c-2.4,1.7-5,2.4-7.9,2.2
			C1,25.3,0.8,25.3,0.6,25.3z"/>
	</g>
</g>
<path class="st2" d="M21.4,5.5c0.1,0,0.2,0,0.3,0c0.2,0.1,0.4,0.1,0.7,0.1c0.8,0,1.5,0.4,2.1,0.9c0.4,0.4,0.9,0.5,1.4,0.3
	c0.6-0.2,1.3-0.5,1.9-0.8c0.2-0.1,0.4-0.3,0.6,0c0.2,0.2,0.1,0.4,0,0.6c-0.3,0.7-0.7,1.3-1.3,1.9c0.5-0.1,0.9-0.2,1.4-0.4
	C28.6,8,28.8,7.9,29,8.2c0.1,0.2,0,0.5-0.2,0.7c-0.5,0.6-1,1.2-1.6,1.7c-0.4,0.3-0.5,0.6-0.5,1.1c-0.1,3.9-1.4,7.4-3.9,10.3
	c-2.3,2.7-5.3,4.5-8.9,4.9c-2.4,0.3-4.8,0.3-7.2-0.3c-1.2-0.3-2.3-0.8-3.4-1.4C3.2,25,3,24.8,3,24.5c0.2-0.3,0.6-0.2,0.9-0.2
	c1.6,0.1,3.1-0.3,4.5-0.9c0.6-0.2,1.1-0.5,1.7-1c-0.4-0.1-0.8-0.2-1.2-0.4c-1.4-0.6-2.4-1.5-3-2.9c-0.3-0.6-0.1-0.9,0.6-0.9
	c0.2,0,0.5,0.1,0.6,0c-1.6-0.8-2.8-2.1-3.3-4c-0.1-0.2-0.1-0.5-0.1-0.7c0-0.6,0.2-0.8,0.8-0.6c0.3,0.1,0.5,0.2,0.9,0.3
	c-0.6-0.7-1.1-1.4-1.4-2.2C3.6,9.8,3.6,8.5,4.1,7.2c0.3-0.8,0.7-0.9,1.2-0.2c1.2,1.4,2.7,2.5,4.4,3.4c1.6,0.8,3.3,1.3,5.1,1.6
	c0.5,0.1,0.6,0,0.6-0.5c0-1,0.1-2,0.6-2.9c0.9-1.6,2.1-2.7,4.1-2.8c0.1,0,0.1,0,0.2-0.1c0.1,0,0.2,0,0.3,0
	C20.9,5.6,21.1,5.6,21.4,5.5z"/>
</svg>
