<?xml version="1.0" encoding="utf-8"?>
<!-- Generator: Adobe Illustrator 21.0.0, SVG Export Plug-In . SVG Version: 6.00 Build 0)  -->
<svg version="1.1" id="Layer_3" xmlns="http://www.w3.org/2000/svg" xmlns:xlink="http://www.w3.org/1999/xlink" x="0px" y="0px"
	 viewBox="0 0 48 48" style="enable-background:new 0 0 48 48;" xml:space="preserve">
<style type="text/css">
	.st0{fill:#F3F3F3;}
</style>
<path class="st0" d="M31.8,7.5c0.2,0,0.3,0,0.5,0c0.3,0.1,0.7,0.1,1,0.2c1.2,0.1,2.3,0.6,3.2,1.4c0.6,0.6,1.3,0.7,2.1,0.4
	c1-0.4,2-0.7,2.9-1.2c0.3-0.1,0.6-0.4,0.9-0.1c0.3,0.3,0.1,0.7,0,1c-0.5,1.1-1.1,2-2.1,2.8c0.8-0.2,1.4-0.4,2.1-0.6
	c0.3-0.1,0.7-0.3,0.9,0.1c0.2,0.4,0,0.7-0.2,1c-0.7,1-1.5,1.9-2.5,2.6c-0.5,0.4-0.8,0.9-0.8,1.6c-0.1,5.9-2.1,11.2-5.9,15.7
	c-3.6,4.1-8,6.8-13.5,7.5c-3.6,0.5-7.3,0.5-10.9-0.5C7.7,39,6,38.2,4.4,37.3c-0.3-0.2-0.7-0.4-0.7-0.9C4,35.9,4.5,36,5,36.1
	c2.4,0.1,4.7-0.4,6.9-1.3c0.9-0.4,1.7-0.8,2.5-1.5c-0.6-0.2-1.2-0.3-1.8-0.6c-2.1-0.9-3.6-2.3-4.6-4.4c-0.4-1-0.1-1.4,1-1.3
	c0.4,0,0.7,0.1,1,0c-2.5-1.2-4.3-3.2-5-6c-0.1-0.4-0.2-0.7-0.2-1.1c0-0.9,0.4-1.2,1.2-0.9c0.4,0.1,0.8,0.3,1.4,0.4
	c-1-1-1.7-2.1-2.1-3.4c-0.7-2-0.6-4,0.1-6c0.4-1.2,1.1-1.3,1.9-0.4c1.8,2.2,4.1,3.8,6.6,5.1c2.4,1.3,5,2,7.7,2.4
	c0.8,0.1,1,0,0.9-0.8c0-1.5,0.1-3,0.9-4.4c1.4-2.4,3.2-4.2,6.2-4.3c0.1,0,0.2,0,0.3-0.1c0.2,0,0.3,0,0.5,0C31,7.6,31.4,7.6,31.8,7.5
	z"/>
</svg>
