<?xml version="1.0" encoding="utf-8"?>
<!-- Generator: Adobe Illustrator 21.0.0, SVG Export Plug-In . SVG Version: 6.00 Build 0)  -->
<svg version="1.1" id="Layer_1" xmlns="http://www.w3.org/2000/svg" xmlns:xlink="http://www.w3.org/1999/xlink" x="0px" y="0px"
	 viewBox="0 0 32 32" style="enable-background:new 0 0 32 32;" xml:space="preserve">
<style type="text/css">
	.st0{fill:#4A4A4A;}
	.st1{fill:#A5A5A5;}
</style>
<path class="st0" d="M20,20v-5c0-0.6,0.5-1,1-1h2c0.6,0,1,0.5,1,1v5l5,0.2c0.5,0,1,0.5,1,1V23c0,0.6-0.5,1-1,1h-5v5c0,0.6-0.5,1-1,1
	h-2c-0.6,0-1-0.5-1-1v-5h-5c-0.6,0-1-0.5-1-1v-1.9c0-0.6,0.4-1,1-1L20,20z"/>
<rect x="2" y="8" class="st0" width="28" height="4"/>
<rect x="2" y="14" class="st1" width="16" height="2"/>
<rect x="2" y="18" class="st1" width="10" height="2"/>
<rect x="2" y="22" class="st1" width="10" height="2"/>
<rect x="2" y="26" class="st1" width="16" height="2"/>
<rect x="26" y="26" class="st1" width="4" height="2"/>
<rect x="26" y="14" class="st1" width="4" height="2"/>
<rect x="2" y="4" class="st1" width="28" height="2"/>
</svg>
