<?xml version="1.0" encoding="UTF-8"?>
<svg xmlns="http://www.w3.org/2000/svg" xmlns:xlink="http://www.w3.org/1999/xlink" width="32px" height="32px" viewBox="0 0 32 32" x="0px" y="0px" version="1.1">
  <defs/>
  <g>
    <path d="M14,1c0.9,0,2.1,0,3,0c0,7.1,0,14.8,0,22c-0.9,0-2.1,0-3,0C14,15.9,14,8.1,14,1z" fill="#ffffff" stroke="#ffffff" stroke-width="0"/>
    <rect x="23" y="1" width="3" height="22" fill="#ffffff" stroke="#ffffff" stroke-width="0"/>
    <rect x="6" y="1" width="3" height="22" fill="#ffffff" stroke="#ffffff" stroke-width="0"/>
    <rect x="0" y="1" width="1" height="30" fill="#ffffff" stroke="#ffffff" stroke-width="0"/>
    <polygon points="31,1 32,1 32,31 31,31   " fill="#ffffff" stroke="#ffffff" stroke-width="0"/>
    <rect x="3" y="1" width="1" height="22" fill="#ffffff" stroke="#ffffff" stroke-width="0"/>
    <rect x="20" y="1" width="1" height="22" fill="#ffffff" stroke="#ffffff" stroke-width="0"/>
    <rect x="28" y="1" width="1" height="22" fill="#ffffff" stroke="#ffffff" stroke-width="0"/>
    <rect x="11" y="1" width="1" height="22" fill="#ffffff" stroke="#ffffff" stroke-width="0"/>
    <path d="M12,27.4c-0.1,0.5-0.2,0.9-0.4,1.4c-0.3,0.6-0.8,0.8-1.5,0.8c-0.6,0-1.2-0.2-1.5-0.8c-0.5-1-0.5-1.9,0-2.9c0.6-1,2.3-1,2.9,0C11.8,26.4,11.9,26.9,12,27.4zM11,27.4c-0.1-0.3-0.1-0.7-0.2-1c-0.1-0.3-0.3-0.4-0.7-0.4c-0.3,0-0.5,0.1-0.6,0.4c-0.3,0.7-0.3,1.3,0,2c0.1,0.3,0.3,0.4,0.6,0.4c0.3,0,0.6-0.1,0.7-0.4C10.9,28,10.9,27.7,11,27.4z" fill="#ffffff" stroke="#ffffff" stroke-width="0"/>
    <path d="M3.3,27.3c0.1-0.4,0.2-0.9,0.4-1.3c0.3-0.6,0.8-0.8,1.5-0.8c0.7,0,1.2,0.2,1.5,0.8c0.4,0.9,0.4,1.8,0,2.7c-0.3,0.6-0.9,0.9-1.6,0.8c-0.7,0-1.2-0.3-1.5-1C3.5,28.2,3.4,27.8,3.3,27.3zM6.1,27.4C6,27,6,26.7,5.8,26.4C5.7,26.1,5.5,26,5.2,26c-0.3,0-0.5,0.1-0.7,0.4c-0.3,0.6-0.3,1.3,0,2c0.1,0.3,0.4,0.5,0.7,0.4c0.3,0,0.6-0.2,0.7-0.5C6,28,6,27.7,6.1,27.4z" fill="#ffffff" stroke="#ffffff" stroke-width="0"/>
    <path d="M21.5,27.7c-0.1-0.4,0-0.7,0.3-1c0.2-0.2,0.3-0.3,0.5-0.6c-0.5,0-0.9,0-1.4,0c0-0.3,0-0.5,0-0.8c0.9,0,1.8,0,2.6,0c0.1,0.4,0,0.7-0.3,1c-0.2,0.2-0.4,0.4-0.6,0.6c0,0,0,0,0.1,0c0.8,0.3,1,0.7,1,1.4c0,0.6-0.5,1.1-1.2,1.2c-0.7,0.1-1.3,0-1.9-0.5c0.1-0.2,0.3-0.5,0.4-0.7c0.3,0.1,0.6,0.3,1,0.4c0.3,0.1,0.5,0,0.7-0.2c0.3-0.3,0.1-0.8-0.4-0.8C22.1,27.6,21.8,27.7,21.5,27.7z" fill="#ffffff" stroke="#ffffff" stroke-width="0"/>
    <path d="M17.1,26.5c-0.2-0.1-0.5-0.3-0.7-0.4c0.4-0.7,1.1-1.1,1.9-0.9c1,0.2,1.4,1.2,0.9,2c-0.3,0.4-0.7,0.8-1,1.2c-0.1,0.1-0.2,0.2-0.3,0.3c0.4,0,0.6,0,0.9,0c0.3,0,0.5,0,0.8,0c0,0.3,0,0.5,0,0.8c-1,0-2,0-3,0c0-0.4-0.1-0.7,0.3-1c0.5-0.4,0.9-0.8,1.3-1.3c0.1-0.2,0.3-0.3,0.4-0.5c0.1-0.2,0.1-0.4-0.1-0.6c-0.2-0.2-0.5-0.2-0.7,0C17.4,26.2,17.2,26.4,17.1,26.5z" fill="#ffffff" stroke="#ffffff" stroke-width="0"/>
    <path d="M26.7,27.7c0-0.2,0-0.5,0-0.7c0.3,0,0.6,0,0.9,0c0,0.2,0,0.5,0,0.7c0.2,0,0.3,0,0.5,0c0,0.3,0,0.5,0,0.8c-0.1,0-0.3,0-0.5,0c0,0.3,0,0.6,0,1c-0.3,0-0.6,0-0.9,0c0-0.3,0-0.6,0-1c-0.6,0-1.2,0-1.7,0c0-0.4-0.1-0.7,0.2-1c0.4-0.6,0.8-1.3,1.2-2c0.1-0.2,0.2-0.2,0.4-0.2c0.2,0,0.5,0,0.8,0c-0.5,0.8-1,1.6-1.5,2.4C26.3,27.7,26.5,27.7,26.7,27.7z" fill="#ffffff" stroke="#ffffff" stroke-width="0"/>
    <path d="M13.1,26.1c0-0.3,0-0.5,0-0.8c0.6,0,1.1,0,1.7,0c0,1.4,0,2.8,0,4.2c-0.3,0-0.6,0-0.9,0c0-1.1,0-2.2,0-3.4C13.7,26.1,13.4,26.1,13.1,26.1z" fill="#ffffff" stroke="#ffffff" stroke-width="0"/>
  </g>
</svg>
