<?xml version="1.0" encoding="utf-8"?>
<!-- Generator: Adobe Illustrator 21.0.0, SVG Export Plug-In . SVG Version: 6.00 Build 0)  -->
<svg version="1.1" id="Layer_1" xmlns="http://www.w3.org/2000/svg" xmlns:xlink="http://www.w3.org/1999/xlink" x="0px" y="0px"
	 viewBox="0 0 32 32" style="enable-background:new 0 0 32 32;" xml:space="preserve">
<style type="text/css">
	.st0{fill:#4A4A4A;}
</style>
<g>
	<path class="st0" d="M14,2c0.6,0,1.4,0,2,0c0,6.5,0,13.5,0,20c-0.6,0-1.4,0-2,0C14,15.5,14,8.5,14,2z"/>
	<rect x="4" y="2" class="st0" width="4" height="20"/>
	<rect y="2" class="st0" width="2" height="28"/>
	<polygon class="st0" points="30,2 32,2 32,30 30,30 	"/>
	<rect x="10" y="2" class="st0" width="2" height="20"/>
	<rect x="18" y="2" class="st0" width="4" height="20"/>
	<rect x="26" y="2" class="st0" width="2" height="20"/>
	<path class="st0" d="M12,26.4c-0.1,0.5-0.2,0.9-0.4,1.4c-0.3,0.6-0.8,0.8-1.5,0.8c-0.6,0-1.2-0.2-1.5-0.8c-0.5-1-0.5-1.9,0-2.9
		c0.6-1,2.3-1,2.9,0C11.8,25.4,11.9,25.9,12,26.4z M11,26.4c-0.1-0.3-0.1-0.7-0.2-1c-0.1-0.3-0.3-0.4-0.7-0.4
		c-0.3,0-0.5,0.1-0.6,0.4c-0.3,0.7-0.3,1.3,0,2c0.1,0.3,0.3,0.4,0.6,0.4s0.6-0.1,0.7-0.4C10.9,27,10.9,26.7,11,26.4z"/>
	<path class="st0" d="M3.3,26.3c0.1-0.4,0.2-0.9,0.4-1.3c0.3-0.6,0.8-0.8,1.5-0.8s1.2,0.2,1.5,0.8c0.4,0.9,0.4,1.8,0,2.7
		c-0.3,0.6-0.9,0.9-1.6,0.8c-0.7,0-1.2-0.3-1.5-1C3.5,27.2,3.4,26.8,3.3,26.3z M6.1,26.4C6,26,6,25.7,5.8,25.4
		C5.7,25.1,5.5,25,5.2,25s-0.5,0.1-0.7,0.4c-0.3,0.6-0.3,1.3,0,2c0.1,0.3,0.4,0.5,0.7,0.4c0.3,0,0.6-0.2,0.7-0.5
		C6,27,6,26.7,6.1,26.4z"/>
	<path class="st0" d="M21.5,26.7c-0.1-0.4,0-0.7,0.3-1c0.2-0.2,0.3-0.3,0.5-0.6c-0.5,0-0.9,0-1.4,0c0-0.3,0-0.5,0-0.8
		c0.9,0,1.8,0,2.6,0c0.1,0.4,0,0.7-0.3,1c-0.2,0.2-0.4,0.4-0.6,0.6c0,0,0,0,0.1,0c0.8,0.3,1,0.7,1,1.4c0,0.6-0.5,1.1-1.2,1.2
		s-1.3,0-1.9-0.5c0.1-0.2,0.3-0.5,0.4-0.7c0.3,0.1,0.6,0.3,1,0.4c0.3,0.1,0.5,0,0.7-0.2c0.3-0.3,0.1-0.8-0.4-0.8
		C22.1,26.6,21.8,26.7,21.5,26.7z"/>
	<path class="st0" d="M17.1,25.5c-0.2-0.1-0.5-0.3-0.7-0.4c0.4-0.7,1.1-1.1,1.9-0.9c1,0.2,1.4,1.2,0.9,2c-0.3,0.4-0.7,0.8-1,1.2
		c-0.1,0.1-0.2,0.2-0.3,0.3c0.4,0,0.6,0,0.9,0s0.5,0,0.8,0c0,0.3,0,0.5,0,0.8c-1,0-2,0-3,0c0-0.4-0.1-0.7,0.3-1
		c0.5-0.4,0.9-0.8,1.3-1.3c0.1-0.2,0.3-0.3,0.4-0.5s0.1-0.4-0.1-0.6s-0.5-0.2-0.7,0C17.4,25.2,17.2,25.4,17.1,25.5z"/>
	<path class="st0" d="M26.7,26.7c0-0.2,0-0.5,0-0.7c0.3,0,0.6,0,0.9,0c0,0.2,0,0.5,0,0.7c0.2,0,0.3,0,0.5,0c0,0.3,0,0.5,0,0.8
		c-0.1,0-0.3,0-0.5,0c0,0.3,0,0.6,0,1c-0.3,0-0.6,0-0.9,0c0-0.3,0-0.6,0-1c-0.6,0-1.2,0-1.7,0c0-0.4-0.1-0.7,0.2-1
		c0.4-0.6,0.8-1.3,1.2-2c0.1-0.2,0.2-0.2,0.4-0.2c0.2,0,0.5,0,0.8,0c-0.5,0.8-1,1.6-1.5,2.4C26.3,26.7,26.5,26.7,26.7,26.7z"/>
	<path class="st0" d="M13.1,25.1c0-0.3,0-0.5,0-0.8c0.6,0,1.1,0,1.7,0c0,1.4,0,2.8,0,4.2c-0.3,0-0.6,0-0.9,0c0-1.1,0-2.2,0-3.4
		C13.7,25.1,13.4,25.1,13.1,25.1z"/>
</g>
</svg>
