<?xml version="1.0" encoding="UTF-8"?>
<svg xmlns="http://www.w3.org/2000/svg" xmlns:xlink="http://www.w3.org/1999/xlink" width="32px" height="32px" viewBox="0 0 32 32" x="0px" y="0px" version="1.1">
  <defs>
    <g id="box_">
      <path d="M29,7H5C4.4,7,4,7.4,4,8v5c0,0.6,0.4,1,1,1h1v13c0,0.6,0.6,1,1.1,1H27c0.6,0,1-0.4,1-1V14h1c0.6,0,1-0.4,1-1V8C30,7.4,29.6,7,29,7zM26,26H8V14h18V26zM28,12H6V9h22V12z"/>
      <path d="M22,21h-4c-0.5,0-1-0.5-1-1v-1c0-0.5,0.5-1,1-1h4c0.5,0,1,0.5,1,1v1C23,20.5,22.5,21,22,21z"/>
    </g>
  </defs>
  <g>
    <use xlink:href="#box_" fill="#ffffff" stroke="#ffffff" stroke-width="0"/>
  </g>
</svg>
