<?xml version="1.0" encoding="utf-8"?>
<!-- Generator: Adobe Illustrator 21.0.0, SVG Export Plug-In . SVG Version: 6.00 Build 0)  -->
<svg version="1.1" id="Layer_1" xmlns="http://www.w3.org/2000/svg" xmlns:xlink="http://www.w3.org/1999/xlink" x="0px" y="0px"
	 viewBox="0 0 32 32" style="enable-background:new 0 0 32 32;" xml:space="preserve">
<style type="text/css">
	.st0{fill:#4A4A4A;}
	.st1{fill:#00A9F4;}
</style>
<g>
	<g>
		<g id="box_">
			<path class="st0" d="M29,6H5C4.4,6,4,6.4,4,7v6c0,0.6,0.4,1,1,1h1v13c0,0.6,0.6,1,1.1,1H27c0.6,0,1-0.4,1-1V14h1c0.6,0,1-0.4,1-1
				V7C30,6.4,29.6,6,29,6z M26,26H8V14h18V26z M28,12H6V8h22V12z"/>
			<path class="st1" d="M23,22h-4c-0.5,0-1-0.5-1-1v-2c0-0.5,0.5-1,1-1h4c0.5,0,1,0.5,1,1v2C24,21.5,23.5,22,23,22z"/>
		</g>
	</g>
</g>
</svg>
