<?xml version="1.0" encoding="utf-8"?>
<!-- Generator: Adobe Illustrator 26.0.2, SVG Export Plug-In . SVG Version: 6.00 Build 0)  -->
<svg version="1.1" id="Layer_1" xmlns="http://www.w3.org/2000/svg" xmlns:xlink="http://www.w3.org/1999/xlink" x="0px" y="0px"
	 viewBox="0 0 32 32" style="enable-background:new 0 0 32 32;" xml:space="preserve">
<style type="text/css">
	.st0{fill:#4A4A4A;}
</style>
<g>
	<path class="st0" d="M27.4,8.3c-0.5-0.1-1,0.2-1.1,0.7L26,10H8.7L8.2,6.8C8.2,6.4,7.8,6,7.3,6H3C2.5,6,2.1,6.5,2.1,7s0.5,1,1,1h3.5
		L9,21.3C9.1,21.8,9.5,22,9.9,22h14.8c0.4,0,0.8-0.2,0.9-0.6l2.6-11.9C28.3,8.9,27.9,8.4,27.4,8.3z M15,16v-4h5v4H15z M20.1,17v3H15
		v-3H20.1z M21,12h4.6l-0.5,4H21V12z M14,12v4H9.7l-0.6-4H14z M10.1,17H14v3h-3.3L10.1,17z M24.1,20H21v-3h3.7L24.1,20z"/>
	<circle class="st0" cx="13.1" cy="26.1" r="2.1"/>
	<circle class="st0" cx="21.9" cy="26.1" r="2.1"/>
</g>
</svg>
