<?xml version="1.0" encoding="utf-8"?>
<!-- Generator: Adobe Illustrator 26.0.2, SVG Export Plug-In . SVG Version: 6.00 Build 0)  -->
<svg version="1.1" id="Layer_1" xmlns="http://www.w3.org/2000/svg" xmlns:xlink="http://www.w3.org/1999/xlink" x="0px" y="0px"
	 viewBox="0 0 32 32" style="enable-background:new 0 0 32 32;" xml:space="preserve">
<style type="text/css">
	.st0{fill:#4A4A4A;}
</style>
<path class="st0" d="M8,11V23c0,0.6,0.5,1,1,1h15.1c0.5,0,0.9-0.3,1-0.8l2.6-11.9c0.1-0.6-0.4-1.2-1-1.2H9C8.5,10,8,10.5,8,11z
	 M22.2,22H10c-0.6,0,0-0.5,0-1V13c0-0.6-0.5-1,0-1h13.7c0.6,0,1.1,0.6,1,1.2l-1.6,7.9C23.1,21.7,22.6,22,22.2,22z"/>
<rect x="10" y="16" class="st0" width="16" height="2"/>
<rect x="16" y="12" class="st0" width="2" height="10"/>
<path class="st0" d="M12,30L12,30c-1.1,0-2-0.9-2-2v0c0-1.1,0.9-2,2-2h0c1.1,0,2,0.9,2,2v0C14,29.1,13.1,30,12,30z"/>
<path class="st0" d="M22,30L22,30c-1.1,0-2-0.9-2-2v0c0-1.1,0.9-2,2-2h0c1.1,0,2,0.9,2,2v0C24,29.1,23.1,30,22,30z"/>
<path class="st0" d="M9,8H5C4.4,8,4,7.6,4,7v0c0-0.6,0.4-1,1-1h4c0.6,0,1,0.4,1,1v0C10,7.6,9.6,8,9,8z"/>
</svg>
