<?xml version="1.0" encoding="utf-8"?>
<!-- Generator: Adobe Illustrator 26.0.2, SVG Export Plug-In . SVG Version: 6.00 Build 0)  -->
<svg version="1.1" id="Layer_1" xmlns="http://www.w3.org/2000/svg" xmlns:xlink="http://www.w3.org/1999/xlink" x="0px" y="0px"
	 viewBox="0 0 48 48" style="enable-background:new 0 0 48 48;" xml:space="preserve">
<style type="text/css">
	.st0{fill:#4A4A4A;}
</style>
<path class="st0" d="M14.5,17.3l2.2,12.2c0.1,0.3,0.5,0.6,0.8,0.6h19.8c0.4,0,0.7-0.2,0.8-0.6l5.2-12.2c0.3-0.6-0.2-1.3-0.8-1.3
	H15.4C14.7,16,14.3,16.7,14.5,17.3z M35.4,28H19.6c-0.3,0-0.7-0.2-0.8-0.5l-1.1-8.2c-0.3-0.6-1.9-1.3-1.2-1.3h23
	c0.7,0,1.1,0.7,0.8,1.3l-4.1,8.2C36.1,27.8,35.8,28,35.4,28z"/>
<rect x="18" y="22" class="st0" width="22" height="2"/>
<rect x="24" y="18" class="st0" width="2" height="10"/>
<rect x="32" y="18" class="st0" width="2" height="10"/>
<path class="st0" d="M21,38L21,38c1.7,0,3-1.3,3-3v0c0-1.7-1.3-3-3-3h0c-1.7,0-3,1.3-3,3v0C18,36.7,19.3,38,21,38z"/>
<path class="st0" d="M35,38L35,38c1.7,0,3-1.3,3-3v0c0-1.7-1.3-3-3-3h0c-1.7,0-3,1.3-3,3v0C32,36.7,33.3,38,35,38z"/>
<path class="st0" d="M15,14H9c-0.6,0-1-0.4-1-1v0c0-0.6,0.4-1,1-1h6c0.6,0,1,0.4,1,1v0C16,13.6,15.6,14,15,14z"/>
</svg>
