<?xml version="1.0" encoding="utf-8"?>
<!-- Generator: Adobe Illustrator 23.1.1, SVG Export Plug-In . SVG Version: 6.00 Build 0)  -->
<svg version="1.1" id="Layer_1" xmlns="http://www.w3.org/2000/svg" xmlns:xlink="http://www.w3.org/1999/xlink" x="0px" y="0px"
	 viewBox="0 0 48 48" style="enable-background:new 0 0 48 48;" xml:space="preserve">
<style type="text/css">
	.st0{fill:#F3F3F3;}
</style>
<path class="st0" d="M39.8,17L37,32H19l-2.8-14.9c-0.1-0.6-0.7-1.1-1.3-1.1H12l4,20h24l3.7-18.6c0.1-0.7-0.4-1.4-1.1-1.4H41
	C40.4,16,39.9,16.4,39.8,17z"/>
<path class="st0" d="M6,20h8v-4H6c-1.1,0-2,0.9-2,2l0,0C4,19.1,4.9,20,6,20z"/>
<path class="st0" d="M35,44L35,44c1.7,0,3-1.3,3-3l0,0c0-1.7-1.3-3-3-3l0,0c-1.7,0-3,1.3-3,3l0,0C32,42.7,33.3,44,35,44z"/>
<path class="st0" d="M21,44L21,44c1.7,0,3-1.3,3-3l0,0c0-1.7-1.3-3-3-3l0,0c-1.7,0-3,1.3-3,3l0,0C18,42.7,19.3,44,21,44z"/>
<rect x="27" y="22" class="st0" width="8" height="8"/>
<rect x="21.9" y="9.9" class="st0" width="2" height="6"/>
<polygon class="st0" points="18.9,15.9 26.9,15.9 22.9,20.9 "/>
<rect x="21.9" y="7.9" class="st0" width="8" height="2"/>
<g>
	<g>
		<path class="st0" d="M38.9,0c-3.9,0.1-7,3.2-6.9,7.1v0c0.1,3.9,3.2,7,7.1,6.9c3.9-0.1,7-3.2,6.9-7.1v0C45.9,3,42.8,0,38.9,0z
			 M44,8h-4v4h-2V8h-4V6h4V2h2v4h4V8z"/>
	</g>
</g>
</svg>
