<?xml version="1.0" encoding="utf-8"?>
<!-- Generator: Adobe Illustrator 21.0.0, SVG Export Plug-In . SVG Version: 6.00 Build 0)  -->
<svg version="1.1" id="Layer_1" xmlns="http://www.w3.org/2000/svg" xmlns:xlink="http://www.w3.org/1999/xlink" x="0px" y="0px"
	 viewBox="0 0 32 32" style="enable-background:new 0 0 32 32;" xml:space="preserve">
<style type="text/css">
	.st0{fill:#F3F3F3;}
</style>
<g>
	<g>
		<path class="st0" d="M28.9,6H6.8C6.3,6,5.9,6.3,5.7,6.7l-3.5,8.9c-0.1,0.3-0.1,0.6,0,0.9l3.5,8.9C5.9,25.7,6.3,26,6.8,26h22.1
			c0.6,0,1.1-0.5,1.1-1.1V7.1C30,6.5,29.5,6,28.9,6z M28,23.1c0,0.5-0.4,0.9-0.9,0.9H8.6c-0.4,0-0.7-0.2-0.8-0.6l-2.7-7.1
			c-0.1-0.2-0.1-0.4,0-0.6l2.7-7.1C7.9,8.2,8.2,8,8.6,8h18.5C27.6,8,28,8.4,28,8.9V23.1z"/>
	</g>
</g>
<g>
	<path class="st0" d="M8.4,13.4c0-0.5,0.1-0.9,0.3-1.3s0.4-0.8,0.7-1.1s0.7-0.6,1.1-0.7c0.4-0.2,0.8-0.3,1.3-0.3s0.9,0.1,1.3,0.3
		s0.8,0.4,1.1,0.7c0.3,0.3,0.5,0.7,0.7,1.1s0.3,0.9,0.3,1.3s-0.1,0.9-0.3,1.3s-0.4,0.8-0.7,1.1c-0.3,0.3-0.7,0.6-1.1,0.7
		s-0.8,0.3-1.3,0.3s-0.9-0.1-1.3-0.3c-0.4-0.2-0.8-0.4-1.1-0.7s-0.5-0.7-0.7-1.1S8.4,13.9,8.4,13.4z M13.1,22.7h-1.9L21,10h2
		L13.1,22.7z M10.4,13.4c0,0.3,0,0.6,0.1,0.9s0.2,0.5,0.3,0.8c0.1,0.2,0.3,0.4,0.4,0.5s0.3,0.2,0.5,0.2s0.4-0.1,0.5-0.2
		s0.3-0.3,0.4-0.5c0.1-0.2,0.2-0.5,0.3-0.8s0.1-0.6,0.1-0.9s0-0.6-0.1-0.9s-0.2-0.5-0.3-0.8c-0.1-0.2-0.3-0.4-0.4-0.5
		S11.9,11,11.7,11s-0.4,0.1-0.5,0.2s-0.3,0.3-0.4,0.5c-0.1,0.2-0.2,0.5-0.3,0.8S10.4,13.1,10.4,13.4z M19.2,19.3
		c0-0.5,0.1-0.9,0.3-1.3c0.2-0.4,0.4-0.8,0.7-1.1c0.3-0.3,0.7-0.6,1.1-0.7s0.8-0.3,1.3-0.3s0.9,0.1,1.3,0.3s0.8,0.4,1.1,0.7
		s0.5,0.7,0.7,1.1c0.2,0.4,0.3,0.9,0.3,1.3s-0.1,0.9-0.3,1.3s-0.4,0.8-0.7,1.1s-0.7,0.6-1.1,0.7s-0.8,0.3-1.3,0.3s-0.9-0.1-1.3-0.3
		s-0.8-0.4-1.1-0.7c-0.3-0.3-0.5-0.7-0.7-1.1S19.2,19.8,19.2,19.3z M21.2,19.3c0,0.3,0,0.6,0.1,0.9s0.2,0.5,0.3,0.8s0.3,0.4,0.4,0.5
		c0.2,0.1,0.3,0.2,0.5,0.2s0.4-0.1,0.5-0.2s0.3-0.3,0.4-0.5c0.1-0.2,0.2-0.5,0.3-0.8s0.1-0.6,0.1-0.9c0-0.3,0-0.6-0.1-0.9
		s-0.2-0.5-0.3-0.8c-0.1-0.2-0.3-0.4-0.4-0.5s-0.3-0.2-0.5-0.2S22.1,17,22,17.1c-0.2,0.1-0.3,0.3-0.4,0.5s-0.2,0.5-0.3,0.8
		S21.2,19,21.2,19.3z"/>
</g>
</svg>
