<?xml version="1.0" encoding="utf-8"?>
<!-- Generator: Adobe Illustrator 24.1.2, SVG Export Plug-In . SVG Version: 6.00 Build 0)  -->
<svg version="1.1" id="Layer_1" xmlns="http://www.w3.org/2000/svg" xmlns:xlink="http://www.w3.org/1999/xlink" x="0px" y="0px"
	 viewBox="0 0 48 48" style="enable-background:new 0 0 48 48;" xml:space="preserve">
<style type="text/css">
	.st0{fill:#4A4A4A;}
</style>
<g>
	<g>
		<path class="st0" d="M42.8,8H7.7C7.2,8,6.8,8.3,6.6,8.7L3.1,21.6c-0.1,0.3-0.1,0.6,0,0.9l3.5,12.9C6.8,35.7,7.2,36,7.7,36h35.1
			c0.6,0,1.1-0.5,1.1-1.1V9.1C44,8.5,43.5,8,42.8,8z M42,33.1c0,0.5-0.4,0.9-0.9,0.9H9.5c-0.4,0-0.7-0.2-0.8-0.6L6,22.3
			c-0.1-0.2-0.1-0.4,0-0.6l2.7-11.1C8.8,10.2,9.1,10,9.5,10H41c0.5,0,0.9,0.4,0.9,0.9L42,33.1L42,33.1z"/>
	</g>
</g>
<g>
	<path class="st0" d="M20,17.4c0-0.8,0.1-1.4,0.3-2c0.2-0.6,0.5-1.3,0.8-1.7c0.3-0.5,0.8-0.9,1.2-1.1c0.5-0.3,0.9-0.5,1.5-0.5
		s1,0.2,1.5,0.5s0.9,0.6,1.2,1.1c0.3,0.5,0.6,1.1,0.8,1.7c0.2,0.6,0.3,1.4,0.3,2s-0.1,1.4-0.3,2c-0.2,0.6-0.5,1.3-0.8,1.7
		c-0.3,0.5-0.8,0.9-1.2,1.1c-0.5,0.2-0.9,0.5-1.5,0.5s-1-0.2-1.5-0.5s-0.9-0.6-1.2-1.1c-0.3-0.5-0.6-1.1-0.8-1.7S20,18.1,20,17.4z
		 M25.3,32h-2.2l11.1-20h2.3L25.3,32z M22.3,17.4c0,0.5,0,0.9,0.1,1.4s0.2,0.8,0.3,1.3c0.1,0.3,0.3,0.6,0.5,0.8
		c0.1,0.2,0.3,0.3,0.6,0.3c0.2,0,0.5-0.2,0.6-0.3c0.1-0.2,0.3-0.5,0.5-0.8c0.1-0.3,0.2-0.8,0.3-1.3c0.1-0.5,0.1-0.9,0.1-1.4
		s0-0.9-0.1-1.4s-0.2-0.8-0.3-1.3c-0.1-0.3-0.3-0.6-0.5-0.8s-0.3-0.3-0.6-0.3c-0.2,0-0.5,0.2-0.6,0.3c-0.1,0.2-0.3,0.5-0.5,0.8
		c-0.1,0.3-0.2,0.8-0.3,1.3C22.3,16.4,22.3,16.9,22.3,17.4z M32.2,26.6c0-0.8,0.1-1.4,0.3-2s0.5-1.3,0.8-1.7
		c0.3-0.5,0.8-0.9,1.2-1.1c0.5-0.2,0.9-0.5,1.5-0.5s1,0.2,1.5,0.5s0.9,0.6,1.2,1.1s0.6,1.1,0.8,1.7s0.3,1.4,0.3,2s-0.1,1.4-0.3,2
		s-0.5,1.3-0.8,1.7c-0.3,0.5-0.8,0.9-1.2,1.1c-0.5,0.2-0.9,0.5-1.5,0.5s-1-0.2-1.5-0.5s-0.9-0.6-1.2-1.1s-0.6-1.1-0.8-1.7
		C32.4,28.1,32.2,27.4,32.2,26.6z M34.5,26.6c0,0.5,0,0.9,0.1,1.4s0.2,0.8,0.3,1.3s0.3,0.6,0.5,0.8c0.2,0.2,0.3,0.3,0.6,0.3
		s0.5-0.2,0.6-0.3c0.1-0.2,0.3-0.5,0.5-0.8c0.1-0.3,0.2-0.8,0.3-1.3s0.1-0.9,0.1-1.4s0-0.9-0.1-1.4s-0.2-0.8-0.3-1.3
		c-0.1-0.3-0.3-0.6-0.5-0.8s-0.3-0.3-0.6-0.3s-0.5,0.2-0.6,0.3c-0.2,0.2-0.3,0.5-0.5,0.8c-0.1,0.3-0.2,0.8-0.3,1.3
		S34.5,26.2,34.5,26.6z"/>
</g>
<path class="st0" d="M12.5,19C10.6,19,9,20.6,9,22.5s1.6,3.5,3.5,3.5s3.5-1.6,3.5-3.5S14.4,19,12.5,19z M12.5,24
	c-0.8,0-1.5-0.7-1.5-1.5s0.7-1.5,1.5-1.5s1.5,0.7,1.5,1.5S13.3,24,12.5,24z"/>
</svg>
