<?xml version="1.0" encoding="UTF-8"?>
<svg xmlns="http://www.w3.org/2000/svg" xmlns:xlink="http://www.w3.org/1999/xlink" width="32px" height="32px" viewBox="0 0 32 32" x="0px" y="0px" version="1.1">
  <defs/>
  <g>
    <path d="M17.5,21.4c0.3-0.6,0.6-1.1,0.9-1.8c0,0.1,0.1,0.1,0.1,0.2c1.5,1.7,3.4,2.3,5.6,1.7c2.2-0.6,3.5-2.1,4-4.3c0.6-3-1.4-5.8-4.5-6.4c-2.9-0.5-5.8,1.4-6.3,4.3c-0.1,0.6-0.1,1.2-0.2,1.8c-0.3,3.4-3.1,6.2-6.5,6.5c-3.8,0.4-7.2-2.1-8-5.9C1.8,13.6,4.8,9.5,9.1,9c2.2-0.2,4.2,0.5,5.8,2c0,0,0.1,0.1,0.1,0.1c0,0,0,0,0,0c-0.3,0.6-0.6,1.1-0.9,1.7c-0.1-0.1-0.1-0.1-0.2-0.2c-1.5-1.6-3.4-2.3-5.5-1.7c-2.1,0.5-3.5,2-4,4.1c-0.7,2.9,1.2,6,4.2,6.6c3,0.7,6-1.3,6.6-4.3c0.1-0.6,0.1-1.3,0.2-1.9c0.3-3.3,3.1-6.1,6.5-6.5c3.9-0.4,7.2,2.1,8,5.8c0.9,4.2-2.1,8.3-6.4,8.7c-2.2,0.2-4-0.4-5.7-1.8C17.7,21.7,17.6,21.6,17.5,21.4C17.5,21.5,17.5,21.5,17.5,21.4z" fill="#4a4a4a" stroke="#4a4a4a" stroke-width="0"/>
  </g>
</svg>
