<?xml version="1.0" encoding="UTF-8"?>
<svg xmlns="http://www.w3.org/2000/svg" xmlns:xlink="http://www.w3.org/1999/xlink" width="32px" height="32px" viewBox="0 0 32 32" x="0px" y="0px" version="1.1">
  <defs/>
  <g>
    <path d="M29,11h-8c1.4-1,3.1-2.3,3.2-3.7c0.1-0.7-0.1-1.7-1.3-2.5C22.3,4.3,21.6,4,21,4c-2.1,0-3.3,2.4-3.9,4.6c-0.8-2.7-2.2-6.3-4.8-6.3c-0.7,0-1.5,0.3-2.2,0.9C8.7,4.4,8.5,5.6,8.7,6.4C9,8.3,11.1,9.9,13,11H5c-0.6,0-1,0.4-1,1v5c0,0.6,0.4,1,1,1h1v13c0,0.6,0.6,1,1.1,1H27c0.6,0,1-0.4,1-1V18h1c0.6,0,1-0.4,1-1v-5C30,11.4,29.6,11,29,11zM28,16H18v-3h10V16zM21,6.1c0.2,0,0.5,0.1,0.8,0.3c0.5,0.3,0.4,0.6,0.4,0.6C22.1,7.8,20.6,9,18.8,10C19.3,7.9,20.2,6.1,21,6.1zM10.7,6.1c0-0.2-0.1-0.6,0.7-1.3c0.2-0.2,0.6-0.4,0.9-0.4c1.1,0,2.3,2.8,3,5.5C13.1,8.8,10.9,7.3,10.7,6.1zM16,13v3H6v-3H16zM8,18h8v12H8V18zM18,30V18h8v12H18z" fill="#4a4a4a" stroke="#4a4a4a" stroke-width="0"/>
  </g>
</svg>
