<?xml version="1.0" encoding="utf-8"?>
<!-- Generator: Adobe Illustrator 21.0.0, SVG Export Plug-In . SVG Version: 6.00 Build 0)  -->
<svg version="1.1" id="Layer_3" xmlns="http://www.w3.org/2000/svg" xmlns:xlink="http://www.w3.org/1999/xlink" x="0px" y="0px"
	 viewBox="0 0 48 48" style="enable-background:new 0 0 48 48;" xml:space="preserve">
<style type="text/css">
	.st0{fill:#4A4A4A;}
	.st1{fill:#1AA9E8;}
</style>
<g>
	<g>
		<path class="st0" d="M10,22v20h28V22H10z M36,40H12V24h24V40z"/>
	</g>
</g>
<rect x="7" y="16" transform="matrix(0.7071 -0.7071 0.7071 0.7071 -12.1526 11.661)" class="st0" width="2" height="9"/>
<rect x="35.5" y="19.5" transform="matrix(0.7071 -0.7071 0.7071 0.7071 -2.7798 34.2884)" class="st0" width="9" height="2"/>
<path class="st1" d="M27.8,13.6l-3.2,5c-0.4,0.6-1,0.6-1.3,0l-3.2-5c-0.4-0.6-0.1-1.5,0.4-1.5h1.5V4.5c0-0.9,0.5-1.5,1-1.5H25
	c0.5,0,1,0.6,1,1.5v7.5h1.5C27.9,12.1,28.2,13,27.8,13.6z"/>
</svg>
