<?xml version="1.0" encoding="utf-8"?>
<!-- Generator: Adobe Illustrator 21.0.0, SVG Export Plug-In . SVG Version: 6.00 Build 0)  -->
<svg version="1.1" id="Layer_1" xmlns="http://www.w3.org/2000/svg" xmlns:xlink="http://www.w3.org/1999/xlink" x="0px" y="0px"
	 viewBox="0 0 32 32" style="enable-background:new 0 0 32 32;" xml:space="preserve">
<style type="text/css">
	.st0{fill:#F3F3F3;}
	.st1{fill:#FFF800;}
</style>
<rect x="2" y="4" class="st0" width="30" height="2"/>
<rect x="17" y="18" class="st0" width="15" height="2"/>
<rect x="30" y="6" class="st0" width="2" height="12"/>
<rect x="2" y="6" class="st0" width="2" height="12"/>
<rect x="2" y="18" class="st0" width="6" height="2"/>
<rect x="8" y="18" class="st0" width="2" height="10"/>
<rect x="7.8" y="21.5" transform="matrix(0.7636 -0.6457 0.6457 0.7636 -11.3143 14.0028)" class="st0" width="11.4" height="2"/>
<polygon class="st1" points="9.1,9 10,11 12,11.3 10.5,12.8 10.9,15 9.1,14 7.2,15 7.6,12.8 6.1,11.3 8.1,11 "/>
<polygon class="st1" points="16.9,9 17.9,11 19.9,11.3 18.4,12.8 18.8,15 16.9,14 15.1,15 15.5,12.8 14,11.3 16,11 "/>
<polygon class="st1" points="25.1,9 26,11 28,11.3 26.5,12.8 26.9,15 25.1,14 23.2,15 23.6,12.8 22.1,11.3 24.1,11 "/>
</svg>
