<?xml version="1.0" encoding="UTF-8"?>
<svg xmlns="http://www.w3.org/2000/svg" xmlns:xlink="http://www.w3.org/1999/xlink" width="32px" height="32px" viewBox="0 0 32 32" x="0px" y="0px" version="1.1">
  <defs/>
  <g>
    <path d="M26.1,12.7c0,0.2,0,0.4,0,0.5c0,5.2,0,10.4,0,15.6c0,0.8-0.2,1.1-0.9,1.3c-0.8,0.2-1.6,0.4-2.4,0.5c-3.4,0.4-6.8,0.4-10.1,0.2c-1.6-0.1-3.2-0.2-4.8-0.6c-0.2-0.1-0.4-0.1-0.6-0.2c-0.5-0.2-0.7-0.6-0.7-1.1c0-2.1,0-4.1,0-6.2c0-3.2,0-6.5,0-9.7c0-0.1,0-0.1,0-0.3C6.3,12.9,6.2,13,6.1,13c-0.5,0.2-0.8,0.1-1.1-0.3c-1.3-1.9-2.5-3.9-3.8-5.8C0.9,6.5,1,6,1.5,5.8c2.7-1.4,5.4-2.8,8.1-4.2c0.1-0.1,0.3-0.1,0.5-0.1c0.7,0,1.4,0,2.1,0c0.5,0,0.8,0.3,0.8,0.8c0.1,1.7,1.4,3,3,3c1.5,0,2.9-1.2,3.1-2.7c0-0.1,0-0.2,0-0.4c0-0.5,0.3-0.7,0.8-0.7c0.9,0,1.8,0,2.7,0c0.2,0,0.4,0.1,0.5,0.1c2.7,1.4,5.3,2.8,8,4.1c0.6,0.3,0.7,0.7,0.4,1.2c-1,1.9-2,3.8-3.1,5.7c-0.3,0.5-0.6,0.6-1.2,0.4c-0.3-0.1-0.7-0.2-1-0.3C26.2,12.7,26.2,12.7,26.1,12.7zM5.9,11.4c0.3-0.1,0.5-0.2,0.7-0.3c0.9-0.6,1.5,0,1.5,0.9c0,5.5,0,11,0,16.5c0,0.3,0.1,0.5,0.4,0.5c1.4,0.2,2.9,0.4,4.3,0.5c2.3,0.1,4.7,0.1,7,0c1.4,0,2.9-0.3,4.3-0.5c0.3,0,0.4-0.2,0.4-0.5c0-5.5,0-11.1,0-16.6c0-0.8,0.5-1.1,1.2-0.8c0.4,0.1,0.8,0.3,1.2,0.4c0.2,0.1,0.3,0,0.4-0.2c0.7-1.4,1.5-2.8,2.3-4.2c0-0.1,0.1-0.1,0.1-0.2c-0.1-0.1-0.2-0.1-0.2-0.1c-2-1-3.9-2-5.9-3.1C22.8,3.1,22,2.9,21,3c-0.3,0-0.4,0.1-0.5,0.4c-0.6,2.3-2.9,3.8-5.2,3.4c-2-0.4-3.2-1.6-3.7-3.5c0-0.1-0.1-0.2-0.1-0.2c-0.5,0-1-0.1-1.4,0.1C7.8,4.2,5.7,5.3,3.6,6.4C3.4,6.5,3.1,6.6,2.9,6.8C3.9,8.3,4.9,9.8,5.9,11.4z" fill="#4a4a4a" stroke="#4a4a4a" stroke-width="0"/>
  </g>
</svg>
