<?xml version="1.0" encoding="utf-8"?>
<!-- Generator: Adobe Illustrator 21.0.0, SVG Export Plug-In . SVG Version: 6.00 Build 0)  -->
<svg version="1.1" id="Layer_1" xmlns="http://www.w3.org/2000/svg" xmlns:xlink="http://www.w3.org/1999/xlink" x="0px" y="0px"
	 viewBox="0 0 32 32" style="enable-background:new 0 0 32 32;" xml:space="preserve">
<style type="text/css">
	.st0{fill:#4A4A4A;}
	.st1{fill:#229BFF;}
</style>
<g>
	<path class="st0" d="M23,4H9C8.5,4,8,4.5,8,5v22c0,0.5,0.5,1,1,1h14c0.5,0,1-0.5,1-1V5C24,4.5,23.5,4,23,4z M22,26H10V6h12V26z"/>
	<polygon class="st1" points="12,22 12,24 20,24 20,22 	"/>
	<polygon class="st1" points="12,18 12,20 20,20 20,18 	"/>
	<polygon class="st1" points="12,14 12,16 20,16 20,14 	"/>
	<polygon class="st1" points="12,10 12,12 20,12 20,10 	"/>
</g>
</svg>
