<?xml version="1.0" encoding="utf-8"?>
<!-- Generator: Adobe Illustrator 21.0.0, SVG Export Plug-In . SVG Version: 6.00 Build 0)  -->
<svg version="1.1" id="Layer_1" xmlns="http://www.w3.org/2000/svg" xmlns:xlink="http://www.w3.org/1999/xlink" x="0px" y="0px"
	 viewBox="0 0 48 48" style="enable-background:new 0 0 48 48;" xml:space="preserve">
<style type="text/css">
	.st0{fill:#F3F3F3;}
</style>
<g>
	<path class="st0" d="M6,18v12c0,1.1,0.9,2,2,2h0.1c0.2,2.2,2.1,4,4.4,4c2.4,0,4.4-1.9,4.5-4.3l0,0c0.3,0.2,0.6,0.3,1,0.3h10.1
		c0.2,2.2,2.1,4,4.4,4s4.1-1.8,4.4-4H40c1.1,0,2-0.9,2-2V12c0-1.1-0.9-2-2-2H18c-1.1,0-2,0.9-2,2v3v1H8C6.9,16,6,16.9,6,18z M16,18
		v6H8v-6H16z M30,31.5c0-1.4,1.1-2.5,2.5-2.5c1.4,0,2.5,1.1,2.5,2.5c0,1.4-1.1,2.5-2.5,2.5C31.1,34,30,32.9,30,31.5z M18,30V17l0,0
		v-5h22v18h-3.3c-0.6-1.7-2.3-3-4.2-3c-1.9,0-3.6,1.3-4.2,3H18z M10,31.5c0-1.4,1.1-2.5,2.5-2.5s2.5,1.1,2.5,2.5
		c0,1.4-1.1,2.5-2.5,2.5S10,32.9,10,31.5z"/>
</g>
</svg>
