<?xml version="1.0" encoding="utf-8"?>
<!-- Generator: Adobe Illustrator 21.0.0, SVG Export Plug-In . SVG Version: 6.00 Build 0)  -->
<svg version="1.1" id="Layer_1" xmlns="http://www.w3.org/2000/svg" xmlns:xlink="http://www.w3.org/1999/xlink" x="0px" y="0px"
	 viewBox="0 0 48 48" style="enable-background:new 0 0 48 48;" xml:space="preserve">
<style type="text/css">
	.st0{fill:#F3F3F3;}
</style>
<g>
	<polygon class="st0" points="43,31 41,31 38,28 37,28 34,31 21.3,31 18,28 17,28 13.7,31 9,31 9,11 32.9,11 43,18 43,18.7 33,15 
		33,24 43,25.5 	"/>
	<path class="st0" d="M32,10H10c-1.1,0-2,0.9-2,2v18c0,1.1,0.9,2,2,2h3.1c0.3,2.2,2.1,4,4.4,4s4.2-1.8,4.4-4H32c0.4,0,0.7-0.1,1-0.3
		l0,0c0.1,2.4,2.1,4.3,4.5,4.3c2.3,0,4.2-1.8,4.4-4H42c1.1,0,2-0.9,2-2V18C44,16.9,33.1,10,32,10z M42,19v6l-8-1v-8L42,19z M17.5,34
		c-1.4,0-2.5-1.1-2.5-2.5c0-1.4,1.1-2.5,2.5-2.5s2.5,1.1,2.5,2.5C20,32.9,18.9,34,17.5,34z M21.7,30c-0.6-1.7-2.3-3-4.2-3
		c-1.9,0-3.6,1.3-4.2,3H10V12h22l8,5l-8-3v3l0,0v8l10,1v4l0,0c0,0-1-3-4.5-3C33,27,33,30,33,30h-1H21.7z M37.5,34
		c-1.4,0-2.5-1.1-2.5-2.5c0-1.4,1.1-2.5,2.5-2.5s2.5,1.1,2.5,2.5C40,32.9,38.9,34,37.5,34z"/>
	<rect x="2" y="14" class="st0" width="4" height="2"/>
	<rect x="2" y="20" class="st0" width="4" height="2"/>
	<rect x="2" y="26" class="st0" width="4" height="2"/>
</g>
</svg>
