<?xml version="1.0" encoding="utf-8"?>
<!-- Generator: Adobe Illustrator 21.0.0, SVG Export Plug-In . SVG Version: 6.00 Build 0)  -->
<svg version="1.1" id="Layer_1" xmlns="http://www.w3.org/2000/svg" xmlns:xlink="http://www.w3.org/1999/xlink" x="0px" y="0px"
	 viewBox="0 0 32 32" style="enable-background:new 0 0 32 32;" xml:space="preserve">
<style type="text/css">
	.st0{fill:#22ABFF;}
	.st1{fill:#4A4A4A;}
</style>
<polygon class="st0" points="22,20 11,20 9,18 6,18 4.1,20 2,20 2,6 22,6 22,15 30,16 30,20 27,18 24,18 "/>
<g>
	<path class="st1" d="M20,4H2C0.9,4,0,4.9,0,6v14c0,1.1,0.9,2,2,2h1.1c0.3,2.2,2.1,4,4.4,4s4.2-1.8,4.4-4H20c0.4,0,0.7-0.1,1-0.3
		l0,0c0.1,2.4,2.1,4.3,4.5,4.3c2.3,0,4.2-1.8,4.4-4H30c1.1,0,2-0.9,2-2v-8C32,10.9,21.1,4,20,4z M25,11.4 M7.5,24
		C6.1,24,5,22.9,5,21.5S6.1,19,7.5,19s2.5,1.1,2.5,2.5S8.9,24,7.5,24z M11.7,20c-0.6-1.7-2.3-3-4.2-3s-3.6,1.3-4.2,3H2V6h20v14H11.7
		z M25.5,24c-1.4,0-2.5-1.1-2.5-2.5s1.1-2.5,2.5-2.5s2.5,1.1,2.5,2.5S26.9,24,25.5,24z M30,20h-0.3c-0.6-1.7-2.3-3-4.2-3
		c-1.4,0-2.7,1-3.5,2V7l8,5V20z"/>
</g>
<rect x="20" y="6" class="st1" width="2" height="9"/>
<path class="st1" d="M21,16h9v-2H20v1C20,15.6,20.4,16,21,16z"/>
</svg>
