<?xml version="1.0" encoding="UTF-8"?>
<svg xmlns="http://www.w3.org/2000/svg" xmlns:xlink="http://www.w3.org/1999/xlink" width="32px" height="32px" viewBox="0 0 32 32" x="0px" y="0px" version="1.1">
  <defs>
    <path id="triangle-outline" d="M26.4,28H5.6c-1.3,0-2.4-0.7-3.1-1.8s-0.6-2.7,0-3.8l10-18c0.6-1.1,1.8-1.8,3.1-1.8c1.3,0,2.5,0.7,3.1,1.8l10.9,18c0.6,1.1,0.6,2.7,0,3.8C28.9,27.3,27.7,28,26.4,28zM15.5,4.7c-0.6,0-1.1,0.3-1.4,0.8l-10,18c-0.3,0.5-0.3,1.1,0,1.6c0.3,0.5,0.8,1,1.3,1h20.9c0.6,0,1.1-0.5,1.3-1c0.3-0.5,0.3-1.1,0-1.6l-10.9-18C16.6,5,16.1,4.7,15.5,4.7z"/>
    <path id="cross" d="M21.073,19.092l-3.087-3.059l3.115-3.143c0.272-0.275,0.265-0.724-0.018-1.002l-1.02-1.009c-0.281-0.28-0.729-0.284-1.002-0.01l-3.115,3.145l-3.087-3.059c-0.282-0.28-0.729-0.284-1.002-0.009l-0.921,0.929c-0.272,0.275-0.263,0.723,0.019,1.001l3.086,3.059l-3.146,3.176c-0.271,0.273-0.263,0.723,0.019,1.002l1.018,1.01c0.282,0.278,0.732,0.282,1.002,0.009l3.146-3.176l3.088,3.059c0.282,0.28,0.73,0.285,1.002,0.011l0.921-0.93C21.365,19.82,21.355,19.371,21.073,19.092z"/>
  </defs>
  <g>
    <use xlink:href="#triangle-outline" fill="#4a4a4a" stroke="#4a4a4a" stroke-width="0"/>
    <use xlink:href="#cross" fill="#4a4a4a" stroke="#4a4a4a" stroke-width="0" transform="translate(-0.5 3)"/>
  </g>
</svg>
