<?xml version="1.0" encoding="UTF-8"?>
<svg xmlns="http://www.w3.org/2000/svg" xmlns:xlink="http://www.w3.org/1999/xlink" width="32px" height="32px" viewBox="0 0 32 32" x="0px" y="0px" version="1.1">
  <defs>
    <path id="textcloud" d="M11.9,29c-0.2,0-0.5,0-0.7-0.1c-0.7-0.3-1.2-1-1.2-1.8v-3.7c-4.4-1-7.5-5.2-7.5-10.1C2.5,7.7,6.8,3,12.1,3h7.8c5.3,0,9.6,4.6,9.6,10.3c0,5.7-4.3,10.3-9.6,10.3h-2.2l-4.5,4.7C12.9,28.8,12.4,29,11.9,29zM12.1,4.7c-4.4,0-7.9,3.9-7.9,8.6c0,4.3,2.8,7.9,6.8,8.6l0.7,0.1v5.1c0,0.1,0.1,0.2,0.1,0.2l0.1,0c0.1,0,0.1,0,0.1-0.1l5-5.2h2.9c4.4,0,7.9-3.9,7.9-8.7c0-4.8-3.6-8.6-7.9-8.6H12.1z"/>
    <path id="exclamationmark" d="M17.2,22.9c0,0.4-0.2,0.8-0.5,1.1c-0.3,0.3-0.7,0.4-1.1,0.4c-0.4,0-0.8-0.1-1-0.4c-0.3-0.3-0.4-0.6-0.4-1c0-0.4,0.2-0.8,0.5-1.1s0.7-0.4,1.1-0.4c0.4,0,0.8,0.1,1.1,0.4C17,22.1,17.2,22.4,17.2,22.9zM17.1,10.1c0,0.3-0.1,1.3-0.2,2.8l-0.6,6.8c0,0.4-0.2,0.6-0.5,0.6c-0.3,0-0.5-0.2-0.6-0.6l-0.7-6.8c-0.1-1.4-0.2-2.3-0.2-2.7c0-1.4,0.5-2.1,1.5-2.1c0.5,0,0.9,0.3,1.1,0.8C17,9.1,17.1,9.6,17.1,10.1z"/>
  </defs>
  <g>
    <use xlink:href="#textcloud" fill="#ffffff" stroke="#ffffff" stroke-width="0"/>
    <use xlink:href="#exclamationmark" transform="scale(0.8, 0.8) translate(4, 0)" fill="#ffffff" stroke="#ffffff" stroke-width="0"/>
  </g>
</svg>
