<?xml version="1.0" encoding="UTF-8"?>
<svg xmlns="http://www.w3.org/2000/svg" xmlns:xlink="http://www.w3.org/1999/xlink" width="32px" height="32px" viewBox="0 0 32 32" x="0px" y="0px" version="1.1">
  <defs/>
  <g>
    <path d="M23.9,7c0.5,1.3,0.8,2.4,0.5,3.5c0,0.2-0.1,0.5-0.2,0.7c-1.2,3.1-2.5,6.3-3.7,9.4c-0.3,0.6-0.9,0.9-1.4,0.7c-0.5-0.2-0.8-0.8-0.6-1.3c0-0.1,0.1-0.2,0.1-0.2c1.2-3,2.3-6,3.6-8.9c0.7-1.6,0.3-2.9-0.8-4.1c-1.2-1.3-3.1-1.7-4.7-0.9c-0.9,0.4-1.4,1.1-1.9,2c-0.1,0.2-0.2,0.5-0.3,0.8c-1.8,4.3-3.6,8.7-5.4,13c-0.3,0.8-0.4,1.6-0.1,2.5c0.4,1.1,1.2,1.7,2.4,2c0.5,0.1,1-0.1,1.4-0.5c0.4-0.4,0.7-0.9,0.9-1.4c1.3-3.2,2.5-6.4,3.8-9.5c0,0,0-0.1,0-0.1c0.3-0.8-0.2-1.5-1.1-1.5c-0.3,0-0.5,0.1-0.6,0.3c-0.1,0.2-0.2,0.4-0.3,0.5c-1.1,2.8-2.2,5.6-3.3,8.4c-0.2,0.5-0.5,0.8-1,0.8c-0.7,0-1.3-0.7-1-1.4c0-0.1,0-0.1,0.1-0.2c1.1-2.8,2.2-5.6,3.3-8.4c0.5-1.3,1.9-2.2,3.3-2.2c1.1,0.1,1.9,0.7,2.4,1.6c0.5,1,0.6,2,0.1,3.1c-1.3,3.1-2.5,6.3-3.8,9.4c-0.5,1.1-1.3,2-2.4,2.6c-1.8,0.8-3.8,0.4-5.1-1.2C6.7,24.8,6.3,23,6.9,21c0-0.2,0.1-0.3,0.2-0.5c1.8-4.3,3.6-8.6,5.3-12.9c0.4-1.1,1-2.1,1.9-2.8c1.4-1.3,3.1-1.7,4.9-1.5c1.9,0.2,3.2,1.2,4.1,2.7C23.6,6.5,23.8,6.8,23.9,7z" fill="#4a4a4a" stroke="#4a4a4a" stroke-width="0"/>
  </g>
</svg>
