<?xml version="1.0" encoding="UTF-8"?>
<svg xmlns="http://www.w3.org/2000/svg" xmlns:xlink="http://www.w3.org/1999/xlink" width="32px" height="32px" viewBox="0 0 32 32" x="0px" y="0px" version="1.1">
  <defs/>
  <g>
    <path d="M27,2H5C4.4,2,4,2.4,4,3v26c0,0.6,0.4,1,1,1h18c0.6,0,1-0.4,1-1V10h3c0.6,0,1-0.4,1-1V3C28,2.4,27.6,2,27,2zM26,8h-3c-0.6,0-1,0.4-1,1v19H6V4h20V8z" fill="#4a4a4a" stroke="#4a4a4a" stroke-width="0"/>
    <path d="M11,10.4c0,0.3,0.2,0.5,0.4,0.5c0,0,0,0,0,0c0.1,1.2,1,2.4,2.2,2.4c1.2,0,2.1-1.2,2.2-2.4c0,0,0,0,0,0c0.2,0,0.4-0.2,0.4-0.5c0-0.2-0.1-0.3-0.3-0.4c0.1-0.3,0.1-0.6,0.1-0.9c0-1.5-1.1-2.7-2.5-2.7c-1.4,0-2.5,1.2-2.5,2.7c0,0.3,0,0.6,0.1,0.9C11.1,10,11,10.2,11,10.4z" fill="#4a4a4a" stroke="#4a4a4a" stroke-width="0"/>
    <path d="M8.7,17.9h10.8c0.1,0,0.2-0.1,0.2-0.2v-0.8c0-0.1,0-0.1-0.1-0.2c-1-1-2.3-1.7-3.7-2c0,0-0.1,0-0.1,0h-0.1c0,0-0.1,0-0.1,0c-0.4,0.2-1,0.3-1.5,0.3c-0.6,0-1.1-0.1-1.5-0.3c0,0-0.1,0-0.1,0h-0.1c0,0,0,0-0.1,0c-1.4,0.3-2.7,1-3.7,2.1c0,0-0.1,0.1-0.1,0.2v0.8C8.5,17.8,8.6,17.9,8.7,17.9z" fill="#4a4a4a" stroke="#4a4a4a" stroke-width="0"/>
    <path d="M27,11h-2v8h2c0.6,0,1-0.4,1-1v-6C28,11.4,27.6,11,27,11z" fill="#4a4a4a" stroke="#4a4a4a" stroke-width="0"/>
    <path d="M27,20h-2v9h2c0.6,0,1-0.4,1-1v-7C28,20.4,27.6,20,27,20z" fill="#4a4a4a" stroke="#4a4a4a" stroke-width="0"/>
    <path d="M12.5,23.9h-4c-0.5,0-1-0.4-1-1v0c0-0.5,0.4-1,1-1h4c0.5,0,1,0.4,1,1v0C13.5,23.5,13.1,23.9,12.5,23.9z" fill="#4a4a4a" stroke="#4a4a4a" stroke-width="0"/>
    <path d="M19.5,23.9h-4c-0.5,0-1-0.4-1-1v0c0-0.5,0.4-1,1-1h4c0.5,0,1,0.4,1,1v0C20.5,23.5,20.1,23.9,19.5,23.9z" fill="#4a4a4a" stroke="#4a4a4a" stroke-width="0"/>
  </g>
</svg>
