<?xml version="1.0" encoding="utf-8"?>
<!-- Generator: Adobe Illustrator 19.2.1, SVG Export Plug-In . SVG Version: 6.00 Build 0)  -->
<svg version="1.1" id="Layer_1" xmlns="http://www.w3.org/2000/svg" xmlns:xlink="http://www.w3.org/1999/xlink" x="0px" y="0px"
	 viewBox="0 0 48 48" style="enable-background:new 0 0 48 48;" xml:space="preserve">
<style type="text/css">
	.st0{fill:#4A4A4A;}
</style>
<g>
	<path class="st0" d="M42.3,4H5.7C4.7,4,4,4.6,4,5.5v37.1C4,43.4,4.7,44,5.7,44h30c1,0,2.3-1.1,2.3-2V16h5c1,0,1-0.1,1-1V5.5
		C44,4.6,43.3,4,42.3,4z M42,14h-4c-1,0-2,1.1-2,2v26H6V6h36V14z"/>
	<path class="st0" d="M16,16.8c0,0.4,0.4,0.7,0.8,0.7l0,0C17,19.2,18.7,21,21,21s4-1.8,4.2-3.5l0,0c0.4,0,0.8-0.3,0.8-0.7
		c0-0.3-0.2-0.4-0.6-0.6c0.2-0.4,0.2-0.9,0.2-1.3c0-2.2-2.1-4-4.8-4s-4.8,1.8-4.8,4c0,0.4,0,0.9,0.2,1.3C16.2,16.2,16,16.5,16,16.8z
		"/>
	<path class="st0" d="M12.3,30h17.4c0.2,0,0.3-0.2,0.3-0.4v-1.5c0-0.2,0-0.2-0.2-0.4c-1.6-1.9-3.7-3.2-5.9-3.8h-0.2h-0.2h-0.2
		c-0.6,0.4-1.6,0.6-2.4,0.6c-1,0-1.8-0.2-2.4-0.6h-0.2h-0.2c0,0,0,0-0.2,0c-2.2,0.6-4.3,1.9-5.9,3.9c0,0-0.2,0.2-0.2,0.4v1.5
		C12,29.8,12.2,30,12.3,30z"/>
	<path class="st0" d="M42,18h-2v12h3c1,0,1-0.8,1-1.7v-9.6C44,17.8,43,18,42,18z"/>
	<path class="st0" d="M18.3,38h-6.7c-0.8,0-1.7-0.8-1.7-2l0,0c0-1,0.7-2,1.7-2h6.7c0.8,0,1.7,0.8,1.7,2l0,0C20,37.2,19.3,38,18.3,38
		z"/>
	<path class="st0" d="M30.3,38h-6.7c-0.8,0-1.7-0.8-1.7-2l0,0c0-1,0.7-2,1.7-2h6.7c0.8,0,1.7,0.8,1.7,2l0,0C32,37.2,31.3,38,30.3,38
		z"/>
	<path class="st0" d="M42,32h-2v12h3c1,0,1-0.8,1-1.7v-9.6C44,31.8,43,32,42,32z"/>
</g>
</svg>
