<?xml version="1.0" encoding="UTF-8"?>
<svg xmlns="http://www.w3.org/2000/svg" xmlns:xlink="http://www.w3.org/1999/xlink" width="32px" height="32px" viewBox="0 0 32 32" x="0px" y="0px" version="1.1">
  <defs>
    <g id="peopletjes">
      <path d="M29.8,17.2c-1-1-2.3-1.7-3.6-2c0,0-0.1,0-0.1,0H26c0,0-0.1,0-0.1,0c-0.4,0.2-1,0.3-1.5,0.3c-0.6,0-1.1-0.1-1.5-0.3c0,0-0.1,0-0.1,0h-0.1c0,0,0,0-0.1,0c-0.6,0.1-1.2,0.4-1.7,0.6c-0.3,1-0.8,1.9-1.6,2.7h10.5c0.1,0,0.2-0.1,0.2-0.2v-0.8C29.9,17.3,29.9,17.2,29.8,17.2z"/>
      <path d="M21.7,11.4c0,0.3,0.2,0.5,0.4,0.5c0,0,0,0,0,0c0.1,1.2,1,2.4,2.2,2.4c1.2,0,2.1-1.2,2.2-2.4c0,0,0,0,0,0c0.2,0,0.4-0.2,0.4-0.5c0-0.2-0.1-0.3-0.3-0.4c0.1-0.3,0.1-0.6,0.1-0.9c0-1.5-1.1-2.7-2.5-2.7c-1.4,0-2.5,1.2-2.5,2.7c0,0.3,0,0.6,0.1,0.9C21.8,11,21.7,11.2,21.7,11.4z"/>
      <path d="M11.4,15.7c-0.5-0.2-1-0.4-1.5-0.5c0,0-0.1,0-0.1,0H9.7c0,0-0.1,0-0.1,0c-0.4,0.2-1,0.3-1.5,0.3s-1.1-0.1-1.5-0.3c0,0-0.1,0-0.1,0H6.3c0,0,0,0-0.1,0c-1.4,0.3-2.7,1-3.7,2.1c0,0-0.1,0.1-0.1,0.2v0.8c0,0.1,0.1,0.2,0.2,0.2H13C12.3,17.7,11.7,16.7,11.4,15.7z"/>
      <path d="M5.4,11.4c0,0.3,0.2,0.5,0.4,0.5c0,0,0,0,0,0c0.1,1.2,1,2.4,2.2,2.4c1.2,0,2.1-1.2,2.2-2.4c0,0,0,0,0,0c0.2,0,0.4-0.2,0.4-0.5c0-0.2-0.1-0.3-0.3-0.4c0.1-0.3,0.1-0.6,0.1-0.9c0-1.5-1.1-2.7-2.5-2.7c-1.4,0-2.5,1.2-2.5,2.7c0,0.3,0,0.6,0.1,0.9C5.5,11,5.4,11.2,5.4,11.4z"/>
      <path d="M11.6,13.8c0,0.4,0.3,0.8,0.7,0.8c0,0,0,0,0,0c0.1,0.8,0.3,1.5,0.7,2.2c0.2,0.3,0.4,0.5,0.6,0.7c0.7,0.7,1.5,1.2,2.5,1.2c1,0,1.9-0.5,2.6-1.3c0.1-0.1,0.2-0.2,0.2-0.3c0.5-0.7,0.9-1.6,0.9-2.5c0,0,0,0,0,0c0.4,0,0.7-0.4,0.7-0.8c0-0.3-0.2-0.6-0.4-0.7c0.1-0.5,0.2-1,0.2-1.5C20.4,9,18.5,7,16.1,7s-4.3,2-4.3,4.6c0,0.5,0.1,1,0.2,1.5C11.8,13.2,11.6,13.4,11.6,13.8z"/>
      <path d="M19.3,20c-0.1,0-0.1,0-0.2,0h-0.2c-0.1,0-0.1,0-0.2,0c-0.7,0.4-1.7,0.6-2.6,0.6s-1.9-0.2-2.6-0.6c-0.1,0-0.1,0-0.2,0h-0.2c0,0-0.1,0-0.1,0c-2.4,0.6-4.6,1.8-6.4,3.5c-0.1,0.1-0.1,0.2-0.1,0.3v1.4c0,0.2,0.2,0.4,0.4,0.4h18.3c0.2,0,0.4-0.2,0.4-0.4v-1.4c0-0.1,0-0.2-0.1-0.3C23.8,21.7,21.7,20.5,19.3,20z"/>
    </g>
    <rect id="maskcanvas" width="32px" height="32px" fill="#ffffff"/>
    <mask id="funnelmask">
      <use xlink:href="#maskcanvas"/>
      <path d="M29.9,4c-4.7,0-9.3,0-14,0c-0.9,0-1.7,0-2.6,0C9.5,4,5.8,4,2,4C1.7,4,1.4,4.1,1.3,4.5C1.1,4.8,1.2,5.1,1.4,5.4C1.6,5.7,2,6,2.3,6.3c3.3,3.3,6.1,6.8,9.5,10.1c0.2,0.2,0.2,0.3,0.2,0.6c0,0,0,11.2,0,11.2c0,0.7,0.5,1,1.2,0.7c1.8-0.7,4.6-2,6.3-2.9c0.4-0.2,0.5-0.5,0.5-0.9c0-2.8,0-5.3,0-8.1c0-0.2,0.1-0.4,0.2-0.5L30.4,5.4c0.1-0.1,0.2-0.4,0.2-0.5C30.7,4.4,30.4,4,29.9,4zM18.3,15.2c-0.2,0.2-0.3,0.5-0.3,0.8c0,0,0,8.5,0,8.5c0,0.2-0.1,0.2-0.3,0.4L14,26.7V16c0-0.3-0.2-0.6-0.4-0.8L5,6h22L18.3,15.2z" fill="#000000" stroke="#000000" stroke-width="2" transform="scale(0.6) translate(22 24)"/>
      <path d="M18.3,15.2C18.1,15.4 18,15.7 18,16L18,24.5C18,24.7 17.9,24.7 17.7,24.9L14,26.7L14,16C14,15.7 13.8,15.4 13.6,15.2L5,6L27,6L18.3,15.2Z" fill="#000000" stroke="#000000" stroke-width="2" transform="scale(0.6) translate(22 24)"/>
    </mask>
    <path id="funnel" d="M29.9,4c-4.7,0-9.3,0-14,0c-0.9,0-1.7,0-2.6,0C9.5,4,5.8,4,2,4C1.7,4,1.4,4.1,1.3,4.5C1.1,4.8,1.2,5.1,1.4,5.4C1.6,5.7,2,6,2.3,6.3c3.3,3.3,6.1,6.8,9.5,10.1c0.2,0.2,0.2,0.3,0.2,0.6c0,0,0,11.2,0,11.2c0,0.7,0.5,1,1.2,0.7c1.8-0.7,4.6-2,6.3-2.9c0.4-0.2,0.5-0.5,0.5-0.9c0-2.8,0-5.3,0-8.1c0-0.2,0.1-0.4,0.2-0.5L30.4,5.4c0.1-0.1,0.2-0.4,0.2-0.5C30.7,4.4,30.4,4,29.9,4zM18.3,15.2c-0.2,0.2-0.3,0.5-0.3,0.8c0,0,0,8.5,0,8.5c0,0.2-0.1,0.2-0.3,0.4L14,26.7V16c0-0.3-0.2-0.6-0.4-0.8L5,6h22L18.3,15.2z"/>
  </defs>
  <g>
    <use xlink:href="#peopletjes" fill="#4a4a4a" stroke="#4a4a4a" stroke-width="0" style="mask:url(&quot;#funnelmask&quot;);"/>
    <use xlink:href="#funnel" fill="#4a4a4a" stroke="#4a4a4a" stroke-width="0" transform="scale(0.6) translate(22 24)"/>
  </g>
</svg>
