<?xml version="1.0" encoding="utf-8"?>
<!-- Generator: Adobe Illustrator 21.0.0, SVG Export Plug-In . SVG Version: 6.00 Build 0)  -->
<svg version="1.1" id="Layer_1" xmlns="http://www.w3.org/2000/svg" xmlns:xlink="http://www.w3.org/1999/xlink" x="0px" y="0px"
	 viewBox="0 0 48 48" style="enable-background:new 0 0 48 48;" xml:space="preserve">
<style type="text/css">
	.st0{fill:#4A4A4A;}
</style>
<g>
	<g>
		<g id="envelop">
			<path class="st0" d="M44,12H18c-2,0-2,2-2,2v20c0,0,0.1,2,2,2h26c1.9,0,2-2,2-2V14C46,14,46,12,44,12z M43,34H19
				c-0.6,0-1-0.4-1-1V15c0-0.6,0.4-1,1-1h24c0.6,0,1,0.4,1,1v18C44,33.6,43.6,34,43,34z"/>
			<path class="st0" d="M41.1,19.3c-0.5-0.6-1.5-0.8-2.1-0.3l-7.4,5.3c-0.3,0.2-0.8,0.2-1.2,0L23,19c-0.6-0.5-1.6-0.3-2.1,0.3
				c-0.4,0.6-0.3,1.7,0.3,2.1l8.7,6.3c0.1,0.2,0.4,0.2,0.6,0.3c0.1,0,0.1,0,0.3,0c0.2,0,0.2,0,0.3,0c0.3,0,0.4-0.1,0.6-0.3l8.7-6.3
				C41.3,21,41.5,20,41.1,19.3z"/>
		</g>
	</g>
</g>
</svg>
