<?xml version="1.0" encoding="utf-8"?>
<!-- Generator: Adobe Illustrator 19.2.1, SVG Export Plug-In . SVG Version: 6.00 Build 0)  -->
<svg version="1.1" id="Layer_1" xmlns="http://www.w3.org/2000/svg" xmlns:xlink="http://www.w3.org/1999/xlink" x="0px" y="0px"
	 viewBox="0 0 48 48" style="enable-background:new 0 0 48 48;" xml:space="preserve">
<style type="text/css">
	.st0{fill:#F4F4F4;}
	.st1{fill:#4A4A4A;}
</style>
<rect x="5" y="13" class="st0" width="28" height="22"/>
<g>
	<g>
		<g id="envelop">
			<path class="st1" d="M32,12H6c-2,0-2,2-2,2v20c0,0,0.1,2,2,2h26c1.9,0,2-2,2-2V14C34,14,34,12,32,12z M31,34H7c-0.6,0-1-0.4-1-1
				V15c0-0.6,0.4-1,1-1h24c0.6,0,1,0.4,1,1v18C32,33.6,31.6,34,31,34z"/>
			<path class="st1" d="M29.1,19.3c-0.5-0.6-1.5-0.8-2.1-0.3l-7.4,5.3c-0.3,0.2-0.8,0.2-1.2,0L11,19c-0.6-0.5-1.6-0.3-2.1,0.3
				c-0.4,0.6-0.3,1.7,0.3,2.1l8.7,6.3c0.1,0.2,0.4,0.2,0.6,0.3c0.1,0,0.1,0,0.3,0c0.2,0,0.2,0,0.3,0c0.3,0,0.4-0.1,0.6-0.3l8.7-6.3
				C29.3,21,29.5,20,29.1,19.3z"/>
		</g>
	</g>
</g>
<g>
	<g>
		<circle class="st0" cx="39" cy="36" r="5"/>
		<ellipse class="st0" cx="30.2" cy="36" rx="4.8" ry="5"/>
	</g>
	<path class="st1" d="M39.1,30.9c-1.9,0-3.5,1.1-4.3,2.6c-0.8-1.6-2.5-2.6-4.3-2.6c-2.7,0-4.9,2.3-4.9,5.1s2.2,5,4.9,5
		c1.9,0,3.5-1.1,4.3-2.6c0.8,1.6,2.5,2.6,4.3,2.6c2.7,0,4.9-2.3,4.9-5C44,33.2,41.8,30.9,39.1,30.9z M30.4,39.7
		c-2,0-3.7-1.7-3.7-3.8s1.7-3.8,3.7-3.8s3.7,1.7,3.7,3.8S32.4,39.7,30.4,39.7z M39.1,39.7c-2,0-3.7-1.7-3.7-3.8s1.7-3.8,3.7-3.8
		s3.7,1.7,3.7,3.8S41.1,39.7,39.1,39.7z"/>
	<g transform="scale(0.6) translate(21 25)">
		<g id="eyes-pupils">
			<path class="st1" d="M29.6,32.9c-1,0-1.8,0.8-1.8,1.8s0.8,1.8,1.8,1.8s1.8-0.8,1.8-1.8S30.6,32.9,29.6,32.9z M30.8,35.4
				c-0.1,0.1-0.2,0.2-0.3,0.3c-0.1,0.1-0.2,0-0.3-0.1c-0.1-0.1,0-0.2,0.1-0.3s0.2-0.1,0.2-0.2V35c0.1-0.1,0.1-0.3,0.1-0.4
				c0-0.1,0-0.2-0.1-0.3s0-0.2,0.1-0.3s0.2,0,0.3,0.1C31.1,34.5,31,35,30.8,35.4z"/>
			<path class="st1" d="M44,32.9c-1,0-1.8,0.8-1.8,1.8s0.8,1.8,1.8,1.8s1.8-0.8,1.8-1.8S45,32.9,44,32.9z M45.1,35.4
				c-0.1,0.1-0.2,0.2-0.3,0.3s-0.2,0-0.3-0.1s0-0.2,0.1-0.3s0.2-0.1,0.2-0.2c0,0,0,0,0-0.1c0.1-0.1,0.1-0.3,0.1-0.4
				c0-0.1,0-0.2-0.1-0.3s0-0.2,0.1-0.3s0.2,0,0.3,0.1C45.5,34.5,45.4,35,45.1,35.4z"/>
		</g>
	</g>
</g>
</svg>
