<?xml version="1.0" encoding="UTF-8"?>
<svg xmlns="http://www.w3.org/2000/svg" xmlns:xlink="http://www.w3.org/1999/xlink" width="32px" height="32px" viewBox="0 0 32 32" x="0px" y="0px" version="1.1">
  <defs>
    <g id="envelop">
      <path d="M29,8H11.3C10,8,10,9,10,9v14c0,0,0,1,1,1h18c1,0,1-1,1-1V9C30,9,30,8.1,29,8zM28,22H12V10h16V22z"/>
      <path d="M26.7,12.9c-0.3-0.4-1-0.5-1.4-0.2L20,16.5l-5.3-3.8c-0.4-0.3-1.1-0.2-1.4,0.2s-0.2,1.1,0.2,1.4l5.8,4.2c0.1,0.1,0.3,0.1,0.4,0.2c0.1,0,0.1,0,0.2,0c0.1,0,0.1,0,0.2,0c0.2,0,0.3-0.1,0.4-0.2l5.8-4.2C26.9,14,27,13.3,26.7,12.9z"/>
    </g>
    <g id="eyes-pupils">
      <path d="M7.385,12.04c-1.62,0-2.934,1.341-2.934,2.994s1.313,2.994,2.934,2.994c1.62,0,2.933-1.341,2.933-2.994S9.005,12.04,7.385,12.04zM9.292,16.195c-0.14,0.176-0.312,0.337-0.513,0.461c-0.182,0.113-0.413,0.062-0.522-0.115c-0.108-0.176-0.054-0.408,0.129-0.521c0.149-0.093,0.269-0.217,0.36-0.354c0.028-0.042,0.053-0.084,0.074-0.128c0.1-0.197,0.138-0.419,0.115-0.641c-0.019-0.163-0.067-0.324-0.16-0.473c-0.108-0.176-0.053-0.408,0.129-0.52c0.178-0.11,0.412-0.06,0.521,0.117C9.854,14.713,9.773,15.578,9.292,16.195z"/>
      <path d="M21.915,12.04c-1.619,0-2.933,1.341-2.933,2.994s1.313,2.994,2.933,2.994c1.62,0,2.934-1.341,2.934-2.994S23.535,12.04,21.915,12.04zM23.729,16.196c-0.14,0.176-0.312,0.336-0.513,0.461c-0.182,0.113-0.413,0.061-0.522-0.116c-0.108-0.175-0.054-0.407,0.129-0.52c0.149-0.093,0.269-0.217,0.36-0.355c0.028-0.042,0.053-0.083,0.074-0.127c0.1-0.197,0.138-0.419,0.115-0.641c-0.019-0.163-0.067-0.324-0.16-0.473c-0.108-0.176-0.053-0.408,0.129-0.52c0.178-0.11,0.412-0.06,0.521,0.117C24.292,14.713,24.211,15.578,23.729,16.196z"/>
    </g>
    <g id="eyes-pupils-highlights">
      <path d="M9.425,14.021c0.43,0.691,0.349,1.557-0.133,2.174c-0.14,0.176-0.312,0.337-0.513,0.461c-0.182,0.113-0.413,0.062-0.522-0.115c-0.108-0.176-0.054-0.408,0.129-0.521c0.149-0.093,0.269-0.217,0.36-0.354c0.028-0.042,0.053-0.084,0.074-0.128c0.1-0.197,0.138-0.419,0.115-0.641c-0.019-0.163-0.067-0.324-0.16-0.473c-0.108-0.176-0.053-0.408,0.129-0.52C9.082,13.794,9.316,13.845,9.425,14.021z"/>
      <path d="M23.862,14.021c0.43,0.691,0.349,1.556-0.133,2.174c-0.14,0.176-0.312,0.336-0.513,0.461c-0.182,0.113-0.413,0.061-0.522-0.116c-0.108-0.175-0.054-0.407,0.129-0.52c0.149-0.093,0.269-0.217,0.36-0.355c0.028-0.042,0.053-0.083,0.074-0.127c0.1-0.197,0.138-0.419,0.115-0.641c-0.019-0.163-0.067-0.324-0.16-0.473c-0.108-0.176-0.053-0.408,0.129-0.52C23.52,13.794,23.754,13.845,23.862,14.021z"/>
    </g>
    <rect id="maskcanvas" width="32px" height="32px" fill="#ffffff"/>
    <mask id="eyesmask">
      <use xlink:href="#maskcanvas"/>
      <path stroke-miterlimit="10" d="M23.131,8.667c-3.102,0-5.807,1.76-7.213,4.351c-1.407-2.591-4.112-4.351-7.214-4.351c-4.546,0-8.245,3.776-8.245,8.417S4.158,25.5,8.704,25.5c3.102,0,5.807-1.76,7.214-4.351c1.407,2.591,4.112,4.351,7.213,4.351c4.547,0,8.244-3.775,8.244-8.416S27.678,8.667,23.131,8.667z" transform="scale(0.6 0.6) translate(37 24)" fill="#000000" stroke="#000000" stroke-width="2"/>
    </mask>
    <mask id="eyes-pupils-mask">
      <use xlink:href="#maskcanvas"/>
      <use xlink:href="#eyes-pupils" fill="#000000"/>
    </mask>
  </defs>
  <g>
    <use xlink:href="#envelop" fill="#ffffff" stroke="#ffffff" stroke-width="0" transform="translate(-10 0)" style="mask:url(&quot;#eyesmask&quot;);"/>
    <path d="M23.131,8.667c-3.102,0-5.807,1.76-7.214,4.351c-1.407-2.591-4.112-4.351-7.214-4.351c-4.546,0-8.245,3.776-8.245,8.417c0,4.641,3.699,8.416,8.245,8.416c3.102,0,5.807-1.76,7.214-4.351c1.407,2.591,4.112,4.351,7.214,4.351c4.546,0,8.244-3.775,8.244-8.416C31.375,12.443,27.677,8.667,23.131,8.667zM8.703,23.396c-3.41,0-6.184-2.831-6.184-6.312c0-3.481,2.774-6.313,6.184-6.313s6.183,2.832,6.183,6.313C14.886,20.564,12.113,23.396,8.703,23.396zM23.131,23.396c-3.41,0-6.184-2.831-6.184-6.312c0-3.481,2.773-6.313,6.184-6.313c3.409,0,6.183,2.832,6.183,6.313C29.313,20.564,26.54,23.396,23.131,23.396z" fill="#ffffff" stroke="#ffffff" stroke-width="0" transform="scale(0.6) translate(21 25)"/>
    <ellipse cx="23.131" cy="17.084" rx="7.214" ry="7.364" fill="#ffffff" stroke="#ffffff" stroke-width="0" transform="scale(0.6) translate(21 25)" style="mask:url(&quot;#eyes-pupils-mask&quot;);"/>
    <ellipse cx="8.703" cy="17.084" rx="7.214" ry="7.364" fill="#ffffff" stroke="#ffffff" stroke-width="0" transform="scale(0.6) translate(21 25)" style="mask:url(&quot;#eyes-pupils-mask&quot;);"/>
    <use xlink:href="#eyes-pupils-highlights" fill="#ffffff" stroke="#ffffff" stroke-width="0" transform="scale(0.6) translate(21 25)"/>
  </g>
</svg>
