<?xml version="1.0" encoding="UTF-8"?>
<svg xmlns="http://www.w3.org/2000/svg" xmlns:xlink="http://www.w3.org/1999/xlink" width="32px" height="32px" viewBox="0 0 32 32" x="0px" y="0px" version="1.1">
  <defs>
    <g id="envelop">
      <path d="M29,8H11.3C10,8,10,9,10,9v14c0,0,0,1,1,1h18c1,0,1-1,1-1V9C30,9,30,8.1,29,8zM28,22H12V10h16V22z"/>
      <path d="M26.7,12.9c-0.3-0.4-1-0.5-1.4-0.2L20,16.5l-5.3-3.8c-0.4-0.3-1.1-0.2-1.4,0.2s-0.2,1.1,0.2,1.4l5.8,4.2c0.1,0.1,0.3,0.1,0.4,0.2c0.1,0,0.1,0,0.2,0c0.1,0,0.1,0,0.2,0c0.2,0,0.3-0.1,0.4-0.2l5.8-4.2C26.9,14,27,13.3,26.7,12.9z"/>
    </g>
    <path id="curvedarrow" d="M25.7,11.2l-5-5.1C20.5,6,20.3,6,20.1,6.1c-0.1,0-0.1,0.1-0.1,0.1c0,0,0,0,0,0c0,0-0.1,0.1-0.1,0.1c0,0,0,0,0,0c0,0,0,0.1,0,0.1c0,0,0,0,0,0c0,0,0,0.1,0,0.1V9c-5.5,0.6-9,3.7-9,7c0,2.3,2,4.4,5.4,5.6c0,0,0.1,0,0.1,0c0.1,0,0.3-0.1,0.3-0.2c0.1-0.2,0-0.4-0.2-0.5c-1.7-0.8-2.6-1.9-2.6-3.1c0-2,2.2-3.6,5.9-3.8l0,2.4c0,0.2,0.1,0.4,0.3,0.5c0,0,0.1,0,0.1,0c0,0,0.1,0,0.1,0h0c0.1,0,0.3,0,0.4-0.1l5-4.7c0.2-0.1,0.3-0.3,0.3-0.5C26,11.5,25.9,11.3,25.7,11.2z"/>
    <rect id="maskcanvas" width="32px" height="32px" fill="#ffffff"/>
    <mask id="replyarrowmask">
      <use xlink:href="#maskcanvas"/>
      <use xlink:href="#curvedarrow" transform="rotate(220) translate(1 -7)" fill="#000000" stroke="#000000" stroke-width="2" style="transform-origin:16px 16px;"/>
    </mask>
  </defs>
  <g>
    <use xlink:href="#curvedarrow" fill="#ffffff" stroke="#ffffff" stroke-width="0" transform="rotate(220) translate(1 -7)" style="transform-origin:16px 16px;"/>
    <use xlink:href="#envelop" fill="#ffffff" stroke="#ffffff" stroke-width="0" transform="translate(0 0)" style="mask:url(&quot;#replyarrowmask&quot;);"/>
  </g>
</svg>
