<?xml version="1.0" encoding="UTF-8"?>
<svg xmlns="http://www.w3.org/2000/svg" xmlns:xlink="http://www.w3.org/1999/xlink" width="32px" height="32px" viewBox="0 0 32 32" x="0px" y="0px" version="1.1">
  <defs>
    <linearGradient id="file-paper-gradient" gradientUnits="userSpaceOnUse" x1="5.9205" y1="6.643" x2="29.3585" y2="30.081">
      <stop offset="0" style="stop-color:#ffffff"/>
      <stop offset="1" style="stop-color:#f2f2f2"/>
    </linearGradient>
    <g id="file-fill" style="fill:url(&quot;#file-paper-gradient&quot;);">
      <path d="M30,12l0,17c0,1-1,1-1,1H11c-1,0-1-1-1-1V3c0,0,0-1,1-1h9"/>
    </g>
    <path id="file-corner" d="M32,1c0-1-1-1-1-1h-6.2c-0.3,0-0.6,0-0.7,0.3c-0.1,0.3-0.1,0.6,0.2,0.8l6.5,6.1c0.2,0.2,0.6,0.3,0.8,0.2C31.8,7.2,32,6.9,32,6.6"/>
    <path id="file-outline" d="M21,0H10C8,0,8,2,8,2v28c0,0,0,2,2,2h20c2,0,2-2,2-2V11L21,0zM30,29c0,0,0,1-1,1H11c-1,0-1-0.6-1-0.9V3c0,0,0-1,1-1h9l10,10L30,29z"/>
    <rect id="maskcanvas" width="32px" height="32px" fill="#ffffff"/>
    <mask id="chainmask">
      <use xlink:href="#maskcanvas"/>
      <path d="M17.9,19.7c-1.6,0-3-0.6-4.2-1.7c-0.5-0.5-0.6-1.2-0.1-1.7c0.5-0.5,1.1-0.5,1.7,0c1.5,1.4,3.9,1.4,5.4-0.1c1.2-1.2,2.3-2.3,3.5-3.5c1.5-1.5,1.5-3.9,0-5.4c-1.5-1.5-4-1.5-5.5,0C18.1,7.9,17.6,8.5,17,9c-0.5,0.5-1.2,0.5-1.7,0.1c-0.5-0.5-0.4-1.2,0.1-1.7c0.6-0.6,1.1-1.2,1.7-1.7C18.9,4,21,3.5,23.3,4.3C25.6,5,27,6.7,27.4,9c0.3,1.9-0.1,3.7-1.5,5.1c-1.3,1.3-2.6,2.6-3.9,3.9C20.9,19.2,19.5,19.7,17.9,19.7z" fill="#000000" stroke="#000000" stroke-width="2" transform="scale(0.9) translate(-1 3)"/>
      <path d="M10.6,26.7c-2.3-0.1-4.2-1.3-5.3-3.7c-1-2.4-0.6-4.7,1.2-6.6c1.2-1.3,2.5-2.5,3.7-3.7c2.4-2.3,6.1-2.2,8.4,0c0.5,0.5,0.6,1.2,0.1,1.7c-0.4,0.5-1.1,0.5-1.7,0c-1.5-1.4-3.5-1.5-5-0.3c-0.1,0.1-0.3,0.2-0.4,0.4c-1.2,1.2-2.3,2.3-3.5,3.5c-1.7,1.7-1.4,4.5,0.6,5.8c1.5,1,3.6,0.8,4.9-0.5c0.6-0.6,1.1-1.1,1.7-1.7c0.5-0.5,1.2-0.5,1.7-0.1c0.5,0.5,0.5,1.2-0.1,1.7c-0.6,0.6-1.1,1.2-1.7,1.7C14,26.1,12.5,26.7,10.6,26.7z" fill="#000000" stroke="#000000" stroke-width="2" transform="scale(0.9) translate(-1 3)"/>
    </mask>
    <g id="chain">
      <path d="M17.9,19.7c-1.6,0-3-0.6-4.2-1.7c-0.5-0.5-0.6-1.2-0.1-1.7c0.5-0.5,1.1-0.5,1.7,0c1.5,1.4,3.9,1.4,5.4-0.1c1.2-1.2,2.3-2.3,3.5-3.5c1.5-1.5,1.5-3.9,0-5.4c-1.5-1.5-4-1.5-5.5,0C18.1,7.9,17.6,8.5,17,9c-0.5,0.5-1.2,0.5-1.7,0.1c-0.5-0.5-0.4-1.2,0.1-1.7c0.6-0.6,1.1-1.2,1.7-1.7C18.9,4,21,3.5,23.3,4.3C25.6,5,27,6.7,27.4,9c0.3,1.9-0.1,3.7-1.5,5.1c-1.3,1.3-2.6,2.6-3.9,3.9C20.9,19.2,19.5,19.7,17.9,19.7z"/>
      <path d="M10.6,26.7c-2.3-0.1-4.2-1.3-5.3-3.7c-1-2.4-0.6-4.7,1.2-6.6c1.2-1.3,2.5-2.5,3.7-3.7c2.4-2.3,6.1-2.2,8.4,0c0.5,0.5,0.6,1.2,0.1,1.7c-0.4,0.5-1.1,0.5-1.7,0c-1.5-1.4-3.5-1.5-5-0.3c-0.1,0.1-0.3,0.2-0.4,0.4c-1.2,1.2-2.3,2.3-3.5,3.5c-1.7,1.7-1.4,4.5,0.6,5.8c1.5,1,3.6,0.8,4.9-0.5c0.6-0.6,1.1-1.1,1.7-1.7c0.5-0.5,1.2-0.5,1.7-0.1c0.5,0.5,0.5,1.2-0.1,1.7c-0.6,0.6-1.1,1.2-1.7,1.7C14,26.1,12.5,26.7,10.6,26.7z"/>
    </g>
  </defs>
  <g>
    <use xlink:href="#file-fill" fill="#ffffff"/>
    <use xlink:href="#file-outline" fill="#4a4a4a" stroke="#4a4a4a" stroke-width="0" style="mask:url(&quot;#chainmask&quot;);"/>
    <use xlink:href="#file-corner" fill="#4a4a4a" stroke="#4a4a4a" stroke-width="0"/>
    <use xlink:href="#chain" fill="#4a4a4a" stroke="#4a4a4a" stroke-width="0" transform="scale(0.9) translate(-1 3)"/>
  </g>
</svg>
