<?xml version="1.0" encoding="utf-8"?>
<!-- Generator: Adobe Illustrator 19.2.1, SVG Export Plug-In . SVG Version: 6.00 Build 0)  -->
<svg version="1.1" id="Layer_1" xmlns="http://www.w3.org/2000/svg" xmlns:xlink="http://www.w3.org/1999/xlink" x="0px" y="0px"
	 viewBox="0 0 32 32" style="enable-background:new 0 0 32 32;" xml:space="preserve">
<style type="text/css">
	.st0{fill:url(#SVGID_1_);}
	.st1{fill:#4A4A4A;}
	.st2{fill:url(#SVGID_2_);}
	.st3{fill:#1C8BE9;}
	.st4{fill:#E81F1F;}
</style>
<g>
	<g>
		<g id="file-fill">

				<linearGradient id="SVGID_1_" gradientUnits="userSpaceOnUse" x1="5.9167" y1="27.3611" x2="29.3611" y2="3.9167" gradientTransform="matrix(1 0 0 -1 0 34)">
				<stop  offset="0" style="stop-color:#FFFFFF"/>
				<stop  offset="1" style="stop-color:#F2F2F2"/>
			</linearGradient>
			<path class="st0" d="M30,12v17c0,1-1,1-1,1H11c-1,0-1-1-1-1V3c0,0,0-1,1-1h9"/>
		</g>
	</g>
	<g>
		<path id="file-outline" class="st1" d="M21,0H10C8,0,8,2,8,2v28c0,0,0,2,2,2h20c2,0,2-2,2-2V11L21,0z M30,29c0,0,0,1-1,1H11
			c-1,0-1-0.6-1-0.9V3c0,0,0-1,1-1h9l10,10V29z"/>
	</g>
	<g>
		<path id="file-corner" class="st1" d="M32,1c0-1-1-1-1-1h-6.2c-0.3,0-0.6,0-0.7,0.3S24,0.9,24.3,1.1l6.5,6.1
			c0.2,0.2,0.6,0.3,0.8,0.2C31.8,7.2,32,6.9,32,6.6"/>
	</g>
	<g>
		<g id="file-fill_1_">

				<linearGradient id="SVGID_2_" gradientUnits="userSpaceOnUse" x1="5.9167" y1="27.3611" x2="29.3611" y2="3.9167" gradientTransform="matrix(1 0 0 -1 0 34)">
				<stop  offset="0" style="stop-color:#FFFFFF"/>
				<stop  offset="1" style="stop-color:#F2F2F2"/>
			</linearGradient>
			<path class="st2" d="M30,12v17c0,1-1,1-1,1H11c-1,0-1-1-1-1V3c0,0,0-1,1-1h9"/>
		</g>
	</g>
	<g>
		<path id="file-outline_1_" class="st1" d="M21,0H10C8,0,8,2,8,2v28c0,0,0,2,2,2h20c2,0,2-2,2-2V11L21,0z M30,29c0,0,0,1-1,1H11
			c-1,0-1-0.6-1-0.9V3c0,0,0-1,1-1h9l10,10V29z"/>
	</g>
	<g>
		<path id="file-corner_1_" class="st1" d="M32,1c0-1-1-1-1-1h-6.2c-0.3,0-0.6,0-0.7,0.3S24,0.9,24.3,1.1l6.5,6.1
			c0.2,0.2,0.6,0.3,0.8,0.2C31.8,7.2,32,6.9,32,6.6"/>
	</g>
	<g transform="scale(0.8) translate(0 6)">
		<path id="bunny" class="st3" d="M18.1,3.9c0.6,0.3,2,1.5,2.9,2.3c0.2,0.1,0.3,0.3,0.4,0.4c0.1,0.1,0.3,0.3,0.4,0.5
			c0.4,0.6,0.9,1.3,1.4,1.4c1.8,0.7,3.3,2.3,3.7,4.1c0,0.2-0.1,0.7-0.3,0.9c-0.1,0.2-0.5,0.6-0.8,0.7c-0.3,0.1-1.7,0.1-1.7,0.1
			c-0.2,0-0.4-0.1-0.6-0.1c-0.1,0-0.1,0-0.2-0.1c0,0,0,0-0.1,0c0,0,0,0,0,0.1c0,0.1-0.1,0.2-0.1,0.3c-0.8,1.5-1.6,3-2.9,4.1
			c0,0-0.1,0.1-0.1,0.1c0,0,0,0-0.1,0c0,0,0,0.1,0,0.1c0,0.1,0,0.2-0.1,0.3c0,0.2-0.1,0.4-0.1,0.6c-0.1,0.2-0.1,0.4-0.2,0.6
			c0,0.1-0.1,0.2-0.1,0.3c0,0,0,0.1,0,0.1c0,0,0.1,0,0.1,0.1c0.2,0.2,0.5,0.3,0.7,0.4c0.2,0.2,0.4,0.5,0.4,0.8c0,0.1,0,0.1-0.1,0.1
			c0,0-0.2-0.1-0.2-0.1c-0.1,0-0.1,0.2-0.1,0.2c-0.1,0-0.2,0.1-0.4,0.1c-0.3,0-0.7,0-1-0.1c-0.1,0-0.3,0-0.4-0.1c0,0-0.1-0.1-0.2,0
			c-0.1,0.1-0.1,0.1-0.2,0.2c-0.3,0.3-0.6,0.6-0.9,0.9c-0.2,0.1-0.3,0.3-0.5,0.4c-0.1,0.1-0.2,0.1-0.3,0.2c0,0-0.1,0.1-0.1,0.1
			c-0.1,0-0.1,0-0.2,0c-0.1,0-0.2,0-0.4,0c0-0.1-0.1-0.1-0.1-0.1c0,0-0.1,0-0.1,0c0,0,0-0.1,0-0.1c0-0.1,0-0.1,0-0.2
			c0-0.2,0.1-0.4,0.3-0.6c0.2-0.1,0.3-0.3,0.4-0.5c0-0.1,0-0.1,0.1-0.2c0,0,0-0.2,0-0.2c-0.2-0.1-0.3-0.1-0.5-0.2
			c-0.4-0.1-0.7-0.1-1.1-0.2c-0.8-0.1-1.5-0.1-2.3-0.3c0,0-0.1,0-0.1-0.1c0,0,0-0.1-0.1-0.1c0-0.1-0.1-0.1-0.1-0.2
			c-0.1-0.1-0.2-0.3-0.2-0.4c-0.2-0.3-0.3-0.6-0.5-0.9c-0.2-0.3-0.4-0.6-0.6-0.8c-0.1-0.1-0.1-0.2-0.2-0.3c-0.5-0.7-1.2-1-2-1.4
			c-0.1-0.1-0.3-0.1-0.4-0.2c-1.2-0.7-2.4-2.2-2-3.7c0-0.1,0.1-0.2,0.1-0.3c0,0,0,0,0-0.1c0,0,0,0,0,0c0,0,0,0-0.1,0
			C6.1,13,6.1,12.9,6,12.8c-0.1-0.1-0.2-0.2-0.3-0.4c-0.1-0.1-0.1-0.3-0.2-0.4c-0.2-0.8-0.7-1.4-1.3-2c-0.7-0.6,0.4-1.1,1-1.2
			c1.3-0.1,2.4,0.8,2.7,2.1c0,0.1,0,0.2,0.1,0.4c0,0.1,0,0.1,0.1,0.2c0,0,0,0,0,0.1c0,0,0,0,0.1,0c0.2-0.1,0.4-0.1,0.6-0.2
			c0.3-0.1,0.7-0.3,1-0.4c0.2-0.1,0.3-0.1,0.5-0.2c2-0.7,4.3-0.1,6.2,0.8c0.1,0.1,0.3,0.2,0.4,0.2c0.1,0.1,0.3,0.1,0.5,0.2
			c0.5,0.2,1.2,0.3,1.6-0.2c0.2-0.2,0.3-0.5,0.5-0.8c0.2-0.3,0.3-0.5,0.6-0.7c0.2-0.2,0.5-0.3,0.6-0.5c0.1-0.1,0.1-0.3,0.1-0.4
			c0,0,0-0.1,0-0.1c0,0,0,0,0,0c0,0-0.1,0-0.1,0c-0.1,0-0.1-0.1-0.2-0.1c-0.7-0.4-1.5-0.6-2.3-0.8c-0.2-0.1-0.4-0.1-0.6-0.2
			c-0.2,0-0.3-0.1-0.5-0.2c-0.8-0.3-1.4-0.8-2-1.4c-0.1-0.1-0.2-0.3-0.3-0.4c-0.1-0.1-0.3-0.5-0.1-0.6c0.3-0.1,1.4,0,2,0.3
			C16.9,6,17,6,17.2,6.1c0.5,0.2,1.1,0.3,1.6,0.4c-0.2-0.5-0.6-0.8-1-1.1c-0.2-0.2-0.4-0.4-0.5-0.6c-0.2-0.3-0.3-0.7-0.3-0.8
			C17.1,3.8,17.5,3.6,18.1,3.9z M18,17.5c-0.3,0.1-0.5,0.1-0.8,0.1c-0.7,0.1-1.4,0-2.2,0c-0.7,0-1.3,0-2,0c0,0.4,0.1,0.8,0.3,1.1
			c0.1,0.3,0.3,0.6,0.5,0.9c0.1,0.1,0.2,0.3,0.3,0.4c0,0,0,0.1,0.1,0.1c0,0,0.1,0,0.1,0c0.1,0,0.2,0,0.3,0.1
			c0.4,0.1,0.7,0.2,1.1,0.2c0.4,0.1,0.8,0.1,1.2,0.1c0.2,0,0.5,0,0.7,0c0,0,0.1,0,0.1,0c0,0,0,0,0,0c0,0,0-0.1,0-0.1
			c0-0.1,0-0.2,0-0.3C18,19.3,18,18.4,18,17.5"/>
	</g>
	<g transform="scale(0.8) translate(0 6)">
		<path id="bunny_1_" class="st4" d="M14.1,10.3c0.6,0.3,2,1.5,2.9,2.3c0.2,0.1,0.3,0.3,0.4,0.4c0.1,0.1,0.3,0.3,0.4,0.5
			c0.4,0.6,0.9,1.3,1.4,1.4c1.8,0.7,3.3,2.3,3.7,4.1c0,0.2-0.1,0.7-0.3,0.9c-0.1,0.2-0.5,0.6-0.8,0.7c-0.3,0.1-1.7,0.1-1.7,0.1
			c-0.2,0-0.4-0.1-0.6-0.1c-0.1,0-0.1,0-0.2-0.1c0,0,0,0-0.1,0c0,0,0,0,0,0.1c0,0.1-0.1,0.2-0.1,0.3c-0.8,1.5-1.6,3-2.9,4.1
			c0,0-0.1,0.1-0.1,0.1c0,0,0,0-0.1,0c0,0,0,0.1,0,0.1c0,0.1,0,0.2-0.1,0.3c0,0.2-0.1,0.4-0.1,0.6c-0.1,0.2-0.1,0.4-0.2,0.6
			c0,0.1-0.1,0.2-0.1,0.3c0,0,0,0.1,0,0.1c0,0,0.1,0,0.1,0.1c0.2,0.2,0.5,0.3,0.7,0.4c0.2,0.2,0.4,0.5,0.4,0.8c0,0.1,0,0.1-0.1,0.1
			c0,0-0.2-0.1-0.2-0.1c-0.1,0-0.1,0.2-0.1,0.2c-0.1,0-0.2,0.1-0.4,0.1c-0.3,0-0.7,0-1-0.1c-0.1,0-0.3,0-0.4-0.1c0,0-0.1-0.1-0.2,0
			c-0.1,0.1-0.1,0.1-0.2,0.2c-0.3,0.3-0.6,0.6-0.9,0.9c-0.2,0.1-0.3,0.3-0.5,0.4c-0.1,0.1-0.2,0.1-0.3,0.2c0,0-0.1,0.1-0.1,0.1
			c-0.1,0-0.1,0-0.2,0c-0.1,0-0.2,0-0.4,0c0-0.1-0.1-0.1-0.1-0.1c0,0-0.1,0-0.1,0c0,0,0-0.1,0-0.1c0-0.1,0-0.1,0-0.2
			c0-0.2,0.1-0.4,0.3-0.6c0.2-0.1,0.3-0.3,0.4-0.5c0-0.1,0-0.1,0.1-0.2c0,0,0-0.2,0-0.2c-0.2-0.1-0.3-0.1-0.5-0.2
			c-0.4-0.1-0.7-0.1-1.1-0.2c-0.8-0.1-1.5-0.1-2.3-0.3c0,0-0.1,0-0.1-0.1c0,0,0-0.1-0.1-0.1c0-0.1-0.1-0.1-0.1-0.2
			c-0.1-0.1-0.2-0.3-0.2-0.4c-0.2-0.3-0.3-0.6-0.5-0.9C7.2,26,7,25.8,6.8,25.5c-0.1-0.1-0.1-0.2-0.2-0.3c-0.5-0.7-1.2-1-2-1.4
			c-0.1-0.1-0.3-0.1-0.4-0.2c-1.2-0.7-2.4-2.2-2-3.7c0-0.1,0.1-0.2,0.1-0.3c0,0,0,0,0-0.1c0,0,0,0,0,0c0,0,0,0-0.1,0
			c-0.1-0.1-0.2-0.1-0.3-0.2c-0.1-0.1-0.2-0.2-0.3-0.4c-0.1-0.1-0.1-0.3-0.2-0.4c-0.2-0.8-0.7-1.4-1.3-2c-0.7-0.6,0.4-1.1,1-1.2
			c1.3-0.1,2.4,0.8,2.7,2.1c0,0.1,0,0.2,0.1,0.4c0,0.1,0,0.1,0.1,0.2c0,0,0,0,0,0.1c0,0,0,0,0.1,0c0.2-0.1,0.4-0.1,0.6-0.2
			c0.3-0.1,0.7-0.3,1-0.4c0.2-0.1,0.3-0.1,0.5-0.2c2-0.7,4.3-0.1,6.2,0.8c0.1,0.1,0.3,0.2,0.4,0.2c0.1,0.1,0.3,0.1,0.5,0.2
			c0.5,0.2,1.2,0.3,1.6-0.2c0.2-0.2,0.3-0.5,0.5-0.8c0.2-0.3,0.3-0.5,0.6-0.7c0.2-0.2,0.5-0.3,0.6-0.5c0.1-0.1,0.1-0.3,0.1-0.4
			c0,0,0-0.1,0-0.1c0,0,0,0,0,0c0,0-0.1,0-0.1,0c-0.1,0-0.1-0.1-0.2-0.1c-0.7-0.4-1.5-0.6-2.3-0.8c-0.2-0.1-0.4-0.1-0.6-0.2
			c-0.2,0-0.3-0.1-0.5-0.2c-0.8-0.3-1.4-0.8-2-1.4c-0.1-0.1-0.2-0.3-0.3-0.4c-0.1-0.1-0.3-0.5-0.1-0.6c0.3-0.1,1.4,0,2,0.3
			c0.2,0.1,0.4,0.1,0.5,0.2c0.5,0.2,1.1,0.3,1.6,0.4c-0.2-0.5-0.6-0.8-1-1.1c-0.2-0.2-0.4-0.4-0.5-0.6c-0.2-0.3-0.3-0.7-0.3-0.8
			S13.5,10,14.1,10.3z M14,23.9C13.7,24,13.5,24,13.2,24c-0.7,0.1-1.4,0-2.2,0c-0.7,0-1.3,0-2,0c0,0.4,0.1,0.8,0.3,1.1
			c0.1,0.3,0.3,0.6,0.5,0.9c0.1,0.1,0.2,0.3,0.3,0.4c0,0,0,0.1,0.1,0.1c0,0,0.1,0,0.1,0c0.1,0,0.2,0,0.3,0.1
			c0.4,0.1,0.7,0.2,1.1,0.2c0.4,0.1,0.8,0.1,1.2,0.1c0.2,0,0.5,0,0.7,0c0,0,0.1,0,0.1,0c0,0,0,0,0,0c0,0,0-0.1,0-0.1
			c0-0.1,0-0.2,0-0.3C14.1,25.7,14.1,24.8,14,23.9"/>
	</g>
</g>
</svg>
