<?xml version="1.0" encoding="UTF-8"?>
<svg xmlns="http://www.w3.org/2000/svg" xmlns:xlink="http://www.w3.org/1999/xlink" width="32px" height="32px" viewBox="0 0 32 32" x="0px" y="0px" version="1.1">
  <defs>
    <linearGradient id="file-paper-gradient" gradientUnits="userSpaceOnUse" x1="5.9205" y1="6.643" x2="29.3585" y2="30.081">
      <stop offset="0" style="stop-color:#ffffff"/>
      <stop offset="1" style="stop-color:#f2f2f2"/>
    </linearGradient>
    <g id="file-fill" style="fill:url(&quot;#file-paper-gradient&quot;);">
      <path d="M30,12l0,17c0,1-1,1-1,1H11c-1,0-1-1-1-1V3c0,0,0-1,1-1h9"/>
    </g>
    <path id="file-corner" d="M32,1c0-1-1-1-1-1h-6.2c-0.3,0-0.6,0-0.7,0.3c-0.1,0.3-0.1,0.6,0.2,0.8l6.5,6.1c0.2,0.2,0.6,0.3,0.8,0.2C31.8,7.2,32,6.9,32,6.6"/>
    <path id="file-outline" d="M21,0H10C8,0,8,2,8,2v28c0,0,0,2,2,2h20c2,0,2-2,2-2V11L21,0zM30,29c0,0,0,1-1,1H11c-1,0-1-0.6-1-0.9V3c0,0,0-1,1-1h9l10,10L30,29z"/>
    <g id="rssobjects">
      <path d="M5,14.081v1.838c1-0.008,2.203,0.741,3.116,1.67C9.035,18.509,9.506,20,9.5,21h1.837C11.267,17,8,14.153,5,14.081z"/>
      <path d="M5,10.7v1.837C9,12.544,12.904,16,12.912,21h1.839C14.751,15,10,10.7,5,10.7z"/>
      <circle cx="5.692" cy="19.346" r="1.316"/>
    </g>
  </defs>
  <g>
    <use xlink:href="#file-fill" fill="#ffffff"/>
    <use xlink:href="#file-outline" fill="#4a4a4a" stroke="#4a4a4a" stroke-width="0"/>
    <use xlink:href="#file-corner" fill="#4a4a4a" stroke="#4a4a4a" stroke-width="0"/>
    <path d="M17.497,8.298C16.968,7.515,16.071,7,15.055,7H3.945C2.319,7,1,8.319,1,9.945v11.109C1,22.682,2.319,24,3.945,24h11.11c1.017,0,1.913-0.515,2.442-1.299C17.814,22.231,18,21.664,18,21.054V9.945C18,9.335,17.814,8.769,17.497,8.298zM15,21h-2" fill="#fc6c00"/>
    <use xlink:href="#rssobjects" fill="#ffffff"/>
  </g>
</svg>
