<?xml version="1.0" encoding="UTF-8"?>
<svg xmlns="http://www.w3.org/2000/svg" xmlns:xlink="http://www.w3.org/1999/xlink" width="32px" height="32px" viewBox="0 0 32 32" x="0px" y="0px" version="1.1">
  <defs>
    <linearGradient id="file-paper-gradient" gradientUnits="userSpaceOnUse" x1="5.9205" y1="6.643" x2="29.3585" y2="30.081">
      <stop offset="0" style="stop-color:#ffffff"/>
      <stop offset="1" style="stop-color:#f2f2f2"/>
    </linearGradient>
    <g id="file-fill" style="fill:url(&quot;#file-paper-gradient&quot;);">
      <path d="M30,12l0,17c0,1-1,1-1,1H11c-1,0-1-1-1-1V3c0,0,0-1,1-1h9"/>
    </g>
    <path id="file-corner" d="M32,1c0-1-1-1-1-1h-6.2c-0.3,0-0.6,0-0.7,0.3c-0.1,0.3-0.1,0.6,0.2,0.8l6.5,6.1c0.2,0.2,0.6,0.3,0.8,0.2C31.8,7.2,32,6.9,32,6.6"/>
    <path id="file-outline" d="M21,0H10C8,0,8,2,8,2v28c0,0,0,2,2,2h20c2,0,2-2,2-2V11L21,0zM30,29c0,0,0,1-1,1H11c-1,0-1-0.6-1-0.9V3c0,0,0-1,1-1h9l10,10L30,29z"/>
    <path id="speech-cloud-fill" d="M13.3,8C9.8,8,7,11.2,7,15c0,3.8,2.7,6.9,6.1,7c0.5,0,0.9,0.5,0.9,1v2.5l3.2-3.2c0.2-0.2,0.4-0.3,0.7-0.3h2.8c3.5,0,6.3-3.1,6.3-7c0-3.9-2.8-7-6.3-7H13.3z"/>
    <path id="speech-cloud-outline" d="M13.1,29c-0.1,0-0.2,0-0.4-0.1C12.3,28.8,12,28.4,12,28v-4c-4-0.6-7-4.5-7-9c0-4.9,3.7-9,8.3-9h7.4c4.6,0,8.3,4.1,8.3,9c0,4.9-3.7,9-8.3,9h-2.4l-4.5,4.7C13.6,28.9,13.4,29,13.1,29zM13.3,8C9.8,8,7,11.2,7,15c0,3.8,2.7,6.9,6.1,7c0.5,0,0.9,0.5,0.9,1v2.5l3.2-3.2c0.2-0.2,0.4-0.3,0.7-0.3h2.8c3.5,0,6.3-3.1,6.3-7c0-3.9-2.8-7-6.3-7H13.3z"/>
  </defs>
  <g>
    <use xlink:href="#file-fill" fill="#ffffff"/>
    <use xlink:href="#file-outline" mask="url(#speech-cloudmask)" fill="#4a4a4a" stroke="#4a4a4a" stroke-width="0"/>
    <use xlink:href="#file-corner" fill="#4a4a4a" stroke="#4a4a4a" stroke-width="0"/>
    <use xlink:href="#speech-cloud-fill" transform="scale(0.8 0.8) translate(2,3)" fill="#ffffff"/>
    <use xlink:href="#speech-cloud-outline" transform="scale(0.8 0.8) translate(2,3)" fill="#4a4a4a" stroke="#4a4a4a" stroke-width="0"/>
  </g>
</svg>
