<?xml version="1.0" encoding="UTF-8"?>
<svg xmlns="http://www.w3.org/2000/svg" xmlns:xlink="http://www.w3.org/1999/xlink" width="32px" height="32px" viewBox="0 0 32 32" x="0px" y="0px" version="1.1">
  <defs>
    <linearGradient id="file-paper-gradient" gradientUnits="userSpaceOnUse" x1="5.9205" y1="6.643" x2="29.3585" y2="30.081">
      <stop offset="0" style="stop-color:#ffffff"/>
      <stop offset="1" style="stop-color:#f2f2f2"/>
    </linearGradient>
    <g id="file-fill" style="fill:url(&quot;#file-paper-gradient&quot;);">
      <path d="M30,12l0,17c0,1-1,1-1,1H11c-1,0-1-1-1-1V3c0,0,0-1,1-1h9"/>
    </g>
    <path id="file-corner" d="M32,1c0-1-1-1-1-1h-6.2c-0.3,0-0.6,0-0.7,0.3c-0.1,0.3-0.1,0.6,0.2,0.8l6.5,6.1c0.2,0.2,0.6,0.3,0.8,0.2C31.8,7.2,32,6.9,32,6.6"/>
    <path id="file-outline" d="M21,0H10C8,0,8,2,8,2v28c0,0,0,2,2,2h20c2,0,2-2,2-2V11L21,0zM30,29c0,0,0,1-1,1H11c-1,0-1-0.6-1-0.9V3c0,0,0-1,1-1h9l10,10L30,29z"/>
    <path id="screwdriverhandlefill" d="M8.158,21.715c-0.351-0.351-0.919-0.351-1.271,0L1,27.604c-0.35,0.35-0.35,0.919,0,1.27l2.297,2.299c0.351,0.349,0.92,0.349,1.27,0l5.715-5.715c0.351-0.351,0.351-0.917,0-1.27L8.158,21.715z"/>
    <path id="screwdriveroutline" d="M21.231,8.987l-2.043,1.519l-0.529,1.327L8.622,21.388l-0.064-0.075c-0.554-0.552-1.517-0.553-2.071,0.001l-5.888,5.889c-0.57,0.57-0.571,1.5,0,2.072l2.298,2.299C3.174,31.85,3.542,32,3.932,32c0.391,0,0.759-0.151,1.036-0.428l5.714-5.713c0.277-0.277,0.43-0.646,0.43-1.036s-0.152-0.759-0.4-1.006l-0.028-0.032l9.874-10.047l1.336-0.538l1.516-2.038L21.231,8.987zM9.881,25.056L4.167,30.77c-0.124,0.125-0.347,0.122-0.469,0.001l-2.296-2.297c-0.129-0.131-0.13-0.341-0.001-0.47l5.887-5.888c0.062-0.062,0.146-0.097,0.235-0.097c0.088,0,0.172,0.034,0.205,0.065l2.153,2.503c0.063,0.063,0.098,0.146,0.098,0.235C9.978,24.911,9.944,24.993,9.881,25.056zM21.259,12.378l-1.172,0.471L10,23.078l-0.828-0.812l10.255-9.784l0.586-1.342l1.123-0.835l0.955,0.955L21.259,12.378z"/>
    <path id="wrenchfill" d="M21.985,24.106l-7.069-6.157l-0.25-0.219l-2.016-1.755c0.244-1.196,0.686-4.404-1.099-6.189c-1.174-1.175-2.737-1.822-4.399-1.822c-0.406,0-0.814,0.041-1.213,0.119c-0.11,0.022-0.2,0.104-0.233,0.211C5.674,8.401,5.703,8.518,5.782,8.598l2.663,2.664l0.534,2.576l-2.176,2.175l-2.575-0.533l-2.663-2.663c-0.081-0.08-0.197-0.109-0.305-0.076c-0.107,0.032-0.188,0.121-0.211,0.233c-0.404,2.042,0.232,4.14,1.703,5.612c0.875,0.874,2.239,1.337,3.946,1.337l0,0c0.717,0,1.488-0.082,2.244-0.238l8.116,9.318c0.67,0.67,1.542,1.031,2.469,1.031c0.928,0,1.8-0.361,2.457-1.017C23.339,27.663,23.339,25.461,21.985,24.106zM20.141,27.174c-0.337,0.339-0.887,0.339-1.224,0l0,0c-0.339-0.337-0.339-0.888,0-1.227c0.337-0.336,0.887-0.336,1.224,0.003h0.001C20.479,26.287,20.479,26.837,20.141,27.174z"/>
    <path id="wrenchoutline" d="M19.528,30.533c-1.061,0-2.062-0.418-2.822-1.178l-7.95-9.126c-0.695,0.126-1.4,0.192-2.057,0.192c-1.841,0-3.328-0.513-4.3-1.483c-1.589-1.591-2.277-3.857-1.84-6.063c0.059-0.294,0.272-0.529,0.558-0.615l0.232-0.034c0.212,0,0.414,0.083,0.566,0.232l2.561,2.56l2.165,0.448l1.794-1.793l-0.449-2.165L5.429,8.951C5.219,8.74,5.142,8.434,5.227,8.15c0.089-0.288,0.324-0.5,0.615-0.558c2.247-0.438,4.489,0.264,6.063,1.84c1.815,1.816,1.557,4.862,1.29,6.354l9.118,7.943c1.573,1.572,1.573,4.093,0.025,5.641C21.587,30.12,20.589,30.533,19.528,30.533zM9.128,19.135l8.308,9.539c1.095,1.092,3.071,1.111,4.195-0.012c1.158-1.157,1.158-3.043,0-4.202l-9.53-8.299l0.059-0.286c0.189-0.93,0.681-4.091-0.962-5.735C9.944,8.884,8.201,8.278,6.405,8.513l2.5,2.5L9.524,14l-2.558,2.557l-2.985-0.618l-2.501-2.501c-0.231,1.759,0.362,3.528,1.627,4.794c0.779,0.778,2.021,1.19,3.592,1.19c0.681,0,1.421-0.079,2.143-0.228L9.128,19.135zM19.528,27.928c-0.365,0-0.708-0.143-0.966-0.401c-0.257-0.255-0.399-0.598-0.399-0.963c-0.001-0.366,0.142-0.711,0.4-0.97c0.518-0.515,1.418-0.512,1.932,0.004c0.257,0.256,0.399,0.599,0.399,0.965c0,0.365-0.143,0.708-0.401,0.966C20.237,27.785,19.895,27.928,19.528,27.928zM19.527,26.195c-0.098,0-0.189,0.038-0.257,0.106c-0.069,0.068-0.107,0.161-0.107,0.26c0,0.098,0.038,0.189,0.106,0.258c0.141,0.141,0.381,0.139,0.517,0.002c0.07-0.07,0.108-0.162,0.108-0.26s-0.037-0.188-0.106-0.257C19.719,26.234,19.626,26.195,19.527,26.195z"/>
  </defs>
  <g>
    <use xlink:href="#file-fill" fill="#ffffff"/>
    <use xlink:href="#file-outline" fill="#4a4a4a" stroke="#4a4a4a" stroke-width="0"/>
    <use xlink:href="#file-corner" fill="#4a4a4a" stroke="#4a4a4a" stroke-width="0"/>
    <use xlink:href="#screwdriverhandlefill" fill="#CC1515"/>
    <use xlink:href="#screwdrivershaftfill" fill="#C4C4C4"/>
    <use xlink:href="#screwdriveroutline" fill="#4a4a4a" stroke="#4a4a4a" stroke-width="0"/>
    <use xlink:href="#wrenchfill" fill="#D6D6D6"/>
    <use xlink:href="#wrenchoutline" fill="#4a4a4a" stroke="#4a4a4a" stroke-width="0"/>
  </g>
</svg>
