<?xml version="1.0" encoding="UTF-8"?>
<svg xmlns="http://www.w3.org/2000/svg" xmlns:xlink="http://www.w3.org/1999/xlink" width="32px" height="32px" viewBox="0 0 32 32" x="0px" y="0px" version="1.1">
  <defs>
    <linearGradient id="file-paper-gradient" gradientUnits="userSpaceOnUse" x1="5.9205" y1="6.643" x2="29.3585" y2="30.081">
      <stop offset="0" style="stop-color:#ffffff"/>
      <stop offset="1" style="stop-color:#f2f2f2"/>
    </linearGradient>
    <g id="file-fill" style="fill:url(&quot;#file-paper-gradient&quot;);">
      <path d="M30,12l0,17c0,1-1,1-1,1H11c-1,0-1-1-1-1V3c0,0,0-1,1-1h9"/>
    </g>
    <path id="file-corner" d="M32,1c0-1-1-1-1-1h-6.2c-0.3,0-0.6,0-0.7,0.3c-0.1,0.3-0.1,0.6,0.2,0.8l6.5,6.1c0.2,0.2,0.6,0.3,0.8,0.2C31.8,7.2,32,6.9,32,6.6"/>
    <path id="file-outline" d="M21,0H10C8,0,8,2,8,2v28c0,0,0,2,2,2h20c2,0,2-2,2-2V11L21,0zM30,29c0,0,0,1-1,1H11c-1,0-1-0.6-1-0.9V3c0,0,0-1,1-1h9l10,10L30,29z"/>
    <path id="checkmark" d="M20.6,14.6c0.2,0.3,0.6,0.4,0.9,0.4l0,0l0,0c0.4,0,0.7-0.2,0.9-0.5l6.9-8.7c0.4-0.5,0.3-1.3-0.2-1.7s-1.3-0.3-1.7,0.2l-6,7.5l-2.8-3.4C18.3,8,17.5,7.9,17,8.3s-0.6,1.2-0.1,1.7L20.6,14.6z"/>
  </defs>
  <g>
    <use xlink:href="#file-fill" fill="#ffffff"/>
    <use xlink:href="#file-outline" fill="#4a4a4a" stroke="#4a4a4a" stroke-width="0"/>
    <use xlink:href="#file-corner" fill="#4a4a4a" stroke="#4a4a4a" stroke-width="0"/>
    <path d="M27,4H5C4,4,4,5,4,5v22c0,0,0,1,1,1h22c1,0,1-1,1-1V5C28,5,28,4,27,4zM26,26H6V6h20V26z" fill="#4a4a4a" stroke="#4a4a4a" stroke-width="0" transform="scale(0.4) translate(27 10)"/>
    <use xlink:href="#checkmark" fill="#4a4a4a" stroke="#4a4a4a" stroke-width="0" transform="scale(0.6) translate(6 8)"/>
    <circle style="fill:none;stroke-width:2;" cx="16" cy="16" r="13" fill="#4a4a4a" stroke="#4a4a4a" stroke-width="0" transform="scale(0.4) translate(42 42)"/>
    <circle cx="16" cy="16" r="6" fill="#4a4a4a" stroke="#4a4a4a" stroke-width="0" transform="scale(0.4) translate(42 42)"/>
  </g>
</svg>
