<?xml version="1.0" encoding="utf-8"?>
<!-- Generator: Adobe Illustrator 19.2.1, SVG Export Plug-In . SVG Version: 6.00 Build 0)  -->
<svg version="1.1" id="Layer_1" xmlns="http://www.w3.org/2000/svg" xmlns:xlink="http://www.w3.org/1999/xlink" x="0px" y="0px"
	 viewBox="0 0 32 32" style="enable-background:new 0 0 32 32;" xml:space="preserve">
<style type="text/css">
	.st0{fill:url(#SVGID_1_);}
	.st1{fill:#4A4A4A;}
</style>
<g>
	<g>
		<g id="file-fill">
			
				<linearGradient id="SVGID_1_" gradientUnits="userSpaceOnUse" x1="5.9167" y1="27.3611" x2="29.3611" y2="3.9167" gradientTransform="matrix(1 0 0 -1 0 34)">
				<stop  offset="0" style="stop-color:#FFFFFF"/>
				<stop  offset="1" style="stop-color:#F2F2F2"/>
			</linearGradient>
			<path class="st0" d="M30,12v17c0,1-1,1-1,1H11c-1,0-1-1-1-1V3c0,0,0-1,1-1h9"/>
		</g>
	</g>
	<g>
		<path id="file-outline" class="st1" d="M21,0H10C8,0,8,2,8,2v28c0,0,0,2,2,2h20c2,0,2-2,2-2V11L21,0z M30,29c0,0,0,1-1,1H11
			c-1,0-1-0.6-1-0.9V3c0,0,0-1,1-1h9l10,10V29z"/>
	</g>
	<g>
		<path id="file-corner" class="st1" d="M32,1c0-1-1-1-1-1h-6.2c-0.3,0-0.6,0-0.7,0.3S24,0.9,24.3,1.1l6.5,6.1
			c0.2,0.2,0.6,0.3,0.8,0.2C31.8,7.2,32,6.9,32,6.6"/>
	</g>
</g>
</svg>
