<?xml version="1.0" encoding="UTF-8"?>
<svg xmlns="http://www.w3.org/2000/svg" xmlns:xlink="http://www.w3.org/1999/xlink" width="32px" height="32px" viewBox="0 0 32 32" x="0px" y="0px" version="1.1">
  <defs>
    <g id="file-fill" fill="none">
      <path d="M30,12l0,17c0,1-1,1-1,1H11c-1,0-1-1-1-1V3c0,0,0-1,1-1h9"/>
    </g>
    <path id="file-corner" d="M32,1c0-1-1-1-1-1h-6.2c-0.3,0-0.6,0-0.7,0.3c-0.1,0.3-0.1,0.6,0.2,0.8l6.5,6.1c0.2,0.2,0.6,0.3,0.8,0.2C31.8,7.2,32,6.9,32,6.6"/>
    <path id="file-outline" d="M21,0H10C8,0,8,2,8,2v28c0,0,0,2,2,2h20c2,0,2-2,2-2V11L21,0zM30,29c0,0,0,1-1,1H11c-1,0-1-0.6-1-0.9V3c0,0,0-1,1-1h9l10,10L30,29z"/>
    <path id="officeoverlay" d="M16.765,4.653L1.756,7.135v18.836l15.009,2.48V4.653z"/>
    <rect id="maskcanvas" width="32px" height="32px" fill="#ffffff"/>
    <mask id="msvisioVmask">
      <use xlink:href="#maskcanvas"/>
      <use xlink:href="#msvisioV" fill="#000000"/>
    </mask>
    <path id="msvisioV" d="M13.024,11.131L9.944,22.056l-2.261-0.082L4.707,11.035l2.117,0.024l1.839,7.626c0.1,0.416,0.16,0.778,0.177,1.097h0.037c0.029-0.352,0.095-0.724,0.193-1.117l1.842-7.557L13.024,11.131L13.024,11.131z"/>
  </defs>
  <g style="mask:url(&quot;#msvisioVmask&quot;);">
    <use xlink:href="#file-fill" fill="#ffffff"/>
    <use xlink:href="#file-outline" fill="#ffffff" stroke="#ffffff" stroke-width="0"/>
    <use xlink:href="#file-corner" fill="#ffffff" stroke="#ffffff" stroke-width="0"/>
    <use xlink:href="#officeoverlay" fill="#ffffff"/>
    <use xlink:href="#msvisioV" fill="transparent"/>
  </g>
</svg>
