<?xml version="1.0" encoding="UTF-8"?>
<svg xmlns="http://www.w3.org/2000/svg" xmlns:xlink="http://www.w3.org/1999/xlink" width="32px" height="32px" viewBox="0 0 32 32" x="0px" y="0px" version="1.1">
  <defs>
    <g id="file-fill" fill="none">
      <path d="M30,12l0,17c0,1-1,1-1,1H11c-1,0-1-1-1-1V3c0,0,0-1,1-1h9"/>
    </g>
    <path id="file-corner" d="M32,1c0-1-1-1-1-1h-6.2c-0.3,0-0.6,0-0.7,0.3c-0.1,0.3-0.1,0.6,0.2,0.8l6.5,6.1c0.2,0.2,0.6,0.3,0.8,0.2C31.8,7.2,32,6.9,32,6.6"/>
    <path id="file-outline" d="M21,0H10C8,0,8,2,8,2v28c0,0,0,2,2,2h20c2,0,2-2,2-2V11L21,0zM30,29c0,0,0,1-1,1H11c-1,0-1-0.6-1-0.9V3c0,0,0-1,1-1h9l10,10L30,29z"/>
  </defs>
  <g>
    <use xlink:href="#file-fill" fill="#ffffff"/>
    <use xlink:href="#file-outline" fill="#ffffff" stroke="#ffffff" stroke-width="0"/>
    <use xlink:href="#file-corner" fill="#ffffff" stroke="#ffffff" stroke-width="0"/>
    <path transform="translate(-0.5, 0)" d="M13.992,1.757l0.327,2.775h-2.187c-0.197,0-0.356,0.159-0.356,0.355s0.159,0.356,0.356,0.356h2.27l0.246,2.082h-1.911c-0.197,0-0.355,0.16-0.355,0.356c0,0.196,0.159,0.356,0.355,0.356h1.996l0.245,2.082h-1.594c-0.197,0-0.356,0.16-0.356,0.355c0,0.198,0.159,0.357,0.356,0.357h1.677l0.248,2.109h-1.386c-0.197,0-0.355,0.16-0.355,0.357c0,0.197,0.159,0.355,0.355,0.355h1.47l0.613,5.209l0.582-5.209h1.504c0.196,0,0.356-0.159,0.356-0.355c0-0.197-0.16-0.357-0.356-0.357h-1.424l0.234-2.109h1.806c0.196,0,0.354-0.159,0.354-0.357c0-0.196-0.158-0.355-0.354-0.355H16.98l0.233-2.082h2.194c0.196,0,0.356-0.16,0.356-0.356c0-0.197-0.16-0.356-0.356-0.356h-2.115l0.232-2.082h2.411c0.196,0,0.354-0.16,0.354-0.356s-0.158-0.355-0.354-0.355h-2.332l0.311-2.775" fill="#ffffff" stroke="#ffffff" stroke-width="0"/>
    <text transform="matrix(1 0 0 1 13 27) translate(0, 0)" font-size="10" font-family="&quot;roboto&quot;" font-variant="&quot;black&quot;" fill="#ffffff">ZIP</text>
  </g>
</svg>
