<?xml version="1.0" encoding="UTF-8"?>
<svg xmlns="http://www.w3.org/2000/svg" xmlns:xlink="http://www.w3.org/1999/xlink" width="32px" height="32px" viewBox="0 0 32 32" x="0px" y="0px" version="1.1">
  <defs>
    <linearGradient id="file-paper-gradient" gradientUnits="userSpaceOnUse" x1="5.9205" y1="6.643" x2="29.3585" y2="30.081">
      <stop offset="0" style="stop-color:#ffffff"/>
      <stop offset="1" style="stop-color:#f2f2f2"/>
    </linearGradient>
    <g id="file-fill" style="fill:url(&quot;#file-paper-gradient&quot;);">
      <path d="M30,12l0,17c0,1-1,1-1,1H11c-1,0-1-1-1-1V3c0,0,0-1,1-1h9"/>
    </g>
    <path id="file-corner" d="M32,1c0-1-1-1-1-1h-6.2c-0.3,0-0.6,0-0.7,0.3c-0.1,0.3-0.1,0.6,0.2,0.8l6.5,6.1c0.2,0.2,0.6,0.3,0.8,0.2C31.8,7.2,32,6.9,32,6.6"/>
    <path id="file-outline" d="M21,0H10C8,0,8,2,8,2v28c0,0,0,2,2,2h20c2,0,2-2,2-2V11L21,0zM30,29c0,0,0,1-1,1H11c-1,0-1-0.6-1-0.9V3c0,0,0-1,1-1h9l10,10L30,29z"/>
    <path id="officeoverlay" d="M16.765,4.653L1.756,7.135v18.836l15.009,2.48V4.653z"/>
    <path id="mswordW" d="M14.22,11.592L12.285,11.7l-1.131,5.876c-0.017,0.078-0.034,0.156-0.044,0.237c-0.011,0.076-0.025,0.156-0.034,0.236c-0.012,0.078-0.017,0.163-0.028,0.245c-0.007,0.08-0.009,0.167-0.014,0.25h-0.021c-0.012-0.106-0.022-0.203-0.034-0.296c-0.004-0.091-0.016-0.175-0.028-0.251c-0.012-0.077-0.022-0.152-0.034-0.215c-0.011-0.064-0.022-0.121-0.033-0.173l-1.296-5.762l-1.832,0.1l-1.321,5.508c-0.021,0.085-0.039,0.168-0.056,0.251c-0.018,0.082-0.029,0.16-0.042,0.241c-0.015,0.077-0.02,0.157-0.032,0.234c-0.005,0.077-0.011,0.154-0.011,0.229L6.26,18.409c-0.003-0.1-0.011-0.194-0.015-0.285c-0.007-0.088-0.017-0.175-0.022-0.25c-0.008-0.077-0.017-0.147-0.026-0.216c-0.01-0.065-0.017-0.128-0.028-0.183l-0.99-5.387l-1.667,0.093l1.783,7.976l1.851,0.103l1.263-5.33c0.014-0.068,0.028-0.134,0.042-0.208c0.012-0.071,0.026-0.147,0.04-0.224c0.008-0.081,0.017-0.164,0.028-0.249c0.008-0.087,0.02-0.175,0.025-0.27h0.02c0.006,0.089,0.014,0.175,0.017,0.26c0.011,0.085,0.016,0.166,0.027,0.245c0.012,0.08,0.023,0.153,0.038,0.229c0.011,0.071,0.024,0.142,0.042,0.209l1.281,5.49l2.009,0.104L14.22,11.592z"/>
  </defs>
  <g>
    <use xlink:href="#file-fill" fill="#ffffff"/>
    <use xlink:href="#file-outline" fill="#4a4a4a" stroke="#4a4a4a" stroke-width="0"/>
    <use xlink:href="#file-corner" fill="#4a4a4a" stroke="#4a4a4a" stroke-width="0"/>
    <use xlink:href="#officeoverlay" fill="#00188F"/>
    <use xlink:href="#mswordW" fill="#ffffff"/>
  </g>
</svg>
