<?xml version="1.0" encoding="UTF-8"?>
<svg xmlns="http://www.w3.org/2000/svg" xmlns:xlink="http://www.w3.org/1999/xlink" width="32px" height="32px" viewBox="0 0 32 32" x="0px" y="0px" version="1.1">
  <defs>
    <g id="file-fill" fill="none">
      <path d="M30,12l0,17c0,1-1,1-1,1H11c-1,0-1-1-1-1V3c0,0,0-1,1-1h9"/>
    </g>
    <path id="file-corner" d="M32,1c0-1-1-1-1-1h-6.2c-0.3,0-0.6,0-0.7,0.3c-0.1,0.3-0.1,0.6,0.2,0.8l6.5,6.1c0.2,0.2,0.6,0.3,0.8,0.2C31.8,7.2,32,6.9,32,6.6"/>
    <path id="file-outline" d="M21,0H10C8,0,8,2,8,2v28c0,0,0,2,2,2h20c2,0,2-2,2-2V11L21,0zM30,29c0,0,0,1-1,1H11c-1,0-1-0.6-1-0.9V3c0,0,0-1,1-1h9l10,10L30,29z"/>
    <path id="officeoverlay" d="M16.765,4.653L1.756,7.135v18.836l15.009,2.48V4.653z"/>
    <rect id="maskcanvas" width="32px" height="32px" fill="#ffffff"/>
    <mask id="msexcelEmask">
      <use xlink:href="#maskcanvas"/>
      <use xlink:href="#msexcelE" fill="#000000"/>
    </mask>
    <path id="msexcelE" d="M12.943,11.033l-2.4,0.139l-1.459,3.224c-0.038,0.103-0.067,0.198-0.095,0.289c-0.031,0.086-0.06,0.177-0.079,0.252c-0.024,0.076-0.048,0.145-0.065,0.212c-0.018,0.063-0.033,0.12-0.045,0.175H8.775c-0.021-0.089-0.04-0.166-0.06-0.245C8.696,15,8.672,14.922,8.649,14.851c-0.02-0.08-0.044-0.147-0.068-0.217c-0.023-0.068-0.051-0.133-0.079-0.196l-1.252-3.079l-2.318,0.137L7.4,16.544l-2.693,5.039l2.256,0.127l1.516-3.303c0.026-0.082,0.05-0.158,0.072-0.231c0.023-0.069,0.039-0.142,0.057-0.198c0.02-0.057,0.033-0.114,0.047-0.166c0.013-0.049,0.021-0.094,0.03-0.134h0.026c0.016,0.085,0.035,0.168,0.047,0.241c0.018,0.074,0.034,0.14,0.052,0.201c0.011,0.056,0.028,0.105,0.043,0.151c0.011,0.045,0.024,0.079,0.04,0.112l1.574,3.527l2.557,0.146l-2.937-5.562L12.943,11.033z"/>
  </defs>
  <g style="mask:url(&quot;#msexcelEmask&quot;);">
    <use xlink:href="#file-fill" fill="#ffffff"/>
    <use xlink:href="#file-outline" fill="#ffffff" stroke="#ffffff" stroke-width="0"/>
    <use xlink:href="#file-corner" fill="#ffffff" stroke="#ffffff" stroke-width="0"/>
    <use xlink:href="#officeoverlay" fill="#ffffff"/>
    <use xlink:href="#msexcelE" fill="transparent"/>
  </g>
</svg>
