<?xml version="1.0" encoding="UTF-8"?>
<!-- Generator: Adobe Illustrator 19.2.1, SVG Export Plug-In . SVG Version: 6.00 Build 0)  -->
<svg xmlns="http://www.w3.org/2000/svg" xmlns:xlink="http://www.w3.org/1999/xlink" version="1.1" id="Layer_1" x="0px" y="0px" viewBox="0 0 48 48" style="enable-background:new 0 0 48 48;" xml:space="preserve">
<style type="text/css">
	.st0{fill:url(#SVGID_1_);}
	.st1{fill:#4A4A4A;}
	.st2{fill:url(#SVGID_2_);}
	.st3{fill:url(#SVGID_3_);}
	.st4{display:none;}
	.st5{display:inline;fill:#4A4A4A;}
	.st6{fill:#E81F1F;}
</style>
<g>
	<g>
		<g id="file-fill">

				<linearGradient id="SVGID_1_" gradientUnits="userSpaceOnUse" x1="8.6095" y1="38.1173" x2="43.9254" y2="2.8014" gradientTransform="matrix(1 0 0 -1 0 48)">
				<stop offset="0" style="stop-color:#FFFFFF"/>
				<stop offset="1" style="stop-color:#F2F2F2"/>
			</linearGradient>
			<path class="st0" d="M45,18v25.5c0,1.5-1.5,1.5-1.5,1.5H16.2c-1.5,0-1.5-1.5-1.5-1.5v-39c0,0,0-1.5,1.5-1.5h13.6"/>
		</g>
	</g>
	<g>
		<path id="file-corner" class="st1" d="M48,2c0-2-2-2-2-2h-8.9c-0.5,0-0.9,0-1.1,0.5s0.5,1.2,1,1.5l9,9c0.5,0.4,1.1,1.1,1.6,0.9    c0.3,0,0.4-0.5,0.4-0.9"/>
	</g>
	<g>
		<g id="file-fill_1_">

				<linearGradient id="SVGID_2_" gradientUnits="userSpaceOnUse" x1="29.8078" y1="45" x2="29.8078" y2="45" gradientTransform="matrix(1 0 0 -1 0 48)">
				<stop offset="0" style="stop-color:#FFFFFF"/>
				<stop offset="1" style="stop-color:#F2F2F2"/>
			</linearGradient>
			<path class="st2" d="M29.8,3"/>

				<linearGradient id="SVGID_3_" gradientUnits="userSpaceOnUse" x1="8.9406" y1="37.7862" x2="43.9254" y2="2.8014" gradientTransform="matrix(1 0 0 -1 0 48)">
				<stop offset="0" style="stop-color:#FFFFFF"/>
				<stop offset="1" style="stop-color:#F2F2F2"/>
			</linearGradient>
			<path class="st3" d="M45,18v25.5c0,1.5-1.5,1.5-1.5,1.5H16.2c-1.5,0-1.5-1.5-1.5-1.5v-39"/>
		</g>
	</g>

	<g>
		<path id="bunny" class="st6" d="M25.7,8.9c0.9,0.5,3.3,2.3,4.7,3.7c0.2,0.2,0.5,0.5,0.7,0.7c0.2,0.2,0.5,0.5,0.7,0.7    c0.6,0.9,1.4,2.1,2.2,2.3c2.9,1.1,5.3,3.6,6,6.5c0,0.4-0.2,1.1-0.4,1.4c-0.2,0.3-0.9,0.9-1.3,1.1c-0.5,0.2-2.7,0.2-2.7,0.2    c-0.3,0-0.7-0.1-1-0.2c-0.1,0-0.2-0.1-0.3-0.1c-0.1,0-0.1,0-0.1,0c0,0,0,0.1-0.1,0.1c-0.1,0.1-0.2,0.3-0.2,0.4    c-1.2,2.4-2.6,4.7-4.6,6.6c-0.1,0.1-0.1,0.1-0.2,0.2c0,0-0.1,0.1-0.1,0.1c0,0,0,0.1,0,0.1c0,0.2,0,0.3-0.1,0.5    c-0.1,0.3-0.1,0.7-0.2,1c-0.1,0.3-0.2,0.7-0.3,1c0,0.2-0.1,0.3-0.1,0.5c0,0.1-0.1,0.1,0,0.2c0,0,0.1,0.1,0.1,0.1    c0.4,0.2,0.8,0.4,1.1,0.7c0.4,0.3,0.6,0.7,0.6,1.2c0,0.1,0,0.1-0.1,0.1c0,0-0.3-0.1-0.4-0.1c-0.1,0-0.1,0.3-0.2,0.4    c-0.2,0.1-0.3,0.1-0.6,0.1c-0.5,0.1-1.1-0.1-1.6-0.1c-0.2,0-0.4,0-0.7-0.1c-0.1,0-0.2-0.1-0.3,0c-0.1,0.1-0.2,0.2-0.3,0.3    c-0.5,0.5-1,0.9-1.5,1.4c-0.3,0.2-0.5,0.4-0.8,0.6c-0.2,0.1-0.3,0.2-0.5,0.3c-0.1,0-0.1,0.1-0.2,0.1c-0.1,0-0.2,0-0.3,0    c-0.2,0-0.4,0-0.6,0c0-0.1-0.1-0.2-0.2-0.2c-0.1,0-0.1,0-0.2,0c-0.1,0-0.1-0.1-0.1-0.2c0-0.1,0-0.2,0-0.3c0-0.4,0.2-0.6,0.5-0.9    c0.2-0.2,0.5-0.4,0.7-0.7c0-0.1,0.1-0.2,0.1-0.3c0-0.1,0-0.3,0-0.3c-0.3-0.1-0.5-0.2-0.8-0.3c-0.6-0.1-1.2-0.2-1.8-0.3    c-1.2-0.1-2.5-0.1-3.6-0.5c-0.1,0-0.1,0-0.2-0.1c0-0.1-0.1-0.1-0.1-0.2c-0.1-0.1-0.1-0.2-0.2-0.3c-0.1-0.2-0.2-0.5-0.4-0.7    c-0.2-0.5-0.5-0.9-0.8-1.4c-0.3-0.5-0.6-0.9-0.9-1.3c-0.1-0.1-0.2-0.3-0.4-0.4c-0.8-1.1-2-1.7-3.1-2.2c-0.2-0.1-0.5-0.2-0.7-0.3    c-2-1.1-3.8-3.6-3.2-5.9c0.1-0.2,0.1-0.3,0.2-0.5c0,0,0-0.1,0-0.1c0,0,0,0,0-0.1c0,0-0.1,0-0.1-0.1c-0.1-0.1-0.3-0.2-0.4-0.3    C6.1,23,6,22.8,5.9,22.5s-0.2-0.5-0.3-0.7c-0.3-1.2-1.2-2.2-2.1-3.2c-1.1-1,0.7-1.8,1.6-2C7.1,16.5,9,18,9.3,20    c0,0.2,0.1,0.4,0.1,0.6c0,0.1,0.1,0.2,0.1,0.3c0,0,0,0.1,0,0.1c0,0.1,0,0.1,0.1,0c0.3-0.1,0.6-0.2,0.9-0.3    c0.5-0.2,1.1-0.5,1.6-0.7c0.3-0.1,0.6-0.2,0.8-0.3c3.2-1.1,7-0.2,9.9,1.3c0.2,0.1,0.5,0.3,0.7,0.4c0.2,0.1,0.5,0.2,0.7,0.3    c0.8,0.3,1.9,0.5,2.6-0.2c0.3-0.4,0.5-0.8,0.8-1.3c0.2-0.5,0.5-0.9,0.9-1.2c0.4-0.3,0.8-0.5,1-0.8c0.1-0.2,0.2-0.4,0.2-0.6    c0,0,0-0.1,0-0.1c0,0,0,0-0.1,0c0,0-0.1-0.1-0.1-0.1c-0.1-0.1-0.2-0.1-0.3-0.1c-1.2-0.6-2.4-0.9-3.6-1.3c-0.3-0.1-0.6-0.2-0.9-0.3    c-0.2-0.1-0.5-0.2-0.7-0.3c-1.3-0.5-2.3-1.3-3.2-2.2c-0.2-0.2-0.3-0.4-0.5-0.7c-0.1-0.2-0.4-0.8-0.2-0.9c0.5-0.2,2.2,0,3.2,0.5    c0.3,0.1,0.6,0.2,0.8,0.3c0.8,0.3,1.7,0.6,2.6,0.6c-0.3-0.8-1-1.3-1.6-1.8c-0.3-0.3-0.6-0.6-0.8-0.9c-0.2-0.4-0.5-1.1-0.4-1.3    C24.2,8.7,24.8,8.4,25.7,8.9z M25.6,30.6c-0.4,0.1-0.8,0.2-1.3,0.2c-1.1,0.1-2.3,0.1-3.5,0c-1.1,0-2.1-0.1-3.2,0    c0.1,0.6,0.2,1.2,0.5,1.8c0.2,0.5,0.5,1,0.8,1.4c0.2,0.2,0.3,0.5,0.5,0.7c0,0.1,0.1,0.1,0.1,0.2c0.1,0,0.1,0,0.2,0.1    c0.1,0,0.3,0.1,0.4,0.1c0.6,0.1,1.2,0.3,1.8,0.4c0.7,0.1,1.3,0.2,2,0.2c0.4,0,0.7,0,1.1,0c0.1,0,0.1,0,0.2,0c0.1,0,0,0,0.1-0.1    c0-0.1,0-0.1,0-0.2c0-0.1,0.1-0.3,0.1-0.5C25.6,33.4,25.6,32,25.6,30.6"/>
	</g>
	<path class="st1" d="M31.9,0H16c-2,0-4,1.3-4,4v14l4-1V5c0,0,0-1,1-1h12l15,14v25c0,0,0,1-1,1H17c-0.8-0.1-1.1-0.8-1-1v-3l-4-5v9   c0,0,1,4,4,4h29c3,0,3-3,3-3l0-29L31.9,0z"/>
</g>
</svg>
