<?xml version="1.0" encoding="UTF-8"?>
<svg xmlns="http://www.w3.org/2000/svg" xmlns:xlink="http://www.w3.org/1999/xlink" width="32px" height="32px" viewBox="0 0 32 32" x="0px" y="0px" version="1.1">
  <defs>
    <g id="file-fill" fill="none">
      <path d="M30,12l0,17c0,1-1,1-1,1H11c-1,0-1-1-1-1V3c0,0,0-1,1-1h9"/>
    </g>
    <path id="file-corner" d="M32,1c0-1-1-1-1-1h-6.2c-0.3,0-0.6,0-0.7,0.3c-0.1,0.3-0.1,0.6,0.2,0.8l6.5,6.1c0.2,0.2,0.6,0.3,0.8,0.2C31.8,7.2,32,6.9,32,6.6"/>
    <path id="file-outline" d="M21,0H10C8,0,8,2,8,2v28c0,0,0,2,2,2h20c2,0,2-2,2-2V11L21,0zM30,29c0,0,0,1-1,1H11c-1,0-1-0.6-1-0.9V3c0,0,0-1,1-1h9l10,10L30,29z"/>
    <rect id="maskcanvas" width="32px" height="32px" fill="#ffffff"/>
    <mask id="externallinkmask">
      <use xlink:href="#maskcanvas"/>
      <use xlink:href="#externallinkarrow" transform="translate(-4 -1)" fill="#000000" stroke="#000000" stroke-width="2"/>
    </mask>
    <linearGradient id="externallinkgradient" gradientUnits="userSpaceOnUse" x1="18.2302" y1="7.5692" x2="18.2302" y2="30.8312" gradientTransform="matrix(0.9634 -0.2682 0.2682 0.9634 -4.2893 3.6834)">
      <stop offset="0" style="stop-color:#39B54A"/>
      <stop offset="0.6081" style="stop-color:#198A40"/>
      <stop offset="1" style="stop-color:#006838"/>
    </linearGradient>
    <path id="externallinkarrow" d="M11.1,24.5l5.2-7.9c0.1-0.1,0.3-0.2,0.5-0.2c0.2,0,0.3,0.2,0.4,0.4l0.9,3.8c2-1.9,5.8-4.7,5.2-7.5c-0.9-4.7-5.8-4.3-7.5-5.2c-0.6-0.3-1-0.8-0.7-1.4c0.3-0.6,1.1-0.8,1.8-0.7c3.5,0.4,9.4,2.2,9.8,7.6c0.3,4.3-4.1,9.4-7.6,11.9l0.8,3.2c0,0.2,0,0.4-0.2,0.5c-0.1,0.1-0.4,0.2-0.5,0.1l-7.9-3.7C11.1,25.3,11,25.1,11,25S11,24.6,11.1,24.5z"/>
  </defs>
  <g>
    <use xlink:href="#file-fill" fill="#ffffff"/>
    <use xlink:href="#file-outline" fill="#ffffff" stroke="#ffffff" stroke-width="0" style="mask:url(&quot;#externallinkmask&quot;);"/>
    <use xlink:href="#file-corner" fill="#ffffff" stroke="#ffffff" stroke-width="0"/>
    <use xlink:href="#externallinkarrow" transform="translate(-4 -1)" style="fill:url(&quot;#externallinkgradient&quot;);" fill="#ffffff"/>
  </g>
</svg>
