<?xml version="1.0" encoding="UTF-8"?>
<svg xmlns="http://www.w3.org/2000/svg" xmlns:xlink="http://www.w3.org/1999/xlink" width="32px" height="32px" viewBox="0 0 32 32" x="0px" y="0px" version="1.1">
  <defs>
    <linearGradient id="file-paper-gradient" gradientUnits="userSpaceOnUse" x1="5.9205" y1="6.643" x2="29.3585" y2="30.081">
      <stop offset="0" style="stop-color:#ffffff"/>
      <stop offset="1" style="stop-color:#f2f2f2"/>
    </linearGradient>
    <g id="file-fill" style="fill:url(&quot;#file-paper-gradient&quot;);">
      <path d="M30,12l0,17c0,1-1,1-1,1H11c-1,0-1-1-1-1V3c0,0,0-1,1-1h9"/>
    </g>
    <path id="file-corner" d="M32,1c0-1-1-1-1-1h-6.2c-0.3,0-0.6,0-0.7,0.3c-0.1,0.3-0.1,0.6,0.2,0.8l6.5,6.1c0.2,0.2,0.6,0.3,0.8,0.2C31.8,7.2,32,6.9,32,6.6"/>
    <path id="file-outline" d="M21,0H10C8,0,8,2,8,2v28c0,0,0,2,2,2h20c2,0,2-2,2-2V11L21,0zM30,29c0,0,0,1-1,1H11c-1,0-1-0.6-1-0.9V3c0,0,0-1,1-1h9l10,10L30,29z"/>
    <path id="officeoverlay" d="M16.765,4.653L1.756,7.135v18.836l15.009,2.48V4.653z"/>
    <path id="mspowerpointP" d="M8.573,11.045l-3.866,0.186v10.708l2.435,0.116v-3.771l1.202,0.02c0.352,0.006,0.685-0.009,1.003-0.052c0.318-0.041,0.624-0.104,0.909-0.193c0.286-0.087,0.555-0.197,0.805-0.33c0.255-0.138,0.49-0.294,0.708-0.479c0.206-0.174,0.388-0.362,0.544-0.566c0.158-0.204,0.29-0.418,0.396-0.648c0.106-0.23,0.182-0.476,0.235-0.731c0.055-0.257,0.081-0.526,0.081-0.808c0-0.609-0.097-1.143-0.287-1.594c-0.195-0.449-0.478-0.82-0.857-1.108c-0.377-0.287-0.846-0.492-1.401-0.616C9.927,11.051,9.292,11.01,8.573,11.045zM7.142,16.416v-3.409l0.987-0.032c0.341-0.009,0.638,0.017,0.896,0.079c0.257,0.062,0.471,0.166,0.645,0.303c0.172,0.138,0.303,0.315,0.391,0.528c0.086,0.215,0.131,0.466,0.131,0.754c0,0.294-0.045,0.555-0.131,0.777c-0.088,0.223-0.219,0.407-0.391,0.555c-0.174,0.147-0.388,0.258-0.645,0.332c-0.259,0.075-0.556,0.109-0.896,0.113H7.142z"/>
  </defs>
  <g>
    <use xlink:href="#file-fill" fill="#ffffff"/>
    <use xlink:href="#file-outline" fill="#4a4a4a" stroke="#4a4a4a" stroke-width="0"/>
    <use xlink:href="#file-corner" fill="#4a4a4a" stroke="#4a4a4a" stroke-width="0"/>
    <use xlink:href="#officeoverlay" fill="#DD5900"/>
    <use xlink:href="#mspowerpointP" fill="#ffffff"/>
  </g>
</svg>
