<?xml version="1.0" encoding="UTF-8"?>
<svg xmlns="http://www.w3.org/2000/svg" xmlns:xlink="http://www.w3.org/1999/xlink" width="32px" height="32px" viewBox="0 0 32 32" x="0px" y="0px" version="1.1">
  <defs>
    <linearGradient id="file-paper-gradient" gradientUnits="userSpaceOnUse" x1="5.9205" y1="6.643" x2="29.3585" y2="30.081">
      <stop offset="0" style="stop-color:#ffffff"/>
      <stop offset="1" style="stop-color:#f2f2f2"/>
    </linearGradient>
    <g id="file-fill" style="fill:url(&quot;#file-paper-gradient&quot;);">
      <path d="M30,12l0,17c0,1-1,1-1,1H11c-1,0-1-1-1-1V3c0,0,0-1,1-1h9"/>
    </g>
    <path id="file-corner" d="M32,1c0-1-1-1-1-1h-6.2c-0.3,0-0.6,0-0.7,0.3c-0.1,0.3-0.1,0.6,0.2,0.8l6.5,6.1c0.2,0.2,0.6,0.3,0.8,0.2C31.8,7.2,32,6.9,32,6.6"/>
    <path id="file-outline" d="M21,0H10C8,0,8,2,8,2v28c0,0,0,2,2,2h20c2,0,2-2,2-2V11L21,0zM30,29c0,0,0,1-1,1H11c-1,0-1-0.6-1-0.9V3c0,0,0-1,1-1h9l10,10L30,29z"/>
    <path id="officeoverlay" d="M16.765,4.653L1.756,7.135v18.836l15.009,2.48V4.653z"/>
    <path id="msaccessA" d="M9.84,11.035l-2.249,0.14L4.707,21.538l1.91,0.12l0.567-2.301l2.994,0.104l0.622,2.456l2.224,0.138L9.84,11.035zM7.579,17.55l0.901-3.601c0.018-0.073,0.037-0.149,0.052-0.225c0.015-0.075,0.028-0.151,0.042-0.229c0.011-0.078,0.023-0.157,0.033-0.237c0.007-0.08,0.016-0.163,0.021-0.244h0.047c0.006,0.088,0.014,0.177,0.024,0.259c0.006,0.085,0.018,0.166,0.029,0.247c0.011,0.08,0.025,0.156,0.04,0.231c0.015,0.074,0.031,0.148,0.049,0.219l0.917,3.608L7.579,17.55z"/>
  </defs>
  <g>
    <use xlink:href="#file-fill" fill="#ffffff"/>
    <use xlink:href="#file-outline" fill="#4a4a4a" stroke="#4a4a4a" stroke-width="0"/>
    <use xlink:href="#file-corner" fill="#4a4a4a" stroke="#4a4a4a" stroke-width="0"/>
    <use xlink:href="#officeoverlay" fill="#BA141A"/>
    <use xlink:href="#msaccessA" fill="#ffffff"/>
  </g>
</svg>
