<?xml version="1.0" encoding="UTF-8"?>
<svg xmlns="http://www.w3.org/2000/svg" xmlns:xlink="http://www.w3.org/1999/xlink" width="32px" height="32px" viewBox="0 0 32 32" x="0px" y="0px" version="1.1">
  <defs>
    <linearGradient id="file-paper-gradient" gradientUnits="userSpaceOnUse" x1="5.9205" y1="6.643" x2="29.3585" y2="30.081">
      <stop offset="0" style="stop-color:#ffffff"/>
      <stop offset="1" style="stop-color:#f2f2f2"/>
    </linearGradient>
    <g id="file-fill" style="fill:url(&quot;#file-paper-gradient&quot;);">
      <path d="M30,12l0,17c0,1-1,1-1,1H11c-1,0-1-1-1-1V3c0,0,0-1,1-1h9"/>
    </g>
    <path id="file-corner" d="M32,1c0-1-1-1-1-1h-6.2c-0.3,0-0.6,0-0.7,0.3c-0.1,0.3-0.1,0.6,0.2,0.8l6.5,6.1c0.2,0.2,0.6,0.3,0.8,0.2C31.8,7.2,32,6.9,32,6.6"/>
    <path id="file-outline" d="M21,0H10C8,0,8,2,8,2v28c0,0,0,2,2,2h20c2,0,2-2,2-2V11L21,0zM30,29c0,0,0,1-1,1H11c-1,0-1-0.6-1-0.9V3c0,0,0-1,1-1h9l10,10L30,29z"/>
    <path id="filelabelbg" d="M19,5H1c0,0-1,0.016-1,1v8.033C0,15,1,15,1,15h18c0,0,1,0,1-1V6C20,5,19,5,19,5z"/>
    <rect id="maskcanvas" width="32px" height="32px" fill="#ffffff"/>
    <mask id="filelabelbgmask">
      <use xlink:href="#maskcanvas"/>
      <path d="M19,5H1c0,0-1,0.016-1,1v8.033C0,15,1,15,1,15h18c0,0,1,0,1-1V6C20,5,19,5,19,5z" stroke="#000000" stroke-width="2"/>
    </mask>
    <path id="pdfswirl" d="M27.096,21.665c-0.885-0.43-1.965-0.618-4.448-0.333c-1.33-0.461-3.196-2.628-3.776-4.834c0.15-1.107,0.531-3.051,0.445-3.958c0.078-0.362-0.119-0.72-0.195-0.989c0,0-0.365-1.072-0.884-1.107c-0.52-0.034-0.907,1.107-0.907,1.107c0.029,0-0.577,2.262,0.358,4.945c-0.35,2.242-3.594,7.843-3.594,7.843l-0.259-0.344c0,0-2.508,1.14-3.106,2.938c-0.163,0.685,0.06,1.166,0.259,1.166c0.092,0.03,0.419,0.301,1.494-0.238c1.223-0.593,3.186-3.793,3.255-4.063c0.052-0.257,6.3-1.605,6.541-1.355c0.476,0.401,3.313,1.359,4.344,1.166c0.883-0.217,0.966-0.567,0.966-0.567S27.978,22.093,27.096,21.665zM11.825,27.082c-0.211-0.172,1.562-2.067,2.003-2.357C13.528,25.454,11.979,27.182,11.825,27.082zM18.342,11.987c0.113,0.113,0.158,0.312,0.154,0.553c-0.041,0.44-0.186,1.164-0.261,1.534C18.151,13.323,18.124,12.022,18.342,11.987zM16.299,22.849c0.824-1.438,1.506-2.955,2.046-4.486c0.673,1.397,1.527,2.444,2.455,3.2C19.307,21.836,17.745,22.266,16.299,22.849zM24.773,22.3c0.47-0.072,1.9,0.093,2.068,0.372C26.718,22.864,25.096,22.515,24.773,22.3z"/>
    <text id="pdftext" font-family="&quot;roboto&quot;" font-variant="&quot;black&quot;">PDF</text>
  </defs>
  <g>
    <use xlink:href="#file-fill" fill="#ffffff"/>
    <use xlink:href="#file-outline" fill="#4a4a4a" stroke="#4a4a4a" stroke-width="0"/>
    <use xlink:href="#file-corner" fill="#4a4a4a" stroke="#4a4a4a" stroke-width="0"/>
    <use xlink:href="#pdfswirl" fill="#EC1C24" style="mask:url(&quot;#filelabelbgmask&quot;);"/>
    <use xlink:href="#filelabelbg" fill="#EC1C24"/>
    <use xlink:href="#pdftext" font-family="&quot;roboto&quot;" font-variant="&quot;black&quot;" fill="#FFFFFF" transform="translate(2 13)" font-size="7.7241"/>
  </g>
</svg>
