<?xml version="1.0" encoding="UTF-8"?>
<svg xmlns="http://www.w3.org/2000/svg" xmlns:xlink="http://www.w3.org/1999/xlink" width="32px" height="32px" viewBox="0 0 32 32" x="0px" y="0px" version="1.1">
  <defs>
    <linearGradient id="file-paper-gradient" gradientUnits="userSpaceOnUse" x1="5.9205" y1="6.643" x2="29.3585" y2="30.081">
      <stop offset="0" style="stop-color:#ffffff"/>
      <stop offset="1" style="stop-color:#f2f2f2"/>
    </linearGradient>
    <g id="file-fill" style="fill:url(&quot;#file-paper-gradient&quot;);">
      <path d="M30,12l0,17c0,1-1,1-1,1H11c-1,0-1-1-1-1V3c0,0,0-1,1-1h9"/>
    </g>
    <path id="file-corner" d="M32,1c0-1-1-1-1-1h-6.2c-0.3,0-0.6,0-0.7,0.3c-0.1,0.3-0.1,0.6,0.2,0.8l6.5,6.1c0.2,0.2,0.6,0.3,0.8,0.2C31.8,7.2,32,6.9,32,6.6"/>
    <path id="file-outline" d="M21,0H10C8,0,8,2,8,2v28c0,0,0,2,2,2h20c2,0,2-2,2-2V11L21,0zM30,29c0,0,0,1-1,1H11c-1,0-1-0.6-1-0.9V3c0,0,0-1,1-1h9l10,10L30,29z"/>
    <g id="librarypaperfill">
      <path d="M25.026,25.536c-1.338-0.183-2.8-0.279-4.285-0.279c-1.482,0-2.945,0.097-4.284,0.279V13.359c0.305-0.3,1.81-0.821,4.284-0.821c2.477,0,3.98,0.521,4.285,0.821V25.536z"/>
      <path d="M14.78,25.536c-1.336-0.183-2.801-0.279-4.284-0.279c-1.482,0-2.946,0.097-4.285,0.279V13.359c0.306-0.3,1.81-0.821,4.285-0.821c2.476,0,3.98,0.521,4.284,0.821V25.536z"/>
    </g>
  </defs>
  <g>
    <use xlink:href="#file-fill" fill="#ffffff"/>
    <use xlink:href="#file-outline" fill="#4a4a4a" stroke="#4a4a4a" stroke-width="0"/>
    <use xlink:href="#file-corner" fill="#4a4a4a" stroke="#4a4a4a" stroke-width="0"/>
    <use xlink:href="#librarypaperfill" fill="#ffffff" transform="translate(-2.5 0)"/>
    <g transform="translate(-2.5 0)">
      <path d="M7.621,16.623c0,0.166,0.133,0.302,0.302,0.302h5.083c0.167,0,0.302-0.136,0.302-0.302s-0.135-0.302-0.302-0.302H7.923C7.754,16.321,7.621,16.457,7.621,16.623z" fill="#4a4a4a" stroke="#4a4a4a" stroke-width="0"/>
      <path d="M13.006,18.803H7.923c-0.168,0-0.302,0.132-0.302,0.3s0.133,0.302,0.302,0.302h5.083c0.167,0,0.302-0.134,0.302-0.302S13.172,18.803,13.006,18.803z" fill="#4a4a4a" stroke="#4a4a4a" stroke-width="0"/>
      <path d="M13.006,21.28H7.923c-0.168,0-0.302,0.135-0.302,0.302c0,0.164,0.133,0.299,0.302,0.299h5.083c0.167,0,0.302-0.135,0.302-0.299C13.308,21.415,13.172,21.28,13.006,21.28z" fill="#4a4a4a" stroke="#4a4a4a" stroke-width="0"/>
      <path d="M17.865,16.625c0,0.166,0.132,0.301,0.302,0.301h5.082c0.168,0,0.302-0.135,0.302-0.301c0-0.165-0.134-0.3-0.302-0.3h-5.082C17.997,16.324,17.865,16.459,17.865,16.625z" fill="#4a4a4a" stroke="#4a4a4a" stroke-width="0"/>
      <path d="M23.249,18.805h-5.082c-0.17,0-0.302,0.132-0.302,0.301s0.132,0.301,0.302,0.301h5.082c0.168,0,0.302-0.132,0.302-0.301S23.417,18.805,23.249,18.805z" fill="#4a4a4a" stroke="#4a4a4a" stroke-width="0"/>
      <path d="M23.249,21.285h-5.082c-0.17,0-0.302,0.132-0.302,0.301c0,0.162,0.132,0.299,0.302,0.299h5.082c0.168,0,0.302-0.137,0.302-0.299C23.551,21.417,23.417,21.285,23.249,21.285z" fill="#4a4a4a" stroke="#4a4a4a" stroke-width="0"/>
    </g>
    <path d="M18.2,11c-1.9,0-4,0.3-5,1c-1.1-0.7-3.2-1-5-1c-2.7,0-5.8,0.6-5.8,2.2v13.2c0,0.2,0.1,0.4,0.3,0.6c0.2,0.1,0.4,0.2,0.6,0.2c1.5-0.3,3.2-0.4,4.9-0.4s3.4,0.1,4.9,0.4c0,0,0,0,0.1,0c0,0,0,0,0,0c0,0,0,0,0,0c0,0,0.1,0,0.1,0c0,0,0,0,0,0c1.5-0.3,3.2-0.4,4.9-0.4s3.4,0.1,4.9,0.4c0.2,0,0.4,0,0.6-0.2c0.2-0.1,0.3-0.4,0.3-0.6V13.2C24,11.6,20.9,11,18.2,11zM12.4,25.6c-1.3-0.2-2.8-0.3-4.3-0.3c-1.5,0-2.9,0.1-4.3,0.3V13.4c0.3-0.3,1.8-0.8,4.3-0.8c2.5,0,4,0.5,4.3,0.8V25.6zM22.6,25.6c-1.3-0.2-2.8-0.3-4.3-0.3c-1.5,0-2.9,0.1-4.3,0.3V13.4c0.3-0.3,1.8-0.8,4.3-0.8c2.5,0,4,0.5,4.3,0.8V25.6z" fill="#4a4a4a" stroke="#4a4a4a" stroke-width="0"/>
  </g>
</svg>
