<?xml version="1.0" encoding="UTF-8"?>
<svg xmlns="http://www.w3.org/2000/svg" xmlns:xlink="http://www.w3.org/1999/xlink" width="32px" height="32px" viewBox="0 0 32 32" x="0px" y="0px" version="1.1">
  <defs>
    <linearGradient id="file-paper-gradient" gradientUnits="userSpaceOnUse" x1="5.9205" y1="6.643" x2="29.3585" y2="30.081">
      <stop offset="0" style="stop-color:#ffffff"/>
      <stop offset="1" style="stop-color:#f2f2f2"/>
    </linearGradient>
    <g id="file-fill" style="fill:url(&quot;#file-paper-gradient&quot;);">
      <path d="M30,12l0,17c0,1-1,1-1,1H11c-1,0-1-1-1-1V3c0,0,0-1,1-1h9"/>
    </g>
    <path id="file-corner" d="M32,1c0-1-1-1-1-1h-6.2c-0.3,0-0.6,0-0.7,0.3c-0.1,0.3-0.1,0.6,0.2,0.8l6.5,6.1c0.2,0.2,0.6,0.3,0.8,0.2C31.8,7.2,32,6.9,32,6.6"/>
    <path id="file-outline" d="M21,0H10C8,0,8,2,8,2v28c0,0,0,2,2,2h20c2,0,2-2,2-2V11L21,0zM30,29c0,0,0,1-1,1H11c-1,0-1-0.6-1-0.9V3c0,0,0-1,1-1h9l10,10L30,29z"/>
    <linearGradient id="filmcellgradient" gradientUnits="userSpaceOnUse" x1="10.5" y1="7" x2="10.5" y2="12">
      <stop offset="0" style="stop-color:#4797DB"/>
      <stop offset="1" style="stop-color:#72B4E2"/>
    </linearGradient>
    <path id="filmoutline" d="M17,5H4C3.447,5,3,5.448,3,6v21c0,0.553,0.447,1,1,1h13c0.553,0,1-0.447,1-1V6C18,5.448,17.553,5,17,5zM6,26H4v-2h2V26zM6,23H4v-2h2V23zM6,20H4v-2h2V20zM6,17H4v-2h2V17zM6,14H4v-2h2V14zM6,11H4V9h2V11zM6,8H4V6h2V8zM17,26h-2v-2h2V26zM17,23h-2v-2h2V23zM17,20h-2v-2h2V20zM17,17h-2v-2h2V17zM17,14h-2v-2h2V14zM17,11h-2V9h2V11zM17,8h-2V6h2V8z"/>
    <path id="filmcell" d="M14,11c0,0.552-0.447,1-1,1H8c-0.552,0-1-0.448-1-1V8c0-0.552,0.448-1,1-1h5c0.553,0,1,0.448,1,1V11z"/>
  </defs>
  <g>
    <use xlink:href="#file-fill" fill="#ffffff"/>
    <use xlink:href="#file-outline" fill="#4a4a4a" stroke="#4a4a4a" stroke-width="0"/>
    <use xlink:href="#file-corner" fill="#4a4a4a" stroke="#4a4a4a" stroke-width="0"/>
    <use xlink:href="#filmoutline" fill="#4a4a4a" stroke="#4a4a4a" stroke-width="0"/>
    <use xlink:href="#filmcell" style="fill:url(&quot;#filmcellgradient&quot;);"/>
    <use xlink:href="#filmcell" style="fill:url(&quot;#filmcellgradient&quot;);" transform="translate(0 7)"/>
    <use xlink:href="#filmcell" style="fill:url(&quot;#filmcellgradient&quot;);" transform="translate(0 14)"/>
  </g>
</svg>
