<?xml version="1.0" encoding="UTF-8"?>
<svg xmlns="http://www.w3.org/2000/svg" xmlns:xlink="http://www.w3.org/1999/xlink" width="32px" height="32px" viewBox="0 0 32 32" x="0px" y="0px" version="1.1">
  <defs>
    <linearGradient id="puzzle-fill-gradient" gradientUnits="userSpaceOnUse" x1="20" y1="3" x2="20" y2="29">
      <stop offset="0" style="stop-color:#ffffff"/>
      <stop offset="1" style="stop-color:#dedede"/>
    </linearGradient>
    <path id="puzzle-fill" d="M20,25c0,1,0.719,2.319,1.325,2.925C21.508,28.107,22,28.719,22,28.719c-1.984,0.375-5.016,0.375-6,0c0,0,0.464-0.409,0.587-0.52C17.197,27.648,18,26,18,25s0-2,0-2h-6V9h5h1V7c0-1-0.803-2.648-1.413-3.199C16.464,3.69,16,3.281,16,3.281c0.984-0.375,4.016-0.375,6,0c0,0-0.492,0.611-0.675,0.794C20.719,4.681,20,6,20,7v2h1h7v4.032C27,13,27,13,26.004,12.247C25.423,11.807,25,11,24,11c-2,0-2,2.702-2,4v2c0,1.299,0,4,2,4c1,0,1.582-0.676,2.208-1.261C27,19,27,19,28,19v4h-8C20,24,20,24,20,25"/>
    <path id="puzzle-outline" d="M24.52,13.587C25.07,14.197,27,15,28,15s2-1,2-2s0-5,0-5s0-1-1-1s-7,0-7,0c0-1,0-1,0.739-1.792C23.324,4.582,24,4,24,3c0-2-2.701-2-4-2h-2c-1.298,0-4,0-4,2c0,1,0.807,1.423,1.247,2.004C16,6,15.968,6,16,7h-5c-1,0-1,0.969-1,1v16c0,0,0,1,1,1h5c-0.032,1,0,1-0.753,1.996C14.807,27.577,14,28,14,29c0,2,2.702,2,4,2h2c1.299,0,4,0,4-2c0-1-0.676-1.582-1.261-2.208C22,26,22,26,22,25h7c1,0,1-1,1-1s0-3.934,0-4.967S29,17,28,17s-2.601,0.719-3.206,1.325C24.611,18.508,24,19,24,19c-0.375-1.984-0.375-5.016,0-6C24,13,24.409,13.464,24.52,13.587zM24,21c1,0,1.582-0.676,2.208-1.261C27,19,27,19,28,19v4h-8c0,1,0,1,0,2s0.719,2.319,1.325,2.925C21.508,28.107,22,28.719,22,28.719c-1.984,0.375-5.016,0.375-6,0c0,0,0.464-0.409,0.587-0.52C17.197,27.648,18,26,18,25s0-2,0-2h-6V9h5h1V7c0-1-0.803-2.648-1.413-3.199C16.464,3.69,16,3.281,16,3.281c0.984-0.375,4.016-0.375,6,0c0,0-0.492,0.611-0.675,0.794C20.719,4.681,20,6,20,7v2h1h7v4.032C27,13,27,13,26.004,12.247C25.423,11.807,25,11,24,11c-2,0-2,2.702-2,4v2C22,18.299,22,21,24,21z"/>
  </defs>
  <g style="fill:url(&quot;#puzzle-fill-gradient&quot;);">
    <use xlink:href="#puzzle-fill"/>
    <use xlink:href="#puzzle-outline" fill="#4a4a4a" stroke="#4a4a4a" stroke-width="0"/>
  </g>
</svg>
