<?xml version="1.0" encoding="UTF-8"?>
<svg xmlns="http://www.w3.org/2000/svg" xmlns:xlink="http://www.w3.org/1999/xlink" width="32px" height="32px" viewBox="0 0 32 32" x="0px" y="0px" version="1.1">
  <defs/>
  <g>
    <path d="M15.9,27c-2.6,0-5.2-0.1-7.7-0.6c-1.7-0.3-3.4-0.7-5-1.6c-0.7-0.4-1.4-0.9-1.9-1.5c-0.4-0.6-0.4-0.9,0.2-1.4c0.4-0.3,0.9-0.6,1.3-1c0.1-0.1,0.2-0.2,0.2-0.4c0.3-4.1,1.9-7.6,5-10.4c2.3-2,5-3.1,8.1-3c3.9,0.1,7,1.8,9.4,4.8c2,2.5,3.1,5.4,3.3,8.6c0,0.1,0.1,0.3,0.2,0.4c0.5,0.4,0.9,0.7,1.4,1.1c0.4,0.3,0.5,0.6,0.2,1.1c-0.4,0.7-1.1,1.2-1.9,1.7c-1.4,0.8-2.9,1.2-4.5,1.5C21.4,26.9,18.6,27,15.9,27zM22.3,10.8c0,0.2,0,0.3,0,0.4c0,0.9,0,1.7,0,2.6c0,0.6-0.4,0.9-0.9,0.9c-0.6,0-1-0.4-1-1c0-1.3,0-2.6,0-3.8c0-0.2,0-0.3-0.2-0.4C19.4,9.3,18.7,9,18,8.8c-0.4-0.1-0.8-0.1-1.2-0.2c0,1.1,0,2.1,0,3.1c0,1.5,0,3.1,0,4.6c0,0.6-0.4,1-1,1c-0.5,0-0.9-0.4-0.9-1c0-2.4,0-4.9,0-7.3c0-0.1,0-0.2,0-0.3c-0.1,0-0.2,0-0.2,0c-1.1,0.1-2.1,0.4-3.1,0.8c-0.2,0.1-0.3,0.2-0.3,0.5c0,1.2,0,2.4,0,3.6c0,0.2,0,0.3-0.1,0.5c-0.1,0.4-0.6,0.7-1,0.6c-0.4-0.1-0.8-0.4-0.8-0.9c0-0.9,0-1.7,0-2.6c0-0.1,0-0.2,0-0.4c-0.2,0.1-0.2,0.2-0.3,0.2c-0.4,0.4-0.9,0.8-1.3,1.3c-2.2,2.5-3.4,5.4-3.5,8.8c0,0.4-0.1,0.6-0.4,0.8c-0.4,0.3-0.8,0.6-1.2,1C2.7,22.9,2.8,23,3,23.1c0.5,0.3,1,0.7,1.6,0.9c2,0.9,4.1,1.2,6.2,1.4c2.2,0.2,4.5,0.3,6.7,0.2c2.5-0.1,4.9-0.3,7.3-0.9c1.2-0.3,2.3-0.7,3.4-1.3c0.3-0.2,0.6-0.4,0.9-0.6c-0.5-0.4-0.9-0.7-1.3-1c-0.3-0.2-0.4-0.5-0.4-0.8c-0.1-3-1.1-5.7-2.9-8.1C23.8,12.1,23.1,11.4,22.3,10.8z" fill="#ffffff" stroke="#ffffff" stroke-width="0"/>
  </g>
</svg>
