<?xml version="1.0" encoding="UTF-8"?>
<svg xmlns="http://www.w3.org/2000/svg" xmlns:xlink="http://www.w3.org/1999/xlink" width="32px" height="32px" viewBox="0 0 32 32" x="0px" y="0px" version="1.1">
  <defs>
    <rect id="maskcanvas" width="32px" height="32px" fill="#ffffff"/>
    <mask id="screwdrivermask" fill="#000000" stroke="#000000" stroke-width="2">
      <use xlink:href="#maskcanvas"/>
      <use xlink:href="#screwdriver_" transform="rotate(180) translate(-2 -1)" style="transform-origin:16px 16px;"/>
    </mask>
    <g id="screwdriver_">
      <path d="M28.7,6.9C27.8,6,26.8,5,25.9,4.1c-0.5-0.5-1.2-0.5-1.7,0c-2.9,2.9-5.8,5.8-8.7,8.7c-0.1,0.1-0.3,0.4-0.3,0.6c0,0.4-0.3,0.6-0.6,0.7c-0.1,0-0.1,0-0.2,0.1c-0.4,0.1-0.5,0.3-0.6,0.7c-0.1,0.5,0,0.9,0.3,1.2c0.1,0.1,0.1,0.1,0.2,0.2c-0.1,0.1-0.1,0.2-0.2,0.2c-1.8,1.8-3.7,3.6-5.5,5.5c-0.7,0.7-1.4,1.3-2.2,1.8c-0.1,0.1-0.3,0.2-0.4,0.4c-0.7,1.1-1.4,2.2-2.2,3.2c0,0.1-0.1,0.2-0.1,0.2c0.5,0.5,1,1,1.6,1.6c0.1,0,0.1-0.1,0.2-0.1c1.1-0.7,2.2-1.4,3.2-2.2c0.2-0.1,0.3-0.3,0.4-0.4c0.4-0.8,1-1.5,1.6-2.1c1.9-1.8,3.7-3.7,5.5-5.5c0.1-0.1,0.1-0.2,0.2-0.3c0,0,0.1,0,0.1,0c0.1,0.1,0.1,0.2,0.2,0.3c0.4,0.4,1,0.4,1.5,0.1c0.1-0.1,0.2-0.2,0.3-0.4c0.1-0.2,0.1-0.4,0.2-0.6c0.1-0.2,0.2-0.3,0.4-0.3c0.3,0,0.5-0.1,0.7-0.3c2.9-2.9,5.8-5.8,8.7-8.7C29.1,8.1,29.1,7.4,28.7,6.9zM15.8,18.1c-1.9,1.9-3.8,3.8-5.7,5.7C9.5,24.4,9,25,8.6,25.7c-0.1,0.2-0.3,0.4-0.5,0.6c-0.8,0.6-1.7,1.1-2.5,1.7c-0.2,0.1-0.3,0.1-0.4,0c-0.1-0.2-0.3-0.3-0.5-0.4c0.1-0.1,0.1-0.2,0.2-0.3c0.6-0.9,1.1-1.7,1.7-2.6c0.1-0.1,0.2-0.3,0.4-0.4c0.8-0.4,1.5-1,2.1-1.7c1.8-1.9,3.7-3.7,5.6-5.6c0.1-0.1,0.1-0.1,0.2-0.2c0.4,0.4,0.8,0.8,1.2,1.2C16,18,15.9,18,15.8,18.1zM18,13.5c-0.1-0.1-0.3-0.3-0.4-0.4c2.3-2.3,4.6-4.6,7-7c0.1,0.1,0.3,0.3,0.4,0.4C22.6,8.9,20.3,11.2,18,13.5zM19.7,15.2c-0.2-0.2-0.3-0.3-0.5-0.4c2.3-2.3,4.7-4.7,7-7c0.1,0.1,0.3,0.3,0.5,0.5C24.3,10.6,22,12.9,19.7,15.2z"/>
    </g>
    <g id="wrench_">
      <path d="M9.9,4.1c2.8,0,5.3,2.2,5.7,5.2c0.1,0.7,0,1.3-0.1,2c-0.1,0.3,0,0.6,0.2,0.8c3.7,3.5,7.4,6.9,11.1,10.4c1.3,1.3,1.4,3.2,0.2,4.5c-1.2,1.3-3.4,1.3-4.7-0.1c-1.8-1.9-3.7-3.9-5.5-5.9c-1.7-1.8-3.3-3.5-5-5.3c-0.2-0.2-0.4-0.3-0.7-0.2c-3.4,0.8-6.6-1.3-7.2-4.7C4,10.5,4,10.1,4,9.6c0-0.4,0.2-0.5,0.5-0.3c1.1,0.7,2.2,1.3,3.4,2c1.4,0.8,3,0.3,3.7-1.1c0.5-1.1,0.1-2.6-1-3.3c-1-0.6-2-1.2-3-1.8C7.5,5.1,7.3,5,7.3,4.9c0-0.2,0.1-0.3,0.2-0.3C8.3,4.3,9,4.1,9.9,4.1zM22.9,24.6c0,0.9,0.7,1.6,1.6,1.6c0.9,0,1.6-0.7,1.6-1.6c0-0.9-0.7-1.6-1.6-1.6C23.6,23.1,22.9,23.8,22.9,24.6z"/>
    </g>
  </defs>
  <g>
    <use xlink:href="#wrench_" fill="#4a4a4a" stroke="#4a4a4a" stroke-width="0" style="mask:url(&quot;#screwdrivermask&quot;);"/>
    <use xlink:href="#screwdriver_" fill="#4a4a4a" stroke="#4a4a4a" stroke-width="0" transform="rotate(180) translate(-2 -1)" style="transform-origin:16px 16px;"/>
  </g>
</svg>
