<?xml version="1.0" encoding="UTF-8"?>
<svg xmlns="http://www.w3.org/2000/svg" xmlns:xlink="http://www.w3.org/1999/xlink" width="32px" height="32px" viewBox="0 0 32 32" x="0px" y="0px" version="1.1">
  <defs>
    <rect id="maskcanvas" width="32px" height="32px" fill="#ffffff"/>
    <mask id="rulermask2">
      <use xlink:href="#maskcanvas"/>
      <rect fill="#000000"/>
    </mask>
    <path id="ruler_" d="M13,2H6c0,0-1,0-1,1v26c0,0,0,1,1,1h7c0,0,1,0,1-1V3C14,2,13,2,13,2zM12,28H7v-5h1h1.5c0.2,0,0.5-0.3,0.5-0.5S9.8,22,9.5,22H8H7v-3h1.5C8.8,19,9,18.7,9,18.5S8.8,18,8.5,18H7v-3h2.5c0.2,0,0.5-0.3,0.5-0.5S9.7,14,9.5,14H7v-3h1.5C8.8,11,9,10.7,9,10.5S8.8,10,8.5,10H7V7h2.5c0.2,0,0.5-0.3,0.5-0.5S9.7,6,9.5,6H7V4h5V28z"/>
    <g id="triangle_">
      <path d="M29.4,1.5c-0.3-0.1-0.7-0.1-1,0.2L1.9,28.4c-0.3,0.3-0.3,0.7-0.2,1C1.9,29.8,2.2,30,2.6,30h26.5c0.5,0,0.9-0.4,0.9-0.9V2.4C30,2,29.8,1.7,29.4,1.5zM28,28H5l4.6-4.7l2.4,2.4c0.1,0.1,0.2,0.1,0.3,0.1c0.1,0,0.2,0,0.3-0.1c0.1-0.1,0.1-0.4,0-0.5l-2.4-2.4l1.7-1.7l1.8,1.8c0.1,0.1,0.2,0.1,0.3,0.1c0.1,0,0.2,0,0.3-0.1c0.1-0.1,0.1-0.4,0-0.5l-1.8-1.8l1.7-1.7l2.4,2.4c0.1,0.1,0.2,0.1,0.3,0.1c0.1,0,0.2,0,0.3-0.1c0.1-0.1,0.1-0.4,0-0.5l-2.4-2.4l1.7-1.7l1.8,1.8c0.1,0.1,0.2,0.1,0.3,0.1c0.1,0,0.2,0,0.3-0.1c0.1-0.1,0.1-0.4,0-0.5l-1.8-1.8l1.7-1.7l2.4,2.4C20.8,17,20.9,17,21,17c0.1,0,0.2,0,0.3-0.1c0.1-0.1,0.1-0.4,0-0.5L18.9,14l1.7-1.7l1.8,1.8c0.1,0.1,0.2,0.1,0.3,0.1c0.1,0,0.2,0,0.3-0.1c0.1-0.1,0.1-0.4,0-0.5L21,11.8l1.7-1.7c0,0,0,0,0,0l2.4,2.4c0.1,0.1,0.2,0.1,0.3,0.1c0.1,0,0.2,0,0.3-0.1c0.1-0.1,0.1-0.4,0-0.5l-2.4-2.4c0,0,0,0,0,0L28,5V28z"/>
      <path d="M25.1,15.2c-0.2-0.1-0.4,0-0.6,0.1l-9,9.1c-0.2,0.2-0.2,0.4-0.1,0.6c0.1,0.2,0.3,0.3,0.5,0.3h9c0.3,0,0.6-0.2,0.6-0.6v-9.1C25.4,15.5,25.3,15.3,25.1,15.2zM24.3,24.3h-7.2l7.2-7.2V24.3z"/>
    </g>
  </defs>
  <g>
    <use xlink:href="#triangle_" fill="#ffffff" stroke="#ffffff" stroke-width="0" style="mask:url(&quot;#rulermask2&quot;);"/>
    <use xlink:href="#ruler_" fill="#ffffff" stroke="#ffffff" stroke-width="0"/>
  </g>
</svg>
