<?xml version="1.0" encoding="UTF-8"?>
<svg xmlns="http://www.w3.org/2000/svg" xmlns:xlink="http://www.w3.org/1999/xlink" width="32px" height="32px" viewBox="0 0 32 32" x="0px" y="0px" version="1.1">
  <defs>
    <g id="wrench_">
      <path d="M9.9,4.1c2.8,0,5.3,2.2,5.7,5.2c0.1,0.7,0,1.3-0.1,2c-0.1,0.3,0,0.6,0.2,0.8c3.7,3.5,7.4,6.9,11.1,10.4c1.3,1.3,1.4,3.2,0.2,4.5c-1.2,1.3-3.4,1.3-4.7-0.1c-1.8-1.9-3.7-3.9-5.5-5.9c-1.7-1.8-3.3-3.5-5-5.3c-0.2-0.2-0.4-0.3-0.7-0.2c-3.4,0.8-6.6-1.3-7.2-4.7C4,10.5,4,10.1,4,9.6c0-0.4,0.2-0.5,0.5-0.3c1.1,0.7,2.2,1.3,3.4,2c1.4,0.8,3,0.3,3.7-1.1c0.5-1.1,0.1-2.6-1-3.3c-1-0.6-2-1.2-3-1.8C7.5,5.1,7.3,5,7.3,4.9c0-0.2,0.1-0.3,0.2-0.3C8.3,4.3,9,4.1,9.9,4.1zM22.9,24.6c0,0.9,0.7,1.6,1.6,1.6c0.9,0,1.6-0.7,1.6-1.6c0-0.9-0.7-1.6-1.6-1.6C23.6,23.1,22.9,23.8,22.9,24.6z"/>
    </g>
  </defs>
  <g>
    <use xlink:href="#wrench_" fill="#ffffff" stroke="#ffffff" stroke-width="0"/>
  </g>
</svg>
