<?xml version="1.0" encoding="UTF-8"?>
<svg xmlns="http://www.w3.org/2000/svg" xmlns:xlink="http://www.w3.org/1999/xlink" width="32px" height="32px" viewBox="0 0 32 32" x="0px" y="0px" version="1.1">
  <defs>
    <rect id="maskcanvas" width="32px" height="32px" fill="#ffffff"/>
    <mask id="musicnoteglaremask">
      <use xlink:href="#maskcanvas"/>
      <path fill="#000000" d="M3.093,24.179C3.587,22.828,4.879,22.001,6.26,22c0.396,0.002,0.808,0.066,1.199,0.212c0.355,0.129,0.535,0.506,0.408,0.852c-0.126,0.342-0.509,0.519-0.864,0.386c-0.292-0.105-0.593-0.138-0.885-0.116c-0.089,0.009-0.174,0.019-0.258,0.037c-0.383,0.075-0.732,0.264-1.016,0.536c-0.207,0.203-0.378,0.446-0.484,0.736c-0.128,0.342-0.509,0.516-0.864,0.387C3.15,24.9,2.966,24.52,3.093,24.179z"/>
    </mask>
    <path id="filmcell" d="M14,11c0,0.552-0.447,1-1,1H8c-0.552,0-1-0.448-1-1V8c0-0.552,0.448-1,1-1h5c0.553,0,1,0.448,1,1V11z"/>
    <mask id="videomask">
      <use xlink:href="#maskcanvas"/>
      <use xlink:href="#filmcell" transform="rotate(-15) scale(0.8) translate(2 8)" fill="#000000"/>
      <use xlink:href="#filmcell" transform="rotate(-15) scale(0.8) translate(2 15)" fill="#000000"/>
      <use xlink:href="#filmcell" transform="rotate(-15) scale(0.8) translate(2 22)" fill="#000000"/>
    </mask>
    <path id="musicnote" d="M18,11.6c-1.2-2.1-2.5-4.4-2.9-8c0-0.3-0.3-0.6-0.6-0.6c-0.3,0-0.6,0.2-0.7,0.5c-0.2,1.1-0.4,2.2-0.5,3.2L10.1,22c-1.4-0.4-4.3-1.3-5.9-0.3c-2.5,1.6-4.3,4.7-1.6,7.2c0.5,0.5,1,0.8,2,1.1c1.3,0.3,3-0.1,4.5-1c2.1-1.3,3.3-3.4,2.9-5.1l2.3-11c0.7,1.4,1.6,2.3,2.4,3.2c1.3,1.3,2.2,2.3,1.9,4.3c0,0.3,0.2,0.7,0.5,0.7c0,0,0,0,0,0c0.3,0.1,0.7-0.1,0.8-0.5C20.9,16.7,19.5,14.2,18,11.6z"/>
    <path id="filmoutline" d="M17,5H4C3.447,5,3,5.448,3,6v21c0,0.553,0.447,1,1,1h13c0.553,0,1-0.447,1-1V6C18,5.448,17.553,5,17,5zM6,26H4v-2h2V26zM6,23H4v-2h2V23zM6,20H4v-2h2V20zM6,17H4v-2h2V17zM6,14H4v-2h2V14zM6,11H4V9h2V11zM6,8H4V6h2V8zM17,26h-2v-2h2V26zM17,23h-2v-2h2V23zM17,20h-2v-2h2V20zM17,17h-2v-2h2V17zM17,14h-2v-2h2V14zM17,11h-2V9h2V11zM17,8h-2V6h2V8z"/>
  </defs>
  <g style="mask:url(&quot;#videomask&quot;);">
    <use xlink:href="#musicnote" fill="#ffffff" stroke="#ffffff" stroke-width="0" transform="scale(0.8) translate(-1 -3)" style="mask:url(&quot;#musicnoteglaremask&quot;);"/>
    <use xlink:href="#filmoutline" fill="#ffffff" stroke="#ffffff" stroke-width="0" transform="rotate(-15) scale(0.8) translate(2 8)"/>
  </g>
</svg>
