<?xml version="1.0" encoding="utf-8"?>
<!-- Generator: Adobe Illustrator 19.2.1, SVG Export Plug-In . SVG Version: 6.00 Build 0)  -->
<svg version="1.1" id="Layer_2" xmlns="http://www.w3.org/2000/svg" xmlns:xlink="http://www.w3.org/1999/xlink" x="0px" y="0px"
	 viewBox="0 0 48 48" style="enable-background:new 0 0 48 48;" xml:space="preserve">
<style type="text/css">
	.st0{fill:url(#SVGID_1_);}
	.st1{fill:#4A4A4A;}
	.st2{enable-background:new    ;}
	.st3{fill:#0592E1;}
</style>
<g id="Layer_4_1_">

		<linearGradient id="SVGID_1_" gradientUnits="userSpaceOnUse" x1="34" y1="4" x2="34" y2="24" gradientTransform="matrix(1 0 0 -1 0 48)">
		<stop  offset="0" style="stop-color:#FFFFFF"/>
		<stop  offset="1" style="stop-color:#D1D1D1"/>
	</linearGradient>
	<rect x="23" y="24" class="st0" width="22" height="20"/>
</g>
<g id="Layer_1_1_">
	<g>
		<g>
			<g id="calendar-outline">
				<path class="st1" d="M44,20h-2v2c0,0,0.1,1-2,1c-1,0-1.7,0-2,0c-2.1,0-2-1-2-1v-2h-4v2c0,0,0,1-2,1c-0.3,0-1.7,0-2,0
					c-2.2,0-2-1-2-1v-2h-2c0,0-2,0-2,2v22c0,0,0,2,2,2h20c2,0,2-2,2-2V22C46,20,44,20,44,20z M44,43c0,0,0,1-1,1H25c-1,0-1-1-1-1V26
					h20V43z"/>
			</g>
		</g>
	</g>
	<rect x="28" y="18" class="st1" width="2" height="4"/>
	<rect x="38" y="18" class="st1" width="2" height="4"/>
</g>
<g id="_x33_1">
	<g>
		<g class="st2">
			<path class="st3" d="M31.2,34.3c0.5,0,0.9-0.1,1.2-0.4c0.3-0.2,0.4-0.6,0.4-1c0-0.4-0.1-0.7-0.4-0.9c-0.3-0.2-0.6-0.4-1.1-0.4
				c-0.4,0-0.7,0.1-1,0.3c-0.3,0.2-0.4,0.5-0.4,0.8h-2.2l0,0c0-0.7,0.3-1.4,1-1.8c0.7-0.5,1.5-0.7,2.5-0.7c1.1,0,2,0.2,2.7,0.7
				c0.7,0.5,1,1.1,1,2c0,0.4-0.1,0.8-0.4,1.2c-0.3,0.4-0.7,0.6-1.2,0.9c0.6,0.2,1,0.5,1.3,0.8c0.3,0.4,0.5,0.8,0.5,1.4
				c0,0.9-0.4,1.5-1.1,2s-1.6,0.7-2.8,0.7c-1,0-1.9-0.2-2.6-0.7s-1.1-1.1-1.1-2l0,0h2.1c0,0.4,0.1,0.7,0.4,0.9
				c0.3,0.2,0.7,0.4,1.1,0.4c0.5,0,0.9-0.1,1.2-0.4c0.3-0.3,0.5-0.6,0.5-1c0-0.5-0.1-0.9-0.4-1.1s-0.7-0.4-1.3-0.4H30v-1.4
				L31.2,34.3L31.2,34.3z"/>
		</g>
		<g class="st2">
			<path class="st3" d="M40,40h-2v-8c0-0.1-0.1,0-0.1,0h-1.7L36,30h4V40z"/>
		</g>
	</g>
</g>
</svg>
