<?xml version="1.0" encoding="UTF-8"?>
<!-- Generator: Adobe Illustrator 19.2.1, SVG Export Plug-In . SVG Version: 6.00 Build 0)  -->
<svg xmlns="http://www.w3.org/2000/svg" xmlns:xlink="http://www.w3.org/1999/xlink" version="1.1" x="0px" y="0px" viewBox="0 0 48 48" style="enable-background:new 0 0 48 48;" xml:space="preserve">
<style type="text/css">
	.st0{display:none;}
	.st1{display:inline;fill:url(#SVGID_1_);}
	.st2{display:inline;}
	.st3{fill:#4A4A4A;}
	.st4{display:inline;fill:#4A4A4A;}
	.st5{fill:#1C8BE9;}
</style>

<g id="Layer_2">
	<g>
		<path d="M18.9,26.7l4.6,4c0.2,0.2,0.3,0.3,0.4,0.5c0.1,0.2,0.1,0.3,0.1,0.5c0,0.2,0,0.4-0.1,0.6s-0.2,0.2-0.3,0.2    c-0.1,0-0.1,0-0.2-0.1s-0.2-0.1-0.3-0.2l-5-4.3c0,0,0,0-0.1,0c-0.4-0.3-0.6-0.7-0.6-1.1s0.2-0.7,0.6-1.1c0,0,0.1-0.1,0.1-0.1    l5-4.3c0.1-0.1,0.2-0.2,0.3-0.2c0.1,0,0.1-0.1,0.2-0.1c0.1,0,0.2,0.1,0.3,0.2s0.1,0.3,0.1,0.5c0,0.2,0,0.4-0.1,0.6    c-0.1,0.2-0.2,0.3-0.4,0.5L18.9,26.7z"/>
		<path d="M27.6,35c-0.1,0.4-0.3,0.7-0.4,0.8c-0.1,0.1-0.3,0.2-0.5,0.2c-0.2,0-0.4-0.1-0.5-0.3S26,35.5,26,35.2c0-0.1,0-0.1,0-0.2    c0-0.1,0-0.2,0.1-0.3l6.3-16.6c0.2-0.4,0.3-0.7,0.4-0.9c0.1-0.2,0.3-0.2,0.5-0.2c0.2,0,0.4,0.1,0.5,0.2c0.1,0.2,0.2,0.4,0.2,0.6    c0,0.1,0,0.1,0,0.2c0,0.1,0,0.2-0.1,0.2L27.6,35z"/>
		<path d="M41.4,26.6l-4.6-3.9c-0.2-0.2-0.3-0.3-0.4-0.5c-0.1-0.2-0.1-0.3-0.1-0.5c0-0.2,0-0.4,0.1-0.5s0.2-0.2,0.3-0.2    c0.1,0,0.1,0,0.2,0.1s0.2,0.1,0.3,0.2l5,4.3c0,0,0,0,0.1,0.1c0.4,0.3,0.6,0.7,0.6,1.1c0,0.4-0.2,0.7-0.6,1.1c0,0-0.1,0.1-0.1,0.1    l-5,4.3l0,0c-0.2,0.2-0.4,0.3-0.5,0.3c-0.1,0-0.2-0.1-0.3-0.2s-0.1-0.3-0.1-0.6c0-0.2,0-0.4,0.1-0.5c0.1-0.2,0.2-0.3,0.4-0.5    L41.4,26.6z"/>
	</g>
</g>
</svg>
