<?xml version="1.0" encoding="UTF-8"?>
<!-- Generator: Adobe Illustrator 19.2.1, SVG Export Plug-In . SVG Version: 6.00 Build 0)  -->
<svg xmlns="http://www.w3.org/2000/svg" xmlns:xlink="http://www.w3.org/1999/xlink" version="1.1" x="0px" y="0px" viewBox="0 0 32 32" style="enable-background:new 0 0 32 32;" xml:space="preserve">
<style type="text/css">
	.st0{display:none;}
	.st1{display:inline;}
	.st2{fill:#4A4A4A;}
</style>

<g id="Layer_2">
	<g>
		<path d="M12.3,19.9l3.2,2.8c0.1,0.1,0.2,0.2,0.3,0.3c0.1,0.1,0.1,0.2,0.1,0.4c0,0.2,0,0.3-0.1,0.4C15.7,24,15.7,24,15.6,24    c0,0-0.1,0-0.1,0s-0.1-0.1-0.2-0.2l-3.5-3.1c0,0,0,0,0,0c-0.3-0.2-0.4-0.5-0.4-0.8c0-0.3,0.1-0.5,0.4-0.8c0,0,0,0,0.1-0.1l3.5-3.1    c0.1-0.1,0.1-0.1,0.2-0.2c0.1,0,0.1,0,0.1,0c0.1,0,0.2,0,0.2,0.1c0.1,0.1,0.1,0.2,0.1,0.4c0,0.2,0,0.3-0.1,0.4    c-0.1,0.1-0.1,0.2-0.3,0.3L12.3,19.9z"/>
		<path d="M18.2,26.2c-0.1,0.3-0.2,0.5-0.3,0.6c-0.1,0.1-0.2,0.2-0.4,0.2c-0.1,0-0.3-0.1-0.4-0.2c-0.1-0.1-0.2-0.3-0.2-0.4    c0,0,0-0.1,0-0.2s0-0.1,0.1-0.2l4.7-12.1c0.1-0.3,0.2-0.5,0.3-0.6c0.1-0.1,0.2-0.2,0.3-0.2c0.2,0,0.3,0.1,0.4,0.2    c0.1,0.1,0.2,0.3,0.2,0.4c0,0,0,0.1,0,0.2c0,0.1,0,0.1-0.1,0.2L18.2,26.2z"/>
		<path d="M28,19.9l-3.2-2.8c-0.1-0.1-0.2-0.2-0.3-0.3c-0.1-0.1-0.1-0.2-0.1-0.4c0-0.2,0-0.3,0.1-0.4c0.1-0.1,0.1-0.1,0.2-0.1    c0,0,0.1,0,0.1,0c0.1,0,0.1,0.1,0.2,0.2l3.5,3.1c0,0,0,0,0.1,0.1c0.3,0.2,0.4,0.5,0.4,0.8c0,0.3-0.1,0.5-0.4,0.8c0,0,0,0-0.1,0.1    l-3.5,3.1l0,0c-0.2,0.1-0.3,0.2-0.3,0.2c-0.1,0-0.2-0.1-0.2-0.2c-0.1-0.1-0.1-0.2-0.1-0.4c0-0.1,0-0.3,0.1-0.4    c0.1-0.1,0.2-0.2,0.3-0.3L28,19.9z"/>
	</g>
</g>
</svg>
