<?xml version="1.0" encoding="utf-8"?>
<!-- Generator: Adobe Illustrator 19.2.1, SVG Export Plug-In . SVG Version: 6.00 Build 0)  -->
<svg version="1.1" id="Layer_1" xmlns="http://www.w3.org/2000/svg" xmlns:xlink="http://www.w3.org/1999/xlink" x="0px" y="0px"
	 viewBox="0 0 32 32" style="enable-background:new 0 0 32 32;" xml:space="preserve">
<style type="text/css">
	.st0{fill:#FF8080;}
	.st1{fill:#F3F3F3;}
</style>
<circle class="st0" cx="6" cy="9" r="0"/>
<circle class="st1" cx="16" cy="5" r="0"/>
<path class="st1" d="M10,14v-1H8c-1.1,0-2,0.9-2,2v2l-2,1v2l2,1v2c0,1.1,0.9,2,2,2h2v-1l-2-1v-3l-1-1l1-1v-3L10,14z"/>
<path class="st1" d="M18,14v-1h2c1.1,0,2,0.9,2,2v2l2,1v2l-2,1v2c0,1.1-0.9,2-2,2h-2v-1l2-1v-3l1-1l-1-1v-3L18,14z"/>
<rect x="10" y="20" class="st1" width="8" height="2"/>
</svg>
