<?xml version="1.0" encoding="utf-8"?>
<!-- Generator: Adobe Illustrator 19.2.1, SVG Export Plug-In . SVG Version: 6.00 Build 0)  -->
<svg version="1.1" id="Layer_1" xmlns="http://www.w3.org/2000/svg" xmlns:xlink="http://www.w3.org/1999/xlink" x="0px" y="0px"
	 viewBox="0 0 48 48" style="enable-background:new 0 0 48 48;" xml:space="preserve">
<style type="text/css">
	.st0{fill:#F3F3F3;}
</style>
<rect x="24" y="36" transform="matrix(5.456784e-12 1 -1 5.456784e-12 62 12)" class="st0" width="2" height="2"/>
<rect x="16" y="36" transform="matrix(5.456784e-12 1 -1 5.456784e-12 54 20)" class="st0" width="2" height="2"/>
<rect x="20" y="36" transform="matrix(5.456784e-12 1 -1 5.456784e-12 58 16)" class="st0" width="2" height="2"/>
<g>
	<path class="st0" d="M12,22v2.8h-0.3c-0.3,0-0.5,0.1-0.6,0.2c-0.1,0.1-0.2,0.4-0.3,0.7c0,0.2-0.1,0.6-0.1,1.4
		c0,0.8-0.1,1.3-0.2,1.8c-0.1,0.3-0.2,0.6-0.4,0.8c-0.1,0.2-0.3,0.3-0.6,0.5c0.3,0.2,0.5,0.4,0.7,0.5c0.1,0.2,0.3,0.5,0.4,0.9
		c0.1,0.4,0.2,1,0.2,1.8c0,0.8,0,1.2,0.1,1.5c0.1,0.2,0.2,0.4,0.3,0.5s0.4,0.1,0.9,0.1v2.7h-0.9c-0.9,0-1.5-0.1-1.9-0.4
		c-0.4-0.2-0.6-0.6-0.8-1c-0.2-0.5-0.2-1.1-0.2-2.1c0-0.2,0-0.4,0-0.6c0-0.1,0-0.2,0-0.4c0-0.6,0-1.1-0.1-1.4
		C8,32,7.8,31.8,7.7,31.7C7.5,31.6,6.3,31,6,31v-2c0.4,0,1.5-0.4,1.7-0.6c0.2-0.1,0.3-0.3,0.4-0.6c0.1-0.3,0.1-0.7,0.1-1.4v-0.3
		c0-0.1,0-0.3,0-0.4c0-1,0.1-1.7,0.2-2.1c0.1-0.4,0.3-0.8,0.6-1c0.2-0.2,0.4-0.3,0.7-0.4c0.4-0.1,0.9-0.2,1.4-0.2H12z"/>
</g>
<g>
	<path class="st0" d="M30.9,21.9c0.5,0,1,0.1,1.4,0.2c0.3,0.1,0.5,0.2,0.7,0.4c0.2,0.2,0.4,0.6,0.6,1c0.1,0.4,0.2,1.2,0.2,2.1
		c0,0.1,0,0.3,0,0.4v0.3c0,0.7,0,1.1,0.1,1.4c0.1,0.3,0.2,0.5,0.4,0.6c0.2,0.1,1.3,0.6,1.7,0.6v2c-0.3,0-1.5,0.6-1.7,0.7
		c-0.2,0.1-0.3,0.3-0.4,0.6c-0.1,0.3-0.1,0.7-0.1,1.4c0,0.1,0,0.3,0,0.4c0,0.2,0,0.4,0,0.6c0,0.9-0.1,1.6-0.2,2.1
		c-0.2,0.5-0.4,0.8-0.8,1c-0.4,0.2-1,0.4-1.9,0.4H30v-2.7c0.4,0,0.7,0,0.9-0.1s0.3-0.3,0.3-0.5c0.1-0.2,0.1-0.7,0.1-1.5
		c0-0.8,0.1-1.5,0.2-1.8c0.1-0.4,0.2-0.7,0.4-0.9c0.1-0.2,0.4-0.4,0.7-0.5c-0.3-0.2-0.5-0.3-0.6-0.5c-0.2-0.2-0.3-0.5-0.4-0.8
		c-0.1-0.4-0.2-1-0.2-1.8c0-0.8,0-1.2-0.1-1.4c-0.1-0.3-0.2-0.5-0.3-0.7c-0.1-0.1-0.4-0.2-0.6-0.2H30v-2.8H30.9z"/>
</g>
</svg>
