<?xml version="1.0" encoding="utf-8"?>
<!-- Generator: Adobe Illustrator 19.2.1, SVG Export Plug-In . SVG Version: 6.00 Build 0)  -->
<svg version="1.1" id="Layer_3" xmlns="http://www.w3.org/2000/svg" xmlns:xlink="http://www.w3.org/1999/xlink" x="0px" y="0px"
	 viewBox="0 0 32 32" style="enable-background:new 0 0 32 32;" xml:space="preserve">
<style type="text/css">
	.st0{fill:url(#SVGID_1_);}
	.st1{fill:url(#SVGID_2_);}
	.st2{fill:url(#SVGID_3_);}
</style>
<linearGradient id="SVGID_1_" gradientUnits="userSpaceOnUse" x1="3.8903" y1="17.8903" x2="12.1097" y2="26.1097">
	<stop  offset="0" style="stop-color:#B3B3B3"/>
	<stop  offset="1" style="stop-color:#4D4D4D"/>
</linearGradient>
<path class="st0" d="M11,18H5c-1.7,0-3,1.4-3,3V23c0,1.7,1.4,3,3,3H11c1.7,0,3-1.4,3-3V21C14,19.4,12.6,18,11,18z M12,22.5
	c0,0.8-0.7,1.5-1.5,1.5H5.5C4.7,24,4,23.3,4,22.5v-1.1C4,20.7,4.7,20,5.5,20h5.1c0.8,0,1.5,0.7,1.5,1.5V22.5z"/>
<linearGradient id="SVGID_2_" gradientUnits="userSpaceOnUse" x1="17.8903" y1="17.8903" x2="26.1097" y2="26.1097">
	<stop  offset="0" style="stop-color:#B3B3B3"/>
	<stop  offset="1" style="stop-color:#4D4D4D"/>
</linearGradient>
<path class="st1" d="M25,18H19c-1.7,0-3,1.4-3,3V23c0,1.7,1.4,3,3,3H25c1.7,0,3-1.4,3-3V21C28,19.4,26.6,18,25,18z M26,22.5
	c0,0.8-0.7,1.5-1.5,1.5h-5.1c-0.8,0-1.5-0.7-1.5-1.5v-1.1c0-0.8,0.7-1.5,1.5-1.5h5.1c0.8,0,1.5,0.7,1.5,1.5V22.5z"/>
<linearGradient id="SVGID_3_" gradientUnits="userSpaceOnUse" x1="12.2929" y1="19.2929" x2="17.7071" y2="24.7071">
	<stop  offset="0" style="stop-color:#B3B3B3"/>
	<stop  offset="1" style="stop-color:#4D4D4D"/>
</linearGradient>
<path class="st2" d="M19,23h-8c-0.6,0-1-0.4-1-1v0c0-0.6,0.4-1,1-1h8c0.6,0,1,0.4,1,1v0C20,22.6,19.6,23,19,23z"/>
</svg>
