<?xml version="1.0" encoding="UTF-8"?>
<!-- Generator: Adobe Illustrator 19.2.1, SVG Export Plug-In . SVG Version: 6.00 Build 0)  -->
<svg xmlns="http://www.w3.org/2000/svg" xmlns:xlink="http://www.w3.org/1999/xlink" version="1.1" x="0px" y="0px" viewBox="0 0 48 48" style="enable-background:new 0 0 48 48;" xml:space="preserve">
<style type="text/css">
	.st0{display:none;}
	.st1{display:inline;}
	.st2{fill:#4A4A4A;}
	.st3{display:inline;fill:#4A4A4A;}
	.st4{fill:url(#SVGID_1_);}
	.st5{fill:url(#SVGID_2_);}
	.st6{fill:#C1ECFF;}
	.st7{fill:url(#SVGID_3_);}
	.st8{fill:url(#SVGID_4_);}
</style>

<g id="Layer_3">
	<g>
		
			<linearGradient id="SVGID_1_" gradientUnits="userSpaceOnUse" x1="27.6688" y1="38" x2="27.6688" y2="32.0289" gradientTransform="matrix(1 0 0 1 0 -14)">
			<stop offset="0.2248" style="stop-color:#979797"/>
			<stop offset="0.8232" style="stop-color:#F4F4F4"/>
		</linearGradient>
		<polygon class="st4" points="33.3,24 22,24 22,18 25.4,18.5 28,18 33.3,20.7   "/>
		
			<linearGradient id="SVGID_2_" gradientUnits="userSpaceOnUse" x1="33.2732" y1="38" x2="33.2732" y2="32.0146" gradientTransform="matrix(1 0 0 1 0 -14)">
			<stop offset="0.6438" style="stop-color:#82B414"/>
			<stop offset="0.9036" style="stop-color:#F4F4F4"/>
		</linearGradient>
		<polygon class="st5" points="27.5,24 39,24 39,18 36,18 33.5,18.6   "/>
	</g>
	<g>
		<polygon class="st6" points="39,29.6 39,28 22,28 22,40 39,40   "/>
		
			<linearGradient id="SVGID_3_" gradientUnits="userSpaceOnUse" x1="27.6688" y1="55" x2="27.6688" y2="46.9209" gradientTransform="matrix(1 0 0 1 0 -14)">
			<stop offset="0.2248" style="stop-color:#979797"/>
			<stop offset="0.8232" style="stop-color:#F4F4F4"/>
		</linearGradient>
		<polygon class="st7" points="33.3,41 22,41 22,32.9 25.4,35.5 28,34.3 33.3,37.7   "/>
		
			<linearGradient id="SVGID_4_" gradientUnits="userSpaceOnUse" x1="33.2732" y1="55" x2="33.2732" y2="44.7478" gradientTransform="matrix(1 0 0 1 0 -14)">
			<stop offset="0.3331" style="stop-color:#82B414"/>
			<stop offset="0.6965" style="stop-color:#F4F4F4"/>
		</linearGradient>
		<polygon class="st8" points="27.5,41 39,41 39,33.7 37.6,30.7 36.7,32.5 35.4,30.7 33.5,35.6   "/>
	</g>
	<polygon class="st6" points="39,44.5 39,44 22,44 22,48 39,48  "/>
</g>
<g id="Layer_2">
	<g>
		<g>
			<path class="st2" d="M38,18v4.1c0,1-0.8,1.9-1.9,1.9H23.9c-1,0-1.9-0.8-1.9-1.9V18h-4v30h4v-2.2c0-1,0.8-1.9,1.9-1.9h12.2     c1,0,1.9,0.8,1.9,1.9V48h4V18H38z M20,45c-0.6,0-1-0.4-1-1s0.4-1,1-1s1,0.4,1,1S20.6,45,20,45z M20,39c-0.6,0-1-0.4-1-1     s0.4-1,1-1s1,0.4,1,1S20.6,39,20,39z M20,33c-0.6,0-1-0.4-1-1s0.4-1,1-1s1,0.4,1,1S20.6,33,20,33z M20,27c-0.6,0-1-0.4-1-1     s0.4-1,1-1s1,0.4,1,1S20.6,27,20,27z M20,21c-0.6,0-1-0.4-1-1s0.4-1,1-1s1,0.4,1,1S20.6,21,20,21z M38,38.1c0,1-0.8,1.9-1.9,1.9     H23.9c-1,0-1.9-0.8-1.9-1.9v-8.2c0-1,0.8-1.9,1.9-1.9h12.2c1,0,1.9,0.8,1.9,1.9V38.1z M40,45c-0.6,0-1-0.4-1-1s0.4-1,1-1     s1,0.4,1,1S40.6,45,40,45z M40,39c-0.6,0-1-0.4-1-1s0.4-1,1-1s1,0.4,1,1S40.6,39,40,39z M40,33c-0.6,0-1-0.4-1-1s0.4-1,1-1     s1,0.4,1,1S40.6,33,40,33z M40,27c-0.6,0-1-0.4-1-1s0.4-1,1-1s1,0.4,1,1S40.6,27,40,27z M40,21c-0.6,0-1-0.4-1-1s0.4-1,1-1     s1,0.4,1,1S40.6,21,40,21z"/>
		</g>
	</g>
</g>
</svg>
