<?xml version="1.0" encoding="UTF-8"?>
<!-- Generator: Adobe Illustrator 19.2.1, SVG Export Plug-In . SVG Version: 6.00 Build 0)  -->
<svg xmlns="http://www.w3.org/2000/svg" xmlns:xlink="http://www.w3.org/1999/xlink" version="1.1" x="0px" y="0px" viewBox="0 0 32 32" style="enable-background:new 0 0 32 32;" xml:space="preserve">
<style type="text/css">
	.st0{display:none;}
	.st1{display:inline;}
	.st2{fill:#4A4A4A;}
	.st3{fill:#00188F;}
	.st4{fill:#FFFFFF;}
</style>


<g id="Overlay">
	<g id="Layer_6">
		<g>
			<path id="officeoverlay" class="st3" d="M18,4L2,8v17l16,3V4z"/>
		</g>
		<g>
			<path id="mswordW" class="st4" d="M17,9h-2.8c0,0-1.4,10.3-1.4,10.4c0,0.1-2.1-9-2.1-9H8.5l-1.4,7.8l-2.1-6.4H2.8l2.8,10h2.1     l1.6-6.4c0-0.1,0-0.2,0.1-0.2c0-0.1,0-0.2,0-0.3c0-0.1,0-0.2,0-0.3c0-0.1,0-0.2,0-0.3l0,0c0,0.1,0,0.2,0,0.3c0,0.1,0,0.2,0,0.3     c0,0.1,0,0.2,0,0.3c0,0.1,0,0.2,0.1,0.3l2.4,7H14L17,9z"/>
		</g>
	</g>
</g>
</svg>
