<?xml version="1.0" encoding="UTF-8"?>
<!-- Generator: Adobe Illustrator 19.2.1, SVG Export Plug-In . SVG Version: 6.00 Build 0)  -->
<svg xmlns="http://www.w3.org/2000/svg" xmlns:xlink="http://www.w3.org/1999/xlink" version="1.1" id="Layer_1" x="0px" y="0px" viewBox="0 0 48 48" style="enable-background:new 0 0 48 48;" xml:space="preserve">
<style type="text/css">
	.st0{display:none;}
	.st1{display:inline;}
	.st2{fill:url(#SVGID_1_);}
	.st3{fill:#4A4A4A;}
	.st4{display:inline;fill:#4A4A4A;}
	.st5{fill:url(#SVGID_2_);}
	.st6{fill:url(#SVGID_3_);}
	.st7{display:inline;fill:#FFED7B;stroke:#4A4A4A;stroke-width:2;stroke-miterlimit:10;}
	.st8{fill:#FFFFFF;}
	.st9{fill:#00188F;}
</style>





<g id="Layer_6">
	<g>
		<path id="officeoverlay" class="st9" d="M28,6L4,10.9v25.5L28,40V6z"/>
	</g>
	<g>
		<path id="mswordW" class="st8" d="M26,13h-4c0,0-2,14.5-2,14.6c0,0.1-3-12.6-3-12.6h-3l-2,11l-3-9H6l4,14h3l2.3-8.9    c0-0.1,0-0.3,0.2-0.3c0-0.1,0-0.3,0-0.4c0-0.1,0-0.3,0-0.4c0-0.1,0-0.3,0-0.4l0,0c0,0.1,0,0.3,0,0.4c0,0.1,0,0.3,0,0.4    c0,0.1,0,0.3,0,0.4c0,0.1,0,0.3,0.2,0.4L19,32h2.7L26,13z"/>
	</g>
</g>
</svg>
