<?xml version="1.0" encoding="utf-8"?>
<!-- Generator: Adobe Illustrator 25.4.0, SVG Export Plug-In . SVG Version: 6.00 Build 0)  -->
<svg version="1.1" id="Layer_1" xmlns="http://www.w3.org/2000/svg" xmlns:xlink="http://www.w3.org/1999/xlink" x="0px" y="0px"
	 viewBox="0 0 48 48" style="enable-background:new 0 0 48 48;" xml:space="preserve">
<style type="text/css">
	.st0{display:none;}
	.st1{display:inline;}
	.st2{fill:#FEFFED;}
	.st3{fill:#76D3FF;}
	.st4{fill:#FFF4BD;}
	.st5{fill:#574700;}
	.st6{fill:#4A4A4A;}
	.st7{fill:#C1C1C1;}
</style>
<g id="Layer_1_00000159458263011231061300000010931485397897642660_" class="st0">
	<g id="Layer_3" class="st1">
		<rect x="19" y="22" class="st2" width="28" height="22"/>
		<path d="M18,20v24h30V20H18z M46,44H20V22h26V44z"/>
		<rect x="22" y="32" class="st3" width="10" height="6"/>
		<rect x="34" y="32" width="10" height="2"/>
		<rect x="34" y="36" width="10" height="2"/>
		<rect x="22" y="40" width="10" height="2"/>
		<rect x="34" y="40" width="10" height="2"/>
		<g>
			<path d="M22.2,24.8H27V26h-0.2c-0.1-0.4-0.3-0.7-0.6-0.9c-0.2,0-0.5-0.1-0.9-0.1v3.2c0,0.2,0.1,0.4,0.2,0.5s0.3,0.1,0.6,0.1V29
				h-2.9v-0.2c0.3,0,0.5,0,0.6-0.1s0.2-0.2,0.2-0.5V25c-0.4,0-0.7,0.1-0.9,0.1c-0.4,0.2-0.6,0.5-0.6,0.9h-0.2L22.2,24.8z"/>
			<path d="M27.3,28.9c0.1,0,0.2,0,0.3-0.1c0.1-0.1,0.1-0.2,0.1-0.3v-1.8c0-0.1,0-0.2-0.1-0.3c-0.1,0-0.2-0.1-0.3-0.1v-0.1h1.5v2.3
				c0,0.1,0,0.2,0.1,0.3s0.1,0.1,0.3,0.1V29h-1.9V28.9z M27.9,24.9c0.1-0.1,0.3-0.1,0.4-0.1c0.2,0,0.3,0,0.4,0.1s0.2,0.2,0.2,0.3
				s-0.1,0.2-0.2,0.3c-0.1,0.1-0.3,0.1-0.4,0.1c-0.2,0-0.3,0-0.4-0.1s-0.2-0.2-0.2-0.3S27.7,25,27.9,24.9z"/>
			<path d="M29.5,28.9c0.1,0,0.2,0,0.3-0.1c0.1-0.1,0.1-0.2,0.1-0.3v-1.8c0-0.1,0-0.2-0.1-0.3c-0.1,0-0.2-0.1-0.3-0.1v-0.1H31v0.4
				c0.1-0.1,0.3-0.2,0.4-0.3c0.2-0.1,0.5-0.2,0.8-0.2c0.3,0,0.6,0.1,0.7,0.2c0.1,0.1,0.2,0.2,0.3,0.3h0.1c0.2-0.1,0.3-0.2,0.4-0.3
				c0.2-0.1,0.5-0.2,0.7-0.2c0.3,0,0.5,0.1,0.7,0.2s0.3,0.4,0.3,0.7v1.5c0,0.1,0,0.2,0.1,0.3c0.1,0,0.2,0.1,0.3,0.1V29H34v-0.1
				c0.1,0,0.2,0,0.3-0.1s0.1-0.1,0.1-0.3V27c0-0.2,0-0.3-0.1-0.4s-0.2-0.1-0.3-0.1s-0.3,0-0.4,0.1s-0.2,0.2-0.2,0.2v1.6
				c0,0.1,0,0.2,0.1,0.3s0.1,0.1,0.3,0.1V29h-1.9v-0.1c0.1,0,0.2,0,0.3-0.1s0.1-0.1,0.1-0.3V27c0-0.2,0-0.3-0.1-0.4
				s-0.2-0.1-0.4-0.1c-0.2,0-0.3,0.1-0.5,0.2c-0.1,0.1-0.2,0.2-0.2,0.2v1.6c0,0.1,0,0.2,0.1,0.3s0.1,0.1,0.3,0.1V29h-1.9L29.5,28.9
				L29.5,28.9z"/>
			<path d="M36.7,26.5c0.3-0.3,0.7-0.4,1.2-0.4c0.3,0,0.5,0.1,0.7,0.2s0.4,0.3,0.5,0.4s0.2,0.3,0.2,0.6c0,0.1,0,0.2,0,0.2h-2
				c0,0.2,0.1,0.5,0.2,0.6c0.2,0.3,0.4,0.5,0.8,0.5c0.2,0,0.4,0,0.5-0.1s0.2-0.1,0.4-0.3l0.2,0.1c-0.2,0.3-0.5,0.5-0.9,0.7
				c-0.2,0.1-0.5,0.1-0.7,0.1c-0.4,0-0.8-0.1-1.1-0.4c-0.3-0.2-0.5-0.6-0.5-1.1C36.3,27.1,36.4,26.7,36.7,26.5z M38.4,27.3
				c0-0.4,0-0.6-0.1-0.8c-0.1-0.1-0.2-0.2-0.4-0.2s-0.4,0.1-0.4,0.2c-0.1,0.2-0.1,0.4-0.1,0.7L38.4,27.3L38.4,27.3z"/>
			<path d="M39.8,28.1H40c0.1,0.3,0.2,0.5,0.4,0.6s0.4,0.2,0.7,0.2c0.2,0,0.4,0,0.5-0.1s0.1-0.2,0.1-0.3c0-0.1-0.1-0.2-0.2-0.3
				c-0.1,0-0.1-0.1-0.3-0.1l-0.6-0.2c-0.3-0.1-0.5-0.2-0.7-0.4c-0.1-0.1-0.2-0.3-0.2-0.5s0.1-0.4,0.3-0.6s0.5-0.3,0.9-0.3
				c0.2,0,0.3,0,0.5,0.1s0.3,0.1,0.4,0.1c0.1,0,0.1,0,0.1,0s0-0.1,0.1-0.1h0.2V27H42c-0.1-0.2-0.2-0.4-0.4-0.5s-0.4-0.2-0.6-0.2
				c-0.2,0-0.3,0-0.4,0.1s-0.1,0.2-0.1,0.2c0,0.1,0,0.1,0.1,0.2S40.8,27,41,27l0.4,0.2c0.3,0.1,0.5,0.2,0.6,0.3
				c0.2,0.2,0.3,0.4,0.3,0.6s-0.1,0.4-0.3,0.6S41.5,29,41,29c-0.1,0-0.2,0-0.3,0s-0.2,0-0.4-0.1h-0.1h-0.1l0,0H40c0,0,0.1,0.1,0,0.2
				h-0.2V28.1z"/>
		</g>
		<ellipse class="st4" cx="27" cy="34.5" rx="2" ry="1.5"/>
		<path class="st5" d="M32,38H22v-0.4c0-0.9,0.7-1.6,1.6-1.6h6.8c0.9,0,1.6,0.7,1.6,1.6V38z"/>
		<rect x="14" y="23" width="2" height="21"/>
		<path d="M15.9,46h30.2c1,0,1.9-0.8,1.9-1.9V44H14v0.1C14,45.1,14.9,46,15.9,46z"/>
	</g>
</g>
<g id="Layer_2_00000096056941234156234260000007044622412567063448_">
	<rect x="4" y="18" class="st2" width="28" height="22"/>
	<path class="st6" d="M4,16v24h28V16H4z M6,18h24v22H6V18z"/>
	<rect x="8" y="26" class="st6" width="8" height="2"/>
	<rect x="8" y="30" class="st6" width="8" height="2"/>
	<rect x="18" y="34" class="st6" width="10" height="2"/>
	<rect x="8" y="34" class="st6" width="8" height="2"/>
	<rect x="34" y="18" class="st6" width="2" height="22"/>
	<path class="st6" d="M36,40.1L36,40.1L4,40v0.1C4,41.2,4.9,42,5.9,42h28.2C35.1,42,36,41.1,36,40.1z"/>
	<rect x="18" y="26" class="st6" width="10" height="6"/>
	<rect x="8" y="20" class="st6" width="20" height="4"/>
	<rect x="32" y="18" class="st7" width="2" height="22"/>
</g>
</svg>
