<?xml version="1.0" encoding="utf-8"?>
<!-- Generator: Adobe Illustrator 25.4.0, SVG Export Plug-In . SVG Version: 6.00 Build 0)  -->
<svg version="1.1" id="Layer_2_1_" xmlns="http://www.w3.org/2000/svg" xmlns:xlink="http://www.w3.org/1999/xlink" x="0px" y="0px"
	 viewBox="0 0 32 32" style="enable-background:new 0 0 32 32;" xml:space="preserve">
<style type="text/css">
	.st0{fill:#FEFFED;}
	.st1{fill:#4A4A4A;}
	.st2{fill:#C1C1C1;}
</style>
<rect x="8" y="14" class="st0" width="24" height="16"/>
<path class="st1" d="M8,12v18h24V12H8z M30,30H10V14h20V30z"/>
<rect x="22" y="22" class="st1" width="6" height="2"/>
<rect x="22" y="26" class="st1" width="6" height="2"/>
<rect x="12" y="26" class="st1" width="8" height="2"/>
<rect x="4" y="14" class="st1" width="2" height="16"/>
<path class="st1" d="M5.9,32h24.2c1,0,1.9-0.8,1.9-1.9V30H4v0.1C4,31.1,4.9,32,5.9,32z"/>
<rect x="12" y="22" class="st1" width="8" height="2"/>
<rect x="12" y="16" class="st1" width="16" height="4"/>
<rect x="6" y="14" class="st2" width="2" height="16"/>
</svg>
