<?xml version="1.0" encoding="UTF-8"?>
<!-- Generator: Adobe Illustrator 25.4.0, SVG Export Plug-In . SVG Version: 6.00 Build 0)  -->
<svg xmlns="http://www.w3.org/2000/svg" xmlns:xlink="http://www.w3.org/1999/xlink" version="1.1" id="Layer_1" x="0px" y="0px" viewBox="0 0 48 48" style="enable-background:new 0 0 48 48;" xml:space="preserve">
<style type="text/css">
	.st0{display:none;}
	.st1{display:inline;}
	.st2{fill:#FEFFED;}
	.st3{fill:#76D3FF;}
	.st4{fill:#FFF4BD;}
	.st5{fill:#574700;}
	.st6{fill:#4A4A4A;}
</style>

<g id="Layer_2_00000096056941234156234260000007044622412567063448_">
	<path class="st6" d="M4,16v24h28V16H4z M6,18h24v22H6V18z"/>
	<rect x="8" y="26" class="st6" width="8" height="2"/>
	<rect x="8" y="30" class="st6" width="8" height="2"/>
	<rect x="18" y="34" class="st6" width="10" height="2"/>
	<rect x="8" y="34" class="st6" width="8" height="2"/>
	<rect x="34" y="18" class="st6" width="2" height="22"/>
	<path class="st6" d="M36,40.1L36,40.1L4,40v0.1C4,41.2,4.9,42,5.9,42h28.2C35.1,42,36,41.1,36,40.1z"/>
	<rect x="18" y="26" class="st6" width="10" height="6"/>
	<rect x="8" y="20" class="st6" width="20" height="4"/>
</g>
</svg>
