<?xml version="1.0" encoding="utf-8"?>
<!-- Generator: Adobe Illustrator 21.0.0, SVG Export Plug-In . SVG Version: 6.00 Build 0)  -->
<svg version="1.1" id="Layer_2_1_" xmlns="http://www.w3.org/2000/svg" xmlns:xlink="http://www.w3.org/1999/xlink" x="0px" y="0px"
	 viewBox="0 0 32 32" enable-background="new 0 0 32 32" xml:space="preserve">
<rect x="4" y="6" fill="#FEFFED" width="28" height="22"/>
<path fill="#4A4A4A" d="M4,4v24h28V4H4z M30,28H6V6h24V28z"/>
<rect x="20" y="14" fill="#4A4A4A" width="8" height="2"/>
<rect x="20" y="18" fill="#4A4A4A" width="8" height="2"/>
<rect x="8" y="22" fill="#4A4A4A" width="10" height="2"/>
<rect x="20" y="22" fill="#4A4A4A" width="8" height="2"/>
<rect y="6" fill="#4A4A4A" width="2" height="22"/>
<path fill="#4A4A4A" d="M1.9,30h28.2c1,0,1.9-0.8,1.9-1.9V28H0v0.1C0,29.1,0.9,30,1.9,30z"/>
<rect x="8" y="14" fill="#4A4A4A" width="10" height="6"/>
<rect x="8" y="8" fill="#4A4A4A" width="20" height="4"/>
<rect x="2" y="6" fill="#C1C1C1" width="2" height="22"/>
</svg>
