<?xml version="1.0" encoding="UTF-8"?>
<!-- Generator: Adobe Illustrator 25.4.0, SVG Export Plug-In . SVG Version: 6.00 Build 0)  -->
<svg xmlns="http://www.w3.org/2000/svg" xmlns:xlink="http://www.w3.org/1999/xlink" version="1.1" id="Layer_1" x="0px" y="0px" viewBox="0 0 48 48" style="enable-background:new 0 0 48 48;" xml:space="preserve">
<style type="text/css">
	.st0{display:none;}
	.st1{display:inline;}
	.st2{fill:#FEFFED;}
	.st3{fill:#76D3FF;}
	.st4{fill:#FFF4BD;}
	.st5{fill:#574700;}
	.st6{fill:#4A4A4A;}
</style>

<g id="Layer_2_00000084523573702197292330000005825521739382999224_">
	<path class="st6" d="M18,20v24h28V20H18z M44,44H20V22h24V44z"/>
	<rect x="34" y="30" class="st6" width="8" height="2"/>
	<rect x="34" y="34" class="st6" width="8" height="2"/>
	<rect x="22" y="38" class="st6" width="10" height="2"/>
	<rect x="34" y="38" class="st6" width="8" height="2"/>
	<rect x="14" y="22" class="st6" width="2" height="22"/>
	<path class="st6" d="M15.9,46h28.2c1,0,1.9-0.8,1.9-1.9V44H14v0.1C14,45.1,14.9,46,15.9,46z"/>
	<rect x="22" y="30" class="st6" width="10" height="6"/>
	<rect x="22" y="24" class="st6" width="20" height="4"/>
</g>
</svg>
