<?xml version="1.0" encoding="utf-8"?>
<!-- Generator: Adobe Illustrator 19.2.1, SVG Export Plug-In . SVG Version: 6.00 Build 0)  -->
<svg version="1.1" id="Layer_1" xmlns="http://www.w3.org/2000/svg" xmlns:xlink="http://www.w3.org/1999/xlink" x="0px" y="0px"
	 viewBox="0 0 48 48" style="enable-background:new 0 0 48 48;" xml:space="preserve">
<style type="text/css">
	.st0{fill:#EC1C24;}
	.st1{enable-background:new    ;}
	.st2{fill:#FFFFFF;}
</style>
<g>
	<g>
		<path id="pdfswirl" class="st0" d="M40.6,32.5c-1.4-0.6-3.1-0.9-6.9-0.5c-2.1-0.7-5-3.9-5.9-7.3c0.2-1.7,0.8-4.6,0.7-5.9
			c0.1-0.5-0.2-1.1-0.3-1.5c0,0-0.6-1.6-1.4-1.7c-0.8-0.1-1.4,1.7-1.4,1.7s-0.9,3.4,0.6,7.4c-0.5,3.4-5.6,11.8-5.6,11.8L19.9,36
			c0,0-3.9,1.7-4.8,4.4c-0.3,1,0.1,1.7,0.4,1.7c0.1,0,0.7,0.5,2.3-0.4c1.9-0.9,5-5.7,5.1-6.1c0.1-0.4,9.8-2.4,10.2-2
			c0.7,0.6,5.2,2,6.8,1.7c1.4-0.3,1.5-0.9,1.5-0.9S42,33.1,40.6,32.5z M16.8,40.6c-0.3-0.3,2.4-3.1,3.1-3.5
			C19.5,38.2,17,40.8,16.8,40.6z M27,18c0.2,0.2,0.2,0.5,0.2,0.8c-0.1,0.7-0.3,1.7-0.4,2.3C26.7,20,26.6,18,27,18z M23.8,34.3
			c1.3-2.2,2.3-4.4,3.2-6.7c1,2.1,2.4,3.7,3.8,4.8C28.5,32.8,26,33.4,23.8,34.3z M37,33.4c0.7-0.1,3,0.1,3.2,0.6
			C40,34.3,37.5,33.8,37,33.4z"/>
	</g>
	<g>
		<path id="filelabelbg" class="st0" d="M28.5,6.1h-27c0,0-1.5,0-1.5,1.6v12.8C0,22.1,2,22,2,22h26c0,0,1.9-0.3,2-1.5V7.7
			C30,6.1,28.5,6.1,28.5,6.1z"/>
	</g>
	<g class="st1">
		<path class="st2" d="M25,16h-3v2h-2v-8h6v2h-4v2h3V16z"/>
		<path class="st2" d="M17.4,10.7C16.8,10.1,16,10,15,10h-3l0,8h4c2.2,0,2.4-2.4,2.4-3.4v-1.5C18.4,12.2,18.1,11.3,17.4,10.7z
			 M16,15.1c0,0.5-0.4,0.9-0.9,0.9H14v-4h1c0.5,0,1,0.4,1,1V15.1z"/>
		<path class="st2" d="M8,10c-1.9,0-4,0-4,0v8h2v-2h2c1.9,0,2-1.1,2-3C10,12.2,10.1,10,8,10z M7,14H6v-2h1c0.5,0,1,0.4,1,1
			C8,13.5,7.5,14,7,14z"/>
	</g>
</g>
</svg>
