<?xml version="1.0" encoding="UTF-8"?>
<!-- Generator: Adobe Illustrator 19.2.1, SVG Export Plug-In . SVG Version: 6.00 Build 0)  -->
<svg xmlns="http://www.w3.org/2000/svg" xmlns:xlink="http://www.w3.org/1999/xlink" version="1.1" id="Layer_1" x="0px" y="0px" viewBox="0 0 32 32" style="enable-background:new 0 0 32 32;" xml:space="preserve">
<style type="text/css">
	.st0{display:none;}
	.st1{display:inline;}
	.st2{fill:#4A4A4A;}
	.st3{fill:url(#SVGID_1_);}
	.st4{display:inline;fill:#4A4A4A;}
	.st5{fill:#EC1C24;}
</style>

<g>
	
	
	
	<g>
		<path id="pdfswirl" class="st5" d="M26.9,19.8c-1.2-0.5-2.6-0.8-5.7-0.4c-1.7-0.6-4.1-3.4-4.9-6.2c0.1-1.4,0.6-4,0.5-5.2    c0.1-0.5-0.1-0.9-0.3-1.3c0,0-0.5-1.4-1.2-1.4c-0.6,0-1.2,1.4-1.2,1.4s-0.8,3,0.5,6.3c-0.5,2.8-4.7,10.1-4.7,10.1l-0.4-0.4    c0,0-3.2,1.4-4,3.8c-0.3,0.9,0.1,1.6,0.4,1.6c0.1,0,0.5,0.4,1.9-0.3c1.6-0.8,4.1-4.9,4.3-5.3c0.1-0.4,8.1-2.1,8.4-1.8    c0.6,0.5,4.3,1.8,5.6,1.6c1.2-0.3,1.3-0.8,1.3-0.8S28.1,20.3,26.9,19.8z M7.1,26.8c-0.3-0.3,2.1-2.7,2.6-3.1    C9.3,24.7,7.4,26.9,7.1,26.8z M15.5,7.3c0.1,0.1,0.3,0.4,0.3,0.8c0,0.5-0.3,1.6-0.4,1.9C15.4,8.9,15.3,7.3,15.5,7.3z M13,21.2    c1-1.8,1.9-3.9,2.6-5.8c0.9,1.8,1.9,3.1,3.2,4.1C16.8,19.9,14.8,20.6,13,21.2z M24,20.6c0.6-0.1,2.5,0.1,2.7,0.5    C26.4,21.3,24.3,20.8,24,20.6z"/>
	</g>
</g>
</svg>
