<?xml version="1.0" encoding="UTF-8"?>
<!-- Generator: Adobe Illustrator 19.2.1, SVG Export Plug-In . SVG Version: 6.00 Build 0)  -->
<svg xmlns="http://www.w3.org/2000/svg" xmlns:xlink="http://www.w3.org/1999/xlink" version="1.1" id="Layer_1" x="0px" y="0px" viewBox="0 0 48 48" style="enable-background:new 0 0 48 48;" xml:space="preserve">
<style type="text/css">
	.st0{display:none;}
	.st1{display:inline;}
	.st2{fill:url(#SVGID_1_);}
	.st3{fill:#4A4A4A;}
	.st4{fill:url(#SVGID_2_);}
	.st5{fill:#1C8BE9;}
	.st6{fill:#C1ECFF;}
	.st7{fill:url(#SVGID_3_);}
	.st8{fill:url(#SVGID_4_);}
</style>

<polygon class="st6" points="48,23.6 48,20 16,20 16,48 48,48 "/>
<linearGradient id="SVGID_3_" gradientUnits="userSpaceOnUse" x1="27.1515" y1="-5.002221e-10" x2="27.1515" y2="19.871" gradientTransform="matrix(1 0 0 -1 0 48)">
	<stop offset="0.2248" style="stop-color:#979797"/>
	<stop offset="0.8232" style="stop-color:#F4F4F4"/>
</linearGradient>
<polygon class="st7" points="38.3,48 16,48 16,28.1 22.8,34.5 27.6,31.7 38.3,39.9 "/>
<linearGradient id="SVGID_4_" gradientUnits="userSpaceOnUse" x1="35.8788" y1="-5.447873e-10" x2="35.8788" y2="20.7742" gradientTransform="matrix(1 0 0 -1 0 48)">
	<stop offset="0.3331" style="stop-color:#82B414"/>
	<stop offset="0.6965" style="stop-color:#F4F4F4"/>
</linearGradient>
<polygon class="st8" points="23.8,48 48,48 48,33.1 45.1,27.2 43.2,30.8 40.2,27.2 36.4,37.2 "/>
<path class="st3" d="M16,20v28h32V20H16z M46,46H18V22h28V46z"/>
</svg>
