<?xml version="1.0" encoding="utf-8"?>
<!-- Generator: Adobe Illustrator 19.2.1, SVG Export Plug-In . SVG Version: 6.00 Build 0)  -->
<svg version="1.1" id="Layer_2" xmlns="http://www.w3.org/2000/svg" xmlns:xlink="http://www.w3.org/1999/xlink" x="0px" y="0px"
	 viewBox="0 0 48 48" style="enable-background:new 0 0 48 48;" xml:space="preserve">
<style type="text/css">
	.st0{fill:#FFFFFF;}
	.st1{fill:#4A4A4A;}
	.st2{fill:#4576EF;}
	.st3{fill:#008641;}
	.st4{fill:#EC1C24;}
</style>
<rect x="24" y="26" class="st0" width="20" height="20"/>
<path class="st1" d="M46,48H22V24h24V48z M24,46h20V26H24V46z"/>
<polygon class="st2" points="26,28 26,30 26,32 28,32 28,30 34,30 34,32 36,32 36,30 36,28 "/>
<polygon class="st3" points="30,34 30,35 30,36 30,37 30,38 38,38 38,37 38,36 38,35 38,34 "/>
<polygon class="st4" points="34,40 32,40 32,44 34,44 34,42 40,42 40,44 42,44 42,42 42,40 "/>
</svg>
