<?xml version="1.0" encoding="utf-8"?>
<!-- Generator: Adobe Illustrator 25.1.0, SVG Export Plug-In . SVG Version: 6.00 Build 0)  -->
<svg version="1.1" id="Layer_1" xmlns="http://www.w3.org/2000/svg" xmlns:xlink="http://www.w3.org/1999/xlink" x="0px" y="0px"
	 viewBox="0 0 48 48" style="enable-background:new 0 0 48 48;" xml:space="preserve">
<style type="text/css">
	.st0{fill:#A30808;}
</style>
<g>
	<g>
		<path class="st0" d="M38.7,21.1c-0.1-0.1-0.3,0-0.5,0c-0.1,0-0.3,0.2-0.7,0.4l-0.7,0.4l0.7,1.2l0.7-0.4c0.4-0.3,0.7-0.4,0.8-0.5
			s0.1-0.2,0.1-0.4c0-0.1,0-0.3-0.1-0.4C39,21.2,38.9,21.1,38.7,21.1z M39.8,16.4L15.6,30.6l5.1,8.6L44.9,25L39.8,16.4z M24.6,33.7
			c-0.1,0.7-0.6,1.2-1.2,1.6c-0.7,0.4-1.4,0.5-2,0.3c-0.7-0.2-1.2-0.7-1.7-1.5c-0.3-0.5-0.5-0.9-0.5-1.4c0-0.3,0-0.6,0-0.9
			c0.1-0.3,0.2-0.6,0.3-0.8c0.2-0.3,0.5-0.6,0.9-0.8c0.7-0.4,1.3-0.5,2-0.3c0.7,0.2,1.2,0.7,1.7,1.5C24.6,32.3,24.7,33,24.6,33.7z
			 M27.2,33l-0.9,0.5l-2.8-4.8l3.1-1.8l0.5,0.8L24.8,29l0.7,1.1l1.9-1.1l0.5,0.8L26,30.9L27.2,33z M31.1,30.7l-0.9,0.5l-2.8-4.8
			l3.1-1.8l0.5,0.8l-2.2,1.3l0.7,1.1l1.9-1.1l0.5,0.8l-1.9,1.1L31.1,30.7z M34,28.9l-2.8-4.8l3.4-2l0.5,0.8l-2.5,1.4l0.6,1.1
			l2.3-1.3l0.5,0.8l-2.3,1.3l0.8,1.3l2.6-1.5l0.5,0.8L34,28.9z M40,24c-0.5-0.2-0.8-0.4-0.9-0.4c-0.1,0-0.3-0.1-0.4,0
			c-0.1,0-0.3,0.1-0.5,0.2l-0.2,0.1l1.2,2l-0.9,0.5l-2.8-4.8l1.9-1.1c0.5-0.3,0.9-0.5,1.1-0.5c0.3,0,0.5,0,0.8,0.1
			c0.3,0.1,0.5,0.4,0.6,0.6c0.2,0.4,0.3,0.7,0.2,1.1c-0.1,0.4-0.3,0.7-0.6,1c0.3,0,0.5,0,0.7,0.1c0.2,0.1,0.5,0.2,1,0.5l1.1,0.6
			l-1.1,0.6L40,24z M22.1,31c-0.4-0.1-0.8-0.1-1.2,0.1c-0.4,0.2-0.6,0.5-0.7,1c-0.1,0.4,0.1,0.9,0.4,1.4c0.3,0.5,0.7,0.9,1.1,1
			c0.4,0.1,0.8,0.1,1.2-0.1s0.6-0.5,0.7-1c0.1-0.4-0.1-0.9-0.4-1.5C22.8,31.5,22.4,31.2,22.1,31z"/>
	</g>
</g>
</svg>
