<?xml version="1.0" encoding="utf-8"?>
<!-- Generator: Adobe Illustrator 25.1.0, SVG Export Plug-In . SVG Version: 6.00 Build 0)  -->
<svg version="1.1" id="Layer_2" xmlns="http://www.w3.org/2000/svg" xmlns:xlink="http://www.w3.org/1999/xlink" x="0px" y="0px"
	 viewBox="0 0 32 32" style="enable-background:new 0 0 32 32;" xml:space="preserve">
<style type="text/css">
	.st0{fill:#A30808;}
</style>
<g>
	<g>
		<path class="st0" d="M27.6,8.5l-26.1,10l3.6,9.3l26.1-10L27.6,8.5z M9.8,23.1c-0.3,0.6-0.7,1.1-1.5,1.4c-0.7,0.3-1.4,0.3-2,0
			c-0.6-0.3-1.1-0.9-1.4-1.7c-0.2-0.5-0.3-1-0.3-1.4c0-0.3,0.1-0.6,0.2-0.9c0.1-0.3,0.3-0.5,0.5-0.7c0.3-0.3,0.6-0.5,1-0.6
			c0.7-0.3,1.4-0.3,2,0c0.6,0.3,1.1,0.9,1.4,1.7C10,21.7,10,22.5,9.8,23.1z M12.4,22.8l-1,0.4l-2-5.2l3.4-1.3l0.3,0.9l-2.4,0.9
			l0.5,1.2l2.1-0.8l0.3,0.9l-2.1,0.8L12.4,22.8z M16.7,21.2l-1,0.4l-2-5.2l3.4-1.3l0.3,0.9L15,16.8l0.5,1.2l2.1-0.8l0.3,0.9L15.8,19
			L16.7,21.2z M19.9,19.9l-2-5.2l3.7-1.4l0.3,0.9l-2.7,1l0.4,1.2l2.5-1l0.3,0.9l-2.5,1l0.5,1.4l2.8-1.1l0.3,0.9L19.9,19.9z
			 M26.6,16.1c-0.4-0.3-0.7-0.5-0.8-0.6c-0.1-0.1-0.3-0.1-0.4-0.1c-0.1,0-0.3,0-0.5,0.1l-0.2,0.1l0.8,2.2l-1,0.4l-2-5.2l2.1-0.8
			c0.5-0.2,0.9-0.3,1.2-0.3c0.3,0,0.5,0.1,0.8,0.3c0.2,0.2,0.4,0.4,0.5,0.7c0.2,0.4,0.2,0.8,0,1.1c-0.1,0.3-0.4,0.6-0.8,0.9
			c0.3,0.1,0.5,0.1,0.7,0.2c0.2,0.1,0.5,0.3,0.9,0.6l1,0.8l-1.2,0.5L26.6,16.1z M25.8,12.9c-0.1-0.1-0.3-0.1-0.5-0.1
			c-0.1,0-0.3,0.1-0.7,0.3l-0.8,0.3l0.5,1.3l0.7-0.3c0.5-0.2,0.8-0.3,0.9-0.4c0.1-0.1,0.2-0.2,0.2-0.3c0-0.1,0-0.3,0-0.4
			C26,13.1,25.9,13,25.8,12.9z M7.7,20.1C7.4,19.9,7,19.8,6.6,20s-0.7,0.4-0.8,0.8c-0.1,0.4-0.1,0.9,0.1,1.5c0.2,0.6,0.5,1,0.9,1.2
			c0.4,0.2,0.8,0.2,1.2,0.1c0.4-0.2,0.7-0.4,0.8-0.8c0.1-0.4,0.1-0.9-0.1-1.5C8.4,20.7,8.1,20.3,7.7,20.1z"/>
	</g>
</g>
</svg>
