<?xml version="1.0" encoding="utf-8"?>
<!-- Generator: Adobe Illustrator 25.1.0, SVG Export Plug-In . SVG Version: 6.00 Build 0)  -->
<svg version="1.1" id="Layer_2" xmlns="http://www.w3.org/2000/svg" xmlns:xlink="http://www.w3.org/1999/xlink" x="0px" y="0px"
	 viewBox="0 0 32 32" style="enable-background:new 0 0 32 32;" xml:space="preserve">
<style type="text/css">
	.st0{fill:#F3F3F3;}
</style>
<g>
	<g>
		<path class="st0" d="M7,20.3c-0.4-0.2-0.7-0.2-1.2-0.1c-0.4,0.2-0.7,0.4-0.8,0.8c-0.1,0.4-0.1,0.9,0.1,1.5c0.2,0.6,0.5,1,0.9,1.2
			C6.4,24,6.8,24,7.2,23.9S7.9,23.4,8,23c0.1-0.4,0.1-0.9-0.1-1.5C7.6,20.9,7.4,20.5,7,20.3z M25.1,13.2c-0.1-0.1-0.3-0.1-0.5-0.1
			c-0.1,0-0.3,0.1-0.7,0.3l-0.8,0.3l0.5,1.3l0.7-0.3c0.5-0.2,0.8-0.3,0.9-0.4s0.2-0.2,0.2-0.3c0-0.1,0-0.3,0-0.4
			C25.3,13.4,25.2,13.3,25.1,13.2z M26.9,8.8l-26.1,10l3.6,9.3l26.1-10L26.9,8.8z M9,23.4c-0.3,0.6-0.7,1.1-1.5,1.4
			c-0.7,0.3-1.4,0.3-2,0c-0.6-0.3-1.1-0.9-1.4-1.7c-0.2-0.5-0.3-1-0.3-1.4c0-0.3,0.1-0.6,0.2-0.9c0.1-0.3,0.3-0.5,0.5-0.7
			c0.3-0.3,0.6-0.5,1-0.6c0.7-0.3,1.4-0.3,2,0c0.6,0.3,1.1,0.9,1.4,1.7C9.2,22,9.3,22.7,9,23.4z M11.7,23.1l-1,0.4l-2-5.2l3.4-1.3
			l0.3,0.9L10,18.7l0.5,1.2l2.1-0.8l0.3,0.9l-2.1,0.8L11.7,23.1z M15.9,21.4l-1,0.4l-2-5.2l3.4-1.3l0.3,0.9l-2.4,0.9l0.5,1.2
			l2.1-0.8l0.3,0.9l-2.1,0.8L15.9,21.4z M19.2,20.2l-2-5.2l3.7-1.4l0.3,0.9l-2.7,1l0.4,1.2l2.5-1l0.3,0.9l-2.5,1l0.5,1.4l2.8-1.1
			l0.3,0.9L19.2,20.2z M25.9,16.3c-0.4-0.3-0.7-0.5-0.8-0.6c-0.1-0.1-0.3-0.1-0.4-0.1s-0.3,0-0.5,0.1l-0.2,0.1l0.8,2.2l-1,0.4
			l-2-5.2l2.1-0.8c0.5-0.2,0.9-0.3,1.2-0.3c0.3,0,0.5,0.1,0.8,0.3s0.4,0.4,0.5,0.7c0.2,0.4,0.2,0.8,0,1.1c-0.1,0.3-0.4,0.6-0.8,0.9
			c0.3,0.1,0.5,0.1,0.7,0.2c0.2,0.1,0.5,0.3,0.9,0.6l1,0.8L27,17.2L25.9,16.3z"/>
	</g>
</g>
</svg>
