<?xml version="1.0" encoding="utf-8"?>
<!-- Generator: Adobe Illustrator 25.1.0, SVG Export Plug-In . SVG Version: 6.00 Build 0)  -->
<svg version="1.1" id="Layer_1" xmlns="http://www.w3.org/2000/svg" xmlns:xlink="http://www.w3.org/1999/xlink" x="0px" y="0px"
	 viewBox="0 0 48 48" style="enable-background:new 0 0 48 48;" xml:space="preserve">
<style type="text/css">
	.st0{fill:#F3F3F3;}
</style>
<g>
	<g>
		<path class="st0" d="M37.7,16.5c-0.2-0.1-0.5-0.1-0.7,0c-0.1,0-0.4,0.2-1,0.5l-1,0.6l1.3,2.2l1-0.6c0.6-0.4,1-0.6,1.1-0.8
			c0.1-0.2,0.2-0.4,0.2-0.6c0-0.2-0.1-0.5-0.2-0.7C38.1,16.8,37.9,16.6,37.7,16.5z M38.5,8.8L4,29l9.1,15.5l34.5-20.2L38.5,8.8z
			 M16.5,38.3c-1,0.6-2,0.6-3,0.2c-1-0.4-2-1.4-2.8-2.7c-0.5-0.9-0.9-1.7-1-2.4c-0.1-0.5-0.1-1-0.1-1.5c0.1-0.5,0.2-0.9,0.4-1.3
			c0.3-0.5,0.7-0.9,1.2-1.2c1-0.6,2-0.6,3-0.2c1,0.5,2,1.4,2.8,2.8c0.8,1.4,1.2,2.7,1.1,3.8C18,36.9,17.4,37.7,16.5,38.3z
			 M21.9,34.9l-1.3,0.8L15.5,27l4.5-2.6l0.9,1.5l-3.2,1.9l1.2,2l2.7-1.6l0.9,1.5l-2.7,1.6L21.9,34.9z M27.5,31.6l-1.3,0.8l-5.1-8.6
			l4.5-2.6l0.9,1.5l-3.2,1.9l1.2,2l2.7-1.6l0.9,1.5L25.3,28L27.5,31.6z M31.7,29.2l-5.1-8.6l4.9-2.8l0.9,1.5l-3.5,2.1l1.1,1.9
			l3.3-1.9l0.9,1.5l-3.3,1.9l1.4,2.4l3.7-2.1l0.9,1.5L31.7,29.2z M40.1,21.7c-0.7-0.5-1.2-0.8-1.4-0.9c-0.2-0.1-0.4-0.1-0.6-0.1
			c-0.2,0-0.4,0.1-0.7,0.3L37,21.2l2.1,3.6l-1.3,0.8l-5.1-8.6l2.8-1.6c0.7-0.4,1.3-0.6,1.7-0.7c0.4,0,0.8,0.1,1.2,0.4
			s0.8,0.7,1.1,1.2c0.4,0.6,0.6,1.3,0.5,1.9c0,0.6-0.3,1.1-0.8,1.6c0.4,0.1,0.8,0.2,1.1,0.3c0.3,0.2,0.9,0.5,1.6,1l1.8,1.2l-1.6,0.9
			L40.1,21.7z M13.8,30.8c-0.6-0.3-1.2-0.3-1.7,0c-0.5,0.3-0.8,0.8-0.9,1.5c0,0.7,0.2,1.5,0.8,2.5c0.6,1,1.2,1.6,1.8,1.9
			c0.6,0.3,1.2,0.3,1.7,0s0.8-0.8,0.9-1.5c0-0.7-0.2-1.6-0.8-2.6C15.1,31.8,14.5,31.1,13.8,30.8z"/>
	</g>
</g>
</svg>
