<?xml version="1.0" encoding="UTF-8"?>
<!-- Generator: Adobe Illustrator 19.2.1, SVG Export Plug-In . SVG Version: 6.00 Build 0)  -->
<svg xmlns="http://www.w3.org/2000/svg" xmlns:xlink="http://www.w3.org/1999/xlink" version="1.1" x="0px" y="0px" viewBox="0 0 48 48" style="enable-background:new 0 0 48 48;" xml:space="preserve">
<style type="text/css">
	.st0{display:none;}
	.st1{display:inline;fill:url(#SVGID_1_);}
	.st2{display:inline;}
	.st3{fill:#4A4A4A;}
	.st4{display:inline;fill:#4A4A4A;}
	.st5{fill:#1C8BE9;}
</style>


<g id="Overlay">
	<g>
		<path id="bunny" class="st5" d="M24.5,10c0.9,0.5,3.3,2.3,4.7,3.7c0.2,0.2,0.5,0.5,0.7,0.7s0.5,0.5,0.7,0.7    c0.6,0.9,1.4,2.1,2.2,2.3c2.9,1.1,5.3,3.6,6,6.5c0,0.4-0.2,1.1-0.4,1.4s-0.9,0.9-1.3,1.1c-0.5,0.2-2.7,0.2-2.7,0.2    c-0.3,0-0.7-0.1-1-0.2c-0.1,0-0.2-0.1-0.3-0.1s-0.1,0-0.1,0s0,0.1-0.1,0.1c-0.1,0.1-0.2,0.3-0.2,0.4c-1.2,2.4-2.6,4.7-4.6,6.6    c-0.1,0.1-0.1,0.1-0.2,0.2l-0.1,0.1v0.1c0,0.2,0,0.3-0.1,0.5c-0.1,0.3-0.1,0.7-0.2,1s-0.2,0.7-0.3,1c0,0.2-0.1,0.3-0.1,0.5    c0,0.1-0.1,0.1,0,0.2l0.1,0.1c0.4,0.2,0.8,0.4,1.1,0.7c0.4,0.3,0.6,0.7,0.6,1.2c0,0.1,0,0.1-0.1,0.1c0,0-0.3-0.1-0.4-0.1    s-0.1,0.3-0.2,0.4c-0.2,0.1-0.3,0.1-0.6,0.1c-0.5,0.1-1.1-0.1-1.6-0.1c-0.2,0-0.4,0-0.7-0.1c-0.1,0-0.2-0.1-0.3,0    c-0.1,0.1-0.2,0.2-0.3,0.3c-0.5,0.5-1,0.9-1.5,1.4c-0.3,0.2-0.5,0.4-0.8,0.6c-0.2,0.1-0.3,0.2-0.5,0.3c-0.1,0-0.1,0.1-0.2,0.1    s-0.2,0-0.3,0c-0.2,0-0.4,0-0.6,0c0-0.1-0.1-0.2-0.2-0.2s-0.1,0-0.2,0s-0.1-0.1-0.1-0.2c0-0.1,0-0.2,0-0.3c0-0.4,0.2-0.6,0.5-0.9    c0.2-0.2,0.5-0.4,0.7-0.7c0-0.1,0.1-0.2,0.1-0.3s0-0.3,0-0.3c-0.3-0.1-0.5-0.2-0.8-0.3c-0.6-0.1-1.2-0.2-1.8-0.3    c-1.2-0.1-2.5-0.1-3.6-0.5c-0.1,0-0.1,0-0.2-0.1c0-0.1-0.1-0.1-0.1-0.2c-0.1-0.1-0.1-0.2-0.2-0.3c-0.1-0.2-0.2-0.5-0.4-0.7    c-0.2-0.5-0.5-0.9-0.8-1.4s-0.6-0.9-0.9-1.3c-0.1-0.1-0.2-0.3-0.4-0.4c-0.8-1.1-2-1.7-3.1-2.2c-0.2-0.1-0.5-0.2-0.7-0.3    c-2-1.1-3.8-3.6-3.2-5.9c0.1-0.2,0.1-0.3,0.2-0.5v-0.1c0,0,0,0,0-0.1c0,0-0.1,0-0.1-0.1c-0.1-0.1-0.3-0.2-0.4-0.3    c-0.2,0-0.3-0.2-0.4-0.5s-0.2-0.5-0.3-0.7c-0.3-1.2-1.2-2.2-2.1-3.2c-1.1-1,0.7-1.8,1.6-2c2-0.1,3.9,1.4,4.2,3.4    c0,0.2,0.1,0.4,0.1,0.6c0,0.1,0.1,0.2,0.1,0.3v0.1c0,0.1,0,0.1,0.1,0C8.7,22,9,21.9,9.3,21.8c0.5-0.2,1.1-0.5,1.6-0.7    c0.3-0.1,0.6-0.2,0.8-0.3c3.2-1.1,7-0.2,9.9,1.3c0.2,0.1,0.5,0.3,0.7,0.4s0.5,0.2,0.7,0.3c0.8,0.3,1.9,0.5,2.6-0.2    c0.3-0.4,0.5-0.8,0.8-1.3c0.2-0.5,0.5-0.9,0.9-1.2c0.4-0.3,0.8-0.5,1-0.8c0.1-0.2,0.2-0.4,0.2-0.6v-0.1c0,0,0,0-0.1,0l-0.1-0.1    c-0.1-0.1-0.2-0.1-0.3-0.1c-1.2-0.6-2.4-0.9-3.6-1.3c-0.3-0.1-0.6-0.2-0.9-0.3c-0.2-0.1-0.5-0.2-0.7-0.3c-1.3-0.5-2.3-1.3-3.2-2.2    c-0.2-0.2-0.3-0.4-0.5-0.7c-0.1-0.2-0.4-0.8-0.2-0.9c0.5-0.2,2.2,0,3.2,0.5c0.3,0.1,0.6,0.2,0.8,0.3c0.8,0.3,1.7,0.6,2.6,0.6    c-0.3-0.8-1-1.3-1.6-1.8c-0.3-0.3-0.6-0.6-0.8-0.9c-0.2-0.4-0.5-1.1-0.4-1.3C23,9.8,23.6,9.5,24.5,10z M24.4,31.7    c-0.4,0.1-0.8,0.2-1.3,0.2c-1.1,0.1-2.3,0.1-3.5,0c-1.1,0-2.1-0.1-3.2,0c0.1,0.6,0.2,1.2,0.5,1.8c0.2,0.5,0.5,1,0.8,1.4    c0.2,0.2,0.3,0.5,0.5,0.7c0,0.1,0.1,0.1,0.1,0.2c0.1,0,0.1,0,0.2,0.1c0.1,0,0.3,0.1,0.4,0.1c0.6,0.1,1.2,0.3,1.8,0.4    c0.7,0.1,1.3,0.2,2,0.2c0.4,0,0.7,0,1.1,0c0.1,0,0.1,0,0.2,0s0,0,0.1-0.1c0-0.1,0-0.1,0-0.2c0-0.1,0.1-0.3,0.1-0.5    C24.4,34.5,24.4,33.1,24.4,31.7"/>
	</g>
</g>
</svg>
