<?xml version="1.0" encoding="UTF-8"?>
<!-- Generator: Adobe Illustrator 19.2.1, SVG Export Plug-In . SVG Version: 6.00 Build 0)  -->
<svg xmlns="http://www.w3.org/2000/svg" xmlns:xlink="http://www.w3.org/1999/xlink" version="1.1" x="0px" y="0px" viewBox="0 0 32 32" style="enable-background:new 0 0 32 32;" xml:space="preserve">
<style type="text/css">
	.st0{display:none;}
	.st1{display:inline;}
	.st2{fill:url(#SVGID_1_);}
	.st3{fill:#4A4A4A;}
	.st4{fill:url(#SVGID_2_);}
	.st5{fill:#1C8BE9;}
</style>

<g id="Layer_2">
	<g>
		<path id="bunny_1_" class="st5" d="M15.7,7c0.6,0.3,2.2,1.5,3.1,2.4c0.1,0.1,0.3,0.3,0.5,0.5c0.1,0.1,0.3,0.3,0.5,0.5    c0.4,0.6,0.9,1.4,1.5,1.5c1.9,0.7,3.5,2.4,4,4.3c0,0.3-0.1,0.7-0.3,0.9c-0.1,0.2-0.6,0.6-0.9,0.7C23.7,18,22.3,18,22.3,18    c-0.2,0-0.5-0.1-0.7-0.1c-0.1,0-0.1-0.1-0.2-0.1c-0.1,0-0.1,0-0.1,0s0,0.1-0.1,0.1c-0.1,0.1-0.1,0.2-0.1,0.3    c-0.8,1.6-1.7,3.1-3,4.4C18,22.6,18,22.6,18,22.6l-0.1,0.1v0.1c0,0.1,0,0.2-0.1,0.3c-0.1,0.2-0.1,0.5-0.1,0.7    c-0.1,0.2-0.1,0.5-0.2,0.7c0,0.1-0.1,0.2-0.1,0.3c0,0.1-0.1,0.1,0,0.1l0.1,0.1c0.3,0.1,0.5,0.3,0.7,0.5c0.3,0.2,0.4,0.5,0.4,0.8    c0,0.1,0,0.1-0.1,0.1c0,0-0.2-0.1-0.3-0.1s-0.1,0.2-0.1,0.3c-0.1,0.1-0.2,0.1-0.4,0.1c-0.3,0.1-0.7-0.1-1.1-0.1    c-0.1,0-0.3,0-0.5-0.1c-0.1,0-0.1-0.1-0.2,0c-0.1,0.1-0.1,0.1-0.2,0.2c-0.3,0.3-0.7,0.6-1,0.9c-0.2,0.1-0.3,0.3-0.5,0.4    C14.2,28,14.1,28,14,28.1c-0.1,0-0.1,0.1-0.1,0.1c-0.1,0-0.1,0-0.2,0c-0.1,0-0.3,0-0.4,0c0-0.1-0.1-0.1-0.1-0.1    c-0.1,0-0.1,0-0.1,0s-0.1-0.1-0.1-0.1c0-0.1,0-0.1,0-0.2c0-0.3,0.1-0.4,0.3-0.6c0.1-0.1,0.3-0.3,0.5-0.5c0-0.1,0.1-0.1,0.1-0.2    s0-0.2,0-0.2c-0.2-0.1-0.3-0.1-0.5-0.2c-0.4-0.1-0.8-0.1-1.2-0.2c-0.8-0.1-1.7-0.1-2.4-0.3c-0.1,0-0.1,0-0.1-0.1    c0-0.1-0.1-0.1-0.1-0.1c-0.1-0.1-0.1-0.1-0.1-0.2c-0.1-0.1-0.1-0.3-0.3-0.5c-0.1-0.3-0.3-0.6-0.5-0.9c-0.2-0.3-0.4-0.6-0.6-0.9    c-0.1-0.1-0.1-0.2-0.3-0.3c-0.5-0.7-1.3-1.1-2.1-1.5C5.5,21.1,5.3,21,5.2,21c-1.3-0.7-2.5-2.4-2.1-3.9c0.1-0.1,0.1-0.2,0.1-0.3    v-0.1c0,0,0,0,0-0.1c0,0-0.1,0-0.1-0.1c-0.1-0.1-0.2-0.1-0.3-0.2c-0.1,0-0.2-0.1-0.3-0.3c-0.1-0.2-0.1-0.3-0.2-0.5    c-0.2-0.8-0.8-1.5-1.4-2.1c-0.7-0.7,0.5-1.2,1.1-1.3C3.4,12,4.7,13,4.9,14.3c0,0.1,0.1,0.3,0.1,0.4c0,0.1,0.1,0.1,0.1,0.2V15    c0,0.1,0,0.1,0.1,0c0.2-0.1,0.4-0.1,0.6-0.2c0.3-0.1,0.7-0.3,1.1-0.5c0.2-0.1,0.4-0.1,0.5-0.2c2.1-0.7,4.6-0.1,6.6,0.9    c0.1,0.1,0.3,0.2,0.5,0.3c0.1,0.1,0.3,0.1,0.5,0.2c0.5,0.2,1.3,0.3,1.7-0.1c0.2-0.3,0.3-0.5,0.5-0.9c0.1-0.3,0.3-0.6,0.6-0.8    c0.3-0.2,0.5-0.3,0.7-0.5c0.1-0.1,0.1-0.3,0.1-0.4v-0.1c0,0,0,0-0.1,0l-0.1-0.1c-0.1-0.1-0.1-0.1-0.2-0.1    c-0.8-0.4-1.6-0.6-2.4-0.9c-0.2-0.1-0.4-0.1-0.6-0.2c-0.1-0.1-0.3-0.1-0.5-0.2c-0.9-0.3-1.5-0.9-2.1-1.5c-0.1-0.1-0.2-0.3-0.3-0.5    c-0.1-0.1-0.3-0.5-0.1-0.6c0.3-0.1,1.5,0,2.1,0.3c0.2,0.1,0.4,0.1,0.5,0.2c0.5,0.2,1.1,0.4,1.7,0.4c-0.2-0.5-0.7-0.9-1.1-1.2    c-0.2-0.2-0.4-0.4-0.5-0.6c-0.1-0.3-0.3-0.7-0.3-0.9C14.7,6.9,15.1,6.7,15.7,7z M15.6,21.4c-0.3,0.1-0.5,0.1-0.9,0.1    c-0.7,0.1-1.5,0.1-2.3,0c-0.7,0-1.4-0.1-2.1,0c0.1,0.4,0.1,0.8,0.3,1.2c0.1,0.3,0.3,0.7,0.5,0.9c0.1,0.1,0.2,0.3,0.3,0.5    c0,0.1,0.1,0.1,0.1,0.1c0.1,0,0.1,0,0.1,0.1c0.1,0,0.2,0.1,0.3,0.1c0.4,0.1,0.8,0.2,1.2,0.3c0.5,0.1,0.9,0.1,1.3,0.1    c0.3,0,0.5,0,0.7,0c0.1,0,0.1,0,0.1,0c0.1,0,0,0,0.1-0.1c0-0.1,0-0.1,0-0.1c0-0.1,0.1-0.2,0.1-0.3C15.6,23.2,15.6,22.3,15.6,21.4"/>
	</g>
</g>
</svg>
