<?xml version="1.0" encoding="utf-8"?>
<!-- Generator: Adobe Illustrator 22.1.0, SVG Export Plug-In . SVG Version: 6.00 Build 0)  -->
<svg version="1.1" id="Layer_1" xmlns="http://www.w3.org/2000/svg" xmlns:xlink="http://www.w3.org/1999/xlink" x="0px" y="0px"
	 viewBox="0 0 48 48" style="enable-background:new 0 0 48 48;" xml:space="preserve">
<style type="text/css">
	.st0{fill:#f3f3f3;}
</style>
<g id="Layer_2_1_">
	<g>
		<g>
			<g>
				<path class="st0" d="M35.7,21.2h-8.5L14.4,33.8l12.7,12.7l12.7-12.7l0.1-8.4L35.7,21.2z M37.1,33.8l-9.9,9.9l-9.9-9.9l9.9-9.9
					l7.8-0.7l2.8,2.8L37.1,33.8z M30.7,26.1c-1.2,1.2-1.2,3.1,0,4.2c1.2,1.2,3.1,1.2,4.2,0c1.2-1.2,1.2-3.1,0-4.2
					C33.8,24.9,31.9,24.9,30.7,26.1z M33.5,28.9c-0.4,0.4-1,0.4-1.4,0s-0.4-1,0-1.4s1-0.4,1.4,0C33.9,27.9,33.9,28.5,33.5,28.9z"/>
			</g>
		</g>
		<rect x="33.6" y="21.9" transform="matrix(0.7071 -0.7071 0.7071 0.7071 -5.0269 33.6415)" class="st0" width="9" height="2"/>
	</g>
</g>
</svg>
