<?xml version="1.0" encoding="UTF-8"?>
<!-- Generator: Adobe Illustrator 19.2.1, SVG Export Plug-In . SVG Version: 6.00 Build 0)  -->
<svg xmlns="http://www.w3.org/2000/svg" xmlns:xlink="http://www.w3.org/1999/xlink" version="1.1" x="0px" y="0px" viewBox="0 0 48 48" style="enable-background:new 0 0 48 48;" xml:space="preserve">
<style type="text/css">
	.st0{display:none;}
	.st1{display:inline;}
	.st2{fill:#4A4A4A;}
	.st3{display:inline;fill:#4A4A4A;}
	.st4{fill:#F9E555;}
</style>

<g id="Layer_2">
	<g>
		<g>
			<path class="st2" d="M39.9,25.4l-4.2-4.2l-8.5,0L14.4,33.8l12.7,12.7l12.7-12.7L39.9,25.4z M27.2,43.7l-9.9-9.9l9.9-9.9l7.8-0.7     l2.8,2.8l-0.7,7.8L27.2,43.7z"/>
			<ellipse transform="matrix(0.7071 -0.7071 0.7071 0.7071 -10.3259 31.4558)" class="st2" cx="32.8" cy="28.2" rx="3" ry="3"/>
			<path class="st4" d="M34.9,23.2l-7.8,0.7l-9.9,9.9l9.9,9.9l9.9-9.9l0.7-7.8L34.9,23.2z M34.9,30.3c-1.2,1.2-3.1,1.2-4.2,0     c-1.2-1.2-1.2-3.1,0-4.2c1.2-1.2,3.1-1.2,4.2,0S36.1,29.1,34.9,30.3z"/>
		</g>
		<ellipse transform="matrix(0.7071 -0.7071 0.7071 0.7071 -10.3259 31.4558)" class="st4" cx="32.8" cy="28.2" rx="1" ry="1"/>
		<rect x="37.1" y="18.4" transform="matrix(0.7071 0.7071 -0.7071 0.7071 27.3475 -20.2444)" class="st2" width="2" height="9"/>
	</g>
</g>
</svg>
