<?xml version="1.0" encoding="UTF-8"?>
<!-- Generator: Adobe Illustrator 19.2.1, SVG Export Plug-In . SVG Version: 6.00 Build 0)  -->
<svg xmlns="http://www.w3.org/2000/svg" xmlns:xlink="http://www.w3.org/1999/xlink" version="1.1" x="0px" y="0px" viewBox="0 0 48 48" style="enable-background:new 0 0 48 48;" xml:space="preserve">
<style type="text/css">
	.st0{display:none;}
	.st1{display:inline;}
	.st2{fill:#4A4A4A;}
	.st3{display:inline;fill:#4A4A4A;}
	.st4{fill:#245E06;}
</style>

<g id="Layer_2">
	<g id="Layer_2_1_">
		<g>
			<path class="st2" d="M23.8,32c4.4,0,8-3.6,8-8s-3.6-8-8-8s-8,3.6-8,8S19.4,32,23.8,32z M24,18.1c3.1,0,5.7,2.6,5.7,5.7     s-2.6,5.7-5.7,5.7s-5.7-2.6-5.7-5.7S20.8,18.1,24,18.1z"/>
			<path class="st4" d="M35.6,37.1c-1.2-2.8-3.9-3.1-5.8-4.1c-1.4,1.4-4,2-6.1,2s-4.6-0.7-6.1-2c-1.8,1-4.2,1.5-5.7,4.2     c-0.2,0.5-0.2,1.3-0.1,1.8v5h24l-0.1-5C35.9,40.6,35.9,37.8,35.6,37.1z"/>
		</g>
	</g>
</g>
</svg>
