<?xml version="1.0" encoding="utf-8"?>
<!-- Generator: Adobe Illustrator 19.2.1, SVG Export Plug-In . SVG Version: 6.00 Build 0)  -->
<svg version="1.1" id="Layer_2" xmlns="http://www.w3.org/2000/svg" xmlns:xlink="http://www.w3.org/1999/xlink" x="0px" y="0px"
	 viewBox="0 0 32 32" style="enable-background:new 0 0 32 32;" xml:space="preserve">
<style type="text/css">
	.st0{fill:#4A4A4A;}
	.st1{fill:#1C8BE9;}
</style>
<g id="Layer_2_1_">
	<g>
		<path class="st0" d="M21.9,24.1c2.9,0,5.3-2.4,5.3-5.3s-2.4-5.3-5.3-5.3s-5.3,2.4-5.3,5.3S18.9,24.1,21.9,24.1z M22,14.9
			c2,0,3.8,1.7,3.8,3.8S24,22.4,22,22.4s-3.8-1.7-3.8-3.8S19.9,14.9,22,14.9z"/>
		<path class="st1" d="M29.6,27.4c-0.8-1.8-2.6-2-3.8-2.7c-0.9,0.9-2.7,1.3-4,1.3s-3.1-0.5-4-1.3c-1.2,0.7-2.8,1-3.7,2.8
			C14,27.8,14,28.4,14,28.7V32h15.8v-3.3C29.8,29.8,29.8,27.9,29.6,27.4z"/>
	</g>
</g>
</svg>
