<?xml version="1.0" encoding="UTF-8"?>
<!-- Generator: Adobe Illustrator 19.2.1, SVG Export Plug-In . SVG Version: 6.00 Build 0)  -->
<svg xmlns="http://www.w3.org/2000/svg" xmlns:xlink="http://www.w3.org/1999/xlink" version="1.1" x="0px" y="0px" viewBox="0 0 48 48" style="enable-background:new 0 0 48 48;" xml:space="preserve">
<style type="text/css">
	.st0{display:none;}
	.st1{display:inline;}
	.st2{fill:#4A4A4A;}
	.st3{display:inline;fill:#4A4A4A;}
	.st4{fill:#1C8BE9;}
</style>

<g id="Layer_2">
	<g id="Layer_2_1_">
		<g>
			<path class="st2" d="M33.9,36c4.4,0,8-3.6,8-8s-3.6-8-8-8s-8,3.6-8,8S29.5,36,33.9,36z M34.1,22.1c3.1,0,5.7,2.6,5.7,5.7     s-2.6,5.7-5.7,5.7s-5.7-2.6-5.7-5.7S30.9,22.1,34.1,22.1z"/>
			<path class="st4" d="M45.7,41.1C44.5,38.3,41.8,38,40,37c-1.4,1.4-4,2-6.1,2c-2,0-4.6-0.7-6.1-2c-1.8,1-4.2,1.5-5.7,4.2     C22,41.7,22,42.5,22.1,43v5h24L46,43C46,44.6,45.9,41.8,45.7,41.1z"/>
		</g>
	</g>
</g>
</svg>
