<?xml version="1.0" encoding="utf-8"?>
<!-- Generator: Adobe Illustrator 21.0.0, SVG Export Plug-In . SVG Version: 6.00 Build 0)  -->
<svg version="1.1" id="Layer_1" xmlns="http://www.w3.org/2000/svg" xmlns:xlink="http://www.w3.org/1999/xlink" x="0px" y="0px"
	 viewBox="0 0 48 48" enable-background="new 0 0 48 48" xml:space="preserve">
<rect x="26" y="22" fill="#4C4C4C" width="16" height="2"/>
<rect x="26" y="28" fill="#4C4C4C" width="16" height="2"/>
<rect x="32" y="36" fill="#055EDD" width="10" height="6"/>
<rect x="26" y="18" fill="#4C4C4C" width="14" height="2"/>
<rect x="26" y="24" fill="#4C4C4C" width="2" height="4"/>
<rect x="40" y="24" fill="#4C4C4C" width="2" height="4"/>
<rect x="26" y="14" fill="#4C4C4C" width="10" height="2"/>
<path fill="#E0E0E0" d="M36,40.5h-0.5c-0.552,0-1-0.448-1-1v-1c0-0.552,0.448-1,1-1H36c0.552,0,1,0.448,1,1v1
	C37,40.052,36.552,40.5,36,40.5z"/>
<polygon fill="#E0E0E0" points="40.75,40.5 38.25,39 38.25,40.5 37,40.5 37,37.5 38.25,37.5 38.25,39 40.75,37.5 39.5,39 "/>
<rect x="18" y="22" fill="#4C4C4C" width="6" height="2"/>
<rect x="18" y="18" fill="#4C4C4C" width="6" height="2"/>
<rect x="18" y="14" fill="#4C4C4C" width="6" height="2"/>
<rect x="24" y="32" fill="#4C4C4C" width="18" height="2"/>
<path fill="#4C4C4C" d="M18,31v4h4v-4H18z M21,34h-2v-2h2V34z"/>
</svg>
