<?xml version="1.0" encoding="utf-8"?>
<!-- Generator: Adobe Illustrator 21.0.0, SVG Export Plug-In . SVG Version: 6.00 Build 0)  -->
<svg version="1.1" id="Layer_1" xmlns="http://www.w3.org/2000/svg" xmlns:xlink="http://www.w3.org/1999/xlink" x="0px" y="0px"
	 viewBox="0 0 32 32" enable-background="new 0 0 32 32" xml:space="preserve">
<rect x="12" y="16" fill="#4C4C4C" width="16" height="2"/>
<rect x="12" y="20" fill="#4C4C4C" width="16" height="2"/>
<rect x="20" y="24" fill="#055EDD" width="8" height="4"/>
<rect x="12" y="12" fill="#4C4C4C" width="14" height="2"/>
<rect x="12" y="18" fill="#4C4C4C" width="2" height="2"/>
<rect x="26" y="18" fill="#4C4C4C" width="2" height="2"/>
<rect x="12" y="8" fill="#4C4C4C" width="10" height="2"/>
<path fill="#E0E0E0" d="M23,27L23,27c-0.552,0-1-0.448-1-1v0c0-0.552,0.448-1,1-1h0c0.552,0,1,0.448,1,1v0
	C24,26.552,23.552,27,23,27z"/>
<polygon fill="#E0E0E0" points="27,27 25,26 25,27 24,27 24,25 25,25 25,26 27,25 26,26 "/>
</svg>
