<?xml version="1.0" encoding="utf-8"?>
<!-- Generator: Adobe Illustrator 21.0.0, SVG Export Plug-In . SVG Version: 6.00 Build 0)  -->
<svg version="1.1" id="Layer_1" xmlns="http://www.w3.org/2000/svg" xmlns:xlink="http://www.w3.org/1999/xlink" x="0px" y="0px"
	 viewBox="0 0 32 32" style="enable-background:new 0 0 32 32;" xml:space="preserve">
<style type="text/css">
	.st0{fill:#DDAA11;}
</style>
<g id="Layer_2">
	<g>
		<rect x="14" y="2" class="st0" width="2" height="18"/>
		<rect x="12" y="14" class="st0" width="2" height="2"/>
		<rect x="16" y="12" class="st0" width="2" height="2"/>
		<rect x="12" y="10" class="st0" width="2" height="2"/>
		<rect x="16" y="8" class="st0" width="2" height="2"/>
		<rect x="12" y="6" class="st0" width="2" height="2"/>
		<rect x="16" y="4" class="st0" width="2" height="2"/>
		<rect x="12" y="2" class="st0" width="2" height="2"/>
		<rect x="14.2" class="st0" width="1.8" height="2"/>
		<rect x="16" y="16" class="st0" width="2" height="2"/>
	</g>
</g>
<path class="st0" d="M26,16h-4l-2,12h2l1-4h2l1,4h2L26,16z M25,22h-2l1-4l0,0L25,22z"/>
</svg>
