<?xml version="1.0" encoding="utf-8"?>
<!-- Generator: Adobe Illustrator 21.0.0, SVG Export Plug-In . SVG Version: 6.00 Build 0)  -->
<svg version="1.1" id="Layer_1" xmlns="http://www.w3.org/2000/svg" xmlns:xlink="http://www.w3.org/1999/xlink" x="0px" y="0px"
	 viewBox="0 0 48 48" enable-background="new 0 0 48 48" xml:space="preserve">
<rect x="20" y="4" fill="#D1AA09" width="2" height="26"/>
<rect x="18" y="6" fill="#D1AA09" width="2" height="2"/>
<rect x="18" y="10" fill="#D1AA09" width="2" height="2"/>
<rect x="18" y="14" fill="#D1AA09" width="2" height="2"/>
<rect x="18" y="18" fill="#D1AA09" width="2" height="2"/>
<rect x="18" y="22" fill="#D1AA09" width="2" height="2"/>
<rect x="18" y="26" fill="#D1AA09" width="2" height="2"/>
<rect x="22" y="8" fill="#D1AA09" width="2" height="2"/>
<rect x="22" y="12" fill="#D1AA09" width="2" height="2"/>
<rect x="22" y="16" fill="#D1AA09" width="2" height="2"/>
<rect x="22" y="20" fill="#D1AA09" width="2" height="2"/>
<rect x="22" y="24" fill="#D1AA09" width="2" height="2"/>
<path fill="#DDAA11" d="M37,26h-6l-3,16h3l1.5-5.333h3L37,42h3L37,26z M35.5,34h-3l1.5-5.333l0,0L35.5,34z"/>
</svg>
