<?xml version="1.0" encoding="UTF-8"?>
<!-- Generator: Adobe Illustrator 19.2.1, SVG Export Plug-In . SVG Version: 6.00 Build 0)  -->
<svg xmlns="http://www.w3.org/2000/svg" xmlns:xlink="http://www.w3.org/1999/xlink" version="1.1" id="Layer_1" x="0px" y="0px" viewBox="0 0 32 32" style="enable-background:new 0 0 32 32;" xml:space="preserve">
<style type="text/css">
	.st0{display:none;}
	.st1{display:inline;}
	.st2{fill:#4A4A4A;}
	.st3{fill:#F3F3F3;}
</style>

<g id="Layer_2">
	<g>
		<path class="st3" d="M10,10h4.5l0.8-2.1c0.2-1-0.5-1.9-1.6-1.9h-3.2C9.4,6,8.7,6.9,9,7.7L10,10z"/>
		<path class="st3" d="M14.3,26H9.8L9,28.1C8.7,29,9.4,30,10.5,30h3.3c1.1,0,1.8-0.9,1.5-1.7L14.3,26z"/>
		<path class="st3" d="M6,19.7v-4.5l-2.1-0.8c-1-0.3-1.9,0.4-1.9,1.5v3.3c0,1.1,0.9,1.8,1.7,1.5L6,19.7z"/>
		<g>
			<g>
				<path class="st3" d="M15.6,14.5l2.4,0.8V10H6v16h12v-5.8l-2.6,1c-1,0.3-1.4-0.1-1.4-1.2v-4C14,14.9,14.6,14.2,15.6,14.5z"/>
			</g>
		</g>
	</g>
</g>
</svg>
