<?xml version="1.0" encoding="UTF-8"?>
<!-- Generator: Adobe Illustrator 19.2.1, SVG Export Plug-In . SVG Version: 6.00 Build 0)  -->
<svg xmlns="http://www.w3.org/2000/svg" xmlns:xlink="http://www.w3.org/1999/xlink" version="1.1" id="Layer_1" x="0px" y="0px" viewBox="0 0 32 32" style="enable-background:new 0 0 32 32;" xml:space="preserve">
<style type="text/css">
	.st0{display:none;}
	.st1{display:inline;}
	.st2{fill:#4A4A4A;}
	.st3{fill:#F3F3F3;}
</style>

<g id="Layer_2">
	<g>
		<path class="st3" d="M20,14h4.5l0.8-2.1c0.3-0.9-0.4-1.9-1.5-1.9h-3.1c-1.1,0-1.8,0.9-1.5,1.7L20,14z"/>
		<path class="st3" d="M16,23.7v-4.5l-2.1-0.8c-0.9-0.3-1.9,0.4-1.9,1.5v3.3c0,1.1,0.9,1.8,1.7,1.5L16,23.7z"/>
		<g>
			<g>
				<path class="st3" d="M25.6,18.5l2.4,0.8V14H16v16h12v-5.8l-2.6,1C24.4,25.5,24,25.1,24,24v-4C24,18.9,24.6,18.2,25.6,18.5z"/>
			</g>
		</g>
	</g>
</g>
</svg>
