<?xml version="1.0" encoding="UTF-8"?>
<!-- Generator: Adobe Illustrator 19.2.1, SVG Export Plug-In . SVG Version: 6.00 Build 0)  -->
<svg xmlns="http://www.w3.org/2000/svg" xmlns:xlink="http://www.w3.org/1999/xlink" version="1.1" x="0px" y="0px" viewBox="0 0 48 48" style="enable-background:new 0 0 48 48;" xml:space="preserve">
<style type="text/css">
	.st0{display:none;}
	.st1{display:inline;}
	.st2{fill:#4A4A4A;}
	.st3{display:inline;fill:#4A4A4A;}
	.st4{fill:#F3F3F3;}
</style>

<g id="Layer_2">
	<g>
		<path class="st4" d="M15.2,20h6l1.1-3.3c0.4-1.3-0.6-2.7-2-2.7H16c-1.4,0-2.4,1.4-1.9,2.7L15.2,20z"/>
		<path class="st4" d="M21.2,40h-6l-1.1,3.3c-0.4,1.3,0.6,2.7,2,2.7h4.3c1.4,0,2.4-1.4,1.9-2.7L21.2,40z"/>
		<path class="st4" d="M10,32.2v-6l-3.3-1.1c-1.3-0.4-2.7,0.6-2.7,2v4.3c0,1.4,1.4,2.4,2.7,1.9L10,32.2z"/>
		<g>
			<g>
				<path class="st4" d="M22.7,25.7l3.3,1.1V20H10v20h16v-7.2l-3.3,1.1C21.4,34.3,20,33.4,20,32v-4.3C20,26.2,21.4,25.2,22.7,25.7z"/>
			</g>
		</g>
	</g>
</g>
</svg>
