<?xml version="1.0" encoding="utf-8"?>
<!-- Generator: Adobe Illustrator 19.2.1, SVG Export Plug-In . SVG Version: 6.00 Build 0)  -->
<svg version="1.1" id="Layer_1" xmlns="http://www.w3.org/2000/svg" xmlns:xlink="http://www.w3.org/1999/xlink" x="0px" y="0px"
	 viewBox="0 0 48 48" style="enable-background:new 0 0 48 48;" xml:space="preserve">
<style type="text/css">
	.st0{fill:#F3F3F3;}
</style>
<rect x="8" y="22" class="st0" width="2" height="16"/>
<rect x="32" y="22" class="st0" width="2" height="16"/>
<rect x="30" y="22" transform="matrix(5.456784e-12 1 -1 5.456784e-12 54 -8)" class="st0" width="2" height="2"/>
<rect x="30" y="36" transform="matrix(5.456784e-12 1 -1 5.456784e-12 68 6)" class="st0" width="2" height="2"/>
<rect x="10" y="22" transform="matrix(5.456784e-12 1 -1 5.456784e-12 34 12)" class="st0" width="2" height="2"/>
<rect x="10" y="36" transform="matrix(5.456784e-12 1 -1 5.456784e-12 48 26)" class="st0" width="2" height="2"/>
<rect x="24" y="36" transform="matrix(5.456784e-12 1 -1 5.456784e-12 62 12)" class="st0" width="2" height="2"/>
<rect x="16" y="36" transform="matrix(5.456784e-12 1 -1 5.456784e-12 54 20)" class="st0" width="2" height="2"/>
<rect x="20" y="36" transform="matrix(5.456784e-12 1 -1 5.456784e-12 58 16)" class="st0" width="2" height="2"/>
</svg>
