<?xml version="1.0" encoding="utf-8"?>
<!-- Generator: Adobe Illustrator 19.2.1, SVG Export Plug-In . SVG Version: 6.00 Build 0)  -->
<svg version="1.1" id="Layer_1" xmlns="http://www.w3.org/2000/svg" xmlns:xlink="http://www.w3.org/1999/xlink" x="0px" y="0px"
	 viewBox="0 0 32 32" style="enable-background:new 0 0 32 32;" xml:space="preserve">
<style type="text/css">
	.st0{fill:#F3F3F3;}
	.st1{fill:#FF8080;}
</style>
<rect x="4" y="14" class="st0" width="2" height="12"/>
<rect x="6" y="14" transform="matrix(7.730767e-12 -1 1 7.730767e-12 -8 22)" class="st0" width="2" height="2"/>
<rect x="6" y="24" transform="matrix(7.730767e-12 -1 1 7.730767e-12 -18 32)" class="st0" width="2" height="2"/>
<circle class="st1" cx="6" cy="9" r="0"/>
<rect x="10" y="24" transform="matrix(7.276019e-12 -1 1 7.276019e-12 -14 36)" class="st0" width="2" height="2"/>
<rect x="22" y="14" transform="matrix(-1 8.958510e-11 -8.958510e-11 -1 46 40)" class="st0" width="2" height="12"/>
<rect x="20" y="24" transform="matrix(8.185434e-11 1 -1 8.185434e-11 46 4)" class="st0" width="2" height="2"/>
<rect x="20" y="14" transform="matrix(8.185434e-11 1 -1 8.185434e-11 36 -6)" class="st0" width="2" height="2"/>
<rect x="16" y="24" transform="matrix(7.276019e-12 -1 1 7.276019e-12 -8 42)" class="st0" width="2" height="2"/>
</svg>
