<?xml version="1.0" encoding="utf-8"?>
<!-- Generator: Adobe Illustrator 21.0.0, SVG Export Plug-In . SVG Version: 6.00 Build 0)  -->
<svg version="1.1" id="Layer_1" xmlns="http://www.w3.org/2000/svg" xmlns:xlink="http://www.w3.org/1999/xlink" x="0px" y="0px"
	 viewBox="0 0 48 48" enable-background="new 0 0 48 48" xml:space="preserve">
<rect x="20" y="4" fill="#1C8BE9" width="2" height="26"/>
<rect x="18" y="6" fill="#1C8BE9" width="2" height="2"/>
<rect x="18" y="10" fill="#1C8BE9" width="2" height="2"/>
<rect x="18" y="14" fill="#1C8BE9" width="2" height="2"/>
<rect x="18" y="18" fill="#1C8BE9" width="2" height="2"/>
<rect x="18" y="22" fill="#1C8BE9" width="2" height="2"/>
<rect x="18" y="26" fill="#1C8BE9" width="2" height="2"/>
<rect x="22" y="8" fill="#1C8BE9" width="2" height="2"/>
<rect x="22" y="12" fill="#1C8BE9" width="2" height="2"/>
<rect x="22" y="16" fill="#1C8BE9" width="2" height="2"/>
<rect x="22" y="20" fill="#1C8BE9" width="2" height="2"/>
<rect x="22" y="24" fill="#1C8BE9" width="2" height="2"/>
<g>
	<path fill="#1C8BE9" d="M24,40l4-6l0,0h-4v-2h6v2l-4,6l-1,0.1h5V42h-6V40z"/>
	<path fill="#1C8BE9" d="M34,32v10h-2V32H34z"/>
	<path fill="#1C8BE9" d="M42,33c-0.5-0.5-1.8-1-3-1c-0.9,0-2.4-0.1-3,0v10h2v-4c0.3,0.1,0.6,0,1,0c1.1,0,2.4-0.4,3-1
		C42.5,36.5,42.5,33.4,42,33z M40,35c0,0.6-0.5,1-1,1h-1v-2h1C39.6,34,40,34.4,40,35L40,35z"/>
</g>
</svg>
