<?xml version="1.0" encoding="utf-8"?>
<!-- Generator: Adobe Illustrator 21.0.0, SVG Export Plug-In . SVG Version: 6.00 Build 0)  -->
<svg version="1.1" id="Layer_1" xmlns="http://www.w3.org/2000/svg" xmlns:xlink="http://www.w3.org/1999/xlink" x="0px" y="0px"
	 viewBox="0 0 32 32" style="enable-background:new 0 0 32 32;" xml:space="preserve">
<style type="text/css">
	.st0{fill:#1C8BE9;}
</style>
<g id="Layer_2">
	<g>
		<path class="st0" d="M12,26l2-4l0,0h-2v-2h4v2l-2,4h-1h3v2h-4V26z"/>
		<path class="st0" d="M20,20v8h-2v-8H20z"/>
		<path class="st0" d="M26,20c-0.7,0-3.6,0-4,0v8h2l0-2c4,0,4.1-2.3,4.1-2.9C28.1,21.5,27.7,20,26,20z M26.1,23.2
			c0,0.7-0.7,0.8-1.1,0.8h-1v-2h1c0.4,0,1.1-0.1,1.1,0.9V23.2z"/>
		<rect x="14" y="2" class="st0" width="2" height="16"/>
		<rect x="12" y="14" class="st0" width="2" height="2"/>
		<rect x="16" y="12" class="st0" width="2" height="2"/>
		<rect x="12" y="10" class="st0" width="2" height="2"/>
		<rect x="16" y="8" class="st0" width="2" height="2"/>
		<rect x="12" y="6" class="st0" width="2" height="2"/>
		<rect x="16" y="4" class="st0" width="2" height="2"/>
		<rect x="12" y="2" class="st0" width="2" height="2"/>
		<rect x="14.2" class="st0" width="1.8" height="2"/>
	</g>
</g>
</svg>
