<?xml version="1.0" encoding="UTF-8"?>
<!-- Generated by Pixelmator Pro 3.4.3 -->
<svg width="48" height="48" viewBox="0 0 48 48" xmlns="http://www.w3.org/2000/svg">
    <g id="numbers">
        <path id="0" fill="#f3f3f3" fill-rule="evenodd" stroke="none" d="M 27.119873 19.178711 C 27.119873 20.456713 26.855391 21.434242 26.326416 22.111328 C 25.797441 22.788414 25.023035 23.126953 24.003174 23.126953 C 22.996008 23.126953 22.225832 22.794762 21.692627 22.130371 C 21.159422 21.465981 20.886475 20.513842 20.873779 19.273926 L 20.873779 17.572754 C 20.873779 16.282057 21.141436 15.302414 21.676758 14.633789 C 22.21208 13.965164 22.983313 13.630859 23.990479 13.630859 C 24.997644 13.630859 25.76782 13.96199 26.301025 14.624268 C 26.83423 15.286545 27.107178 16.237623 27.119873 17.477539 Z M 25.2854 17.3125 C 25.2854 16.546545 25.180666 15.989014 24.971191 15.639893 C 24.761717 15.290771 24.434816 15.116211 23.990479 15.116211 C 23.558836 15.116211 23.240398 15.282307 23.035156 15.614502 C 22.829914 15.946697 22.720947 16.466143 22.708252 17.172852 L 22.708252 19.419922 C 22.708252 20.173182 22.810871 20.732826 23.016113 21.098877 C 23.221355 21.464928 23.550371 21.647949 24.003174 21.647949 C 24.451744 21.647949 24.775471 21.472332 24.974365 21.121094 C 25.17326 20.769855 25.276937 20.232426 25.2854 19.508789 Z"/>
    </g>
</svg>
