<?xml version="1.0" encoding="UTF-8"?>
<!-- Generated by Pixelmator Pro 3.4.3 -->
<svg width="48" height="48" viewBox="0 0 48 48" xmlns="http://www.w3.org/2000/svg">
    <g id="numbers">
        <path id="2" fill="#f3f3f3" fill-rule="evenodd" stroke="none" d="M 27.234131 23 L 20.89917 23 L 20.89917 21.743164 L 23.888916 18.556641 C 24.2994 18.10807 24.603025 17.716637 24.799805 17.382324 C 24.996584 17.048012 25.094971 16.730633 25.094971 16.430176 C 25.094971 16.019691 24.991293 15.697021 24.783936 15.462158 C 24.576578 15.227295 24.280357 15.109863 23.895264 15.109863 C 23.480549 15.109863 23.153646 15.252686 22.914551 15.53833 C 22.675455 15.823975 22.555908 16.199541 22.555908 16.665039 L 20.715088 16.665039 C 20.715088 16.102211 20.849445 15.588055 21.118164 15.122559 C 21.386883 14.657063 21.76668 14.292076 22.257568 14.027588 C 22.748457 13.7631 23.304928 13.630859 23.927002 13.630859 C 24.879154 13.630859 25.61865 13.859371 26.145508 14.316406 C 26.672365 14.773441 26.935791 15.418777 26.935791 16.252441 C 26.935791 16.709475 26.817303 17.174965 26.580322 17.648926 C 26.343342 18.122887 25.937096 18.675127 25.361572 19.305664 L 23.260498 21.520996 L 27.234131 21.520996 Z"/>
    </g>
</svg>
