<?xml version="1.0" encoding="UTF-8"?>
<!-- Generated by Pixelmator Pro 3.4.3 -->
<svg width="48" height="48" viewBox="0 0 48 48" xmlns="http://www.w3.org/2000/svg">
    <g id="numbers">
        <path id="3" fill="#f3f3f3" fill-rule="evenodd" stroke="none" d="M 22.765381 17.566406 L 23.74292 17.566406 C 24.208418 17.566406 24.553303 17.450033 24.777588 17.217285 C 25.001873 16.984537 25.114014 16.675621 25.114014 16.290527 C 25.114014 15.918129 25.002932 15.628258 24.780762 15.420898 C 24.558592 15.213539 24.25285 15.109863 23.863525 15.109863 C 23.512287 15.109863 23.218182 15.206135 22.981201 15.398682 C 22.744221 15.591228 22.625732 15.841957 22.625732 16.150879 L 20.79126 16.150879 C 20.79126 15.668453 20.921385 15.23576 21.181641 14.852783 C 21.441896 14.469807 21.805824 14.17041 22.273438 13.95459 C 22.741051 13.73877 23.256264 13.630859 23.819092 13.630859 C 24.796637 13.630859 25.562578 13.864662 26.116943 14.332275 C 26.671309 14.799889 26.948486 15.444168 26.948486 16.265137 C 26.948486 16.688316 26.819418 17.077635 26.561279 17.433105 C 26.303141 17.788576 25.964602 18.061523 25.545654 18.251953 C 26.066164 18.438152 26.454426 18.717445 26.710449 19.089844 C 26.966473 19.462242 27.094482 19.902342 27.094482 20.410156 C 27.094482 21.231123 26.795088 21.889158 26.196289 22.384277 C 25.59749 22.879396 24.805099 23.126953 23.819092 23.126953 C 22.896561 23.126953 22.142256 22.883629 21.556152 22.396973 C 20.970049 21.910316 20.677002 21.267094 20.677002 20.467285 L 22.511475 20.467285 C 22.511475 20.814293 22.6416 21.097818 22.901855 21.317871 C 23.162111 21.537924 23.482664 21.647949 23.863525 21.647949 C 24.2994 21.647949 24.641111 21.532635 24.888672 21.302002 C 25.136232 21.071369 25.26001 20.765627 25.26001 20.384766 C 25.26001 19.462234 24.752203 19.000977 23.736572 19.000977 L 22.765381 19.000977 Z"/>
    </g>
</svg>
