<?xml version="1.0" encoding="UTF-8"?>
<!-- Generated by Pixelmator Pro 3.4.3 -->
<svg width="48" height="48" viewBox="0 0 48 48" xmlns="http://www.w3.org/2000/svg">
    <g id="numbers">
        <path id="5" fill="#f3f3f3" fill-rule="evenodd" stroke="none" d="M 21.172119 18.455078 L 21.705322 13.757813 L 26.88501 13.757813 L 26.88501 15.287598 L 23.209717 15.287598 L 22.981201 17.274414 C 23.417076 17.041666 23.880449 16.925293 24.371338 16.925293 C 25.251551 16.925293 25.941322 17.19824 26.440674 17.744141 C 26.940025 18.290041 27.189697 19.053869 27.189697 20.035645 C 27.189697 20.632328 27.063803 21.166582 26.812012 21.638428 C 26.560221 22.110273 26.199465 22.476316 25.729736 22.736572 C 25.260008 22.996828 24.70565 23.126953 24.06665 23.126953 C 23.508055 23.126953 22.989668 23.013754 22.511475 22.787354 C 22.033281 22.560953 21.6556 22.242516 21.378418 21.832031 C 21.101236 21.421547 20.954184 20.953941 20.937256 20.429199 L 22.752686 20.429199 C 22.790771 20.814293 22.925129 21.113688 23.155762 21.327393 C 23.386395 21.541098 23.687904 21.647949 24.060303 21.647949 C 24.475018 21.647949 24.794514 21.498781 25.018799 21.200439 C 25.243084 20.902098 25.355225 20.479982 25.355225 19.934082 C 25.355225 19.40934 25.226156 19.007326 24.968018 18.728027 C 24.709879 18.448729 24.343834 18.309082 23.869873 18.309082 C 23.433998 18.309082 23.080648 18.423338 22.809814 18.651855 L 22.63208 18.816895 Z"/>
    </g>
</svg>
