<?xml version="1.0" encoding="UTF-8"?>
<!-- Generated by Pixelmator Pro 3.4.3 -->
<svg width="48" height="48" viewBox="0 0 48 48" xmlns="http://www.w3.org/2000/svg">
    <g id="numbers">
        <path id="6" fill="#f3f3f3" fill-rule="evenodd" stroke="none" d="M 25.875732 13.662598 L 25.875732 15.17334 L 25.697998 15.17334 C 24.868567 15.186035 24.201012 15.401852 23.695313 15.820801 C 23.189613 16.239748 22.885986 16.821611 22.784424 17.566406 C 23.275312 17.067055 23.89526 16.817383 24.644287 16.817383 C 25.448328 16.817383 26.087318 17.105141 26.561279 17.680664 C 27.03524 18.256187 27.272217 19.013668 27.272217 19.953125 C 27.272217 20.554039 27.142092 21.097816 26.881836 21.584473 C 26.62158 22.071129 26.25342 22.449869 25.777344 22.720703 C 25.301268 22.991537 24.762779 23.126953 24.161865 23.126953 C 23.188553 23.126953 22.40251 22.788414 21.803711 22.111328 C 21.204912 21.434242 20.905518 20.530767 20.905518 19.400879 L 20.905518 18.740723 C 20.905518 17.737787 21.094887 16.852299 21.473633 16.084229 C 21.852379 15.316158 22.396154 14.7216 23.10498 14.300537 C 23.813807 13.879475 24.635818 13.666828 25.571045 13.662598 Z M 24.085693 18.290039 C 23.789469 18.290039 23.520754 18.367268 23.279541 18.521729 C 23.038328 18.676189 22.860596 18.880369 22.746338 19.134277 L 22.746338 19.692871 C 22.746338 20.30648 22.866941 20.785725 23.108154 21.130615 C 23.349367 21.475506 23.687904 21.647949 24.123779 21.647949 C 24.517336 21.647949 24.835773 21.492434 25.079102 21.181396 C 25.32243 20.870359 25.444092 20.467287 25.444092 19.972168 C 25.444092 19.468584 25.321371 19.062338 25.075928 18.753418 C 24.830484 18.444498 24.500408 18.290039 24.085693 18.290039 Z"/>
    </g>
</svg>
