<?xml version="1.0" encoding="UTF-8"?>
<!-- Generated by Pixelmator Pro 3.4.3 -->
<svg width="48" height="48" viewBox="0 0 48 48" xmlns="http://www.w3.org/2000/svg">
    <g id="numbers">
        <path id="8" fill="#f3f3f3" fill-rule="evenodd" stroke="none" d="M 26.923096 16.214355 C 26.923096 16.662926 26.810955 17.060707 26.58667 17.407715 C 26.362385 17.754723 26.053469 18.0319 25.659912 18.239258 C 26.108482 18.45508 26.463947 18.752357 26.726318 19.131104 C 26.988689 19.50985 27.119873 19.955238 27.119873 20.467285 C 27.119873 21.288252 26.840578 21.936766 26.281982 22.412842 C 25.723387 22.888918 24.963791 23.126953 24.003174 23.126953 C 23.042557 23.126953 22.280846 22.887861 21.718018 22.409668 C 21.15519 21.931475 20.873779 21.284021 20.873779 20.467285 C 20.873779 19.955238 21.004963 19.508791 21.267334 19.12793 C 21.529705 18.747068 21.883055 18.450848 22.327393 18.239258 C 21.933836 18.0319 21.625978 17.754723 21.403809 17.407715 C 21.181639 17.060707 21.070557 16.662926 21.070557 16.214355 C 21.070557 15.427242 21.332924 14.799889 21.857666 14.332275 C 22.382408 13.864662 23.095455 13.630859 23.996826 13.630859 C 24.893967 13.630859 25.605955 13.862545 26.132813 14.325928 C 26.65967 14.78931 26.923096 15.418777 26.923096 16.214355 Z M 25.279053 20.333984 C 25.279053 19.931965 25.16268 19.610353 24.929932 19.369141 C 24.697184 19.127928 24.384035 19.007324 23.990479 19.007324 C 23.601154 19.007324 23.290121 19.126871 23.057373 19.365967 C 22.824625 19.605062 22.708252 19.927732 22.708252 20.333984 C 22.708252 20.727541 22.822508 21.04492 23.051025 21.286133 C 23.279543 21.527346 23.596922 21.647949 24.003174 21.647949 C 24.400963 21.647949 24.713053 21.531576 24.939453 21.298828 C 25.165854 21.06608 25.279053 20.744469 25.279053 20.333984 Z M 25.088623 16.303223 C 25.088623 15.94352 24.993408 15.654705 24.802979 15.436768 C 24.612549 15.21883 24.343834 15.109863 23.996826 15.109863 C 23.654051 15.109863 23.387451 15.215656 23.197021 15.427246 C 23.006592 15.638836 22.911377 15.930824 22.911377 16.303223 C 22.911377 16.671389 23.006592 16.967609 23.197021 17.191895 C 23.387451 17.41618 23.656166 17.52832 24.003174 17.52832 C 24.350182 17.52832 24.617838 17.41618 24.806152 17.191895 C 24.994467 16.967609 25.088623 16.671389 25.088623 16.303223 Z"/>
    </g>
</svg>
