<?xml version="1.0" encoding="UTF-8"?>
<!-- Generated by Pixelmator Pro 3.4.3 -->
<svg width="48" height="48" viewBox="0 0 48 48" xmlns="http://www.w3.org/2000/svg">
    <g id="numbers">
        <path id="9" fill="#f3f3f3" fill-rule="evenodd" stroke="none" d="M 25.190186 19.305664 C 24.711992 19.775393 24.153404 20.010254 23.514404 20.010254 C 22.697668 20.010254 22.043867 19.729902 21.552979 19.169189 C 21.06209 18.608477 20.81665 17.852055 20.81665 16.899902 C 20.81665 16.294756 20.948893 15.739342 21.213379 15.233643 C 21.477865 14.727943 21.847084 14.334393 22.321045 14.052979 C 22.795006 13.771564 23.328203 13.630859 23.920654 13.630859 C 24.530033 13.630859 25.071693 13.783203 25.545654 14.087891 C 26.019615 14.392578 26.387775 14.830563 26.650146 15.401855 C 26.912518 15.973148 27.045816 16.626949 27.050049 17.363281 L 27.050049 18.04248 C 27.050049 19.582853 26.667078 20.793127 25.901123 21.67334 C 25.135168 22.553553 24.04973 23.023275 22.644775 23.08252 L 22.194092 23.088867 L 22.194092 21.559082 L 22.600342 21.552734 C 24.195728 21.480793 25.059 20.731777 25.190186 19.305664 Z M 23.965088 18.607422 C 24.261312 18.607422 24.516275 18.53125 24.72998 18.378906 C 24.943686 18.226563 25.105549 18.042482 25.215576 17.82666 L 25.215576 17.071289 C 25.215576 16.449215 25.097088 15.966797 24.860107 15.624023 C 24.623127 15.28125 24.305748 15.109863 23.907959 15.109863 C 23.539793 15.109863 23.237225 15.278076 23.000244 15.614502 C 22.763264 15.950928 22.644775 16.373045 22.644775 16.880859 C 22.644775 17.384443 22.76009 17.798094 22.990723 18.121826 C 23.221355 18.445559 23.546141 18.607422 23.965088 18.607422 Z"/>
    </g>
</svg>
