<?xml version="1.0" encoding="UTF-8"?>
<!-- Generated by Pixelmator Pro 3.4.3 -->
<svg width="48" height="48" viewBox="0 0 48 48" xmlns="http://www.w3.org/2000/svg">
    <g id="letters">
        <path id="B" fill="#f3f3f3" fill-rule="evenodd" stroke="none" d="M 20.677002 22 L 20.677002 12.757813 L 23.914307 12.757813 C 25.035732 12.757813 25.886309 12.972572 26.466064 13.4021 C 27.04582 13.831627 27.335693 14.461098 27.335693 15.290527 C 27.335693 15.743328 27.21932 16.14217 26.986572 16.487061 C 26.753824 16.831951 26.430096 17.084797 26.015381 17.245605 C 26.489342 17.364096 26.862791 17.603188 27.135742 17.962891 C 27.408693 18.322594 27.545166 18.762693 27.545166 19.283203 C 27.545166 20.171879 27.261641 20.844725 26.69458 21.301758 C 26.12752 21.758791 25.31926 21.991537 24.269775 22 Z M 22.581299 17.975586 L 22.581299 20.470215 L 24.212646 20.470215 C 24.661217 20.470215 25.011393 20.363363 25.263184 20.149658 C 25.514975 19.935953 25.640869 19.640789 25.640869 19.26416 C 25.640869 18.417801 25.202885 17.988281 24.326904 17.975586 Z M 22.581299 16.629883 L 23.990479 16.629883 C 24.951096 16.612955 25.431396 16.229984 25.431396 15.480957 C 25.431396 15.062008 25.309734 14.760498 25.066406 14.576416 C 24.823078 14.392334 24.439049 14.300293 23.914307 14.300293 L 22.581299 14.300293 Z"/>
    </g>
</svg>
