<?xml version="1.0" encoding="UTF-8"?>
<!-- Generated by Pixelmator Pro 3.4.3 -->
<svg width="48" height="48" viewBox="0 0 48 48" xmlns="http://www.w3.org/2000/svg">
    <g id="letters">
        <path id="C" fill="#f3f3f3" fill-rule="evenodd" stroke="none" d="M 27.827637 18.921387 C 27.755695 19.915857 27.388594 20.698729 26.726318 21.27002 C 26.064043 21.841311 25.19125 22.126953 24.10791 22.126953 C 22.923008 22.126953 21.990971 21.728113 21.311768 20.93042 C 20.632565 20.132727 20.292969 19.037767 20.292969 17.645508 L 20.292969 17.080566 C 20.292969 16.191891 20.449543 15.409019 20.762695 14.731934 C 21.075848 14.054848 21.523354 13.5354 22.105225 13.173584 C 22.687096 12.811768 23.363115 12.630859 24.133301 12.630859 C 25.199713 12.630859 26.058754 12.9165 26.710449 13.487793 C 27.362144 14.059086 27.73877 14.860996 27.840332 15.893555 L 25.936035 15.893555 C 25.889486 15.296871 25.723391 14.864178 25.437744 14.595459 C 25.152098 14.32674 24.717289 14.192383 24.133301 14.192383 C 23.498531 14.192383 23.02352 14.419838 22.708252 14.874756 C 22.392984 15.329674 22.231119 16.035315 22.222656 16.991699 L 22.222656 17.689941 C 22.222656 18.688644 22.373941 19.418617 22.676514 19.879883 C 22.979086 20.341148 23.456215 20.571777 24.10791 20.571777 C 24.696129 20.571777 25.135172 20.43742 25.425049 20.168701 C 25.714926 19.899982 25.881021 19.484215 25.92334 18.921387 Z"/>
    </g>
</svg>
