<?xml version="1.0" encoding="UTF-8"?>
<!-- Generated by Pixelmator Pro 3.4.3 -->
<svg width="48" height="48" viewBox="0 0 48 48" xmlns="http://www.w3.org/2000/svg">
    <g id="letters">
        <path id="D" fill="#f3f3f3" fill-rule="evenodd" stroke="none" d="M 20.60083 22 L 20.60083 12.757813 L 23.44458 12.757813 C 24.257084 12.757813 24.983883 12.940834 25.625 13.306885 C 26.266117 13.672935 26.766518 14.193436 27.126221 14.868408 C 27.485924 15.543381 27.665771 16.310379 27.665771 17.169434 L 27.665771 17.594727 C 27.665771 18.453781 27.489098 19.217607 27.135742 19.88623 C 26.782387 20.554853 26.284101 21.07324 25.640869 21.441406 C 24.997637 21.809572 24.271894 21.995768 23.463623 22 Z M 22.505127 14.300293 L 22.505127 20.470215 L 23.425537 20.470215 C 24.170332 20.470215 24.7395 20.226891 25.133057 19.740234 C 25.526613 19.253578 25.727621 18.557459 25.736084 17.651855 L 25.736084 17.163086 C 25.736084 16.223629 25.541424 15.511639 25.1521 15.0271 C 24.762775 14.542561 24.193607 14.300293 23.44458 14.300293 Z"/>
    </g>
</svg>
