<?xml version="1.0" encoding="UTF-8"?>
<!-- Generated by Pixelmator Pro 3.4.3 -->
<svg width="48" height="48" viewBox="0 0 48 48" xmlns="http://www.w3.org/2000/svg">
    <g id="letters">
        <path id="G" fill="#f3f3f3" fill-rule="evenodd" stroke="none" d="M 27.710205 20.832031 C 27.36743 21.242516 26.882896 21.560953 26.256592 21.787354 C 25.630287 22.013754 24.936283 22.126953 24.174561 22.126953 C 23.374752 22.126953 22.673344 21.952394 22.070313 21.603271 C 21.467281 21.254148 21.001793 20.747398 20.673828 20.083008 C 20.345863 19.418617 20.177652 18.637863 20.169189 17.740723 L 20.169189 17.112305 C 20.169189 16.189774 20.324705 15.391037 20.635742 14.716064 C 20.946779 14.041092 21.395342 13.524822 21.981445 13.167236 C 22.567549 12.80965 23.254147 12.630859 24.04126 12.630859 C 25.137295 12.630859 25.994219 12.89217 26.612061 13.414795 C 27.229902 13.93742 27.595947 14.698074 27.710205 15.696777 L 25.856689 15.696777 C 25.772053 15.167805 25.584799 14.780602 25.294922 14.535156 C 25.005045 14.289711 24.606203 14.166992 24.098389 14.166992 C 23.450924 14.166992 22.957928 14.410316 22.619385 14.896973 C 22.280842 15.383629 22.109457 16.107254 22.105225 17.067871 L 22.105225 17.658203 C 22.105225 18.627283 22.289305 19.359373 22.657471 19.854492 C 23.025637 20.349611 23.565182 20.597168 24.276123 20.597168 C 24.991297 20.597168 25.501219 20.444826 25.805908 20.140137 L 25.805908 18.546875 L 24.072998 18.546875 L 24.072998 17.144043 L 27.710205 17.144043 Z"/>
    </g>
</svg>
