<?xml version="1.0" encoding="UTF-8"?>
<!-- Generated by Pixelmator Pro 3.4.3 -->
<svg width="48" height="48" viewBox="0 0 48 48" xmlns="http://www.w3.org/2000/svg">
    <g id="letters">
        <path id="J" fill="#f3f3f3" fill-rule="evenodd" stroke="none" d="M 24.92041 12.757813 L 26.824707 12.757813 L 26.824707 19.15625 C 26.824707 19.744469 26.694582 20.263914 26.434326 20.7146 C 26.17407 21.165285 25.806969 21.513346 25.333008 21.758789 C 24.859047 22.004232 24.323734 22.126953 23.727051 22.126953 C 22.749506 22.126953 21.987795 21.87834 21.441895 21.381104 C 20.895994 20.883867 20.623047 20.180344 20.623047 19.270508 L 22.540039 19.270508 C 22.540039 19.72331 22.635254 20.057615 22.825684 20.273438 C 23.016113 20.48926 23.316566 20.597168 23.727051 20.597168 C 24.090984 20.597168 24.380857 20.472332 24.59668 20.222656 C 24.812502 19.97298 24.92041 19.617516 24.92041 19.15625 Z"/>
    </g>
</svg>
