<?xml version="1.0" encoding="UTF-8"?>
<svg xmlns="http://www.w3.org/2000/svg" xmlns:xlink="http://www.w3.org/1999/xlink" width="32px" height="32px" viewBox="0 0 32 32" x="0px" y="0px" version="1.1">
  <defs/>
  <g>
    <path d="M27.1,11.6L21.4,19c0.5,0.2,1,0.6,1.3,1l5.6-7.3C27.8,12.4,27.4,12.1,27.1,11.6z" fill="#4a4a4a" stroke="#4a4a4a" stroke-width="0"/>
    <path d="M13.2,11.6c-0.3,0.5-0.8,0.8-1.3,1l5.8,7.6c0.3-0.5,0.8-0.8,1.3-1L13.2,11.6z" fill="#4a4a4a" stroke="#4a4a4a" stroke-width="0"/>
    <path d="M7.8,11l-3.2,2.9c0.5,0.3,0.9,0.7,1.1,1.2l3.1-2.8C8.5,11.9,8.1,11.5,7.8,11z" fill="#4a4a4a" stroke="#4a4a4a" stroke-width="0"/>
    <path d="M12.5,10.6c0.1-0.3,0.2-0.6,0.2-0.9c0-1.1-0.9-2-2-2c-1.1,0-2,0.9-2,2c0,0.2,0,0.4,0.1,0.6c0.2,0.6,0.6,1,1.1,1.3c0.3,0.1,0.5,0.2,0.8,0.2c0.2,0,0.3,0,0.4-0.1C11.7,11.5,12.2,11.1,12.5,10.6z" fill="#4a4a4a" stroke="#4a4a4a" stroke-width="0"/>
    <path d="M22,21c-0.1-0.1-0.1-0.2-0.2-0.3c0,0,0,0,0,0c-0.1-0.1-0.2-0.2-0.3-0.3c0,0,0,0,0,0c-0.1-0.1-0.2-0.1-0.3-0.2c0,0,0,0,0,0c-0.1-0.1-0.3-0.1-0.4-0.1c0,0,0,0,0,0c-0.1,0-0.3,0-0.4,0c-0.3,0-0.6,0.1-0.8,0.2c0,0,0,0,0,0c-0.1,0.1-0.2,0.1-0.3,0.2c0,0,0,0,0,0c-0.1,0.1-0.2,0.2-0.3,0.3c0,0,0,0,0,0c-0.1,0.1-0.2,0.2-0.2,0.3c0,0,0,0,0,0l0,0c-0.1,0.3-0.2,0.6-0.2,0.9c0,1.1,0.9,2,2,2c1.1,0,2-0.9,2-2C22.2,21.6,22.2,21.3,22,21L22,21z" fill="#4a4a4a" stroke="#4a4a4a" stroke-width="0"/>
    <path d="M29.5,7.7c-1.1,0-2,0.9-2,2c0,0.3,0.1,0.6,0.2,0.9c0.3,0.5,0.7,0.9,1.3,1c0.2,0,0.3,0.1,0.5,0.1c1.1,0,2-0.9,2-2C31.5,8.6,30.6,7.7,29.5,7.7z" fill="#4a4a4a" stroke="#4a4a4a" stroke-width="0"/>
    <path d="M4.1,14.7c-0.3-0.1-0.6-0.2-0.9-0.2c-1.1,0-2,0.9-2,2s0.9,2,2,2c1.1,0,2-0.9,2-2c0-0.2,0-0.3-0.1-0.5C5,15.5,4.6,15,4.1,14.7z" fill="#4a4a4a" stroke="#4a4a4a" stroke-width="0"/>
  </g>
</svg>
