<?xml version="1.0" encoding="UTF-8"?>
<svg xmlns="http://www.w3.org/2000/svg" xmlns:xlink="http://www.w3.org/1999/xlink" width="32px" height="32px" viewBox="0 0 32 32" x="0px" y="0px" version="1.1">
  <defs/>
  <g>
    <path d="M15.4,18.6C15.4,18.6,15.4,18.6,15.4,18.6L17,5.8C10.1,5,3.9,9.8,3.1,16.7c-0.8,6.8,4,13.1,10.9,13.9c2.1,0.3,4,0,5.9-0.7L15.4,18.6z" fill="#ffffff" stroke="#ffffff" stroke-width="0"/>
    <path d="M27.1,13.6c0-0.1-7.5,3.2-10.5,4.5l4.6,11.2c3.6-1.8,6.2-5.3,6.7-9.6C28.1,17.5,27.8,15.5,27.1,13.6z" fill="#ffffff" stroke="#ffffff" stroke-width="0"/>
    <path d="M17.6,15.2l1.7-13.3l1,0.1c4.1,0.5,7.7,3.2,9.3,7.1L30,10L17.6,15.2zM21,4.2L20,12l7.3-3.1C26,6.5,23.7,4.8,21,4.2z" fill="#ffffff" stroke="#ffffff" stroke-width="0"/>
  </g>
</svg>
