<?xml version="1.0" encoding="UTF-8"?>
<svg xmlns="http://www.w3.org/2000/svg" xmlns:xlink="http://www.w3.org/1999/xlink" width="32px" height="32px" viewBox="0 0 32 32" x="0px" y="0px" version="1.1">
  <defs>
    <g id="reportelements">
      <path d="M21.4,24H8.6c-0.5,0-0.6,0.5-0.6,0.5c0,0,0,0.5,0.6,0.5h12.8c0.6,0,0.6-0.5,0.6-0.5S22,24,21.4,24z" fill="#4a4a4a" stroke="#4a4a4a" stroke-width="0"/>
      <path d="M9.5,16.8l1.4-1.4l3.7,2c0,0,0.1,0,0.1,0c0.1,0,0.1,0,0.2-0.1l4.3-3.8l0.4,0.4c0,0,0,0,0,0c0,0,0.1,0,0.1-0.1c0,0,0.1-0.1,0.1-0.1c0,0,0.4-1,0.6-1.7c0,0,0-0.1,0-0.1c0,0,0,0-0.1,0c0,0,0,0,0,0l-1.7,0.6c0,0-0.1,0-0.1,0.1c0,0-0.1,0.1-0.1,0.1c0,0,0,0,0,0l0.3,0.3l-4.1,3.6l-3.7-2c-0.1-0.1-0.2,0-0.3,0l-1.6,1.5c-0.1,0.1-0.1,0.3,0,0.4C9.2,16.9,9.4,16.9,9.5,16.8z" fill="#4a4a4a" stroke="#4a4a4a" stroke-width="0"/>
      <path d="M19.5,23L19.5,23c-0.3,0-0.5-0.2-0.5-0.5v-6c0-0.3,0.2-0.5,0.5-0.5l0,0c0.3,0,0.5,0.2,0.5,0.5v6C20,22.8,19.8,23,19.5,23z" fill="#4a4a4a" stroke="#4a4a4a" stroke-width="0"/>
      <path d="M16.5,23L16.5,23c-0.3,0-0.5-0.2-0.5-0.5v-4c0-0.3,0.2-0.5,0.5-0.5l0,0c0.3,0,0.5,0.2,0.5,0.5v4C17,22.8,16.8,23,16.5,23z" fill="#4a4a4a" stroke="#4a4a4a" stroke-width="0"/>
      <path d="M13.5,23L13.5,23c-0.3,0-0.5-0.2-0.5-0.5v-2c0-0.3,0.2-0.5,0.5-0.5h0c0.3,0,0.5,0.2,0.5,0.5v2C14,22.8,13.8,23,13.5,23z" fill="#4a4a4a" stroke="#4a4a4a" stroke-width="0"/>
      <path d="M10.5,23L10.5,23c-0.3,0-0.5-0.2-0.5-0.5v-3c0-0.3,0.2-0.5,0.5-0.5h0c0.3,0,0.5,0.2,0.5,0.5v3C11,22.8,10.8,23,10.5,23z" fill="#4a4a4a" stroke="#4a4a4a" stroke-width="0"/>
    </g>
    <g id="clipboard">
      <path d="M25,4.6h-3.2c0.5,0.5,0.7,1.2,0.8,2L24,7v21H6V7l1.4-0.4c0-0.7,0.3-1.4,0.8-2H5c-0.5,0-1,0.4-1,1V29c0,0.5,0.5,1,1,1h20c0.5,0,1-0.5,1-1V5.6C26,5,25.6,4.6,25,4.6z"/>
      <path d="M11.1,9.1h8.1c1.2,0,2.2-1,2.2-2.2V6.8c0-0.1,0-0.1,0-0.2c-0.1-1-0.9-1.8-1.9-2c-0.1,0-0.2,0-0.3,0h-1V4.4c0-1.2-1-2.2-2.2-2.2h-1.8c-1.2,0-2.2,1-2.2,2.2v0.2h-1c-0.1,0-0.2,0-0.3,0c-1,0.1-1.8,0.9-1.9,2c0,0.1,0,0.1,0,0.2v0.1C8.9,8.1,9.9,9.1,11.1,9.1zM10.1,6.8c0-0.1,0-0.1,0-0.2c0.1-0.5,0.5-0.8,1-0.8h1.5c0.3,0,0.6-0.3,0.6-0.6V4.6V4.4c0-0.6,0.5-1,1-1h1.8c0.6,0,1,0.5,1,1v0.2v0.6c0,0.3,0.3,0.6,0.6,0.6h1.5c0.5,0,0.9,0.3,1,0.8c0,0.1,0,0.1,0,0.2v0.1c0,0.6-0.5,1-1,1h-8.1c-0.6,0-1-0.5-1-1V6.8z"/>
      <circle cx="15.2" cy="5.2" r="0.8"/>
    </g>
  </defs>
  <g>
    <use xlink:href="#clipboard" fill="#4a4a4a" stroke="#4a4a4a" stroke-width="0"/>
    <use xlink:href="#reportelements" fill="#4a4a4a" stroke="#4a4a4a" stroke-width="0"/>
  </g>
</svg>
