<?xml version="1.0" encoding="UTF-8"?>
<svg xmlns="http://www.w3.org/2000/svg" xmlns:xlink="http://www.w3.org/1999/xlink" width="32px" height="32px" viewBox="0 0 32 32" x="0px" y="0px" version="1.1">
  <defs/>
  <g>
    <path d="M6,16c-1,0-1,1-1,1v7c0,0,0,1,1,1h1c1,0,1-1,1-1v-7c0,0,0-1-1-1H6z" fill="#4a4a4a" stroke="#4a4a4a" stroke-width="0"/>
    <path d="M12,19c-1,0-1,1-1,1v4c0,0,0,1,1,1h1c1,0,1-1,1-1v-4c0,0,0-1-1-1H12z" fill="#4a4a4a" stroke="#4a4a4a" stroke-width="0"/>
    <path d="M18,16c-1,0-1,1-1,1v7c0,0,0,1,1,1h1c1,0,1-1,1-1v-7c0,0,0-1-1-1H18z" fill="#4a4a4a" stroke="#4a4a4a" stroke-width="0"/>
    <path d="M24,12c-1,0-1,1-1,1v11c0,0,0,1,1,1h1c1,0,1-1,1-1V13c0,0,0-1-1-1H24z" fill="#4a4a4a" stroke="#4a4a4a" stroke-width="0"/>
    <path d="M27,26H4c-1,0-1,1-1,0.9c0,0,0,1.1,1,1.1h23c1,0,1-1,1-1S28,26,27,26z" fill="#4a4a4a" stroke="#4a4a4a" stroke-width="0"/>
    <path d="M5.6,13.3l2.6-2.5l6.7,3.6c0.1,0,0.2,0.1,0.2,0.1c0.1,0,0.2,0,0.3-0.1l7.7-6.8l0.7,0.8c0,0,0,0,0.1,0c0.1,0,0.1,0,0.2-0.1c0.1-0.1,0.1-0.2,0.1-0.3c0,0,0.7-1.8,1.1-3c0,0,0-0.1,0-0.2c0,0-0.1-0.1-0.2,0c0,0,0,0,0,0l-3,1.1C22.1,5.9,22,6,22,6c-0.1,0.1-0.1,0.2-0.1,0.3c0,0,0.1,0.1,0.1,0.1l0.5,0.5l-7.4,6.5L8.3,9.7C8.1,9.6,7.9,9.7,7.7,9.8l-2.8,2.7c-0.2,0.2-0.2,0.5,0,0.7C5.1,13.5,5.4,13.5,5.6,13.3z" fill="#4a4a4a" stroke="#4a4a4a" stroke-width="0"/>
  </g>
</svg>
