<?xml version="1.0" encoding="UTF-8"?>
<svg id="Layer_1" xmlns="http://www.w3.org/2000/svg" xmlns:xlink="http://www.w3.org/1999/xlink" version="1.1" viewBox="0 0 32 32">
  <!-- Generator: Adobe Illustrator 29.3.1, SVG Export Plug-In . SVG Version: 2.1.0 Build 151)  -->
  <defs>
    <style>
      .st0 {
        fill: none;
      }

      .st1 {
        fill: url(#radial-gradient);
      }

      .st2 {
        fill: #3086ff;
      }

      .st3 {
        fill: url(#radial-gradient1);
      }

      .st4 {
        fill: url(#radial-gradient6);
      }

      .st5 {
        fill: url(#radial-gradient3);
      }

      .st6 {
        fill: url(#radial-gradient2);
      }

      .st7 {
        fill: url(#radial-gradient5);
      }

      .st8 {
        fill: url(#radial-gradient4);
      }

      .st9 {
        fill: url(#linear-gradient);
        isolation: isolate;
        opacity: .5;
      }

      .st10 {
        clip-path: url(#clippath);
      }
    </style>
    <clipPath id="clippath">
      <path class="st0" d="M31.7,13h-15.4v6.2h8.8c-.1.9-.5,1.7-.9,2.5-.5.9-1.2,1.6-1.9,2.1-2,1.6-4.4,1.9-6,1.9-4.1,0-7.7-2.7-9.1-6.3,0-.1,0-.3-.1-.4-.3-.9-.5-1.9-.5-2.9s.2-2.1.5-3c1.3-3.8,4.9-6.6,9.2-6.6s1.7.1,2.5.3c1.8.5,3,1.4,3.8,2.1l4.7-4.6C24.4,1.6,20.7,0,16.3,0c-3.5,0-6.8,1.1-9.5,3-2.2,1.5-3.9,3.5-5.1,5.9-1.1,2.2-1.7,4.6-1.7,7.2s.6,5,1.7,7.2h0c1.2,2.3,2.9,4.3,5,5.8,1.8,1.3,5.1,3.1,9.6,3.1s4.9-.5,6.9-1.3c1.5-.6,2.8-1.5,3.9-2.5,1.5-1.4,2.8-3.1,3.6-5.1.8-2,1.3-4.2,1.3-6.7s-.1-2.3-.3-3.3h0Z"/>
    </clipPath>
    <radialGradient id="radial-gradient" cx="-330.1" cy="168.1" fx="-330.1" fy="168.1" r="10" gradientTransform="translate(392.6 -516) rotate(-92.4) scale(1.6 -2.4) skewX(.1)" gradientUnits="userSpaceOnUse">
      <stop offset=".1" stop-color="#1abd4d"/>
      <stop offset=".2" stop-color="#6ec30d"/>
      <stop offset=".3" stop-color="#8ac502"/>
      <stop offset=".4" stop-color="#a2c600"/>
      <stop offset=".4" stop-color="#c8c903"/>
      <stop offset=".5" stop-color="#ebcb03"/>
      <stop offset=".6" stop-color="#f7cd07"/>
      <stop offset=".7" stop-color="#fdcd04"/>
      <stop offset=".8" stop-color="#fdce05"/>
      <stop offset=".9" stop-color="#ffce0a"/>
    </radialGradient>
    <radialGradient id="radial-gradient1" cx="16.7" cy="173.8" fx="16.7" fy="173.8" r="6.7" gradientTransform="translate(-1.2 379.8) scale(1.7 -2.1)" gradientUnits="userSpaceOnUse">
      <stop offset=".4" stop-color="#fb4e5a"/>
      <stop offset="1" stop-color="#ff4540"/>
    </radialGradient>
    <radialGradient id="radial-gradient2" cx="-278.6" cy="120.6" fx="-278.6" fy="120.6" r="10" gradientTransform="translate(-277.2 491.3) rotate(151.5) scale(1.8 2.4) skewX(1.4)" gradientUnits="userSpaceOnUse">
      <stop offset=".2" stop-color="#ff4541"/>
      <stop offset=".3" stop-color="#ff4540"/>
      <stop offset=".5" stop-color="#ff4640"/>
      <stop offset=".5" stop-color="#ff473f"/>
      <stop offset=".7" stop-color="#ff5138"/>
      <stop offset=".8" stop-color="#ff5b33"/>
      <stop offset=".9" stop-color="#ff6c29"/>
      <stop offset="1" stop-color="#ff8c18"/>
    </radialGradient>
    <radialGradient id="radial-gradient3" cx="-389.8" cy="192.5" fx="-389.8" fy="192.5" r="10" gradientTransform="translate(-1370.8 -1202.3) rotate(-128) scale(4.7 1.7) skewX(-.4)" gradientUnits="userSpaceOnUse">
      <stop offset=".1" stop-color="#0cba65"/>
      <stop offset=".2" stop-color="#0bb86d"/>
      <stop offset=".3" stop-color="#09b479"/>
      <stop offset=".4" stop-color="#08ad93"/>
      <stop offset=".5" stop-color="#0aa6a9"/>
      <stop offset=".6" stop-color="#0d9cc6"/>
      <stop offset=".7" stop-color="#1893dd"/>
      <stop offset=".8" stop-color="#258bf1"/>
      <stop offset=".9" stop-color="#3086ff"/>
    </radialGradient>
    <radialGradient id="radial-gradient4" cx="-43.6" cy="129.3" fx="-43.6" fy="129.3" r="10" gradientTransform="translate(319.7 113.4) rotate(96.8) scale(1.7 2.4) skewX(.4)" gradientUnits="userSpaceOnUse">
      <stop offset=".4" stop-color="#ff4e3a"/>
      <stop offset=".5" stop-color="#ff8a1b"/>
      <stop offset=".5" stop-color="#ffa312"/>
      <stop offset=".6" stop-color="#ffb60c"/>
      <stop offset=".8" stop-color="#ffcd0a"/>
      <stop offset=".9" stop-color="#fecf0a"/>
      <stop offset=".9" stop-color="#fecf08"/>
      <stop offset="1" stop-color="#fdcd01"/>
    </radialGradient>
    <radialGradient id="radial-gradient5" cx="-135.9" cy="400.9" fx="-135.9" fy="400.9" r="5.7" gradientTransform="translate(-1405.7 -978.9) rotate(132.7) scale(1.5 -4.3) skewX(-3.4)" gradientUnits="userSpaceOnUse">
      <stop offset=".3" stop-color="#ff4c3c"/>
      <stop offset=".6" stop-color="#ff692c"/>
      <stop offset=".7" stop-color="#ff7825"/>
      <stop offset=".9" stop-color="#ff8d1b"/>
      <stop offset="1" stop-color="#ff9f13"/>
    </radialGradient>
    <radialGradient id="radial-gradient6" cx="-399.6" cy="281.6" fx="-399.6" fy="281.6" r="10" gradientTransform="translate(-277.2 -902.4) rotate(-151.5) scale(1.8 -2.4) skewX(1.4)" gradientUnits="userSpaceOnUse">
      <stop offset=".2" stop-color="#0fbc5f"/>
      <stop offset=".3" stop-color="#0fbc5f"/>
      <stop offset=".4" stop-color="#0fbc5e"/>
      <stop offset=".5" stop-color="#0fbc5d"/>
      <stop offset=".5" stop-color="#12bc58"/>
      <stop offset=".7" stop-color="#28bf3c"/>
      <stop offset=".8" stop-color="#38c02b"/>
      <stop offset=".9" stop-color="#52c218"/>
      <stop offset=".9" stop-color="#67c30f"/>
      <stop offset="1" stop-color="#86c504"/>
    </radialGradient>
    <linearGradient id="linear-gradient" x1="125.9" y1="-80.9" x2="130.1" y2="-80.9" gradientTransform="translate(-106.3 -51) scale(1 -1)" gradientUnits="userSpaceOnUse">
      <stop offset="0" stop-color="#0fbc5c"/>
      <stop offset="1" stop-color="#0cba65"/>
    </linearGradient>
  </defs>
  <g class="st10">
    <g>
      <path class="st1" d="M-.2,16.1c0,2.5.7,5.2,1.8,7.3h0c.8,1.6,1.9,2.8,3.1,4l7.5-2.7c-1.4-.7-1.6-1.2-2.6-2-1-1-1.8-2.2-2.3-3.6h0,0c-.3-.9-.3-1.9-.4-3H-.2Z"/>
      <path class="st3" d="M16.3-.1c-.7,2.6-.5,5.1,0,6.6.9,0,1.7.1,2.5.3,1.8.5,3,1.4,3.8,2.1l4.8-4.7C24.6,1.6,21.2-.1,16.3-.1Z"/>
      <path class="st6" d="M16.3-.1c-3.6,0-7,1.1-9.7,3-1,.7-2,1.5-2.8,2.4-.2,2,1.6,4.6,5.3,4.5,1.8-2.1,4.4-3.4,7.3-3.4s0,0,0,0V-.1c-.1,0-.1,0-.1,0Z"/>
      <path class="st5" d="M28.3,16.8l-3.2,2.2c-.1.9-.5,1.7-.9,2.5-.5.9-1.2,1.6-1.9,2.1-2,1.6-4.4,1.9-6,1.9-1.7,2.9-2,4.3.1,6.7,2.6,0,4.9-.5,7-1.4,1.5-.6,2.8-1.5,4-2.5,1.6-1.4,2.8-3.2,3.6-5.2.8-2,1.3-4.3,1.3-6.8l-3.9.5Z"/>
      <path class="st2" d="M16,13v6h15.5c.3-.5.5-2,.5-3s.2-2,0-3h-16Z"/>
      <path class="st8" d="M3.9,5.1c-1,1-1.8,2.2-2.4,3.5C.4,10.8-.2,13.4-.2,16s0,0,0,.1c.5.9,6.8.8,7.1,0,0,0,0,0,0-.1,0-1.1.2-1.8.5-2.8.4-1.2,1-2.3,1.8-3.2.2-.2.7-.7.8-1,0-.1,0-.2-.1-.2,0,0-.2,0-.3,0-.1-.1-.4-.2-.6-.2-.4-.1-1-.3-1.3-.6-1.1-.8-2.8-1.7-3.8-2.8h0Z"/>
      <path class="st7" d="M7.8,8.7c2.5,1.5,3.3-.8,4.9-1.5l-2.9-6.1c-1.1.5-2.1,1-3,1.7-1.4,1-2.7,2.2-3.7,3.5l4.7,2.4Z"/>
      <path class="st4" d="M8.8,24.2c-3.4,1.2-3.9,1.3-4.2,3.4.6.6,1.2,1.1,1.9,1.6,1.8,1.3,5.3,3.1,9.8,3.1s0,0,0,0v-6.8s0,0,0,0c-1.7,0-3-.4-4.4-1.2-.3-.2-1,.3-1.3,0-.4-.3-1.5.3-1.8-.1h0Z"/>
      <path class="st9" d="M14.4,25.2v6.9c.6,0,1.3.1,2,.1s1.4,0,2-.1v-6.9c-.7.1-1.4.2-2,.2s-1.3,0-2-.2Z"/>
    </g>
  </g>
</svg>