<?xml version="1.0" encoding="utf-8"?>
<!-- Generator: Adobe Illustrator 22.1.0, SVG Export Plug-In . SVG Version: 6.00 Build 0)  -->
<svg version="1.1" id="Layer_1" xmlns="http://www.w3.org/2000/svg" xmlns:xlink="http://www.w3.org/1999/xlink" x="0px" y="0px"
	 viewBox="0 0 32 32" style="enable-background:new 0 0 32 32;" xml:space="preserve">
<style type="text/css">
	.st0{fill:#4A4A4A;}
</style>
<path class="st0" d="M28,17c0,6.1-4.9,9-11,9h-2c-6.1,0-11-2.9-11-9H2c0,7.2,5.8,13,13,13h2c7.2,0,13-5.8,13-13H28z"/>
<rect x="14" y="6" class="st0" width="4" height="22"/>
<path class="st0" d="M23,14H9c-0.6,0-1-0.4-1-1v0c0-0.6,0.4-1,1-1h14c0.6,0,1,0.4,1,1v0C24,13.6,23.6,14,23,14z"/>
<polygon class="st0" points="-4,2 -4,2 -4,2 -4,2 "/>
<g>
	<g>
		<path class="st0" d="M17.5,1h-3C13.1,1,12,2.1,12,3.5v2C12,6.9,13.1,8,14.5,8h3C18.9,8,20,6.9,20,5.5v-2C20,2.1,18.9,1,17.5,1z
			 M17,6h-2c-0.6,0-1-0.4-1-1s0.4-2,1-2h2c0.6,0,1,1.4,1,2S17.6,6,17,6z"/>
	</g>
</g>
<path class="st0" d="Mnan,nancnan,nan,nan,nan,nan,nancnan,nan,nan,nan,nan,nancnan,nan,nan,nan,nan,nancnan,nan,nan,nan,nan,nanz"
	/>
</svg>
