<?xml version="1.0" encoding="utf-8"?>
<!-- Generator: Adobe Illustrator 22.1.0, SVG Export Plug-In . SVG Version: 6.00 Build 0)  -->
<svg version="1.1" id="Layer_1" xmlns="http://www.w3.org/2000/svg" xmlns:xlink="http://www.w3.org/1999/xlink" x="0px" y="0px"
	 viewBox="0 0 32 32" style="enable-background:new 0 0 32 32;" xml:space="preserve">
<style type="text/css">
	.st0{fill:#4A4A4A;}
</style>
<g>
	<path class="st0" d="M8,6h9.8C21,6,22,7,22,12c0,1.1-1.1,3.6-1.9,3.9C21.3,16.2,24,17,24,20c0,1,0,6-5,6H8V6z M12,14h4
		c0.8,0,2,0,2-2s-1.2-2-2-2h-4V14z M12,22h6c0.9,0,2,0,2-2s-1.1-2-2-2h-6V22z"/>
</g>
</svg>
