<?xml version="1.0" encoding="utf-8"?>
<!-- Generator: Adobe Illustrator 22.1.0, SVG Export Plug-In . SVG Version: 6.00 Build 0)  -->
<svg version="1.1" id="Layer_1" xmlns="http://www.w3.org/2000/svg" xmlns:xlink="http://www.w3.org/1999/xlink" x="0px" y="0px"
	 viewBox="0 0 32 32" style="enable-background:new 0 0 32 32;" xml:space="preserve">
<style type="text/css">
	.st0{fill:#4A4A4A;}
</style>
<path class="st0" d="M2,6v20h28V6H2z M28,24H4V8h24V24z"/>
<polygon class="st0" points="26,22 6,22 7.1,19.6 10,14 12,17 15,13.2 16.3,13.8 18.3,11.4 21,17 "/>
<path class="st0" d="M24,14L24,14c1.1,0,2-0.9,2-2v0c0-1.1-0.9-2-2-2h0c-1.1,0-2,0.9-2,2v0C22,13.1,22.9,14,24,14z"/>
</svg>
