<?xml version="1.0" encoding="utf-8"?>
<!-- Generator: Adobe Illustrator 22.1.0, SVG Export Plug-In . SVG Version: 6.00 Build 0)  -->
<svg version="1.1" id="Layer_1" xmlns="http://www.w3.org/2000/svg" xmlns:xlink="http://www.w3.org/1999/xlink" x="0px" y="0px"
	 viewBox="0 0 32 32" style="enable-background:new 0 0 32 32;" xml:space="preserve">
<style type="text/css">
	.st0{fill:#4A4A4A;}
</style>
<rect x="12" y="6" class="st0" width="16" height="2"/>
<rect x="24" y="16" class="st0" width="6" height="2"/>
<rect x="24" y="26" class="st0" width="6" height="2"/>
<path class="st0" d="M17,20L17,20c1.7,0,3-1.3,3-3l0,0c0-1.7-1.3-3-3-3l0,0c-1.7,0-3,1.3-3,3l0,0C14,18.7,15.3,20,17,20z"/>
<path class="st0" d="M5,10L5,10c1.7,0,3-1.3,3-3l0,0c0-1.7-1.3-3-3-3l0,0C3.3,4,2,5.3,2,7l0,0C2,8.7,3.3,10,5,10z"/>
<path class="st0" d="M17,30L17,30c1.7,0,3-1.3,3-3l0,0c0-1.7-1.3-3-3-3l0,0c-1.7,0-3,1.3-3,3l0,0C14,28.7,15.3,30,17,30z"/>
<polygon class="st0" points="12.1,22 4,30 4,22 4,14 "/>
</svg>
