<?xml version="1.0" encoding="utf-8"?>
<!-- Generator: Adobe Illustrator 22.1.0, SVG Export Plug-In . SVG Version: 6.00 Build 0)  -->
<svg version="1.1" id="Layer_1" xmlns="http://www.w3.org/2000/svg" xmlns:xlink="http://www.w3.org/1999/xlink" x="0px" y="0px"
	 viewBox="0 0 32 32" style="enable-background:new 0 0 32 32;" xml:space="preserve">
<style type="text/css">
	.st0{fill:#4A4A4A;}
</style>
<g>
	<g>
		<path class="st0" d="M2,6v20h2v-2h2v2h20v-2h2v2h2V6H2z M6,22H4v-2h2V22z M6,18H4v-2h2V18z M6,14H4v-2h2V14z M6,10H4V8h2V10z
			 M10,22V10l12,6L10,22z M28,22h-2v-2h2V22z M28,18h-2v-2h2V18z M28,14h-2v-2h2V14z M28,10h-2V8h2V10z"/>
	</g>
</g>
</svg>
