<?xml version="1.0" encoding="utf-8"?>
<!-- Generator: Adobe Illustrator 22.1.0, SVG Export Plug-In . SVG Version: 6.00 Build 0)  -->
<svg version="1.1" id="Layer_1" xmlns="http://www.w3.org/2000/svg" xmlns:xlink="http://www.w3.org/1999/xlink" x="0px" y="0px"
	 viewBox="0 0 32 32" style="enable-background:new 0 0 32 32;" xml:space="preserve">
<style type="text/css">
	.st0{fill:#4A4A4A;}
</style>
<path class="st0" d="M5.9,28H10l0,0c-1.3-1.3-2-3-2-4.8V22c0-0.7-0.1-1.4-0.2-2.1C7.5,18.5,7,17,6,16l0,0l0,0c1-1,1.5-2.4,1.8-3.9
	C7.9,11.4,8,10.7,8,10V8.8C8,7,8.7,5.3,10,4l0,0H5.9C4.9,4,4,7.9,4,8.9v3.4c0,1.1-0.4,2.1-1.2,2.9L2,16l0.8,0.8
	C3.6,17.6,4,18.6,4,19.7v3.4C4,24.1,4.9,28,5.9,28z"/>
<path class="st0" d="M26.1,4H22l0,0c1.3,1.3,2,3,2,4.8V10c0,0.7,0.1,1.4,0.2,2.1c0.3,1.5,0.7,2.9,1.8,4l0,0l0,0
	c-1,1-1.5,2.4-1.8,3.9C24.1,20.6,24,21.3,24,22v1.1c0,1.8-0.7,3.5-2,4.8l0,0h4.1c1.1,0,1.9-3.9,1.9-4.9v-3.4c0-1.1,0.4-2.1,1.2-2.9
	L30,16l-0.8-0.8c-0.8-0.8-1.2-1.8-1.2-2.9V8.9C28,7.9,27.1,4,26.1,4z"/>
<path class="st0" d="M12,21L12,21c-1.1,0-2-0.9-2-2v0c0-1.1,0.9-2,2-2h0c1.1,0,2,0.9,2,2v0C14,20.1,13.1,21,12,21z"/>
<path class="st0" d="M20,21L20,21c-1.1,0-2-0.9-2-2v0c0-1.1,0.9-2,2-2h0c1.1,0,2,0.9,2,2v0C22,20.1,21.1,21,20,21z"/>
</svg>
