<?xml version="1.0" encoding="utf-8"?>
<!-- Generator: Adobe Illustrator 22.1.0, SVG Export Plug-In . SVG Version: 6.00 Build 0)  -->
<svg version="1.1" id="Layer_1" xmlns="http://www.w3.org/2000/svg" xmlns:xlink="http://www.w3.org/1999/xlink" x="0px" y="0px"
	 viewBox="0 0 32 32" style="enable-background:new 0 0 32 32;" xml:space="preserve">
<style type="text/css">
	.st0{fill:#4A4A4A;}
</style>
<g>
	<g>
		<path class="st0" d="M0,14v6c0,1.1,0.9,2,2,2h10c1.1,0,2-0.9,2-2v-6c0-1.1-0.9-2-2-2H2C0.9,12,0,12.9,0,14z M12,20H2v-6h10V20z"/>
	</g>
</g>
<g>
	<g>
		<path class="st0" d="M18,14v6c0,1.1,0.9,2,2,2H30c1.1,0,2-0.9,2-2V14c0-1.1-0.9-2-2-2H20C18.9,12,18,12.9,18,14z M30,20H20v-6h10
			V20z"/>
	</g>
</g>
<path class="st0" d="M11,16h10c0.6,0,1,0.4,1,1v0c0,0.6-0.4,1-1,1H11c-0.6,0-1-0.4-1-1v0C10,16.4,10.4,16,11,16z"/>
</svg>
