<?xml version="1.0" encoding="utf-8"?>
<!-- Generator: Adobe Illustrator 22.1.0, SVG Export Plug-In . SVG Version: 6.00 Build 0)  -->
<svg version="1.1" id="Layer_1" xmlns="http://www.w3.org/2000/svg" xmlns:xlink="http://www.w3.org/1999/xlink" x="0px" y="0px"
	 viewBox="0 0 32 32" style="enable-background:new 0 0 32 32;" xml:space="preserve">
<style type="text/css">
	.st0{fill:#4A4A4A;}
</style>
<g>
	<path class="st0" d="M6,2v8H4V3.8C3.6,4,4.3,3.6,4,3.8S2.5,4.5,2,4.7V2.9L4,2H6z"/>
</g>
<g>
	<path class="st0" d="M8,20H2c0.1-0.6,0-2,0-2c2.5-2.2,4.3-2.8,4.3-3.5c0-0.4-0.4-0.9-1.3-0.9c-1.3,0-1,0.9-1,1.4H2
		c0.1-0.6,0.3-1.4,0.6-1.8c0.2-0.3,0.3-1.1,2.5-1.1c1.8,0,2.5,0.7,2.8,1.1c0.2,0.4,0.3,1.4,0.2,1.8c-0.1,0.7-0.5,0.7-1.6,1.6
		c-0.3,0.4-2.1,1.4-2.2,1.5S8,18,8,18V20z"/>
</g>
<g>
	<path class="st0" d="M4,24H1.9c0.2-0.6,0.3-2,3.1-2c2.4,0,3,1.5,3,2.1c0,1.1-0.9,1.4-1.2,1.6c0.3,0.1,0.6,0.3,0.8,0.6
		C7.8,26.7,8.1,26.8,8,28c-0.1,1.4-0.8,2-3,2c-2.3,0-2.9-1.5-3.1-2H4c0.1,0.4,0.2,0.3,0.4,0.5c0.2,0.2,0.4,0.3,0.7,0.3
		c0.3,0,0.5-0.1,0.7-0.3C6,28.2,6.1,28,6.1,27.6S6,27,5.8,26.8c-0.2-0.2-0.4-0.3-0.8-0.3c-0.2,0-0.4,0-0.7,0.1L4.5,25
		c0.1,0,0.2,0,0.3,0c0.3,0,0.5-0.1,0.7-0.3c0.2-0.2,0.3-0.4,0.3-0.6s-0.1-0.4-0.2-0.6S5.2,23.3,5,23.3c-0.3,0-0.5,0.1-0.6,0.2
		C4.2,23.7,4.1,23.6,4,24z"/>
</g>
<rect x="12" y="6" class="st0" width="16" height="2"/>
<rect x="12" y="16" class="st0" width="16" height="2"/>
<rect x="12" y="26" class="st0" width="16" height="2"/>
</svg>
