<?xml version="1.0" encoding="utf-8"?>
<!-- Generator: Adobe Illustrator 19.2.1, SVG Export Plug-In . SVG Version: 6.00 Build 0)  -->
<svg version="1.1" id="Layer_1" xmlns="http://www.w3.org/2000/svg" xmlns:xlink="http://www.w3.org/1999/xlink" x="0px" y="0px"
	 viewBox="0 0 32 32" style="enable-background:new 0 0 32 32;" xml:space="preserve">
<style type="text/css">
	.st0{fill:#4A4A4A;}
</style>
<g>
	<g>
		<path class="st0" d="M2,10h8V2H2V10z M4,4h4v4H4V4z M12,10h8V2h-8V10z M14,4h4v4h-4V4z M22,2v8h8V2H22z M28,8h-4V4h4V8z"/>
	</g>
</g>
<g>
	<g>
		<path class="st0" d="M2,20h8v-8H2V20z M4,14h4v4H4V14z M12,20h8v-8h-8V20z M14,14h4v4h-4V14z M22,12v8h8v-8H22z M28,18h-4v-4h4V18
			z"/>
	</g>
</g>
<g>
	<g>
		<path class="st0" d="M12,30h8v-8h-8V30z M14,24h4v4h-4V24z M2,30h8v-8H2V30z M4,24h4v4H4V24z M22,22v8h8v-8H22z M28,28h-4v-4h4V28
			z"/>
	</g>
</g>
</svg>
