<?xml version="1.0" encoding="utf-8"?>
<!-- Generator: Adobe Illustrator 21.0.0, SVG Export Plug-In . SVG Version: 6.00 Build 0)  -->
<svg version="1.1" id="Layer_1" xmlns="http://www.w3.org/2000/svg" xmlns:xlink="http://www.w3.org/1999/xlink" x="0px" y="0px"
	 viewBox="0 0 32 32" style="enable-background:new 0 0 32 32;" xml:space="preserve">
<style type="text/css">
	.st0{fill:#4A4A4A;}
</style>
<g>
	<g>
		<path class="st0" d="M16.4,6L16.4,6c-0.6,0.6-0.6,1.4-0.1,2l8,8l-8,8c-0.5,0.5-0.5,1.4,0,2l0,0c0.5,0.5,1.4,0.5,2,0l10-10l-10-10
			C17.9,5.4,17,5.4,16.4,6z"/>
	</g>
</g>
<g>
	<g>
		<path class="st0" d="M4.4,6L4.4,6C3.9,6.6,3.9,7.4,4.4,8l8,8l-8,8c-0.5,0.5-0.5,1.4,0,2l0,0c0.5,0.5,1.4,0.5,2,0l10-10L6.4,6
			C5.9,5.4,5,5.4,4.4,6z"/>
	</g>
</g>
</svg>
