<?xml version="1.0" encoding="utf-8"?>
<!-- Generator: Adobe Illustrator 22.1.0, SVG Export Plug-In . SVG Version: 6.00 Build 0)  -->
<svg version="1.1" id="Layer_1" xmlns="http://www.w3.org/2000/svg" xmlns:xlink="http://www.w3.org/1999/xlink" x="0px" y="0px"
	 viewBox="0 0 32 32" style="enable-background:new 0 0 32 32;" xml:space="preserve">
<style type="text/css">
	.st0{fill:#4A4A4A;}
</style>
<path class="st0" d="M31,18H1c-0.6,0-1-0.4-1-1l0,0c0-0.6,0.4-1,1-1h30c0.6,0,1,0.4,1,1l0,0C32,17.6,31.6,18,31,18z"/>
<g>
	<g>
		<polygon class="st0" points="8,10 4,10 2,22 4,22 5,18 7,18 8,22 10,22 		"/>
	</g>
</g>
<g>
	<g>
		<path class="st0" d="M20,13.5v-1.4c0-1.2-0.9-2.1-2.1-2.1H12v12h6.1c1.1,0,1.9-0.9,1.9-1.9V18c0-2-2-2-2-2S20,16,20,13.5z M17,20
			h-3v-2h3c0.6,0,1,0.4,1,1S17.6,20,17,20z M17.2,14H14v-2h2.8c0.7,0,1.2,0.5,1.2,1.2C18,13.6,17.6,14,17.2,14z"/>
	</g>
</g>
<g>
	<g>
		<path class="st0" d="M26,12c1.1,0,2,0.9,2,2h2v-0.5c0-1.9-1.6-3.5-3.5-3.5h-1.1c-1.8,0-3.4,1.6-3.4,3.5v5.1c0,1.9,1.6,3.5,3.5,3.5
			h1.1c1.9,0,3.5-1.6,3.5-3.5V18h-2c0,1.1-0.9,2-2,2s-2-0.9-2-2v-4C24,12.9,24.9,12,26,12z"/>
	</g>
</g>
</svg>
