<?xml version="1.0" encoding="utf-8"?>
<!-- Generator: Adobe Illustrator 22.1.0, SVG Export Plug-In . SVG Version: 6.00 Build 0)  -->
<svg version="1.1" id="Layer_1" xmlns="http://www.w3.org/2000/svg" xmlns:xlink="http://www.w3.org/1999/xlink" x="0px" y="0px"
	 viewBox="0 0 32 32" style="enable-background:new 0 0 32 32;" xml:space="preserve">
<style type="text/css">
	.st0{fill:#4A4A4A;}
</style>
<g id="Layer_2_1_">
	<polygon class="st0" points="20.1,25.9 2.1,8 3.9,6.1 21.9,23.9 	"/>
	<polygon class="st0" points="2.1,24 20,6.1 21.9,8 4,25.9 	"/>
</g>
<g>
	<path class="st0" d="M30,29h-7c0.1-0.7,0.1-1.3,0.5-1.9s1.2-1.4,2.3-2.2c0.7-0.5,1.1-0.9,1.3-1.2s0.3-0.5,0.3-0.8
		c0-0.3-0.1-0.5-0.3-0.7S26.7,22,26.4,22c-0.3,0-0.6,0.1-0.7,0.3s-0.3,0.5-0.4,1l-2.4-0.2c0.1-0.7,0.3-1.2,0.5-1.6s0.6-0.7,1.1-0.9
		s1.1-0.3,1.9-0.3c0.8,0,1.5,0.1,2,0.3s0.8,0.5,1.1,0.9s0.4,0.8,0.4,1.3c0,0.5-0.2,1-0.5,1.5s-0.9,1-1.7,1.6c-0.5,0.3-0.8,0.6-1,0.7
		S25.2,26.8,25,27h5V29z"/>
</g>
</svg>
