<?xml version="1.0" encoding="utf-8"?>
<!-- Generator: Adobe Illustrator 22.1.0, SVG Export Plug-In . SVG Version: 6.00 Build 0)  -->
<svg version="1.1" id="Layer_1" xmlns="http://www.w3.org/2000/svg" xmlns:xlink="http://www.w3.org/1999/xlink" x="0px" y="0px"
	 viewBox="0 0 32 32" style="enable-background:new 0 0 32 32;" xml:space="preserve">
<style type="text/css">
	.st0{fill:#4A4A4A;}
</style>
<g>
	<g>
		<path class="st0" d="M20,6v14c0,2.2-1.8,4-4,4s-4-1.8-4-4V6H8v15c0,2.8,2.3,5,5,5H19c2.8,0,5-2.3,5-5V6H20z"/>
	</g>
</g>
<path class="st0" d="M23,30H9c-0.6,0-1-0.4-1-1v0c0-0.6,0.4-1,1-1h14c0.6,0,1,0.4,1,1v0C24,29.6,23.6,30,23,30z"/>
</svg>
