<?xml version="1.0" encoding="UTF-8"?>
<!-- Generated by Pixelmator Pro 3.6.18 -->
<svg width="16" height="16" viewBox="0 0 16 16" xmlns="http://www.w3.org/2000/svg">
    <path id="background" fill="#3091dd" fill-rule="evenodd" stroke="none" d="M 16 8 C 16 3.581722 12.418278 0 8 0 C 3.581722 0 0 3.581722 0 8 C 0 12.418278 3.581722 16 8 16 C 12.418278 16 16 12.418278 16 8 Z"/>
    <path id="bunny" fill="#ffffff" stroke="none" d="M 9.582596 2.596469 C 9.881315 2.775701 10.68786 3.373141 11.165812 3.851094 C 11.225556 3.910838 11.345045 4.030326 11.374916 4.060198 C 11.404788 4.09007 11.554148 4.239429 11.584021 4.269301 C 11.763252 4.568022 12.061973 4.956359 12.330821 5.045975 C 13.286725 5.404438 14.093268 6.270726 14.302373 7.196759 C 14.302373 7.346119 14.242629 7.555223 14.153013 7.674711 C 14.093268 7.794199 13.854293 7.973432 13.704933 8.033175 C 13.525702 8.092919 12.838645 8.092919 12.838645 8.092919 C 12.719156 8.092919 12.62954 8.063047 12.510053 8.033175 C 12.480181 8.033175 12.450308 8.003304 12.390565 8.003304 C 12.360692 8.003304 12.360692 8.003304 12.360692 8.003304 C 12.360692 8.003304 12.360692 8.033175 12.330821 8.033175 C 12.300948 8.063047 12.271076 8.152663 12.271076 8.182535 C 11.852868 8.989079 11.404788 9.765752 10.717731 10.393064 C 10.68786 10.422936 10.68786 10.422936 10.657988 10.452808 L 10.628116 10.482681 L 10.628116 10.512552 C 10.628116 10.572296 10.628116 10.63204 10.598244 10.691784 C 10.568372 10.811272 10.568372 10.900888 10.5385 11.020376 C 10.508628 11.139864 10.478756 11.229481 10.419012 11.348969 C 10.419012 11.408712 10.38914 11.468456 10.38914 11.528201 C 10.38914 11.558073 10.359268 11.558073 10.38914 11.587944 L 10.419012 11.617817 C 10.568372 11.677561 10.68786 11.767177 10.777476 11.826921 C 10.926836 11.946408 10.956708 12.036024 10.956708 12.245129 C 10.956708 12.275002 10.956708 12.275002 10.926836 12.275002 C 10.926836 12.275002 10.807347 12.245129 10.777476 12.245129 C 10.747604 12.245129 10.747604 12.364617 10.717731 12.394488 C 10.777476 12.364617 10.747604 12.364617 10.657988 12.364617 C 10.478756 12.394488 10.299523 12.334744 10.120292 12.334744 C 10.060548 12.334744 9.970931 12.334744 9.911188 12.304873 C 9.881315 12.304873 9.851443 12.275002 9.791699 12.304873 C 9.761827 12.334744 9.731956 12.364617 9.672212 12.424361 C 9.49298 12.603593 9.343619 12.723082 9.164388 12.902313 C 9.0449 12.962057 8.985155 13.051673 8.895539 13.081545 C 8.835795 13.111418 8.776051 13.141289 8.716308 13.201033 C 8.686436 13.201033 8.686436 13.230905 8.656563 13.230905 C 8.626691 13.230905 8.59682 13.230905 8.537075 13.230905 C 8.477331 13.230905 8.387715 13.230905 8.357843 13.230905 C 8.357843 13.201033 8.327971 13.171162 8.2981 13.171162 C 8.268228 13.171162 8.268228 13.171162 8.238355 13.171162 C 8.208483 13.171162 8.208483 13.141289 8.208483 13.111418 C 8.208483 13.081545 8.208483 13.051673 8.208483 12.991929 C 8.208483 12.842568 8.268228 12.812697 8.387715 12.693209 C 8.447459 12.633465 8.566947 12.543848 8.59682 12.484104 C 8.59682 12.454233 8.626691 12.424361 8.626691 12.364617 C 8.626691 12.334744 8.626691 12.245129 8.626691 12.245129 C 8.507203 12.215257 8.447459 12.185385 8.357843 12.125641 C 8.178611 12.095768 7.939635 12.065897 7.760403 12.006153 C 7.342195 11.976281 6.923987 11.976281 6.53565 11.826921 C 6.505779 11.826921 6.505779 11.826921 6.475906 11.797049 C 6.475906 11.767177 6.446034 11.767177 6.446034 11.737305 C 6.416162 11.707433 6.416162 11.677561 6.38629 11.617817 C 6.356419 11.558073 6.326547 11.438583 6.23693 11.408712 C 6.177186 11.229481 6.057699 11.109993 5.968082 10.930761 C 5.848594 10.751528 5.78885 10.63204 5.669362 10.482681 C 5.63949 10.452808 5.609618 10.363192 5.520002 10.333321 C 5.251154 9.974856 4.862818 9.795624 4.504354 9.586519 C 4.44461 9.556648 4.325121 9.526775 4.29525 9.467031 C 3.578321 9.168312 2.980881 8.302023 3.160113 7.555223 C 3.189985 7.495479 3.189985 7.435736 3.219857 7.375991 L 3.219857 7.346119 C 3.219857 7.346119 3.219857 7.346119 3.219857 7.316247 C 3.219857 7.316247 3.189985 7.316247 3.189985 7.286375 C 3.160113 7.256503 3.070497 7.226631 3.040625 7.166886 C 2.980881 7.166886 2.921137 7.107143 2.891265 6.987655 C 2.861393 6.838295 2.831521 6.778551 2.801649 6.748678 C 2.682161 6.330471 2.383441 6.001879 2.114593 5.673286 C 1.756129 5.344694 2.323697 5.075846 2.652289 5.016102 C 3.309473 4.98623 3.936786 5.494055 4.056273 6.151238 C 4.056273 6.210982 4.086146 6.300598 4.086146 6.330471 C 4.086146 6.360343 4.116017 6.390215 4.116017 6.449959 L 4.116017 6.479831 C 4.116017 6.509703 4.116017 6.509703 4.14589 6.479831 C 4.265378 6.449959 4.325121 6.420087 4.44461 6.360343 C 4.623842 6.300598 4.803074 6.18111 4.982306 6.151238 C 5.101794 6.121367 5.161538 6.091495 5.251154 6.031751 C 6.326547 5.673286 7.551299 5.972006 8.566947 6.479831 C 8.626691 6.509703 8.74618 6.599319 8.776051 6.62919 C 8.835795 6.659062 8.955283 6.688935 8.985155 6.748678 C 9.254004 6.868167 9.612468 6.927911 9.851443 6.688935 C 9.970931 6.539575 10.030676 6.420087 10.120292 6.240855 C 10.180036 6.061623 10.299523 5.942135 10.419012 5.822646 C 10.568372 5.703158 10.68786 5.643414 10.747604 5.553799 C 10.777476 5.494055 10.807347 5.404438 10.807347 5.374566 L 10.807347 5.43431 C 10.807347 5.43431 10.807347 5.43431 10.777476 5.43431 L 10.807347 5.43431 C 10.777476 5.404438 10.747604 5.404438 10.68786 5.404438 C 10.269651 5.225206 9.881315 5.105719 9.463108 4.956359 C 9.343619 4.926486 9.283875 4.896614 9.164388 4.83687 C 9.104643 4.806998 8.985155 4.777126 8.955283 4.717381 C 8.507203 4.53815 8.178611 4.269301 7.879891 3.970581 C 7.820147 3.910838 7.760403 3.821221 7.700659 3.761478 C 7.670787 3.701734 7.551299 3.49263 7.640915 3.462758 C 7.820147 3.403014 8.387715 3.462758 8.716308 3.64199 C 8.835795 3.671862 8.895539 3.701734 8.985155 3.761478 C 9.254004 3.880965 9.522851 3.94071 9.851443 3.94071 C 9.731956 3.671862 9.522851 3.49263 9.313747 3.343269 C 9.19426 3.223781 9.134516 3.164038 9.0449 3.044549 C 8.985155 2.895189 8.865667 2.686085 8.895539 2.596469 C 9.074771 2.566598 9.283875 2.447109 9.582596 2.596469 Z M 9.552724 9.825497 C 9.403363 9.855368 9.283875 9.88524 9.104643 9.88524 C 8.74618 9.915112 8.327971 9.915112 7.939635 9.88524 C 7.581171 9.88524 7.252579 9.855368 6.864243 9.88524 C 6.894114 10.064472 6.923987 10.303448 7.043475 10.482681 C 7.103219 10.661912 7.222707 10.811272 7.312323 10.960632 C 7.372067 11.020376 7.43181 11.139864 7.491555 11.169737 C 7.491555 11.199608 7.521427 11.199608 7.521427 11.229481 C 7.551299 11.229481 7.551299 11.229481 7.581171 11.259352 C 7.611042 11.259352 7.700659 11.289225 7.730531 11.289225 C 7.909763 11.319097 8.148739 11.408712 8.327971 11.438583 C 8.537075 11.468456 8.776051 11.498328 8.985155 11.498328 C 9.134516 11.498328 9.19426 11.498328 9.343619 11.498328 C 9.373491 11.498328 9.373491 11.498328 9.403363 11.498328 C 9.433235 11.498328 9.403363 11.498328 9.433235 11.468456 C 9.433235 11.438583 9.433235 11.438583 9.433235 11.408712 C 9.433235 11.378841 9.463108 11.289225 9.463108 11.229481 C 9.552724 10.781401 9.552724 10.303448 9.552724 9.825497"/>
</svg>
