<?xml version="1.0" encoding="UTF-8"?>
<!-- Generated by Pixelmator Pro 3.6.18 -->
<svg width="24" height="24" viewBox="0 0 24 24" xmlns="http://www.w3.org/2000/svg">
    <path id="background" fill="#3091dd" fill-rule="evenodd" stroke="none" d="M 24 12 C 24 5.372583 18.627417 0 12 0 C 5.372583 0 0 5.372583 0 12 C 0 18.627417 5.372583 24 12 24 C 18.627417 24 24 18.627417 24 12 Z"/>
    <path id="bunny" fill="#ffffff" stroke="none" d="M 14.280709 4.021135 C 14.725119 4.287781 15.925023 5.1766 16.636078 5.887655 C 16.724958 5.976538 16.902723 6.154299 16.947165 6.198742 C 16.991604 6.243181 17.213808 6.465387 17.258251 6.509827 C 17.524895 6.954235 17.969305 7.531969 18.369274 7.665291 C 19.791384 8.198582 20.991285 9.487368 21.302372 10.865037 C 21.302372 11.087241 21.213491 11.398328 21.080168 11.576092 C 20.991285 11.753855 20.635759 12.0205 20.413555 12.109383 C 20.14691 12.198264 19.124769 12.198264 19.124769 12.198264 C 18.947004 12.198264 18.813683 12.153823 18.635918 12.109383 C 18.591478 12.109383 18.547035 12.064941 18.458155 12.064941 C 18.413713 12.064941 18.413713 12.064941 18.413713 12.064941 C 18.413713 12.064941 18.413713 12.109383 18.369274 12.109383 C 18.324831 12.153823 18.280392 12.287146 18.280392 12.331587 C 17.658218 13.531491 16.991604 14.686955 15.969463 15.620214 C 15.925023 15.664656 15.925023 15.664656 15.880581 15.709096 L 15.836141 15.753538 L 15.836141 15.797978 C 15.836141 15.88686 15.836141 15.975742 15.7917 16.064623 C 15.747259 16.242388 15.747259 16.37571 15.702819 16.553474 C 15.658378 16.731236 15.613936 16.864561 15.525054 17.042324 C 15.525054 17.131207 15.480614 17.220087 15.480614 17.308969 C 15.480614 17.353409 15.436173 17.353409 15.480614 17.39785 L 15.525054 17.442291 C 15.747259 17.531174 15.925023 17.664497 16.058346 17.75338 C 16.28055 17.931141 16.324991 18.064465 16.324991 18.375551 C 16.324991 18.419992 16.324991 18.419992 16.28055 18.419992 C 16.28055 18.419992 16.102785 18.375551 16.058346 18.375551 C 16.013905 18.375551 16.013905 18.553314 15.969463 18.597755 C 16.058346 18.553314 16.013905 18.553314 15.880581 18.553314 C 15.613936 18.597755 15.347291 18.508873 15.080646 18.508873 C 14.991764 18.508873 14.85844 18.508873 14.769559 18.464432 C 14.725119 18.464432 14.680677 18.419992 14.591796 18.464432 C 14.547355 18.508873 14.502913 18.553314 14.414032 18.642197 C 14.147387 18.908842 13.925182 19.086605 13.658537 19.353251 C 13.480773 19.442133 13.391891 19.575455 13.258569 19.619896 C 13.169686 19.664337 13.080804 19.708778 12.991922 19.797661 C 12.947482 19.797661 12.947482 19.8421 12.903041 19.8421 C 12.8586 19.8421 12.814159 19.8421 12.725277 19.8421 C 12.636395 19.8421 12.503073 19.8421 12.458632 19.8421 C 12.458632 19.797661 12.41419 19.75322 12.36975 19.75322 C 12.325309 19.75322 12.325309 19.75322 12.280869 19.75322 C 12.236427 19.75322 12.236427 19.708778 12.236427 19.664337 C 12.236427 19.619896 12.236427 19.575455 12.236427 19.486572 C 12.236427 19.26437 12.325309 19.219929 12.503073 19.042164 C 12.591955 18.953281 12.769718 18.81996 12.814159 18.731077 C 12.814159 18.686638 12.8586 18.642197 12.8586 18.553314 C 12.8586 18.508873 12.8586 18.375551 12.8586 18.375551 C 12.680836 18.33111 12.591955 18.286669 12.458632 18.197788 C 12.191986 18.153347 11.836459 18.108906 11.569814 18.020023 C 10.94764 17.975584 10.325468 17.975584 9.747736 17.75338 C 9.703296 17.75338 9.703296 17.75338 9.658854 17.708937 C 9.658854 17.664497 9.614413 17.664497 9.614413 17.620054 C 9.569972 17.575615 9.569972 17.531174 9.525531 17.442291 C 9.481091 17.353409 9.43665 17.175646 9.303327 17.131207 C 9.214445 16.864561 9.036682 16.686796 8.903358 16.420151 C 8.725595 16.153505 8.636713 15.975742 8.458949 15.753538 C 8.414509 15.709096 8.370068 15.575773 8.236745 15.531333 C 7.836777 14.998042 7.259045 14.731397 6.725754 14.420309 C 6.636872 14.375869 6.459108 14.331429 6.414668 14.242546 C 5.348085 13.798137 4.459268 12.509351 4.725913 11.398328 C 4.770354 11.309445 4.770354 11.220564 4.814795 11.131682 L 4.814795 11.087241 C 4.814795 11.087241 4.814795 11.087241 4.814795 11.0428 C 4.814795 11.0428 4.770354 11.0428 4.770354 10.99836 C 4.725913 10.953918 4.59259 10.909477 4.548149 10.820596 C 4.459268 10.820596 4.370386 10.731714 4.325945 10.55395 C 4.281504 10.331746 4.237063 10.242864 4.192622 10.198422 C 4.014858 9.57625 3.570449 9.0874 3.170481 8.59855 C 2.63719 8.1097 3.481567 7.709732 3.970417 7.62085 C 4.948118 7.576408 5.881377 8.331905 6.05914 9.309605 C 6.05914 9.398487 6.103581 9.531809 6.103581 9.57625 C 6.103581 9.620691 6.148022 9.665133 6.148022 9.754014 L 6.148022 9.798455 C 6.148022 9.842896 6.148022 9.842896 6.192463 9.798455 C 6.370227 9.754014 6.459108 9.709573 6.636872 9.620691 C 6.903518 9.531809 7.170163 9.354046 7.436809 9.309605 C 7.614572 9.265163 7.703454 9.220723 7.836777 9.131841 C 9.43665 8.59855 11.258727 9.042959 12.769718 9.798455 C 12.8586 9.842896 13.036364 9.976218 13.080804 10.020659 C 13.169686 10.065101 13.34745 10.109542 13.391891 10.198422 C 13.791859 10.376186 14.32515 10.465069 14.680677 10.109542 C 14.85844 9.887337 14.947323 9.709573 15.080646 9.442928 C 15.169527 9.176282 15.347291 8.998519 15.525054 8.820754 C 15.747259 8.642991 15.925023 8.55411 16.013905 8.420786 C 16.058346 8.331905 16.102785 8.198582 16.102785 8.15414 L 16.102785 8.243023 C 16.102785 8.243023 16.102785 8.243023 16.058346 8.243023 L 16.102785 8.243023 C 16.058346 8.198582 16.013905 8.198582 15.925023 8.198582 C 15.30285 7.931936 14.725119 7.754173 14.102945 7.531969 C 13.925182 7.487528 13.8363 7.443087 13.658537 7.354204 C 13.569654 7.309765 13.391891 7.265322 13.34745 7.176441 C 12.680836 6.909796 12.191986 6.509827 11.747577 6.065418 C 11.658695 5.976538 11.569814 5.843212 11.480932 5.754332 C 11.436491 5.665451 11.258727 5.354364 11.39205 5.309923 C 11.658695 5.221041 12.503073 5.309923 12.991922 5.576569 C 13.169686 5.621008 13.258569 5.665451 13.391891 5.754332 C 13.791859 5.932095 14.191827 6.020977 14.680677 6.020977 C 14.502913 5.621008 14.191827 5.354364 13.880741 5.132158 C 13.702977 4.954395 13.614096 4.865515 13.480773 4.68775 C 13.391891 4.465546 13.214128 4.154459 13.258569 4.021135 C 13.525213 3.976696 13.8363 3.798931 14.280709 4.021135 Z M 14.236268 14.775837 C 14.014064 14.820277 13.8363 14.864718 13.569654 14.864718 C 13.036364 14.90916 12.41419 14.90916 11.836459 14.864718 C 11.303167 14.864718 10.814319 14.820277 10.236586 14.864718 C 10.281027 15.131364 10.325468 15.486891 10.503232 15.753538 C 10.592113 16.020184 10.769877 16.242388 10.903199 16.464592 C 10.992082 16.553474 11.080963 16.731236 11.169846 16.775679 C 11.169846 16.820118 11.214287 16.820118 11.214287 16.864561 C 11.258727 16.864561 11.258727 16.864561 11.303167 16.909 C 11.347609 16.909 11.480932 16.953442 11.525373 16.953442 C 11.792018 16.997883 12.147546 17.131207 12.41419 17.175646 C 12.725277 17.220087 13.080804 17.264528 13.391891 17.264528 C 13.614096 17.264528 13.702977 17.264528 13.925182 17.264528 C 13.969623 17.264528 13.969623 17.264528 14.014064 17.264528 C 14.058504 17.264528 14.014064 17.264528 14.058504 17.220087 C 14.058504 17.175646 14.058504 17.175646 14.058504 17.131207 C 14.058504 17.086765 14.102945 16.953442 14.102945 16.864561 C 14.236268 16.197947 14.236268 15.486891 14.236268 14.775837"/>
</svg>
