<?xml version="1.0" encoding="UTF-8"?>
<!-- Generated by Pixelmator Pro 3.6.18 -->
<svg width="48" height="48" viewBox="0 0 48 48" xmlns="http://www.w3.org/2000/svg">
    <path id="background" fill="#3091dd" fill-rule="evenodd" stroke="none" d="M 46 24 C 46 11.849735 36.150265 2 24 2 C 11.849735 2 2 11.849735 2 24 C 2 36.150265 11.849735 46 24 46 C 36.150265 46 46 36.150265 46 24 Z"/>
    <path id="bunny" fill="#ffffff" stroke="none" d="M 28.37505 8.295135 C 29.256525 8.82402 31.636513 10.586975 33.046871 11.997337 C 33.223167 12.173634 33.57576 12.526222 33.663906 12.614372 C 33.752052 12.702518 34.192791 13.143257 34.280941 13.231403 C 34.809826 14.112877 35.691299 15.258801 36.484631 15.523243 C 39.305355 16.581013 41.685337 19.137293 42.302372 21.869869 C 42.302372 22.310608 42.126076 22.927641 41.861633 23.280231 C 41.685337 23.632822 40.98016 24.161709 40.539421 24.338003 C 40.010536 24.514297 37.983143 24.514297 37.983143 24.514297 C 37.63055 24.514297 37.366108 24.426149 37.013515 24.338003 C 36.925369 24.338003 36.837219 24.249857 36.660927 24.249857 C 36.572777 24.249857 36.572777 24.249857 36.572777 24.249857 C 36.572777 24.249857 36.572777 24.338003 36.484631 24.338003 C 36.396481 24.426149 36.308334 24.690594 36.308334 24.778742 C 35.074268 27.158728 33.752052 29.450565 31.724659 31.301664 C 31.636513 31.389812 31.636513 31.389812 31.548363 31.477959 L 31.460217 31.566109 L 31.460217 31.654255 C 31.460217 31.830551 31.460217 32.006847 31.372068 32.18314 C 31.28392 32.535732 31.28392 32.800175 31.195774 33.152763 C 31.107626 33.505356 31.019478 33.769798 30.843182 34.122387 C 30.843182 34.298683 30.755035 34.474979 30.755035 34.651276 C 30.755035 34.739422 30.666887 34.739422 30.755035 34.827568 L 30.843182 34.915718 C 31.28392 35.092014 31.636513 35.356457 31.900955 35.532753 C 32.341694 35.885342 32.42984 36.14978 32.42984 36.766815 C 32.42984 36.854965 32.42984 36.854965 32.341694 36.854965 C 32.341694 36.854965 31.989101 36.766815 31.900955 36.766815 C 31.812809 36.766815 31.812809 37.119408 31.724659 37.207554 C 31.900955 37.119408 31.812809 37.119408 31.548363 37.119408 C 31.019478 37.207554 30.490593 37.031258 29.961706 37.031258 C 29.785412 37.031258 29.520967 37.031258 29.344673 36.943111 C 29.256525 36.943111 29.168379 36.854965 28.992085 36.943111 C 28.903936 37.031258 28.815788 37.119408 28.639492 37.295704 C 28.110607 37.824589 27.66987 38.177181 27.140984 38.706066 C 26.788393 38.882362 26.612097 39.146805 26.347654 39.234947 C 26.17136 39.323097 25.995064 39.411247 25.818769 39.58754 C 25.730621 39.58754 25.730621 39.675686 25.642473 39.675686 C 25.554325 39.675686 25.466179 39.675686 25.289883 39.675686 C 25.113586 39.675686 24.849146 39.675686 24.760998 39.675686 C 24.760998 39.58754 24.67285 39.499393 24.584703 39.499393 C 24.496555 39.499393 24.496555 39.499393 24.408407 39.499393 C 24.320259 39.499393 24.320259 39.411247 24.320259 39.323097 C 24.320259 39.234947 24.320259 39.146805 24.320259 38.970505 C 24.320259 38.52977 24.496555 38.441624 24.849146 38.089031 C 25.02544 37.912735 25.378031 37.648293 25.466179 37.471996 C 25.466179 37.38385 25.554325 37.295704 25.554325 37.119408 C 25.554325 37.031258 25.554325 36.766815 25.554325 36.766815 C 25.201735 36.678669 25.02544 36.590523 24.760998 36.41423 C 24.232111 36.32608 23.526932 36.23793 22.998045 36.061638 C 21.763979 35.973488 20.529913 35.973488 19.383993 35.532753 C 19.295845 35.532753 19.295845 35.532753 19.207699 35.444603 C 19.207699 35.356457 19.119551 35.356457 19.119551 35.268307 C 19.031403 35.180161 19.031403 35.092014 18.943254 34.915718 C 18.855108 34.739422 18.76696 34.386829 18.502516 34.298683 C 18.326221 33.769798 17.973631 33.417206 17.709188 32.888325 C 17.356598 32.359436 17.180304 32.006847 16.827711 31.566109 C 16.739565 31.477959 16.651417 31.213518 16.386974 31.125372 C 15.593645 30.067598 14.447726 29.538713 13.389955 28.921679 C 13.21366 28.83353 12.861069 28.745384 12.772922 28.569088 C 10.657378 27.687613 8.894426 25.131332 9.423312 22.927641 C 9.511459 22.751347 9.511459 22.575052 9.599607 22.398756 L 9.599607 22.310608 C 9.599607 22.310608 9.599607 22.310608 9.599607 22.22246 C 9.599607 22.22246 9.511459 22.22246 9.511459 22.134314 C 9.423312 22.046165 9.158869 21.958017 9.070722 21.781721 C 8.894426 21.781721 8.718131 21.605427 8.629984 21.252838 C 8.541836 20.812099 8.453689 20.635803 8.365541 20.547655 C 8.01295 19.313589 7.131474 18.343966 6.338146 17.37434 C 5.280374 16.404718 6.955179 15.611389 7.924803 15.435093 C 9.86405 15.346947 11.715151 16.845457 12.06774 18.784702 C 12.06774 18.960999 12.155889 19.225441 12.155889 19.313589 C 12.155889 19.401737 12.244036 19.489885 12.244036 19.66618 L 12.244036 19.754328 C 12.244036 19.842476 12.244036 19.842476 12.332184 19.754328 C 12.684773 19.66618 12.861069 19.578032 13.21366 19.401737 C 13.742545 19.225441 14.271431 18.87285 14.800317 18.784702 C 15.152907 18.696556 15.329203 18.608408 15.593645 18.432114 C 18.76696 17.37434 22.381012 18.255817 25.378031 19.754328 C 25.554325 19.842476 25.906918 20.106916 25.995064 20.195065 C 26.17136 20.283213 26.523949 20.371361 26.612097 20.547655 C 27.405426 20.900246 28.463198 21.076542 29.168379 20.371361 C 29.520967 19.930624 29.697264 19.578032 29.961706 19.049147 C 30.138002 18.520262 30.490593 18.167671 30.843182 17.815079 C 31.28392 17.462488 31.636513 17.286194 31.812809 17.021751 C 31.900955 16.845457 31.989101 16.581013 31.989101 16.492865 L 31.989101 16.669161 C 31.989101 16.669161 31.989101 16.669161 31.900955 16.669161 L 31.989101 16.669161 C 31.900955 16.581013 31.812809 16.581013 31.636513 16.581013 C 30.402445 16.052126 29.256525 15.699539 28.022459 15.258801 C 27.66987 15.17065 27.493574 15.082504 27.140984 14.906208 C 26.964687 14.818062 26.612097 14.729912 26.523949 14.553616 C 25.201735 14.024731 24.232111 13.231403 23.350636 12.349926 C 23.174341 12.173634 22.998045 11.909187 22.821751 11.732895 C 22.733603 11.556599 22.381012 10.939564 22.645454 10.851418 C 23.174341 10.675125 24.849146 10.851418 25.818769 11.380302 C 26.17136 11.468449 26.347654 11.556599 26.612097 11.732895 C 27.405426 12.085484 28.198753 12.26178 29.168379 12.26178 C 28.815788 11.468449 28.198753 10.939564 27.581722 10.498829 C 27.229132 10.146236 27.052835 9.969944 26.788393 9.617352 C 26.612097 9.176613 26.259508 8.559578 26.347654 8.295135 C 26.876539 8.206989 27.493574 7.854401 28.37505 8.295135 Z M 28.286901 29.626862 C 27.846165 29.715008 27.493574 29.803156 26.964687 29.803156 C 25.906918 29.891304 24.67285 29.891304 23.526932 29.803156 C 22.469158 29.803156 21.499537 29.715008 20.353617 29.803156 C 20.441765 30.332041 20.529913 31.037222 20.882502 31.566109 C 21.058798 32.094994 21.411388 32.535732 21.675831 32.976471 C 21.852127 33.152763 22.028421 33.505356 22.204716 33.593506 C 22.204716 33.681648 22.292864 33.681648 22.292864 33.769798 C 22.381012 33.769798 22.381012 33.769798 22.469158 33.857948 C 22.557306 33.857948 22.821751 33.946091 22.909897 33.946091 C 23.438784 34.034241 24.143965 34.298683 24.67285 34.386829 C 25.289883 34.474979 25.995064 34.563126 26.612097 34.563126 C 27.052835 34.563126 27.229132 34.563126 27.66987 34.563126 C 27.758017 34.563126 27.758017 34.563126 27.846165 34.563126 C 27.934311 34.563126 27.846165 34.563126 27.934311 34.474979 C 27.934311 34.386829 27.934311 34.386829 27.934311 34.298683 C 27.934311 34.210537 28.022459 33.946091 28.022459 33.769798 C 28.286901 32.447586 28.286901 31.037222 28.286901 29.626862"/>
</svg>
