<?xml version="1.0" encoding="UTF-8"?>
<svg xmlns="http://www.w3.org/2000/svg" xmlns:xlink="http://www.w3.org/1999/xlink" width="32px" height="32px" viewBox="0 0 32 32" x="0px" y="0px" version="1.1">
  <defs>
    <path id="banknote-outer" d="M29,8H3C2.5,8,2,8.5,2,9v14c0,0.5,0.5,1,1,1h26c0.5,0,1-0.5,1-1V9C30,8.5,29.5,8,29,8zM28,22H4V10h24V22z"/>
    <rect id="banknote-inner" x="5" y="11" width="22" height="10" style="mask:url(&quot;#eurosignmask&quot;);"/>
    <path id="eurosign" d="M19.4,20c-0.4,0.2-1.2,0.5-2,0.5c-1.3,0-2.4-0.5-3.2-1.5c-0.4-0.4-0.6-1-0.7-1.7h-0.8v-0.9h0.7c0-0.1,0-0.1,0-0.2c0-0.1,0-0.3,0-0.4h-0.7v-0.9h0.9c0.2-0.7,0.5-1.3,0.9-1.8c0.7-0.8,1.8-1.3,3-1.3c0.8,0,1.5,0.2,1.9,0.4l-0.4,1.5c-0.3-0.1-0.9-0.3-1.4-0.3c-0.6,0-1.2,0.2-1.6,0.7c-0.2,0.2-0.3,0.5-0.4,0.8h3.2v0.9h-3.4c0,0.1,0,0.3,0,0.4c0,0.1,0,0.1,0,0.2h3.4v0.9h-3.3c0.1,0.4,0.2,0.7,0.4,0.9c0.4,0.5,1,0.7,1.7,0.7c0.6,0,1.2-0.2,1.5-0.3L19.4,20z"/>
    <rect id="maskcanvas" width="32px" height="32px" fill="#ffffff"/>
    <mask id="eurosignmask">
      <use xlink:href="#maskcanvas"/>
      <use xlink:href="#eurosign" fill="#000000"/>
    </mask>
    <mask id="banknotemask">
      <use xlink:href="#maskcanvas"/>
      <path stroke="#000000" stroke-width="2" d="M29,8H3C2.5,8,2,8.5,2,9v14c0,0.5,0.5,1,1,1h26c0.5,0,1-0.5,1-1V9C30,8.5,29.5,8,29,8z" transform="rotate(-30) translate(0 0)" style="transform-origin:16px 16px;"/>
    </mask>
  </defs>
  <g>
    <use xlink:href="#banknote-outer" fill="#4a4a4a" stroke="#4a4a4a" stroke-width="0" style="mask:url(&quot;#banknotemask&quot;);mask:url(&quot;#banknotemask&quot;);"/>
    <use xlink:href="#banknote-inner" fill="#4a4a4a" stroke="#4a4a4a" stroke-width="0" style="mask:url(&quot;#banknotemask&quot;);mask:url(&quot;#banknotemask&quot;);"/>
    <use xlink:href="#banknote-outer" fill="#4a4a4a" stroke="#4a4a4a" stroke-width="0" transform="rotate(-30) translate(0 0)" style="transform-origin:16px 16px;transform-origin:16px 16px;"/>
    <use xlink:href="#banknote-inner" fill="#4a4a4a" stroke="#4a4a4a" stroke-width="0" transform="rotate(-30) translate(0 0)" style="transform-origin:16px 16px;transform-origin:16px 16px;"/>
  </g>
</svg>
