<?xml version="1.0" encoding="UTF-8"?>
<svg xmlns="http://www.w3.org/2000/svg" xmlns:xlink="http://www.w3.org/1999/xlink" width="32px" height="32px" viewBox="0 0 32 32" x="0px" y="0px" version="1.1">
  <defs/>
  <g>
    <path d="M19,17c0-0.1,0,1-1,1h-4c0,0-1,0-1-1v-1H2v11c0,0,0,1,1,1h26c0,0,1,0,1-1V16.2L19,16V17z" fill="#ffffff" stroke="#ffffff" stroke-width="0"/>
    <path d="M29,9h-7c0,0,0-0.9,0-1.1C22,6,20,4,17,4h-2c-3,0-5,2-5,3.9C10,8.1,10,9,10,9H3c-1,0-1,1-1,1v5h11v-1.1c0-1,1-1,1-1h4c1,0,1,1.1,1,1.1v1h11v-5C30,10,30,9,29,9zM12,9c0,0,0-0.9,0-1.1C12,7,13,6,15,6h2c2,0,3,1,3,1.9C20,8.1,20,9,20,9H12z" fill="#ffffff" stroke="#ffffff" stroke-width="0"/>
    <path d="M17.9,17c0.1,0,0.1-0.1,0.1-0.1v-0.7v-0.6v-0.6v-0.9c0-0.1-0.1-0.1-0.1-0.1l-3.7,0c-0.1,0-0.1,0.1-0.1,0.1v0.9v0.6v0.6v0.7c0,0.1,0.1,0.1,0.1,0.1L17.9,17z" fill="#ffffff" stroke="#ffffff" stroke-width="0"/>
  </g>
</svg>
