<?xml version="1.0" encoding="UTF-8"?>
<svg xmlns="http://www.w3.org/2000/svg" xmlns:xlink="http://www.w3.org/1999/xlink" width="32px" height="32px" viewBox="0 0 32 32" x="0px" y="0px" version="1.1">
  <defs>
    <path id="eurosign" d="M19.4,20c-0.4,0.2-1.2,0.5-2,0.5c-1.3,0-2.4-0.5-3.2-1.5c-0.4-0.4-0.6-1-0.7-1.7h-0.8v-0.9h0.7c0-0.1,0-0.1,0-0.2c0-0.1,0-0.3,0-0.4h-0.7v-0.9h0.9c0.2-0.7,0.5-1.3,0.9-1.8c0.7-0.8,1.8-1.3,3-1.3c0.8,0,1.5,0.2,1.9,0.4l-0.4,1.5c-0.3-0.1-0.9-0.3-1.4-0.3c-0.6,0-1.2,0.2-1.6,0.7c-0.2,0.2-0.3,0.5-0.4,0.8h3.2v0.9h-3.4c0,0.1,0,0.3,0,0.4c0,0.1,0,0.1,0,0.2h3.4v0.9h-3.3c0.1,0.4,0.2,0.7,0.4,0.9c0.4,0.5,1,0.7,1.7,0.7c0.6,0,1.2-0.2,1.5-0.3L19.4,20z"/>
    <g id="coin">
      <ellipse cx="15.5" cy="16.5" rx="7.5" ry="3.5"/>
    </g>
    <path id="stackedcoin" d="M8.1,18.8C8.1,19,8,19.3,8,19.5c0,1.9,3.4,3.5,7.5,3.5s7.5-1.6,7.5-3.5c0-0.2-0.1-0.5-0.1-0.7c-1.4,1.3-4.1,2.2-7.4,2.2S9.6,20.1,8.1,18.8z"/>
    <rect id="maskcanvas" width="32px" height="32px" fill="#ffffff"/>
    <mask id="smalleurosignmask">
      <use xlink:href="#maskcanvas"/>
      <use xlink:href="#eurosign" fill="#000000" transform="scale(0.7) translate(5 7.5)"/>
    </mask>
  </defs>
  <g>
    <use xlink:href="#stackedcoin" fill="#4a4a4a" stroke="#4a4a4a" stroke-width="0" transform="scale(2) translate(-8 -7)"/>
    <use xlink:href="#stackedcoin" fill="#4a4a4a" stroke="#4a4a4a" stroke-width="0" transform="scale(2) translate(-8 -10)"/>
    <use xlink:href="#stackedcoin" fill="#4a4a4a" stroke="#4a4a4a" stroke-width="0" transform="scale(2) translate(-8 -13)"/>
    <use xlink:href="#coin" fill="#4a4a4a" stroke="#4a4a4a" stroke-width="0" transform="scale(2) translate(-8 -13)" style="mask:url(&quot;#smalleurosignmask&quot;);"/>
  </g>
</svg>
