<?xml version="1.0" encoding="utf-8"?>
<!-- Generator: Adobe Illustrator 21.0.0, SVG Export Plug-In . SVG Version: 6.00 Build 0)  -->
<svg version="1.1" id="Layer_1" xmlns="http://www.w3.org/2000/svg" xmlns:xlink="http://www.w3.org/1999/xlink" x="0px" y="0px"
	 viewBox="0 0 32 32" style="enable-background:new 0 0 32 32;" xml:space="preserve">
<style type="text/css">
	.st0{fill:#CD0067;}
	.st1{fill:#FFFFFF;}
</style>
<rect x="6" y="16" width="4" height="8"/>
<circle cx="8" cy="12" r="2"/>
<g>
	<g>
		<path d="M18,2H2v26h16l0,0c3.6,0,6-1.1,8-2.8c2.5-2.1,3.7-6.4,3.7-10.8c0-2.1-0.3-3-1-4.6c-0.6-1.6-1.5-3.9-2.7-4.9
			C23.9,3,21.5,2.1,18,2C18,2,18,2,18,2z M17,4c3.2,0,6,0.5,7.9,2.1C27,7.9,28,11.3,28,15c0,7.3-3.7,11-11,11c-0.6,0-11.5,0-13,0
			C4,24.5,4,5.5,4,4C5.5,4,16.4,4,17,4z"/>
	</g>
</g>
<g>
	<g>
		<path class="st0" d="M16.3,24H12V6h5.2H17c4.3,0,7.7,2.5,7.7,9.2C24.7,22.3,20.6,24,16.3,24L16.3,24z"/>
	</g>
</g>
<g>
	<g>
		<path class="st1" d="M10.9,11.3h1.6c0.4,0,0.6,0,0.8,0.1c0.3,0.1,0.5,0.2,0.7,0.4c0.2,0.2,0.3,0.4,0.4,0.7c0.1,0.3,0.1,0.6,0.1,1
			c0,0.4,0,0.7-0.1,0.9c-0.1,0.3-0.3,0.6-0.5,0.8c-0.2,0.1-0.4,0.3-0.6,0.3c-0.2,0.1-0.5,0.1-0.8,0.1h-1.6V11.3z M11.8,12v2.9h0.7
			c0.2,0,0.4,0,0.5,0c0.1,0,0.3-0.1,0.4-0.2c0.1-0.1,0.2-0.2,0.2-0.4c0.1-0.2,0.1-0.5,0.1-0.8c0-0.3,0-0.6-0.1-0.8
			c-0.1-0.2-0.1-0.3-0.2-0.4s-0.2-0.2-0.4-0.2c-0.1,0-0.4,0-0.7,0H11.8z"/>
		<path class="st1" d="M10.8,11.1v4.6h1.8c0.3,0,0.6,0,0.8-0.1c0.3-0.1,0.5-0.2,0.7-0.4c0.2-0.2,0.4-0.5,0.5-0.8
			c0.1-0.3,0.1-0.6,0.1-1c0-0.4,0-0.8-0.1-1.1c-0.1-0.3-0.2-0.5-0.4-0.7c-0.2-0.2-0.4-0.4-0.7-0.4c-0.2-0.1-0.5-0.1-0.9-0.1H10.8z
			 M12.5,11.4c0.3,0,0.6,0,0.8,0.1c0.2,0.1,0.4,0.2,0.6,0.4c0.2,0.2,0.3,0.4,0.4,0.7c0.1,0.3,0.1,0.6,0.1,1c0,0.3,0,0.6-0.1,0.9
			c-0.1,0.3-0.2,0.5-0.4,0.7c-0.1,0.1-0.3,0.2-0.6,0.3c-0.2,0.1-0.4,0.1-0.7,0.1c0,0-1.3,0-1.5,0c0-0.2,0-3.9,0-4.1
			C11.2,11.4,12.5,11.4,12.5,11.4z"/>
		<path class="st1" d="M11.7,11.9V15h0.8c0.3,0,0.4,0,0.6,0c0.2,0,0.3-0.1,0.4-0.2c0.1-0.1,0.2-0.3,0.3-0.5c0.1-0.2,0.1-0.5,0.1-0.8
			c0-0.4,0-0.6-0.1-0.8c-0.1-0.2-0.2-0.4-0.3-0.5c-0.1-0.1-0.3-0.2-0.5-0.2c-0.1,0-0.4,0-0.7,0H11.7z M12.2,12.1c0.4,0,0.6,0,0.7,0
			c0.1,0,0.3,0.1,0.4,0.2c0.1,0.1,0.2,0.2,0.2,0.4c0.1,0.2,0.1,0.4,0.1,0.7c0,0.3,0,0.6-0.1,0.8c-0.1,0.2-0.1,0.3-0.2,0.4
			c-0.1,0.1-0.2,0.1-0.3,0.2c-0.1,0-0.3,0-0.5,0c0,0-0.4,0-0.5,0c0-0.2,0-2.4,0-2.6C12,12.1,12.2,12.1,12.2,12.1z"/>
	</g>
	<g>
		<path class="st1" d="M15.5,15.6v-4.3h2.2V12h-1.3v1h1.2v0.7h-1.2v1.2h1.4v0.7H15.5z"/>
		<path class="st1" d="M15.4,11.1v4.6h2.5v-1c0,0-1.2,0-1.4,0c0-0.2,0-0.8,0-0.9c0.2,0,1.2,0,1.2,0v-1c0,0-1,0-1.2,0
			c0-0.2,0-0.6,0-0.7c0.2,0,1.3,0,1.3,0v-1H15.4z M17.6,11.4c0,0.1,0,0.4,0,0.5c-0.2,0-1.3,0-1.3,0v1.2c0,0,1,0,1.2,0
			c0,0.1,0,0.4,0,0.5c-0.2,0-1.2,0-1.2,0V15c0,0,1.2,0,1.4,0c0,0.1,0,0.4,0,0.5c-0.2,0-1.8,0-2.1,0c0-0.2,0-3.9,0-4.1
			C15.9,11.4,17.4,11.4,17.6,11.4z"/>
	</g>
	<g>
		<path class="st1" d="M22.7,15.6h-1l-0.4-1h-1.7l-0.4,1h-0.9l1.7-4.3H21L22.7,15.6z M21.1,13.9l-0.6-1.6l-0.6,1.6H21.1z"/>
		<path class="st1" d="M20,11.1l-1.8,4.6h1.2c0,0,0.3-0.9,0.4-1c0.1,0,1.4,0,1.6,0c0,0.1,0.4,1,0.4,1h1.2l-1.8-4.6H20z M20.9,11.4
			c0.1,0.1,1.5,3.8,1.6,4.1c-0.2,0-0.6,0-0.7,0c0-0.1-0.4-1-0.4-1h-1.9c0,0-0.3,0.9-0.4,1c-0.1,0-0.5,0-0.7,0c0.1-0.3,1.5-4,1.6-4.1
			C20.3,11.4,20.8,11.4,20.9,11.4z"/>
		<path class="st1" d="M19.8,14h1.5l-0.8-2.1L19.8,14z M20.5,12.6c0.1,0.3,0.3,0.9,0.4,1.1c-0.2,0-0.6,0-0.8,0
			C20.2,13.5,20.4,13,20.5,12.6z"/>
	</g>
	<g>
		<path class="st1" d="M23.5,15.6v-4.3h0.9v3.6h2.2v0.7H23.5z"/>
		<path class="st1" d="M23.3,11.2v4.5h3.3v-1c0,0-2,0-2.2,0c0-0.2,0-3.6,0-3.6H23.3z M24.2,11.4c0,0.2,0,3.6,0,3.6s2,0,2.2,0
			c0,0.1,0,0.4,0,0.5c-0.2,0-2.6,0-2.8,0c0-0.2,0-3.8,0-4.1C23.7,11.4,24.1,11.4,24.2,11.4z"/>
	</g>
</g>
</svg>
