<?xml version="1.0" encoding="utf-8"?>
<!-- Generator: Adobe Illustrator 21.0.0, SVG Export Plug-In . SVG Version: 6.00 Build 0)  -->
<svg version="1.1" id="Layer_1" xmlns="http://www.w3.org/2000/svg" xmlns:xlink="http://www.w3.org/1999/xlink" x="0px" y="0px"
	 viewBox="0 0 32 32" style="enable-background:new 0 0 32 32;" xml:space="preserve">
<style type="text/css">
	.st0{fill:#F3F3F3;}
	.st1{fill:#4576EF;}
	.st2{fill:#4A4A4A;}
</style>
<g>
	<circle class="st0" cx="12.8" cy="11.9" r="9.9"/>
	<g id="Layer_2">
		<g>
			<path id="earth-fill" class="st1" d="M12.8,21.5c-2.6,0-5-1.1-6.7-2.9c0.1-0.2,0.5-1.5,0.8-2.1
				c0.3-0.6,0.4-0.7,1.1-1.4c0.8-0.6-1.4-0.9-1.9-1.5c-0.4-0.6-0.8-0.6-1.3-1.1c-0.4-0.4-0.7,1.1-0.8,1.9c-0.2-0.6-0.4-1.4-0.4-2.1
				c0-1.9,0.6-3.7,1.6-5.2C5,8.1,4.8,9.4,5.9,9c1.2-0.4,1.3-0.9,1.3-0.9L8,6.8c0,0,0.1,1.7,0.2,2c0.2,0.2,0.8,1,1-0.1
				c0.4-1.8,0.4-2.4,1.1-2.4s2.1-0.6,2.2,1.1c0.2,1.6-0.2,0.7-1.1,1.1c-0.9,0.4-1.1,1.9-0.3,2.1c0.8,0.2,2.7,0.9,2.7,0.9l0.9,1.1
				l0.3,1.1c0,0,0.2,1.2,0.2,1.4s0,1.2,0,1.2s0.1,2.3,0.9,1.8c0.8-0.5,3.1-4.1,2.6-5.4c-0.5-1.4-0.5-1.5,0.4-1.9
				c0.9-0.5,1.5-1.1,1.4-1.8c0-0.5,0-0.7,0-1c0.7,1.3,1.1,2.8,1.1,4.2C21.8,17.4,17.8,21.5,12.8,21.5z"/>
		</g>
		<path class="st2" d="M12.8,1.4C7,1.4,2.3,6.1,2.3,11.9S7,22.4,12.8,22.4s10.5-4.7,10.5-10.5S18.6,1.4,12.8,1.4z M12.8,20.6
			c-4.8,0-8.8-3.9-8.8-8.8s4-8.8,8.8-8.8s8.7,3.9,8.7,8.8S17.6,20.6,12.8,20.6z"/>
	</g>
</g>
<path class="st2" d="M30.2,28.8l-1.3,1.3c-0.4,0.4-1.1,0.4-1.5,0l-8.5-8.5c-0.4-0.4-0.4-1.1,0-1.5l1.3-1.3c0.4-0.4,1.1-0.4,1.5,0
	l8.5,8.5C30.6,27.7,30.6,28.4,30.2,28.8z"/>
</svg>
