<?xml version="1.0" encoding="UTF-8"?>
<svg xmlns="http://www.w3.org/2000/svg" xmlns:xlink="http://www.w3.org/1999/xlink" width="32px" height="32px" viewBox="0 0 32 32" x="0px" y="0px" version="1.1">
  <defs>
    <rect id="maskcanvas" width="32px" height="32px" fill="#ffffff"/>
    <mask id="keymask">
      <use xlink:href="#maskcanvas"/>
      <use xlink:href="#key_" fill="#000000" stroke="#000000" stroke-width="3"/>
    </mask>
    <path id="key_" d="M25.9,6.7c-2.3-2.3-6-2.3-8.3,0c-1.7,1.7-2.1,4.1-1.4,6.2L4.3,24.8l0.9,2l3.4-0.1l0.8-2.9l3.3-0.6l0.6-4.2l3.3,0.1l2.8-2.8c2.2,1,4.8,0.6,6.6-1.2C28.2,12.7,28.2,9,25.9,6.7zM22.8,12.9c-1.1,0-1.9-0.9-1.9-1.9S21.8,9,22.8,9s1.9,0.9,1.9,1.9S23.9,12.9,22.8,12.9z"/>
  </defs>
  <g>
    <use xlink:href="#key_" fill="#4a4a4a" stroke="#4a4a4a" stroke-width="0" />
    <use xlink:href="#key_" fill="#4a4a4a" stroke="#4a4a4a" stroke-width="0" />
    <path d="M11.1,7c0-2,1.3-3.1,2.8-3.1S16.7,5,16.7,7h2c0-3-2.2-5.1-4.8-5.1C11.3,1.9,9.2,4,9.1,7H11.1z" fill="#4a4a4a" stroke="#4a4a4a" stroke-width="0"/>
  </g>
</svg>
