<?xml version="1.0" encoding="UTF-8"?>
<svg xmlns="http://www.w3.org/2000/svg" xmlns:xlink="http://www.w3.org/1999/xlink" width="32px" height="32px" viewBox="0 0 32 32" x="0px" y="0px" version="1.1">
  <defs>
    <path id="key_" d="M25.9,6.7c-2.3-2.3-6-2.3-8.3,0c-1.7,1.7-2.1,4.1-1.4,6.2L4.3,24.8l0.9,2l3.4-0.1l0.8-2.9l3.3-0.6l0.6-4.2l3.3,0.1l2.8-2.8c2.2,1,4.8,0.6,6.6-1.2C28.2,12.7,28.2,9,25.9,6.7zM22.8,12.9c-1.1,0-1.9-0.9-1.9-1.9S21.8,9,22.8,9s1.9,0.9,1.9,1.9S23.9,12.9,22.8,12.9z"/>
  </defs>
  <g>
    <use xlink:href="#key_" fill="#ffffff" stroke="#ffffff" stroke-width="0" transform="translate(-1 -1)"/>
  </g>
</svg>
