<?xml version="1.0" encoding="UTF-8"?>
<svg xmlns="http://www.w3.org/2000/svg" xmlns:xlink="http://www.w3.org/1999/xlink" width="32px" height="32px" viewBox="0 0 32 32" x="0px" y="0px" version="1.1">
  <defs/>
  <g>
    <path d="M16,26.4c3.4-1.2,5.5-5.5,6.6-9.9H16V26.4z" fill="#4a4a4a" stroke="#4a4a4a" stroke-width="0"/>
    <path d="M8.3,9.5c0.1,2,0.5,4.5,1.1,7H16v-10C12.8,7,9.2,8.2,8.3,9.5z" fill="#4a4a4a" stroke="#4a4a4a" stroke-width="0"/>
    <path d="M26.5,8.8C25.1,5,17,3.8,16.1,3.6l-0.1,0l-0.1,0C15,3.8,6.9,5,5.5,8.8L5.5,8.9l0,0.2c0,0.7,0.7,17.6,10.3,20.1l0.2,0.1l0.2-0.1c9.6-2.6,10.3-19.4,10.3-20.1l0-0.2L26.5,8.8zM16,27.5C8.3,25.2,7.3,11,7.2,9.2c0.9-2,5.8-3.4,8.8-3.8c3,0.5,7.9,1.9,8.8,3.8C24.7,11,23.7,25.2,16,27.5z" fill="#4a4a4a" stroke="#4a4a4a" stroke-width="0"/>
  </g>
</svg>
