<?xml version="1.0" encoding="UTF-8"?>
<svg xmlns="http://www.w3.org/2000/svg" xmlns:xlink="http://www.w3.org/1999/xlink" width="32px" height="32px" viewBox="0 0 32 32" x="0px" y="0px" version="1.1">
  <defs>
    <path id="pluscharacter" d="M21.78,14.625h-4.346v-4.426c0-0.386-0.321-0.699-0.718-0.699h-1.434c-0.397,0-0.719,0.313-0.719,0.699v4.426h-4.346c-0.397,0-0.718,0.313-0.718,0.699v1.308c0,0.386,0.321,0.699,0.718,0.699h4.346v4.471c0,0.385,0.322,0.698,0.719,0.698h1.434c0.397,0,0.718-0.313,0.718-0.698v-4.471h4.346c0.397,0,0.72-0.312,0.72-0.699v-1.308C22.5,14.938,22.178,14.625,21.78,14.625z"/>
  </defs>
  <g>
    <circle cx="16" cy="16" r="12" fill="none" stroke="#ffffff" stroke-width="2.2"/>
    <use xlink:href="#pluscharacter" fill="#ffffff" stroke="#ffffff" stroke-width="0"/>
  </g>
</svg>
