<?xml version="1.0" encoding="utf-8"?>
<!-- Generator: Adobe Illustrator 21.0.0, SVG Export Plug-In . SVG Version: 6.00 Build 0)  -->
<svg version="1.1" id="Layer_1" xmlns="http://www.w3.org/2000/svg" xmlns:xlink="http://www.w3.org/1999/xlink" x="0px" y="0px"
	 viewBox="0 0 32 32" style="enable-background:new 0 0 32 32;" xml:space="preserve">
<style type="text/css">
	.st0{fill:#4A4A4A;}
</style>
<path class="st0" d="M20.9,14H18v-2.9c0-0.6-0.5-1.1-1.1-1.1h-1.9c-0.6,0-1.1,0.5-1.1,1.1V14h-2.9c-0.6,0-1.1,0.5-1.1,1.1v1.9
	c0,0.6,0.5,1.1,1.1,1.1H14v2.9c0,0.6,0.5,1.1,1.1,1.1h1.9c0.6,0,1.1-0.5,1.1-1.1V18h2.9c0.6,0,1.1-0.5,1.1-1.1v-1.9
	C22,14.5,21.5,14,20.9,14z"/>
<g>
	<g>
		<path class="st0" d="M16,1.5C8,1.5,1.5,8,1.5,16S8,30.5,16,30.5S30.5,24,30.5,16S24,1.5,16,1.5z M16,28.2
			C9.2,28.2,3.8,22.8,3.8,16S9.2,3.8,16,3.8S28.2,9.2,28.2,16S22.8,28.2,16,28.2z"/>
	</g>
</g>
<ellipse class="st0" cx="18.5" cy="18" rx="0.5" ry="0"/>
</svg>
