<?xml version="1.0" encoding="utf-8"?>
<!-- Generator: Adobe Illustrator 21.0.0, SVG Export Plug-In . SVG Version: 6.00 Build 0)  -->
<svg version="1.1" id="Layer_1" xmlns="http://www.w3.org/2000/svg" xmlns:xlink="http://www.w3.org/1999/xlink" x="0px" y="0px"
	 viewBox="0 0 32 32" style="enable-background:new 0 0 32 32;" xml:space="preserve">
<style type="text/css">
	.st0{fill:none;stroke:#4A4A4A;stroke-width:2.2;}
	.st1{fill:#FF0000;}
</style>
<g>
	<circle class="st0" cx="16" cy="16" r="12"/>
	<g>
		<path id="pluscharacter" class="st1" d="M21.8,14.6h-4.3v-4.4c0-0.4-0.3-0.7-0.7-0.7h-1.4c-0.4,0-0.7,0.3-0.7,0.7v4.4h-4.3
			c-0.4,0-0.7,0.3-0.7,0.7v1.3c0,0.4,0.3,0.7,0.7,0.7h4.3v4.5c0,0.4,0.3,0.7,0.7,0.7h1.4c0.4,0,0.7-0.3,0.7-0.7v-4.5h4.3
			c0.4,0,0.7-0.3,0.7-0.7v-1.3C22.5,14.9,22.2,14.6,21.8,14.6z"/>
	</g>
</g>
</svg>
