<?xml version="1.0" encoding="utf-8"?>
<!-- Generator: Adobe Illustrator 21.0.0, SVG Export Plug-In . SVG Version: 6.00 Build 0)  -->
<svg version="1.1" id="Layer_1" xmlns="http://www.w3.org/2000/svg" xmlns:xlink="http://www.w3.org/1999/xlink" x="0px" y="0px"
	 viewBox="0 0 48 48" style="enable-background:new 0 0 48 48;" xml:space="preserve">
<style type="text/css">
	.st0{fill:none;stroke:#4A4A4A;stroke-width:3;}
	.st1{fill:#4A4A4A;}
</style>
<circle class="st0" cx="24" cy="24" r="20"/>
<g>
	<path id="pluscharacter" class="st1" d="M33,22h-7v-7c0-0.6-0.4-1-1-1h-2c-0.6,0-1,0.4-1,1v7h-7c-0.6,0-1,0.4-1,1v2
		c0,0.6,0.4,1,1,1h7v7c0,0.6,0.4,1,1,1h2c0.6,0,1-0.4,1-1v-7h7c0.6,0,1-0.4,1-1v-2C34,22.4,33.6,22,33,22z"/>
</g>
</svg>
