<?xml version="1.0" encoding="UTF-8"?>
<svg xmlns="http://www.w3.org/2000/svg" xmlns:xlink="http://www.w3.org/1999/xlink" width="32px" height="32px" viewBox="0 0 32 32" x="0px" y="0px" version="1.1">
  <defs>
    <rect id="maskcanvas" width="32px" height="32px" fill="#ffffff"/>
    <mask id="circlemask">
      <use xlink:href="#maskcanvas"/>
      <circle cx="16" cy="16" r="12" stroke="#000000" stroke-width="3" transform="scale(0.6) translate(24 24)"/>
    </mask>
    <mask id="plusmask">
      <use xlink:href="#maskcanvas"/>
      <path d="M21.78,14.625h-4.346v-4.426c0-0.386-0.321-0.699-0.718-0.699h-1.434c-0.397,0-0.719,0.313-0.719,0.699v4.426h-4.346c-0.397,0-0.718,0.313-0.718,0.699v1.308c0,0.386,0.321,0.699,0.718,0.699h4.346v4.471c0,0.385,0.322,0.698,0.719,0.698h1.434c0.397,0,0.718-0.313,0.718-0.698v-4.471h4.346c0.397,0,0.72-0.312,0.72-0.699v-1.308C22.5,14.938,22.178,14.625,21.78,14.625z" fill="#000000"/>
    </mask>
    <path id="funnel" d="M29.9,4c-4.7,0-9.3,0-14,0c-0.9,0-1.7,0-2.6,0C9.5,4,5.8,4,2,4C1.7,4,1.4,4.1,1.3,4.5C1.1,4.8,1.2,5.1,1.4,5.4C1.6,5.7,2,6,2.3,6.3c3.3,3.3,6.1,6.8,9.5,10.1c0.2,0.2,0.2,0.3,0.2,0.6c0,0,0,11.2,0,11.2c0,0.7,0.5,1,1.2,0.7c1.8-0.7,4.6-2,6.3-2.9c0.4-0.2,0.5-0.5,0.5-0.9c0-2.8,0-5.3,0-8.1c0-0.2,0.1-0.4,0.2-0.5L30.4,5.4c0.1-0.1,0.2-0.4,0.2-0.5C30.7,4.4,30.4,4,29.9,4zM18.3,15.2c-0.2,0.2-0.3,0.5-0.3,0.8c0,0,0,8.5,0,8.5c0,0.2-0.1,0.2-0.3,0.4L14,26.7V16c0-0.3-0.2-0.6-0.4-0.8L5,6h22L18.3,15.2z"/>
  </defs>
  <g>
    <use xlink:href="#funnel" fill="#ffffff" stroke="#ffffff" stroke-width="0" style="mask:url(&quot;#circlemask&quot;);"/>
    <circle cx="16" cy="16" r="12" fill="#ffffff" stroke="#ffffff" stroke-width="0" style="mask:url(&quot;#plusmask&quot;);" transform="scale(0.6) translate(24 24)"/>
  </g>
</svg>
