<?xml version="1.0" encoding="utf-8"?>
<!-- Generator: Adobe Illustrator 19.2.1, SVG Export Plug-In . SVG Version: 6.00 Build 0)  -->
<svg version="1.1" id="Layer_1" xmlns="http://www.w3.org/2000/svg" xmlns:xlink="http://www.w3.org/1999/xlink" x="0px" y="0px"
	 viewBox="0 0 48 48" style="enable-background:new 0 0 48 48;" xml:space="preserve">
<style type="text/css">
	.st0{fill:#F3F3F3;stroke:#F3F3F3;stroke-width:2;stroke-miterlimit:10;}
	.st1{fill:none;stroke:#F3F3F3;stroke-width:3;stroke-miterlimit:10;}
	.st2{fill:#F3F3F3;}
	.st3{fill:none;stroke:#F3F3F3;stroke-width:2;stroke-miterlimit:10;}
</style>
<path class="st0" d="M6,7l2.1,0.5c1.1,0.3,2,1.2,2.2,2.4l0.5,2.6c0.1,0.4,0.4,0.7,0.7,0.9L16,17"/>
<path class="st1" d="M38.9,18c-4.9-4.9-12.4-5.8-18.3-2.7L17.4,12L11,18.4l3.3,3.3C11.2,27.5,12.1,35,17,39.9
	c6.1,6.1,15.9,6.1,21.9,0C45,33.9,45,24.1,38.9,18z M14.8,20.2l-0.7-0.7l4.2-4.2L19,16L14.8,20.2z"/>
<g>
	<path class="st2" d="M4.6,6.5L2.6,8.2l2.5,0.4l1,2.3L7.2,9C6.4,9.3,5.5,9.1,5,8.4c-0.6-0.8-0.3-2,0.6-2.6c0.9-0.6,2.1-0.5,2.7,0.3
		c0,0,0.1,0.1,0.1,0.1l0.5-2.2L6.5,5.2L4.3,4L4.6,6.5z"/>
</g>
<path class="st3" d="M38.4,29c0.8-4.3-2-8.5-6.4-9.3"/>
</svg>
