<?xml version="1.0" encoding="utf-8"?>
<!-- Generator: Adobe Illustrator 19.2.1, SVG Export Plug-In . SVG Version: 6.00 Build 0)  -->
<svg version="1.1" id="Layer_1" xmlns="http://www.w3.org/2000/svg" xmlns:xlink="http://www.w3.org/1999/xlink" x="0px" y="0px"
	 viewBox="0 0 96 96" style="enable-background:new 0 0 96 96;" xml:space="preserve">
<style type="text/css">
	.st0{fill:none;stroke:#F3F3F3;stroke-width:6;stroke-miterlimit:10;}
	.st1{fill:#F3F3F3;}
</style>
<ellipse class="st0" cx="47" cy="47.1" rx="25" ry="24.1"/>
<g>
	<g>
		<path class="st1" d="M72,47.4c0-13.3-11.2-24.1-25-24.1v48.2C60.8,71.5,72,60.7,72,47.4z"/>
	</g>
</g>
<rect x="44" y="3" class="st1" width="6" height="12"/>
<rect x="44" y="79" class="st1" width="6" height="12"/>
<rect x="83" y="40" transform="matrix(4.517168e-11 1 -1 4.517168e-11 132 -40)" class="st1" width="6" height="12"/>
<rect x="5" y="41" transform="matrix(4.486793e-11 1 -1 4.486793e-11 55 39)" class="st1" width="6" height="12"/>
<rect x="76.7" y="20.4" transform="matrix(0.5 0.866 -0.866 0.5 62.7128 -55.8179)" class="st1" width="6" height="12"/>
<rect x="62.6" y="8.3" transform="matrix(0.866 0.5 -0.5 0.866 15.9404 -30.8827)" class="st1" width="6" height="12"/>
<rect x="23.4" y="8.3" transform="matrix(0.866 -0.5 0.5 0.866 -3.6147 15.1173)" class="st1" width="6" height="12"/>
<rect x="10.7" y="21.4" transform="matrix(0.5 -0.866 0.866 0.5 -16.8827 25.5622)" class="st1" width="6" height="12"/>
<rect x="9.3" y="59.6" transform="matrix(-0.5 -0.866 0.866 -0.5 -38.3538 109.0526)" class="st1" width="6" height="12"/>
<rect x="23.6" y="74.3" transform="matrix(-0.866 -0.5 0.5 -0.866 9.4808 163.1481)" class="st1" width="6" height="12"/>
<rect x="63.4" y="75.3" transform="matrix(-0.866 0.5 -0.5 -0.866 164.5596 118.5141)" class="st1" width="6" height="12"/>
<rect x="77.7" y="62.4" transform="matrix(-0.5 0.866 -0.866 -0.5 180.282 32.718)" class="st1" width="6" height="12"/>
</svg>
