<?xml version="1.0" encoding="UTF-8"?>
<svg xmlns="http://www.w3.org/2000/svg" xmlns:xlink="http://www.w3.org/1999/xlink" width="32px" height="32px" viewBox="0 0 32 32" x="0px" y="0px" version="1.1">
  <defs>
    <rect id="maskcanvas" width="32px" height="32px" fill="#ffffff"/>
    <mask id="cancelmask">
      <use xlink:href="#maskcanvas"/>
      <path d="M15.5,30.5c-7.7,0-14-6.3-14-14s6.3-14,14-14s14,6.3,14,14S23.2,30.5,15.5,30.5zM15.5,5.5c-6.1,0-11,4.9-11,11s4.9,11,11,11s11-4.9,11-11S21.6,5.5,15.5,5.5z" transform="scale(0.6) translate(22 22)" fill="#000000" stroke="#000000" stroke-width="2"/>
      <path d="M15.5,5.5c-6.1,0-11,4.9-11,11s4.9,11,11,11s11-4.9,11-11S21.6,5.5,15.5,5.5z" transform="scale(0.6) translate(22 22)" fill="#000000" stroke="#000000" stroke-width="2"/>
    </mask>
    <path id="funnel" d="M29.9,4c-4.7,0-9.3,0-14,0c-0.9,0-1.7,0-2.6,0C9.5,4,5.8,4,2,4C1.7,4,1.4,4.1,1.3,4.5C1.1,4.8,1.2,5.1,1.4,5.4C1.6,5.7,2,6,2.3,6.3c3.3,3.3,6.1,6.8,9.5,10.1c0.2,0.2,0.2,0.3,0.2,0.6c0,0,0,11.2,0,11.2c0,0.7,0.5,1,1.2,0.7c1.8-0.7,4.6-2,6.3-2.9c0.4-0.2,0.5-0.5,0.5-0.9c0-2.8,0-5.3,0-8.1c0-0.2,0.1-0.4,0.2-0.5L30.4,5.4c0.1-0.1,0.2-0.4,0.2-0.5C30.7,4.4,30.4,4,29.9,4zM18.3,15.2c-0.2,0.2-0.3,0.5-0.3,0.8c0,0,0,8.5,0,8.5c0,0.2-0.1,0.2-0.3,0.4L14,26.7V16c0-0.3-0.2-0.6-0.4-0.8L5,6h22L18.3,15.2z"/>
    <path id="cancel_circle" d="M15.5,30.5c-7.7,0-14-6.3-14-14s6.3-14,14-14s14,6.3,14,14S23.2,30.5,15.5,30.5zM15.5,5.5c-6.1,0-11,4.9-11,11s4.9,11,11,11s11-4.9,11-11S21.6,5.5,15.5,5.5z"/>
    <rect id="cancel_line" x="4.2" y="15.5" transform="matrix(0.6622 -0.7493 0.7493 0.6622 -7.3232 17.6977)" width="23.5" height="3"/>
  </defs>
  <g>
    <use xlink:href="#funnel" fill="#ffffff" stroke="#ffffff" stroke-width="0" style="mask:url(&quot;#cancelmask&quot;);"/>
    <use xlink:href="#cancel_circle" fill="#ffffff" stroke="#ffffff" stroke-width="0" transform="scale(0.6) translate(22 22)"/>
    <use xlink:href="#cancel_line" fill="#ffffff" stroke="#ffffff" stroke-width="0" transform="scale(0.6) translate(22 22)"/>
  </g>
</svg>
