<?xml version="1.0" encoding="utf-8"?>
<!-- Generator: Adobe Illustrator 28.0.0, SVG Export Plug-In . SVG Version: 6.00 Build 0)  -->
<svg version="1.1" id="Layer_1" xmlns="http://www.w3.org/2000/svg" xmlns:xlink="http://www.w3.org/1999/xlink" x="0px" y="0px"
	 viewBox="0 0 32 32" style="enable-background:new 0 0 32 32;" xml:space="preserve">
<style type="text/css">
	.st0{fill:#4A4A4A;}
	.st1{fill:none;}
	.st2{fill:none;stroke:#1C384C;stroke-miterlimit:10;}
</style>
<g>
	<rect x="14" y="0" class="st0" width="2" height="6"/>
	<rect x="24" y="14" class="st0" width="6" height="2"/>
	<rect y="14" class="st0" width="6" height="2"/>
	<rect x="14" y="24" class="st0" width="2" height="6"/>
</g>
<g>
	<g>
		<path class="st0" d="M15,8c-3.9,0-7,3.1-7,7s3.1,7,7,7s7-3.1,7-7S18.9,8,15,8z"/>
	</g>
</g>
<line class="st1" x1="0" y1="0" x2="32" y2="32"/>
<path class="st2" d="M31.5,31.5"/>
<path class="st2" d="M0.5,0.5"/>
<path class="st0" d="M15,2C7.8,2,2,7.8,2,15s5.8,13,13,13s13-5.8,13-13S22.2,2,15,2z M15,26C8.9,26,4,21.1,4,15S8.9,4,15,4
	s11,4.9,11,11S21.1,26,15,26z"/>
</svg>
