<?xml version="1.0" encoding="UTF-8"?>
<!-- Generator: Adobe Illustrator 19.2.1, SVG Export Plug-In . SVG Version: 6.00 Build 0)  -->
<svg xmlns="http://www.w3.org/2000/svg" xmlns:xlink="http://www.w3.org/1999/xlink" version="1.1" x="0px" y="0px" viewBox="0 0 48 48" style="enable-background:new 0 0 48 48;" xml:space="preserve">
<style type="text/css">
	.st0{fill:#F3F3F3;}
	.st1{display:none;}
	.st2{display:inline;fill:#F3F3F3;}
</style>
<g id="Layer_1">
	<path class="st0" d="M40.7,16.9l-1.5-2.4c-1.9-2.4-3.6-4-9.1-6.1C27.7,7.5,25,7,22.3,7L19,7C9.3,8.2,5.2,12.7,4.5,13.7v0   c-2.2,2.8-1.8,5-1,7.2c0.4,1,1,1.9,1.8,2.7l2.7,2.6c0.2,0.2,0.5,0.4,0.7,0.5c3.4,1.8,8.5,0.4,7.8,8.6c-0.2,1.9,0.9,3.3,2.9,4.4   c0.1,0.1,2.4,0.9,3.2,1c6.3,0.7,15.8-1.8,18.8-6.1h0C45.1,29.3,44.8,23.4,40.7,16.9z M10.4,20.1c-1.8,0-3.3-1.4-3.3-3.2   s1.5-3.2,3.3-3.2s3.3,1.4,3.3,3.2S12.2,20.1,10.4,20.1z M15.8,13.7c0-1.8,1.5-3.2,3.3-3.2s3.3,1.4,3.3,3.2s-1.5,3.2-3.3,3.2   S15.8,15.5,15.8,13.7z M23.4,38.1c-2.4,0-4.3-1.9-4.3-4.3s1.9-4.3,4.3-4.3s4.3,1.9,4.3,4.3S25.8,38.1,23.4,38.1z M28.8,17.9   c-1.8,0-3.3-1.4-3.3-3.2s1.5-3.2,3.3-3.2c1.8,0,3.3,1.4,3.3,3.2S30.6,17.9,28.8,17.9z M36.4,25.4c-1.8,0-3.3-1.4-3.3-3.2   c0-1.8,1.5-3.2,3.3-3.2s3.3,1.4,3.3,3.2C39.7,24,38.2,25.4,36.4,25.4z"/>
</g>

<g id="Layer_3">
</g>
</svg>
