<?xml version="1.0" encoding="utf-8"?>
<!-- Generator: Adobe Illustrator 21.0.0, SVG Export Plug-In . SVG Version: 6.00 Build 0)  -->
<svg version="1.1" id="Layer_1" xmlns="http://www.w3.org/2000/svg" xmlns:xlink="http://www.w3.org/1999/xlink" x="0px" y="0px"
	 viewBox="0 0 48 48" style="enable-background:new 0 0 48 48;" xml:space="preserve">
<style type="text/css">
	.st0{fill:#4A4A4A;}
</style>
<g>
	<g>
		<path class="st0" d="M2,2v8h8V2H2z M8,8H4V4h4V8z"/>
	</g>
</g>
<g>
	<g>
		<path class="st0" d="M2,12v8h8v-8H2z M8,18H4v-4h4V18z"/>
	</g>
</g>
<g>
	<g>
		<path class="st0" d="M2,22v8h8v-8H2z M8,28H4v-4h4V28z"/>
	</g>
</g>
<path class="st0" d="M26,43h-2V7.6C24,6.7,23.3,6,22.4,6H9V4h15c1.1,0,2,0.9,2,2V43z"/>
<path class="st0" d="M24,43h-2V17.6c0-0.9-0.7-1.6-1.6-1.6H8v-2h14c1.1,0,2,0.9,2,2V43z"/>
<path class="st0" d="M24,43h-2V27.6c0-0.9-0.7-1.6-1.6-1.6H9v-2h13c1.1,0,2,0.9,2,2V43z"/>
<polygon class="st0" points="25,46 16,36 34,36 "/>
<g>
	<g>
		<path class="st0" d="M38,8v8h8V8H38z M40,10h4v4h-4V10z"/>
	</g>
</g>
<g>
	<g>
		<path class="st0" d="M38,18v8h8v-8H38z M40,20h4v4h-4V20z"/>
	</g>
</g>
<path class="st0" d="M26,39h2V13.6c0-0.9,0.7-1.6,1.6-1.6H40v-2H28c-1.1,0-2,0.9-2,2V39z"/>
<path class="st0" d="M26,39h2V23.6c0-0.9,0.7-1.6,1.6-1.6H39v-2H28c-1.1,0-2,0.9-2,2V39z"/>
</svg>
