<?xml version="1.0" encoding="UTF-8"?>
<svg xmlns="http://www.w3.org/2000/svg" xmlns:xlink="http://www.w3.org/1999/xlink" width="32px" height="32px" viewBox="0 0 32 32" x="0px" y="0px" version="1.1">
  <defs>
    <path id="cog-inside" d="M17.589,11.185c-0.595-0.244-1.22-0.367-1.858-0.367c-2.002,0-3.786,1.197-4.544,3.05c-0.497,1.213-0.491,2.548,0.015,3.757c0.507,1.209,1.454,2.149,2.668,2.645c0.595,0.244,1.221,0.367,1.859,0.367c2.002,0,3.786-1.197,4.544-3.05c0.497-1.213,0.492-2.548-0.015-3.757C19.75,12.622,18.802,11.682,17.589,11.185zM18.333,16.795c-0.435,1.062-1.457,1.748-2.605,1.748c-0.365,0-0.723-0.071-1.065-0.211c-0.696-0.285-1.238-0.823-1.529-1.516c-0.291-0.693-0.294-1.458-0.009-2.154c0.435-1.063,1.458-1.748,2.605-1.748c0.365,0,0.723,0.071,1.065,0.21c0.696,0.285,1.238,0.824,1.529,1.517C18.615,15.334,18.618,16.099,18.333,16.795z"/>
    <path id="cog-outside" d="M27.471,17.683l-2.149-1.226c0.039-0.51,0.037-1.023-0.007-1.533l2.14-1.245c0.408-0.237,0.607-0.718,0.486-1.174c-0.299-1.129-0.752-2.211-1.348-3.218c-0.24-0.406-0.723-0.601-1.178-0.477l-2.387,0.653c-0.334-0.389-0.698-0.751-1.089-1.082l0.633-2.393c0.121-0.456-0.079-0.937-0.487-1.174c-0.513-0.298-1.042-0.559-1.571-0.776c-0.523-0.214-1.08-0.398-1.655-0.546c-0.458-0.119-0.937,0.085-1.171,0.495l-1.225,2.148c-0.514-0.04-1.028-0.037-1.539,0.006l-1.245-2.14c-0.237-0.407-0.719-0.605-1.173-0.486c-0.514,0.136-1.028,0.308-1.54,0.516L10.72,4.134c-0.494,0.214-0.976,0.459-1.431,0.728C8.883,5.103,8.688,5.585,8.812,6.04l0.652,2.386C9.073,8.763,8.71,9.128,8.378,9.521L5.986,8.889c-0.455-0.12-0.937,0.079-1.174,0.487c-0.259,0.447-0.494,0.917-0.706,1.413l-0.133,0.325c-0.19,0.483-0.352,0.984-0.482,1.488c-0.117,0.457,0.085,0.937,0.496,1.171l2.148,1.226c-0.039,0.513-0.037,1.029,0.007,1.542l-2.139,1.245c-0.408,0.237-0.607,0.718-0.485,1.175c0.135,0.509,0.306,1.022,0.515,1.534l0.102,0.243c0.214,0.495,0.46,0.979,0.732,1.437c0.24,0.406,0.72,0.601,1.178,0.477l2.389-0.653c0.335,0.391,0.7,0.753,1.093,1.084l-0.632,2.391C8.773,25.93,8.972,26.41,9.38,26.647c0.512,0.297,1.037,0.557,1.563,0.771c0.528,0.216,1.089,0.401,1.665,0.549C12.694,27.989,12.781,28,12.868,28c0.369,0,0.72-0.196,0.91-0.529l1.227-2.149c0.513,0.038,1.024,0.036,1.536-0.008l1.245,2.139c0.237,0.408,0.717,0.606,1.174,0.486c1.129-0.299,2.211-0.754,3.217-1.35c0.406-0.24,0.601-0.722,0.477-1.178L22,23.024c0.389-0.334,0.75-0.697,1.08-1.088l2.392,0.632c0.455,0.121,0.937-0.078,1.174-0.487c0.298-0.513,0.558-1.041,0.774-1.567c0.215-0.525,0.4-1.085,0.548-1.661C28.084,18.397,27.882,17.918,27.471,17.683zM25.48,19.721c-0.083,0.204-0.174,0.407-0.274,0.61l-2.259-0.597c-0.418-0.111-0.864,0.049-1.117,0.4c-0.457,0.634-1.01,1.192-1.643,1.655c-0.35,0.256-0.505,0.702-0.391,1.121l0.616,2.254c-0.4,0.198-0.812,0.371-1.234,0.518l-1.175-2.019c-0.218-0.376-0.652-0.58-1.074-0.507c-0.772,0.125-1.563,0.128-2.335,0.011c-0.429-0.065-0.853,0.14-1.069,0.516l-1.158,2.029c-0.216-0.072-0.427-0.15-0.631-0.234c-0.202-0.083-0.405-0.173-0.606-0.272l0.597-2.258c0.111-0.42-0.049-0.864-0.401-1.118c-0.636-0.457-1.194-1.011-1.66-1.646c-0.256-0.349-0.7-0.501-1.121-0.391l-2.254,0.616c-0.081-0.164-0.158-0.329-0.229-0.495L5.97,19.694c-0.069-0.17-0.134-0.343-0.194-0.515l2.019-1.175c0.376-0.219,0.577-0.646,0.507-1.074c-0.126-0.776-0.13-1.563-0.011-2.34c0.066-0.429-0.139-0.854-0.516-1.069l-2.027-1.157c0.054-0.16,0.111-0.317,0.171-0.47l0.122-0.298c0.068-0.158,0.139-0.315,0.213-0.469l2.257,0.597c0.417,0.111,0.864-0.049,1.117-0.4c0.459-0.637,1.014-1.195,1.649-1.661c0.351-0.256,0.506-0.702,0.392-1.121l-0.616-2.252c0.162-0.08,0.325-0.156,0.489-0.227l0.224-0.094c0.172-0.07,0.346-0.135,0.52-0.196l1.175,2.02c0.218,0.376,0.648,0.575,1.073,0.507c0.772-0.125,1.567-0.128,2.337-0.01c0.432,0.068,0.855-0.139,1.07-0.516l1.157-2.028c0.213,0.072,0.421,0.149,0.623,0.231c0.205,0.084,0.41,0.176,0.615,0.276l-0.597,2.259c-0.111,0.419,0.048,0.864,0.4,1.117c0.635,0.459,1.192,1.013,1.656,1.646c0.257,0.351,0.704,0.504,1.121,0.392l2.253-0.616c0.198,0.401,0.371,0.812,0.517,1.234l-2.021,1.176c-0.375,0.218-0.577,0.645-0.507,1.073c0.125,0.775,0.129,1.559,0.01,2.332c-0.066,0.429,0.139,0.854,0.516,1.069l2.028,1.158C25.641,19.307,25.563,19.517,25.48,19.721z"/>
    <path id="cog-fill" d="M23.688,17.94c-0.377-0.215-0.582-0.641-0.516-1.069c0.119-0.773,0.115-1.558-0.01-2.332c-0.07-0.428,0.132-0.855,0.507-1.073l2.021-1.176c-0.146-0.422-0.319-0.834-0.517-1.234l-2.253,0.616c-0.417,0.112-0.865-0.041-1.121-0.392c-0.464-0.633-1.021-1.187-1.656-1.646c-0.352-0.254-0.511-0.698-0.399-1.117l0.597-2.259c-0.205-0.1-0.41-0.192-0.615-0.276c-0.202-0.082-0.409-0.16-0.623-0.231l-1.157,2.028c-0.215,0.378-0.638,0.584-1.07,0.516c-0.77-0.119-1.565-0.116-2.337,0.01c-0.425,0.067-0.855-0.132-1.073-0.507l-1.175-2.02c-0.174,0.061-0.348,0.126-0.52,0.196l-0.224,0.094c-0.164,0.071-0.327,0.146-0.489,0.227l0.616,2.253c0.114,0.419-0.041,0.865-0.392,1.121c-0.635,0.465-1.19,1.024-1.649,1.661c-0.253,0.352-0.7,0.511-1.117,0.4l-2.257-0.596c-0.075,0.155-0.146,0.311-0.213,0.469l-0.122,0.298c-0.06,0.153-0.118,0.31-0.171,0.47l2.027,1.157c0.377,0.215,0.582,0.641,0.516,1.069c-0.119,0.777-0.116,1.564,0.011,2.34c0.07,0.429-0.131,0.856-0.507,1.074l-2.019,1.174c0.06,0.172,0.125,0.345,0.194,0.515l0.093,0.222c0.072,0.166,0.148,0.331,0.229,0.495L8.549,19.8c0.421-0.111,0.865,0.041,1.121,0.391c0.466,0.635,1.024,1.189,1.66,1.646c0.352,0.254,0.512,0.698,0.401,1.118l-0.596,2.258c0.202,0.099,0.404,0.189,0.606,0.272c0.205,0.084,0.415,0.162,0.631,0.234l1.158-2.029c0.215-0.377,0.64-0.582,1.069-0.516c0.772,0.117,1.563,0.114,2.335-0.011c0.422-0.073,0.855,0.131,1.074,0.507l1.175,2.019c0.422-0.146,0.834-0.319,1.234-0.518l-0.616-2.255c-0.114-0.418,0.041-0.865,0.391-1.121c0.632-0.464,1.185-1.021,1.643-1.655c0.254-0.352,0.699-0.511,1.117-0.4l2.259,0.597c0.099-0.203,0.191-0.407,0.274-0.61c0.083-0.204,0.162-0.413,0.233-0.628L23.688,17.94zM20.275,17.594c-0.758,1.853-2.542,3.05-4.544,3.05c-0.638,0-1.264-0.123-1.859-0.367c-1.213-0.497-2.161-1.436-2.668-2.645c-0.506-1.209-0.512-2.544-0.015-3.757c0.759-1.853,2.542-3.05,4.544-3.05c0.638,0,1.264,0.123,1.858,0.367c1.213,0.497,2.161,1.437,2.668,2.646C20.766,15.046,20.772,16.38,20.275,17.594z"/>
  </defs>
  <g>
    <use xlink:href="#cog-inside" fill="#4a4a4a" stroke="#4a4a4a" stroke-width="0" transform="scale(.85) translate(-3 9)"/>
    <use xlink:href="#cog-outside" fill="#4a4a4a" stroke="#4a4a4a" stroke-width="0" transform="scale(.85) translate(-3 9)"/>
    <use xlink:href="#cog-fill" fill="#ffffff" transform="scale(.85) translate(-3 9)"/>
    <use xlink:href="#cog-inside" fill="#4a4a4a" stroke="#4a4a4a" stroke-width="0" transform="scale(0.6) translate(24 -3)"/>
    <use xlink:href="#cog-outside" fill="#4a4a4a" stroke="#4a4a4a" stroke-width="0" transform="scale(0.6) translate(24 -3)"/>
    <use xlink:href="#cog-fill" fill="#ffffff" transform="scale(0.6) translate(24 -3)"/>
  </g>
</svg>
