<?xml version="1.0" encoding="utf-8"?>
<!-- Generator: Adobe Illustrator 19.2.1, SVG Export Plug-In . SVG Version: 6.00 Build 0)  -->
<svg version="1.1" id="Layer_2" xmlns="http://www.w3.org/2000/svg" xmlns:xlink="http://www.w3.org/1999/xlink" x="0px" y="0px"
	 viewBox="0 0 48 48" style="enable-background:new 0 0 48 48;" xml:space="preserve">
<style type="text/css">
	.st0{fill:#4A4A4A;}
</style>
<g>
	<path class="st0" d="M38.7,4H9.3C8,4,8,5.4,8,5.4v37.1c0,0,0,1.4,1.3,1.4h29.3c1.3,0,1.3-1.4,1.3-1.4V5.4C40,5.4,40,4,38.7,4z
		 M36,40H12V8h24V40z"/>
	<g>
		<path id="checkmark" class="st0" d="M18.1,21.4c0.2,0.3,0.6,0.4,0.9,0.4l0,0l0,0c0.4,0,0.7-0.2,0.9-0.5l6.8-9.2
			c0.4-0.5,0.3-1.4-0.2-1.8c-0.5-0.4-1.3-0.3-1.7,0.2l-5.9,8l-2.8-3.6c-0.3-0.4-1.1-0.5-1.6-0.1c-0.5,0.4-0.6,1.3-0.1,1.8L18.1,21.4
			z"/>
	</g>
	<g>
		<path id="checkmark_1_" class="st0" d="M18.1,29.9c0.2,0.3,0.6,0.4,0.9,0.4l0,0l0,0c0.4,0,0.7-0.2,0.9-0.5l6.8-9.2
			c0.4-0.5,0.3-1.4-0.2-1.8c-0.5-0.4-1.3-0.3-1.7,0.2l-5.9,8l-2.8-3.6c-0.3-0.4-1.1-0.5-1.6-0.1c-0.5,0.4-0.6,1.3-0.1,1.8L18.1,29.9
			z"/>
	</g>
	<g>
		<path id="checkmark_2_" class="st0" d="M18.1,38.4c0.2,0.3,0.6,0.4,0.9,0.4l0,0l0,0c0.4,0,0.7-0.2,0.9-0.5l6.8-9.2
			c0.4-0.5,0.3-1.4-0.2-1.8c-0.5-0.4-1.3-0.3-1.7,0.2l-5.9,8l-2.8-3.6c-0.3-0.4-1.1-0.5-1.6-0.1c-0.5,0.4-0.6,1.3-0.1,1.8L18.1,38.4
			z"/>
	</g>
</g>
</svg>
