<?xml version="1.0" encoding="utf-8"?>
<!-- Generator: Adobe Illustrator 19.2.1, SVG Export Plug-In . SVG Version: 6.00 Build 0)  -->
<svg version="1.1" id="Layer_1" xmlns="http://www.w3.org/2000/svg" xmlns:xlink="http://www.w3.org/1999/xlink" x="0px" y="0px"
	 viewBox="0 0 48 48" style="enable-background:new 0 0 48 48;" xml:space="preserve">
<style type="text/css">
	.st0{fill:#4A4A4A;}
</style>
<rect x="10" y="4" class="st0" width="4" height="40"/>
<rect x="16" y="22" transform="matrix(4.729379e-11 -1 1 4.729379e-11 -18 54)" class="st0" width="4" height="28"/>
<rect x="28" y="-2" transform="matrix(4.774853e-11 -1 1 4.774853e-11 18 42)" class="st0" width="4" height="28"/>
<rect x="34" y="4" transform="matrix(-1 -1.123227e-10 1.123227e-10 -1 72 48)" class="st0" width="4" height="40"/>
<rect x="4" y="10" transform="matrix(6.593898e-12 -1 1 6.593898e-12 -6 18)" class="st0" width="4" height="4"/>
<rect x="34" y="41" transform="matrix(-1 -8.185575e-12 8.185575e-12 -1 72 85)" class="st0" width="4" height="3"/>
<rect x="40" y="34" transform="matrix(7.276019e-12 -1 1 7.276019e-12 6 78)" class="st0" width="4" height="4"/>
</svg>
