<?xml version="1.0" encoding="utf-8"?>
<!-- Generator: Adobe Illustrator 19.2.1, SVG Export Plug-In . SVG Version: 6.00 Build 0)  -->
<svg version="1.1" id="Layer_1" xmlns="http://www.w3.org/2000/svg" xmlns:xlink="http://www.w3.org/1999/xlink" x="0px" y="0px"
	 viewBox="0 0 32 32" style="enable-background:new 0 0 32 32;" xml:space="preserve">
<style type="text/css">
	.st0{fill:#4A4A4A;}
	.st1{fill:#0592E1;}
</style>
<g id="Layer_2">
	<g>
		<g>
			<polygon class="st0" points="4,0 4,26 10,26 10,24 6,24 6,2 15,2 17,4 22,4 22,0 			"/>
		</g>
	</g>
	<g>
		<g>
			<polygon class="st0" points="12,6 12,16 14,16 14,8 23,8 28,13 28,30 14,30 14,22 12,22 12,32 30,32 30,6 			"/>
		</g>
	</g>
</g>
<circle class="st0" cx="-12" cy="15" r="0"/>
<path class="st1" d="M18,18H8v1c0,0.6,0.5,1,1,1h9V18z"/>
<path class="st1" d="M24.1,19.7L18,24V14l6.1,4.3C24.6,18.6,24.6,19.4,24.1,19.7z"/>
<path class="st1" d="M9.1,11H9c-0.5,0-1,0.4-1,1v6h2v-6.1c0,0,0,0,0,0C10,11.4,9.6,11,9.1,11C9.1,11,9.1,11,9.1,11z"/>
</svg>
