<?xml version="1.0" encoding="UTF-8"?>
<!-- Generator: Adobe Illustrator 19.2.1, SVG Export Plug-In . SVG Version: 6.00 Build 0)  -->
<svg xmlns="http://www.w3.org/2000/svg" xmlns:xlink="http://www.w3.org/1999/xlink" version="1.1" x="0px" y="0px" viewBox="0 0 48 48" style="enable-background:new 0 0 48 48;" xml:space="preserve">
<style type="text/css">
	.st0{fill:#4A4A4A;}
	.st1{display:none;}
	.st2{display:inline;fill:#4A4A4A;}
	.st3{display:inline;}
</style>
<g id="Layer_1">
	<g id="Layer_1_1_">
	</g>
	<g>
		<g>
			<path class="st0" d="M27,2h-6.2c-0.3,0-0.6,0-0.7,0.3C20,2.6,20,2.9,20.3,3.1l6.5,6.1c0.2,0.2,0.6,0.3,0.8,0.2     C27.8,9.2,28,8.9,28,8.6V3C28,2,27,2,27,2z M6,2C4,2,4,4,4,4v28c0,0,0,2,2,2h9v-2H8H7c-1,0-1-0.6-1-0.9V5c0,0,0-1,1-1h9l6,6h3     l-8-8H6z"/>
		</g>
	</g>
	<g>
		<g>
			<path class="st0" d="M20,12c-2,0-2,2-2,2v6.2l2,0.5V15c0,0,0-1,1-1h9l10,10v17c0,0,0,1-1,1H21c-1,0-1-0.6-1-0.9V34h-2v8     c0,0,0,2,2,2h20c2,0,2-2,2-2V23L31,12H20z M41,12h-6.2c-0.3,0-0.6,0-0.7,0.3c-0.1,0.3-0.1,0.6,0.2,0.8l6.5,6.1     c0.2,0.2,0.6,0.3,0.8,0.2c0.2-0.2,0.4-0.5,0.4-0.8V13C42,12,41,12,41,12z"/>
		</g>
	</g>

</g>
<g id="Layer_3">
	<g>
		<path id="curvedarrow_1_" class="st0" d="M29.5,28.5l-6.2,6.4c-0.3,0.1-0.5,0.1-0.8,0c-0.1,0-0.1-0.1-0.1-0.1l0,0    l-0.1-0.1l0,0v-0.1l0,0v-0.1v-3.1C15.4,30.5,11,26.7,11,22.5c0-2.9,1.2-5,5.5-6.5h0.1c0.1,0,0.4,0.1,0.4,0.3    c0.1,0.2,0,0.5-0.3,0.6c-2.1,1-2,1.9-2,3.4c0,2.5,2.8,4.5,7.4,4.8l0-3c0-0.2,0.1-0.5,0.4-0.6h0.1h0.1l0,0c0.1,0,0.4,0,0.5,0.1    l6.2,5.9c0.3,0.1,0.4,0.4,0.4,0.6C29.9,28.2,29.8,28.4,29.5,28.5z"/>
	</g>
</g>

</svg>
