<?xml version="1.0" encoding="utf-8"?>
<!-- Generator: Adobe Illustrator 19.2.1, SVG Export Plug-In . SVG Version: 6.00 Build 0)  -->
<svg version="1.1" id="Layer_1" xmlns="http://www.w3.org/2000/svg" xmlns:xlink="http://www.w3.org/1999/xlink" x="0px" y="0px"
	 viewBox="0 0 32 32" style="enable-background:new 0 0 32 32;" xml:space="preserve">
<style type="text/css">
	.st0{fill:#4A4A4A;}
</style>
<g id="Layer_1_1_">
	<g>
		<g>
			<path id="pencil" class="st0" d="M28.4,7.2l-3.6-3.6c0,0-1.4-1.4-2.8,0C20.6,5.1,7.6,17.8,7.6,17.8
				c-0.1,0.1,0,0.3-0.1,0.5l-3.1,7.9c-0.2,0.4,0,0.8,0.3,1c0.2,0.2,0.5,0.3,0.7,0.3c0.1,0,0.2,0,0.3-0.1l5-2l2.9-1.1
				c0.1-0.1,0.5-0.1,0.5-0.2c0,0,13.5-13.4,14.2-14.2C29.7,8.5,28.4,7.2,28.4,7.2z M12.7,22.7l-3.1,1.2l-1.5-1.5l1-3.2L23.4,4.9
				l1.4,1.4c0,0-12,12-12.8,12.7c-0.7,0.7,0,1.4,0.7,0.7C13.4,19.1,25.5,7,25.5,7l1.4,1.4L12.7,22.7z"/>
		</g>
	</g>
</g>
</svg>
