<?xml version="1.0" encoding="UTF-8"?>
<svg xmlns="http://www.w3.org/2000/svg" xmlns:xlink="http://www.w3.org/1999/xlink" width="32px" height="32px" viewBox="0 0 32 32" x="0px" y="0px" version="1.1">
  <defs>
    <path id="funnel" d="M29.9,4c-4.7,0-9.3,0-14,0c-0.9,0-1.7,0-2.6,0C9.5,4,5.8,4,2,4C1.7,4,1.4,4.1,1.3,4.5C1.1,4.8,1.2,5.1,1.4,5.4C1.6,5.7,2,6,2.3,6.3c3.3,3.3,6.1,6.8,9.5,10.1c0.2,0.2,0.2,0.3,0.2,0.6c0,0,0,11.2,0,11.2c0,0.7,0.5,1,1.2,0.7c1.8-0.7,4.6-2,6.3-2.9c0.4-0.2,0.5-0.5,0.5-0.9c0-2.8,0-5.3,0-8.1c0-0.2,0.1-0.4,0.2-0.5L30.4,5.4c0.1-0.1,0.2-0.4,0.2-0.5C30.7,4.4,30.4,4,29.9,4zM18.3,15.2c-0.2,0.2-0.3,0.5-0.3,0.8c0,0,0,8.5,0,8.5c0,0.2-0.1,0.2-0.3,0.4L14,26.7V16c0-0.3-0.2-0.6-0.4-0.8L5,6h22L18.3,15.2z"/>
  </defs>
  <g>
    <use xlink:href="#funnel" fill="#ffffff" stroke="#ffffff" stroke-width="0"/>
  </g>
</svg>
