<?xml version="1.0" encoding="utf-8"?>
<!-- Generator: Adobe Illustrator 19.2.1, SVG Export Plug-In . SVG Version: 6.00 Build 0)  -->
<svg version="1.1" id="Layer_1" xmlns="http://www.w3.org/2000/svg" xmlns:xlink="http://www.w3.org/1999/xlink" x="0px" y="0px"
	 viewBox="0 0 48 48" style="enable-background:new 0 0 48 48;" xml:space="preserve">
<style type="text/css">
	.st0{fill:#4A4A4A;}
</style>
<g>
	<g>
		<path id="funnel" class="st0" d="M44.9,4C37.9,4,31,4,24,4c-1.3,0-2.5,0-3.9,0C14.4,4,8.9,4,3.2,4c-0.4,0-0.9,0.2-1,0.8
			C1.9,5.3,2,5.8,2.3,6.2s0.9,1,1.3,1.4c4.9,5.3,9.1,10.9,14.2,16.1c0.3,0.3,0.1,0.7,0.1,1.2v18c0,1.1,0.9,1.3,2,0.8
			c2.7-1.1,6.9-3.2,9.4-4.6C30,38.9,30,38.6,30,38c0-4.5,0-8.5,0-13c0-0.3,0.3-0.9,0.4-1L45.7,6.2C45.8,6.1,46,5.6,46,5.4
			C46.1,4.6,45.7,4,44.9,4z M27,21c-0.3,0.3-1,1.5-1,2v12c0,0.3,0.3,0.7,0,1l-4,3V23c0-0.5-1.1-0.8-1.4-1.1L8,8h32L27,21z"/>
	</g>
</g>
</svg>
