<?xml version="1.0" encoding="utf-8"?>
<!-- Generator: Adobe Illustrator 19.2.1, SVG Export Plug-In . SVG Version: 6.00 Build 0)  -->
<svg version="1.1" id="Layer_1" xmlns="http://www.w3.org/2000/svg" xmlns:xlink="http://www.w3.org/1999/xlink" x="0px" y="0px"
	 viewBox="0 0 32 32" style="enable-background:new 0 0 32 32;" xml:space="preserve">
<style type="text/css">
	.st0{fill:#4A4A4A;}
</style>
<g>
	<g>
		<path id="funnel" class="st0" d="M29.9,4c-4.7,0-9.3,0-14,0c-0.9,0-1.7,0-2.6,0C9.5,4,5.8,4,2,4C1.7,4,1.4,4.1,1.3,4.5
			C1.1,4.8,1.2,5.1,1.4,5.4C1.6,5.7,2,6,2.3,6.3c3.3,3.3,6.1,6.8,9.5,10.1C12,16.6,12,16.7,12,17v11.2c0,0.7,0.5,1,1.2,0.7
			c1.8-0.7,4.6-2,6.3-2.9c0.4-0.2,0.5-0.5,0.5-0.9c0-2.8,0-5.3,0-8.1c0-0.2,0.1-0.4,0.2-0.5L30.4,5.4c0.1-0.1,0.2-0.4,0.2-0.5
			C30.7,4.4,30.4,4,29.9,4z M18.3,15.2C18.1,15.4,18,15.7,18,16v8.5c0,0.2-0.1,0.2-0.3,0.4L14,26.7V16c0-0.3-0.2-0.6-0.4-0.8L5,6h22
			L18.3,15.2z"/>
	</g>
</g>
</svg>
