<?xml version="1.0" encoding="utf-8"?>
<!-- Generator: Adobe Illustrator 24.1.2, SVG Export Plug-In . SVG Version: 6.00 Build 0)  -->
<svg version="1.1" id="Layer_1" xmlns="http://www.w3.org/2000/svg" xmlns:xlink="http://www.w3.org/1999/xlink" x="0px" y="0px"
	 viewBox="0 0 48 48" style="enable-background:new 0 0 48 48;" xml:space="preserve">
<style type="text/css">
	.st0{fill:#F3F3F3;}
</style>
<path class="st0" d="M24,2C11.8,2,2,11.8,2,24s9.8,22,22,22s22-9.8,22-22S36.2,2,24,2z M24,44C13,44,4,35,4,24S13,4,24,4s20,9,20,20
	S35,44,24,44z"/>
<path class="st0" d="M24,38L24,38c-1.1,0-2-0.9-2-2v0c0-1.1,0.9-2,2-2h0c1.1,0,2,0.9,2,2v0C26,37.1,25.1,38,24,38z"/>
<path class="st0" d="M26,29c0,0.8,0-0.2,0,1h-4v-1c0-1.5,0-1.1,0-2c0-3,6-6,6-9c0-2-1-4-4-4s-4,2-4,4h-4c0-5,2-8,8-8s8,3,8,8
	C32,24,26,24,26,29z"/>
</svg>
