<?xml version="1.0" encoding="utf-8"?>
<!-- Generator: Adobe Illustrator 24.1.2, SVG Export Plug-In . SVG Version: 6.00 Build 0)  -->
<svg version="1.1" id="Layer_1" xmlns="http://www.w3.org/2000/svg" xmlns:xlink="http://www.w3.org/1999/xlink" x="0px" y="0px"
	 viewBox="0 0 32 32" style="enable-background:new 0 0 32 32;" xml:space="preserve">
<style type="text/css">
	.st0{fill:#FFFFFF;}
	.st1{fill:#4A4A4A;}
</style>
<ellipse class="st0" cx="15.4" cy="15.9" rx="11" ry="11.5"/>
<path class="st1" d="M16,2C8.3,2,2,8.3,2,16s6.3,14,14,14s14-6.3,14-14S23.7,2,16,2z M18,26h-4v-4h4V26z M18,18c0,0.5,0,1.2,0,2h-4
	v-1c0-1,0-1.4,0-2c0-2,4-3,4-4c0-0.5,0-3-2-3s-1.9,1.8-2,3h-4c0.2-2.1,0-7,6.1-7C22,6,22,11,22,13C22,16,17.8,15.7,18,18z"/>
</svg>
