<?xml version="1.0" encoding="utf-8"?>
<!-- Generator: Adobe Illustrator 24.1.2, SVG Export Plug-In . SVG Version: 6.00 Build 0)  -->
<svg version="1.1" id="Layer_1" xmlns="http://www.w3.org/2000/svg" xmlns:xlink="http://www.w3.org/1999/xlink" x="0px" y="0px"
	 viewBox="0 0 48 48" style="enable-background:new 0 0 48 48;" xml:space="preserve">
<style type="text/css">
	.st0{fill:#F3F3F3;}
</style>
<path class="st0" d="M24,5C12.5,5,5,12.5,5,24s7.7,21.2,19.2,21.2s21-9.5,21-21S35.5,5,24,5z M25,40L25,40c-1.7,0-3-1.3-3-3l0,0
	c0-1.7,1.3-3,3-3l0,0c1.7,0,3,1.3,3,3l0,0C28,38.7,26.7,40,25,40z M28,27c0,0.8,0,1.8,0,3h-6v-1c0-1.5,0-3.1,0-4c0-3,6-3.5,6-5
	c0-0.8,0-4-3-4s-2.8,2.2-3,4h-6c0.3-3.2-0.2-10,9-10c8.8,0,9,7,9,10C34,24.5,27.7,23.5,28,27z"/>
</svg>
