<?xml version="1.0" encoding="UTF-8"?>
<svg xmlns="http://www.w3.org/2000/svg" xmlns:xlink="http://www.w3.org/1999/xlink" width="32px" height="32px" viewBox="0 0 32 32" x="0px" y="0px" version="1.1">
  <defs>
    <g id="clock">
      <polygon points="20.5,8.6 14,15 14,25 16,25 16,16 21.9,10   "/>
      <path d="M16,30C8.3,30,2,23.7,2,16C2,8.3,8.3,2,16,2c7.7,0,14,6.3,14,14C30,23.7,23.7,30,16,30zM16,4C9.4,4,4,9.4,4,16c0,6.6,5.4,12,12,12c6.6,0,12-5.4,12-12C28,9.4,22.6,4,16,4z"/>
    </g>
  </defs>
  <g>
    <use xlink:href="#clock" fill="#ffffff" stroke="#ffffff" stroke-width="0" transform="scale(0.8) translate(8 10)"/>
    <path d="M17.9,10.7c0.7,0,1.4-0.5,1.4-1.2c0-0.7-0.3-1.3-1.3-1.3v0c0,0-0.6,0-0.9,0c-2.4,0.1-4.8,1.1-6.6,2.8c-1.2,1.2-2.2,2.6-2.7,4.1l-2.4,0.1c-0.2,0-0.4,0.1-0.5,0.3C4.8,15.7,4.8,16,5,16.1L8.9,21c0.1,0.1,0.3,0.2,0.5,0.2c0.2,0,0.3-0.1,0.4-0.3l3.4-5.2c0.1-0.2,0.1-0.4,0-0.6c-0.1-0.2-0.3-0.3-0.5-0.3l-2,0.1c0.4-0.8,0.9-1.5,1.6-2.1C13.8,11.4,15.8,10.7,17.9,10.7" fill="#ffffff" stroke="#ffffff" stroke-width="0" transform="translate(-5 -2)"/>
  </g>
</svg>
