<?xml version="1.0" encoding="UTF-8"?>
<!-- Generator: Adobe Illustrator 19.2.1, SVG Export Plug-In . SVG Version: 6.00 Build 0)  -->
<svg xmlns="http://www.w3.org/2000/svg" xmlns:xlink="http://www.w3.org/1999/xlink" version="1.1" x="0px" y="0px" viewBox="0 0 48 48" style="enable-background:new 0 0 48 48;" xml:space="preserve">
<style type="text/css">
	.st0{display:none;}
	.st1{display:inline;}
	.st2{fill:#4A4A4A;}
	.st3{display:inline;fill:#4A4A4A;}
	.st4{fill:#6D6E70;stroke:#4A4A4A;stroke-miterlimit:10;}
</style>
<g id="Layer_1">
	
	<g>
		<g>
			<path id="refreshsymbol" class="st2" d="M2,38.2C2,37.8,2,37.4,2.3,37l3.4-3.6c-1.4-3-2.1-6.3-2-9.8c0.2-5.1,2.1-9.9,5.5-13.5     c0.5-0.6,0.9-0.9,1.2-1.5c4.2-3.7,9.5-5.9,15.2-5.6s10.8,2.6,14.8,6.8C44,14,46.2,19.3,45.9,25s-2.6,10.8-6.8,14.8     c-4,3.7-9.3,5.7-14.8,5.7c-1.4-0.1-2.8-1.3-2.6-2.7c0.1-1.4,1.3-2.8,2.7-2.6c4.1-0.1,8.1-1.5,11.2-4.3c3.1-2.8,4.9-6.7,5.1-11     s-1.3-8.3-4.3-11.4c-2.8-3.1-6.7-4.9-11-5.1C21,8.1,17,9.6,13.8,12.6c-3.1,2.8-4.9,6.7-5.1,11c0,1.8,0.3,3.7,0.8,5.4l2.9-3.2     c0.2-0.4,0.6-0.4,1.1-0.3c0.4,0.2,0.6,0.5,0.7,0.9l2.6,12.5c0,0.4-0.1,0.8-0.3,1c-0.2,0.2-0.4,0.4-0.8,0.3L3.1,38.9     C2.7,38.8,2.3,38.6,2,38.2z"/>
		</g>
	</g>
	<circle class="st4" cx="4" cy="13" r="0"/>
	<path class="st2" d="M24,26L24,26c-1.1,0-2-1-2-2.2v-9.7c0-1.2,0.9-2.2,2-2.2l0,0c1.1,0,2,1,2,2.2v9.7C26,25,25.1,26,24,26z"/>
	<path class="st2" d="M23,24L23,24c0.9-0.9,2.2-0.9,3.1,0l6.3,6.3c0.9,0.9,0.9,2.2,0,3.1l0,0c-0.9,0.9-2.2,0.9-3.1,0L23,27.1   C22.1,26.3,22.1,24.8,23,24z"/>
</g>

</svg>
