<?xml version="1.0" encoding="UTF-8"?>
<svg xmlns="http://www.w3.org/2000/svg" xmlns:xlink="http://www.w3.org/1999/xlink" width="32px" height="32px" viewBox="0 0 32 32" x="0px" y="0px" version="1.1">
  <defs/>
  <g>
    <rect x="10" y="18" width="3" height="3" fill="#ffffff" stroke="#ffffff" stroke-width="0"/>
    <path d="M30.1,14L16.8,3.6c-0.6-0.5-1.4-0.5-2,0L1.5,14c-0.6,0.5-0.7,1.5-0.2,2.1c0.5,0.6,1.5,0.7,2.1,0.2L4,16v11c0,0.5,0.5,1,1,1l22,0c0.5,0,1-0.5,1-1V16l0.1,0.3c0.3,0.2,0.6,0.4,1,0.4c0.4,0,0.9-0.2,1.2-0.5C30.8,15.5,30.7,14.5,30.1,14zM26,26h-4v-9h-6v9H6V14.5l9.8-7.8L26,14.5V26z" fill="#ffffff" stroke="#ffffff" stroke-width="0"/>
  </g>
</svg>
