<?xml version="1.0" encoding="utf-8"?>
<!-- Generator: Adobe Illustrator 19.2.1, SVG Export Plug-In . SVG Version: 6.00 Build 0)  -->
<svg version="1.1" id="Layer_1" xmlns="http://www.w3.org/2000/svg" xmlns:xlink="http://www.w3.org/1999/xlink" x="0px" y="0px"
	 viewBox="0 0 32 32" style="enable-background:new 0 0 32 32;" xml:space="preserve">
<style type="text/css">
	.st0{fill:#4A4A4A;}
</style>
<g>
	<rect x="10" y="16" class="st0" width="4" height="4"/>
	<path class="st0" d="M30.1,14L16.8,3.6c-0.6-0.5-1.4-0.5-2,0L1.5,14c-0.6,0.5-0.7,1.5-0.2,2.1s1.5,0.7,2.1,0.2L4,16v11
		c0,0.5,0.5,1,3,1h22c-1.5,0-1-0.5-1-1V16l0.1,0.3c0.3,0.2,0.6,0.4,1,0.4s0.9-0.2,1.2-0.5C30.8,15.5,30.7,14.5,30.1,14z M26,26h-2
		V16h-6v10H6V14.5l9.8-7.8L26,14.5V26z"/>
</g>
</svg>
