<?xml version="1.0" encoding="UTF-8"?>
<svg xmlns="http://www.w3.org/2000/svg" xmlns:xlink="http://www.w3.org/1999/xlink" width="32px" height="32px" viewBox="0 0 32 32" x="0px" y="0px" version="1.1">
  <defs>
    <path id="curvedarrow" d="M25.7,11.2l-5-5.1C20.5,6,20.3,6,20.1,6.1c-0.1,0-0.1,0.1-0.1,0.1c0,0,0,0,0,0c0,0-0.1,0.1-0.1,0.1c0,0,0,0,0,0c0,0,0,0.1,0,0.1c0,0,0,0,0,0c0,0,0,0.1,0,0.1V9c-5.5,0.6-9,3.7-9,7c0,2.3,2,4.4,5.4,5.6c0,0,0.1,0,0.1,0c0.1,0,0.3-0.1,0.3-0.2c0.1-0.2,0-0.4-0.2-0.5c-1.7-0.8-2.6-1.9-2.6-3.1c0-2,2.2-3.6,5.9-3.8l0,2.4c0,0.2,0.1,0.4,0.3,0.5c0,0,0.1,0,0.1,0c0,0,0.1,0,0.1,0h0c0.1,0,0.3,0,0.4-0.1l5-4.7c0.2-0.1,0.3-0.3,0.3-0.5C26,11.5,25.9,11.3,25.7,11.2z"/>
  </defs>
  <g>
    <use xlink:href="#curvedarrow" fill="#ffffff" stroke="#ffffff" stroke-width="0" transform="rotate(90) translate(-6 -6) scale(1 -1)"/>
    <path d="M27,16c-0.4,0-1,0.6-1,1v9H6V10h3c0.4,0,1-0.6,1-1c0-0.4-0.6-1-1-1H5C4.6,8,4,8.6,4,9v18c0,0.4,0.6,1,1,1h22c0.4,0,1-0.6,1-1V17C28,16.6,27.4,16,27,16z" fill="#ffffff" stroke="#ffffff" stroke-width="0"/>
  </g>
</svg>
