<?xml version="1.0" encoding="utf-8"?>
<!-- Generator: Adobe Illustrator 19.2.1, SVG Export Plug-In . SVG Version: 6.00 Build 0)  -->
<svg version="1.1" id="Layer_2" xmlns="http://www.w3.org/2000/svg" xmlns:xlink="http://www.w3.org/1999/xlink" x="0px" y="0px"
	 viewBox="0 0 48 48" style="enable-background:new 0 0 48 48;" xml:space="preserve">
<style type="text/css">
	.st0{fill:#4A4A4A;}
</style>
<g>
	<path class="st0" d="M38.7,4H9.3C8,4,8,5.4,8,5.4v37.1c0,0,0,1.4,1.3,1.4h29.3c1.3,0,1.3-1.4,1.3-1.4V5.4C40,5.4,40,4,38.7,4z
		 M38,42H10V6h28V42z"/>
	<g >
		<path id="checkmark" class="st0" d="M15,39.3c0.2,0.3,0.5,0.4,0.8,0.4l0,0l0,0c0.4,0,0.6-0.2,0.8-0.5l6.2-8.3
			c0.4-0.5,0.3-1.2-0.2-1.6c-0.4-0.4-1.2-0.3-1.5,0.2l-5.4,7.2l-2.5-3.3c-0.3-0.4-1-0.5-1.4-0.1s-0.5,1.1-0.1,1.6L15,39.3z"/>
	</g>
	<g id="Layer_2_1_">
		<polygon class="st0" points="35,40 25,30 26,29 36,38.9 		"/>
		<polygon class="st0" points="25,39 35,29 36,30 26,40 		"/>
	</g>
	<rect x="14" y="10" class="st0" width="20" height="2"/>
	<rect x="14" y="14" class="st0" width="20" height="2"/>
	<rect x="14" y="18" class="st0" width="20" height="2"/>
	<rect x="14" y="22" class="st0" width="20" height="2"/>
</g>
</svg>
