<?xml version="1.0" encoding="UTF-8"?>
<svg xmlns="http://www.w3.org/2000/svg" xmlns:xlink="http://www.w3.org/1999/xlink" width="32px" height="32px" viewBox="0 0 32 32" x="0px" y="0px" version="1.1">
  <defs/>
  <g>
    <path d="M10.7,15.6C10.4,15.6 10.2,15.4 10.1,15.2C10,15 10,14.7 10.2,14.5L14.5,8.5C14.6,8.3 14.8,8.2 15,8.2C15.2,8.2 15.4,8.3 15.5,8.5L19.8,14.5C20,14.7 20,15 19.9,15.2C19.8,15.5 19.5,15.6 19.3,15.6L16.5,15.6L16.5,22L22.9,22C23.7,22 24.4,22.7 24.4,23.5C24.4,24.3 23.7,25 22.9,25L15,25L15,25L15,25C14.2,25 13.5,24.3 13.5,23.5L13.5,15.6L10.7,15.6Z" fill="#4a4a4a" stroke="#4a4a4a" stroke-width="0"/>
  </g>
</svg>
