<?xml version="1.0" encoding="utf-8"?>
<!-- Generator: Adobe Illustrator 21.0.0, SVG Export Plug-In . SVG Version: 6.00 Build 0)  -->
<svg version="1.1" id="Layer_1" xmlns="http://www.w3.org/2000/svg" xmlns:xlink="http://www.w3.org/1999/xlink" x="0px" y="0px"
	 viewBox="0 0 48 48" style="enable-background:new 0 0 48 48;" xml:space="preserve">
<style type="text/css">
	.st0{fill:#4A4A4A;}
</style>
<g>
	<g>
		<path class="st0" d="M24.1,24.1l-0.2-0.2c-2.3-2.3-6-2.3-8.3,0l-8.7,8.7c-2.3,2.3-2.3,6,0,8.3l0.2,0.2c2.3,2.3,6,2.3,8.3,0
			l8.7-8.7C26.4,30.1,26.4,26.4,24.1,24.1z M21.2,29.7L12.8,38c-0.8,0.8-2.2,0.8-3,0c-0.7-0.7-0.7-1.9,0-2.6l8.6-8.6
			c0.8-0.8,2-0.8,2.8,0S22,28.9,21.2,29.7z"/>
	</g>
</g>
<g>
	<g>
		<path class="st0" d="M41.1,7.1l-0.2-0.2c-2.3-2.3-6-2.3-8.3,0l-8.7,8.7c-2.3,2.3-2.3,6,0,8.3l0.2,0.2c2.3,2.3,6,2.3,8.3,0l8.7-8.7
			C43.4,13.1,43.4,9.4,41.1,7.1z M38.1,12.7l-8.4,8.4c-0.8,0.8-2.2,0.8-3,0c-0.7-0.7-0.7-1.9,0-2.6l8.6-8.6c0.8-0.8,2-0.8,2.8,0
			C38.9,10.6,38.9,11.9,38.1,12.7z"/>
	</g>
</g>
<path class="st0" d="M30.4,20.5l-9.9,9.9c-0.8,0.8-2,0.8-2.8,0l0,0c-0.8-0.8-0.8-2,0-2.8l9.9-9.9c0.8-0.8,2-0.8,2.8,0l0,0
	C31.1,18.4,31.1,19.7,30.4,20.5z"/>
</svg>
