<?xml version="1.0" encoding="utf-8"?>
<!-- Generator: Adobe Illustrator 19.2.1, SVG Export Plug-In . SVG Version: 6.00 Build 0)  -->
<svg version="1.1" id="Layer_1" xmlns="http://www.w3.org/2000/svg" xmlns:xlink="http://www.w3.org/1999/xlink" x="0px" y="0px"
	 viewBox="0 0 32 32" style="enable-background:new 0 0 32 32;" xml:space="preserve">
<style type="text/css">
	.st0{fill:#4A4A4A;}
</style>
<g>
	<path class="st0" d="M20.8,7.2C20.1,6.9,19.3,7,19,7.6c-0.3,0.6-0.2,1.5,0.4,1.8c2.6,1.6,4.3,4.5,4.3,7.5c0,4.8-4,8.7-8.8,8.7
		s-8.8-4-8.8-8.7c0-3.1,1.7-5.9,4.3-7.5C11,9,11.2,8.2,10.8,7.6C10.5,7,9.7,6.8,9,7.2c-3.3,2-5.4,5.7-5.4,9.7
		c0,6.2,5.1,11.3,11.4,11.3s11.4-5.1,11.4-11.3C26.4,12.9,24.2,9.1,20.8,7.2z"/>
</g>
<rect x="14" y="2" class="st0" width="2" height="14"/>
</svg>
