<?xml version="1.0" encoding="utf-8"?>
<!-- Generator: Adobe Illustrator 21.0.0, SVG Export Plug-In . SVG Version: 6.00 Build 0)  -->
<svg version="1.1" id="Layer_3" xmlns="http://www.w3.org/2000/svg" xmlns:xlink="http://www.w3.org/1999/xlink" x="0px" y="0px"
	 viewBox="0 0 48 48" style="enable-background:new 0 0 48 48;" xml:space="preserve">
<style type="text/css">
	.st0{fill:#4A4A4A;}
</style>
<g>
	<g>
		<path class="st0" d="M22,24c0-5.5-4.5-10-10-10S2,18.5,2,24c0,0.3,0,0.5,0,0.8C2,24.9,2,25,2,25c0,5.4,10.5,19,10.5,19
			S22,30.3,22,25c0-0.1,0-0.2,0-0.2C22,24.5,22,24.3,22,24z M12,31c-3.9,0-7-3.1-7-7s3.1-7,7-7s7,3.1,7,7S15.9,31,12,31z"/>
	</g>
</g>
<g>
	<g>
		<path class="st0" d="M46,10c0-5.5-4.5-10-10-10S26,4.5,26,10c0,0.3,0,0.5,0,0.8c0,0.1,0,0.2,0,0.2c0,5.4,10.5,19,10.5,19
			S46,16.3,46,11c0-0.1,0-0.2,0-0.2C46,10.5,46,10.3,46,10z M36,17c-3.9,0-7-3.1-7-7s3.1-7,7-7s7,3.1,7,7S39.9,17,36,17z"/>
	</g>
</g>
<ellipse class="st0" cx="36" cy="33" rx="6" ry="1"/>
<ellipse class="st0" cx="12" cy="47" rx="6" ry="1"/>
</svg>
