<?xml version="1.0" encoding="utf-8"?>
<!-- Generator: Adobe Illustrator 19.2.1, SVG Export Plug-In . SVG Version: 6.00 Build 0)  -->
<svg version="1.1" id="Layer_1" xmlns="http://www.w3.org/2000/svg" xmlns:xlink="http://www.w3.org/1999/xlink" x="0px" y="0px"
	 viewBox="0 0 48 48" style="enable-background:new 0 0 48 48;" xml:space="preserve">
<style type="text/css">
	.st0{fill:#4A4A4A;}
</style>
<path class="st0" d="M24,46C11.9,46,2,36.1,2,24S11.9,2,24,2s22,9.9,22,22S36.1,46,24,46z M24,6C14.1,6,6,14.1,6,24
	c0,9.9,8.1,18,18,18c9.9,0,18-8.1,18-18C42,14.1,33.9,6,24,6z"/>
<path class="st0" d="M24,45c-7.9,0-14-9.2-14-21c0-11.8,6.1-21,14-21c7.9,0,14,9.2,14,21C38,35.8,31.9,45,24,45z M24,5
	c-6.2,0-11.5,8.7-11.5,19S17.8,43,24,43c6.2,0,11.5-8.7,11.5-19S30.2,5,24,5z"/>
<rect x="4" y="24" class="st0" width="40" height="2"/>
<rect x="7" y="16" class="st0" width="34" height="2"/>
<rect x="6" y="32" class="st0" width="36" height="2"/>
<path class="st0" d="M24,45.5c-5.1,0-6.5-13.5-6.5-21.5S18.9,2.5,24,2.5S30.5,16,30.5,24S29.1,45.5,24,45.5z M24,5.5
	c-1.3,0.6-3.5,7.4-3.5,18.5c0,11.1,2.2,17.9,3.5,18.5c1.3-0.6,3.5-7.4,3.5-18.5C27.5,12.9,25.3,6.1,24,5.5z"/>
</svg>
