<?xml version="1.0" encoding="utf-8"?>
<!-- Generator: Adobe Illustrator 24.1.2, SVG Export Plug-In . SVG Version: 6.00 Build 0)  -->
<svg version="1.1" id="Layer_1" xmlns="http://www.w3.org/2000/svg" xmlns:xlink="http://www.w3.org/1999/xlink" x="0px" y="0px"
	 viewBox="0 0 32 32" style="enable-background:new 0 0 32 32;" xml:space="preserve">
<style type="text/css">
	.st0{fill:#4A4A4A;}
</style>
<g id="Layer_2_1_">
	<path class="st0" d="M18.8,6h8.5C27.6,6,28,6.3,28,6.8v0.5C28,7.7,27.6,8,27.2,8h-8.5C18.4,8,18,7.7,18,7.2V6.8
		C18,6.3,18.4,6,18.8,6z"/>
	<path class="st0" d="M26,15.2V6.8C26,6.3,26.4,6,26.8,6h0.5C27.6,6,28,6.3,28,6.8v8.5c0,0.4-0.4,0.8-0.8,0.8h-0.5
		C26.4,16,26,15.6,26,15.2z"/>
	<path class="st0" d="M16.3,16.2l9.1-9.1c0.3-0.3,0.9-0.3,1.1,0l0.6,0.6c0.3,0.3,0.3,0.9,0,1.1L18,18c-0.3,0.3-0.8,0.3-1.1,0
		l-0.6-0.6C16,17,16,16.5,16.3,16.2z"/>
	<g>
		<g>
			<path class="st0" d="M22,16.5v7c0,0.3-0.2,0.5-0.5,0.5h-15C6.2,24,6,23.8,6,23.5v-11C6,12.2,6.2,12,6.5,12H18l2-2H4.5
				C4.2,10,4,10.2,4,10.5v15C4,25.8,4.2,26,4.5,26h19c0.3,0,0.5-0.2,0.5-0.5v-11L22,16.5z"/>
		</g>
	</g>
</g>
<g id="Layer_3">
</g>
</svg>
