<?xml version="1.0" encoding="utf-8"?>
<!-- Generator: Adobe Illustrator 24.1.2, SVG Export Plug-In . SVG Version: 6.00 Build 0)  -->
<svg version="1.1" id="Layer_1" xmlns="http://www.w3.org/2000/svg" xmlns:xlink="http://www.w3.org/1999/xlink" x="0px" y="0px"
	 viewBox="0 0 48 48" style="enable-background:new 0 0 48 48;" xml:space="preserve">
<style type="text/css">
	.st0{fill:#4A4A4A;}
</style>
<g id="Layer_1_1_">
</g>
<g id="Layer_2_1_">
	<path class="st0" d="M25.5,4h17C43.3,4,44,4.7,44,5.5v1C44,7.3,43.3,8,42.5,8h-17C24.7,8,24,7.3,24,6.5v-1C24,4.7,24.7,4,25.5,4z"
		/>
	<path class="st0" d="M40,22.5v-17C40,4.7,40.7,4,41.5,4h1C43.3,4,44,4.7,44,5.5v17c0,0.8-0.7,1.5-1.5,1.5h-1
		C40.7,24,40,23.3,40,22.5z"/>
	<path class="st0" d="M20.6,24.4L38.7,6.3c0.6-0.6,1.7-0.6,2.3,0l1.2,1.2c0.6,0.6,0.6,1.7,0,2.3L24.1,27.9c-0.6,0.6-1.7,0.6-2.3,0
		l-1.2-1.2C20,26,20,25,20.6,24.4z"/>
	<g>
		<g>
			<path class="st0" d="M32,25v10c0,0.6-0.4,1-1,1H9c-0.6,0-1-0.4-1-1V17c0-0.6,0.4-1,1-1h15l4-4H5c-0.6,0-1,0.4-1,1v26
				c0,0.6,0.4,1,1,1h30c0.6,0,1-0.4,1-1V21L32,25z"/>
		</g>
	</g>
</g>
<g id="Layer_3">
</g>
</svg>
