<?xml version="1.0" encoding="utf-8"?>
<!-- Generator: Adobe Illustrator 19.2.1, SVG Export Plug-In . SVG Version: 6.00 Build 0)  -->
<svg version="1.1" id="Layer_1" xmlns="http://www.w3.org/2000/svg" xmlns:xlink="http://www.w3.org/1999/xlink" x="0px" y="0px"
	 viewBox="0 0 48 48" style="enable-background:new 0 0 48 48;" xml:space="preserve">
<style type="text/css">
	.st0{fill:#4A4A4A;}
</style>
<g>
	<g>
		<path class="st0" d="M45,4H30l-8,8H4v10.1l4,0V16h16l8-8h12v29.2l1,3.8H6l-2-9.5V41c0,1.7,1.1,3,3,3c0,0,36.5,0,38,0s3-1.4,3-2.9
			V7C48,5.5,46.5,4,45,4z"/>
	</g>
</g>
<polygon class="st0" points="0,21.1 4,21 8,40 4,40 "/>
<polygon class="st0" points="38,21.1 42,21 46,40 42,40 "/>
<polygon class="st0" points="-0.1,24 42.6,24 41.9,20 -0.1,20 "/>
<rect x="5" y="40" class="st0" width="41" height="2"/>
</svg>
