<?xml version="1.0" encoding="utf-8"?>
<!-- Generator: Adobe Illustrator 21.0.0, SVG Export Plug-In . SVG Version: 6.00 Build 0)  -->
<svg version="1.1" id="Layer_1" xmlns="http://www.w3.org/2000/svg" xmlns:xlink="http://www.w3.org/1999/xlink" x="0px" y="0px"
	 viewBox="0 0 32 32" style="enable-background:new 0 0 32 32;" xml:space="preserve">
<style type="text/css">
	.st0{fill:#4A4A4A;}
</style>
<g>
	<path class="st0" d="M13,24h-2c-0.6,0-1-0.5-1-1V9c0-0.6,0.4-1,1-1h2c0.6,0,1,0.4,1,1v14C14,23.5,13.6,24,13,24z"/>
	<path class="st0" d="M21,24h-2c-0.5,0-1-0.5-1-1V9c0-0.6,0.5-1,1-1h2c0.5,0,1,0.4,1,1v14C22,23.5,21.5,24,21,24z"/>
</g>
</svg>
