<?xml version="1.0" encoding="utf-8"?>
<!-- Generator: Adobe Illustrator 21.0.0, SVG Export Plug-In . SVG Version: 6.00 Build 0)  -->
<svg version="1.1" id="Layer_1" xmlns="http://www.w3.org/2000/svg" xmlns:xlink="http://www.w3.org/1999/xlink" x="0px" y="0px"
	 viewBox="0 0 48 48" style="enable-background:new 0 0 48 48;" xml:space="preserve">
<style type="text/css">
	.st0{fill:#4A4A4A;}
</style>
<g>
	<path class="st0" d="M19,40h-4c-1.2,0-2-1-2-2V10c0-1.2,0.8-2,2-2h4c1.2,0,2,0.8,2,2v28C21,39,20.2,40,19,40z"/>
	<path class="st0" d="M35,40h-4c-1,0-2-1-2-2V10c0-1.2,1-2,2-2h4c1,0,2,0.8,2,2v28C37,39,36,40,35,40z"/>
</g>
</svg>
