<?xml version="1.0" encoding="utf-8"?>
<!-- Generator: Adobe Illustrator 19.2.1, SVG Export Plug-In . SVG Version: 6.00 Build 0)  -->
<svg version="1.1" id="Layer_1" xmlns="http://www.w3.org/2000/svg" xmlns:xlink="http://www.w3.org/1999/xlink" x="0px" y="0px"
	 viewBox="0 0 48 48" style="enable-background:new 0 0 48 48;" xml:space="preserve">
<style type="text/css">
	.st0{fill:#F3F3F3;}
	.st1{fill:#4A4A4A;}
</style>
<g id="Layer_2_1_">
	<g>
		<g>
			<path class="st0" d="M42,12h-4v4h2v12H8V16h2v-4H6c-1.1,0-2,0.9-2,2v16c0,1.1,0.9,2,2,2h36c1.1,0,2-0.9,2-2V14
				C44,12.9,43.1,12,42,12z"/>
		</g>
	</g>
</g>
<g id="Layer_3">
	<g>
		<g>
			<path class="st0" d="M32,6H12v14h24V10L32,6z"/>
		</g>
	</g>
	<rect x="24" y="24" class="st0" width="8" height="2"/>
	<path class="st0" d="M37,26L37,26c-0.6,0-1-0.4-1-1l0,0c0-0.6,0.4-1,1-1l0,0c0.6,0,1,0.4,1,1l0,0C38,25.6,37.6,26,37,26z"/>
</g>
<g>
	<g>
		<path class="st0" d="M12,34v10h24V34H12z"/>
	</g>
</g>
<rect x="16" y="36" class="st1" width="16" height="2"/>
<rect x="16" y="40" class="st1" width="16" height="2"/>
</svg>
