<?xml version="1.0" encoding="utf-8"?>
<!-- Generator: Adobe Illustrator 19.2.1, SVG Export Plug-In . SVG Version: 6.00 Build 0)  -->
<svg version="1.1" id="Layer_1" xmlns="http://www.w3.org/2000/svg" xmlns:xlink="http://www.w3.org/1999/xlink" x="0px" y="0px"
	 viewBox="0 0 48 48" style="enable-background:new 0 0 48 48;" xml:space="preserve">
<style type="text/css">
	.st0{fill:url(#SVGID_1_);}
	.st1{fill:#B7B7B7;}
	.st2{fill:#4A4A4A;}
	.st3{fill:#0592E1;}
</style>
<g id="Layer_4">
	
		<linearGradient id="SVGID_1_" gradientUnits="userSpaceOnUse" x1="38.75" y1="7.75" x2="9.25" y2="37.25" gradientTransform="matrix(1 0 0 -1 0 48)">
		<stop  offset="0" style="stop-color:#FFFFFF"/>
		<stop  offset="0.6227" style="stop-color:#F0F0F0"/>
		<stop  offset="1" style="stop-color:#F4F4F4"/>
	</linearGradient>
	<polygon class="st0" points="42,14 35,14 35,12 31,7 13,7 13,14 6,14 6,30 13,30 13,44 35,44 35,30 42,30 	"/>
</g>
<g id="Layer_5">
	<polygon class="st1" points="42,30 6,30 6,14 13,14 13,20 35,20 35,14 42,14 	"/>
</g>
<g id="Layer_2_1_">
	<g>
		<g>
			<path class="st2" d="M42,12h-6v4h4v12H8V16h4v-4H6c-1.1,0-2,0.9-2,2v16c0,1.1,0.9,2,2,2h36c1.1,0,2-0.9,2-2V14
				C44,12.9,43.1,12,42,12z"/>
		</g>
	</g>
</g>
<g id="Layer_3">
	<g>
		<g>
			<path class="st2" d="M32,6H12v14h24V10L32,6z M34,18H14V8h17l3,3V18z"/>
		</g>
	</g>
	<rect x="24" y="24" class="st2" width="8" height="2"/>
	<path class="st2" d="M37,26L37,26c-0.6,0-1-0.4-1-1l0,0c0-0.6,0.4-1,1-1l0,0c0.6,0,1,0.4,1,1l0,0C38,25.6,37.6,26,37,26z"/>
</g>
<g id="Layer_3_copy">
	<g>
		<g>
			<path class="st2" d="M12,30v14h24V30H12z M34,42H14V32h20V42z"/>
		</g>
	</g>
	<rect x="16" y="34" class="st3" width="16" height="2"/>
	<rect x="16" y="38" class="st3" width="16" height="2"/>
</g>
</svg>
