<?xml version="1.0" encoding="UTF-8"?>
<svg xmlns="http://www.w3.org/2000/svg" xmlns:xlink="http://www.w3.org/1999/xlink" width="32px" height="32px" viewBox="0 0 32 32" x="0px" y="0px" version="1.1">
  <defs/>
  <g>
    <path d="M21,22v7H11v-7h-1v7c0,0,0,1,1,1h10c1,0,1-1,1-1v-7H21z" fill="#ffffff" stroke="#ffffff" stroke-width="0"/>
    <path d="M28,6h-5V5c0-0.1,0-1,0-1l-1.6-1.8C21.3,2.1,21.1,2,21,2H10c0,0,0,0,0,0C9,2,9,3,9,3v3H4.3C3,6,2,7.1,2,8.4v9.5C2,19.1,2.8,20,4,20h24c1.2,0,2-0.8,2-2V8C30,6.8,29.2,6,28,6zM10,4h11l1,1v3H10V4zM28,17.6c0,0.2-0.2,0.4-0.4,0.4H4.4C4.2,18,4,17.8,4,17.6V8.4C4,8.2,4.2,8,4.4,8H9l0,1.4c0,0.1,0,0.1,0,0.2c0,0.1,0.1,0.2,0.1,0.2C9.3,9.9,9.4,10,9.5,10h0l12.9,0l0.2,0c0,0-0.2,0-0.2,0c0.3,0,0.5-0.7,0.5-1V8l0,0h4.6C27.8,8,28,8.2,28,8.4V17.6z" fill="#ffffff" stroke="#ffffff" stroke-width="0"/>
    <path d="M13,24h6c0.2,0,0.4-0.3,0.4-0.5c0-0.2-0.2-0.5-0.4-0.5h-6c-0.2,0-0.4,0.3-0.4,0.5C12.6,23.7,12.8,24,13,24z" fill="#ffffff" stroke="#ffffff" stroke-width="0"/>
    <rect x="13" y="15" width="7" height="2" fill="#ffffff" stroke="#ffffff" stroke-width="0"/>
    <circle cx="24.1" cy="15.9" r="0.9" fill="#ffffff" stroke="#ffffff" stroke-width="0"/>
    <path d="M13,27h6c0.2,0,0.4-0.3,0.4-0.5c0-0.2-0.2-0.5-0.4-0.5h-6c-0.2,0-0.4,0.3-0.4,0.5C12.6,26.7,12.8,27,13,27z" fill="#ffffff" stroke="#ffffff" stroke-width="0"/>
  </g>
</svg>
