<?xml version="1.0" encoding="utf-8"?>
<!-- Generator: Adobe Illustrator 19.2.1, SVG Export Plug-In . SVG Version: 6.00 Build 0)  -->
<svg version="1.1" id="Layer_1" xmlns="http://www.w3.org/2000/svg" xmlns:xlink="http://www.w3.org/1999/xlink" x="0px" y="0px"
	 viewBox="0 0 32 32" style="enable-background:new 0 0 32 32;" xml:space="preserve">
<style type="text/css">
	.st0{fill:#F3F3F3;}
</style>
<g>
	<path class="st0" d="M28,8h-4V7c0-0.1,0-1,0-1l-1.6-1.8C22.3,4.1,22.1,4,22,4H9l0,0C8,4,8,5,8,5v3H4.3C3,8,2,9.1,2,10.4v9.5
		C2,21.1,2.8,22,4,22h24c1.2,0,2-0.8,2-2V10C30,8.8,29.2,8,28,8z M28,19.6c0,0.2-0.2,0.4-0.4,0.4H4.4C4.2,20,4,19.8,4,19.6v-9.2
		C4,10.2,4.2,10,4.4,10H8v1.4c0,0.1,0,0.1,0,0.2c0,0.1,0.1,0.2,0.1,0.2C8.3,11.9,8.4,12,8.5,12l0,0h15h0.2h-0.2c0.3,0,0.5-0.7,0.5-1
		v-1l0,0h3.5c0.3,0,0.5,0.2,0.5,0.4V19.6z"/>
	<rect x="12" y="16" class="st0" width="8" height="2"/>
	<circle class="st0" cx="23.9" cy="16.9" r="0.9"/>
	<g>
		<g>
			<g>
				<path class="st0" d="M22,22v2H10v-2H8v7c0,0,0,1,1,1h14c1,0,1-1,1-1v-7H22z M22,28H10v-2h12V28z"/>
			</g>
		</g>
	</g>
</g>
</svg>
