<?xml version="1.0" encoding="utf-8"?>
<!-- Generator: Adobe Illustrator 19.2.1, SVG Export Plug-In . SVG Version: 6.00 Build 0)  -->
<svg version="1.1" id="Layer_1" xmlns="http://www.w3.org/2000/svg" xmlns:xlink="http://www.w3.org/1999/xlink" x="0px" y="0px"
	 viewBox="0 0 32 32" style="enable-background:new 0 0 32 32;" xml:space="preserve">
<style type="text/css">
	.st0{fill:#4A4A4A;}
</style>
<g>
	<g transform="rotate(119) translate(-11 -4) scale(1 -1)">
		<path id="curvedarrow" class="st0" d="M14.4,25l-5.3-4.7c-0.1-0.2-0.1-0.4,0-0.6l0.1-0.1l0,0l0.1-0.1l0,0l0.1-0.1l0,0
			l0.1-0.1l2.5-0.1c0.3-5.5,3.2-9.2,6.5-9.4c2.3-0.1,4.5,1.7,5.9,5.1l0.1,0.1c0.1,0.1-0.1,0.3-0.1,0.3c-0.2,0.1-0.4,0-0.5-0.2
			c-0.9-1.7-2.1-2.4-3.3-2.4c-2.1,0.1-3.5,2.4-3.5,6.1l2.4-0.1c0.2,0,0.4,0.1,0.5,0.3l0.1,0.1l0.1,0.1l0,0c0,0.1,0,0.4-0.1,0.4
			l-4.4,5.2c-0.1,0.2-0.3,0.3-0.5,0.3C14.8,25.2,14.6,25.1,14.4,25z"/>
	</g>
</g>
</svg>
