<?xml version="1.0" encoding="UTF-8"?>
<svg xmlns="http://www.w3.org/2000/svg" xmlns:xlink="http://www.w3.org/1999/xlink" width="32px" height="32px" viewBox="0 0 32 32" x="0px" y="0px" version="1.1">
  <defs>
    <path id="arrowrightturn" d="M28.896,19.784l-3.631-5.157c-0.104-0.144-0.266-0.231-0.441-0.231c-0.173,0-0.338,0.087-0.439,0.231l-3.632,5.156c-0.119,0.172-0.138,0.397-0.045,0.585c0.094,0.188,0.282,0.307,0.484,0.307h2.012c-0.438,0.765-0.996,1.463-1.674,2.053c-1.582,1.375-3.586,2.032-5.646,1.853c-2.003-0.178-3.835-1.133-5.161-2.69c-0.461-0.541-1.262-0.598-1.788-0.121c-0.526,0.477-0.579,1.304-0.117,1.846c1.759,2.067,4.191,3.336,6.851,3.572c0.298,0.024,0.594,0.038,0.89,0.038c2.417,0,4.736-0.871,6.605-2.497c1.28-1.114,2.255-2.502,2.875-4.053h2.419c0.204,0,0.391-0.119,0.484-0.307C29.033,20.181,29.016,19.955,28.896,19.784z"/>
    <path id="arrowleftturn" d="M8.706,18.618l3.632-5.159c0.119-0.17,0.137-0.397,0.044-0.583c-0.093-0.188-0.28-0.308-0.484-0.308H9.866c1.474-2.596,4.286-4.168,7.331-3.903c2.021,0.178,3.863,1.146,5.19,2.724c0.459,0.546,1.258,0.604,1.788,0.132c0.527-0.474,0.585-1.3,0.128-1.845c-1.763-2.097-4.211-3.381-6.892-3.617c-4.538-0.4-8.69,2.281-10.371,6.51H4.634c-0.204,0-0.391,0.12-0.484,0.308c-0.093,0.186-0.075,0.413,0.044,0.583l3.632,5.159c0.103,0.146,0.266,0.23,0.439,0.23C8.44,18.849,8.603,18.764,8.706,18.618z"/>
  </defs>
  <g>
    <use xlink:href="#arrowrightturn" fill="#ffffff" stroke="#ffffff" stroke-width="0"/>
    <use xlink:href="#arrowleftturn" fill="#ffffff" stroke="#ffffff" stroke-width="0"/>
  </g>
</svg>
