<?xml version="1.0" encoding="utf-8"?>
<!-- Generator: Adobe Illustrator 27.2.0, SVG Export Plug-In . SVG Version: 6.00 Build 0)  -->
<svg version="1.1" id="Layer_3" xmlns="http://www.w3.org/2000/svg" xmlns:xlink="http://www.w3.org/1999/xlink" x="0px" y="0px"
	 viewBox="0 0 48 48" style="enable-background:new 0 0 48 48;" xml:space="preserve">
<style type="text/css">
	.st0{fill:#4A4A4A;}
</style>
<path class="st0" d="M12,8v30h36V8H12z M44,34H16V12h28V34z"/>
<rect y="16" class="st0" width="10" height="2"/>
<rect x="2" y="22" class="st0" width="8" height="2"/>
<rect x="4" y="28" class="st0" width="6" height="2"/>
<g>
	<g>
		<path id="refreshsymbol" class="st0" d="M36.2,14.6l0.1,5.3c0,0.2-0.1,0.3-0.2,0.3c-0.1,0.1-0.3,0.1-0.4,0.1l-5.1-1.5
			c-0.2-0.1-0.3-0.2-0.3-0.3c0-0.2,0-0.3,0.2-0.4l1.4-1.1c-0.7-0.3-1.4-0.4-2.2-0.5c-1.8-0.1-3.5,0.5-4.8,1.7
			c-1.4,1.2-2.1,2.8-2.2,4.6c-0.1,1.8,0.5,3.5,1.7,4.8c1.2,1.4,2.8,2.1,4.6,2.2c1.8,0.1,3.5-0.5,4.8-1.7c1.3-1.2,2-2.8,2.2-4.5
			c0-0.6,0.6-1,1.2-1s1,0.6,1,1.2C38,25.9,37,28,35.3,29.6c-1.8,1.6-4,2.4-6.4,2.3s-4.5-1.2-6.1-2.9c-1.6-1.8-2.4-4-2.3-6.4
			c0.1-2.4,1.2-4.5,2.9-6.1c0.3-0.1,0.4-0.3,0.7-0.4c1.6-1.3,3.6-1.9,5.8-1.8c1.4,0.1,2.8,0.5,4,1.2l1.6-1.3
			c0.2-0.1,0.3-0.1,0.5-0.1C36.1,14.3,36.2,14.5,36.2,14.6z"/>
	</g>
</g>
</svg>
