<?xml version="1.0" encoding="utf-8"?>
<!-- Generator: Adobe Illustrator 19.2.1, SVG Export Plug-In . SVG Version: 6.00 Build 0)  -->
<svg version="1.1" id="Layer_1" xmlns="http://www.w3.org/2000/svg" xmlns:xlink="http://www.w3.org/1999/xlink" x="0px" y="0px"
	 viewBox="0 0 32 32" style="enable-background:new 0 0 32 32;" xml:space="preserve">
<style type="text/css">
	.st0{fill:#4A4A4A;}
	.st1{fill:#0592E1;}
</style>
<g>
	<g>
		<path id="file-outline" class="st0" d="M17,0H6C4,0,4,2,4,2v28c0,0,0,2,2,2h20c2,0,2-2,2-2V11L17,0z M26,29c0,0,0,1-1,1H7
			c-1,0-1-0.6-1-0.9V3c0,0,0-1,1-1h9l10,10V29z"/>
	</g>
	<g>
		<path id="file-corner" class="st0" d="M28,1c0-1-1-1-1-1h-6.2c-0.3,0-0.6,0-0.7,0.3S20,0.9,20.3,1.1l6.5,6.1
			c0.2,0.2,0.6,0.3,0.8,0.2C27.8,7.2,28,6.9,28,6.6"/>
	</g>
</g>
<g>
	<g>
		<path id="refreshsymbol_2_" class="st1" d="M11.5,12.1c1.8-1,3.7-1.4,5.6-1c0.3,0,0.5,0.1,0.7,0.1c2.1,0.6,3.9,1.9,5,3.8
			s1.3,4.1,0.7,6.2c-0.7,2.1-2,3.9-4,5c-2,1.1-4.2,1.4-6.3,0.8c-2.1-0.5-3.8-1.8-4.9-3.7c-0.2-0.5-0.1-1.2,0.4-1.4
			c0.5-0.3,1.2-0.2,1.4,0.3c0.8,1.3,2.2,2.3,3.7,2.8s3.2,0.2,4.7-0.6c1.5-0.8,2.5-2.1,3-3.8c0.5-1.6,0.3-3.2-0.5-4.6
			s-2.1-2.4-3.8-2.8c-1.6-0.4-3.2-0.2-4.7,0.6"/>
	</g>
</g>
<polygon class="st1" points="16,16 16,8 10,12 "/>
</svg>
