<?xml version="1.0" encoding="utf-8"?>
<!-- Generator: Adobe Illustrator 19.2.1, SVG Export Plug-In . SVG Version: 6.00 Build 0)  -->
<svg version="1.1" id="Layer_1" xmlns="http://www.w3.org/2000/svg" xmlns:xlink="http://www.w3.org/1999/xlink" x="0px" y="0px"
	 viewBox="0 0 32 32" style="enable-background:new 0 0 32 32;" xml:space="preserve">
<style type="text/css">
	.st0{fill:#F3F3F3;}
</style>
<g>
	<g>
		<path id="refreshsymbol" class="st0" d="M23.7,6.3l0.1,6.2c0,0.2-0.1,0.3-0.2,0.4C23.5,13,23.3,13,23.1,13l-6-1.8
			c-0.2-0.1-0.3-0.2-0.4-0.4c0-0.2,0-0.4,0.2-0.5L18.6,9c-0.8-0.3-1.7-0.5-2.6-0.6c-2.1-0.1-4.1,0.6-5.6,2c-1.6,1.4-2.5,3.3-2.6,5.4
			s0.6,4.1,2,5.6c1.4,1.6,3.3,2.5,5.4,2.6s4.1-0.6,5.6-2s2.4-3.3,2.6-5.3c0-0.7,0.7-1.2,1.4-1.2c0.7,0,1.2,0.7,1.2,1.4
			c-0.2,2.7-1.4,5.2-3.4,7c-2.1,1.9-4.7,2.8-7.5,2.7c-2.8-0.1-5.3-1.4-7.2-3.4c-1.9-2.1-2.8-4.7-2.7-7.5c0.1-2.8,1.4-5.3,3.4-7.2
			C8.9,8.4,9.1,8.2,9.4,8c1.9-1.5,4.3-2.2,6.8-2.1c1.7,0.1,3.3,0.6,4.7,1.4l1.9-1.5c0.2-0.1,0.4-0.1,0.6-0.1
			C23.6,5.9,23.7,6.1,23.7,6.3z"/>
	</g>
</g>
<circle class="st0" cx="15.5" cy="16.5" r="2.5"/>
</svg>
