<?xml version="1.0" encoding="utf-8"?>
<!-- Generator: Adobe Illustrator 19.2.1, SVG Export Plug-In . SVG Version: 6.00 Build 0)  -->
<svg version="1.1" id="Layer_1" xmlns="http://www.w3.org/2000/svg" xmlns:xlink="http://www.w3.org/1999/xlink" x="0px" y="0px"
	 viewBox="0 0 48 48" style="enable-background:new 0 0 48 48;" xml:space="preserve">
<style type="text/css">
	.st0{fill:#F3F3F3;}
</style>
<rect x="6" y="4" class="st0" width="4" height="38"/>
<rect x="6" y="38" class="st0" width="38" height="4"/>
<g>
	<g>
		<path id="refreshsymbol_1_" class="st0" d="M17,13.7c0,0-0.4,0,1.7-0.1c3.3,0.1,6.4,0.5,8.9,2.7c1,1,1.7,1.9,2.1,2.8
			c0.8,1.7,1,2.4,1.4,3.5l3.3,0.1c0.3,0.1,0.5,0.2,0.7,0.4c0,0.4,0,0.7-0.2,0.9l-5.4,6.4c-0.2,0.2-0.4,0.2-0.6,0.2s-0.4-0.2-0.6-0.3
			l-4.6-6.9c-0.1-0.3-0.1-0.5-0.1-0.7c0.2-0.2,0.4-0.4,0.7-0.3l2.9,0.1c-0.2-1.2-0.2-2-1.7-4.2c-2.8-2.6-5.2-2-8.5-2"/>
		<path id="refreshsymbol_2_" class="st0" d="M13.6,30.9"/>
	</g>
</g>
</svg>
