<?xml version="1.0" encoding="utf-8"?>
<!-- Generator: Adobe Illustrator 19.2.1, SVG Export Plug-In . SVG Version: 6.00 Build 0)  -->
<svg version="1.1" id="Layer_1" xmlns="http://www.w3.org/2000/svg" xmlns:xlink="http://www.w3.org/1999/xlink" x="0px" y="0px"
	 viewBox="0 0 48 48" style="enable-background:new 0 0 48 48;" xml:space="preserve">
<style type="text/css">
	.st0{fill:#F3F3F3;}
</style>
<rect x="40" y="4" class="st0" width="4" height="38"/>
<rect x="6" y="38" class="st0" width="38" height="4"/>
<g>
	<g>
		<path id="refreshsymbol_1_" class="st0" d="M33.1,16.3c-3.3,0-5.7-0.6-8.5,2c-1.6,2.1-1.6,2.9-1.8,4.2l2.9-0.1
			c0.3-0.1,0.5,0.1,0.7,0.3c0,0.2,0,0.4-0.1,0.7l-4.6,6.9c-0.2,0.1-0.4,0.3-0.6,0.3s-0.4,0-0.6-0.2L15.1,24
			c-0.2-0.2-0.2-0.5-0.2-0.9c0.2-0.2,0.4-0.3,0.7-0.4l3.3-0.1c0.4-1.2,0.6-1.9,1.4-3.5c0.4-0.9,1.1-1.8,2.1-2.8
			c2.5-2.2,5.6-2.6,8.9-2.7c2.1,0.1,1.7,0.1,1.7,0.1"/>
		<path id="refreshsymbol_2_" class="st0" d="M36.4,30.9"/>
	</g>
</g>
</svg>
