<?xml version="1.0" encoding="utf-8"?>
<!-- Generator: Adobe Illustrator 19.2.1, SVG Export Plug-In . SVG Version: 6.00 Build 0)  -->
<svg version="1.1" xmlns="http://www.w3.org/2000/svg" xmlns:xlink="http://www.w3.org/1999/xlink" x="0px" y="0px"
	 viewBox="0 0 48 48" style="enable-background:new 0 0 48 48;" xml:space="preserve">
<style type="text/css">
	.st0{fill:#4A4A4A;}
	.st1{fill:#9B9B9B;}
	.st2{fill:url(#SVGID_1_);}
	.st3{fill:#323232;}
</style>
<g id="Layer_2_1_">
	<path class="st0" d="M41,6H7C6.5,6,6,6.5,6,7v34c0,0.6,0.5,1,1,1h34c0.6,0,1-0.5,1-1V7C42,6.5,41.5,6,41,6z M40,40"/>
</g>
<g id="Layer_1">
	<g id="Layer_2">
		<g>
			<g>
				<polygon class="st0" points="34,8 34,22 14,22 14,8 12,8 12,24 36,24 36,8 				"/>
			</g>
		</g>
		<g>
			<g>
				<path class="st1" d="M14,26v16h20V26H14z M21,40h-5V28h5V40z"/>
			</g>
		</g>
		<rect x="16" y="10" class="st0" width="16" height="2"/>
		<rect x="16" y="14" class="st0" width="16" height="2"/>
		<rect x="16" y="18" class="st0" width="16" height="2"/>
	</g>
	<linearGradient id="SVGID_1_" gradientUnits="userSpaceOnUse" x1="14" y1="15" x2="34" y2="15">
		<stop  offset="0" style="stop-color:#FFFFFF"/>
		<stop  offset="1" style="stop-color:#E4E4E4"/>
	</linearGradient>
	<rect x="14" y="8" class="st2" width="20" height="14"/>
	<rect x="16" y="10" class="st3" width="16" height="2"/>
	<rect x="16" y="14" class="st3" width="16" height="2"/>
	<rect x="16" y="18" class="st3" width="16" height="2"/>
</g>
</svg>
