<?xml version="1.0" encoding="utf-8"?>
<!-- Generator: Adobe Illustrator 19.2.1, SVG Export Plug-In . SVG Version: 6.00 Build 0)  -->
<svg version="1.1" id="Layer_1" xmlns="http://www.w3.org/2000/svg" xmlns:xlink="http://www.w3.org/1999/xlink" x="0px" y="0px"
	 viewBox="0 0 32 32" style="enable-background:new 0 0 32 32;" xml:space="preserve">
<style type="text/css">
	.st0{fill:#F3F3F3;}
</style>
<g>
	<g>
		<path id="floppy-outline" class="st0" d="M27,4H5C4,4,4,5,4,5v21l2,2h18.1l0,0h2.3c0.8,0,1.5-0.9,1.5-1.7V5
			C28,5,27.9,4,27,4z M10,6h12v8H10V6z M15,26h-3v-4h3V26z M26,26h-4v-6H11l-1,1v5H7l-1-1V6h2v9l1,1h14l1-1V6h2V26z"/>
	</g>
</g>
</svg>
