<?xml version="1.0" encoding="utf-8"?>
<!-- Generator: Adobe Illustrator 19.2.1, SVG Export Plug-In . SVG Version: 6.00 Build 0)  -->
<svg version="1.1" id="Layer_1" xmlns="http://www.w3.org/2000/svg" xmlns:xlink="http://www.w3.org/1999/xlink" x="0px" y="0px"
	 viewBox="0 0 48 48" style="enable-background:new 0 0 48 48;" xml:space="preserve">
<style type="text/css">
	.st0{fill:#F3F3F3;}
</style>
<g id="Layer_2">
	<path class="st0" d="M41,6H7C6.5,6,6,6.5,6,7v34c0,0.6,0.5,1,1,1h34c0.6,0,1-0.5,1-1V7C42,6.5,41.5,6,41,6z M40,40H8V8h32V40z"/>
	<g>
		<g>
			<polygon class="st0" points="34,8 34,22 14,22 14,8 12,8 12,24 36,24 36,8 			"/>
		</g>
	</g>
	<g>
		<g>
			<path class="st0" d="M14,26v16h20V26H14z M21,40h-5V28h5V40z"/>
		</g>
	</g>
	<rect x="16" y="10" class="st0" width="16" height="2"/>
	<rect x="16" y="14" class="st0" width="16" height="2"/>
	<rect x="16" y="18" class="st0" width="16" height="2"/>
</g>
</svg>
