<?xml version="1.0" encoding="utf-8"?>
<!-- Generator: Adobe Illustrator 19.2.1, SVG Export Plug-In . SVG Version: 6.00 Build 0)  -->
<svg version="1.1" id="Layer_1" xmlns="http://www.w3.org/2000/svg" xmlns:xlink="http://www.w3.org/1999/xlink" x="0px" y="0px"
	 viewBox="0 0 32 32" style="enable-background:new 0 0 32 32;" xml:space="preserve">
<style type="text/css">
	.st0{fill:#4A4A4A;}
	.st1{fill:#9B9B9B;}
	.st2{fill:url(#SVGID_1_);}
	.st3{fill:#323232;}
</style>
<g>
	<g>
		<path id="floppy-outline" class="st0" d="M27,4H5C4,4,4,5,4,5v21l2,2h18.1l0,0h2.3c0.8,0,1.5-0.9,1.5-1.7V5
			C28,5,27.9,4,27,4z M10,6h12v8H10V6z"/>
	</g>
</g>
<g>
	<g>
		<path class="st1" d="M10,20v8h12v-8H10z M14,26h-2v-4h2V26z"/>
	</g>
</g>
<linearGradient id="SVGID_1_" gradientUnits="userSpaceOnUse" x1="10" y1="23" x2="22" y2="23" gradientTransform="matrix(1 0 0 -1 0 34)">
	<stop  offset="0" style="stop-color:#FFFFFF"/>
	<stop  offset="1" style="stop-color:#E4E4E4"/>
</linearGradient>
<rect x="10" y="6" class="st2" width="12" height="10"/>
<rect x="12" y="12" class="st3" width="8" height="2"/>
<rect x="12" y="8" class="st3" width="8" height="2"/>
</svg>
