<?xml version="1.0" encoding="UTF-8"?>
<!-- Generator: Adobe Illustrator 19.2.1, SVG Export Plug-In . SVG Version: 6.00 Build 0)  -->
<svg xmlns="http://www.w3.org/2000/svg" xmlns:xlink="http://www.w3.org/1999/xlink" version="1.1" id="Layer_1" x="0px" y="0px" viewBox="0 0 48 48" style="enable-background:new 0 0 48 48;" xml:space="preserve">
<style type="text/css">
	.st0{display:none;}
	.st1{display:inline;}
	.st2{fill:#4A4A4A;}
</style>

<rect x="26" y="8" class="st2" width="2" height="24"/>
<rect x="30" y="10" class="st2" width="2" height="20"/>
<rect x="14" y="36" class="st2" width="18" height="2"/>
<polygon class="st2" points="29,46 26.7,46 22.6,36.6 24.5,36 "/>
<polygon class="st2" points="18,46 19.9,46 24,36.6 22.1,36 "/>
<rect x="38" y="14" class="st2" width="4" height="12"/>
<rect x="34" y="12" class="st2" width="2" height="16"/>
<path class="st2" d="M10,6v28h14V6H10z M15,31c-1.7,0-3-1.3-3-3s1.3-3,3-3s3,1.3,3,3S16.7,31,15,31z M20,12c-1.1,0-2-0.9-2-2  s0.9-2,2-2s2,0.9,2,2S21.1,12,20,12z"/>
</svg>
