<?xml version="1.0" encoding="UTF-8"?>
<svg xmlns="http://www.w3.org/2000/svg" xmlns:xlink="http://www.w3.org/1999/xlink" width="32px" height="32px" viewBox="0 0 32 32" x="0px" y="0px" version="1.1">
  <defs/>
  <g>
    <path d="M14.168,8.402C14.059,8.122 14,7.818 14,7.5C14,6.12 15.12,5 16.5,5C17.88,5 19,6.12 19,7.5C19,8.88 17.88,10 16.5,10C15.803,10 15.173,9.714 14.719,9.254L7.971,12.115C7.99,12.241 8,12.369 8,12.5C8,12.642 7.988,12.781 7.965,12.917L14.395,15.151C14.84,14.459 15.617,14 16.5,14C17.88,14 19,15.12 19,16.5C19,17.88 17.88,19 16.5,19C15.12,19 14,17.88 14,16.5C14,16.358 14.012,16.22 14.034,16.085L7.604,13.85C7.159,14.541 6.383,15 5.5,15C4.12,15 3,13.88 3,12.5C3,11.12 4.12,10 5.5,10C6.394,10 7.179,10.471 7.621,11.177L14.168,8.402Z" fill="#ffffff" stroke="#ffffff" stroke-width="0"/>
  </g>
</svg>
