<?xml version="1.0" encoding="utf-8"?>
<!-- Generator: Adobe Illustrator 19.2.1, SVG Export Plug-In . SVG Version: 6.00 Build 0)  -->
<svg version="1.1" id="Layer_1" xmlns="http://www.w3.org/2000/svg" xmlns:xlink="http://www.w3.org/1999/xlink" x="0px" y="0px"
	 viewBox="0 0 48 48" style="enable-background:new 0 0 48 48;" xml:space="preserve">
<style type="text/css">
	.st0{fill:none;}
	.st1{fill:#F3F3F3;}
</style>
<g>
	<polygon class="st0" points="22.3,8 14.4,8 18,17 	"/>
	<polygon class="st0" points="7.7,18.9 21.3,37.2 16.4,18.9 	"/>
	<polygon class="st0" points="13,10 8,17 16,17 	"/>
	<line class="st0" x1="19" y1="17" x2="29" y2="17"/>
	<polygon class="st0" points="33.7,8 25.9,8 30,17 	"/>
	<polygon class="st0" points="18.1,18.9 23.5,39.3 28.9,18.9 	"/>
	<polygon class="st0" points="25.8,37.2 39.3,18.9 30.6,18.9 	"/>
	<path class="st1" d="M45.7,16L38,5c-0.3-0.4-0.5-1-1-1H11c-0.5,0-0.7,0.6-1,1L2.3,16c-0.4,0.5-0.3,1.2,0.1,1.7l20.5,25.7
		c0.3,0.4,0.7,0.6,1.2,0.6c0.5,0,0.9-0.2,1.2-0.6l20.5-25.7C46.1,17.2,46.1,16.5,45.7,16z M34,8l-4,8l-4-8H34z M28,16h-9l5-8L28,16z
		 M22,8l-5,8l-3-8H22z M12,9l3,7H8L12,9z M7.5,18H16l6,17L7.5,18z M24.1,37.1L18.2,18H29L24.1,37.1z M26,35.1L31,18h9L26,35.1z
		 M32,16l4-7l4,7H32z"/>
</g>
</svg>
