<?xml version="1.0" encoding="utf-8"?>
<!-- Generator: Adobe Illustrator 21.0.0, SVG Export Plug-In . SVG Version: 6.00 Build 0)  -->
<svg version="1.1" id="Layer_1" xmlns="http://www.w3.org/2000/svg" xmlns:xlink="http://www.w3.org/1999/xlink" x="0px" y="0px"
	 viewBox="0 0 32 32" style="enable-background:new 0 0 32 32;" xml:space="preserve">
<style type="text/css">
	.st0{fill:#4A4A4A;}
</style>
<g>
	<g>
		<path id="refreshsymbol_2_" class="st0" d="M5.2,17C5,14.2,5.9,11.6,7.6,9.4s4.3-3.3,7.1-3.6c0.3,0.1,0.6,0.1,0.9,0.1
			c2.4,0,4.7,0.9,6.7,2.5c1.3,1.1,2.2,2.5,2.9,4l2.4,0c0.2,0,0.4,0.2,0.5,0.3c0,0.3,0,0.5-0.1,0.7l-3.7,5c-0.1,0.2-0.3,0.2-0.4,0.2
			c-0.1,0-0.3-0.1-0.5-0.2l-3.7-5.1c-0.1-0.2-0.1-0.3-0.1-0.6c0.1-0.2,0.2-0.3,0.5-0.3l2.1,0c-0.5-0.7-1-1.4-1.7-2.1
			C19,8.9,17,8.2,15,8.4c-2.1,0.1-4,1.1-5.4,2.7C8.3,12.7,7.8,15,8,17"/>
	</g>
</g>
<circle class="st0" cx="15.5" cy="16.5" r="2.5"/>
</svg>
