<?xml version="1.0" encoding="utf-8"?>
<!-- Generator: Adobe Illustrator 25.4.0, SVG Export Plug-In . SVG Version: 6.00 Build 0)  -->
<svg version="1.1" id="Layer_1" xmlns="http://www.w3.org/2000/svg" xmlns:xlink="http://www.w3.org/1999/xlink" x="0px" y="0px"
	 viewBox="0 0 48 48" style="enable-background:new 0 0 48 48;" xml:space="preserve">
<style type="text/css">
	.st0{fill:#4A4A4A;}
</style>
<rect x="6" y="8" class="st0" width="18" height="2"/>
<rect x="6" y="12" class="st0" width="18" height="2"/>
<rect x="6" y="16" class="st0" width="18" height="2"/>
<rect x="6" y="20" class="st0" width="18" height="2"/>
<rect x="6" y="24" class="st0" width="18" height="2"/>
<rect x="6" y="28" class="st0" width="18" height="2"/>
<rect x="6" y="32" class="st0" width="18" height="2"/>
<rect x="6" y="36" class="st0" width="18" height="2"/>
<rect x="6" y="40" class="st0" width="18" height="2"/>
<g>
	<g>
		<path class="st0" d="M2,4l0,42h44l0-42H2z M26,44H4V6h22V44z M34,30l-6-5.9l6-6.1V30z M36,30V18l6,6L36,30z"/>
	</g>
</g>
</svg>
