<?xml version="1.0" encoding="utf-8"?>
<!-- Generator: Adobe Illustrator 19.2.1, SVG Export Plug-In . SVG Version: 6.00 Build 0)  -->
<svg version="1.1" id="Layer_1" xmlns="http://www.w3.org/2000/svg" xmlns:xlink="http://www.w3.org/1999/xlink" x="0px" y="0px"
	 viewBox="0 0 32 32" style="enable-background:new 0 0 32 32;" xml:space="preserve">
<style type="text/css">
	.st0{fill:#FFFFFF;}
</style>
<g>
	<g transform="rotate(119) translate(-11 -4) scale(1 -1)">
		<path id="curvedarrow" class="st0" d="M23.9,12.4c0.1,0.2,0.1,0.4,0,0.6l-2.1,6.5c0,0.1-0.2,0.2-0.3,0.3l0,0h-0.1h-0.1
			c-0.2,0-0.4-0.1-0.5-0.3l-1.2-2.1c-3.1,2-4.3,4.4-3.3,6.2c0.6,1,1.9,1.6,3.8,1.5c0.2,0,0.4,0.1,0.4,0.3c0,0.1-0.1,0.3-0.2,0.3
			h-0.1c-3.6,0.6-6.3-0.3-7.4-2.3c-1.6-2.9,0-7.3,4.5-10.5l-1.2-2.2v-0.1l0,0v-0.1l0,0v-0.1l0,0v-0.1c0.1-0.2,0.3-0.3,0.5-0.3l6.8,2
			C23.6,12.2,23.8,12.3,23.9,12.4z"/>
	</g>
</g>
</svg>
