<?xml version="1.0" encoding="utf-8"?>
<!-- Generator: Adobe Illustrator 21.0.0, SVG Export Plug-In . SVG Version: 6.00 Build 0)  -->
<svg version="1.1" id="Layer_1" xmlns="http://www.w3.org/2000/svg" xmlns:xlink="http://www.w3.org/1999/xlink" x="0px" y="0px"
	 viewBox="0 0 48 48" style="enable-background:new 0 0 48 48;" xml:space="preserve">
<style type="text/css">
	.st0{fill:#4A4A4A;}
</style>
<g>
	<g>
		<path class="st0" d="M20.5,30.4L12.8,38c-0.8,0.8-2.2,0.8-3,0c-0.7-0.7-0.7-1.9,0-2.6l7.9-7.9l-2.8-2.8l-7.9,7.9
			c-2.3,2.3-2.3,6,0,8.3l0.2,0.2c2.3,2.3,6,2.3,8.3,0l7.9-7.9L20.5,30.4z"/>
	</g>
</g>
<g>
	<g>
		<path class="st0" d="M41.1,7.1l-0.2-0.2c-2.3-2.3-6-2.3-8.3,0l-7.9,7.9l2.8,2.8l0,0l7.9-7.9C36.1,9,37.3,9,38,9.8
			c0.8,0.8,0.8,2.2,0,3l-7.7,7.7l2.8,2.8l7.9-7.9C43.4,13.1,43.4,9.4,41.1,7.1z"/>
	</g>
</g>
<path class="st0" d="M34.7,38.2L7.8,11.3c-0.8-0.8-0.8-2,0-2.8l0.7-0.7c0.8-0.8,2-0.8,2.8,0l26.9,26.9c0.8,0.8,0.8,2,0,2.8l-0.7,0.7
	C36.7,39,35.5,39,34.7,38.2z"/>
</svg>
