<?xml version="1.0" encoding="UTF-8"?>
<svg xmlns="http://www.w3.org/2000/svg" xmlns:xlink="http://www.w3.org/1999/xlink" width="32px" height="32px" viewBox="0 0 32 32" x="0px" y="0px" version="1.1">
  <defs>
    <g id="addressbook_">
      <path d="M27,2H5C4.4,2,4,2.4,4,3v26c0,0.6,0.4,1,1,1h18c0.6,0,1-0.4,1-1V10h3c0.6,0,1-0.4,1-1V3C28,2.4,27.6,2,27,2zM26,8h-3c-0.6,0-1,0.4-1,1v19H6V4h20V8z"/>
      <path d="M27,11h-2v8h2c0.6,0,1-0.4,1-1v-6C28,11.4,27.6,11,27,11z"/>
      <path d="M27,20h-2v9h2c0.6,0,1-0.4,1-1v-7C28,20.4,27.6,20,27,20z"/>
      <path d="M8.4,18h11.2c0.2,0,0.4-0.2,0.4-0.5s-0.2-0.5-0.4-0.5H8.4c-0.2,0-0.4,0.2-0.4,0.5S8.2,18,8.4,18z"/>
      <path d="M8.4,22h11.2c0.2,0,0.4-0.2,0.4-0.5s-0.2-0.5-0.4-0.5H8.4c-0.2,0-0.4,0.2-0.4,0.5S8.2,22,8.4,22z"/>
      <path d="M8.4,26h11.2c0.2,0,0.4-0.2,0.4-0.5s-0.2-0.5-0.4-0.5H8.4c-0.2,0-0.4,0.2-0.4,0.5S8.2,26,8.4,26z"/>
      <path d="M8.8,13.7c0.2,0,0.4-0.1,0.5-0.2c0.1-0.1,0.2-0.4,0.4-0.8l0.4-1h3l0.4,0.9c0,0.1,0.1,0.2,0.2,0.4c0.1,0.2,0.1,0.3,0.2,0.3c0.1,0.1,0.1,0.1,0.2,0.2c0.1,0,0.2,0.1,0.3,0.1c0.2,0,0.4-0.1,0.5-0.2c0.1-0.1,0.2-0.3,0.2-0.5c0-0.2-0.1-0.4-0.2-0.8l-1.9-4.8c-0.1-0.2-0.2-0.4-0.2-0.6c-0.1-0.1-0.1-0.3-0.2-0.4c-0.1-0.1-0.2-0.2-0.3-0.3C11.9,6,11.7,6,11.5,6c-0.2,0-0.4,0-0.5,0.1c-0.1,0.1-0.3,0.2-0.3,0.3c-0.1,0.1-0.2,0.3-0.2,0.5c-0.1,0.2-0.1,0.4-0.2,0.5l-1.9,4.8c-0.1,0.2-0.1,0.3-0.2,0.5c0,0.1-0.1,0.2-0.1,0.3c0,0.2,0.1,0.3,0.2,0.5C8.4,13.6,8.6,13.7,8.8,13.7zM11.5,7.6l1.1,3.1h-2.2L11.5,7.6z"/>
    </g>
  </defs>
  <g>
    <use xlink:href="#addressbook_" fill="#4a4a4a" stroke="#4a4a4a" stroke-width="0"/>
  </g>
</svg>
