<?xml version="1.0" encoding="UTF-8"?>
<svg xmlns="http://www.w3.org/2000/svg" xmlns:xlink="http://www.w3.org/1999/xlink" width="32px" height="32px" viewBox="0 0 32 32" x="0px" y="0px" version="1.1">
  <defs/>
  <g>
    <path d="M28.7,10.6C28.4,8.3,28,8,27.3,8h-0.6H13v18h13.7h0.6c0.7,0,1.1-0.7,1.4-2.9c0.2-1.7,0.3-3.9,0.3-6.2C29,14.5,28.9,12.3,28.7,10.6zM16.9,23.6c-0.6,0-1-0.5-1-1c0-0.6,0.5-1,1-1c0.6,0,1,0.5,1,1C18,23.1,17.5,23.6,16.9,23.6zM16.9,20c-0.6,0-1-0.5-1-1c0-0.6,0.5-1,1-1c0.6,0,1,0.5,1,1C18,19.6,17.5,20,16.9,20zM16.9,16.5c-0.6,0-1-0.5-1-1c0-0.6,0.5-1,1-1c0.6,0,1,0.5,1,1C18,16,17.5,16.5,16.9,16.5zM20.5,23.6c-0.6,0-1-0.5-1-1c0-0.6,0.5-1,1-1c0.6,0,1,0.5,1,1C21.5,23.1,21.1,23.6,20.5,23.6zM20.5,20c-0.6,0-1-0.5-1-1c0-0.6,0.5-1,1-1c0.6,0,1,0.5,1,1C21.5,19.6,21.1,20,20.5,20zM20.5,16.5c-0.6,0-1-0.5-1-1c0-0.6,0.5-1,1-1c0.6,0,1,0.5,1,1C21.5,16,21.1,16.5,20.5,16.5zM24,23.6c-0.6,0-1-0.5-1-1c0-0.6,0.5-1,1-1c0.6,0,1,0.5,1,1C25.1,23.1,24.6,23.6,24,23.6zM24,20c-0.6,0-1-0.5-1-1c0-0.6,0.5-1,1-1c0.6,0,1,0.5,1,1C25.1,19.6,24.6,20,24,20zM24,16.5c-0.6,0-1-0.5-1-1c0-0.6,0.5-1,1-1c0.6,0,1,0.5,1,1C25.1,16,24.6,16.5,24,16.5zM25.4,11.7c0,0.3-0.2,0.5-0.5,0.5h-8.8c-0.1,0-0.2,0-0.3-0.1c-0.1-0.1-0.2-0.2-0.2-0.4v-1.5c0-0.3,0.2-0.5,0.5-0.5h8.8c0.1,0,0.2,0,0.3,0.1c0.1,0.1,0.2,0.2,0.2,0.4V11.7z" fill="#4a4a4a" stroke="#4a4a4a" stroke-width="0"/>
    <path d="M10.8,6H7.4C6.6,6,6,6.6,6,7.4v18.9C6,27.1,6.6,28,7.4,28h3.4c0.8,0,1.2-0.9,1.2-1.7v-19C12,6.6,11.6,6,10.8,6z" fill="#4a4a4a" stroke="#4a4a4a" stroke-width="0"/>
    <path d="M3.8,7c-0.7,0-1.2,1.2-1.5,3.4C2.1,12.1,2,14.3,2,16.7c0,2.4,0.1,4.6,0.3,6.3C2.6,25.2,3.1,26,3.8,26h0.6H5V7H4.4H3.8z" fill="#4a4a4a" stroke="#4a4a4a" stroke-width="0"/>
  </g>
</svg>
