<?xml version="1.0" encoding="UTF-8"?>
<svg xmlns="http://www.w3.org/2000/svg" xmlns:xlink="http://www.w3.org/1999/xlink" width="32px" height="32px" viewBox="0 0 32 32" x="0px" y="0px" version="1.1">
  <defs/>
  <g>
    <path d="M25,2H8C7.1,2,6,3.1,6,4v24c0,0.9,1.1,2,2,2h17c0.9,0,2-1.1,2-2V4C27,3.1,25.9,2,25,2zM10,27.1c-1.1,0-2-0.9-2-2c0-1.1,0.9-2,2-2c1.1,0,2,0.9,2,2C12.1,26.2,11.2,27.1,10,27.1zM10,21.9c-1.1,0-2-0.9-2-2c0-1.1,0.9-2,2-2c1.1,0,2,0.9,2,2C12.1,20.9,11.2,21.9,10,21.9zM10,16.5c-1.1,0-2-0.9-2-2c0-1.1,0.9-2,2-2c1.1,0,2,0.9,2,2C12.1,15.6,11.2,16.5,10,16.5zM16.2,27.2c-1.1,0-2-0.9-2-2c0-1.1,0.9-2,2-2c1.1,0,2,0.9,2,2C18.2,26.2,17.3,27.2,16.2,27.2zM16.2,21.9c-1.1,0-2-0.9-2-2c0-1.1,0.9-2,2-2c1.1,0,2,0.9,2,2C18.2,20.9,17.3,21.9,16.2,21.9zM16.2,16.5c-1.1,0-2-0.9-2-2c0-1.1,0.9-2,2-2c1.1,0,2,0.9,2,2C18.2,15.6,17.3,16.5,16.2,16.5zM22.5,27.2c-1.1,0-2-0.9-2-2c0-1.1,0.9-2,2-2c1.1,0,2,0.9,2,2C24.5,26.2,23.6,27.2,22.5,27.2zM22.5,21.9c-1.1,0-2-0.9-2-2c0-1.1,0.9-2,2-2c1.1,0,2,0.9,2,2C24.5,20.9,23.6,21.9,22.5,21.9zM22.5,16.5c-1.1,0-2-0.9-2-2c0-1.1,0.9-2,2-2c1.1,0,2,0.9,2,2C24.5,15.6,23.6,16.5,22.5,16.5zM25,9c0,0.4-0.6,1-1,1H9c-0.4,0-1-0.6-1-1V5c0-0.4,0.6-1,1-1h15c0.4,0,1,0.6,1,1V9z" fill="#ffffff" stroke="#ffffff" stroke-width="0"/>
  </g>
</svg>
