<?xml version="1.0" encoding="UTF-8"?>
<svg xmlns="http://www.w3.org/2000/svg" xmlns:xlink="http://www.w3.org/1999/xlink" width="32px" height="32px" viewBox="0 0 32 32" x="0px" y="0px" version="1.1">
  <defs/>
  <g>
    <path d="M29,4H3C2.5,4,2,4.5,2,5v22c0,0.5,0.5,1,1,1l6-0.1c0.5,0,1-0.4,1-0.9l0-2.1c0-0.5,0.5-0.9,1-0.9c0.5,0,1,0.5,1,1v2c0,0.5,0.5,1,1,1h6c0.5,0,1-0.5,1-1v-2c0-0.5,0.5-1,1-1c0.5,0,1,0.5,1,1v2c0,0.5,0.5,1,1,1h6c0.5,0,1-0.5,1-1V5C30,4.5,29.5,4,29,4zM28,26h-4v-1c0-1.5-1.5-3-3-3s-3,1.5-3,3v1h-4v-1c0-1.5-1.5-3-3-3c-1.5,0-3,1.5-3,3v1H4V6h24V26z" fill="#ffffff" stroke="#ffffff" stroke-width="0"/>
    <path d="M10,13.3c0,0.2,0.2,0.4,0.4,0.4c0,0,0,0,0,0c0.1,1.1,1,2.2,2,2.2c1.1,0,2-1.1,2-2.2c0,0,0,0,0,0c0.2,0,0.4-0.2,0.4-0.4c0-0.2-0.1-0.3-0.2-0.4c0.1-0.3,0.1-0.5,0.1-0.8c0-1.4-1-2.5-2.3-2.5s-2.3,1.1-2.3,2.5c0,0.3,0,0.5,0.1,0.8C10.1,13,10,13.2,10,13.3z" fill="#ffffff" stroke="#ffffff" stroke-width="0"/>
    <path d="M7.2,20h9.9c0.1,0,0.2-0.1,0.2-0.2V19c0-0.1,0-0.1-0.1-0.2c-1-0.9-2.1-1.6-3.4-1.9c0,0-0.1,0-0.1,0h-0.1c0,0-0.1,0-0.1,0c-0.4,0.2-0.9,0.3-1.4,0.3c-0.5,0-1-0.1-1.4-0.3c0,0-0.1,0-0.1,0h-0.1c0,0,0,0-0.1,0c-1.3,0.3-2.5,1-3.5,1.9C7,18.9,7,18.9,7,19v0.8C7,19.9,7.1,20,7.2,20z" fill="#ffffff" stroke="#ffffff" stroke-width="0"/>
    <path d="M25.5,12h-7c-0.3,0-0.5-0.2-0.5-0.5v0c0-0.3,0.2-0.5,0.5-0.5h7c0.3,0,0.5,0.2,0.5,0.5v0C26,11.8,25.8,12,25.5,12z" fill="#ffffff" stroke="#ffffff" stroke-width="0"/>
    <path d="M25.5,17h-7c-0.3,0-0.5-0.2-0.5-0.5l0,0c0-0.3,0.2-0.5,0.5-0.5h7c0.3,0,0.5,0.2,0.5,0.5l0,0C26,16.8,25.8,17,25.5,17z" fill="#ffffff" stroke="#ffffff" stroke-width="0"/>
  </g>
</svg>
