<?xml version="1.0" encoding="UTF-8"?>
<svg xmlns="http://www.w3.org/2000/svg" xmlns:xlink="http://www.w3.org/1999/xlink" width="32px" height="32px" viewBox="0 0 32 32" x="0px" y="0px" version="1.1">
  <defs/>
  <g>
    <path d="M21.8,6h-8.5l-0.3-2.2C12.8,3.3,12.3,3,11.7,3h-1.1C9.9,3,9,3.5,9,4.2v24.6c0,0.7,0.9,1.2,1.6,1.2h11.2c0.7,0,1.2-0.5,1.2-1.2V7.6C23,6.9,22.5,6,21.8,6zM21,16.4c0,0.3-0.3,0.6-0.6,0.6h-7.8c-0.3,0-0.6-0.3-0.6-0.6V9.6C12,9.3,12.3,9,12.6,9h7.8C20.7,9,21,9.3,21,9.6V16.4zM12.8,28c-0.6,0-1.1-0.5-1.1-1.1c0-0.6,0.5-1.1,1.1-1.1s1.1,0.5,1.1,1.1C13.9,27.5,13.4,28,12.8,28zM12.8,24.5c-0.6,0-1.1-0.5-1.1-1.1s0.5-1.1,1.1-1.1s1.1,0.5,1.1,1.1S13.4,24.5,12.8,24.5zM12.8,21c-0.6,0-1.1-0.5-1.1-1.1c0-0.6,0.5-1.1,1.1-1.1s1.1,0.5,1.1,1.1C13.9,20.5,13.4,21,12.8,21zM16.2,28c-0.6,0-1.1-0.5-1.1-1.1c0-0.6,0.5-1.1,1.1-1.1c0.6,0,1.1,0.5,1.1,1.1C17.3,27.5,16.8,28,16.2,28zM16.2,24.5c-0.6,0-1.1-0.5-1.1-1.1s0.5-1.1,1.1-1.1c0.6,0,1.1,0.5,1.1,1.1S16.8,24.5,16.2,24.5zM16.2,21c-0.6,0-1.1-0.5-1.1-1.1c0-0.6,0.5-1.1,1.1-1.1c0.6,0,1.1,0.5,1.1,1.1C17.3,20.5,16.8,21,16.2,21zM19.7,28c-0.6,0-1.1-0.5-1.1-1.1c0-0.6,0.5-1.1,1.1-1.1c0.6,0,1.1,0.5,1.1,1.1C20.8,27.5,20.3,28,19.7,28zM19.7,24.5c-0.6,0-1.1-0.5-1.1-1.1s0.5-1.1,1.1-1.1c0.6,0,1.1,0.5,1.1,1.1S20.3,24.5,19.7,24.5zM19.7,21c-0.6,0-1.1-0.5-1.1-1.1c0-0.6,0.5-1.1,1.1-1.1c0.6,0,1.1,0.5,1.1,1.1C20.8,20.5,20.3,21,19.7,21z" fill="#ffffff" stroke="#ffffff" stroke-width="0"/>
  </g>
</svg>
