<?xml version="1.0" encoding="utf-8"?>
<!-- Generator: Adobe Illustrator 27.2.0, SVG Export Plug-In . SVG Version: 6.00 Build 0)  -->
<svg version="1.1" id="Layer_1" xmlns="http://www.w3.org/2000/svg" xmlns:xlink="http://www.w3.org/1999/xlink" x="0px" y="0px"
	 viewBox="0 0 48 48" style="enable-background:new 0 0 48 48;" xml:space="preserve">
<style type="text/css">
	.st0{fill:#FFFFFF;}
</style>
<path class="st0" d="M36.5,15.4c-0.3,0-0.2-1.3-0.6-1.3c-1-3.4-4.5-5.3-8.2-5.3c-0.5,0-1.3-0.2-1.8,0C23.7,7,22.2,7,19.5,7
	c-5.6,0-9.8,2.1-11.7,9.7C5.5,18.3,4,20.6,4,23c0,4.2,1.9,8,6.4,8h6.3h14.6h4.6c6.7,0,8.2-3.9,8.2-8C44.1,16.7,41,15.4,36.5,15.4z"
	/>
</svg>
