<?xml version="1.0" encoding="utf-8"?>
<!-- Generator: Adobe Illustrator 27.2.0, SVG Export Plug-In . SVG Version: 6.00 Build 0)  -->
<svg version="1.1" id="Layer_1" xmlns="http://www.w3.org/2000/svg" xmlns:xlink="http://www.w3.org/1999/xlink" x="0px" y="0px"
	 viewBox="0 0 32 32" style="enable-background:new 0 0 32 32;" xml:space="preserve">
<style type="text/css">
	.st0{fill:#FFFFFF;}
</style>
<path class="st0" d="M23.6,9.2c-0.2,0-0.4,0-0.6,0c-0.6-2.2-2.7-3.7-5.1-3.7c-0.3,0-0.6,0-1,0.1C15.5,4.4,14.2,4,12.5,4
	c-3.5,0-6.4,2.5-7,6C4,11,3,12.6,3,14.1C3,16.8,5.3,19,8.1,19h3.1h0.9h5.5h0.9h5.3c2.9,0,5.3-2.2,5.3-4.9
	C28.9,11.5,26.5,9.2,23.6,9.2z"/>
</svg>
