<?xml version="1.0" encoding="utf-8"?>
<!-- Generator: Adobe Illustrator 19.2.1, SVG Export Plug-In . SVG Version: 6.00 Build 0)  -->
<svg version="1.1" id="Layer_1" xmlns="http://www.w3.org/2000/svg" xmlns:xlink="http://www.w3.org/1999/xlink" x="0px" y="0px"
	 viewBox="0 0 48 48" style="enable-background:new 0 0 48 48;" xml:space="preserve">
<style type="text/css">
	.st0{fill:url(#SVGID_1_);}
	.st1{opacity:0.5;}
	.st2{fill:#4576EF;}
</style>
<g id="Layer_4">
	<g id="Layer_2_4_">
		
			<linearGradient id="SVGID_1_" gradientUnits="userSpaceOnUse" x1="5.0407" y1="33.2141" x2="49.7093" y2="7.4247" gradientTransform="matrix(1 0 0 -1 0 48)">
			<stop  offset="0" style="stop-color:#FFFFFF"/>
			<stop  offset="0.7545" style="stop-color:#F5F5F5"/>
			<stop  offset="0.9973" style="stop-color:#F5F5F5"/>
		</linearGradient>
		<polygon class="st0" points="46,47 13,47 13,1 29,1 46,18 		"/>
	</g>
</g>
<g id="Layer_1_1_" class="st1">
	<path class="st2" d="M46.5,31.5c-1,1.5-2,2.7-2.7,3.2c-1.9,1.4-2-4.3-2-4.3s0-2.6,0-2.9s-0.4-3.4-0.4-3.4l-0.7-2.8l-2.2-2.6
		c0,0-4.4-1.8-6.3-2.3c-1.9-0.5-1.5-4.1,0.7-5.2c2-1.1,2.9,1.4,2.5-2.8c-0.3-4.1-3.7-2.8-5.3-2.8c-1.6,0-1.8,1.4-2.6,6
		c-0.4,2.6-1.8,0.8-2.2,0.2C25,11.3,24.7,7,24.7,7l-1.8,3.1c0,0-0.3,1.4-3.2,2.3c-2.6,0.9-2-2.3-1.3-4.6c-2.3,3.7-3.8,8.1-3.8,12.8
		c0,1.8,0.3,3.7,0.7,5.4c0.3-1.8,0.9-5.7,1.9-4.7c1.3,1.2,2,1.2,3.1,2.6c1.2,1.4,6.3,2.1,4.5,3.7c-1.6,1.7-1.8,1.8-2.6,3.4
		c-0.7,1.2-4.2,11.5-4.3,12c3.9,4.4,11.9,2.7,18.2,2.7c3.8,0,7.4-0.2,10.4-0.8V31.5z"/>
</g>
</svg>
