<?xml version="1.0" encoding="utf-8"?>
<!-- Generator: Adobe Illustrator 25.4.1, SVG Export Plug-In . SVG Version: 6.00 Build 0)  -->
<svg version="1.1" id="Layer_1" xmlns="http://www.w3.org/2000/svg" xmlns:xlink="http://www.w3.org/1999/xlink" x="0px" y="0px"
	 viewBox="0 0 32 32" style="enable-background:new 0 0 32 32;" xml:space="preserve">
<style type="text/css">
	.st0{fill:#4A4A4A;}
</style>
<g id="Layer_1_1_">
	<g>
		<g>
			<path id="pencil" class="st0" d="M30.4,5.2l-3.6-3.6c0,0-1.4-1.4-2.8,0C22.6,3.1,9.6,15.8,9.6,15.8c-0.1,0.1,0,0.3-0.1,0.5
				l-3.1,7.9c-0.2,0.4,0,0.8,0.3,1c0.2,0.2,0.5,0.3,0.7,0.3c0.1,0,0.2,0,0.3-0.1l5-2l2.9-1.1c0.1-0.1,0.5-0.1,0.5-0.2
				c0,0,13.5-13.4,14.2-14.2C31.7,6.5,30.4,5.2,30.4,5.2z M14.7,20.7l-3.1,1.2l-1.5-1.5l1-3.2L25.4,2.9L24,4c0,0-11.2,10.3-12,11
				c0,0,5,6,5,5c0.7-0.6,11-12,11-12l0.9-1.6L14.7,20.7z"/>
		</g>
	</g>
</g>
<path class="st0" d="M4,28h22v1.1c0,0.5-0.4,0.9-0.9,0.9H4V28z"/>
<path class="st0" d="M2,4h2v26H3c-0.6,0-1-0.5-1-1V4z"/>
<path class="st0" d="M2,3.1C2,2.5,2.5,2,3.1,2h14C17.6,2,18,2.4,18,2.9v0.2C18,3.6,17.6,4,17.1,4H2V3.1z"/>
<path class="st0" d="M26,19v9h-2v-9c0-0.6,0.4-1,1-1l0,0C25.6,18,26,18.4,26,19z"/>
</svg>
