<?xml version="1.0" encoding="utf-8"?>
<!-- Generator: Adobe Illustrator 19.2.1, SVG Export Plug-In . SVG Version: 6.00 Build 0)  -->
<svg version="1.1" id="Layer_1" xmlns="http://www.w3.org/2000/svg" xmlns:xlink="http://www.w3.org/1999/xlink" x="0px" y="0px"
	 viewBox="0 0 32 32" style="enable-background:new 0 0 32 32;" xml:space="preserve">
<style type="text/css">
	.st0{fill:#4A4A4A;}
</style>
<g>
	<g>
		<path id="textcloud_1_" class="st0" d="M12,29c-0.2,0-3.8-5.2-3.8-5.2c-0.4-0.1-1.3-0.4-1.6-0.6C1,20.6,2,17.9,2,13.3
			C2,7.7,7.3,4,12.6,4h7.8c5.3,0,9.6,3.6,9.6,9.3S27.9,24,22.6,24H18C18,24,12.5,29,12,29z M12.5,6C8.1,6,4,8.3,4,13
			c0,4.1-0.6,6.4,2.4,8.3c0.3,0.2,0.7,0.3,1.1,0.4L9.2,22l3.1,4.5l5.2-4.5H22c4.4,0,6-4.2,6-9s-3.4-7-7.7-7H12.5z"/>
	</g>
</g>
<rect x="8" y="10" class="st0" width="16" height="2"/>
<rect x="8" y="14" class="st0" width="16" height="2"/>
<rect x="8" y="18" class="st0" width="12" height="2"/>
</svg>
