<?xml version="1.0" encoding="utf-8"?>
<!-- Generator: Adobe Illustrator 19.2.1, SVG Export Plug-In . SVG Version: 6.00 Build 0)  -->
<svg version="1.1" id="Layer_2" xmlns="http://www.w3.org/2000/svg" xmlns:xlink="http://www.w3.org/1999/xlink" x="0px" y="0px"
	 viewBox="0 0 48 48" style="enable-background:new 0 0 48 48;" xml:space="preserve">
<style type="text/css">
	.st0{fill:#4A4A4A;}
</style>
<g>
	<g>
		<path id="textcloud_1_" class="st0" d="M12.5,43c-0.2,0-4.1-5.2-4.1-5.2C8,37.7,7,37.4,6.7,37.2
			c-5.6-2.7-4.6-5.3-4.6-9.9c0-5.6,5.3-9.3,10.6-9.3h7.8c5.3,0,9.6,3.6,9.6,9.3S28,38,22.7,38h-4.6L12.5,43z M12.6,20
			c-4.4,0-8.5,2.3-8.5,7c0,4.1-0.6,6.4,2.4,8.3c0.3,0.2,0.7,0.3,1.1,0.4L9.3,36l3.3,4.5l5-4.5h4.5c4.4,0,6-4.2,6-9s-3.4-7-7.7-7
			H12.6z"/>
	</g>
</g>
<rect x="8.1" y="24" class="st0" width="16" height="2"/>
<rect x="8.1" y="28" class="st0" width="16" height="2"/>
<rect x="8.1" y="32" class="st0" width="12" height="2"/>
<g>
	<g>
		<path class="st0" d="M39.9,16h-16v0.2c2.1,0.4,3.6,1,4.7,1.8h11.3V16z M39.9,12h-16v2h16V12z M45.9,15.3c0-5.6-5.3-9.3-10.6-9.3
			h-7.8c-5.3,0-9.6,3.6-9.6,9.3c0,0.2,0,0.3,0,0.5c0.5,0,1.1,0,1.6,0c0.1,0,0.2,0,0.4,0c0-0.3,0-0.5,0-0.8c0-4.8,3.4-7,7.7-7h7.8
			c4.4,0,8.5,2.3,8.5,7c0,4.1,0.6,6.4-2.4,8.3c-0.3,0.2-0.7,0.3-1.1,0.4L38.7,24l-3,5.1c0,0.1-0.1,0.2-0.1,0.2h-0.1
			c-0.1,0-0.1,0-0.1-0.1l-4.3-4.5c0,0.9,0.1,1.8,0,2.5l3.1,3.1c0.3,0.5,0.8,0.7,1.3,0.7c0.2,0,0.5,0,0.7-0.1c0.7-0.3,1.2-1,1.2-1.8
			l2.2-3.3c0.4-0.1,1.3-0.4,1.6-0.6C47,22.6,45.9,19.9,45.9,15.3z M39.9,20h-9.7c0.3,0.6,0.5,1.3,0.6,2h9.1V20z"/>
	</g>
</g>
</svg>
