<?xml version="1.0" encoding="utf-8"?>
<!-- Generator: Adobe Illustrator 21.0.0, SVG Export Plug-In . SVG Version: 6.00 Build 0)  -->
<svg version="1.1" id="Layer_1" xmlns="http://www.w3.org/2000/svg" xmlns:xlink="http://www.w3.org/1999/xlink" x="0px" y="0px"
	 viewBox="0 0 48 48" style="enable-background:new 0 0 48 48;" xml:space="preserve">
<style type="text/css">
	.st0{fill:#4A4A4A;}
</style>
<g>
	<path class="st0" d="M42,46H6c-2.2,0-4-1.8-4-4V6c0-2.2,1.8-4,4-4h36c2.2,0,4,1.8,4,4v36C46,44.2,44.2,46,42,46z M42,42v2V42L42,42
		L42,42z M6,6v36h36V6H6z"/>
	<polygon class="st0" points="40,26 36,26 30,17.6 22.6,35.2 15.4,24 12,26 8,26 8,22 11,22 16,18 22.2,28 30,10.4 37.4,22 40,22 	
		"/>
</g>
</svg>
