<?xml version="1.0" encoding="utf-8"?>
<!-- Generator: Adobe Illustrator 21.0.0, SVG Export Plug-In . SVG Version: 6.00 Build 0)  -->
<svg version="1.1" id="Layer_1" xmlns="http://www.w3.org/2000/svg" xmlns:xlink="http://www.w3.org/1999/xlink" x="0px" y="0px"
	 viewBox="0 0 32 32" style="enable-background:new 0 0 32 32;" xml:space="preserve">
<style type="text/css">
	.st0{fill:#4A4A4A;}
</style>
<g>
	<path class="st0" d="M28,30H4c-1.1,0-2-0.9-2-2V4c0-1.1,0.9-2,2-2h24c1.1,0,2,0.9,2,2v24C30,29.1,29.1,30,28,30z M28,28v1V28L28,28
		L28,28z M4,4v24h24V4H4z"/>
	<polygon class="st0" points="26,18 22,18 19,13.8 14.3,22.6 10.7,17 9,18 6,18 6,16 8.5,16 11,14 14.1,19 19,10.2 22.7,16 26,16 	
		"/>
</g>
</svg>
