<?xml version="1.0" encoding="UTF-8"?>
<svg xmlns="http://www.w3.org/2000/svg" xmlns:xlink="http://www.w3.org/1999/xlink" width="32px" height="32px" viewBox="0 0 32 32" x="0px" y="0px" version="1.1">
  <defs/>
  <g>
    <path d="M14.3,9.8l8.5,8.5L11,24.1l-1,0.5l-1,0.5l-0.9,0.5L7,24.4l0.1-0.1L7.3,24L14.3,9.8M14,7.1c-0.1,0-0.1,0-0.2,0c-0.3,0.1-0.6,0.3-0.8,0.6L5.5,23.1l-1.4,1.4l-2,1.3c-0.3,0.2-0.4,0.5-0.5,0.8c0,0.3,0.1,0.6,0.3,0.8l3.3,3.3C5.3,30.9,5.6,31,5.9,31c0,0,0.1,0,0.1,0c0.3,0,0.6-0.2,0.8-0.5l1.4-2l1.3-1.3c0,0.1,0.1,0.1,0.1,0.2l3.3,3.3c0.2,0.2,0.5,0.3,0.7,0.3c0.3,0,0.5-0.1,0.7-0.3l0.5-0.5c0.4-0.4,0.4-1.1,0-1.5l-2.9-2.9l13-6.4c0.3-0.1,0.5-0.4,0.6-0.8c0.1-0.3-0.1-0.7-0.3-0.9L14.7,7.4C14.6,7.2,14.3,7.1,14,7.1L14,7.1zM5.8,29.1l-2.3-2.3l1.9-1.1l1.5,1.5L5.8,29.1L5.8,29.1z" fill="#ffffff" stroke="#ffffff" stroke-width="0"/>
    <path d="M31,12.4c-0.5-3.1-1.9-5.7-3.8-7.6c-2-2-4.5-3.3-7.6-3.8c-0.4-0.1-0.8,0.2-1,0.6c-0.2,0.4-0.1,0.8,0.3,0.9l0,0c2.9,0.5,5.3,1.7,7.1,3.6c1.8,1.8,3.1,4.3,3.6,7.1c0.1,0.4,0.5,0.5,0.9,0.3c0.1-0.1,0.2-0.1,0.3-0.2C30.9,13,31,12.7,31,12.4z" fill="#ffffff" stroke="#ffffff" stroke-width="0"/>
    <path d="M23.6,8.3c-1.2-1.2-2.6-2-4.2-2.6c-0.3-0.1-0.8,0.1-1.1,0.5c-0.3,0.4-0.2,0.8,0.2,0.9c1.5,0.5,2.8,1.3,3.9,2.3c1.1,1.1,1.9,2.4,2.4,3.9c0.1,0.3,0.5,0.4,0.9,0.1c0.1-0.1,0.2-0.1,0.2-0.2c0.3-0.3,0.4-0.6,0.3-0.9C25.7,10.9,24.8,9.5,23.6,8.3z" fill="#ffffff" stroke="#ffffff" stroke-width="0"/>
  </g>
</svg>
