<?xml version="1.0" encoding="UTF-8"?>
<svg xmlns="http://www.w3.org/2000/svg" xmlns:xlink="http://www.w3.org/1999/xlink" width="32px" height="32px" viewBox="0 0 32 32" x="0px" y="0px" version="1.1">
  <defs/>
  <g>
    <g transform="scale(0.7 0.7) translate(16,0)">
      <path fill="url(#cloudgradient)" d="M24.2,22.1H7.8c-2,0-3.3-1.6-3.3-3.2c0-1,0.8-2.2,2-2.8l0.5-0.3l0.1-0.6c0.3-2.9,2.6-5.1,5.4-5.1c1.4,0,2.5,0.5,3.6,1.5l0.4,0.4l0.6-0.1c0.2-0.1,0.7-0.1,1.1-0.1c1.8,0,3.3,1.3,3.5,3.1l0.2,1.3l1.2-0.3c0.4-0.1,0.7-0.1,1.1-0.1c1.9,0,3.5,1.5,3.5,3.2C27.8,20.7,26.1,22.1,24.2,22.1z"/>
      <path d="M24.2,13.6c-0.2,0-0.3,0-0.5,0c-0.8-2.3-2.9-3.9-5.5-3.9c-0.2,0-0.6,0-1,0.1c-1.4-1.2-3-1.8-4.7-1.8C8.8,8,5.7,10.7,5,14.5c-1.6,1-2.7,2.8-2.7,4.5c0,3,2.5,5.4,5.5,5.4h16.4c3.1,0,5.8-2.5,5.8-5.4C30,16.1,27.4,13.6,24.2,13.6zM24.2,22.1H7.8c-2,0-3.3-1.6-3.3-3.2c0-1,0.8-2.2,2-2.8l0.5-0.3l0.1-0.6c0.3-2.9,2.6-5.1,5.4-5.1c1.4,0,2.5,0.5,3.6,1.5l0.4,0.4l0.6-0.1c0.2-0.1,0.7-0.1,1.1-0.1c1.8,0,3.3,1.3,3.5,3.1l0.2,1.3l1.2-0.3c0.4-0.1,0.7-0.1,1.1-0.1c1.9,0,3.5,1.5,3.5,3.2C27.8,20.7,26.1,22.1,24.2,22.1z" fill="#4a4a4a" stroke="#4a4a4a" stroke-width="0"/>
    </g>
    <path fill="url(#cloudgradient)" d="M24.2,22.1H7.8c-2,0-3.3-1.6-3.3-3.2c0-1,0.8-2.2,2-2.8l0.5-0.3l0.1-0.6c0.3-2.9,2.6-5.1,5.4-5.1c1.4,0,2.5,0.5,3.6,1.5l0.4,0.4l0.6-0.1c0.2-0.1,0.7-0.1,1.1-0.1c1.8,0,3.3,1.3,3.5,3.1l0.2,1.3l1.2-0.3c0.4-0.1,0.7-0.1,1.1-0.1c1.9,0,3.5,1.5,3.5,3.2C27.8,20.7,26.1,22.1,24.2,22.1z"/>
    <path d="M24.2,13.6c-0.2,0-0.3,0-0.5,0c-0.8-2.3-2.9-3.9-5.5-3.9c-0.2,0-0.6,0-1,0.1c-1.4-1.2-3-1.8-4.7-1.8C8.8,8,5.7,10.7,5,14.5c-1.6,1-2.7,2.8-2.7,4.5c0,3,2.5,5.4,5.5,5.4h16.4c3.1,0,5.8-2.5,5.8-5.4C30,16.1,27.4,13.6,24.2,13.6zM24.2,22.1H7.8c-2,0-3.3-1.6-3.3-3.2c0-1,0.8-2.2,2-2.8l0.5-0.3l0.1-0.6c0.3-2.9,2.6-5.1,5.4-5.1c1.4,0,2.5,0.5,3.6,1.5l0.4,0.4l0.6-0.1c0.2-0.1,0.7-0.1,1.1-0.1c1.8,0,3.3,1.3,3.5,3.1l0.2,1.3l1.2-0.3c0.4-0.1,0.7-0.1,1.1-0.1c1.9,0,3.5,1.5,3.5,3.2C27.8,20.7,26.1,22.1,24.2,22.1z" fill="#4a4a4a" stroke="#4a4a4a" stroke-width="0"/>
  </g>
</svg>
