<?xml version="1.0" encoding="utf-8"?>
<!-- Generator: Adobe Illustrator 26.0.2, SVG Export Plug-In . SVG Version: 6.00 Build 0)  -->
<svg version="1.1" id="Layer_1" xmlns="http://www.w3.org/2000/svg" xmlns:xlink="http://www.w3.org/1999/xlink" x="0px" y="0px"
	 viewBox="0 0 32 32" style="enable-background:new 0 0 32 32;" xml:space="preserve">
<style type="text/css">
	.st0{fill:#4A4A4A;}
	.st1{fill:#2F91DC;}
</style>
<g>
	<g>
		<path class="st0" d="M-0.1,15.7v2.6c0,2,1.7,3.7,3.7,3.7h6.6c2,0,3.7-1.7,3.7-3.7v-2.6c0-2-1.7-3.7-3.7-3.7H3.6
			C1.6,12-0.1,13.7-0.1,15.7z M10.2,20H3.6c-0.9,0-1.7-0.8-1.7-1.7v-2.6c0-0.9,0.8-1.7,1.7-1.7h6.6c0.9,0,1.7,0.8,1.7,1.7v2.6
			C11.9,19.2,11.1,20,10.2,20z"/>
	</g>
</g>
<path class="st0" d="M10.9,16h10c0.6,0,1,0.4,1,1l0,0c0,0.6-0.4,1-1,1h-10c-0.6,0-1-0.4-1-1l0,0C9.9,16.4,10.3,16,10.9,16z"/>
<path class="st1" d="M21.9,28L21.9,28c-1.1,0-2-0.9-2-2v0c0-1.1,0.9-2,2-2h0c1.1,0,2,0.9,2,2v0C23.9,27.1,23,28,21.9,28z"/>
<path class="st1" d="M13.9,28L13.9,28c-1.1,0-2-0.9-2-2v0c0-1.1,0.9-2,2-2h0c1.1,0,2,0.9,2,2v0C15.9,27.1,15,28,13.9,28z"/>
<path class="st1" d="M29.9,28L29.9,28c-1.1,0-2-0.9-2-2v0c0-1.1,0.9-2,2-2h0c1.1,0,2,0.9,2,2v0C31.9,27.1,31,28,29.9,28z"/>
<path class="st0" d="M24.9,20h-4c-0.6,0-1-0.4-1-1v-4c0-0.6,0.4-1,1-1h4c0.6,0,1-0.4,1-1v0c0-0.6-0.4-1-1-1h-4c-1.6,0-3,1.3-3,3v4
	c0,1.6,1.3,3,3,3h4c0.6,0,1-0.4,1-1v0C25.9,20.4,25.5,20,24.9,20z"/>
</svg>
