<?xml version="1.0" encoding="utf-8"?>
<!-- Generator: Adobe Illustrator 26.0.2, SVG Export Plug-In . SVG Version: 6.00 Build 0)  -->
<svg version="1.1" id="Layer_1" xmlns="http://www.w3.org/2000/svg" xmlns:xlink="http://www.w3.org/1999/xlink" x="0px" y="0px"
	 viewBox="0 0 48 48" style="enable-background:new 0 0 48 48;" xml:space="preserve">
<style type="text/css">
	.st0{fill:#4A4A4A;}
</style>
<path class="st0" d="M34,38L34,38c-1.1,0-2-0.9-2-2v0c0-1.1,0.9-2,2-2h0c1.1,0,2,0.9,2,2v0C36,37.1,35.1,38,34,38z"/>
<path class="st0" d="M26,38L26,38c-1.1,0-2-0.9-2-2v0c0-1.1,0.9-2,2-2h0c1.1,0,2,0.9,2,2v0C28,37.1,27.1,38,26,38z"/>
<path class="st0" d="M42,38L42,38c-1.1,0-2-0.9-2-2v0c0-1.1,0.9-2,2-2h0c1.1,0,2,0.9,2,2v0C44,37.1,43.1,38,42,38z"/>
<g>
	<g>
		<path class="st0" d="M18,18H6c-2.2,0-4,1.8-4,4v4c0,2.2,1.8,4,4,4h12c2.2,0,4-1.8,4-4v-4C22,19.8,20.2,18,18,18z M16,28H8
			c-2.2,0-4-1.8-4-4s1.8-4,4-4h8c2.2,0,4,1.8,4,4S18.2,28,16,28z"/>
	</g>
</g>
<g>
	<g>
		<path class="st0" d="M36,28h-4c-2.2,0-4-1.8-4-4s1.8-4,4-4h4v-2h-6c-2.2,0-4,1.8-4,4v4c0,2.2,1.8,4,4,4h6V28z"/>
	</g>
</g>
<path class="st0" d="M29,25H19c-0.6,0-1-0.4-1-1v0c0-0.6,0.4-1,1-1h10c0.6,0,1,0.4,1,1v0C30,24.6,29.6,25,29,25z"/>
</svg>
