<?xml version="1.0" encoding="UTF-8"?>
<svg xmlns="http://www.w3.org/2000/svg" xmlns:xlink="http://www.w3.org/1999/xlink" width="32px" height="32px" viewBox="0 0 32 32" x="0px" y="0px" version="1.1">
  <defs/>
  <g>
    <path d="M15.8,29c0,1-1,1-1,1s-1,0-1-1c0,0,0-23,0-23c0-1,1-1,1-1s1,0,1,1V29z" fill="#4a4a4a" stroke="#4a4a4a" stroke-width="0"/>
    <path d="M26.2,19.7c0,0-0.1,0.3-0.4,0.6c-0.4,0.3-2.8,1.8-2.8,1.8l-8.8-4.3l0-7.8l10.3,4c0,0,1.4,4.1,1.6,4.8C26.4,19.5,26.2,19.7,26.2,19.7zM15.4,16.5l7.7,3.6l1.5-1l-1.1-3.4l-8-3.4L15.4,16.5z" fill="#4a4a4a" stroke="#4a4a4a" stroke-width="0"/>
    <path d="M14,18H6c0,0-3.4-2.6-4.1-3.1C1.1,14.3,1.3,14,1.3,14s0-0.5,0.7-1c0.7-0.5,4-3,4-3h8V18zM6,16h8v-4H6.1l-2.2,2L6,16z" fill="#4a4a4a" stroke="#4a4a4a" stroke-width="0"/>
    <path d="M26.7,5.9c-0.1-0.5-3.8-1.4-3.8-1.4l-6.8,4.7l1.9,0.9l0,0l5.1-3.8l1.7,0.5L23.7,11l-2.4,0.7l1.7,0.9l2.3-0.6c0,0,1.1-4.6,1.3-5c0.1-0.3,0.1-0.5,0.1-0.5S26.8,6.4,26.7,5.9z" fill="#4a4a4a" stroke="#4a4a4a" stroke-width="0"/>
  </g>
</svg>
