<?xml version="1.0" encoding="UTF-8"?>
<svg xmlns="http://www.w3.org/2000/svg" xmlns:xlink="http://www.w3.org/1999/xlink" width="32px" height="32px" viewBox="0 0 32 32" x="0px" y="0px" version="1.1">
  <defs/>
  <g>
    <path d="M29.5,20.9l-0.7-2.3c-0.2-0.8-1-2.4-2.7-2.2c-0.4,0-0.7,0.1-1,0.3c-0.1-0.2-0.3-0.3-0.4-0.4c-0.4-0.3-1-0.4-1.5-0.3c0.8-1.4,1.2-3.1,1.2-4.8C24.4,5.6,19.8,1,14.2,1S4,5.6,4,11.2c0,5.3,4.1,9.7,9.3,10.1c-0.4,0.3-0.7,0.7-0.8,1.2c-0.2,0.7,0.1,1.4,0.7,1.9c0.7,0.6,1.4,1.4,2.1,2.2c0.8,1,1.7,2.1,2.9,3.1c1.5,1.4,2.2,1.9,2.4,2.1c0.2,0.2,0.5,0.3,0.8,0.2l7-2.2c0.2-0.1,0.4-0.2,0.5-0.5c0-0.1,0.1-0.2,0.1-0.2l0,0c0.1-0.2,0.3-0.6,0.7-2.3C30.5,23.7,29.6,21,29.5,20.9zM6.3,11.2c0-4.3,3.5-7.8,7.8-7.8S22,6.9,22,11.2c0,1.8-0.6,3.4-1.6,4.7c-0.2,0-0.5,0.1-0.8,0.1c-0.2,0.1-0.4,0.2-0.6,0.3l-0.7-2.2c0.4-0.7,0.7-1.6,0.7-2.5C19,9.1,16.9,7,14.3,7s-4.7,2.1-4.7,4.7c0,2.5,2,4.6,4.6,4.7L15,19c-0.3,0-0.5,0-0.8,0C9.9,19,6.3,15.5,6.3,11.2zM17,12.2c-0.5-0.3-1.1-0.3-1.7-0.2c-1.7,0.5-1.7,2.2-1.5,3.1l0,0.1c-1.8-0.2-3.2-1.7-3.2-3.6c0-2,1.6-3.6,3.6-3.6s3.6,1.6,3.6,3.6c0,0.4-0.1,0.8-0.2,1.2C17.5,12.6,17.3,12.4,17,12.2zM28.1,26.5c-0.2,0.9-0.4,1.3-0.5,1.6c-0.1,0.1-0.1,0.3-0.1,0.4l-6.1,1.9c-0.1-0.1-0.3-0.2-0.5-0.4c-0.4-0.3-0.9-0.7-1.7-1.4c-1-1-1.9-2-2.7-3c-0.7-0.9-1.4-1.7-2.2-2.4c-0.2-0.2-0.2-0.3-0.2-0.4c0.1-0.2,0.3-0.5,0.6-0.6c0.2-0.1,0.9-0.2,1.4,0.6c0.2,0.3,0.7,0.4,1,0.2c0.3-0.2,0.5-0.6,0.4-1l-0.4-1.2l-0.7-2.3l-0.8-2.6l-0.3-1l-0.1-0.4c0-0.1-0.2-0.9,0.4-1.1c0.2-0.1,0.3,0,0.4,0c0.2,0.1,0.4,0.5,0.4,0.6c0,0,0,0,0,0.1l0,0.1l0.4,1.1l0.9,2.6l0.2,0.6c0.1,0.6,0.4,1.3,0.5,1.6c0,0.1,0.1,0.2,0.1,0.2c0.2,0.3,0.6,0.5,0.9,0.4c0,0,0.1,0,0.1,0c0.4-0.2,0.6-0.6,0.4-1l-0.1-0.4l-0.4-1.1c-0.1-0.6,0.2-0.7,0.4-0.8c0.3-0.1,0.6-0.1,0.7,0c0.2,0.1,0.2,0.4,0.2,0.5c0,0.1,0,0.2,0,0.2l0.1,0.2l0,0.1c0.1,0.4,0.4,1.1,0.4,1.2c0.2,0.3,0.6,0.5,0.9,0.4c0,0,0.1,0,0.1,0c0.4-0.2,0.6-0.6,0.4-1l-0.3-0.9c-0.1-0.5,0.1-0.6,0.5-0.7c0.3-0.1,0.4,0,0.5,0c0.2,0.1,0.4,0.6,0.5,1.1c0,0.2,0.1,0.5,0.2,0.8c0.1,0.4,0.5,0.7,0.9,0.6c0.4-0.1,0.7-0.4,0.7-0.9c0,0-0.1-0.5-0.2-0.7c0-0.5,0.1-0.5,0.2-0.5c0,0,0.1,0,0.1,0c0.7-0.1,0.9,0.9,0.9,1c0,0,0,0,0,0.1l0.7,2.3C28,21.4,28.8,23.8,28.1,26.5z" fill="#ffffff" stroke="#ffffff" stroke-width="0"/>
  </g>
</svg>
