<?xml version="1.0" encoding="UTF-8"?>
<svg xmlns="http://www.w3.org/2000/svg" xmlns:xlink="http://www.w3.org/1999/xlink" width="32px" height="32px" viewBox="0 0 32 32" x="0px" y="0px" version="1.1">
  <defs/>
  <g transform="rotate(-45,16,16)">
    <path d="M26,21.5c0,0.276-0.224,0.5-0.5,0.5h-6c-0.276,0-0.5-0.224-0.5-0.5l0,0c0-0.276,0.224-0.5,0.5-0.5h6C25.776,21,26,21.224,26,21.5L26,21.5z" fill="#ffffff" stroke="#ffffff" stroke-width="0"/>
    <path d="M17,17.5c0,0.276-0.224,0.5-0.5,0.5h-6c-0.276,0-0.5-0.224-0.5-0.5l0,0c0-0.276,0.224-0.5,0.5-0.5h6C16.776,17,17,17.224,17,17.5L17,17.5z" fill="#ffffff" stroke="#ffffff" stroke-width="0"/>
    <path d="M26,17.5c0,0.276-0.224,0.5-0.5,0.5h-6c-0.276,0-0.5-0.224-0.5-0.5l0,0c0-0.276,0.224-0.5,0.5-0.5h6C25.776,17,26,17.224,26,17.5L26,17.5z" fill="#ffffff" stroke="#ffffff" stroke-width="0"/>
    <path fill="#ffffff" d="M17,19.5c0,0.276-0.224,0.5-0.5,0.5h-6c-0.276,0-0.5-0.224-0.5-0.5l0,0c0-0.276,0.224-0.5,0.5-0.5h6C16.776,19,17,19.224,17,19.5L17,19.5z" stroke="#ffffff" stroke-width="0"/>
    <path d="M26,19.5c0,0.276-0.224,0.5-0.5,0.5h-6c-0.276,0-0.5-0.224-0.5-0.5l0,0c0-0.276,0.224-0.5,0.5-0.5h6C25.776,19,26,19.224,26,19.5L26,19.5z" fill="#ffffff" stroke="#ffffff" stroke-width="0"/>
    <path d="M17,21.5c0,0.276-0.224,0.5-0.5,0.5h-6c-0.276,0-0.5-0.224-0.5-0.5l0,0c0-0.276,0.224-0.5,0.5-0.5h6C16.776,21,17,21.224,17,21.5L17,21.5z" fill="#ffffff" stroke="#ffffff" stroke-width="0"/>
    <path d="M25,12H11c0,0-1,0-1,1v1c0,0,0,1,1,1s14,0,14,0s1,0,0.998-1L26,13C26,13,26,12,25,12z" fill="#ffffff" stroke="#ffffff" stroke-width="0"/>
    <path d="M28,8H7C6,8,6,9,6,9v1H3c-1,0-1,1-1,1v12c0,0,0,3,3,3h23c2,0,2-2,2-2V10C30,10,30,8,28,8zM6,23c0,0,0,1-1,1s-1-1-1-1V12h2V23zM28,23c0,1-1,1-1,1S7.396,23.999,7.417,24c0.5,0.021,0.573-0.955,0.583-1V11v-1h19c1,0,1,1,1,1V23z" fill="#ffffff" stroke="#ffffff" stroke-width="0"/>
  </g>
</svg>
