<svg width="19" height="16" viewBox="0 0 19 16" fill="none" xmlns="http://www.w3.org/2000/svg">
<path d="M2.16512 15.3333C1.66095 15.3333 1.22936 15.1538 0.870329 14.7948C0.511301 14.4358 0.331787 14.0042 0.331787 13.5V2.49999C0.331787 1.99582 0.511301 1.56423 0.870329 1.2052C1.22936 0.84617 1.66095 0.666656 2.16512 0.666656H16.8318C17.336 0.666656 17.7676 0.84617 18.1266 1.2052C18.4856 1.56423 18.6651 1.99582 18.6651 2.49999V13.5C18.6651 14.0042 18.4856 14.4358 18.1266 14.7948C17.7676 15.1538 17.336 15.3333 16.8318 15.3333H2.16512ZM9.49845 8.91666L2.16512 4.33332V13.5H16.8318V4.33332L9.49845 8.91666ZM9.49845 7.08332L16.8318 2.49999H2.16512L9.49845 7.08332ZM2.16512 4.33332V2.49999V13.5V4.33332Z" fill="#2977CD"/>
</svg>
