<svg viewBox="0 0 48 48" xmlns="http://www.w3.org/2000/svg"><path d="m28.5 7c1 .6 3.7 2.6 5.3 4.2.2.2.6.6.7.7s.6.6.7.7c.6 1 1.6 2.3 2.5 2.6 3.2 1.2 5.9 4.1 6.6 7.2 0 .5-.2 1.2-.5 1.6-.2.4-1 1-1.5 1.2-.6.2-2.9.2-2.9.2-.4 0-.7-.1-1.1-.2-.1 0-.2-.1-.4-.1-.1 0-.1 0-.1 0s0 .1-.1.1c-.1.1-.2.4-.2.5-1.4 2.7-2.9 5.3-5.2 7.4-.1.1-.1.1-.2.2l-.1.1v.1c0 .2 0 .4-.1.6-.1.4-.1.7-.2 1.1s-.2.7-.4 1.1c0 .2-.1.4-.1.6 0 .1-.1.1 0 .2l.1.1c.5.2.9.5 1.2.7.5.4.6.7.6 1.4 0 .1 0 .1-.1.1 0 0-.4-.1-.5-.1s-.1.4-.2.5c.2-.1.1-.1-.2-.1-.6.1-1.2-.1-1.8-.1-.2 0-.5 0-.7-.1-.1 0-.2-.1-.4 0-.1.1-.2.2-.4.4-.6.6-1.1 1-1.7 1.6-.4.2-.6.5-.9.6-.2.1-.4.2-.6.4-.1 0-.1.1-.2.1s-.2 0-.4 0-.5 0-.6 0c0-.1-.1-.2-.2-.2s-.1 0-.2 0-.1-.1-.1-.2 0-.2 0-.4c0-.5.2-.6.6-1 .2-.2.6-.5.7-.7 0-.1.1-.2.1-.4 0-.1 0-.4 0-.4-.4-.1-.6-.2-.9-.4-.6-.1-1.4-.2-2-.4-1.4-.1-2.8-.1-4.1-.6-.1 0-.1 0-.2-.1 0-.1-.1-.1-.1-.2-.1-.1-.1-.2-.2-.4s-.2-.6-.5-.7c-.2-.6-.6-1-.9-1.6-.4-.6-.6-1-1-1.5-.1-.1-.2-.4-.5-.5-.9-1.2-2.2-1.8-3.4-2.5-.2-.1-.6-.2-.7-.4-2.4-1-4.4-3.9-3.8-6.4.1-.2.1-.4.2-.6v-.1s0 0 0-.1c0 0-.1 0-.1-.1-.1-.1-.4-.2-.5-.4-.2 0-.4-.2-.5-.6-.1-.5-.2-.7-.3-.8-.4-1.4-1.4-2.5-2.3-3.6-1.2-1.1.7-2 1.8-2.2 2.2-.1 4.3 1.6 4.7 3.8 0 .2.1.5.1.6s.1.2.1.4v.1c0 .1 0 .1.1 0 .4-.1.6-.2 1-.4.6-.2 1.2-.6 1.8-.7.4-.1.6-.2.9-.4 3.6-1.2 7.7-.2 11.1 1.5.2.1.6.4.7.5.2.1.6.2.7.4.9.4 2.1.6 2.9-.2.4-.5.6-.9.9-1.5.2-.6.6-1 1-1.4.5-.4.9-.6 1.1-.9.1-.2.2-.5.2-.6v.2s0 0-.1 0h.1c-.1-.1-.2-.1-.4-.1-1.4-.6-2.7-1-4.1-1.5-.4-.1-.6-.2-1-.4-.2-.1-.6-.2-.7-.4-1.5-.6-2.6-1.5-3.6-2.5-.2-.2-.4-.5-.6-.7-.1-.2-.5-.9-.2-1 .6-.2 2.5 0 3.6.6.4.1.6.2.9.4.9.4 1.8.6 2.9.6-.4-.9-1.1-1.5-1.8-2-.4-.4-.6-.6-.9-1-.2-.5-.6-1.2-.5-1.5.6-.1 1.3-.5 2.3-0zm-.1 24.2c-.5.1-.9.2-1.5.2-1.2.1-2.6.1-3.9 0-1.2 0-2.3-.1-3.6 0 .1.6.2 1.4.6 2 .2.6.6 1.1.9 1.6.2.2.4.6.6.7 0 .1.1.1.1.2.1 0 .1 0 .2.1.1 0 .4.1.5.1.6.1 1.4.4 2 .5.7.1 1.5.2 2.2.2h1.2.2c.1 0 0 0 .1-.1 0-.1 0-.1 0-.2s.1-.4.1-.6c.3-1.5.3-3.1.3-4.7" fill="#fff"/></svg>