<?xml version="1.0" encoding="utf-8"?>
<!-- Generator: Adobe Illustrator 19.2.1, SVG Export Plug-In . SVG Version: 6.00 Build 0)  -->
<svg version="1.1" id="Layer_2" xmlns="http://www.w3.org/2000/svg" xmlns:xlink="http://www.w3.org/1999/xlink" x="0px" y="0px"
	 viewBox="0 0 48 48" style="enable-background:new 0 0 48 48;" xml:space="preserve">
<style type="text/css">
	.st0{fill:#0592E1;}
</style>
<g>
	<path class="st0" d="M42.1,39.8H45c-0.9,1.9-2.3,3.3-4.2,4.3C38.6,45.4,36,46,32.9,46c-3,0-5.6-0.5-7.8-1.5S21.3,42,20.2,40
		s-1.6-4.1-1.6-6.5c0-2.6,0.6-4.9,1.8-7.2c1.2-2.2,2.9-3.9,5-5s4.5-1.7,7.2-1.7c2.3,0,4.3,0.4,6.1,1.3c1.8,0.9,3.2,2.2,4.1,3.8
		c0.9,1.6,1.4,3.4,1.4,5.4c0,2.3-0.7,4.4-2.1,6.3c-1.8,2.4-4.1,3.6-6.9,3.6c-0.8,0-1.3-0.1-1.7-0.4s-0.6-0.7-0.8-1.2
		c-1.1,1-2.3,1.6-3.7,1.6c-1.5,0-2.8-0.5-3.8-1.6s-1.5-2.4-1.5-4.2c0-2.1,0.6-4.1,1.8-5.9c1.5-2.2,3.3-3.2,5.6-3.2
		c1.6,0,2.8,0.6,3.6,1.9l0.3-1.5h3.6l-2.1,9.8c-0.1,0.6-0.2,1-0.2,1.2c0,0.2,0.1,0.4,0.2,0.5s0.2,0.2,0.4,0.2c0.4,0,1-0.3,1.7-0.8
		c0.9-0.7,1.7-1.6,2.3-2.8c0.6-1.2,0.9-2.4,0.9-3.6c0-2.2-0.8-4.1-2.4-5.6c-1.6-1.5-3.9-2.3-6.8-2.3c-2.5,0-4.6,0.5-6.3,1.5
		c-1.7,1-3,2.4-3.9,4.3c-0.9,1.8-1.3,3.7-1.3,5.7c0,1.9,0.5,3.7,1.5,5.2s2.3,2.7,4.1,3.5s3.8,1.1,6,1.1c2.2,0,4.1-0.3,5.6-0.9
		S41.1,41.1,42.1,39.8z M27.3,34.2c0,1.2,0.2,2,0.7,2.6s1,0.8,1.7,0.8c0.5,0,1-0.1,1.5-0.4c0.3-0.2,0.7-0.5,1-0.9
		c0.5-0.6,0.9-1.4,1.3-2.4s0.5-2.1,0.5-3c0-1-0.2-1.8-0.7-2.4s-1.1-0.8-1.8-0.8c-0.8,0-1.5,0.3-2.2,0.9c-0.7,0.6-1.2,1.5-1.5,2.6
		C27.5,32.4,27.3,33.4,27.3,34.2z"/>
</g>
</svg>
