<?xml version="1.0" encoding="utf-8"?>
<!-- Generator: Adobe Illustrator 27.2.0, SVG Export Plug-In . SVG Version: 6.00 Build 0)  -->
<svg version="1.1" id="Layer_1" xmlns="http://www.w3.org/2000/svg" xmlns:xlink="http://www.w3.org/1999/xlink" x="0px" y="0px"
	 viewBox="0 0 48 48" style="enable-background:new 0 0 48 48;" xml:space="preserve">
<style type="text/css">
	.st0{fill:#4A4A4A;}
</style>
<rect x="30" y="24" class="st0" width="4" height="14"/>
<rect x="22" y="16" class="st0" width="4" height="26"/>
<rect x="14" y="20" class="st0" width="4" height="18"/>
<rect x="30" y="34" class="st0" width="8" height="4"/>
<rect x="10" y="34" class="st0" width="8" height="4"/>
<path class="st0" d="M8,32c-2.2,0-4,1.8-4,4s1.8,4,4,4s4-1.8,4-4S10.2,32,8,32z M8,38c-1.1,0-2-0.9-2-2s0.9-2,2-2s2,0.9,2,2
	S9.1,38,8,38z"/>
<path class="st0" d="M24,40c-2.2,0-4,1.8-4,4s1.8,4,4,4s4-1.8,4-4S26.2,40,24,40z M24,46c-1.1,0-2-0.9-2-2s0.9-2,2-2s2,0.9,2,2
	S25.1,46,24,46z"/>
<path class="st0" d="M40,32c-2.2,0-4,1.8-4,4s1.8,4,4,4s4-1.8,4-4S42.2,32,40,32z M40,38c-1.1,0-2-0.9-2-2s0.9-2,2-2s2,0.9,2,2
	S41.1,38,40,38z"/>
</svg>
