<?xml version="1.0" encoding="utf-8"?>
<!-- Generator: Adobe Illustrator 27.2.0, SVG Export Plug-In . SVG Version: 6.00 Build 0)  -->
<svg version="1.1" id="Layer_1" xmlns="http://www.w3.org/2000/svg" xmlns:xlink="http://www.w3.org/1999/xlink" x="0px" y="0px"
	 viewBox="0 0 32 32" style="enable-background:new 0 0 32 32;" xml:space="preserve">
<style type="text/css">
	.st0{fill:#701384;}
</style>
<rect x="10" y="14" class="st0" width="2" height="12"/>
<rect x="16" y="12" class="st0" width="2" height="16"/>
<rect x="22" y="16" class="st0" width="2" height="10"/>
<rect x="22" y="24" class="st0" width="6" height="2"/>
<rect x="7" y="24" class="st0" width="3" height="2"/>
<path class="st0" d="M5,22c-1.7,0-3,1.3-3,3s1.3,3,3,3s3-1.3,3-3S6.7,22,5,22z M5,26c-0.6,0-1-0.4-1-1s0.4-1,1-1s1,0.4,1,1
	S5.6,26,5,26z"/>
<path class="st0" d="M17,26c-1.7,0-3,1.3-3,3s1.3,3,3,3s3-1.3,3-3S18.7,26,17,26z M17,30c-0.6,0-1-0.4-1-1s0.4-1,1-1s1,0.4,1,1
	S17.6,30,17,30z"/>
<path class="st0" d="M29,22c-1.7,0-3,1.3-3,3s1.3,3,3,3s3-1.3,3-3S30.7,22,29,22z M29,26c-0.6,0-1-0.4-1-1s0.4-1,1-1s1,0.4,1,1
	S29.6,26,29,26z"/>
</svg>
