<?xml version="1.0" encoding="utf-8"?>
<!-- Generator: Adobe Illustrator 19.2.1, SVG Export Plug-In . SVG Version: 6.00 Build 0)  -->
<svg version="1.1" id="Layer_1" xmlns="http://www.w3.org/2000/svg" xmlns:xlink="http://www.w3.org/1999/xlink" x="0px" y="0px"
	 viewBox="0 0 32 32" style="enable-background:new 0 0 32 32;" xml:space="preserve">
<style type="text/css">
	.st0{fill:#4A4A4A;}
	.st1{fill:#0592E1;}
</style>
<g>
	<g>
		<path id="textcloud_1_" class="st0" d="M12.4,29c-0.2,0-0.5,0-0.7-0.1c-0.7-0.3-1.2-1-1.2-1.8L10,24
			c-4.4-1-8-5.8-8-10.7C2,7.7,7.3,4,12.6,4h7.8c5.3,0,9.6,3.6,9.6,9.3S26.3,24,21,24h-3l-4.3,4.3C13.4,28.8,12.9,29,12.4,29z
			 M12.5,6C8.1,6,4,8.3,4,13c0,4.3,3,8.3,7,9l1.2,0v5.1c0,0.1,0.1,0.2,0.1,0.2h0.1c0.1,0,0.1,0,0.1-0.1l5-5.2h2.9
			c4.4,0,7.6-4.2,7.6-9s-3.4-7-7.7-7C20.3,6,12.5,6,12.5,6z"/>
	</g>
</g>
<g>
	<path class="st1" d="M21,12h-2.1c0.3,0.1,0.4,0.1,0.4,0.2c0,0.1-0.1,0.1-0.3,0.1c-0.6,1.8-1.5,3.2-2.7,4.4c1.2,1,2.8,0.6,4.6,1
		c-0.2,0.2-0.9,1.9-1,2.1c-1.9-0.5-2.9-2.7-4.2-3.8c-1.2,1-1.9,3.2-3.8,3.8c-0.1-0.2-1.1-1.9-1.3-2.1c1.8-0.5,3.3,0,4.5-1
		c-1.2-1.2-2.1-2.7-2.7-4.5l0.5-0.1H11v-2h4V8h2c0,0.1,0.1,0,0,0v2h4V12z M14,12c0.6,1.6,0.8,1.9,2,3c1.1-1.1,1.4-1.3,2-3H14z"/>
</g>
</svg>
