<?xml version="1.0" encoding="utf-8"?>
<!-- Generator: Adobe Illustrator 19.2.1, SVG Export Plug-In . SVG Version: 6.00 Build 0)  -->
<svg version="1.1" id="Layer_2" xmlns="http://www.w3.org/2000/svg" xmlns:xlink="http://www.w3.org/1999/xlink" x="0px" y="0px"
	 viewBox="0 0 48 48" style="enable-background:new 0 0 48 48;" xml:space="preserve">
<style type="text/css">
	.st0{fill:#F3F3F3;}
	.st1{fill:#0592E1;}
</style>
<g>
	<g>
		<path id="textcloud" class="st0" d="M28.4,47c-0.2,0-0.5,0-0.7-0.1c-0.7-0.3-1.2-1-1.2-1.8L26,42c-4.4-1-8-5.8-8-10.7
			c0-5.6,5.3-9.3,10.6-9.3h7.8c5.3,0,9.6,3.6,9.6,9.3S42.3,42,37,42h-3l-4.3,4.3C29.4,46.8,28.9,47,28.4,47z"/>
	</g>
</g>
<g>
	<path class="st1" d="M37,30h-2.1c0.3,0.1,0.4,0.1,0.4,0.2s-0.1,0.1-0.3,0.1c-0.6,1.8-1.5,3.2-2.7,4.4c1.2,1,2.8,0.6,4.6,1
		c-0.2,0.2-0.9,1.9-1,2.1C34,37.3,33,35.1,31.7,34c-1.2,1-1.9,3.2-3.8,3.8c-0.1-0.2-1.1-1.9-1.3-2.1c1.8-0.5,3.3,0,4.5-1
		c-1.2-1.2-2.1-2.7-2.7-4.5l0.5-0.1H27v-2h4v-2h2c0,0.1,0.1,0,0,0v2h4V30z M30,30c0.6,1.6,0.8,1.9,2,3c1.1-1.1,1.4-1.3,2-3H30z"/>
</g>
</svg>
