<?xml version="1.0" encoding="UTF-8"?>
<!-- Generator: Adobe Illustrator 19.2.1, SVG Export Plug-In . SVG Version: 6.00 Build 0)  -->
<svg xmlns="http://www.w3.org/2000/svg" xmlns:xlink="http://www.w3.org/1999/xlink" version="1.1" x="0px" y="0px" viewBox="0 0 48 48" style="enable-background:new 0 0 48 48;" xml:space="preserve">
<style type="text/css">
	.st0{display:none;}
	.st1{display:inline;}
	.st2{fill:#4A4A4A;}
	.st3{display:inline;fill:#4A4A4A;}
	.st4{display:inline;fill:#4A4A4A;stroke:#F3F3F3;stroke-miterlimit:10;}
	.st5{display:inline;fill:url(#SVGID_1_);}
</style>


<g id="Layer_2_2_">
	<rect x="20" y="12" class="st2" width="14" height="2"/>
	<rect x="20" y="20" class="st2" width="14" height="2"/>
	<rect x="20" y="28" class="st2" width="14" height="2"/>
	<rect x="20" y="28" class="st2" width="14" height="2"/>
	<g>
		<g>
			<path class="st2" d="M12,10v6h6v-6H12z M16,14h-2v-2h2V14z"/>
		</g>
	</g>
	<g>
		<g>
			<path class="st2" d="M12,18v6h6v-6H12z M16,22h-2v-2h2V22z"/>
		</g>
	</g>
	<g>
		<g>
			<path class="st2" d="M12,26v6h6v-6H12z M16,30h-2v-2h2V30z"/>
		</g>
	</g>
	<rect x="20" y="36" class="st2" width="14" height="2"/>
	<rect x="20" y="36" class="st2" width="14" height="2"/>
	<g>
		<g>
			<path class="st2" d="M12,34v6h6v-6H12z M16,38h-2v-2h2V38z"/>
		</g>
	</g>
</g>
</svg>
