<?xml version="1.0" encoding="utf-8"?>
<!-- Generator: Adobe Illustrator 21.0.0, SVG Export Plug-In . SVG Version: 6.00 Build 0)  -->
<svg version="1.1" id="Layer_1" xmlns="http://www.w3.org/2000/svg" xmlns:xlink="http://www.w3.org/1999/xlink" x="0px" y="0px"
	 viewBox="0 0 48 48" style="enable-background:new 0 0 48 48;" xml:space="preserve">
<style type="text/css">
	.st0{fill:#4A4A4A;}
	.st1{fill:none;stroke:#4A4A4A;stroke-width:3;stroke-miterlimit:10;}
</style>
<g id="Layer_7">
	<path class="st0" d="M32,37c-1.3,0-2.3-1.1-2.3-2.3c0-1.1,0.9-2.1,2-2.2c-0.8-0.5-1.6-0.7-2.6-0.7c-2.9,0-5.3,2.4-5.3,5.3
		s2.4,5.3,5.3,5.3s5.3-2.4,5.3-5.3c0-0.5-0.1-0.9-0.2-1.4C33.8,36.4,32.9,37,32,37z"/>
</g>
<path class="st1" d="M42.9,35c0,0-12.3-16.6-27.7,0"/>
<path class="st1" d="M42.9,38.8c0,0-12.3,16.6-27.7,0"/>
</svg>
