<?xml version="1.0" encoding="utf-8"?>
<!-- Generator: Adobe Illustrator 21.0.0, SVG Export Plug-In . SVG Version: 6.00 Build 0)  -->
<svg version="1.1" id="Layer_1" xmlns="http://www.w3.org/2000/svg" xmlns:xlink="http://www.w3.org/1999/xlink" x="0px" y="0px"
	 viewBox="0 0 48 48" style="enable-background:new 0 0 48 48;" xml:space="preserve">
<style type="text/css">
	.st0{fill:#4A4A4A;}
	.st1{fill:#F3F3F3;}
</style>
<g id="Layer_7">
	<path class="st0" d="M32,37c-1.3,0-2.3-1.1-2.3-2.3c0-1.1,0.9-2.1,2-2.2c-0.8-0.5-1.6-0.7-2.6-0.7c-2.9,0-5.3,2.4-5.3,5.3
		s2.4,5.3,5.3,5.3s5.3-2.4,5.3-5.3c0-0.5-0.1-0.9-0.2-1.4C33.8,36.4,32.9,37,32,37z"/>
</g>
<g id="Layer_7_copy">
	<path class="st1" d="M43.5,36c0,0-6.6-8-14.5-7.9C20.9,28.1,14.5,36,14.5,36s5.9,7.9,14.5,7.9C36.9,44,43.5,36,43.5,36z"/>
	<path class="st0" d="M32.7,36c-1.6,0-2.9-1.3-2.9-2.9c0-1.5,1.1-2.6,2.4-2.8c-0.9-0.5-2-0.9-3.2-0.9c-3.6,0-6.6,3-6.6,6.6
		s3,6.6,6.6,6.6s6.6-3,6.6-6.6c0-0.6-0.1-1.2-0.3-1.7C34.9,35.3,33.9,36,32.7,36z"/>
</g>
<g id="Layer_7_copy_2">
	<path class="st1" d="M28.4,27.4c-8.4,0.1-15.1,8.3-15.1,8.3s6.2,8.2,15.1,8.3c8.2,0.1,15.1-8.3,15.1-8.3S36.6,27.3,28.4,27.4z
		 M28.4,42.5c-3.8,0-6.9-3.1-6.9-6.9s3.1-6.9,6.9-6.9c1.2,0,2.4,0.3,3.4,0.9c-1.4,0.2-2.5,1.4-2.5,3c0,1.7,1.4,3,3,3
		c1.2,0,2.3-0.8,2.8-1.8c0.1,0.6,0.3,1.2,0.3,1.8C35.3,39.4,32.2,42.5,28.4,42.5z"/>
</g>
</svg>
