<?xml version="1.0" encoding="utf-8"?>
<!-- Generator: Adobe Illustrator 25.4.0, SVG Export Plug-In . SVG Version: 6.00 Build 0)  -->
<svg version="1.1" id="Layer_1" xmlns="http://www.w3.org/2000/svg" xmlns:xlink="http://www.w3.org/1999/xlink" x="0px" y="0px"
	 viewBox="0 0 48 48" style="enable-background:new 0 0 48 48;" xml:space="preserve">
<style type="text/css">
	.st0{fill:#F3F3F3;}
</style>
<g>
	<g>
		<path id="funnel" class="st0" d="M46.9,18c-7,0-9.9,0-16.9,0c-1.3,0-2.5,0-3.9,0c-5.7,0-7.2,0-12.9,0c-0.4,0-0.9,0.2-1,0.8
			c-0.3,0.5-0.2,1,0.1,1.4s0.9,1,1.3,1.4c4.9,5.3,5.1,4.9,10.2,10.1C24.1,32,24,32.5,24,33v14c0,1.1,0.8,1.2,1.9,0.7
			c2.7-1.1,6.9-3.2,9.4-4.6C36,42.9,36,42.6,36,42c0-4.5,0-4.5,0-9c0-0.3,0.3-0.9,0.4-1l11.3-11.8c0.1-0.1,0.3-0.6,0.3-0.8
			C48.1,18.6,47.7,18,46.9,18z M33,29c-0.3,0.3-1,1.5-1,2v10c0,0.3,0.3-1.3,0-1l-4,3V31c0-0.5-1.1-0.8-1.4-1.1L18,22h24L33,29z"/>
	</g>
</g>
</svg>
