<?xml version="1.0" encoding="utf-8"?>
<!-- Generator: Adobe Illustrator 25.4.0, SVG Export Plug-In . SVG Version: 6.00 Build 0)  -->
<svg version="1.1" id="Layer_1" xmlns="http://www.w3.org/2000/svg" xmlns:xlink="http://www.w3.org/1999/xlink" x="0px" y="0px"
	 viewBox="0 0 32 32" style="enable-background:new 0 0 32 32;" xml:space="preserve">
<style type="text/css">
	.st0{fill:#F3F3F3;}
</style>
<g>
	<g>
		<path id="funnel" class="st0" d="M27.9,12c-4.7,0-3.3,0-8,0c-0.9,0-1.7,0-2.6,0c-3.8,0-3.5,0-7.3,0c-0.3,0-0.6,0.1-0.7,0.5
			c-0.2,0.3-0.1,0.6,0.1,0.9c0.2,0.3,0.6,0.6,0.9,0.9c3.3,3.3,2.1,2.8,5.5,6.1C16,20.6,16,20.7,16,21v9.2c0,0.7,0.5,1,1.2,0.7
			c1.8-0.7,2.6-2,4.3-2.9c0.4-0.2,0.5-0.5,0.5-0.9c0-2.8,0-3.3,0-6.1c0-0.2,0.1-0.4,0.2-0.5l6.2-7.1c0.1-0.1,0.2-0.4,0.2-0.5
			C28.7,12.4,28.4,12,27.9,12z M20.3,19.2C20.1,19.4,20,19.7,20,20v6.5c0,0.2-0.1,0.2-0.3,0.4L18,28.7V20c0-0.3-0.2-0.6-0.4-0.8
			L13,14h12L20.3,19.2z"/>
	</g>
</g>
</svg>
