<?xml version="1.0" encoding="utf-8"?>
<!-- Generator: Adobe Illustrator 19.2.1, SVG Export Plug-In . SVG Version: 6.00 Build 0)  -->
<svg version="1.1" id="Layer_1" xmlns="http://www.w3.org/2000/svg" xmlns:xlink="http://www.w3.org/1999/xlink" x="0px" y="0px"
	 viewBox="0 0 32 32" style="enable-background:new 0 0 32 32;" xml:space="preserve">
<style type="text/css">
	.st0{fill:url(#SVGID_1_);}
	.st1{fill:#4A4A4A;}
</style>
<radialGradient id="SVGID_1_" cx="19.5" cy="20.5" r="6.75" gradientUnits="userSpaceOnUse">
	<stop  offset="0" style="stop-color:#FFFFFF"/>
	<stop  offset="1" style="stop-color:#CCE4FF"/>
</radialGradient>
<circle class="st0" cx="19.5" cy="20.5" r="6.8"/>
<g>
	<g>
		<g>
			<path class="st1" d="M24.8,15.2c-2.9-2.9-7.7-2.9-10.6,0c-2.9,2.9-2.9,7.7,0,10.6c2.9,2.9,7.7,2.9,10.6,0
				C27.7,22.9,27.7,18.1,24.8,15.2z M23.7,24.7c-2.3,2.3-6.1,2.3-8.5,0s-2.3-6.1,0-8.5s6.1-2.3,8.5,0S26.1,22.4,23.7,24.7z"/>
		</g>
	</g>
	
		<rect x="26.2" y="24.5" transform="matrix(0.7071 -0.7071 0.7071 0.7071 -11.8564 27.2097)" class="st1" width="1.5" height="6.8"/>
</g>
</svg>
