<?xml version="1.0" encoding="utf-8"?>
<!-- Generator: Adobe Illustrator 21.0.0, SVG Export Plug-In . SVG Version: 6.00 Build 0)  -->
<svg version="1.1" id="Layer_1" xmlns="http://www.w3.org/2000/svg" xmlns:xlink="http://www.w3.org/1999/xlink" x="0px" y="0px"
	 viewBox="0 0 32 32" style="enable-background:new 0 0 32 32;" xml:space="preserve">
<style type="text/css">
	.st0{fill:#FFFFFF;}
	.st1{fill:#D60000;}
	.st2{fill:#4A4A4A;}
</style>
<path class="st0" d="M22,31L22,31c5,0,9-4,9-9V11l-9,1V31z"/>
<path class="st1" d="M22,31L22,31c-5,0-9-4-9-9V11l9,1V31z"/>
<g>
	<g>
		<path class="st2" d="M22,11c-7,0-10-1-10-1v13c0,5,4,9,9,9H23c5,0,9-4,9-9V10C32,10,29,11,22,11z M30,22c0,4.4-3.6,8-8,8
			s-8-3.6-8-8V12c0,0,3,1,8,1s8-1,8-1V22z"/>
	</g>
</g>
<ellipse class="st2" cx="18.5" cy="18.5" rx="2.5" ry="1.5"/>
<ellipse class="st2" cx="25.5" cy="18.5" rx="2.5" ry="1.5"/>
<path class="st2" d="M28,23l-2.2,2.1c-2.4,1.2-5.2,1.2-7.7,0L16,23l0,0l4.7,0.8c0.9,0.1,1.8,0.1,2.7,0L28,23L28,23z"/>
</svg>
