<?xml version="1.0" encoding="utf-8"?>
<!-- Generator: Adobe Illustrator 19.2.1, SVG Export Plug-In . SVG Version: 6.00 Build 0)  -->
<svg version="1.1" id="Layer_1" xmlns="http://www.w3.org/2000/svg" xmlns:xlink="http://www.w3.org/1999/xlink" x="0px" y="0px"
	 viewBox="0 0 32 32" style="enable-background:new 0 0 32 32;" xml:space="preserve">
<style type="text/css">
	.st0{fill:#0592E1;}
</style>
<g>
	<g>
		<path class="st0" d="M23,16c-3.9,0-7,3.1-7,7s3.1,7,7,7s7-3.1,7-7S26.9,16,23,16z M24,27.6c0,0.2-0.2,0.4-0.4,0.4h-1.2
			c-0.2,0-0.4-0.2-0.4-0.4v-6.2c0-0.2,0.2-0.4,0.4-0.4h1.2c0.2,0,0.4,0.2,0.4,0.4V27.6z M24,19.5c0,0.3-0.2,0.5-0.5,0.5h-1
			c-0.2,0-0.5-0.2-0.5-0.5v-0.9c0-0.3,0.2-0.5,0.5-0.5h1c0.2,0,0.5,0.2,0.5,0.5V19.5z"/>
	</g>
</g>
</svg>
