<?xml version="1.0" encoding="utf-8"?>
<!-- Generator: Adobe Illustrator 21.0.0, SVG Export Plug-In . SVG Version: 6.00 Build 0)  -->
<svg version="1.1" id="Layer_1" xmlns="http://www.w3.org/2000/svg" xmlns:xlink="http://www.w3.org/1999/xlink" x="0px" y="0px"
	 viewBox="0 0 32 32" style="enable-background:new 0 0 32 32;" xml:space="preserve">
<style type="text/css">
	.st0{fill:#FFDA00;}
	.st1{fill:#4A4A4A;}
</style>
<rect x="15" y="17" class="st0" width="16" height="14"/>
<polygon class="st1" points="18,22 24,22 24,20 29,24 24,28 24,26 18,26 "/>
<path class="st1" d="M15,16c-0.5,0-1,0.4-1,1v1v12v1c0,0.5,0.4,1,1,1H31c0.5,0,1-0.4,1-1v-1V18v-1c0-0.5-0.4-1-1-1H15z M29,30H17
	c-0.5,0-1-0.4-1-1V19c0-0.5,0.4-1,1-1H29c0.5,0,1,0.4,1,1V29C30,29.6,29.6,30,29,30z"/>
</svg>
