<?xml version="1.0" encoding="UTF-8"?>
<!-- Generator: Adobe Illustrator 19.2.1, SVG Export Plug-In . SVG Version: 6.00 Build 0)  -->
<svg xmlns="http://www.w3.org/2000/svg" xmlns:xlink="http://www.w3.org/1999/xlink" version="1.1" id="Layer_1" x="0px" y="0px" viewBox="0 0 48 48" style="enable-background:new 0 0 48 48;" xml:space="preserve">
<style type="text/css">
	.st0{display:none;}
	.st1{display:inline;}
	.st2{fill:#4A4A4A;}
	.st3{display:inline;fill:#4A4A4A;}
</style>



<g id="Layer_4_1_">
	<path class="st2" d="M42.2,36.2c-0.1-0.2-0.1-0.4-0.2-0.6c-1.5,1.7-3.7,2.7-6.1,2.7c-2.6,0-4.9-1.2-6.5-3.1c0,0.2,0,0.5-0.1,0.7   c-0.6,1.3-1,2.8-1.6,4.2C27,41.6,26.6,43,26,44.5c1.8-0.8,3.3-1.4,4.8-2c0.9,1.5,1.7,3,2.4,4.5c0.9-2.5,1.6-4.8,2.5-7h0.2   c0.9,2.2,1.8,4.5,2.7,6.9c0.9-1.6,1.5-3,2.2-4.5c1.7,0.8,3.2,1.4,4.8,2.2C44.5,41.8,43.4,38.9,42.2,36.2z"/>
	<circle class="st2" cx="35.5" cy="28.5" r="7.5"/>
</g>
</svg>
