<?xml version="1.0" encoding="UTF-8"?>
<!-- Generator: Adobe Illustrator 19.2.1, SVG Export Plug-In . SVG Version: 6.00 Build 0)  -->
<svg xmlns="http://www.w3.org/2000/svg" xmlns:xlink="http://www.w3.org/1999/xlink" version="1.1" id="Layer_1" x="0px" y="0px" viewBox="0 0 48 48" style="enable-background:new 0 0 48 48;" xml:space="preserve">
<style type="text/css">
	.st0{display:none;}
	.st1{display:inline;}
	.st2{fill:url(#SVGID_1_);}
	.st3{fill:#4A4A4A;}
	.st4{display:inline;fill:#4A4A4A;}
	.st5{fill:url(#SVGID_2_);}
	.st6{fill:url(#SVGID_3_);}
	.st7{display:inline;fill:#FFED7B;stroke:#4A4A4A;stroke-width:2;stroke-miterlimit:10;}
	.st8{fill:#E5E5E5;}
</style>




<g id="Layer_5">
	<g>
		<path id="cog-inside" class="st3" d="M30.8,27.6c-0.7-0.3-1.4-0.4-2.2-0.4c-2.3,0-4.4,1.4-5.3,3.6c-0.6,1.4-0.6,3,0,4.4    c0.6,1.4,1.7,2.5,3.1,3.1c0.7,0.3,1.4,0.4,2.2,0.4c2.3,0,4.4-1.4,5.3-3.6c0.6-1.4,0.6-3,0-4.4C33.3,29.3,32.2,28.2,30.8,27.6z     M31.7,34.2c-0.5,1.2-1.7,2-3.1,2c-0.4,0-0.8-0.1-1.2-0.2c-0.8-0.3-1.4-1-1.8-1.8c-0.3-0.8-0.3-1.7,0-2.5c0.5-1.2,1.7-2,3.1-2    c0.4,0,0.8,0.1,1.2,0.2c0.8,0.3,1.4,1,1.8,1.8C32,32.5,32,33.4,31.7,34.2z"/>
	</g>
	<g>
		<path id="cog-outside" class="st3" d="M42.4,35.2l-2.5-1.4c0-0.6,0-1.2,0-1.8l2.5-1.5c0.5-0.3,0.7-0.8,0.6-1.4    c-0.4-1.3-0.9-2.6-1.6-3.8c-0.3-0.5-0.8-0.7-1.4-0.6l-2.8,0.8c-0.4-0.5-0.8-0.9-1.3-1.3l0.7-2.8c0.1-0.5-0.1-1.1-0.6-1.4    c-0.6-0.3-1.2-0.7-1.8-0.9c-0.6-0.3-1.3-0.5-1.9-0.6c-0.5-0.1-1.1,0.1-1.4,0.6l-1.4,2.5c-0.6,0-1.2,0-1.8,0l-1.5-2.5    c-0.3-0.5-0.8-0.7-1.4-0.6c-0.6,0.2-1.2,0.4-1.8,0.6l-0.3,0.1c-0.6,0.3-1.1,0.5-1.7,0.9c-0.5,0.3-0.7,0.8-0.6,1.4l0.8,2.8    c-0.5,0.4-0.9,0.8-1.3,1.3l-2.8-0.7c-0.5-0.1-1.1,0.1-1.4,0.6c-0.3,0.5-0.6,1.1-0.8,1.7l-0.2,0.4c-0.2,0.6-0.4,1.2-0.6,1.7    c-0.1,0.5,0.1,1.1,0.6,1.4l2.5,1.4c0,0.6,0,1.2,0,1.8l-2.5,1.5c-0.5,0.3-0.7,0.8-0.6,1.4c0.2,0.6,0.4,1.2,0.6,1.8l0.1,0.3    c0.3,0.6,0.5,1.1,0.9,1.7c0.3,0.5,0.8,0.7,1.4,0.6l2.8-0.8c0.4,0.5,0.8,0.9,1.3,1.3l-0.7,2.8c-0.1,0.5,0.1,1.1,0.6,1.4    c0.6,0.3,1.2,0.7,1.8,0.9c0.6,0.3,1.3,0.5,1.9,0.6c0.1,0,0.2,0,0.3,0c0.4,0,0.8-0.2,1.1-0.6l1.4-2.5c0.6,0,1.2,0,1.8,0l1.5,2.5    c0.3,0.5,0.8,0.7,1.4,0.6c1.3-0.4,2.6-0.9,3.8-1.6c0.5-0.3,0.7-0.8,0.6-1.4L36,41.5c0.5-0.4,0.9-0.8,1.3-1.3L40,41    c0.5,0.1,1.1-0.1,1.4-0.6c0.3-0.6,0.7-1.2,0.9-1.8c0.3-0.6,0.5-1.3,0.6-1.9C43.1,36.1,42.9,35.5,42.4,35.2z M40,37.6    c-0.1,0.2-0.2,0.5-0.3,0.7l-2.6-0.7c-0.5-0.1-1,0.1-1.3,0.5c-0.5,0.7-1.2,1.4-1.9,1.9c-0.4,0.3-0.6,0.8-0.5,1.3l0.7,2.6    c-0.5,0.2-1,0.4-1.4,0.6l-1.4-2.4c-0.3-0.4-0.8-0.7-1.3-0.6c-0.9,0.1-1.8,0.1-2.7,0c-0.5-0.1-1,0.2-1.3,0.6l-1.4,2.4    c-0.3-0.1-0.5-0.2-0.7-0.3s-0.5-0.2-0.7-0.3l0.7-2.6c0.1-0.5-0.1-1-0.5-1.3c-0.7-0.5-1.4-1.2-1.9-1.9c-0.3-0.4-0.8-0.6-1.3-0.5    l-2.6,0.7c-0.1-0.2-0.2-0.4-0.3-0.6l-0.1-0.3c-0.1,0-0.2-0.2-0.2-0.4l2.4-1.4c0.4-0.3,0.7-0.8,0.6-1.3c-0.1-0.9-0.2-1.8,0-2.7    c0.1-0.5-0.2-1-0.6-1.3L16.9,29c0.1-0.2,0.1-0.4,0.2-0.6l0.1-0.3c0.1-0.2,0.2-0.4,0.2-0.5l2.6,0.7c0.5,0.1,1-0.1,1.3-0.5    c0.5-0.7,1.2-1.4,1.9-1.9c0.4-0.3,0.6-0.8,0.5-1.3L23,22c0.2-0.1,0.4-0.2,0.6-0.3l0.3-0.1c0.2-0.1,0.4-0.2,0.6-0.2l1.4,2.4    c0.3,0.4,0.8,0.7,1.3,0.6c0.9-0.1,1.8-0.1,2.7,0c0.5,0.1,1-0.2,1.3-0.6l1.4-2.4c0.2,0.1,0.5,0.2,0.7,0.3c0.2,0.1,0.5,0.2,0.7,0.3    l-0.7,2.6c-0.1,0.5,0.1,1,0.5,1.3c0.7,0.5,1.4,1.2,1.9,1.9c0.3,0.4,0.8,0.6,1.3,0.5l2.6-0.7c0.2,0.5,0.4,1,0.6,1.4l-2.4,1.4    c-0.4,0.3-0.7,0.8-0.6,1.3c0.1,0.9,0.2,1.8,0,2.7c-0.1,0.5,0.2,1,0.6,1.3l2.4,1.4C40.2,37.1,40.1,37.4,40,37.6z"/>
	</g>
	<g>
		<path id="cog-fill" class="st8" d="M38,35.5c-0.4-0.3-0.7-0.8-0.6-1.3c0.1-0.9,0.1-1.8,0-2.7c-0.1-0.5,0.2-1,0.6-1.3    l2.4-1.4c-0.2-0.5-0.4-1-0.6-1.4l-2.6,0.7c-0.5,0.1-1,0-1.3-0.5c-0.5-0.7-1.2-1.4-1.9-1.9c-0.4-0.3-0.6-0.8-0.5-1.3l0.7-2.6    c-0.2-0.1-0.5-0.2-0.7-0.3c-0.2-0.1-0.5-0.2-0.7-0.3l-1.4,2.4c-0.3,0.4-0.7,0.7-1.3,0.6c-0.9-0.1-1.8-0.1-2.7,0    c-0.5,0.1-1-0.2-1.3-0.6l-1.4-2.4c-0.2,0.1-0.4,0.1-0.6,0.2l-0.3,0.1c-0.2,0.1-0.4,0.2-0.6,0.3l0.7,2.6c0.1,0.5,0,1-0.5,1.3    c-0.7,0.5-1.4,1.2-1.9,1.9c-0.3,0.4-0.8,0.6-1.3,0.5l-2.6-0.7c-0.1,0.2-0.2,0.4-0.2,0.5l-0.1,0.3C17.1,28.7,17,28.8,17,29l2.4,1.4    c0.4,0.3,0.7,0.8,0.6,1.3c-0.1,0.9-0.1,1.8,0,2.7c0.1,0.5-0.2,1-0.6,1.3L17,37c0.1,0.2,0.1,0.4,0.2,0.6l0.1,0.3    c0.1,0.2,0.2,0.4,0.3,0.6l2.6-0.7c0.5-0.1,1,0,1.3,0.5c0.5,0.7,1.2,1.4,1.9,1.9c0.4,0.3,0.6,0.8,0.5,1.3l-0.7,2.6    c0.2,0.1,0.5,0.2,0.7,0.3s0.5,0.2,0.7,0.3l1.4-2.4c0.3-0.4,0.7-0.7,1.3-0.6c0.9,0.1,1.8,0.1,2.7,0c0.5-0.1,1,0.2,1.3,0.6l1.4,2.4    c0.5-0.2,1-0.4,1.4-0.6l-0.7-2.6c-0.1-0.5,0-1,0.5-1.3c0.7-0.5,1.4-1.2,1.9-1.9c0.3-0.4,0.8-0.6,1.3-0.5l2.6,0.7    c0.1-0.2,0.2-0.5,0.3-0.7s0.2-0.5,0.3-0.7L38,35.5z M34,35.1c-0.9,2.2-3,3.6-5.3,3.6c-0.7,0-1.5-0.1-2.2-0.4    c-1.4-0.6-2.5-1.7-3.1-3.1c-0.6-1.4-0.6-3,0-4.4c0.9-2.2,3-3.6,5.3-3.6c0.7,0,1.5,0.1,2.2,0.4c1.4,0.6,2.5,1.7,3.1,3.1    C34.5,32.2,34.5,33.7,34,35.1z"/>
	</g>
</g>
</svg>
