<?xml version="1.0" encoding="UTF-8"?>
<!-- Generator: Adobe Illustrator 19.2.1, SVG Export Plug-In . SVG Version: 6.00 Build 0)  -->
<svg xmlns="http://www.w3.org/2000/svg" xmlns:xlink="http://www.w3.org/1999/xlink" version="1.1" id="Layer_1" x="0px" y="0px" viewBox="0 0 32 32" style="enable-background:new 0 0 32 32;" xml:space="preserve">
<style type="text/css">
	.st0{display:none;}
	.st1{display:inline;}
	.st2{fill:url(#SVGID_1_);}
	.st3{fill:#4A4A4A;}
	.st4{display:inline;fill:#4A4A4A;}
	.st5{fill:#C1ECFF;}
	.st6{fill:url(#SVGID_2_);}
	.st7{fill:url(#SVGID_3_);}
	.st8{fill:#FEFFED;}
	.st9{fill:#76D3FF;}
	.st10{fill:#FFF4BD;}
	.st11{fill:#574700;}
	.st12{display:inline;fill:#FEFFED;}
	.st13{display:inline;fill:#76D3FF;}
	.st14{display:inline;fill:#FFF4BD;}
	.st15{display:inline;fill:#574700;}
</style>


<g id="Layer_3_1_">
	<path class="st3" d="M30.6,23.4L29,22.5c0-0.4,0-0.7,0-1.1l1.6-0.9c0.3-0.2,0.4-0.5,0.4-0.9c-0.2-0.8-0.6-1.6-1-2.4   c-0.2-0.3-0.5-0.4-0.9-0.4l-1.7,0.5c-0.2-0.3-0.5-0.6-0.8-0.8l0.4-1.7c0.1-0.3-0.1-0.7-0.4-0.9c-0.4-0.2-0.7-0.4-1.1-0.6   c-0.4-0.2-0.8-0.3-1.2-0.4c-0.3-0.1-0.7,0.1-0.9,0.4l-0.9,1.6c-0.4,0-0.7,0-1.1,0l-0.9-1.6C20.3,13.1,20,13,19.6,13   c-0.4,0.1-0.7,0.2-1.1,0.4l-0.2,0.1c-0.4,0.2-0.7,0.3-1.1,0.6c-0.3,0.2-0.4,0.5-0.4,0.9l0.5,1.7c-0.3,0.2-0.6,0.5-0.8,0.8L14.9,17   c-0.3-0.1-0.7,0.1-0.9,0.4s-0.4,0.7-0.5,1.1l-0.1,0.2c-0.1,0.4-0.2,0.7-0.4,1.1c-0.1,0.3,0.1,0.7,0.4,0.9l1.6,0.9   c0,0.4,0,0.7,0,1.1l-1.6,0.9C13.1,23.7,13,24,13,24.4c0.1,0.4,0.2,0.7,0.4,1.1l0.1,0.2c0.2,0.4,0.3,0.7,0.6,1.1   c0.2,0.3,0.5,0.4,0.9,0.4l1.7-0.5c0.2,0.3,0.5,0.6,0.8,0.8L17,29.1c-0.1,0.3,0.1,0.7,0.4,0.9c0.4,0.2,0.7,0.4,1.1,0.6   s0.8,0.3,1.2,0.4c0.1,0,0.1,0,0.2,0c0.2,0,0.5-0.1,0.7-0.4l0.9-1.6c0.4,0,0.7,0,1.1,0l0.9,1.6c0.2,0.3,0.5,0.4,0.9,0.4   c0.8-0.2,1.6-0.6,2.4-1c0.3-0.2,0.4-0.5,0.4-0.9l-0.4-1.8c0.3-0.2,0.6-0.5,0.8-0.8l1.7,0.5c0.3,0.1,0.7-0.1,0.9-0.4   c0.2-0.4,0.4-0.7,0.6-1.1s0.3-0.8,0.4-1.2C31,23.9,30.9,23.6,30.6,23.4z M18,22c0-2.2,1.8-4,4-4s4,1.8,4,4s-1.8,4-4,4   S18,24.2,18,22z"/>
</g>
</svg>
