<?xml version="1.0" encoding="utf-8"?>
<!-- Generator: Adobe Illustrator 27.2.0, SVG Export Plug-In . SVG Version: 6.00 Build 0)  -->
<svg version="1.1" id="Layer_1" xmlns="http://www.w3.org/2000/svg" xmlns:xlink="http://www.w3.org/1999/xlink" x="0px" y="0px"
	 viewBox="0 0 48 48" style="enable-background:new 0 0 48 48;" xml:space="preserve">
<style type="text/css">
	.st0{fill:#1F7F46;}
	.st1{fill:#2663BC;}
</style>
<g id="Layer_2_00000003825349668414897900000008344305342924603553_">
	<g>
		<g>
			<path id="arrow" class="st0" d="M36.8,37.6c0.3-0.3,0.3-0.8,0.1-1.1C36.7,36,36.4,36,36.1,36H32V25c-0.1-0.9-0.7-1-2-1
				c-1.2,0-2,0-2,1v11h-4c-0.4,0-0.7,0.2-0.9,0.5c-0.2,0.2-0.2,0.7,0.1,1l5.8,9c0.2,0.3,0.5,0.5,0.8,0.5s0.6-0.2,0.8-0.5L36.8,37.6z
				"/>
		</g>
	</g>
</g>
<g id="Layer_2_00000075164186762980848950000001576328294003763896_">
	<g>
		<g>
			<path id="arrow_00000049936503358977886820000016631018550548803731_" class="st1" d="M18.6,13.5c-0.2-0.3-0.5-0.5-0.8-0.5
				s-0.6,0.2-0.8,0.5l-5.8,9c-0.3,0.3-0.3,0.8-0.1,1c0.2,0.3,0.5,0.5,0.9,0.5h4v11c0,1,0.8,1,2,1c1.3,0,1.9-0.1,2-1V24h4.1
				c0.3,0,0.6,0,0.8-0.5c0.2-0.3,0.2-0.8-0.1-1.1L18.6,13.5z"/>
		</g>
	</g>
</g>
</svg>
