<?xml version="1.0" encoding="utf-8"?>
<!-- Generator: Adobe Illustrator 22.1.0, SVG Export Plug-In . SVG Version: 6.00 Build 0)  -->
<svg version="1.1" id="Layer_1" xmlns="http://www.w3.org/2000/svg" xmlns:xlink="http://www.w3.org/1999/xlink" x="0px" y="0px"
	 viewBox="0 0 32 32" style="enable-background:new 0 0 32 32;" xml:space="preserve">
<style type="text/css">
	.st0{fill:#1C8BE9;}
</style>
<g id="Layer_2_1_">
	<g>
		<path id="bunny_1_" class="st0" d="M21.7,10c0.6,0.3,2.2,1.5,3.1,2.4c0.1,0.1,0.3,0.3,0.5,0.5c0.1,0.1,0.3,0.3,0.5,0.5
			c0.4,0.6,0.9,1.4,1.5,1.5c1.9,0.7,3.5,2.4,4,4.3c0,0.3-0.1,0.7-0.3,0.9c-0.1,0.2-0.6,0.6-0.9,0.7C29.7,21,28.3,21,28.3,21
			c-0.2,0-0.5-0.1-0.7-0.1c-0.1,0-0.1-0.1-0.2-0.1s-0.1,0-0.1,0s0,0.1-0.1,0.1c-0.1,0.1-0.1,0.2-0.1,0.3c-0.8,1.6-1.7,3.1-3,4.4
			c-0.1,0-0.1,0-0.1,0l-0.1,0.1v0.1c0,0.1,0,0.2-0.1,0.3c-0.1,0.2-0.1,0.5-0.1,0.7c-0.1,0.2-0.1,0.5-0.2,0.7c0,0.1-0.1,0.2-0.1,0.3
			c0,0.1-0.1,0.1,0,0.1l0.1,0.1c0.3,0.1,0.5,0.3,0.7,0.5c0.3,0.2,0.4,0.5,0.4,0.8c0,0.1,0,0.1-0.1,0.1c0,0-0.2-0.1-0.3-0.1
			s-0.1,0.2-0.1,0.3c-0.1,0.1-0.2,0.1-0.4,0.1c-0.3,0.1-0.7-0.1-1.1-0.1c-0.1,0-0.3,0-0.5-0.1c-0.1,0-0.1-0.1-0.2,0
			c-0.1,0.1-0.1,0.1-0.2,0.2c-0.3,0.3-0.7,0.6-1,0.9c-0.2,0.1-0.3,0.3-0.5,0.4c0,0-0.1,0-0.2,0.1c-0.1,0-0.1,0.1-0.1,0.1
			c-0.1,0-0.1,0-0.2,0c-0.1,0-0.3,0-0.4,0c0-0.1-0.1-0.1-0.1-0.1c-0.1,0-0.1,0-0.1,0L19,31c0-0.1,0-0.1,0-0.2c0-0.3,0.1-0.4,0.3-0.6
			c0.1-0.1,0.3-0.3,0.5-0.5c0-0.1,0.1-0.1,0.1-0.2s0-0.2,0-0.2c-0.2-0.1-0.3-0.1-0.5-0.2C19,29,18.6,29,18.2,28.9
			c-0.8-0.1-1.7-0.1-2.4-0.3c-0.1,0-0.1,0-0.1-0.1s-0.1-0.1-0.1-0.1c-0.1-0.1-0.1-0.1-0.1-0.2c-0.1-0.1-0.1-0.3-0.3-0.5
			c-0.1-0.3-0.3-0.6-0.5-0.9s-0.4-0.6-0.6-0.9c-0.1-0.1-0.1-0.2-0.3-0.3c-0.5-0.7-1.3-1.1-2.1-1.5c-0.2,0-0.4-0.1-0.5-0.1
			c-1.3-0.7-2.5-2.4-2.1-3.9c0.1-0.1,0.1-0.2,0.1-0.3v-0.1c0,0,0,0,0-0.1c0,0-0.1,0-0.1-0.1c-0.1-0.1-0.2-0.1-0.3-0.2
			c-0.1,0-0.2-0.1-0.3-0.3c-0.1-0.2-0.1-0.3-0.2-0.5c-0.2-0.8-0.8-1.5-1.4-2.1c-0.7-0.7,0.5-1.2,1.1-1.3c1.4-0.1,2.7,0.9,2.9,2.2
			c0,0.1,0.1,0.3,0.1,0.4c0,0.1,0.1,0.1,0.1,0.2V18c0,0.1,0,0.1,0.1,0c0.2-0.1,0.4-0.1,0.6-0.2c0.3-0.1,0.7-0.3,1.1-0.5
			c0.2-0.1,0.4-0.1,0.5-0.2C15.5,16.4,18,17,20,18c0.1,0.1,0.3,0.2,0.5,0.3c0.1,0.1,0.3,0.1,0.5,0.2c0.5,0.2,1.3,0.3,1.7-0.1
			c0.2-0.3,0.3-0.5,0.5-0.9c0.1-0.3,0.3-0.6,0.6-0.8c0.3-0.2,0.5-0.3,0.7-0.5c0.1-0.1,0.1-0.3,0.1-0.4v-0.1c0,0,0,0-0.1,0l-0.1-0.1
			c-0.1-0.1-0.1-0.1-0.2-0.1c-0.8-0.4-1.6-0.6-2.4-0.9c-0.2-0.1-0.4-0.1-0.6-0.2c-0.1-0.1-0.3-0.1-0.5-0.2c-0.9-0.3-1.5-0.9-2.1-1.5
			c-0.1-0.1-0.2-0.3-0.3-0.5c-0.1-0.1-0.3-0.5-0.1-0.6c0.3-0.1,1.5,0,2.1,0.3c0.2,0.1,0.4,0.1,0.5,0.2c0.5,0.2,1.1,0.4,1.7,0.4
			c-0.2-0.5-0.7-0.9-1.1-1.2c-0.2-0.2-0.4-0.4-0.5-0.6c-0.1-0.3-0.3-0.7-0.3-0.9C20.7,9.9,21.1,9.7,21.7,10z M21.6,24.4
			c-0.3,0.1-0.5,0.1-0.9,0.1c-0.7,0.1-1.5,0.1-2.3,0c-0.7,0-1.4-0.1-2.1,0c0.1,0.4,0.1,0.8,0.3,1.2c0.1,0.3,0.3,0.7,0.5,0.9
			c0.1,0.1,0.2,0.3,0.3,0.5c0,0.1,0.1,0.1,0.1,0.1c0.1,0,0.1,0,0.1,0.1c0.1,0,0.2,0.1,0.3,0.1c0.4,0.1,0.8,0.2,1.2,0.3
			c0.5,0.1,0.9,0.1,1.3,0.1c0.3,0,0.5,0,0.7,0c0.1,0,0.1,0,0.1,0c0.1,0,0,0,0.1-0.1c0-0.1,0-0.1,0-0.1c0-0.1,0.1-0.2,0.1-0.3
			C21.6,26.2,21.6,25.3,21.6,24.4"/>
	</g>
</g>
</svg>
