<?xml version="1.0" encoding="utf-8"?>
<!-- Generator: Adobe Illustrator 22.1.0, SVG Export Plug-In . SVG Version: 6.00 Build 0)  -->
<svg version="1.1" id="Layer_1" xmlns="http://www.w3.org/2000/svg" xmlns:xlink="http://www.w3.org/1999/xlink" x="0px" y="0px"
	 viewBox="0 0 32 32" style="enable-background:new 0 0 32 32;" xml:space="preserve">
<style type="text/css">
	.st0{fill:#4576EF;}
	.st1{fill:#4A4A4A;}
</style>
<g id="Layer_2_1_">
	<g>
		<path id="earth-fill" class="st0" d="M20,31c-3,0-5.7-1.3-7.6-3.3c0.1-0.2,0.6-1.8,0.9-2.4c0.4-0.7,0.5-0.8,1.3-1.6
			c0.8-0.7-1.6-1.1-2.2-1.7c-0.5-0.6-0.8-0.6-1.5-1.2c-0.5-0.4-0.8,1.3-0.9,2.2c-0.2-0.8-0.4-1.6-0.4-2.5c0-2.2,0.7-4.2,1.8-5.9
			c-0.4,1.1-0.6,2.5,0.6,2.1c1.4-0.4,1.6-1.1,1.6-1.1l0.8-1.4c0,0,0.1,2,0.3,2.3c0.2,0.3,0.8,1.1,1.1-0.1c0.4-2.1,0.5-2.8,1.3-2.8
			c0.8,0,2.4-0.6,2.5,1.3c0.2,1.9-0.2,0.8-1.2,1.3c-1.1,0.5-1.3,2.2-0.4,2.4c0.9,0.2,3,1.1,3,1.1l1.1,1.2l0.4,1.3
			c0,0,0.2,1.4,0.2,1.6c0,0.1,0,1.3,0,1.3s0.1,2.6,1,2c1-0.6,3.5-4.7,3-6.1c-0.5-1.6-0.6-1.7,0.4-2.2c1-0.6,1.7-1.2,1.6-2
			c0-0.6,0-0.8,0-1.2c0.8,1.5,1.3,3.2,1.3,4.9C30.3,26.4,25.6,31,20,31z"/>
	</g>
	<path class="st1" d="M20,8C13.4,8,8,13.4,8,20s5.4,12,12,12s12-5.4,12-12S26.6,8,20,8z M20,30c-5.5,0-10-4.4-10-10s4.5-10,10-10
		s10,4.5,10,10S25.5,30,20,30z"/>
</g>
</svg>
