<?xml version="1.0" encoding="UTF-8"?>
<!-- Generator: Adobe Illustrator 19.2.1, SVG Export Plug-In . SVG Version: 6.00 Build 0)  -->
<svg xmlns="http://www.w3.org/2000/svg" xmlns:xlink="http://www.w3.org/1999/xlink" version="1.1" id="Layer_1" x="0px" y="0px" viewBox="0 0 48 48" style="enable-background:new 0 0 48 48;" xml:space="preserve">
<style type="text/css">
	.st0{fill:#F3F3F3;}
	.st1{display:none;}
	.st2{display:inline;fill:url(#SVGID_1_);}
	.st3{display:inline;}
	.st4{fill:#4A4A4A;}
	.st5{display:inline;fill:#4A4A4A;}
	.st6{fill:#1C8BE9;}
	.st7{fill:#4576EF;}
</style>
<circle class="st0" cx="18" cy="25" r="16"/>
<g id="Layer_1_2_">



</g>
<g id="Layer_2">
	<g>
		<path id="earth-fill" class="st7" d="M18,40.6c-4.3,0-8.1-1.8-10.8-4.7c0.1-0.3,0.8-2.5,1.3-3.4c0.6-1,0.7-1.1,1.8-2.2    c1.2-1-2.3-1.5-3.1-2.4C6.5,27,6,27,5.1,26.2c-0.7-0.6-1.1,1.9-1.3,3.1c-0.3-1.1-0.5-2.3-0.5-3.5c0-3.1,1-6,2.6-8.4    c-0.5,1.5-0.9,3.6,0.9,3c2-0.6,2.2-1.5,2.2-1.5l1.2-2c0,0,0.2,2.8,0.4,3.2c0.3,0.4,1.2,1.6,1.5-0.1c0.6-3,0.7-3.9,1.8-3.9    s3.4-0.9,3.6,1.8c0.3,2.7-0.3,1.1-1.7,1.8c-1.5,0.7-1.8,3.1-0.5,3.4s4.3,1.5,4.3,1.5l1.5,1.7l0.5,1.8c0,0,0.3,2,0.3,2.2    s0,1.9,0,1.9s0.1,3.7,1.4,2.8c1.4-0.9,5-6.6,4.3-8.7c-0.7-2.2-0.8-2.4,0.6-3.1c1.4-0.8,2.4-1.7,2.3-2.8c0-0.8,0-1.1,0-1.7    c1.1,2.1,1.8,4.5,1.8,6.9C32.6,34,26,40.6,18,40.6z"/>
	</g>
	<path class="st4" d="M18,8C8.6,8,1,15.6,1,25s7.6,17,17,17s17-7.6,17-17S27.4,8,18,8z M18,39.2c-7.8,0-14.2-6.3-14.2-14.2   S10.2,10.8,18,10.8S32.2,17.2,32.2,25S25.8,39.2,18,39.2z"/>
</g>
</svg>
