<?xml version="1.0" encoding="utf-8"?>
<!-- Generator: Adobe Illustrator 22.1.0, SVG Export Plug-In . SVG Version: 6.00 Build 0)  -->
<svg version="1.1" id="Layer_1" xmlns="http://www.w3.org/2000/svg" xmlns:xlink="http://www.w3.org/1999/xlink" x="0px" y="0px"
	 viewBox="0 0 32 32" style="enable-background:new 0 0 32 32;" xml:space="preserve">
<style type="text/css">
	.st0{enable-background:new    ;}
	.st1{fill:#0592E1;}
</style>
<g id="_x33_1">
	<g>
		<g class="st0">
			<path class="st1" d="M13.2,18.3c0.5,0,0.9-0.1,1.2-0.4c0.3-0.2,0.4-0.6,0.4-1s-0.1-0.7-0.4-0.9c-0.3-0.2-0.6-0.4-1.1-0.4
				c-0.4,0-0.7,0.1-1,0.3c-0.3,0.2-0.4,0.5-0.4,0.8H9.7l0,0c0-0.7,0.3-1.4,1-1.8c0.7-0.5,1.5-0.7,2.5-0.7c1.1,0,2,0.2,2.7,0.7
				c0.7,0.5,1,1.1,1,2c0,0.4-0.1,0.8-0.4,1.2c-0.3,0.4-0.7,0.6-1.2,0.9c0.6,0.2,1,0.5,1.3,0.8c0.3,0.4,0.5,0.8,0.5,1.4
				c0,0.9-0.4,1.5-1.1,2c-0.7,0.5-1.6,0.7-2.8,0.7c-1,0-1.9-0.2-2.6-0.7s-1.1-1.1-1.1-2l0,0h2.1c0,0.4,0.1,0.7,0.4,0.9
				s0.7,0.4,1.1,0.4c0.5,0,0.9-0.1,1.2-0.4s0.5-0.6,0.5-1c0-0.5-0.1-0.9-0.4-1.1s-0.7-0.4-1.3-0.4H12v-1.4L13.2,18.3L13.2,18.3z"/>
		</g>
		<g class="st0">
			<path class="st1" d="M22,24h-2v-8c0-0.1-0.1,0-0.1,0h-1.7L18,14h4V24z"/>
		</g>
	</g>
</g>
</svg>
