<?xml version="1.0" encoding="utf-8"?>
<!-- Generator: Adobe Illustrator 22.1.0, SVG Export Plug-In . SVG Version: 6.00 Build 0)  -->
<svg version="1.1" id="Layer_1" xmlns="http://www.w3.org/2000/svg" xmlns:xlink="http://www.w3.org/1999/xlink" x="0px" y="0px"
	 viewBox="0 0 48 48" style="enable-background:new 0 0 48 48;" xml:space="preserve">
<style type="text/css">
	.st0{fill:#F0F0F0;}
</style>
<g id="Layer_3_1_">
	<g>
		<path class="st0" d="M18.3,26.3c0.6,0,1.1-0.1,1.5-0.4c0.3-0.3,0.5-0.7,0.5-1.2c0-0.4-0.2-0.7-0.5-1c-0.4-0.3-0.8-0.4-1.4-0.4
			c-0.4,0-0.8,0.1-1.1,0.3c-0.3,0.2-0.5,0.5-0.5,0.8h-3.5v-0.1c0-1,0.4-1.8,1.4-2.4s2.2-0.9,3.6-0.9c1.7,0,3,0.3,4,0.9
			s1.5,1.5,1.5,2.7c0,0.6-0.2,1.1-0.6,1.6s-1,0.9-1.7,1.1c0.8,0.2,1.5,0.6,1.9,1.1s0.7,1.1,0.7,1.8c0,1.1-0.5,2.1-1.6,2.7
			s-2.5,1-4.1,1c-1.4,0-2.7-0.3-3.8-0.9c-1.1-0.6-1.6-1.5-1.5-2.7v-0.1h3.5c0,0.4,0.2,0.7,0.5,1s0.8,0.4,1.3,0.4
			c0.6,0,1.2-0.1,1.6-0.4s0.6-0.7,0.6-1.1c0-0.6-0.2-1.1-0.6-1.3c-0.4-0.3-0.9-0.4-1.6-0.4h-1.7v-2.2h1.6V26.3z"/>
		<path class="st0" d="M32,34h-4V24l-2-0.2v-2.2l6-0.7V34z"/>
	</g>
</g>
</svg>
