<?xml version="1.0" encoding="UTF-8"?>
<svg xmlns="http://www.w3.org/2000/svg" xmlns:xlink="http://www.w3.org/1999/xlink" width="32px" height="32px" viewBox="0 0 32 32" x="0px" y="0px" version="1.1">
  <defs/>
  <g>
    <path d="M9.7,12.1H7c-0.6,0-1-0.4-1-1V8.4c0-0.6,0.4-1,1-1h2.7c0.5,0,1,0.5,1,1v2.7C10.7,11.6,10.2,12.1,9.7,12.1z" fill="#ffffff" stroke="#ffffff" stroke-width="0"/>
    <path d="M9.7,18H7c-0.6,0-1-0.5-1-1v-2.7c0-0.6,0.4-1,1-1h2.7c0.5,0,1,0.4,1,1V17C10.7,17.6,10.2,18,9.7,18z" fill="#ffffff" stroke="#ffffff" stroke-width="0"/>
    <path d="M9.7,25H7c-0.6,0-1-0.5-1-1v-2.7c0-0.5,0.4-1,1-1h2.7c0.5,0,1,0.5,1,1V24C10.7,24.5,10.2,25,9.7,25z" fill="#ffffff" stroke="#ffffff" stroke-width="0"/>
    <path d="M15.6,24H13c-0.6,0-1-0.5-1-1v-2.7c0-0.5,0.4-1,1-1h2.7c0.6,0,1,0.5,1,1V23C16.6,23.5,16.2,24,15.6,24z" fill="#ffffff" stroke="#ffffff" stroke-width="0"/>
    <path d="M21.6,24h-2.7c-0.6,0-1-0.5-1-1v-2.7c0-0.5,0.4-1,1-1h2.7c0.5,0,1,0.5,1,1V23C22.6,23.5,22.2,24,21.6,24z" fill="#ffffff" stroke="#ffffff" stroke-width="0"/>
    <path d="M15.6,18H13c-0.6,0-1-0.5-1-1v-2.7c0-0.6,0.4-1,1-1h2.7c0.6,0,1,0.4,1,1V17C16.6,17.6,16.2,18,15.6,18z" fill="#ffffff" stroke="#ffffff" stroke-width="0"/>
    <path d="M16.6,11.2l-2.4,1.2c-0.5,0.3-1.1,0.1-1.3-0.4l-1.2-2.4c-0.3-0.5-0.1-1.1,0.4-1.3L14.4,7c0.5-0.3,1.1-0.1,1.3,0.4L17,9.9C17.2,10.3,17.1,11,16.6,11.2z" fill="#ffffff" stroke="#ffffff" stroke-width="0"/>
    <path d="M23.8,10.9h-2.7c-0.6,0-1-0.4-1-1V7.2c0-0.6,0.4-1,1-1h2.7c0.5,0,1,0.4,1,1v2.7C24.8,10.5,24.4,10.9,23.8,10.9z" fill="#ffffff" stroke="#ffffff" stroke-width="0"/>
    <path d="M21.4,18.4L19,17.1c-0.5-0.3-0.7-0.9-0.4-1.4l1.3-2.3c0.3-0.5,0.9-0.7,1.4-0.4l2.3,1.3c0.5,0.3,0.7,0.9,0.4,1.4L22.7,18C22.5,18.5,21.8,18.7,21.4,18.4z" fill="#ffffff" stroke="#ffffff" stroke-width="0"/>
  </g>
</svg>
