<?xml version="1.0" encoding="UTF-8"?>
<svg xmlns="http://www.w3.org/2000/svg" xmlns:xlink="http://www.w3.org/1999/xlink" width="32px" height="32px" viewBox="0 0 32 32" x="0px" y="0px" version="1.1">
  <defs/>
  <g>
    <path d="M8.5,9.2c0.1,0.1,0.3,0,0.4-0.1C9.1,9,9.1,8.9,9.1,8.7l0.2-5.5c0-0.2-0.1-0.4-0.2-0.4C9,2.7,8.8,2.7,8.6,2.8L6.9,3.9L5.2,1.5C4.9,1,4.2,0.8,3.7,1.2C3.1,1.5,3,2.2,3.3,2.8L5,5.2L3.2,6.4C3.1,6.5,3,6.7,3,6.8C3,7,3.1,7.2,3.3,7.2L8.5,9.2z" fill="#4a4a4a" stroke="#4a4a4a" stroke-width="0"/>
    <path d="M17.1,31.2c-6.5,0-11.8-5.3-11.8-11.8c0-6.5,5.3-11.8,11.8-11.8s11.8,5.3,11.8,11.8C28.9,25.9,23.6,31.2,17.1,31.2zM17.1,9.7c-5.4,0-9.8,4.4-9.8,9.8s4.4,9.8,9.8,9.8c5.4,0,9.8-4.4,9.8-9.8S22.5,9.7,17.1,9.7z" fill="#4a4a4a" stroke="#4a4a4a" stroke-width="0"/>
    <path d="M17.3,20.6L17.3,20.6c-0.4,0.3-0.8,0.2-1.1-0.2l-3.7-5c-0.3-0.4-0.2-0.8,0.2-1.1l0,0c0.4-0.3,0.8-0.2,1.1,0.2l3.7,5C17.7,19.8,17.6,20.3,17.3,20.6z" fill="#4a4a4a" stroke="#4a4a4a" stroke-width="0"/>
  </g>
</svg>
