<?xml version="1.0" encoding="UTF-8"?>
<svg xmlns="http://www.w3.org/2000/svg" xmlns:xlink="http://www.w3.org/1999/xlink" width="32px" height="32px" viewBox="0 0 32 32" x="0px" y="0px" version="1.1">
  <defs>
    <path id="earth-outline" d="M16,3C8.831,3,3,8.831,3,16c0,7.167,5.831,13,13,13c7.167,0,13-5.834,13-13C29,8.831,23.167,3,16,3zM16,27.15c-3.264,0-6.206-1.408-8.244-3.653c0.083-0.241,0.641-1.855,1.011-2.595c0.402-0.806,0.535-0.892,1.428-1.696c0.892-0.8-1.785-1.156-2.408-1.782c-0.624-0.625-0.938-0.625-1.65-1.191c-0.533-0.422-0.842,1.452-0.964,2.424C4.964,17.804,4.85,16.915,4.85,16c0-2.366,0.742-4.56,2.005-6.369c-0.355,1.102-0.673,2.708,0.709,2.22c1.515-0.536,1.647-1.159,1.647-1.159l0.893-1.561c0,0,0.132,2.184,0.311,2.495c0.179,0.313,0.894,1.206,1.161-0.043c0.49-2.295,0.574-2.943,1.422-2.943c0.845,0,2.59-0.67,2.77,1.383c0.178,2.052-0.179,0.848-1.294,1.382c-1.115,0.535-1.382,2.409-0.356,2.63c1.026,0.224,3.344,1.161,3.344,1.161l1.157,1.292l0.357,1.384c0,0,0.225,1.559,0.225,1.691c0,0.136,0,1.431,0,1.431s0.046,2.807,1.068,2.14c1.028-0.667,3.835-5.042,3.256-6.689c-0.578-1.65-0.622-1.829,0.446-2.409c1.069-0.579,1.828-1.294,1.783-2.096c-0.031-0.562,0.025-0.905,0.034-1.274c0.868,1.586,1.359,3.404,1.359,5.335C27.149,22.147,22.147,27.15,16,27.15z"/>
    <path id="earth-fill" d="M16,27.15c-3.264,0-6.206-1.408-8.244-3.653c0.083-0.241,0.641-1.855,1.011-2.595c0.402-0.806,0.535-0.892,1.428-1.696c0.892-0.8-1.785-1.156-2.408-1.782c-0.624-0.625-0.938-0.625-1.65-1.191c-0.533-0.422-0.842,1.452-0.964,2.424C4.964,17.804,4.85,16.915,4.85,16c0-2.366,0.742-4.56,2.005-6.37c-0.355,1.102-0.673,2.708,0.709,2.22c1.515-0.536,1.647-1.159,1.647-1.159l0.893-1.561c0,0,0.132,2.184,0.311,2.495c0.179,0.313,0.894,1.206,1.161-0.043c0.49-2.295,0.574-2.943,1.422-2.943c0.845,0,2.59-0.67,2.77,1.383c0.178,2.052-0.179,0.848-1.294,1.382c-1.115,0.535-1.382,2.409-0.356,2.63c1.026,0.224,3.344,1.161,3.344,1.161l1.157,1.292l0.357,1.384c0,0,0.225,1.559,0.225,1.691c0,0.136,0,1.431,0,1.431s0.046,2.807,1.068,2.14c1.028-0.667,3.835-5.042,3.256-6.689c-0.578-1.65-0.622-1.83,0.446-2.409c1.069-0.578,1.828-1.294,1.783-2.095c-0.031-0.562,0.025-0.905,0.034-1.274c0.868,1.586,1.359,3.404,1.359,5.335C27.149,22.147,22.147,27.15,16,27.15z"/>
    <path id="earth-border" d="M16,4.83c6.169,0,11.171,5.001,11.171,11.17S22.169,27.171,16,27.171S4.83,22.169,4.83,16S9.831,4.83,16,4.83M16,3C8.832,3,3,8.832,3,16c0,7.167,5.832,13,13,13c7.167,0,13-5.833,13-13C29,8.832,23.167,3,16,3L16,3z"/>
  </defs>
  <g>
    <use xlink:href="#earth-outline" fill="#ffffff" transform="scale(0.8) translate(7 4)"/>
    <use xlink:href="#earth-fill" fill="#4576EF" transform="scale(0.8) translate(7 4)"/>
    <use xlink:href="#earth-border" fill="#4a4a4a" stroke="#4a4a4a" stroke-width="0.2" transform="scale(0.8) translate(7 4)"/>
    <path d="M16.2,24.1c1.7,0.9,3.5,1.3,5.4,1c0.6-0.1,1.3-0.2,1.9-0.3c0.7-0.1,1.3-0.5,1.8-1c0.6-0.6,1.4-1,2.3-1.1c0.4,0,0.8,0,1.1,0.2c0.5,0.3,0.6,0.8,0.2,1.3c-0.1,0.1-0.1,0.2-0.2,0.2c0,0,0,0,0,0.1c0.5,0.3,0.5,0.5,0.3,1c-0.1,0.2-0.2,0.4-0.4,0.5c-0.4,0.4-0.9,0.7-1.3,1.1c-0.7,0.5-1.4,0.9-2,1.4c-0.6,0.4-1.3,0.7-2,0.8c-1.4,0.2-2.8,0.4-4.2,0.6c-0.7,0.1-1.4,0.2-2.2,0.2c-0.6,0.1-1.1-0.1-1.6-0.3c-1.9-0.9-3.9-1.8-5.8-2.7C9,27,8.6,26.8,8.3,26.6c-0.6-0.3-1.2-0.5-1.9-0.5c-0.5,0-0.7-0.3-0.7-0.8c0-1.7,0-3.5,0-5.2c0-0.4,0.1-0.6,0.5-0.7c1.9-0.6,3.9-0.9,5.9-0.8c1.4,0.1,2.7,0.5,3.8,1.1c1,0.6,2,0.7,3.1,0.8c1.3,0.1,2.6,0.3,3.9,0.7c0.5,0.2,1,0.4,1.2,0.9c0.2,0.3,0.2,0.6,0.1,0.9c-0.3,0.7-0.6,1.2-1.4,1.4c-0.2,0-0.5,0-0.7,0c-1.2-0.1-2.4-0.2-3.6-0.2C17.8,24.1,17.1,24.1,16.2,24.1C16.3,24.1,16.2,24.1,16.2,24.1z" fill="#ffbe72" stroke="#000000" stroke-width="0.5" transform="scale(0.8) translate(0 9)"/>
    <path d="M1.7,22.7c0-1.3,0-2.6,0-4c0-0.5,0.2-0.7,0.7-0.7c0.6,0,1.2,0,1.8,0c0.4,0,0.6,0.2,0.6,0.6c0,2.7,0,5.3,0,8c0,0.4-0.2,0.6-0.6,0.6c-0.6,0-1.3,0-1.9,0c-0.4,0-0.6-0.2-0.6-0.7C1.7,25.4,1.7,24,1.7,22.7z" fill="#4a4a4a" stroke="#4a4a4a" stroke-width="0" transform="scale(0.8) translate(0 9)"/>
  </g>
</svg>
