<?xml version="1.0" encoding="UTF-8"?>
<svg xmlns="http://www.w3.org/2000/svg" xmlns:xlink="http://www.w3.org/1999/xlink" width="32px" height="32px" viewBox="0 0 32 32" x="0px" y="0px" version="1.1">
  <defs/>
  <g>
    <path d="M27,28H5c-0.6,0-1-0.4-1-1L4,3c0-0.6,0.5-1,1-1h22c0.6,0,1,0.4,1,1v24C28,27.6,27.6,28,27,28zM6,26h20V4H6V26z" fill="#4a4a4a" stroke="#4a4a4a" stroke-width="0"/>
    <path d="M16,22.8c-4.3,0-7.9-3.5-7.9-7.9C8.2,10.5,11.7,7,16,7c4.3,0,7.9,3.5,7.9,7.9C23.9,19.2,20.4,22.8,16,22.8zM16,9c-3.3,0-5.9,2.6-5.9,5.9c0,3.3,2.6,5.9,5.9,5.9c3.3,0,5.9-2.6,5.9-5.9C21.9,11.6,19.3,9,16,9z" fill="#4a4a4a" stroke="#4a4a4a" stroke-width="0"/>
    <path d="M18.4,16.5c-0.9,0-1.6-0.7-1.6-1.6c0-0.9,0.7-1.6,1.6-1.6c0.9,0,1.6,0.7,1.6,1.6C20,15.7,19.3,16.5,18.4,16.5zM18.4,14.4c-0.2,0-0.4,0.2-0.4,0.4c0,0.2,0.2,0.4,0.4,0.4c0.2,0,0.4-0.2,0.4-0.4C18.8,14.6,18.6,14.4,18.4,14.4z" fill="#4a4a4a" stroke="#4a4a4a" stroke-width="0"/>
    <path d="M13.9,16.5c-0.9,0-1.6-0.7-1.6-1.6c0-0.9,0.7-1.6,1.6-1.6c0.9,0,1.6,0.7,1.6,1.6C15.5,15.8,14.8,16.5,13.9,16.5zM13.9,14.5c-0.2,0-0.4,0.2-0.4,0.4c0,0.2,0.2,0.4,0.4,0.4c0.2,0,0.4-0.2,0.4-0.4C14.3,14.7,14.1,14.5,13.9,14.5z" fill="#4a4a4a" stroke="#4a4a4a" stroke-width="0"/>
  </g>
</svg>
