<?xml version="1.0" encoding="UTF-8"?>
<svg xmlns="http://www.w3.org/2000/svg" xmlns:xlink="http://www.w3.org/1999/xlink" width="32px" height="32px" viewBox="0 0 32 32" x="0px" y="0px" version="1.1">
  <defs/>
  <g>
    <path d="M21,26H11c-0.6,0-1-0.4-1-1l0-18c0-0.6,0.5-1,1-1h10c0.6,0,1,0.4,1,1v18C22,25.6,21.6,26,21,26zM12,24h8V8h-8V24z" fill="#4a4a4a" stroke="#4a4a4a" stroke-width="0"/>
    <path d="M31,32H1c-0.6,0-1-0.4-1-1L0,1c0-0.6,0.5-1,1-1l30,0c0.6,0,1,0.4,1,1v30C32,31.6,31.6,32,31,32zM2,30h28V2H2V30z" fill="#4a4a4a" stroke="#4a4a4a" stroke-width="0"/>
    <rect x="13" y="10" width="6" height="2" fill="#4a4a4a" stroke="#4a4a4a" stroke-width="0"/>
    <circle cx="5" cy="5" r="1" fill="#4a4a4a" stroke="#4a4a4a" stroke-width="0"/>
    <circle cx="27" cy="5" r="1" fill="#4a4a4a" stroke="#4a4a4a" stroke-width="0"/>
    <circle cx="27" cy="27" r="1" fill="#4a4a4a" stroke="#4a4a4a" stroke-width="0"/>
    <circle cx="5" cy="27" r="1" fill="#4a4a4a" stroke="#4a4a4a" stroke-width="0"/>
  </g>
</svg>
