<?xml version="1.0" encoding="UTF-8"?>
<svg xmlns="http://www.w3.org/2000/svg" xmlns:xlink="http://www.w3.org/1999/xlink" width="32px" height="32px" viewBox="0 0 32 32" x="0px" y="0px" version="1.1">
  <defs>
    <path id="bunny" d="M18.83,4.217c0.706,0.399,2.548,1.833,3.687,2.913c0.188,0.178,0.373,0.36,0.555,0.547c0.183,0.185,0.358,0.375,0.534,0.567c0.482,0.698,1.074,1.611,1.732,1.775c2.27,0.854,4.111,2.843,4.658,5.115c0.035,0.304-0.178,0.844-0.346,1.08c-0.147,0.207-0.667,0.72-1.033,0.887c-0.368,0.168-2.084,0.137-2.084,0.137c-0.273-0.025-0.545-0.076-0.81-0.148c-0.073-0.019-0.146-0.04-0.218-0.064c-0.041-0.012-0.054-0.035-0.076,0.009c-0.017,0.028-0.029,0.058-0.044,0.087c-0.06,0.115-0.118,0.23-0.178,0.345c-0.969,1.855-2.056,3.7-3.612,5.129c-0.054,0.05-0.107,0.098-0.162,0.146c-0.022,0.021-0.047,0.041-0.07,0.062c-0.002,0.034-0.008,0.069-0.012,0.104c-0.017,0.135-0.039,0.269-0.064,0.401c-0.048,0.264-0.114,0.524-0.187,0.783c-0.068,0.255-0.145,0.509-0.211,0.765c-0.033,0.135-0.066,0.271-0.095,0.408c-0.013,0.059-0.044,0.115,0.006,0.153c0.031,0.025,0.064,0.049,0.097,0.071c0.276,0.188,0.588,0.329,0.843,0.547c0.294,0.248,0.443,0.584,0.456,0.964c0.002,0.066-0.017,0.066-0.071,0.09c-0.034,0.012-0.241-0.093-0.274-0.082c-0.073,0.025-0.073,0.27-0.149,0.286c-0.185,0.043-0.271,0.068-0.46,0.089c-0.409,0.043-0.83-0.049-1.241-0.084c-0.174-0.016-0.348-0.037-0.518-0.079c-0.055-0.014-0.177-0.077-0.216-0.038c-0.091,0.089-0.184,0.177-0.273,0.265c-0.379,0.371-0.764,0.735-1.178,1.067c-0.211,0.168-0.428,0.328-0.652,0.476c-0.121,0.077-0.241,0.152-0.364,0.222c-0.06,0.033-0.117,0.066-0.176,0.098c-0.072,0.002-0.144,0.005-0.216,0.007c-0.155,0.005-0.312,0.011-0.469,0.017c-0.024-0.075-0.076-0.134-0.151-0.157c-0.054-0.015-0.112-0.015-0.167-0.007c-0.051,0.007-0.043-0.074-0.049-0.12c-0.011-0.086-0.014-0.173-0.006-0.26c0.024-0.286,0.185-0.504,0.392-0.689c0.194-0.173,0.408-0.333,0.516-0.576c0.031-0.069,0.052-0.141,0.063-0.217c0.009-0.051,0.039-0.211-0.011-0.232c-0.2-0.083-0.407-0.147-0.616-0.198c-0.459-0.112-0.931-0.169-1.4-0.216c-0.944-0.092-1.921-0.113-2.837-0.39c-0.061-0.02-0.114-0.023-0.146-0.078c-0.022-0.043-0.045-0.083-0.068-0.125c-0.046-0.082-0.091-0.167-0.136-0.252c-0.096-0.178-0.189-0.358-0.284-0.539c-0.194-0.368-0.391-0.737-0.605-1.098c-0.214-0.357-0.45-0.708-0.717-1.033c-0.089-0.107-0.182-0.212-0.278-0.313c-0.656-0.844-1.55-1.298-2.457-1.746c-0.182-0.089-0.364-0.179-0.544-0.271c-1.538-0.894-2.939-2.796-2.458-4.628c0.04-0.128,0.083-0.252,0.132-0.375c0.012-0.029,0.023-0.058,0.035-0.087c0.015-0.038,0.012-0.029-0.017-0.044c-0.029-0.018-0.056-0.035-0.084-0.052c-0.114-0.074-0.22-0.16-0.316-0.255C3.583,15.229,3.461,15.07,3.359,14.9c-0.102-0.17-0.185-0.353-0.25-0.543c-0.24-0.94-0.922-1.756-1.601-2.479c-0.869-0.81,0.51-1.418,1.253-1.537c1.581-0.148,3.021,1.015,3.319,2.578c0.034,0.153,0.057,0.309,0.097,0.46c0.018,0.071,0.041,0.142,0.068,0.211c0.012,0.03,0.025,0.06,0.039,0.088c0.027,0.057,0.027,0.057,0.09,0.037c0.237-0.075,0.471-0.155,0.705-0.237c0.406-0.178,0.825-0.353,1.255-0.516c0.214-0.081,0.431-0.16,0.649-0.234c2.512-0.824,5.428-0.179,7.724,1.021c0.183,0.105,0.368,0.208,0.555,0.302c0.187,0.095,0.379,0.183,0.573,0.259c0.652,0.255,1.47,0.366,2.004-0.19c0.266-0.278,0.425-0.642,0.604-0.978c0.193-0.357,0.416-0.679,0.741-0.925c0.275-0.207,0.608-0.371,0.808-0.66c0.104-0.147,0.153-0.321,0.157-0.5c0.002-0.034,0.002-0.068-0.002-0.102c-0.019-0.011-0.037-0.021-0.056-0.032c-0.037-0.021-0.073-0.041-0.112-0.061c-0.076-0.04-0.153-0.08-0.231-0.117c-0.909-0.438-1.882-0.708-2.845-1.004c-0.24-0.074-0.48-0.149-0.72-0.229C17.989,9.451,17.797,9.38,17.606,9.3c-0.987-0.376-1.756-0.993-2.468-1.734c-0.129-0.164-0.25-0.336-0.36-0.516c-0.11-0.18-0.324-0.608-0.149-0.696c0.353-0.18,1.712-0.034,2.478,0.379c0.22,0.073,0.439,0.15,0.66,0.227c0.661,0.226,1.331,0.436,2.031,0.479c-0.251-0.603-0.769-0.996-1.235-1.425c-0.232-0.214-0.452-0.445-0.617-0.716c-0.188-0.316-0.353-0.832-0.314-1.039C17.671,4.052,18.122,3.818,18.83,4.217zM18.737,21.182c-0.321,0.082-0.652,0.122-0.981,0.151c-0.895,0.075-1.797,0.053-2.693,0.039c-0.827-0.013-1.661-0.046-2.486,0.025c0.053,0.484,0.187,0.955,0.393,1.398c0.182,0.394,0.416,0.759,0.653,1.119c0.12,0.183,0.24,0.364,0.354,0.549c0.028,0.046,0.055,0.091,0.083,0.136c0.056,0.014,0.11,0.026,0.166,0.04c0.112,0.026,0.223,0.053,0.334,0.08c0.454,0.106,0.91,0.207,1.37,0.281c0.516,0.085,1.037,0.139,1.561,0.152c0.288,0.006,0.574,0.001,0.861-0.014c0.048-0.003,0.096-0.005,0.144-0.008c0.052-0.003,0.039-0.017,0.049-0.062c0.013-0.058,0.023-0.116,0.035-0.176c0.021-0.117,0.04-0.238,0.059-0.357C18.801,23.428,18.801,22.299,18.737,21.182"/>
  </defs>
  <g>
    <use xlink:href="#bunny" fill="#ffffff" stroke="#ffffff" stroke-width="0" transform="scale(0.9) translate(6 -2)"/>
    <path d="M16.2,24.1c1.7,0.9,3.5,1.3,5.4,1c0.6-0.1,1.3-0.2,1.9-0.3c0.7-0.1,1.3-0.5,1.8-1c0.6-0.6,1.4-1,2.3-1.1c0.4,0,0.8,0,1.1,0.2c0.5,0.3,0.6,0.8,0.2,1.3c-0.1,0.1-0.1,0.2-0.2,0.2c0,0,0,0,0,0.1c0.5,0.3,0.5,0.5,0.3,1c-0.1,0.2-0.2,0.4-0.4,0.5c-0.4,0.4-0.9,0.7-1.3,1.1c-0.7,0.5-1.4,0.9-2,1.4c-0.6,0.4-1.3,0.7-2,0.8c-1.4,0.2-2.8,0.4-4.2,0.6c-0.7,0.1-1.4,0.2-2.2,0.2c-0.6,0.1-1.1-0.1-1.6-0.3c-1.9-0.9-3.9-1.8-5.8-2.7C9,27,8.6,26.8,8.3,26.6c-0.6-0.3-1.2-0.5-1.9-0.5c-0.5,0-0.7-0.3-0.7-0.8c0-1.7,0-3.5,0-5.2c0-0.4,0.1-0.6,0.5-0.7c1.9-0.6,3.9-0.9,5.9-0.8c1.4,0.1,2.7,0.5,3.8,1.1c1,0.6,2,0.7,3.1,0.8c1.3,0.1,2.6,0.3,3.9,0.7c0.5,0.2,1,0.4,1.2,0.9c0.2,0.3,0.2,0.6,0.1,0.9c-0.3,0.7-0.6,1.2-1.4,1.4c-0.2,0-0.5,0-0.7,0c-1.2-0.1-2.4-0.2-3.6-0.2C17.8,24.1,17.1,24.1,16.2,24.1C16.3,24.1,16.2,24.1,16.2,24.1z" fill="#ffffff" stroke="#ffffff" stroke-width="0"/>
    <path d="M1.7,22.7c0-1.3,0-2.6,0-4c0-0.5,0.2-0.7,0.7-0.7c0.6,0,1.2,0,1.8,0c0.4,0,0.6,0.2,0.6,0.6c0,2.7,0,5.3,0,8c0,0.4-0.2,0.6-0.6,0.6c-0.6,0-1.3,0-1.9,0c-0.4,0-0.6-0.2-0.6-0.7C1.7,25.4,1.7,24,1.7,22.7z" fill="#ffffff" stroke="#ffffff" stroke-width="0"/>
  </g>
</svg>
