<?xml version="1.0" encoding="utf-8"?>
<!-- Generator: Adobe Illustrator 22.1.0, SVG Export Plug-In . SVG Version: 6.00 Build 0)  -->
<svg version="1.1" id="Layer_2" xmlns="http://www.w3.org/2000/svg" xmlns:xlink="http://www.w3.org/1999/xlink" x="0px" y="0px"
	 viewBox="0 0 32 32" style="enable-background:new 0 0 32 32;" xml:space="preserve">
<style type="text/css">
	.st0{fill:#049904;}
	.st1{fill:#FFFFFF;}
</style>
<path class="st0" d="M22,12L22,12c5.5,0,10,4.5,10,10v0c0,5.5-4.5,10-10,10h0c-5.5,0-10-4.5-10-10v0C12,16.5,16.5,12,22,12z"/>
<path class="st1" d="M22,14L22,14c4.4,0,8,3.6,8,8v0c0,4.4-3.6,8-8,8h0c-4.4,0-8-3.6-8-8v0C14,17.6,17.6,14,22,14z"/>
<path class="st0" d="M22,16L22,16c3.3,0,6,2.7,6,6v0c0,3.3-2.7,6-6,6h0c-3.3,0-6-2.7-6-6v0C16,18.7,18.7,16,22,16z"/>
<rect x="18.9" y="20.3" transform="matrix(0.7071 -0.7071 0.7071 0.7071 -10.5408 20.7205)" class="st1" width="1.6" height="5.6"/>
<rect x="19.5" y="21.5" transform="matrix(0.7071 -0.7071 0.7071 0.7071 -8.8759 23.1072)" class="st1" width="8" height="1.6"/>
</svg>
