<?xml version="1.0" encoding="utf-8"?>
<!-- Generator: Adobe Illustrator 22.1.0, SVG Export Plug-In . SVG Version: 6.00 Build 0)  -->
<svg version="1.1" id="Layer_2" xmlns="http://www.w3.org/2000/svg" xmlns:xlink="http://www.w3.org/1999/xlink" x="0px" y="0px"
	 viewBox="0 0 32 32" style="enable-background:new 0 0 32 32;" xml:space="preserve">
<style type="text/css">
	.st0{fill:#049904;}
	.st1{fill:#FFFFFF;}
</style>
<path class="st0" d="M22,12L22,12c5.5,0,10,4.5,10,10v0c0,5.5-4.5,10-10,10h0c-5.5,0-10-4.5-10-10v0C12,16.5,16.5,12,22,12z"/>
<path class="st0" d="M22,14L22,14c4.4,0,8,3.6,8,8v0c0,4.4-3.6,8-8,8h0c-4.4,0-8-3.6-8-8v0C14,17.6,17.6,14,22,14z"/>
<rect x="18.2" y="19.8" transform="matrix(0.7071 -0.7071 0.7071 0.7071 -10.8805 20.3891)" class="st1" width="2" height="7"/>
<rect x="18.8" y="21.3" transform="matrix(0.7071 -0.7071 0.7071 0.7071 -8.7843 23.3284)" class="st1" width="10" height="2"/>
</svg>
