<?xml version="1.0" encoding="utf-8"?>
<!-- Generator: Adobe Illustrator 22.1.0, SVG Export Plug-In . SVG Version: 6.00 Build 0)  -->
<svg version="1.1" id="Layer_1" xmlns="http://www.w3.org/2000/svg" xmlns:xlink="http://www.w3.org/1999/xlink" x="0px" y="0px"
	 viewBox="0 0 48 48" style="enable-background:new 0 0 48 48;" xml:space="preserve">
<style type="text/css">
	.st0{fill:#F3F3F3;}
</style>
<path class="st0" d="M41,8H6.9C6.4,8,6,8.4,6,8.9v8.2C6,17.6,6.4,18,6.9,18h34.2c0.5,0,0.9-0.4,0.9-1V8.9C42,8.4,41.6,8,41,8z
	 M11,14c-0.6,0-1-0.4-1-1c0-0.6,0.4-1,1-1s1,0.4,1,1C12,13.6,11.6,14,11,14z M15,14c-0.6,0-1-0.4-1-1c0-0.6,0.4-1,1-1s1,0.4,1,1
	C16,13.6,15.6,14,15,14z M24,16h-2v-6h2V16z M28,16h-2v-6h2V16z M32,16h-2v-6h2V16z M36,16h-2v-6h2V16z M40,16h-2v-6h2V16z"/>
<polygon class="st0" points="26,36 26,28 22,28 28,22 34,28 30,28 30,36 "/>
<rect x="16" y="34" class="st0" width="14" height="4"/>
</svg>
