<?xml version="1.0" encoding="utf-8"?>
<!-- Generator: Adobe Illustrator 22.1.0, SVG Export Plug-In . SVG Version: 6.00 Build 0)  -->
<svg version="1.1" id="Layer_1" xmlns="http://www.w3.org/2000/svg" xmlns:xlink="http://www.w3.org/1999/xlink" x="0px" y="0px"
	 viewBox="0 0 48 48" style="enable-background:new 0 0 48 48;" xml:space="preserve">
<style type="text/css">
	.st0{fill:#F3F3F3;}
</style>
<path class="st0" d="M41,8H6.9C6.4,8,6,8.4,6,8.9v8.2C6,17.6,6.4,18,6.9,18h34.2c0.5,0,0.9-0.4,0.9-1V8.9C42,8.4,41.6,8,41,8z
	 M11,14c-0.6,0-1-0.4-1-1s0.4-1,1-1s1,0.4,1,1S11.6,14,11,14z M15,14c-0.6,0-1-0.4-1-1s0.4-1,1-1s1,0.4,1,1S15.6,14,15,14z M24,16
	h-2v-6h2V16z M28,16h-2v-6h2V16z M32,16h-2v-6h2V16z M36,16h-2v-6h2V16z M40,16h-2v-6h2V16z"/>
<rect x="24" y="23" transform="matrix(0.7071 -0.7071 0.7071 0.7071 -15.3052 27.05)" class="st0" width="2" height="18"/>
<rect x="16" y="31" transform="matrix(0.7071 -0.7071 0.7071 0.7071 -15.3052 27.05)" class="st0" width="18" height="2"/>
<rect x="24" y="38" class="st0" width="2" height="10"/>
<rect x="24" y="18" class="st0" width="2" height="8"/>
</svg>
