<?xml version="1.0" encoding="utf-8"?>
<!-- Generator: Adobe Illustrator 19.2.1, SVG Export Plug-In . SVG Version: 6.00 Build 0)  -->
<svg version="1.1" id="Layer_1" xmlns="http://www.w3.org/2000/svg" xmlns:xlink="http://www.w3.org/1999/xlink" x="0px" y="0px"
	 viewBox="0 0 32 32" style="enable-background:new 0 0 32 32;" xml:space="preserve">
<style type="text/css">
	.st0{fill:#4A4A4A;}
</style>
<g>
	<g>
		<path class="st0" d="M11,26l-0.7,5.2c0,0.2,0,0.4,0.2,0.6C10.6,32,10.8,32,11,32h9.9c0.4,0,0.7-0.3,0.7-0.7c0-0.1,0-0.2,0-0.2
			L21,26H11z M28.7,2H3.3C2.6,2,2,2.6,2,3.4V22c0,0,0,2,2,2h24c2,0,2-2,2-2V3.4C30,2.6,29.4,2,28.7,2z M28,22H4V5c0-0.7,0.3-1,1-1
			h22c0.7,0,1,0.3,1,1V22z M22.7,11.2c0.2-0.1,0.4-0.4,0.3-0.7c-0.2-0.7-0.5-1.3-0.8-1.9c-0.1-0.2-0.4-0.4-0.7-0.3l-1.4,0.4
			c-0.3-0.4-0.5-0.6-0.7-0.8l0.4-1.4c0.1-0.3,0-0.6-0.3-0.7c-0.3-0.2-0.6-0.3-0.9-0.5c-0.3-0.1-0.6-0.2-1-0.3
			c-0.3-0.1-0.6,0.1-0.7,0.3l-0.7,1.3c-0.3,0-0.6,0-0.9,0l-0.7-1.3c-0.1-0.2-0.4-0.4-0.7-0.3c-0.3,0.1-0.6,0.2-0.9,0.3l-0.4,0.1
			c-0.3,0.1-0.6,0.3-0.9,0.4c-0.2,0.1-0.4,0.4-0.3,0.7l0.4,1.4c-0.2,0.2-0.5,0.4-0.7,0.7L9.7,8.2C9.4,8.1,9.1,8.2,9,8.5
			C8.9,8.8,8.8,9.1,8.7,9.4L8.6,9.6c-0.1,0.3-0.2,0.6-0.3,0.9c-0.1,0.3,0.1,0.6,0.3,0.7l1.3,0.7c0,0.3,0,0.6,0,0.9l-1.3,0.8
			c-0.2,0.1-0.4,0.4-0.3,0.7c0.1,0.3,0.2,0.6,0.3,0.9l0.1,0.1c0.1,0.3,0.3,0.6,0.4,0.9c0.1,0.2,0.4,0.4,0.7,0.3l1.4-0.4
			c0.2,0.2,0.4,0.5,0.7,0.7l-0.4,1.4c-0.1,0.3,0,0.6,0.3,0.7c0.3,0.2,0.6,0.3,0.9,0.5c0.3,0.1,0.7,0.2,1,0.3c0.1,0,0.1,0,0.2,0
			c0.2,0,0.4-0.1,0.5-0.3l0.7-1.3c0.3,0,0.6,0,0.9,0l0.7,1.3c0.1,0.2,0.4,0.4,0.7,0.3c0.7-0.2,1.3-0.5,1.9-0.8
			c0.2-0.1,0.4-0.4,0.3-0.7l-0.4-1.4c0.2-0.2,0.4-0.4,0.6-0.7l1.4,0.4c0.3,0.1,0.6,0,0.7-0.3c0.2-0.3,0.3-0.6,0.5-0.9
			c0.1-0.3,0.2-0.7,0.3-1c0.4-0.4,0.2-0.6,0-0.8l-1.3-0.7c0-0.3,0-0.6,0-0.9L22.7,11.2z M15.5,16c-1.9,0-3.5-1.6-3.5-3.5
			S13.6,9,15.5,9s3.5,1.6,3.5,3.5S17.4,16,15.5,16z"/>
	</g>
</g>
</svg>
