<?xml version="1.0" encoding="utf-8"?>
<!-- Generator: Adobe Illustrator 19.2.1, SVG Export Plug-In . SVG Version: 6.00 Build 0)  -->
<svg version="1.1" id="Layer_1" xmlns="http://www.w3.org/2000/svg" xmlns:xlink="http://www.w3.org/1999/xlink" x="0px" y="0px"
	 viewBox="0 0 32 32" style="enable-background:new 0 0 32 32;" xml:space="preserve">
<style type="text/css">
	.st0{fill:#4A4A4A;}
</style>
<g>
	<g>
		<g id="screen">
			<path class="st0" d="M21,26H11l-0.7,5.2c0,0.2,0,0.4,0.2,0.6C10.6,32,10.8,32,11,32h9.9l0,0c0.4,0,0.7-0.3,0.7-0.7
				c0-0.1,0-0.2,0-0.2L21,26z"/>
			<path class="st0" d="M28.7,2H3.3C2.6,2,2,2.6,2,3.4V22c0,0,0,2,2,2h24c2,0,2-2,2-2V3.4C30,2.6,29.4,2,28.7,2z M28,22H4V5
				c0-0.7,0.3-1,1-1h22c0.7,0,1,0.3,1,1V22z"/>
		</g>
	</g>
	<g transform="scale(.6 .6) translate(11 5)">
		<path id="cog-outside" class="st0" d="M23.1,13.6l-1.3-0.7c0-0.3,0-0.6,0-0.9l1.3-0.7c0.2-0.1,0.4-0.4,0.3-0.7
			c-0.2-0.7-0.5-1.3-0.8-1.9c-0.1-0.2-0.4-0.4-0.7-0.3l-1.4,0.4C20.2,8.4,20,8.2,19.8,8l0.4-1.4c0.1-0.3,0-0.6-0.3-0.7
			c-0.3-0.2-0.6-0.3-0.9-0.5c-0.3-0.1-0.6-0.2-1-0.3c-0.3-0.1-0.6,0.1-0.7,0.3l-0.7,1.3c-0.3,0-0.6,0-0.9,0l-0.7-1.3
			c-0.1-0.2-0.4-0.4-0.7-0.3c-0.3,0.1-0.6,0.2-0.9,0.3L13,5.5c-0.3,0.1-0.6,0.3-0.9,0.4c-0.2,0.1-0.4,0.4-0.3,0.7l0.4,1.4
			c-0.2,0.2-0.5,0.4-0.7,0.7l-1.4-0.4c-0.3-0.1-0.6,0-0.7,0.3C9.3,8.9,9.2,9.2,9.1,9.5L9,9.7c-0.1,0.3-0.2,0.6-0.3,0.9
			c-0.1,0.3,0.1,0.6,0.3,0.7l1.3,0.7c0,0.3,0,0.6,0,0.9L9,13.7c-0.2,0.1-0.4,0.4-0.3,0.7C8.8,14.7,8.9,15,9,15.3l0.1,0.1
			c0.1,0.3,0.3,0.6,0.4,0.9c0.1,0.2,0.4,0.4,0.7,0.3l1.4-0.4c0.2,0.2,0.4,0.5,0.7,0.7l-0.4,1.4c-0.1,0.3,0,0.6,0.3,0.7
			c0.3,0.2,0.6,0.3,0.9,0.5c0.3,0.1,0.7,0.2,1,0.3c0.1,0,0.1,0,0.2,0c0.2,0,0.4-0.1,0.5-0.3l0.7-1.3c0.3,0,0.6,0,0.9,0l0.7,1.3
			c0.1,0.2,0.4,0.4,0.7,0.3c0.7-0.2,1.3-0.5,1.9-0.8c0.2-0.1,0.4-0.4,0.3-0.7l-0.4-1.4c0.2-0.2,0.4-0.4,0.6-0.7l1.4,0.4
			c0.3,0.1,0.6,0,0.7-0.3c0.2-0.3,0.3-0.6,0.5-0.9c0.1-0.3,0.2-0.7,0.3-1C23.5,14,23.3,13.8,23.1,13.6z M21.9,14.8
			c0,0.1-0.1,0.2-0.2,0.4l-1.4-0.4c-0.3-0.1-0.5,0-0.7,0.2c-0.3,0.4-0.6,0.7-1,1c-0.2,0.2-0.3,0.4-0.2,0.7l0.4,1.4
			c-0.2,0.1-0.5,0.2-0.7,0.3l-0.7-1.2c-0.1-0.2-0.4-0.3-0.6-0.3c-0.5,0.1-0.9,0.1-1.4,0c-0.3,0-0.5,0.1-0.6,0.3L14,18.4
			c-0.1,0-0.3-0.1-0.4-0.1c-0.1,0-0.2-0.1-0.4-0.2l0.4-1.4c0.1-0.3,0-0.5-0.2-0.7c-0.4-0.3-0.7-0.6-1-1c-0.2-0.2-0.4-0.3-0.7-0.2
			l-1.4,0.4c0-0.1-0.1-0.2-0.1-0.3l-0.1-0.1c0-0.1-0.1-0.2-0.1-0.3l1.2-0.7c0.2-0.1,0.3-0.4,0.3-0.6c-0.1-0.5-0.1-0.9,0-1.4
			c0-0.3-0.1-0.5-0.3-0.6L10,10.4c0-0.1,0.1-0.2,0.1-0.3l0.1-0.2c0-0.1,0.1-0.2,0.1-0.3l1.4,0.4c0.3,0.1,0.5,0,0.7-0.2
			c0.3-0.4,0.6-0.7,1-1c0.2-0.2,0.3-0.4,0.2-0.7l-0.4-1.4c0.1,0,0.2-0.1,0.3-0.1l0.1-0.1c0.1,0,0.2-0.1,0.3-0.1l0.7,1.2
			C14.8,7.9,15.1,8,15.3,8c0.5-0.1,0.9-0.1,1.4,0c0.3,0,0.5-0.1,0.6-0.3l0.7-1.2c0.1,0,0.3,0.1,0.4,0.1c0.1,0.1,0.2,0.1,0.4,0.2
			l-0.4,1.4c-0.1,0.3,0,0.5,0.2,0.7c0.4,0.3,0.7,0.6,1,1c0.2,0.2,0.4,0.3,0.7,0.2l1.4-0.4c0.1,0.2,0.2,0.5,0.3,0.7l-1.2,0.7
			c-0.2,0.1-0.3,0.4-0.3,0.6c0.1,0.5,0.1,0.9,0,1.4c0,0.3,0.1,0.5,0.3,0.6l1.2,0.7C22,14.6,21.9,14.7,21.9,14.8z"/>
	</g>
	<g transform="scale(.6 .6) translate(11 5)">
		<path id="cog-inside" class="st0" d="M17.2,9.7c-0.4-0.1-0.7-0.2-1.1-0.2c-1.2,0-2.3,0.7-2.7,1.8
			c-0.3,0.7-0.3,1.5,0,2.3c0.3,0.7,0.9,1.3,1.6,1.6c0.4,0.1,0.7,0.2,1.1,0.2c1.2,0,2.3-0.7,2.7-1.8c0.3-0.7,0.3-1.5,0-2.3
			C18.5,10.6,17.9,10,17.2,9.7z M17.6,13.1c-0.3,0.6-0.9,1-1.6,1c-0.2,0-0.4,0-0.6-0.1c-0.4-0.2-0.7-0.5-0.9-0.9
			c-0.2-0.4-0.2-0.9,0-1.3c0.3-0.6,0.9-1,1.6-1c0.2,0,0.4,0,0.6,0.1c0.4,0.2,0.7,0.5,0.9,0.9C17.8,12.2,17.8,12.7,17.6,13.1z"/>
	</g>
</g>
</svg>
