<?xml version="1.0" encoding="UTF-8"?>
<!-- Generator: Adobe Illustrator 19.2.1, SVG Export Plug-In . SVG Version: 6.00 Build 0)  -->
<svg xmlns="http://www.w3.org/2000/svg" xmlns:xlink="http://www.w3.org/1999/xlink" version="1.1" x="0px" y="0px" viewBox="0 0 48 48" style="enable-background:new 0 0 48 48;" xml:space="preserve">
<style type="text/css">
	.st0{display:none;}
	.st1{display:inline;}
	.st2{fill:#4A4A4A;}
	.st3{display:none;fill:#F3F3F3;}
	.st4{fill:#F3F3F3;}
</style>

<g id="Layer_1">
	
	<g>
		<g>
			<path class="st4" d="M16,8v30c0,2.2,1.8,6,4,6h16c2.2,0,4-3.8,4-6V8H16z M38,38c0,1.1-0.9,2-2,2H20c-1.1,0-2-0.9-2-2V18h20V38z"/>
		</g>
	</g>
	<g>
		<g>
			<path class="st4" d="M11.8,16h2.4c1,0,1.8,0.8,1.8,1.8v-5.7c0,0,0-0.1-0.1-0.1h-5.1C7.6,12,5,14.6,5,17.9v14.3     c0,3.2,2.6,5.9,5.9,5.9H16v-5.6c0,0.9-0.7,1.6-1.6,1.6h-2.6C10.3,34,9,32.7,9,31.2V18.8C9,17.3,10.3,16,11.8,16z"/>
		</g>
	</g>
</g>
</svg>
