<?xml version="1.0" encoding="utf-8"?>
<!-- Generator: Adobe Illustrator 28.0.0, SVG Export Plug-In . SVG Version: 6.00 Build 0)  -->
<svg version="1.1" id="Layer_1" xmlns="http://www.w3.org/2000/svg" xmlns:xlink="http://www.w3.org/1999/xlink" x="0px" y="0px"
	 viewBox="0 0 32 32" style="enable-background:new 0 0 32 32;" xml:space="preserve">
<style type="text/css">
	.st0{fill:#FFFFFF;}
	.st1{fill:#4A4A4A;}
	.st2{fill:#F9E423;}
</style>
<rect x="5.1" y="3" class="st0" width="21.9" height="26"/>
<g>
	<path class="st1" d="M26,30H6c-1.1,0-2-0.9-2-2V4c0-1.1,0.9-2,2-2h20c1.1,0,2,0.9,2,2v24C28,29.1,27.1,30,26,30z M26,28v1V28L26,28
		L26,28z M6,4v24h20V4H6z"/>
	<path class="st1" d="M22.5,25h-13C9.2,25,9,24.8,9,24.5l0,0C9,24.2,9.2,24,9.5,24h13c0.3,0,0.5,0.2,0.5,0.5l0,0
		C23,24.8,22.8,25,22.5,25z"/>
	<path class="st1" d="M22.5,21h-13C9.2,21,9,20.8,9,20.5l0,0C9,20.2,9.2,20,9.5,20h13c0.3,0,0.5,0.2,0.5,0.5l0,0
		C23,20.8,22.8,21,22.5,21z"/>
	<path class="st1" d="M22.5,9h-13C9.2,9,9,8.8,9,8.5l0,0C9,8.2,9.2,8,9.5,8h13C22.8,8,23,8.2,23,8.5l0,0C23,8.8,22.8,9,22.5,9z"/>
	<path class="st1" d="M22.5,13h-13C9.2,13,9,12.8,9,12.5l0,0C9,12.2,9.2,12,9.5,12h13c0.3,0,0.5,0.2,0.5,0.5l0,0
		C23,12.8,22.8,13,22.5,13z"/>
	<path class="st1" d="M22.5,17h-13C9.2,17,9,16.8,9,16.5l0,0C9,16.2,9.2,16,9.5,16h13c0.3,0,0.5,0.2,0.5,0.5l0,0
		C23,16.8,22.8,17,22.5,17z"/>
	<g transform="translate(0 0)">
		<path id="stampoutline_00000070076870239235486230000002746264105787000508_" class="st1" d="M25.8,29.1c-0.5,1-0.9,1.9-1.5,3
			c-0.6-1.6-1.2-3.1-1.8-4.6h-0.1c-0.6,1.5-1.1,3-1.7,4.7c-0.5-1-1-2-1.6-3c-1,0.4-2,0.8-3.2,1.3c0.4-1,0.7-1.9,1.1-2.9
			c0.4-0.9,0.7-1.9,1.1-2.8c0.2-0.4,0.1-0.7-0.1-1.1c-1.1-1.7-1.1-3.6-0.1-5.3c1-1.7,2.5-2.7,4.5-2.7s3.6,0.9,4.6,2.7
			s0.9,3.6-0.2,5.4c-0.3,0.4-0.3,0.7-0.1,1.2c0.8,1.8,1.5,3.7,2.3,5.6C27.9,30,26.9,29.6,25.8,29.1z M26.4,20.9c0-2.2-1.7-4-3.9-4
			c-2.1,0-3.9,1.8-3.9,3.9c0,2.3,1.7,4.1,3.8,4.1C24.7,24.9,26.4,23.2,26.4,20.9z"/>
	</g>
	<g transform="translate(0 0)">
		<path id="stampfill_00000096042617702196017020000009635607745212171448_" class="st2" d="M26.4,20.9c0-2.2-1.7-4-3.9-4
			c-2.1,0-3.9,1.8-3.9,3.9c0,2.3,1.7,4.1,3.8,4.1C24.7,24.9,26.4,23.2,26.4,20.9z"/>
	</g>
</g>
</svg>
