<?xml version="1.0" encoding="UTF-8"?>
<!-- Generator: Adobe Illustrator 19.2.1, SVG Export Plug-In . SVG Version: 6.00 Build 0)  -->
<svg xmlns="http://www.w3.org/2000/svg" xmlns:xlink="http://www.w3.org/1999/xlink" version="1.1" x="0px" y="0px" viewBox="0 0 32 32" style="enable-background:new 0 0 32 32;" xml:space="preserve">
<style type="text/css">
	.st0{fill:#F3F3F3;}
	.st1{fill:none;stroke:#F3F3F3;stroke-miterlimit:10;}
	.st2{display:none;}
	.st3{display:inline;}
</style>
<g id="Layer_1">
	<g transform="translate(0 0)">
		<path id="stampoutline_4_" class="st0" d="M27.8,28.7c-0.5,1-0.9,1.9-1.5,3c-0.6-1.6-1.2-3.1-1.8-4.6h-0.1c-0.6,1.5-1.1,3-1.7,4.7    c-0.5-1-1-2-1.6-3c-1,0.4-2,0.8-3.2,1.3c0.4-1,0.7-1.9,1.1-2.9c0.4-0.9,0.7-1.9,1.1-2.8c0.2-0.4,0.1-0.7-0.1-1.1    c-1.1-1.7-1.1-3.6-0.1-5.3c1-1.7,2.5-2.7,4.5-2.7S28,16.2,29,18s0.9,3.6-0.2,5.4c-0.3,0.4-0.3,0.7-0.1,1.2    c0.8,1.8,1.5,3.7,2.3,5.6C29.9,29.6,28.9,29.2,27.8,28.7z M28.4,20.5c0-2.2-1.7-4-3.9-4c-2.1,0-3.9,1.8-3.9,3.9    c0,2.3,1.7,4.1,3.8,4.1C26.7,24.5,28.4,22.8,28.4,20.5z"/>
	</g>
	<g>
		<g>
			<path class="st0" d="M22.5,6h-13C9.2,6,9,6.4,9,7s0.2,1,0.5,1h13C22.8,8,23,7.6,23,7S22.8,6,22.5,6z M22.5,10h-13     C9.2,10,9,10.4,9,11s0.2,1,0.5,1h13c0.3,0,0.5-0.4,0.5-1S22.8,10,22.5,10z M9,15c0,0.6,0.2,1,0.5,1h9c0.7-0.8,1.5-1.5,2.5-2H9.5     C9.2,14,9,14.4,9,15z M9.5,24h8.6c-0.4-0.6-0.7-1.3-0.9-2H9.5C9.2,22,9,22.4,9,23S9.2,24,9.5,24z M26,2H6C4.9,2,4,2.9,4,4v24     c0,1.1,0.9,2,2,2h10l0-2H6V4h20v9c0.7,0.1,1.4,0.3,2,0.6V4C28,2.9,27.1,2,26,2z M9.5,20H17c0-0.7,0.1-1.4,0.4-2H9.5     C9.2,18,9,18.4,9,19S9.2,20,9.5,20z"/>
		</g>
	</g>
	<circle class="st1" cx="24.5" cy="20.5" r="5.5"/>
</g>

</svg>
