<?xml version="1.0" encoding="UTF-8"?>
<svg id="Layer_1" xmlns="http://www.w3.org/2000/svg" xmlns:xlink="http://www.w3.org/1999/xlink" version="1.1" viewBox="0 0 32 32">
  <!-- Generator: Adobe Illustrator 29.3.1, SVG Export Plug-In . SVG Version: 2.1.0 Build 151)  -->
  <defs>
    <style>
      .st0 {
        isolation: isolate;
        opacity: .5;
      }

      .st0, .st1 {
        fill: #4a4a4a;
      }

      .st2 {
        clip-path: url(#clippath);
      }
    </style>
    <clipPath id="clippath">
      <path class="st1" d="M31.7,13h-15.4v6.2h8.8c-.1.9-.5,1.7-.9,2.5-.5.9-1.2,1.6-1.9,2.1-2,1.6-4.4,1.9-6,1.9-4.1,0-7.7-2.7-9.1-6.3,0-.1,0-.3,0-.4-.3-.9-.5-1.9-.5-2.9s.2-2.1.5-3c1.3-3.8,4.9-6.6,9.2-6.6s1.7,0,2.5.3c1.8.5,3,1.4,3.8,2.1l4.7-4.6C24.4,1.6,20.7,0,16.3,0s-6.8,1.1-9.5,3c-2.2,1.5-3.9,3.5-5.1,5.9C.6,11.1,0,13.5,0,16.1s.6,5,1.7,7.2c1.2,2.3,2.9,4.3,5,5.8,1.8,1.3,5.1,3.1,9.6,3.1s4.9-.5,6.9-1.3c1.5-.6,2.8-1.5,3.9-2.5,1.5-1.4,2.8-3.1,3.6-5.1.8-2,1.3-4.2,1.3-6.7s-.1-2.3-.3-3.3v-.3Z"/>
    </clipPath>
  </defs>
  <path class="st1" d="M31.7,13h-15.4v6.2h8.8c-.1.9-.5,1.7-.9,2.5-.5.9-1.2,1.6-1.9,2.1-2,1.6-4.4,1.9-6,1.9-4.1,0-7.7-2.7-9.1-6.3,0-.1,0-.3,0-.4-.3-.9-.5-1.9-.5-2.9s.2-2.1.5-3c1.3-3.8,4.9-6.6,9.2-6.6s1.7,0,2.5.3c1.8.5,3,1.4,3.8,2.1l4.7-4.6C24.4,1.6,20.7,0,16.3,0s-6.8,1.1-9.5,3c-2.2,1.5-3.9,3.5-5.1,5.9C.6,11.1,0,13.5,0,16.1s.6,5,1.7,7.2c1.2,2.3,2.9,4.3,5,5.8,1.8,1.3,5.1,3.1,9.6,3.1s4.9-.5,6.9-1.3c1.5-.6,2.8-1.5,3.9-2.5,1.5-1.4,2.8-3.1,3.6-5.1.8-2,1.3-4.2,1.3-6.7s-.1-2.3-.3-3.3v-.3Z"/>
  <g class="st2">
    <g>
      <path class="st1" d="M-.2,16.1c0,2.5.7,5.2,1.8,7.3h0c.8,1.6,1.9,2.8,3.1,4l7.5-2.7c-1.4-.7-1.6-1.2-2.6-2-1-1-1.8-2.2-2.3-3.6h0c-.3-.9-.3-1.9-.4-3H-.2Z"/>
      <path class="st1" d="M16.3-.1c-.7,2.6-.5,5.1,0,6.6.9,0,1.7,0,2.5.3,1.8.5,3,1.4,3.8,2.1l4.8-4.7C24.6,1.6,21.2-.1,16.3-.1Z"/>
      <path class="st1" d="M16.3-.1C12.7-.1,9.3,1,6.6,2.9c-1,.7-2,1.5-2.8,2.4-.2,2,1.6,4.6,5.3,4.5,1.8-2.1,4.4-3.4,7.3-3.4s0,0,0,0V-.1h-.1Z"/>
      <path class="st1" d="M28.3,16.8l-3.2,2.2c-.1.9-.5,1.7-.9,2.5-.5.9-1.2,1.6-1.9,2.1-2,1.6-4.4,1.9-6,1.9-1.7,2.9-2,4.3.1,6.7,2.6,0,4.9-.5,7-1.4,1.5-.6,2.8-1.5,4-2.5,1.6-1.4,2.8-3.2,3.6-5.2.8-2,1.3-4.3,1.3-6.8l-3.9.5h-.1Z"/>
      <path class="st1" d="M16,13v6h15.5c.3-.5.5-2,.5-3s.2-2,0-3h-16Z"/>
      <path class="st1" d="M3.9,5.1c-1,1-1.8,2.2-2.4,3.5C.4,10.8-.2,13.4-.2,16s0,0,0,.1c.5.9,6.8.8,7.1,0h0c0-1.2.2-1.9.5-2.9.4-1.2,1-2.3,1.8-3.2.2-.2.7-.7.8-1,0-.1,0-.2-.1-.2h-.3c-.1-.1-.4-.2-.6-.2-.4-.1-1-.3-1.3-.6-1.1-.8-2.8-1.7-3.8-2.8h0Z"/>
      <path class="st1" d="M7.8,8.7c2.5,1.5,3.3-.8,4.9-1.5l-2.9-6.1c-1.1.5-2.1,1-3,1.7-1.4,1-2.7,2.2-3.7,3.5,0,0,4.7,2.4,4.7,2.4Z"/>
      <path class="st1" d="M8.8,24.2c-3.4,1.2-3.9,1.3-4.2,3.4.6.6,1.2,1.1,1.9,1.6,1.8,1.3,5.3,3.1,9.8,3.1s0,0,0,0v-6.8h0c-1.7,0-3-.4-4.4-1.2-.3-.2-1,.3-1.3,0-.4-.3-1.5.3-1.8-.1h0Z"/>
      <path class="st0" d="M14.4,25.2v6.9c.6,0,1.3,0,2,0s1.4,0,2,0v-6.9c-.7.1-1.4.2-2,.2s-1.3,0-2-.2Z"/>
    </g>
  </g>
</svg>