<?xml version="1.0" encoding="UTF-8"?>
<svg id="Layer_1" xmlns="http://www.w3.org/2000/svg" xmlns:xlink="http://www.w3.org/1999/xlink" version="1.1" viewBox="0 0 48 48">
  <!-- Generator: Adobe Illustrator 29.3.1, SVG Export Plug-In . SVG Version: 2.1.0 Build 151)  -->
  <defs>
    <style>
      .st0 {
        fill: #b7ac76;
        stroke: #040405;
      }

      .st0, .st1 {
        stroke-miterlimit: 10;
      }

      .st1 {
        fill: #ddddf2;
        stroke: #080819;
      }
    </style>
  </defs>
  <path class="st1" d="M37.5,14.4c-.3,0-.2-1.5-.7-1.5-1.1-3.8-5-6-9.2-6s-1.5-.2-2,0c-2.5-2-4.2-2-7.2-2-6.3,0-11,2.4-13.1,10.9-2.6,1.8-4.3,4.4-4.3,7.1,0,4.7,2.1,9,7.2,9h28.6c7.5,0,9.2-4.4,9.2-9,0-7.1-3.5-8.6-8.5-8.6Z"/>
  <g id="Layer_2">
    <path id="key_" class="st0" d="M22.7,15c-3.7,0-6.7,2.8-6.7,6.3s1.6,4.7,3.9,5.8v18l2.3.9,2.6-2.7-1.6-2.8,2.2-3-2.8-3.6,2.7-2.5v-4.3c2.6-.9,4.3-3.2,4.3-5.9-.2-3.3-3.2-6.2-6.8-6.2ZM25.2,22.1c-.9.9-2.3.8-3.1,0s-.9-2.3-.1-3c.8-.8,2.3-.8,3.1,0,.8.9.9,2.1.1,3Z"/>
  </g>
</svg>