<?xml version="1.0" encoding="UTF-8"?>
<svg id="Layer_1" xmlns="http://www.w3.org/2000/svg" xmlns:xlink="http://www.w3.org/1999/xlink" version="1.1" viewBox="0 0 48 48">
  <!-- Generator: Adobe Illustrator 29.3.1, SVG Export Plug-In . SVG Version: 2.1.0 Build 151)  -->
  <defs>
    <style>
      .st0 {
        fill: #b9b9db;
      }

      .st1 {
        fill: #fff;
      }

      .st2 {
        fill: #686868;
      }
    </style>
  </defs>
  <path class="st1" d="M36.4,15.5c-.3,0-.2-1.3-.6-1.3-1-3.4-4.5-5.3-8.2-5.3s-1.3-.2-1.8,0c-2.2-1.8-3.7-1.8-6.4-1.8-5.6,0-9.8,2.1-11.7,9.7-2.3,1.6-3.8,3.9-3.8,6.3,0,4.2,1.9,8,6.4,8h25.5c6.7,0,8.2-3.9,8.2-8,0-6.3-3.1-7.6-7.6-7.6Z"/>
  <g id="Layer_2">
    <path id="key_" class="st2" d="M23.5,15c-3.3,0-5.9,2.6-5.9,5.9s1.4,4.4,3.4,5.4v16.8l2,.8,2.3-2.5-1.4-2.6,1.9-2.8-2.5-3.4,2.4-2.3v-4c2.3-.8,3.8-3,3.8-5.5-.2-3.1-2.8-5.8-6-5.8ZM24.9,19.2c-.8.8-2,.7-2.7,0s-.8-2.1-.1-2.8c.7-.7,2-.7,2.7,0,.7.8.8,2,.1,2.8Z"/>
  </g>
  <path class="st0" d="M37.8,14.5c-.3,0-.2-1.5-.7-1.5-1.1-3.8-4.9-6-9-6s-1.4-.2-2,0c-2.4-2-4-2-7-2-6.1,0-10.8,2.4-12.8,10.9-2.5,1.8-4.2,4.4-4.2,7.1,0,4.7,2.1,9,7,9h8.6c.7,0,1.3-.6,1.3-1.3v-1.4c0-.7-.6-1.3-1.3-1.3h-7.6c-3.5,0-4-2.3-4-5s1-3.9,3-5h1v-1c1.4-4.9,2.3-8.5,9-8,2.4.2,4.1.4,6,2.2l1.2-.2h1c2.5,0,7.1,2.5,7.4,5.5v1.3s2.5,0,3.5.1c2.9.6,3.9,1.7,3.8,5.1,0,3-1.7,5-5,5h-7.4c-.9,0-1.6.7-1.6,1.6v1.2c0,.7.5,1.2,1.2,1.2h7.8c7.3,0,9-4.4,9-9,0-7.1-3.3-8.5-8.2-8.5Z"/>
</svg>