<?xml version="1.0" encoding="utf-8"?>
<!-- Generator: Adobe Illustrator 19.2.1, SVG Export Plug-In . SVG Version: 6.00 Build 0)  -->
<svg version="1.1" id="Layer_1" xmlns="http://www.w3.org/2000/svg" xmlns:xlink="http://www.w3.org/1999/xlink" x="0px" y="0px"
	 viewBox="0 0 48 48" style="enable-background:new 0 0 48 48;" xml:space="preserve">
<style type="text/css">
	.st0{fill:#4A4A4A;}
</style>
<polygon class="st0" points="16,14 12.7,11.9 9.2,13.4 10.2,9.7 7.6,6.7 11.5,6.5 13.5,3.2 14.9,6.8 18.7,7.7 15.7,10.1 "/>
<polygon class="st0" points="40.6,9.1 38.1,7.9 35.7,9.4 36,6.5 33.9,4.7 36.7,4.1 37.8,1.5 39.1,4 41.9,4.3 40,6.4 "/>
<polygon class="st0" points="43,24.9 39.1,23.1 35.5,25.3 36,21.1 32.8,18.3 37,17.5 38.7,13.6 40.8,17.3 45,17.7 42.1,20.8 "/>
<g>
	<g>
		<path class="st0" d="M24,6L7,42.2l5.3,2.5l17-36.2L24,6z M23.2,12.2l1.7-3.6l1.8,0.8L25,13.1L23.2,12.2z"/>
	</g>
</g>
</svg>
