<?xml version="1.0" encoding="UTF-8"?>
<svg id="Layer_1" data-name="Layer 1" xmlns="http://www.w3.org/2000/svg" version="1.1" viewBox="0 0 48 48">
  <defs>
    <style>
      .cls-1 {
        fill: #f3f3f3;
        stroke-width: 0px;
      }
    </style>
  </defs>
  <g>
    <polygon class="cls-1" points="11 23 4 23 4 3 38 3 38 23 35 23 37 25 40 25 40 16.8 40 3 2 3 2 25 13 25 11 23"/>
    <polygon class="cls-1" points="29.9 31 30 31 30 30.9 29.9 31"/>
  </g>
  <rect class="cls-1" x="8" y="6" width="26" height="2"/>
  <rect class="cls-1" x="8" y="10" width="26" height="2"/>
  <rect class="cls-1" x="8" y="14" width="6" height="2"/>
  <g id="Layer_1-2" data-name="Layer 1-2">
    <path id="pencil" class="cls-1" d="M39.8,40.9l3.1-4s1.2-1.6-.4-2.8c-1.6-1.2-15.9-12.4-15.9-12.4h-.5l-8.2-2c-.4,0-.8,0-1,.4-.2.2-.2.5-.2.7s0,.2.1.3l2.6,4.7,1.5,2.7c.1.1.2.5.3.5,0,0,15.1,11.6,15.9,12.2,1.6,1.2,2.7-.3,2.7-.3ZM22.4,27.4l-1.6-2.9,1.3-1.7,3.3.6,16,12.2-1.2,1.6s-13.5-10.3-14.3-11c-.8-.6-1.4.2-.6.8s14.3,11,14.3,11l-1.2,1.6s-16-12.2-16-12.2Z"/>
  </g>
</svg>