<?xml version="1.0" encoding="UTF-8"?>
<svg id="Layer_1" data-name="Layer 1" xmlns="http://www.w3.org/2000/svg" version="1.1" viewBox="0 0 32 32">
  <defs>
    <style>
      .cls-1 {
        fill: #5a99cc;
      }

      .cls-1, .cls-2, .cls-3 {
        stroke-width: 0px;
      }

      .cls-2 {
        fill: #fff;
      }

      .cls-3 {
        fill: #4a4a4a;
      }
    </style>
  </defs>
  <rect class="cls-2" x="3" y="2" width="26.1" height="18"/>
  <g>
    <polygon class="cls-3" points="11 18 4 18 4 2 28 2 28 18 25 18 27 20 30 20 30 15.8 30 2 2 2 2 20 13 20 11 18"/>
    <polygon class="cls-3" points="29.9 30 30 30 30 29.9 29.9 30"/>
  </g>
  <rect class="cls-3" x="6" y="6" width="18" height="2"/>
  <rect class="cls-3" x="6" y="10" width="18" height="2"/>
  <rect class="cls-3" x="6" y="14" width="6" height="2"/>
  <g id="Layer_1-2" data-name="Layer 1">
    <polygon class="cls-2" points="17.5 21.2 15.6 16 21.3 18 21 20.7 17.5 21.2"/>
    <g id="Layer_2" data-name="Layer 2">
      <polygon class="cls-1" points="17.9 20.7 19.7 19.8 20.2 18.2 30 27.3 27.1 30.3 17.9 20.7"/>
    </g>
    <g id="Layer_1-3" data-name="Layer 1">
      <path id="pencil" class="cls-3" d="M28,30.6l2.4-2.4s.9-.9,0-1.9-9.5-9.4-9.5-9.4c0,0-.2,0-.3,0l-5.2-2c-.3,0-.5,0-.7.2-.1.1-.2.3-.2.5s0,.1,0,.2l1.3,3.3.8,1.9c0,0,0,.3.1.3,0,0,9,8.9,9.5,9.3.9.9,1.8,0,1.8,0ZM17.7,20.3l-.9-2,1-1,2.1.7,9.5,9.3-.9.9s-8-7.9-8.5-8.4c-.5-.5-.9,0-.5.5.5.5,8.5,8.4,8.5,8.4l-.9.9-9.5-9.3Z"/>
    </g>
  </g>
</svg>