<?xml version="1.0" encoding="utf-8"?>
<!-- Generator: Adobe Illustrator 21.0.0, SVG Export Plug-In . SVG Version: 6.00 Build 0)  -->
<svg version="1.1" id="Layer_1" xmlns="http://www.w3.org/2000/svg" xmlns:xlink="http://www.w3.org/1999/xlink" x="0px" y="0px"
	 viewBox="0 0 32 32" style="enable-background:new 0 0 32 32;" xml:space="preserve">
<style type="text/css">
	.st0{fill:#4A4A4A;}
	.st1{fill:#1AA9E8;}
</style>
<g>
	<g>
		<path class="st0" d="M2,2v4h28V2H2z M26,5l-2-2h4L26,5z"/>
	</g>
</g>
<g>
	<g>
		<path class="st0" d="M2,8v4h28V8H2z M24,11l2-2l2,2H24z"/>
	</g>
</g>
<g>
	<g>
		<path class="st0" d="M2,11v13h28V11H2z M28,22H4V12h24V22z"/>
	</g>
</g>
<rect x="6" y="14" class="st1" width="18" height="2"/>
<rect x="6" y="18" class="st1" width="20" height="2"/>
<g>
	<g>
		<path class="st0" d="M2,26v4h28v-4H2z M26,29l-2-2h4L26,29z"/>
	</g>
</g>
</svg>
