<?xml version="1.0" encoding="utf-8"?>
<!-- Generator: Adobe Illustrator 21.0.0, SVG Export Plug-In . SVG Version: 6.00 Build 0)  -->
<svg version="1.1" id="Layer_1" xmlns="http://www.w3.org/2000/svg" xmlns:xlink="http://www.w3.org/1999/xlink" x="0px" y="0px"
	 viewBox="0 0 48 48" style="enable-background:new 0 0 48 48;" xml:space="preserve">
<style type="text/css">
	.st0{fill:#4A4A4A;}
	.st1{fill:#1AA9E8;}
</style>
<g>
	<g>
		<path class="st0" d="M4,13v19h40V13H4z M42,30H6V14h36V30z"/>
	</g>
</g>
<rect x="8" y="16" class="st1" width="24" height="2"/>
<rect x="8" y="20" class="st1" width="20" height="2"/>
<rect x="8" y="24" class="st1" width="27" height="2"/>
<g>
	<g>
		<path class="st0" d="M4,4v4h40V4H4z M40,7l-2-2h4L40,7z"/>
	</g>
</g>
<g>
	<g>
		<path class="st0" d="M4,10v4h40v-4H4z M38,13l2-2l2,2H38z"/>
	</g>
</g>
<g>
	<g>
		<path class="st0" d="M4,34v4h40v-4H4z M40,37l-2-2h4L40,37z"/>
	</g>
</g>
<g>
	<g>
		<path class="st0" d="M4,40v4h40v-4H4z M40,43l-2-2h4L40,43z"/>
	</g>
</g>
</svg>
