<?xml version="1.0" encoding="UTF-8"?>
<!-- Generator: Adobe Illustrator 19.2.1, SVG Export Plug-In . SVG Version: 6.00 Build 0)  -->
<svg xmlns="http://www.w3.org/2000/svg" xmlns:xlink="http://www.w3.org/1999/xlink" version="1.1" x="0px" y="0px" viewBox="0 0 32 32" style="enable-background:new 0 0 32 32;" xml:space="preserve">
<style type="text/css">
	.st0{fill:#4A4A4A;}
	.st1{display:none;}
	.st2{display:inline;enable-background:new    ;}
	.st3{fill:#0592E1;}
	.st4{display:inline;}
	.st5{enable-background:new    ;}
</style>
<g id="Layer_1">
	<g>
		<g>
			<g id="calendar-outline">
				<path class="st0" d="M26,4h-2v2c0,0,0.1,1-2,1c-1,0-1.7,0-2,0c-2.1,0-2-1-2-1V4h-4v2c0,0,0,1-2,1c-0.3,0-1.7,0-2,0      C7.8,7,8,6,8,6V4H6c0,0-2,0-2,2v22c0,0,0,2,2,2h20c2,0,2-2,2-2V6C28,4,26,4,26,4z M26,27c0,0,0,1-1,1H7c-1,0-1-1-1-1V10h20V27z"/>
			</g>
		</g>
	</g>
	<rect x="10" y="2" class="st0" width="2" height="4"/>
	<rect x="20" y="2" class="st0" width="2" height="4"/>
</g>



</svg>
