<?xml version="1.0" encoding="utf-8"?>
<!-- Generator: Adobe Illustrator 27.2.0, SVG Export Plug-In . SVG Version: 6.00 Build 0)  -->
<svg version="1.1" id="Layer_1" xmlns="http://www.w3.org/2000/svg" xmlns:xlink="http://www.w3.org/1999/xlink" x="0px" y="0px"
	 viewBox="0 0 32 32" style="enable-background:new 0 0 32 32;" xml:space="preserve">
<style type="text/css">
	.st0{fill:#217BC0;}
</style>
<text transform="matrix(1 0 0 1 960 540)" style="font-family:'MyriadPro-Regular'; font-size:12px;">bedrijfsmiddelen</text>
<g>
	<path class="st0" d="M28,16.1c-0.1,2.3-0.7,3.7-1.8,5.1c-1.1,1.3-2.6,2-4.5,2c-0.8,0-1.5-0.2-2.1-0.5c-0.6-0.3-1.1-0.8-1.4-1.4
		c-1,1.2-2.2,1.9-3.8,1.9c-1.4,0-2.5-0.5-3.3-1.6s-1.4-2.6-1.2-4.4c0.2-1.5,1-2.7,1.6-3.8s1.4-2,2.4-2.6c1-0.6,2-0.9,3.1-0.9
		c1.4,0,2.5,0.3,3.5,0.9l0.9,0.6l-0.7,7.7c-0.1,0.7,0,1.2,0.3,1.6c0.3,0.4,0.7,0.6,1.3,0.6c0.9,0,2.3-0.6,2.9-1.6
		c0.6-1,0.8-1.9,0.9-3.5c0.2-3.1,0-5-2.6-7.3C21.7,7.2,20,6,17,6c-1.9,0-3.4,0.4-4.9,1.2C10.4,8,8.5,9.4,7.7,11S6.1,14.9,6,17
		c-0.2,3.2,1.1,5.6,2.6,7.3C10.1,26,13,27,16,27c0.8,0,1.3-0.4,2.2-0.6c0.9-0.2,1.6-0.4,2.3-0.7l0.5,2.1c-0.6,0.4-1.4,0.6-2.4,0.9
		c-1,0.2-2,0.3-3,0.3c-2.5,0-4.7-0.5-6.5-1.4c-1.8-0.9-3.1-2.3-4-4.2C4.3,21.5,3.9,19.6,4,17c0.1-2.5,0.7-4.9,1.8-6.9
		s2.6-3.5,4.5-4.5s4-1.6,6.4-1.6c2.4,0,4.5,0.5,6.2,1.4c1.7,1,3,2.3,3.9,4.1C27.7,11.3,28.1,13.8,28,16.1z M13,17.1
		c-0.1,1.2,0.5,2.1,0.8,2.7c0.3,0.6,0.9,0.9,1.6,0.9c0.5,0,0.9-0.2,1.3-0.6c0.4-0.4,0.8-0.9,1.1-1.7l0.6-6.3
		c-0.4-0.1-0.8-0.2-1.2-0.2c-1.1,0-1.7,0.5-2.6,1.3C13.9,14.1,13.2,15.5,13,17.1z"/>
</g>
</svg>
