<?xml version="1.0" encoding="utf-8"?>
<!-- Generator: Adobe Illustrator 24.0.2, SVG Export Plug-In . SVG Version: 6.00 Build 0)  -->
<svg version="1.1" id="Layer_1" xmlns="http://www.w3.org/2000/svg" xmlns:xlink="http://www.w3.org/1999/xlink" x="0px" y="0px"
	 viewBox="0 0 32 32" style="enable-background:new 0 0 32 32;" xml:space="preserve">
<style type="text/css">
	.st0{fill:url(#SVGID_1_);}
	.st1{fill:#4A4A4A;}
	.st2{fill:#BABABA;}
	.st3{fill:#1AA9E8;}
</style>
<g id="Layer_2_1_">
	
		<linearGradient id="SVGID_1_" gradientUnits="userSpaceOnUse" x1="-2.0622" y1="25.6961" x2="28.0622" y2="8.3039" gradientTransform="matrix(1 0 0 -1 0 33)">
		<stop  offset="0" style="stop-color:#FFFFFF"/>
		<stop  offset="0.7545" style="stop-color:#F5F5F5"/>
		<stop  offset="0.9973" style="stop-color:#F5F5F5"/>
	</linearGradient>
	<polygon class="st0" points="25,30 1,30 1,2 25,2 	"/>
</g>
<g>
	<path class="st1" d="M25,2H1C0,2.1,0,3,0,3v27c0,0,0,2,1,2h24c1,0,1-1,1-1V11V9V3C26,3,26,2,25,2z M24,30H2V8h22V30z M2,6V4h22v2H2
		z"/>
	<rect x="2" y="10" class="st2" width="22" height="2"/>
	<rect x="2" y="6" class="st2" width="22" height="2"/>
	<rect x="2" y="14" class="st3" width="22" height="2"/>
	<rect x="2" y="18" class="st2" width="22" height="2"/>
	<rect x="2" y="22" class="st2" width="22" height="2"/>
	<rect x="2" y="26" class="st2" width="22" height="2"/>
</g>
<rect x="28" y="2" class="st1" width="4" height="2"/>
<rect x="28" y="6" class="st1" width="4" height="2"/>
<rect x="28" y="10" class="st1" width="4" height="2"/>
</svg>
