<?xml version="1.0" encoding="utf-8"?>
<!-- Generator: Adobe Illustrator 24.1.2, SVG Export Plug-In . SVG Version: 6.00 Build 0)  -->
<svg version="1.1" id="Layer_1" xmlns="http://www.w3.org/2000/svg" xmlns:xlink="http://www.w3.org/1999/xlink" x="0px" y="0px"
	 viewBox="0 0 32 32" style="enable-background:new 0 0 32 32;" xml:space="preserve">
<style type="text/css">
	.st0{fill:#4A4A4A;}
</style>
<g>
	<path class="st0" d="M25,2H1C0,2.1,0,3,0,3v27c0,0,0,2,1,2h24c1,0,1-1,1-1V11V9V3C26,3,26,2,25,2z M24,30H2V4h22V30z"/>
	<rect x="4" y="10" class="st0" width="18" height="2"/>
	<rect x="4" y="6" class="st0" width="18" height="2"/>
	<rect x="4" y="14" class="st0" width="18" height="2"/>
	<rect x="4" y="18" class="st0" width="18" height="2"/>
	<rect x="4" y="22" class="st0" width="18" height="2"/>
	<rect x="4" y="26" class="st0" width="18" height="2"/>
</g>
<rect x="28" y="2" class="st0" width="4" height="2"/>
<rect x="28" y="6" class="st0" width="4" height="2"/>
<rect x="28" y="10" class="st0" width="4" height="2"/>
</svg>
