<?xml version="1.0" encoding="utf-8"?>
<!-- Generator: Adobe Illustrator 24.1.2, SVG Export Plug-In . SVG Version: 6.00 Build 0)  -->
<svg version="1.1" id="Layer_1" xmlns="http://www.w3.org/2000/svg" xmlns:xlink="http://www.w3.org/1999/xlink" x="0px" y="0px"
	 viewBox="0 0 48 48" style="enable-background:new 0 0 48 48;" xml:space="preserve">
<style type="text/css">
	.st0{fill:#FFFFFF;}
	.st1{fill:#4A4A4A;}
	.st2{fill:#BABABA;}
	.st3{fill:#1AA9E8;}
</style>
<rect x="5" y="5" class="st0" width="28" height="36"/>
<g>
	<path class="st1" d="M33,4H5C4,4.1,4,5,4,5v35c0,0,0,2,1,2h28c1,0,1-1,1-1V13v-2V5C34,5,34,4,33,4z M32,40H6V6h26V40z"/>
	<rect x="6" y="12" class="st2" width="26" height="2"/>
	<rect x="6" y="8" class="st2" width="26" height="2"/>
	<rect x="6" y="16" class="st3" width="26" height="2"/>
	<rect x="6" y="20" class="st2" width="26" height="2"/>
	<rect x="6" y="24" class="st2" width="26" height="2"/>
	<rect x="6" y="28" class="st2" width="26" height="2"/>
	<rect x="6" y="32" class="st2" width="26" height="2"/>
	<rect x="6" y="36" class="st2" width="26" height="2"/>
</g>
<rect x="36" y="4" class="st1" width="8" height="4"/>
<rect x="36" y="10" class="st1" width="8" height="4"/>
<rect x="36" y="16" class="st1" width="8" height="4"/>
</svg>
