<?xml version="1.0" encoding="utf-8"?>
<!-- Generator: Adobe Illustrator 19.2.1, SVG Export Plug-In . SVG Version: 6.00 Build 0)  -->
<svg version="1.1" id="Layer_1" xmlns="http://www.w3.org/2000/svg" xmlns:xlink="http://www.w3.org/1999/xlink" x="0px" y="0px"
	 viewBox="0 0 48 48" style="enable-background:new 0 0 48 48;" xml:space="preserve">
<style type="text/css">
	.st0{fill:#4A4A4A;}
	.st1{fill:#0592E1;}
</style>
<g id="Layer_1_1_">
	<g>
		<g>
			<path id="folder-outline" class="st0" d="M0,7v34.1C0,42.6,1.5,44,3,44s42,0,42,0c1.9,0,3-1.1,3-2.8V16H26L18,4H3
				C1.5,4,0,5.5,0,7z M4,40V8h12l8,12h20v20H4z"/>
		</g>
	</g>
	<path class="st0" d="M22,4l2,2h22v8h2V8V6c0-1.1-0.9-2-2-2l0,0H22z"/>
</g>
<g id="Layer_2">
	<g>
		<path class="st1" d="M6,20l4.3-10h3.4L18,20h-3.2l-1.1-2.2h-3.3L9.2,20H6z M13.6,15.6l-1.6-3l-1.6,3H13.6z"/>
	</g>
	<circle class="st1" cx="11" cy="25" r="2"/>
	<circle class="st1" cx="11" cy="37" r="2"/>
	<rect x="17" y="24" class="st0" width="24" height="2"/>
	<rect x="17" y="36" class="st0" width="24" height="2"/>
	<g>
		<path class="st0" d="M44,14h-4v-2l2-2h-2V8h4v1.6L40.5,12H44V14z"/>
	</g>
	<polygon class="st0" points="34,14 36,14 38,8 37,8 36,10 35,8 34,8 35,11 	"/>
	<polygon class="st0" points="28,13 29,14 30,12 31,14 32,14 32,12 31,11 32,10 32,8 31,8 30,10 29,8 28,8 28,10 29,11 28,12 	"/>
	<circle class="st1" cx="11" cy="31" r="2"/>
	<rect x="17" y="30" class="st0" width="24" height="2"/>
</g>
</svg>
