<?xml version="1.0" encoding="utf-8"?>
<!-- Generator: Adobe Illustrator 19.2.1, SVG Export Plug-In . SVG Version: 6.00 Build 0)  -->
<svg version="1.1" id="Layer_1" xmlns="http://www.w3.org/2000/svg" xmlns:xlink="http://www.w3.org/1999/xlink" x="0px" y="0px"
	 viewBox="0 0 32 32" style="enable-background:new 0 0 32 32;" xml:space="preserve">
<style type="text/css">
	.st0{fill:#F3F3F3;}
</style>
<g>
	<g>
		<path id="folder-outline" class="st0" d="M0,4l0,24c0,1.1,0.9,2,2,2h28c1,0,2-1,2-2.5V12c0-1.1-0.9-2-2-2H17l-3.6-7.6
			C13.1,2.1,12.8,2,12.5,2H2C0.9,2,0,2.9,0,4z M2,28V4h10l0,0l3.7,7.6c0.2,0.3,0.5,0.4,0.9,0.4H30v16H2z"/>
	</g>
	<g>
		<path id="folder-tab" class="st0" d="M18,2v2h14V3.1c0,0,0-1.1-1-1.1S18,2,18,2z"/>
	</g>
</g>
<g>
	<path class="st0" d="M3.9,13L7,5h2l3,8h-1.8L9,11H7l-1,2H3.9z M9,9L8,7L6.9,9L9,9z"/>
</g>
<rect x="10" y="24" class="st0" width="16" height="2"/>
<rect x="6" y="24" class="st0" width="2" height="2"/>
<rect x="10" y="20" class="st0" width="16" height="2"/>
<rect x="6" y="20" class="st0" width="2" height="2"/>
<rect x="10" y="16" class="st0" width="16" height="2"/>
<rect x="6" y="16" class="st0" width="2" height="2"/>
<g>
	<path class="st0" d="M31,9h-3V7.7l1.5-1.3H28V5h3v1.1l-2.6,1.6H31V9z"/>
</g>
<polygon class="st0" points="23.5,9 25,9 26.5,5 25.8,5 25,6.3 24.2,5 23.5,5 24.2,7 "/>
<polygon class="st0" points="19,8.3 19.8,9 20.5,7.7 21.2,9 22,9 22,7.7 21.2,7 22,6.3 22,5 21.2,5 20.5,6.3 19.8,5 19,5 19,6.3 
	19.8,7 19,7.7 "/>
</svg>
