<?xml version="1.0" encoding="utf-8"?>
<!-- Generator: Adobe Illustrator 21.0.0, SVG Export Plug-In . SVG Version: 6.00 Build 0)  -->
<svg version="1.1" id="Layer_1" xmlns="http://www.w3.org/2000/svg" xmlns:xlink="http://www.w3.org/1999/xlink" x="0px" y="0px"
	 viewBox="0 0 32 32" style="enable-background:new 0 0 32 32;" xml:space="preserve">
<style type="text/css">
	.st0{fill:#4A4A4A;}
</style>
<g id="Layer_2">
	<g>
		<g>
			<path class="st0" d="M2,8v16h28V8H2z M28,22H4V10h24V22z"/>
		</g>
	</g>
	<g>
		<path class="st0" d="M17.9,16.2l-0.3,1.2h-2.1c0.3,0.9,0.9,1.3,1.8,1.3c1,0,1.9-0.3,2.8-1v2.5c-0.7,0.5-1.6,0.7-2.6,0.7
			c-1.6,0-2.8-0.4-3.6-1.1s-1.3-1.6-1.4-2.5h-1.2l0.3-1.2h0.8c0-0.1,0-0.2,0-0.4c0-0.2,0-0.3,0-0.4h-0.9l0.3-1.2h0.7
			c0.6-2.3,2.2-3.5,4.9-3.5c0.9,0,1.8,0.2,2.6,0.7l-0.6,2.5c-0.6-0.6-1.3-0.9-1.9-0.9c-0.9,0-1.5,0.4-1.8,1.2H18l-0.3,1.2h-2.4
			c0,0.1,0,0.2,0,0.4v0.4H17.9z"/>
	</g>
</g>
</svg>
