<?xml version="1.0" encoding="UTF-8"?>
<!-- Generator: Adobe Illustrator 19.2.1, SVG Export Plug-In . SVG Version: 6.00 Build 0)  -->
<svg xmlns="http://www.w3.org/2000/svg" xmlns:xlink="http://www.w3.org/1999/xlink" version="1.1" x="0px" y="0px" viewBox="0 0 48 48" style="enable-background:new 0 0 48 48;" xml:space="preserve">
<style type="text/css">
	.st0{fill:#4A4A4A;}
	.st1{fill:#0B7025;}
	.st2{display:none;}
	.st3{display:inline;fill:#F3F3F3;}
	.st4{display:inline;fill:#0F0500;}
	.st5{display:inline;fill:#EFD460;}
	.st6{display:inline;}
</style>
<g id="Layer_1">
	<g>
		<g>
			<path class="st0" d="M0,14v28h42V14H0z M40,40H2V16h38V40z"/>
		</g>
	</g>
	<g>
		<g>
			<path class="st1" d="M16,27.9h-0.2C15.9,28,16,28.1,16,27.9z M19.1,31.9L19.1,31.9C19.1,32,19.1,32,19.1,31.9z M35,17H7     c-2.2,0-4,1.8-4,4v13c0,2.2,1.8,5,4,5h28.1c2.2,0,3.9-2.7,3.9-4.9V21C39,18.8,37.2,17,35,17z M22,25.9v1l-1,1     c0,0.3-2.7-0.2-2.7,0.1c0,0.4-0.4,1.6-0.3,1.9h4v2h-2.7c0.6,0.8,1.3,1.2,2.2,1.2c0.9,0,1.6-0.4,2.1-1.1c0.3-0.4,0.5-1,0.7-1.8     h2.6c-0.2,1.6-0.8,3-1.8,4s-2.2,1.5-3.6,1.5c-1.8,0-3.3-0.7-4.3-2.1c-0.5-0.7-0.9-0.8-1.2-1.8h-3v-2h3c0-0.3-0.4-1.6-0.4-1.9     c0,0,0,0,0-0.1H13v-2h3c0.3-1.2,0.7-3.2,1.4-4c1-1.2,2.3-1.9,3.9-1.9c2.1,0,3.7,0.8,4.7,2.5c0.5,0.9,0.8,1.9,0.9,2.8h-2.7     c-0.2-0.7-0.4-1.3-0.7-1.6c-0.5-0.7-1.2-1-2.1-1c-1,0-1.7,0.5-2.3,1.4c-0.2,0.3-0.1,1.5-0.2,1.8H22z"/>
		</g>
	</g>
</g>



</svg>
