<?xml version="1.0" encoding="utf-8"?>
<!-- Generator: Adobe Illustrator 25.4.1, SVG Export Plug-In . SVG Version: 6.00 Build 0)  -->
<svg version="1.1" id="Layer_1" xmlns="http://www.w3.org/2000/svg" xmlns:xlink="http://www.w3.org/1999/xlink" x="0px" y="0px"
	 viewBox="0 0 48 48" style="enable-background:new 0 0 48 48;" xml:space="preserve">
<style type="text/css">
	.st0{fill:#4A4A4A;}
</style>
<g id="Layer_1_1_">
	<g>
		<g>
			<path class="st0" d="M2,8v28h42V8H2z M42,34H4V10h38V34z"/>
		</g>
	</g>
	<g>
		<g>
			<path class="st0" d="M18.3,21.9h-0.2C18.2,22,18.3,22.1,18.3,21.9z M21.2,25.5L21.2,25.5C21.2,25.6,21.2,25.6,21.2,25.5z
				 M36.2,12H9.8C7.7,12,6,13.6,6,15.6v11.8c0,2,1.7,4.5,3.8,4.5h26.5c2.1,0,3.7-2.5,3.7-4.5V15.6C40,13.6,38.3,12,36.2,12z
				 M23.9,20.1V21L23,21.9c0,0.3-2.6-0.2-2.6,0.1c0,0.4-0.4,1.5-0.3,1.7h3.8v1.8h-2.6c0.6,0.7,1.2,1.1,2.1,1.1s1.5-0.4,2-1
				c0.3-0.4,0.5-0.9,0.7-1.6h2.5c-0.2,1.5-0.8,2.7-1.7,3.6c-0.9,0.9-2.1,1.4-3.4,1.4c-1.7,0-3.1-0.6-4.1-1.9
				c-0.5-0.6-0.9-0.7-1.1-1.6h-2.8v-1.8h2.8c0-0.3-0.4-1.5-0.4-1.7c0,0,0,0,0-0.1h-2.5V20h2.8c0.3-1.1,0.7-2.9,1.3-3.6
				c0.9-1.1,2.2-1.7,3.7-1.7c2,0,3.5,0.7,4.4,2.3c0.5,0.8,0.8,1.7,0.9,2.5H26c-0.2-0.6-0.4-1.2-0.7-1.5c-0.5-0.6-1.1-0.9-2-0.9
				c-0.9,0-1.6,0.5-2.2,1.3C21,18.6,21.1,19.7,21,20L23.9,20.1L23.9,20.1z"/>
		</g>
	</g>
</g>
</svg>
