<?xml version="1.0" encoding="utf-8"?>
<!-- Generator: Adobe Illustrator 25.4.1, SVG Export Plug-In . SVG Version: 6.00 Build 0)  -->
<svg version="1.1" id="Layer_1" xmlns="http://www.w3.org/2000/svg" xmlns:xlink="http://www.w3.org/1999/xlink" x="0px" y="0px"
	 viewBox="0 0 48 48" style="enable-background:new 0 0 48 48;" xml:space="preserve">
<style type="text/css">
	.st0{fill:#4A4A4A;}
</style>
<g id="Layer_1_1_">
	<g>
		<g>
			<path class="st0" d="M2,8v28h44V8H2z M44,34H4V10h40V34z"/>
		</g>
	</g>
	<g>
		<g>
			<path class="st0" d="M18,21.9h-0.2C17.9,22,18,22.1,18,21.9z M21.1,25.9L21.1,25.9C21.1,26,21.1,26,21.1,25.9z M37,12H10
				c-2.2,0-4,1.8-4,4v11c0,2.2,1.8,5,4,5h27.1c2.2,0,4.9-2.7,4.9-4.9V16C42,13.8,39.2,12,37,12z M24,19.9v1l-1,1
				c0,0.3-2.7-0.2-2.7,0.1c0,0.4-0.4,1.6-0.3,1.9h4v2h-2.7c0.6,0.8,1.3,1.2,2.2,1.2c0.9,0,1.6-0.4,2.1-1.1c0.3-0.4,0.5-1,0.7-1.8
				h2.6c-0.2,1.6-0.8,3-1.8,4s-2.2,1.5-3.6,1.5c-1.8,0-3.3-0.7-4.3-2.1c-0.5-0.7-0.9-0.8-1.2-1.8h-3v-2h3c0-0.3-0.4-1.6-0.4-1.9
				c0,0,0,0,0-0.1H15v-2h3c0.3-1.2,0.7-3.2,1.4-4c1-1.2,2.3-1.9,3.9-1.9c2.1,0,3.7,0.8,4.7,2.5c0.5,0.9,0.8,1.9,0.9,2.8h-2.7
				c-0.2-0.7-0.4-1.3-0.7-1.6c-0.5-0.7-1.2-1-2.1-1c-1,0-1.7,0.5-2.3,1.4c-0.2,0.3-0.1,1.5-0.2,1.8H24V19.9z"/>
		</g>
	</g>
</g>
</svg>
