<?xml version="1.0" encoding="UTF-8"?>
<!-- Generator: Adobe Illustrator 19.2.1, SVG Export Plug-In . SVG Version: 6.00 Build 0)  -->
<svg xmlns="http://www.w3.org/2000/svg" xmlns:xlink="http://www.w3.org/1999/xlink" version="1.1" x="0px" y="0px" viewBox="0 0 32 32" style="enable-background:new 0 0 32 32;" xml:space="preserve">
<style type="text/css">
	.st0{display:none;}
	.st1{display:inline;}
	.st2{fill:#FFFFFF;}
	.st3{fill:#4A4A4A;}
	.st4{fill:#0B7025;}
</style>

<g id="Layer_2">
	<g>
		<g>
			<path class="st3" d="M4,6v16h28V6H4z M30,20H6V8h24V20z"/>
		</g>
	</g>
	<g>
		<g>
			<path class="st4" d="M26,8H10c-2.2,0-4,1.8-4,4v4c0,2.2,1.8,4,4,4h16.1c2.2,0,3.9-1.7,3.9-3.9V12C30,9.8,28.2,8,26,8z M19.2,12     l-0.3,1.4h-2.7c0,0.2,0,0.4,0,0.7c0,0.2,0,0.5,0,0.7h2.5l-0.3,1.4h-1.9c0.1,0.2,0.2,0.3,0.3,0.5c0.4,0.6,0.9,0.8,1.5,0.8     c0.6,0,1.1-0.2,1.4-0.7c0.2-0.3,0.3-0.6,0.5-1.2h1.8c-0.2,1.1-0.5,2-1.2,2.7s-1.4,1-2.4,1c-1.2,0-2.2-0.5-2.9-1.4     c-0.4-0.5-0.6-1.1-0.8-1.8h-2.2l0.3-1.4h1.7c0-0.2,0-0.5,0-0.7c0-0.2,0-0.4,0-0.6h-2l0.3-1.4h1.9c0.2-0.8,0.5-1.5,1-2.1     c0.7-0.8,1.6-1.2,2.6-1.2c1.4,0,2.5,0.6,3.1,1.7c0.4,0.6,0.6,1.3,0.6,1.9h-1.8c-0.1-0.5-0.3-0.8-0.4-1.1     c-0.3-0.4-0.8-0.7-1.4-0.7c-0.6,0-1.2,0.3-1.5,0.9c-0.1,0.2-0.2,0.4-0.3,0.6H19.2z"/>
		</g>
	</g>
</g>
</svg>
