<?xml version="1.0" encoding="UTF-8"?>
<!-- Generator: Adobe Illustrator 19.2.1, SVG Export Plug-In . SVG Version: 6.00 Build 0)  -->
<svg xmlns="http://www.w3.org/2000/svg" xmlns:xlink="http://www.w3.org/1999/xlink" version="1.1" x="0px" y="0px" viewBox="0 0 32 32" style="enable-background:new 0 0 32 32;" xml:space="preserve">
<style type="text/css">
	.st0{display:none;}
	.st1{display:inline;}
	.st2{fill:#FFFFFF;}
	.st3{stroke:#000000;stroke-width:3;}
	.st4{fill:#4A4A4A;}
</style>

<g id="Layer_2">
	<g id="Layer_1_1_">
		<g>
			<g>
				<path class="st4" d="M12,4v18.1c0,3.2,2.6,5.9,5.9,5.9h6.3c2.1,0,3.9-1.7,3.9-3.9V4H12z M26,23.1c0,1.6-1.3,2.9-2.9,2.9h-6.3      c-1.6,0-2.9-1.3-2.9-2.9V6h12V23.1z"/>
			</g>
		</g>
		<g>
			<g>
				<path class="st4" d="M10,10h1c0.7,0,1,1.3,1,2V8H9.8C7.7,8,6,9.7,6,11.9v6.5c0,2.1,1.8,3.6,4,3.6h0.1c1,0,1.9,0,1.9-1v-2      c0,0.6-0.4,1-1,1h-1c-1-0.1-2-1-2-2v-6C8,10.9,8.9,10,10,10z"/>
			</g>
		</g>
	</g>
</g>
</svg>
