<?xml version="1.0" encoding="utf-8"?>
<!-- Generator: Adobe Illustrator 21.0.0, SVG Export Plug-In . SVG Version: 6.00 Build 0)  -->
<svg version="1.1" id="Layer_1" xmlns="http://www.w3.org/2000/svg" xmlns:xlink="http://www.w3.org/1999/xlink" x="0px" y="0px"
	 viewBox="0 0 32 32" enable-background="new 0 0 32 32" xml:space="preserve">
<g>
	<path fill="#F3F3F3" d="M21.878,27.991c-1.129-0.405-2.353-0.844-3.483-1.25c-0.188-0.068-0.316-0.007-0.384,0.181
		c-1.011,1.337-2.7,1.9-4.3,1.325c-1.506-0.54-2.546-2.082-2.382-3.723c-0.027-0.222-0.027-0.222-0.215-0.29
		c-2.353-0.844-4.612-1.655-6.965-2.499c-0.471-0.169-0.712-0.68-0.449-1.117c0.101-0.282,0.323-0.309,0.579-0.43
		c0.444-0.053,0.828-0.234,1.178-0.321c0.35-0.087,0.512-0.241,0.707-0.49c0.526-0.874,1.052-1.747,1.484-2.655
		c1.093-2.158,2.032-4.477,2.936-6.702c0.837-2.037,2.077-3.717,4.003-4.938c1.252-0.825,2.652-1.173,4.172-1.265
		c0.35-0.087,0.35-0.087,0.512-0.241c0.823-1.405,2.418-2.001,3.924-1.46c1.412,0.507,2.23,2.075,2.006,3.588
		c-0.034,0.094,0.027,0.222,0.087,0.35c2.513,2.177,3.336,4.916,2.914,8.164c-0.048,0.726-0.285,1.385-0.427,2.078
		c-0.487,1.95-1.129,3.738-1.616,5.688c-0.345,1.257-0.535,2.676-0.786,3.968c-0.142,0.693,0.065,1.298,0.529,1.783
		c0.154,0.162,0.215,0.29,0.369,0.451c0.215,0.29,0.302,0.639,0.073,0.982c-0.195,0.249-0.579,0.43-0.862,0.328
		C24.137,28.801,23.007,28.396,21.878,27.991z M23.34,26.284c0.048-0.726,0.096-1.453,0.239-2.145
		c0.408-2.616,1.097-5.131,1.882-7.612c0.21-0.881,0.514-1.728,0.69-2.515c0.475-2.804-0.355-5.227-2.593-6.986
		c-0.343-0.229-0.43-0.579-0.261-1.05c0.203-0.565,0.183-1.103-0.186-1.554c-0.369-0.451-0.934-0.654-1.506-0.54
		c-0.572,0.113-1.023,0.483-1.132,1.081c-0.169,0.471-0.364,0.719-0.903,0.739c-0.538,0.019-1.17,0.005-1.742,0.118
		c-2.544,0.575-4.194,2.213-5.261,4.593c-0.635,1.472-1.175,2.978-1.904,4.417c-0.931,2.003-1.769,4.04-3.231,5.746
		C12.798,22.502,18.069,24.393,23.34,26.284z M16.513,26.066c-1.224-0.439-2.447-0.878-3.671-1.317
		c-0.082,0.821,0.562,1.689,1.443,1.899C15.133,26.951,16.054,26.751,16.513,26.066z"/>
</g>
</svg>
