<?xml version="1.0" encoding="utf-8"?>
<!-- Generator: Adobe Illustrator 21.0.0, SVG Export Plug-In . SVG Version: 6.00 Build 0)  -->
<svg version="1.1" id="Layer_1" xmlns="http://www.w3.org/2000/svg" xmlns:xlink="http://www.w3.org/1999/xlink" x="0px" y="0px"
	 viewBox="0 0 32 32" style="enable-background:new 0 0 32 32;" xml:space="preserve">
<style type="text/css">
	.st0{fill:#1AA9E8;}
	.st1{fill:#494949;}
</style>
<g>
	<circle class="st0" cx="16" cy="21" r="2"/>
	<circle class="st0" cx="16" cy="15" r="2"/>
	<circle class="st0" cx="16" cy="9" r="2"/>
</g>
<g>
	<g>
		<path class="st1" d="M25.1,2H10.5c-0.3,0-0.6,0.1-0.8,0.3L6,6l0,20l0,0v3.2C6,29.7,6.3,30,6.8,30H22c0,0,0,0,0,0V6.7
			C22,6.3,21.7,6,21.3,6H9l2-2h13v21l-2,2v3l3.6-3.6c0.3-0.3,0.4-0.7,0.4-1V2.9C26,2.4,25.6,2,25.1,2z"/>
	</g>
</g>
</svg>
