<?xml version="1.0" encoding="utf-8"?>
<!-- Generator: Adobe Illustrator 22.1.0, SVG Export Plug-In . SVG Version: 6.00 Build 0)  -->
<svg version="1.1" id="Layer_1" xmlns="http://www.w3.org/2000/svg" xmlns:xlink="http://www.w3.org/1999/xlink" x="0px" y="0px"
	 viewBox="0 0 32 32" style="enable-background:new 0 0 32 32;" xml:space="preserve">
<style type="text/css">
	.st0{fill:#F3F3F3;}
</style>
<g>
	<g>
		<path class="st0" d="M25.1,2H10.5c-0.3,0-0.6,0.1-0.8,0.3L6,6v23.2C6,29.7,6.3,30,6.8,30H22l3.6-3.6c0.3-0.3,0.4-0.7,0.4-1V2.9
			C26,2.4,25.6,2,25.1,2z M19.9,26.9c0,0.6-0.5,1.1-1.1,1.1H9.1C8.5,28,8,27.5,8,26.8V9.1C8,8.5,8.5,8,9.1,8h9.8
			c0.6,0,1.1,0.5,1,1.1C19.9,9.1,19.9,26.9,19.9,26.9z M24,25l-2,2V6.7C22,6.3,21.7,6,21.3,6H9l2-2h13V25z"/>
	</g>
</g>
<polygon class="st0" points="21,29 21,6 8,6 10,3 25,3 25,25 "/>
</svg>
