<?xml version="1.0" encoding="utf-8"?>
<!-- Generator: Adobe Illustrator 21.0.0, SVG Export Plug-In . SVG Version: 6.00 Build 0)  -->
<svg version="1.1" id="Layer_1" xmlns="http://www.w3.org/2000/svg" xmlns:xlink="http://www.w3.org/1999/xlink" x="0px" y="0px"
	 viewBox="0 0 32 32" style="enable-background:new 0 0 32 32;" xml:space="preserve">
<style type="text/css">
	.st0{fill:#4A4A4A;}
</style>
<g>
	<g transform="scale(0.9) translate(0 5)">
		<g id="box_">
			<path class="st0" d="M27,4H3C2.5,4,2,4.5,2,5v6c0,0.5,0.5,1,1,1h1v13c0,0.5,0.6,1,1,1h20c0.5,0,1-0.5,1-1V12h1c0.5,0,1-0.5,1-1V5
				C28,4.5,27.5,4,27,4z M24,24H6V12h18V24z M26,10H4V6h22V10z"/>
			<path class="st0" d="M20,20h-4c-0.4,0-1-0.5-1-1l0,0c0-0.5,0.6-1,1-1h4c0.5,0,1,0.5,1,1l0,0C21,19.5,20.5,20,20,20z"/>
		</g>
	</g>
</g>
</svg>
