<?xml version="1.0" encoding="utf-8"?>
<!-- Generator: Adobe Illustrator 21.0.0, SVG Export Plug-In . SVG Version: 6.00 Build 0)  -->
<svg version="1.1" id="Layer_1" xmlns="http://www.w3.org/2000/svg" xmlns:xlink="http://www.w3.org/1999/xlink" x="0px" y="0px"
	 viewBox="0 0 48 48" style="enable-background:new 0 0 48 48;" xml:space="preserve">
<style type="text/css">
	.st0{fill:#4A4A4A;}
</style>
<g>
	<g transform="scale(0.9) translate(0 5)">
		<g id="box_">
			<path class="st0" d="M42,11H6c-0.5,0-1,0.5-1,1v8c0,0.5,0.5,1,1,1h1v19c0,0.5,0.6,1,1,1h32c0.5,0,1-0.5,1-1V21h1c0.5,0,1-0.5,1-1
				v-8C43,11.5,42.5,11,42,11z M39,37H9V21h30V37z M41,17H7v-4h34V17z"/>
			<path class="st0" d="M35,33h-4c-0.5,0-1-0.5-1-1l0,0c0-2,0.5-3,1-3h4c0.5,0,1,1,1,3l0,0C36,32.5,35.5,33,35,33z"/>
		</g>
	</g>
</g>
</svg>
