<?xml version="1.0" encoding="utf-8"?>
<!-- Generator: Adobe Illustrator 21.0.0, SVG Export Plug-In . SVG Version: 6.00 Build 0)  -->
<svg version="1.1" id="Layer_1" xmlns="http://www.w3.org/2000/svg" xmlns:xlink="http://www.w3.org/1999/xlink" x="0px" y="0px"
	 viewBox="0 0 32 32" style="enable-background:new 0 0 32 32;" xml:space="preserve">
<style type="text/css">
	.st0{fill:#4A4A4A;}
</style>
<path class="st0" d="M6,26L6,26c-2.7-2.7-2.7-7.2,0-9.9l4.2-4.2c2.7-2.7,7.2-2.7,9.9,0l0,0c2.7,2.7,2.7,7.2,0,9.9L15.9,26
	C13.1,28.8,8.7,28.8,6,26z"/>
<path class="st0" d="M10.2,10.5L8.1,8.4C7.7,8,7.7,7.3,8.1,7l0,0c0.4-0.4,1-0.4,1.4,0l2.1,2.1c0.4,0.4,0.4,1,0,1.4l0,0
	C11.2,10.9,10.6,10.9,10.2,10.5z"/>
<path class="st0" d="M7.4,13.3l-2.1-2.1c-0.4-0.4-0.4-1,0-1.4l0,0c0.4-0.4,1-0.4,1.4,0l2.1,2.1c0.4,0.4,0.4,1,0,1.4l0,0
	C8.4,13.7,7.8,13.7,7.4,13.3z"/>
<path class="st0" d="M4.5,16.1L2.4,14c-0.4-0.4-0.4-1,0-1.4l0,0c0.4-0.4,1-0.4,1.4,0L6,14.7c0.4,0.4,0.4,1,0,1.4h0
	C5.6,16.5,4.9,16.5,4.5,16.1z"/>
<path class="st0" d="M23.6,23.9l-2.1-2.1c-0.4-0.4-0.4-1,0-1.4l0,0c0.4-0.4,1-0.4,1.4,0l2.1,2.1c0.4,0.4,0.4,1,0,1.4l0,0
	C24.7,24.3,24,24.3,23.6,23.9z"/>
<path class="st0" d="M20.8,26.8l-2.1-2.1c-0.4-0.4-0.4-1,0-1.4h0c0.4-0.4,1-0.4,1.4,0l2.1,2.1c0.4,0.4,0.4,1,0,1.4h0
	C21.8,27.1,21.2,27.1,20.8,26.8z"/>
<path class="st0" d="M18,29.6l-2.1-2.1c-0.4-0.4-0.4-1,0-1.4l0,0c0.4-0.4,1-0.4,1.4,0l2.1,2.1c0.4,0.4,0.4,1,0,1.4v0
	C19,30,18.4,30,18,29.6z"/>
<path class="st0" d="M20.1,11.9L20.1,11.9c-1.6-1.6-1.6-4.1,0-5.7l0,0c1.6-1.6,4.1-1.6,5.7,0l0,0c1.6,1.6,1.6,4.1,0,5.7l0,0
	C24.2,13.5,21.7,13.5,20.1,11.9z"/>
<ellipse transform="matrix(0.7071 -0.7071 0.7071 0.7071 3.5901 16.9185)" class="st0" cx="22.2" cy="4.1" rx="2" ry="2"/>
<ellipse transform="matrix(0.7071 -0.7071 0.7071 0.7071 1.247 22.5754)" class="st0" cx="27.9" cy="9.8" rx="2" ry="2"/>
<path class="st0" d="M13.8,7.2v-3c0-0.6,0.4-1,1-1h0c0.6,0,1,0.4,1,1v3c0,0.6-0.4,1-1,1h0C14.3,8.2,13.8,7.8,13.8,7.2z"/>
<path class="st0" d="M27.8,18.2h-3c-0.6,0-1-0.4-1-1v0c0-0.6,0.4-1,1-1h3c0.6,0,1,0.4,1,1v0C28.8,17.7,28.3,18.2,27.8,18.2z"/>
</svg>
