<?xml version="1.0" encoding="utf-8"?>
<!-- Generator: Adobe Illustrator 21.0.0, SVG Export Plug-In . SVG Version: 6.00 Build 0)  -->
<svg version="1.1" id="Layer_1" xmlns="http://www.w3.org/2000/svg" xmlns:xlink="http://www.w3.org/1999/xlink" x="0px" y="0px"
	 viewBox="0 0 48 48" style="enable-background:new 0 0 48 48;" xml:space="preserve">
<style type="text/css">
	.st0{fill:#F3F3F3;}
</style>
<path class="st0" d="M16,42h-4c-1.1,0-2-0.9-2-2V7.1C10,6.5,10.5,6,11.1,6H16c1.1,0,2,0.9,2,2v32C18,41.1,17.1,42,16,42z"/>
<g>
	<g>
		<path class="st0" d="M6,11.6c0,0.1,0,0.3,0,0.4v23.9c0,1.1,0.9,2,2,2.1V10h0C7,10,6.2,10.7,6,11.6z M39.9,10H20v28h21.9
			c1.1,0,2.1-0.9,2.1-2.1V12.1C44,10.9,43.1,10,39.9,10z M26,36c-1.1,0-2-0.9-2-2s0.9-2,2-2s2,0.9,2,2S27.1,36,26,36z M26,30
			c-1.1,0-2-0.9-2-2s0.9-2,2-2s2,0.9,2,2S27.1,30,26,30z M26,24c-1.1,0-2-0.9-2-2s0.9-2,2-2s2,0.9,2,2S27.1,24,26,24z M32,36
			c-1.1,0-2-0.9-2-2s0.9-2,2-2s2,0.9,2,2S33.1,36,32,36z M32,30c-1.1,0-2-0.9-2-2s0.9-2,2-2s2,0.9,2,2S33.1,30,32,30z M32,24
			c-1.1,0-2-0.9-2-2s0.9-2,2-2s2,0.9,2,2S33.1,24,32,24z M38,36c-1.1,0-2-0.9-2-2s0.9-2,2-2s2,0.9,2,2S39.1,36,38,36z M38,30
			c-1.1,0-2-0.9-2-2s0.9-2,2-2s2,0.9,2,2S39.1,30,38,30z M38,24c-1.1,0-2-0.9-2-2s0.9-2,2-2s2,0.9,2,2S39.1,24,38,24z M40,18H24v-4
			h16V18z"/>
	</g>
</g>
</svg>
