<?xml version="1.0" encoding="utf-8"?>
<!-- Generator: Adobe Illustrator 21.0.0, SVG Export Plug-In . SVG Version: 6.00 Build 0)  -->
<svg version="1.1" id="Layer_1" xmlns="http://www.w3.org/2000/svg" xmlns:xlink="http://www.w3.org/1999/xlink" x="0px" y="0px"
	 viewBox="0 0 48 48" style="enable-background:new 0 0 48 48;" xml:space="preserve">
<style type="text/css">
	.st0{fill:#4A4A4A;}
	.st1{fill:#F3F3F3;}
</style>
<path class="st0" d="M16,42h-4c-1.1,0-2-0.9-2-2V7.1C10,6.5,10.5,6,11.1,6H16c1.1,0,2,0.9,2,2v32C18,41.1,17.1,42,16,42z"/>
<g>
	<g>
		<path class="st0" d="M39.9,10H20v28h21.9c1.1,0,2.1-0.9,2.1-2.1V12.1C44,10.9,43.1,10,39.9,10z M40,18H24v-4h16V18z M6,11.6
			c0,0.1,0,0.3,0,0.4v23.9c0,1.1,0.9,2,2,2.1V10h0C7,10,6.2,10.7,6,11.6z"/>
	</g>
</g>
<path class="st1" d="M38,24L38,24c-1.1,0-2-0.9-2-2v0c0-1.1,0.9-2,2-2h0c1.1,0,2,0.9,2,2v0C40,23.1,39.1,24,38,24z"/>
<path class="st1" d="M32,24L32,24c-1.1,0-2-0.9-2-2v0c0-1.1,0.9-2,2-2h0c1.1,0,2,0.9,2,2v0C34,23.1,33.1,24,32,24z"/>
<path class="st1" d="M26,24L26,24c-1.1,0-2-0.9-2-2v0c0-1.1,0.9-2,2-2h0c1.1,0,2,0.9,2,2v0C28,23.1,27.1,24,26,24z"/>
<path class="st1" d="M38,30L38,30c-1.1,0-2-0.9-2-2v0c0-1.1,0.9-2,2-2h0c1.1,0,2,0.9,2,2v0C40,29.1,39.1,30,38,30z"/>
<path class="st1" d="M32,30L32,30c-1.1,0-2-0.9-2-2v0c0-1.1,0.9-2,2-2h0c1.1,0,2,0.9,2,2v0C34,29.1,33.1,30,32,30z"/>
<path class="st1" d="M26,30L26,30c-1.1,0-2-0.9-2-2v0c0-1.1,0.9-2,2-2h0c1.1,0,2,0.9,2,2v0C28,29.1,27.1,30,26,30z"/>
<path class="st1" d="M38,36L38,36c-1.1,0-2-0.9-2-2v0c0-1.1,0.9-2,2-2h0c1.1,0,2,0.9,2,2v0C40,35.1,39.1,36,38,36z"/>
<path class="st1" d="M32,36L32,36c-1.1,0-2-0.9-2-2v0c0-1.1,0.9-2,2-2h0c1.1,0,2,0.9,2,2v0C34,35.1,33.1,36,32,36z"/>
<path class="st1" d="M26,36L26,36c-1.1,0-2-0.9-2-2v0c0-1.1,0.9-2,2-2h0c1.1,0,2,0.9,2,2v0C28,35.1,27.1,36,26,36z"/>
</svg>
