<?xml version="1.0" encoding="utf-8"?>
<!-- Generator: Adobe Illustrator 22.1.0, SVG Export Plug-In . SVG Version: 6.00 Build 0)  -->
<svg version="1.1" id="Layer_1" xmlns="http://www.w3.org/2000/svg" xmlns:xlink="http://www.w3.org/1999/xlink" x="0px" y="0px"
	 viewBox="0 0 32 32" style="enable-background:new 0 0 32 32;" xml:space="preserve">
<style type="text/css">
	.st0{fill:#FFFFFF;}
	.st1{fill:#4A4A4A;}
</style>
<rect x="11" y="22" class="st0" width="19" height="15"/>
<rect x="15" y="13" class="st0" width="4" height="15"/>
<rect x="4" y="6" class="st0" width="24" height="16"/>
<g>
</g>
<rect x="14" y="32" class="st1" width="16" height="1"/>
<g>
	<g>
		<path class="st1" d="M29.1,21h-0.2c-0.4,0-0.7,0.1-1,0.2c-0.3-1.3-1.4-2.2-2.8-2.2h-0.2c-0.7,0-1.4,0.3-1.9,0.7
			c-0.5-0.4-1.2-0.7-1.9-0.7h-0.2c-0.3,0-0.6,0.1-0.9,0.2v-5.3c0-1.6-1.3-2.9-2.9-2.9h-0.2c-1.6,0-2.9,1.3-2.9,2.9v11.3
			c-0.3-0.1-0.6-0.2-0.9-0.2h-0.2c-1.6,0-2.9,1.3-2.9,2.9V45h2V28c0-0.6,0.4-1,1-1s1,0.4,1,1v17h2V14c0-0.6,0.4-1,1-1s1,0.4,1,1v25
			h2V22c0-0.6,0.4-1,1-1s1,0.4,1,1v17h2V22c0-0.6,0.4-1,1-1s1,0.4,1,1v19h2V24c0-0.6,0.4-1,1-1s1,0.4,1,1v17h2V23.9
			C32,22.3,30.7,21,29.1,21z"/>
	</g>
</g>
<g>
	<g>
		<path class="st1" d="M13,20H5.6C4.7,20,4,19.3,4,18.4V7.6C4,6.7,4.7,6,5.6,6h20.8C27.3,6,28,6.7,28,7.6v10.8c0,0.2,0,0.4-0.1,0.6
			H30V5.6C30,4.7,27.3,4,26.4,4H3.6C2.7,4,2,6.7,2,7.6v14.8C2,23.3,4.7,24,5.6,24H13V20z"/>
	</g>
</g>
</svg>
