<?xml version="1.0" encoding="utf-8"?>
<!-- Generator: Adobe Illustrator 24.1.2, SVG Export Plug-In . SVG Version: 6.00 Build 0)  -->
<svg version="1.1" id="Layer_1" xmlns="http://www.w3.org/2000/svg" xmlns:xlink="http://www.w3.org/1999/xlink" x="0px" y="0px"
	 viewBox="0 0 48 48" style="enable-background:new 0 0 48 48;" xml:space="preserve">
<style type="text/css">
	.st0{fill:#F3F3F3;}
</style>
<g>
	<g>
		<path class="st0" d="M39.1,35h-0.2c-0.4,0-0.7,0.1-1,0.2c-0.3-1.3-1.4-2.2-2.8-2.2h-0.2c-0.7,0-1.4,0.3-1.9,0.7
			c-0.5-0.4-1.2-0.7-1.9-0.7h-0.2c-0.3,0-0.6,0.1-0.9,0.2v-5.3c0-1.6-1.3-2.9-2.9-2.9h-0.2c-1.6,0-2.9,1.3-2.9,2.9v11.3
			c-0.3-0.1-0.6-0.2-0.9-0.2h-0.2c-1.6,0-2.9,1.3-2.9,2.9V59h2V42c0-0.6,0.4-1,1-1s1,0.4,1,1v17h2V28c0-0.6,0.4-1,1-1s1,0.4,1,1v25
			h2V36c0-0.6,0.4-1,1-1s1,0.4,1,1v17h2V36c0-0.6,0.4-1,1-1c0.6,0,1,0.4,1,1v19h2V38c0-0.6,0.4-1,1-1c0.6,0,1,0.4,1,1v17h2V37.9
			C42,36.3,40.7,35,39.1,35z"/>
	</g>
</g>
<g>
	<g>
		<path class="st0" d="M23,34H9.6C8.7,34,8,33.3,8,32.4V15.6C8,14.7,8.7,14,9.6,14h26.8c0.9,0,1.6,0.7,1.6,1.6v16.8
			c0,0.2,0,0.4-0.1,0.6H40V13.6c0-0.9-2.7-1.6-3.6-1.6H7.6C6.7,12,6,14.7,6,15.6v20.8C6,37.3,8.7,38,9.6,38H23V34z"/>
	</g>
</g>
</svg>
