<?xml version="1.0" encoding="utf-8"?>
<!-- Generator: Adobe Illustrator 21.0.0, SVG Export Plug-In . SVG Version: 6.00 Build 0)  -->
<svg version="1.1" id="Layer_1" xmlns="http://www.w3.org/2000/svg" xmlns:xlink="http://www.w3.org/1999/xlink" x="0px" y="0px"
	 viewBox="0 0 48 48" style="enable-background:new 0 0 48 48;" xml:space="preserve">
<style type="text/css">
	.st0{fill:#F3F3F3;}
</style>
<g id="Layer_2_1_">
	<g>
		<path class="st0" d="M38,2H10C8.5,2,8,4,8,4v38c0,0,0.5,2,2,2h28c1.5,0,2-2,2-2V4C40,4,39.5,2,38,2z M36,40H12V6h24V40z"/>
		<path class="st0" d="M33,8h-8h-4.5H15c-1.1,0-1,1-1,1s0,8.4,0,10c0,1,1,1,1,1h18c0,0,1-0.1,1-1c0-1.5,0-10,0-10S33.9,8,33,8z
			 M22,10h4v2c0,0.3-0.7,1-1,1h-2c-0.4,0-1-0.6-1-1V10z M32,18H16v-8h4v3c0,0.6,0.5,1,1,1h6c0.5,0,1-0.4,1-1v-3h4V18z"/>
	</g>
	<path class="st0" d="M33,24h-8h-4.5H15c-1.1,0-1,1-1,1s0,8.4,0,10c0,1,1,1,1,1h18c0,0,1-0.1,1-1c0-1.5,0-10,0-10S33.9,24,33,24z
		 M22,26h4v2c0,0.3-0.7,1-1,1h-2c-0.4,0-1-0.6-1-1V26z M32,34H16v-8h4v3c0,0.5,0.5,1,1,1h6c0.5,0,1-0.5,1-1v-3h4V34z"/>
</g>
</svg>
