<?xml version="1.0" encoding="utf-8"?>
<!-- Generator: Adobe Illustrator 21.0.0, SVG Export Plug-In . SVG Version: 6.00 Build 0)  -->
<svg version="1.1" id="Layer_1" xmlns="http://www.w3.org/2000/svg" xmlns:xlink="http://www.w3.org/1999/xlink" x="0px" y="0px"
	 viewBox="0 0 32 32" style="enable-background:new 0 0 32 32;" xml:space="preserve">
<style type="text/css">
	.st0{fill:#F3F3F3;}
</style>
<g>
	<path class="st0" d="M27,2H7C6,2,6,3,6,3v26c0,0,0,1,1,1h20c1,0,1-1,1-1V3C28,3,28,2,27,2z M26,28H8V4h18V28z"/>
	<path class="st0" d="M23,6h-5h-3h-4c-1,0-1,1-1,1s0,5,0,6s1,1,1,1h12c0,0,1,0,1-1s0-6,0-6S24,6,23,6z M15,7h3v1.5
		C18,8.8,17.8,9,17.5,9h-2C15.2,9,15,8.8,15,8.5V7z M22,12H12V8h2v1c0,0.3,0.7,1,1,1h3c0.3,0,1-0.7,1-1V8h3V12z"/>
</g>
<path class="st0" d="M23,18h-5h-3h-4c-1,0-1,1-1,1s0,5,0,6s1,1,1,1h12c0,0,1,0,1-1s0-6,0-6S24,18,23,18z M15,19h3v1.5
	c0,0.3-0.2,0.5-0.5,0.5h-2c-0.3,0-0.5-0.2-0.5-0.5V19z M22,24H12v-4h2v1c0,0.3,0.7,1,1,1h3c0.3,0,1-0.7,1-1v-1h3V24z"/>
</svg>
