<?xml version="1.0" encoding="utf-8"?>
<!-- Generator: Adobe Illustrator 19.2.1, SVG Export Plug-In . SVG Version: 6.00 Build 0)  -->
<svg version="1.1" id="Layer_1" xmlns="http://www.w3.org/2000/svg" xmlns:xlink="http://www.w3.org/1999/xlink" x="0px" y="0px"
	 viewBox="0 0 48 48" style="enable-background:new 0 0 48 48;" xml:space="preserve">
<style type="text/css">
	.st0{fill:#4A4A4A;}
</style>
<g>
	<g>
		<path class="st0" d="M10,4v40h30V4H10z M18,39c0,0.5-0.4,1-1,1H15c-0.5,0-1-0.4-1-1V37c0-0.5,0.4-1,1-1H17c0.5,0,1,0.4,1,1V39z
			 M18,34h-4v-4h4V34z M18,28h-4v-4h4V28z M18,22h-4v-4h4V22z M24,40h-4v-4h4V40z M24,34h-4v-4h4V34z M24,28h-4v-4h4V28z M24,22h-4
			v-4h4V22z M30,39c0,0.5-0.4,1-1,1H27c-0.5,0-1-0.4-1-1V37c0-0.5,0.4-1,1-1H29c0.5,0,1,0.4,1,1V39z M30,34h-4v-4h4V34z M30,28h-4
			v-4h4V28z M30,22h-4v-4h4V22z M36,38.9c0,0.6-0.5,1.1-1.1,1.1h-1.8c-0.6,0-1.1-0.5-1.1-1.1v-7.8c0-0.6,0.5-1.1,1.1-1.1h1.8
			c0.6,0,1.1,0.5,1.1,1.1V38.9z M36,27c0,0.5-0.4,1-1,1H33c-0.5,0-1-0.4-1-1V25c0-0.5,0.4-1,1-1H35c0.5,0,1,0.4,1,1V27z M36,21
			c0,0.5-0.4,1-1,1H33c-0.5,0-1-0.4-1-1V19c0-0.5,0.4-1,1-1H35c0.5,0,1,0.4,1,1V21z M36,14H14V8h22V14z"/>
	</g>
</g>
</svg>
