<?xml version="1.0" encoding="utf-8"?>
<!-- Generator: Adobe Illustrator 26.0.2, SVG Export Plug-In . SVG Version: 6.00 Build 0)  -->
<svg version="1.1" id="Layer_1" xmlns="http://www.w3.org/2000/svg" xmlns:xlink="http://www.w3.org/1999/xlink" x="0px" y="0px"
	 viewBox="0 0 48 48" style="enable-background:new 0 0 48 48;" xml:space="preserve">
<style type="text/css">
	.st0{fill:#4A4A4A;}
</style>
<path class="st0" d="M10,14l6,18h24l6-18H10z M38,30H18l-5-14h30L38,30z"/>
<rect x="14" y="22" class="st0" width="28" height="2"/>
<rect x="22" y="16" class="st0" width="2" height="14"/>
<rect x="32" y="16" class="st0" width="2" height="14"/>
<path class="st0" d="M21,40L21,40c1.7,0,3-1.3,3-3v0c0-1.7-1.3-3-3-3h0c-1.7,0-3,1.3-3,3v0C18,38.7,19.3,40,21,40z"/>
<path class="st0" d="M35,40L35,40c1.7,0,3-1.3,3-3v0c0-1.7-1.3-3-3-3h0c-1.7,0-3,1.3-3,3v0C32,38.7,33.3,40,35,40z"/>
</svg>
