<?xml version="1.0" encoding="UTF-8"?>
<svg id="Layer_1" data-name="Layer 1" xmlns="http://www.w3.org/2000/svg" version="1.1" viewBox="0 0 48 48">
  <defs>
    <style>
      .cls-1 {
        fill: #fffb6c;
      }

      .cls-1, .cls-2 {
        stroke-width: 0px;
      }

      .cls-2 {
        fill: #4a4a4a;
      }
    </style>
  </defs>
  <rect class="cls-2" x="6" y="34" width="2" height="7"/>
  <rect class="cls-2" x="40" y="34" width="2" height="7"/>
  <rect class="cls-2" x="30" y="34" width="8" height="2"/>
  <rect class="cls-1" x="32" y="30" width="4" height="2"/>
  <g>
    <path class="cls-2" d="M20,16.7c0,1.1.6,2,1.5,2.6,0,0,0,0,0,0l1.1-2.2-2.6-.4Z"/>
    <path class="cls-2" d="M25.9,19c.7-.6,1.1-1.5,1.1-2.5,0-1.8-1.3-3.2-3-3.4v3.4s0,0,0,0l1.8,2.3c0,0,0,.1,0,.2Z"/>
    <path class="cls-2" d="M25.1,19.6s0,0-.1,0l-1.6-2-1.1,2.3s0,0,0,0c.3.1.7.2,1.1.2.6,0,1.2-.2,1.6-.4Z"/>
    <path class="cls-2" d="M23,13.1c-1.4.2-2.6,1.3-2.9,2.7l2.9.5v-3.1Z"/>
    <path class="cls-2" d="M4,8v26h40V8H4ZM31,15h8v1h-8v-1ZM31,18h6v1h-6v-1ZM8,12h8v1h-8v-1ZM8,14h6v1h-6v-1ZM9,27h-1v-6h1v6ZM11,27h-1v-5h1v5ZM13,27h-1v-6h1v6ZM15,27h-1v-3h1v3ZM17,27h-1v-6h1v6ZM19,16.5c0-2.5,2-4.5,4.5-4.5s4.5,2,4.5,4.5-2,4.5-4.5,4.5-4.5-2-4.5-4.5ZM33.6,27.7h0s0,0,0,0l-4.9-3.5-6,3.5-.5-.9,6.6-3.8h0s4.9,3.5,4.9,3.5l5.4-2.8.5.9-5.9,3.1Z"/>
  </g>
</svg>