<?xml version="1.0" encoding="UTF-8"?>
<svg id="Layer_1" data-name="Layer 1" xmlns="http://www.w3.org/2000/svg" version="1.1" viewBox="0 0 48 48">
  <defs>
    <style>
      .cls-1 {
        fill: #fffb6c;
      }

      .cls-1, .cls-2, .cls-3, .cls-4 {
        stroke-width: 0px;
      }

      .cls-2 {
        fill: #065e2a;
      }

      .cls-3 {
        fill: #fff;
      }

      .cls-4 {
        fill: #4a4a4a;
      }
    </style>
  </defs>
  <rect class="cls-4" x="4" y="8" width="40" height="26"/>
  <rect class="cls-2" x="6" y="10" width="36" height="22"/>
  <rect class="cls-3" x="8" y="12" width="8" height="1"/>
  <rect class="cls-3" x="8" y="14" width="6" height="1"/>
  <path class="cls-3" d="M23.5,12c-2.5,0-4.5,2-4.5,4.5s2,4.5,4.5,4.5,4.5-2,4.5-4.5-2-4.5-4.5-4.5ZM23.5,20c-1.9,0-3.5-1.6-3.5-3.5s1.6-3.5,3.5-3.5,3.5,1.6,3.5,3.5-1.6,3.5-3.5,3.5Z"/>
  <rect class="cls-3" x="5.5" y="23.5" width="6" height="1" transform="translate(-15.5 32.5) rotate(-90)"/>
  <rect class="cls-3" x="8" y="24" width="5" height="1" transform="translate(-14 35) rotate(-90)"/>
  <rect class="cls-3" x="9.5" y="23.5" width="6" height="1" transform="translate(-11.5 36.5) rotate(-90)"/>
  <rect class="cls-3" x="13" y="25" width="3" height="1" transform="translate(-11 40) rotate(-90)"/>
  <rect class="cls-3" x="13.5" y="23.5" width="6" height="1" transform="translate(-7.5 40.5) rotate(-90)"/>
  <rect class="cls-4" x="6" y="34" width="2" height="7"/>
  <rect class="cls-4" x="40" y="34" width="2" height="7"/>
  <rect class="cls-4" x="30" y="34" width="8" height="2"/>
  <rect class="cls-1" x="32" y="30" width="4" height="2"/>
  <rect class="cls-3" x="21" y="14" width="5" height="1" rx=".5" ry=".5" transform="translate(9 38) rotate(-90)"/>
  <rect class="cls-3" x="22.5" y="17.5" width="4" height="1" rx=".5" ry=".5" transform="translate(25.7 48.4) rotate(-128.5)"/>
  <rect class="cls-3" x="20.5" y="17.6" width="4.3" height="1" rx=".5" ry=".5" transform="translate(-3.4 30.7) rotate(-64.4)"/>
  <rect class="cls-3" x="19.2" y="15.9" width="4.5" height="1" rx=".5" ry=".5" transform="translate(2.8 -3.1) rotate(8.9)"/>
  <rect class="cls-3" x="21.9" y="24.8" width="7.6" height="1" transform="translate(-9.2 16.2) rotate(-30)"/>
  <rect class="cls-3" x="27.8" y="24.8" width="6.7" height="1" transform="translate(20.7 -13.4) rotate(35.7)"/>
  <rect class="cls-3" x="33" y="25.2" width="6.7" height="1" transform="translate(80.4 31.8) rotate(152.6)"/>
  <rect class="cls-3" x="31" y="15" width="8" height="1"/>
  <rect class="cls-3" x="31" y="18" width="6" height="1"/>
</svg>