<?xml version="1.0" encoding="UTF-8"?>
<svg id="Layer_1" data-name="Layer 1" xmlns="http://www.w3.org/2000/svg" version="1.1" viewBox="0 0 32 32">
  <defs>
    <style>
      .cls-1 {
        fill: #fff;
      }

      .cls-1, .cls-2 {
        stroke-width: 0px;
      }

      .cls-2 {
        fill: #4a4a4a;
      }
    </style>
  </defs>
  <rect class="cls-2" x="2" y="4" width="28" height="19"/>
  <rect class="cls-2" x="4" y="23" width="2" height="7"/>
  <rect class="cls-2" x="26" y="23" width="2" height="7"/>
  <rect class="cls-2" x="20" y="23" width="4" height="2"/>
  <g>
    <rect class="cls-1" x="6" y="8" width="8" height="1"/>
    <rect class="cls-1" x="6" y="10" width="6" height="1"/>
    <path class="cls-1" d="M21.5,8c-2.5,0-4.5,2-4.5,4.5s2,4.5,4.5,4.5,4.5-2,4.5-4.5-2-4.5-4.5-4.5ZM21,9.1v3.1l-2.9-.5c.3-1.4,1.5-2.5,2.9-2.7ZM18,12.7l2.6.4-1.1,2.2s0,0,0,0c-.8-.6-1.4-1.5-1.5-2.6ZM20.4,15.8s0,0,0,0l1.1-2.3,1.6,2s0,0,.1,0c-.5.3-1,.4-1.6.4s-.8,0-1.1-.2ZM23.9,15c0,0,0-.1,0-.2l-1.8-2.3s0,0,0,0v-3.4c1.7.2,3,1.7,3,3.4s-.4,1.9-1.1,2.5Z"/>
    <rect class="cls-1" x="6" y="14" width="1" height="6"/>
    <rect class="cls-1" x="8" y="15" width="1" height="5"/>
    <rect class="cls-1" x="10" y="14" width="1" height="6"/>
    <rect class="cls-1" x="12" y="17" width="1" height="3"/>
    <rect class="cls-1" x="14" y="14" width="1" height="6"/>
    <rect class="cls-1" x="20" y="19" width="4" height="2"/>
  </g>
</svg>