<?xml version="1.0" encoding="utf-8"?>
<!-- Generator: Adobe Illustrator 25.2.1, SVG Export Plug-In . SVG Version: 6.00 Build 0)  -->
<svg version="1.1" id="Layer_1" xmlns="http://www.w3.org/2000/svg" xmlns:xlink="http://www.w3.org/1999/xlink" x="0px" y="0px"
	 viewBox="0 0 32 32" style="enable-background:new 0 0 32 32;" xml:space="preserve">
<style type="text/css">
	.st0{fill:#4A4A4A;}
</style>
<g>
	<g>
		<path class="st0" d="M6,15L6,15c0.6,0.5,1.5,0.5,2,0l8-8l8,8c0.6,0.5,1.5,0.5,2,0l0,0c0.5-0.6,0.5-1.5,0-2L16,3L6,13
			C5.4,13.6,5.4,14.4,6,15z"/>
	</g>
</g>
<g>
	<g>
		<path class="st0" d="M6,27L6,27c0.6,0.5,1.5,0.5,2,0l8-8l8,8c0.6,0.5,1.5,0.5,2,0l0,0c0.5-0.6,0.5-1.5,0-2L16,15L6,25
			C5.4,25.6,5.4,26.4,6,27z"/>
	</g>
</g>
</svg>
