<?xml version="1.0" encoding="utf-8"?>
<!-- Generator: Adobe Illustrator 25.2.1, SVG Export Plug-In . SVG Version: 6.00 Build 0)  -->
<svg version="1.1" id="Layer_1" xmlns="http://www.w3.org/2000/svg" xmlns:xlink="http://www.w3.org/1999/xlink" x="0px" y="0px"
	 viewBox="0 0 32 32" style="enable-background:new 0 0 32 32;" xml:space="preserve">
<style type="text/css">
	.st0{fill:#4A4A4A;}
</style>
<g>
	<g>
		<path class="st0" d="M17,6L17,6c-0.5,0.6-0.5,1.5,0,2l8,8l-8,8c-0.5,0.6-0.5,1.5,0,2l0,0c0.6,0.5,1.5,0.5,2,0l10-10L19,6
			C18.4,5.4,17.6,5.4,17,6z"/>
	</g>
</g>
<g>
	<g>
		<path class="st0" d="M5,6L5,6C4.5,6.6,4.5,7.5,5,8l8,8l-8,8c-0.5,0.6-0.5,1.5,0,2l0,0c0.6,0.5,1.5,0.5,2,0l10-10L7,6
			C6.4,5.4,5.6,5.4,5,6z"/>
	</g>
</g>
</svg>
