<?xml version="1.0" encoding="utf-8"?>
<!-- Generator: Adobe Illustrator 25.2.1, SVG Export Plug-In . SVG Version: 6.00 Build 0)  -->
<svg version="1.1" id="Layer_1" xmlns="http://www.w3.org/2000/svg" xmlns:xlink="http://www.w3.org/1999/xlink" x="0px" y="0px"
	 viewBox="0 0 32 32" style="enable-background:new 0 0 32 32;" xml:space="preserve">
<style type="text/css">
	.st0{fill:#4A4A4A;}
</style>
<g>
	<g>
		<path class="st0" d="M6,19l10,10l10-10c0.5-0.5,0.5-1.4,0-2l0,0c-0.5-0.5-1.4-0.5-2,0l-8,8l-8-8c-0.5-0.5-1.4-0.5-1.9,0H6
			C5.4,17.6,5.4,18.4,6,19z"/>
	</g>
</g>
<g>
	<g>
		<path class="st0" d="M6,7l10,10L26,7c0.5-0.5,0.5-1.4,0-2l0,0c-0.5-0.5-1.4-0.5-2,0l-8,8L8,5C7.5,4.5,6.6,4.5,6.1,5H6
			C5.4,5.6,5.4,6.4,6,7z"/>
	</g>
</g>
</svg>
