<?xml version="1.0" encoding="UTF-8"?>
<!-- Generator: Adobe Illustrator 19.2.1, SVG Export Plug-In . SVG Version: 6.00 Build 0)  -->
<svg xmlns="http://www.w3.org/2000/svg" xmlns:xlink="http://www.w3.org/1999/xlink" version="1.1" x="0px" y="0px" viewBox="0 0 48 48" style="enable-background:new 0 0 48 48;" xml:space="preserve">
<style type="text/css">
	.st0{display:none;}
	.st1{display:inline;}
	.st2{fill:#4A4A4A;}
	.st3{display:inline;fill:#4A4A4A;}
	.st4{display:inline;fill:#4A4A4A;stroke:#F3F3F3;stroke-miterlimit:10;}
</style>
<g id="Layer_1">
	
	
	<g id="Layer_3_1_">
		<rect x="20" y="2" class="st2" width="6" height="8"/>
		<path class="st2" d="M39.8,4H28v4h7.9C37,8,38,9.8,38,11v29c0,1.1-1,2-2.2,2H10.1C8.9,42,8,41.1,8,39.9V10.1C8,8.9,8.9,8,10.1,8    H18V4H6.1C4.9,4,4,4.9,4,6.1V44c0,1.1,0.9,2,2.1,2h33.8c1.1,0,2.1-0.9,2.1-2.1V6.1C41.9,4.9,41,4,39.8,4z"/>
	</g>
</g>

</svg>
