<?xml version="1.0" encoding="utf-8"?>
<!-- Generator: Adobe Illustrator 19.2.1, SVG Export Plug-In . SVG Version: 6.00 Build 0)  -->
<svg version="1.1" id="Layer_1" xmlns="http://www.w3.org/2000/svg" xmlns:xlink="http://www.w3.org/1999/xlink" x="0px" y="0px"
	 viewBox="0 0 48 48" style="enable-background:new 0 0 48 48;" xml:space="preserve">
<style type="text/css">
	.st0{fill:none;stroke:#F1F1F1;stroke-width:4;stroke-miterlimit:10;}
	.st1{fill:#6D6E70;stroke:#4A4A4A;stroke-miterlimit:10;}
	.st2{fill:#F1F1F1;}
</style>
<g id="Layer_1_1_">
</g>
<circle class="st0" cx="24" cy="24" r="18"/>
<circle class="st1" cx="4" cy="13" r="0"/>
<g id="Layer_3">
</g>
<path class="st2" d="M24,25L24,25c-1.1,0-2-0.9-2-2v-9c0-1.1,0.9-2,2-2h0c1.1,0,2,0.9,2,2v9C26,24.1,25.1,25,24,25z"/>
<path class="st2" d="M22.9,22.9L22.9,22.9c0.8-0.8,2-0.8,2.8,0l5.7,5.7c0.8,0.8,0.8,2,0,2.8l0,0c-0.8,0.8-2,0.8-2.8,0l-5.7-5.7
	C22.1,25,22.1,23.7,22.9,22.9z"/>
</svg>
