<?xml version="1.0" encoding="utf-8"?>
<!-- Generator: Adobe Illustrator 19.2.1, SVG Export Plug-In . SVG Version: 6.00 Build 0)  -->
<svg version="1.1" xmlns="http://www.w3.org/2000/svg" xmlns:xlink="http://www.w3.org/1999/xlink" x="0px" y="0px"
	 viewBox="0 0 32 32" style="enable-background:new 0 0 32 32;" xml:space="preserve">
<style type="text/css">
	.st0{fill:url(#SVGID_1_);}
	.st1{fill:none;stroke:#4A4A4A;stroke-width:3;stroke-miterlimit:10;}
	.st2{fill:#6D6E70;stroke:#4A4A4A;stroke-miterlimit:10;}
	.st3{fill:#0592E1;}
</style>
<g id="Background">
	<linearGradient id="SVGID_1_" gradientUnits="userSpaceOnUse" x1="17.12" y1="28" x2="17.12" y2="4.24">
		<stop  offset="0" style="stop-color:#FFFFFF"/>
		<stop  offset="1" style="stop-color:#D1D1D1"/>
	</linearGradient>
	<circle class="st0" cx="17.1" cy="16.1" r="11.9"/>
</g>
<g id="Layer_1">
	<circle class="st1" cx="17" cy="16" r="11.9"/>
	<circle class="st2" cx="2.5" cy="8.7" r="0"/>
	<path class="st3" d="M17,16.6L17,16.6c-0.6,0-1-0.4-1-1V9c0-0.6,0.4-1,1-1h0c0.6,0,1,0.4,1,1v6.6C18,16.1,17.6,16.6,17,16.6z"/>
	<path class="st3" d="M16.3,15.8L16.3,15.8c0.4-0.4,1-0.4,1.4,0l4.1,4.1c0.4,0.4,0.4,1,0,1.4l0,0c-0.4,0.4-1,0.4-1.4,0l-4.1-4.1
		C15.9,16.8,15.9,16.1,16.3,15.8z"/>
</g>
</svg>
