<?xml version="1.0" encoding="utf-8"?>
<!-- Generator: Adobe Illustrator 27.2.0, SVG Export Plug-In . SVG Version: 6.00 Build 0)  -->
<svg version="1.1" id="Layer_1" xmlns="http://www.w3.org/2000/svg" xmlns:xlink="http://www.w3.org/1999/xlink" x="0px" y="0px"
	 viewBox="0 0 48 48" style="enable-background:new 0 0 48 48;" xml:space="preserve">
<style type="text/css">
	.st0{fill:#4A4A4A;}
</style>
<path class="st0" d="M37.8,14.5c-0.3,0-0.2-1.5-0.7-1.5c-1.1-3.8-4.9-6-9-6c-0.5,0-1.4-0.2-2,0c-2.4-2-4-2-7-2
	C13,5,8.3,7.4,6.3,15.9c-2.5,1.8-4.2,4.4-4.2,7.1c0,4.7,2.1,9,7,9H16h16h5c7.3,0,9-4.4,9-9C46.1,15.9,42.7,14.5,37.8,14.5z M37,28
	h-5H16h-5.9c-3.5,0-4-2.3-4-5c0-1.9,1-3.9,3-5h1v-1c1.4-4.9,2.3-8.5,9-8c2.4,0.2,4.1,0.4,6,2.2l1.2-0.2l1-0.1c2.5,0,7.1,2.6,7.4,5.6
	v1.3c0,0,2.5-0.1,3.5,0.1c2.9,0.6,3.9,1.7,3.8,5.1C41.9,26,40.3,28,37,28z"/>
</svg>
