<?xml version="1.0" encoding="utf-8"?>
<!-- Generator: Adobe Illustrator 27.2.0, SVG Export Plug-In . SVG Version: 6.00 Build 0)  -->
<svg version="1.1" id="Layer_1" xmlns="http://www.w3.org/2000/svg" xmlns:xlink="http://www.w3.org/1999/xlink" x="0px" y="0px"
	 viewBox="0 0 32 32" style="enable-background:new 0 0 32 32;" xml:space="preserve">
<style type="text/css">
	.st0{fill:#4A4A4A;}
</style>
<path class="st0" d="M24.7,9.1c-0.2,0-0.4,0-0.7,0C23.3,6.7,21,5,18.4,5c-0.3,0-0.7,0-1.1,0.1c-1.5-1.3-3-1.8-4.9-1.8
	c-3.9,0-7,2.8-7.7,6.7C3.1,11.1,2,12.9,2,14.6c0,3,2.5,5.4,5.6,5.4H11h1h6h1h5.8c3.2,0,5.8-2.5,5.8-5.4C30.5,11.6,27.8,9.1,24.7,9.1
	z M24.8,18H19h-1h-6h-1H7.6C5.4,18,4,16.2,4,14.5c0-1.2,0.9-2.4,2.2-3.1l0.5-0.2l0.1-0.5c0.3-3.2,2.8-5.5,5.8-5.5
	c1.5,0,2.7,0.5,3.9,1.6l0.4,0.4l0.5-0.1C17.7,7,18.2,7,18.6,7c2,0,3.6,1.5,3.8,3.4l0.1,1.1l1.1-0.3c0.4-0.1,0.8-0.2,1.2-0.2
	c2.1,0,3.9,1.6,3.9,3.5S26.9,18,24.8,18z"/>
</svg>
