<?xml version="1.0" encoding="utf-8"?>
<!-- Generator: Adobe Illustrator 21.0.0, SVG Export Plug-In . SVG Version: 6.00 Build 0)  -->
<svg version="1.1" id="Layer_1" xmlns="http://www.w3.org/2000/svg" xmlns:xlink="http://www.w3.org/1999/xlink" x="0px" y="0px"
	 viewBox="0 0 32 32" style="enable-background:new 0 0 32 32;" xml:space="preserve">
<style type="text/css">
	.st0{fill:#9E9E9E;}
	.st1{fill:#4A4A4A;}
</style>
<g>
	<g>
		<path class="st0" d="M26,14.4l2.5-1.9l-1.2-3l-3.7,0.8l-2.1-2.1l1.1-3.6l-3.4-1l-2.2,2.6h-2.5l-2.2-2.6l-3.1,1l0.8,3.6L8.4,9.3
			H4.3l-1.1,2.9L6,13.5l-0.1,4.1l-2.9,2.2L4,23l4.1-0.7l1.6,1.9l-0.4,3.4l2.5,1.4l2.1-2.6l3.3,0.1l1.5,2.9l3.8-1.4l-1.2-3l2.6-2.7
			l3.4,0.4l0.8-3l-2.9-2.2L26,14.4z M15.7,20.4c-2.5,0-4.4-1.9-4.4-4.4s1.9-4.4,4.4-4.4s4.4,1.9,4.4,4.4S18,20.4,15.7,20.4z"/>
	</g>
</g>
<g id="Layer_5">
	<g>
		<path id="cog-inside" class="st1" d="M18.2,10.6c-0.7-0.3-1.4-0.4-2.2-0.4c-2.3,0-4.4,1.4-5.3,3.6c-0.6,1.4-0.6,3,0,4.4
			s1.7,2.5,3.1,3.1c0.7,0.3,1.4,0.4,2.2,0.4c2.3,0,4.4-1.4,5.3-3.6c0.6-1.4,0.6-3,0-4.4C20.7,12.3,19.6,11.2,18.2,10.6z M19.1,17.2
			c-0.5,1.2-1.7,2-3.1,2c-0.4,0-0.8-0.1-1.2-0.2c-0.8-0.3-1.4-1-1.8-1.8c-0.3-0.8-0.3-1.7,0-2.5c0.5-1.2,1.7-2,3.1-2
			c0.4,0,0.8,0.1,1.2,0.2c0.8,0.3,1.4,1,1.8,1.8C19.4,15.5,19.4,16.4,19.1,17.2z"/>
	</g>
	<g>
		<path id="cog-outside" class="st1" d="M29.9,18.3l-2.5-1.4c0-0.6,0-1.2,0-1.8l2.5-1.5c0.5-0.3,0.7-0.8,0.6-1.4
			c-0.4-1.3-0.9-2.6-1.6-3.8c-0.3-0.5-0.8-0.7-1.4-0.6l-2.8,0.8c-0.4-0.5-0.8-0.9-1.3-1.3l0.7-2.8C24.2,4,24,3.4,23.5,3.1
			c-0.6-0.3-1.2-0.7-1.8-0.9c-0.6-0.3-1.3-0.5-1.9-0.6c-0.5-0.1-1.1,0.1-1.4,0.6L17,4.7c-0.6,0-1.2,0-1.8,0l-1.5-2.5
			c-0.3-0.5-0.8-0.7-1.4-0.6C11.6,1.8,11,2,10.4,2.2l-0.3,0.1C9.5,2.6,9,2.8,8.4,3.2C7.9,3.5,7.7,4,7.8,4.6l0.8,2.8
			C8.1,7.8,7.7,8.2,7.3,8.7L4.5,8C4,7.9,3.4,8.1,3.1,8.6s-0.6,1.1-0.8,1.7l-0.2,0.4c-0.2,0.6-0.4,1.2-0.6,1.7
			c-0.1,0.5,0.1,1.1,0.6,1.4l2.5,1.4c0,0.6,0,1.2,0,1.8l-2.5,1.5c-0.5,0.3-0.7,0.8-0.6,1.4c0.2,0.6,0.4,1.2,0.6,1.8L2.2,22
			c0.3,0.6,0.5,1.1,0.9,1.7c0.3,0.5,0.8,0.7,1.4,0.6l2.8-0.8c0.4,0.5,0.8,0.9,1.3,1.3l-0.7,2.8C7.8,28.1,8,28.7,8.5,29
			c0.6,0.3,1.2,0.7,1.8,0.9c0.6,0.3,1.3,0.5,1.9,0.6c0.1,0,0.2,0,0.3,0c0.4,0,0.8-0.2,1.1-0.6l1.4-2.5c0.6,0,1.2,0,1.8,0l1.5,2.5
			c0.3,0.5,0.8,0.7,1.4,0.6c1.3-0.4,2.6-0.9,3.8-1.6c0.5-0.3,0.7-0.8,0.6-1.4l-0.7-2.9c0.5-0.4,0.9-0.8,1.3-1.3l2.7,0.8
			c0.5,0.1,1.1-0.1,1.4-0.6c0.3-0.6,0.7-1.2,0.9-1.8c0.3-0.6,0.5-1.3,0.6-1.9C30.6,19.2,30.4,18.6,29.9,18.3z M27.5,20.7
			c-0.1,0.2-0.2,0.5-0.3,0.7l-2.6-0.7c-0.5-0.1-1,0.1-1.3,0.5c-0.5,0.7-1.2,1.4-1.9,1.9c-0.4,0.3-0.6,0.8-0.5,1.3l0.7,2.6
			c-0.5,0.2-1,0.4-1.4,0.6l-1.4-2.4c-0.3-0.4-0.8-0.7-1.3-0.6c-0.9,0.1-1.8,0.1-2.7,0c-0.5-0.1-1,0.2-1.3,0.6L12,27.6
			c-0.3-0.1-0.5-0.2-0.7-0.3c-0.2-0.1-0.5-0.2-0.7-0.3l0.7-2.6c0.1-0.5-0.1-1-0.5-1.3c-0.7-0.5-1.4-1.2-1.9-1.9
			c-0.3-0.4-0.8-0.6-1.3-0.5L5,21.4c-0.1-0.2-0.2-0.4-0.3-0.6l-0.1-0.3c-0.1,0-0.2-0.2-0.2-0.4l2.4-1.4c0.4-0.3,0.7-0.8,0.6-1.3
			c-0.1-0.9-0.2-1.8,0-2.7c0.1-0.5-0.2-1-0.6-1.3l-2.5-1.3c0.1-0.2,0.1-0.4,0.2-0.6l0.1-0.3c0.1-0.2,0.2-0.4,0.2-0.5l2.6,0.7
			c0.5,0.1,1-0.1,1.3-0.5c0.5-0.7,1.2-1.4,1.9-1.9c0.4-0.3,0.6-0.8,0.5-1.3l-0.7-2.6C10.6,5,10.8,4.9,11,4.8l0.3-0.1
			c0.2-0.1,0.4-0.2,0.6-0.2l1.4,2.4c0.3,0.4,0.8,0.7,1.3,0.6c0.9-0.1,1.8-0.1,2.7,0c0.5,0.1,1-0.2,1.3-0.6L20,4.5
			c0.2,0.1,0.5,0.2,0.7,0.3C21,4.9,21.3,5,21.5,5.1l-0.7,2.6c-0.1,0.5,0.1,1,0.5,1.3c0.7,0.5,1.4,1.2,1.9,1.9
			c0.3,0.4,0.8,0.6,1.3,0.5l2.6-0.7c0.2,0.5,0.4,1,0.6,1.4l-2.4,1.4c-0.4,0.3-0.7,0.8-0.6,1.3c0.1,0.9,0.2,1.8,0,2.7
			c-0.1,0.5,0.2,1,0.6,1.3l2.4,1.4C27.7,20.2,27.6,20.5,27.5,20.7z"/>
	</g>
</g>
</svg>
