<?xml version="1.0" encoding="utf-8"?>
<!-- Generator: Adobe Illustrator 19.2.1, SVG Export Plug-In . SVG Version: 6.00 Build 0)  -->
<svg version="1.1" xmlns="http://www.w3.org/2000/svg" xmlns:xlink="http://www.w3.org/1999/xlink" x="0px" y="0px"
	 viewBox="0 0 32 32" style="enable-background:new 0 0 32 32;" xml:space="preserve">
<defs>
	<path id="cog-outside" d="M27.5,17.9l-2.1-1.2c0-0.5,0-1,0-1.5l2.1-1.2c0.4-0.2,0.6-0.7,0.5-1.2
		c-0.3-1.1-0.7-2.2-1.3-3.2c-0.2-0.4-0.7-0.6-1.2-0.5l-2.3,0.7c-0.3-0.4-0.7-0.7-1.1-1.1l0.6-2.3c0.1-0.4-0.1-0.9-0.5-1.2
		c-0.5-0.2-1-0.6-1.5-0.7c-0.5-0.2-1.1-0.4-1.6-0.5C18.7,4,18.2,4.2,18,4.6l-1.2,2.1c-0.5,0-1,0-1.5,0l-1.2-2.1
		c-0.2-0.4-0.7-0.6-1.2-0.5c-0.6,0.2-1.1,0.3-1.6,0.5l-0.2,0.1c-0.5,0.2-0.9,0.4-1.4,0.7C9.3,5.6,9.1,6.1,9.2,6.6l0.7,2.3
		C9.5,9.2,9.1,9.5,8.8,10L6.5,9.4C6.1,9.3,5.6,9.5,5.3,9.9c-0.2,0.4-0.5,0.9-0.7,1.4l-0.2,0.3c-0.2,0.5-0.3,1-0.5,1.4
		c-0.1,0.4,0.1,0.9,0.5,1.2l2.1,1.2c0,0.5,0,1,0,1.5l-2.1,1.2c-0.4,0.2-0.6,0.7-0.5,1.2c0.2,0.5,0.3,1,0.5,1.5L4.6,21
		c0.2,0.5,0.4,0.9,0.7,1.4C5.6,22.8,6,23,6.5,22.9l2.3-0.7c0.3,0.4,0.7,0.7,1.1,1.1l-0.6,2.3c-0.1,0.4,0.1,0.9,0.5,1.2
		c0.5,0.2,1,0.6,1.5,0.7c0.5,0.2,1.1,0.4,1.6,0.5c0.1,0,0.2,0,0.2,0c0.3,0,0.7-0.2,0.9-0.5l1.2-2.1c0.5,0,1,0,1.5,0l1.2,2.1
		c0.2,0.4,0.7,0.6,1.2,0.5c1.1-0.3,2.1-0.7,3.1-1.3c0.4-0.2,0.6-0.7,0.5-1.2l-0.6-2.4c0.4-0.3,0.7-0.7,1.1-1.1l2.2,0.7
		c0.4,0.1,0.9-0.1,1.2-0.5c0.2-0.5,0.6-1,0.7-1.5c0.2-0.5,0.4-1.1,0.5-1.6C28.1,18.7,27.9,18.2,27.5,17.9z M25.5,19.9
		c-0.1,0.2-0.2,0.4-0.2,0.6l-2.1-0.6c-0.4-0.1-0.8,0.1-1.1,0.4c-0.4,0.6-1,1.2-1.6,1.6C20.1,22.1,20,22.6,20,23l0.6,2.2
		c-0.4,0.2-0.8,0.3-1.2,0.5l-1.2-2c-0.2-0.3-0.7-0.6-1.1-0.5c-0.7,0.1-1.5,0.1-2.2,0c-0.4-0.1-0.8,0.2-1.1,0.5l-1.2,2
		c-0.2-0.1-0.4-0.2-0.6-0.2c-0.2-0.1-0.4-0.2-0.6-0.2l0.6-2.2c0.1-0.4-0.1-0.8-0.4-1.1c-0.6-0.4-1.2-1-1.6-1.6
		c-0.2-0.3-0.7-0.5-1.1-0.4l-2.1,0.6c-0.1-0.2-0.2-0.3-0.2-0.5l-0.1-0.2c-0.1,0-0.2-0.2-0.2-0.3l2-1.2C8.7,18,9,17.6,8.9,17.2
		c-0.1-0.7-0.2-1.5,0-2.2c0.1-0.4-0.2-0.8-0.5-1.1l-2.1-1.1c0.1-0.2,0.1-0.3,0.2-0.5L6.6,12c0.1-0.2,0.2-0.3,0.2-0.4l2.1,0.6
		c0.4,0.1,0.8-0.1,1.1-0.4c0.4-0.6,1-1.2,1.6-1.6C11.9,10,12,9.5,12,9.1L11.4,7c0.2-0.1,0.3-0.2,0.5-0.2l0.2-0.1
		c0.2-0.1,0.3-0.2,0.5-0.2l1.2,2C14,8.8,14.4,9,14.8,9c0.7-0.1,1.5-0.1,2.2,0c0.4,0.1,0.8-0.2,1.1-0.5l1.2-2
		c0.2,0.1,0.4,0.2,0.6,0.2c0.2,0.1,0.5,0.2,0.7,0.2L20,9.1c-0.1,0.4,0.1,0.8,0.4,1.1c0.6,0.4,1.2,1,1.6,1.6
		c0.2,0.3,0.7,0.5,1.1,0.4l2.1-0.6c0.2,0.4,0.3,0.8,0.5,1.2l-2,1.2c-0.3,0.2-0.6,0.7-0.5,1.1c0.1,0.7,0.2,1.5,0,2.2
		c-0.1,0.4,0.2,0.8,0.5,1.1l2,1.2C25.7,19.5,25.6,19.7,25.5,19.9z"/>
	<path id="cog-outside_1_" d="M25.6,17.6l-1.7-1c0-0.4,0-0.8,0-1.3l1.7-1c0.3-0.2,0.5-0.6,0.4-1
		c-0.3-0.9-0.6-1.8-1.1-2.6c-0.2-0.3-0.6-0.5-1-0.4L22,10.9c-0.3-0.3-0.6-0.6-0.9-0.9L21.6,8c0.1-0.3-0.1-0.8-0.4-1
		c-0.4-0.2-0.8-0.5-1.2-0.6c-0.4-0.2-0.9-0.3-1.3-0.4c-0.3-0.1-0.8,0.1-1,0.4l-1,1.7c-0.4,0-0.8,0-1.2,0l-1-1.7
		c-0.2-0.3-0.6-0.5-1-0.4c-0.5,0.1-0.9,0.3-1.3,0.4l-0.2,0.1c-0.4,0.2-0.8,0.3-1.2,0.6c-0.3,0.2-0.5,0.6-0.4,1l0.6,1.9
		c-0.3,0.3-0.6,0.6-0.9,0.9L8,10.4c-0.3-0.1-0.8,0.1-1,0.4S6.6,11.6,6.5,12l-0.1,0.3c-0.1,0.4-0.3,0.8-0.4,1.2
		c-0.1,0.3,0.1,0.8,0.4,1l1.7,1c0,0.4,0,0.8,0,1.3l-1.7,1c-0.3,0.2-0.5,0.6-0.4,1c0.1,0.4,0.3,0.8,0.4,1.3l0.1,0.2
		C6.6,20.6,6.8,21,7,21.4c0.2,0.3,0.6,0.5,1,0.4l1.9-0.6c0.3,0.3,0.6,0.6,0.9,0.9l-0.5,1.9c-0.1,0.3,0.1,0.8,0.4,1
		c0.4,0.2,0.8,0.5,1.2,0.6c0.4,0.2,0.9,0.3,1.3,0.4c0.1,0,0.1,0,0.2,0c0.3,0,0.6-0.1,0.8-0.4l1-1.7c0.4,0,0.8,0,1.2,0l1,1.7
		c0.2,0.3,0.6,0.5,1,0.4c0.9-0.3,1.8-0.6,2.6-1.1c0.3-0.2,0.5-0.6,0.4-1l-0.5-2c0.3-0.3,0.6-0.6,0.9-0.9l1.9,0.6
		c0.3,0.1,0.8-0.1,1-0.4c0.2-0.4,0.5-0.8,0.6-1.3c0.2-0.4,0.3-0.9,0.4-1.3C26.1,18.2,26,17.8,25.6,17.6z M24,19.3
		c-0.1,0.1-0.1,0.3-0.2,0.5L22,19.3c-0.3-0.1-0.7,0.1-0.9,0.3c-0.3,0.5-0.8,1-1.3,1.3c-0.3,0.2-0.4,0.6-0.3,0.9l0.5,1.8
		c-0.3,0.1-0.7,0.3-1,0.4l-1-1.7c-0.2-0.3-0.6-0.5-0.9-0.4c-0.6,0.1-1.2,0.1-1.9,0c-0.3-0.1-0.7,0.1-0.9,0.4l-1,1.7
		C13,24,12.9,24,12.7,23.9s-0.3-0.1-0.5-0.2l0.5-1.8c0.1-0.3-0.1-0.7-0.3-0.9c-0.5-0.3-1-0.8-1.3-1.3c-0.2-0.3-0.6-0.4-0.9-0.3
		l-1.8,0.5c-0.1-0.1-0.1-0.3-0.2-0.4l-0.1-0.2c-0.1,0-0.1-0.1-0.1-0.3l1.7-1c0.3-0.2,0.5-0.6,0.4-0.9c-0.1-0.6-0.1-1.3,0-1.9
		c0.1-0.3-0.1-0.7-0.4-0.9l-1.7-0.9C7.9,13.2,7.9,13,8,12.9l0.1-0.2c0.1-0.1,0.1-0.3,0.1-0.3l1.8,0.5c0.3,0.1,0.7-0.1,0.9-0.3
		c0.3-0.5,0.8-1,1.3-1.3c0.3-0.2,0.4-0.6,0.3-0.9l-0.5-1.8c0.1-0.1,0.3-0.1,0.4-0.2l0.2-0.1C12.9,8.1,13,8,13.2,8l1,1.7
		c0.2,0.3,0.6,0.5,0.9,0.4c0.6-0.1,1.2-0.1,1.9,0c0.3,0.1,0.7-0.1,0.9-0.4l1-1.7c0.1,0.1,0.3,0.1,0.5,0.2c0.2,0.1,0.4,0.1,0.6,0.2
		l-0.5,1.8c-0.1,0.3,0.1,0.7,0.3,0.9c0.5,0.3,1,0.8,1.3,1.3c0.2,0.3,0.6,0.4,0.9,0.3l1.8-0.5c0.1,0.3,0.3,0.7,0.4,1l-1.7,1
		c-0.3,0.2-0.5,0.6-0.4,0.9c0.1,0.6,0.1,1.3,0,1.9c-0.1,0.3,0.1,0.7,0.4,0.9l1.7,1C24.1,18.9,24.1,19.1,24,19.3z"/>
	<path id="cog-inside" d="M19.7,7.1c-1.2-0.5-2.3-0.7-3.7-0.7c-3.8,0-7.3,2.3-8.8,6c-1,2.3-1,5,0,7.3
		s2.8,4.2,5.2,5.2c1.2,0.5,2.3,0.7,3.7,0.7c3.8,0,7.3-2.3,8.8-6c1-2.3,1-5,0-7.3C23.8,9.9,22,8.1,19.7,7.1z M21.2,18.1
		c-0.8,2-2.8,3.3-5.2,3.3c-0.7,0-1.3-0.2-2-0.3c-1.3-0.5-2.3-1.7-3-3c-0.5-1.3-0.5-2.8,0-4.2c0.8-2,2.8-3.3,5.2-3.3
		c0.7,0,1.3,0.2,2,0.3c1.3,0.5,2.3,1.7,3,3C21.7,15.3,21.7,16.8,21.2,18.1z"/>
</defs>
<g>
	<use xlink:href="#cog-outside" fill="#4a4a4a" stroke="#4a4a4a" stroke-width="0"/>
	<use xlink:href="#cog-outside_1_" fill="#4a4a4a" stroke="#4a4a4a" stroke-width="0"/>
	<use xlink:href="#cog-inside" fill="#4a4a4a" stroke="#4a4a4a" stroke-width="0"/>
</g>
</svg>
