<?xml version="1.0" encoding="utf-8"?>
<!-- Generator: Adobe Illustrator 21.0.0, SVG Export Plug-In . SVG Version: 6.00 Build 0)  -->
<svg version="1.1" id="Layer_1" xmlns="http://www.w3.org/2000/svg" xmlns:xlink="http://www.w3.org/1999/xlink" x="0px" y="0px"
	 viewBox="0 0 32 32" style="enable-background:new 0 0 32 32;" xml:space="preserve">
<style type="text/css">
	.st0{fill:#9E9E9E;}
	.st1{fill:#4A4A4A;}
</style>
<g>
	<g>
		<g>
			<path class="st0" d="M29.1,6.7l1.3-1l-0.6-1.6l-1.9,0.4l-1-1.1l0.5-1.9l-1.8-0.5l-1.1,1.3h-1.3L22,1.1l-1.6,0.5l0.5,1.9L20,4.1
				l-2.2,0l-0.6,1.5l1.4,0.7l0,2.2l-1.5,1.1l0.6,1.6l2.1-0.4l0.8,1l-0.2,1.8l1.3,0.7l1.1-1.4l1.7,0.1l0.8,1.5l2-0.7l-0.6-1.6
				l1.4-1.4L30,11l0.4-1.6l-1.5-1.2L29.1,6.7z M23.8,9.9c-1.3,0-2.3-1-2.3-2.3c0-1.3,1-2.3,2.3-2.3c1.3,0,2.3,1,2.3,2.3
				C26.1,8.8,25.1,9.9,23.8,9.9z"/>
		</g>
	</g>
	<g>
		<g>
			<path class="st0" d="M18.4,19.7l1.8-1.4l-0.9-2.2l-2.7,0.6l-1.5-1.5l0.8-2.6l-2.5-0.7l-1.6,1.9H10l-1.6-1.9l-2.3,0.7l0.6,2.6
				L5.6,16l-3,0l-0.8,2.1l2,1l-0.1,3l-2.1,1.6L2.4,26l3-0.5l1.2,1.4l-0.3,2.5l1.8,1l1.5-1.9l2.4,0.1l1.1,2.1l2.8-1l-0.9-2.2l1.9-2
				l2.5,0.3l0.6-2.2l-2.1-1.6L18.4,19.7z M10.9,24.1c-1.8,0-3.2-1.4-3.2-3.2s1.4-3.2,3.2-3.2s3.2,1.4,3.2,3.2S12.6,24.1,10.9,24.1z"
				/>
		</g>
	</g>
	<g>
		<path id="cog-inside" class="st1" d="M12.4,17.2c-0.5-0.2-1-0.3-1.6-0.3c-1.7,0-3.2,1-3.9,2.6c-0.4,1-0.4,2.2,0,3.2
			s1.2,1.8,2.3,2.2c0.5,0.2,1,0.3,1.6,0.3c1.7,0,3.2-1,3.9-2.6c0.4-1,0.4-2.2,0-3.2C14.2,18.4,13.4,17.6,12.4,17.2z M13,21.9
			c-0.4,0.9-1.2,1.5-2.2,1.5c-0.3,0-0.6-0.1-0.9-0.2c-0.6-0.2-1.1-0.7-1.3-1.3c-0.2-0.6-0.2-1.2,0-1.8c0.4-0.9,1.2-1.5,2.2-1.5
			c0.3,0,0.6,0.1,0.9,0.2c0.6,0.2,1.1,0.7,1.3,1.3C13.3,20.7,13.3,21.3,13,21.9z"/>
	</g>
	<g>
		<path id="cog-outside" class="st1" d="M20.8,22.7l-1.8-1c0-0.4,0-0.9,0-1.3l1.8-1.1c0.3-0.2,0.5-0.6,0.4-1c-0.3-1-0.6-1.9-1.1-2.7
			c-0.2-0.3-0.6-0.5-1-0.4l-2,0.6c-0.3-0.3-0.6-0.6-0.9-0.9l0.5-2c0.1-0.4-0.1-0.8-0.4-1c-0.4-0.3-0.9-0.5-1.3-0.7
			c-0.4-0.2-0.9-0.3-1.4-0.5c-0.4-0.1-0.8,0.1-1,0.4l-1,1.8c-0.4,0-0.9,0-1.3,0l-1.1-1.8c-0.2-0.3-0.6-0.5-1-0.4
			c-0.4,0.1-0.9,0.3-1.3,0.4l-0.2,0.1c-0.4,0.2-0.8,0.4-1.2,0.6c-0.3,0.2-0.5,0.6-0.4,1l0.6,2c-0.3,0.3-0.6,0.6-0.9,0.9l-2-0.5
			c-0.4-0.1-0.8,0.1-1,0.4c-0.2,0.4-0.4,0.8-0.6,1.2l-0.1,0.3c-0.2,0.4-0.3,0.8-0.4,1.3c-0.1,0.4,0.1,0.8,0.4,1l1.8,1
			c0,0.4,0,0.9,0,1.3l-1.8,1.1c-0.3,0.2-0.5,0.6-0.4,1s0.3,0.9,0.4,1.3L1,25.3c0.2,0.4,0.4,0.8,0.6,1.2c0.2,0.3,0.6,0.5,1,0.4l2-0.6
			c0.3,0.3,0.6,0.6,0.9,0.9l-0.5,2c-0.1,0.4,0.1,0.8,0.4,1c0.4,0.3,0.9,0.5,1.3,0.7c0.4,0.2,0.9,0.3,1.4,0.5c0.1,0,0.1,0,0.2,0
			c0.3,0,0.6-0.2,0.8-0.4l1-1.8c0.4,0,0.9,0,1.3,0l1.1,1.8c0.2,0.3,0.6,0.5,1,0.4c1-0.3,1.9-0.6,2.7-1.1c0.3-0.2,0.5-0.6,0.4-1
			l-0.6-2c0.3-0.3,0.6-0.6,0.9-0.9l2,0.5c0.4,0.1,0.8-0.1,1-0.4c0.3-0.4,0.5-0.9,0.7-1.3s0.3-0.9,0.5-1.4
			C21.3,23.3,21.1,22.9,20.8,22.7z M19.1,24.4c-0.1,0.2-0.1,0.3-0.2,0.5L17,24.4c-0.4-0.1-0.7,0-0.9,0.3c-0.4,0.5-0.9,1-1.4,1.4
			c-0.3,0.2-0.4,0.6-0.3,1l0.5,1.9c-0.3,0.2-0.7,0.3-1,0.4l-1-1.7c-0.2-0.3-0.6-0.5-0.9-0.4c-0.7,0.1-1.3,0.1-2,0
			c-0.4-0.1-0.7,0.1-0.9,0.4l-1,1.7c-0.2-0.1-0.4-0.1-0.5-0.2c-0.2-0.1-0.3-0.1-0.5-0.2l0.5-1.9c0.1-0.4,0-0.7-0.3-1
			c-0.5-0.4-1-0.9-1.4-1.4c-0.2-0.3-0.6-0.4-1-0.3L2.8,25c-0.1-0.1-0.1-0.3-0.2-0.4l-0.1-0.2c-0.1-0.1-0.1-0.3-0.2-0.4L4,23
			c0.3-0.2,0.5-0.5,0.4-0.9c-0.1-0.7-0.1-1.3,0-2c0.1-0.4-0.1-0.7-0.4-0.9l-1.7-1c0-0.1,0.1-0.3,0.1-0.4l0.1-0.3
			c0.1-0.1,0.1-0.3,0.2-0.4l1.9,0.5c0.4,0.1,0.7,0,0.9-0.3c0.4-0.5,0.9-1,1.4-1.4c0.3-0.2,0.4-0.6,0.3-1L6.8,13
			c0.1-0.1,0.3-0.1,0.4-0.2l0.2-0.1c0.1-0.1,0.3-0.1,0.4-0.2l1,1.7c0.2,0.3,0.6,0.5,0.9,0.4c0.7-0.1,1.3-0.1,2,0
			c0.4,0.1,0.7-0.1,0.9-0.4l1-1.7c0.2,0.1,0.4,0.1,0.5,0.2c0.2,0.1,0.3,0.1,0.5,0.2l-0.5,1.9c-0.1,0.4,0,0.7,0.3,0.9
			c0.5,0.4,1,0.9,1.4,1.4c0.2,0.3,0.6,0.4,1,0.3l1.9-0.5c0.2,0.3,0.3,0.7,0.4,1l-1.7,1c-0.3,0.2-0.5,0.5-0.4,0.9
			c0.1,0.7,0.1,1.3,0,2c-0.1,0.4,0.1,0.7,0.4,0.9l1.7,1C19.2,24.1,19.2,24.2,19.1,24.4z"/>
	</g>
	<g>
		<path id="cog-inside_1_" class="st1" d="M25,4.9c-0.4-0.1-0.7-0.2-1.1-0.2c-1.2,0-2.3,0.7-2.7,1.8c-0.3,0.7-0.3,1.5,0,2.3
			c0.3,0.7,0.9,1.3,1.6,1.6c0.4,0.1,0.7,0.2,1.1,0.2c1.2,0,2.3-0.7,2.7-1.8c0.3-0.7,0.3-1.5,0-2.3C26.3,5.8,25.7,5.2,25,4.9z
			 M25.4,8.3c-0.3,0.6-0.9,1-1.6,1c-0.2,0-0.4,0-0.6-0.1c-0.4-0.2-0.7-0.5-0.9-0.9c-0.2-0.4-0.2-0.9,0-1.3c0.3-0.6,0.9-1,1.6-1
			c0.2,0,0.4,0,0.6,0.1c0.4,0.2,0.7,0.5,0.9,0.9C25.6,7.4,25.6,7.9,25.4,8.3z"/>
	</g>
	<g>
		<path id="cog-outside_1_" class="st1" d="M30.9,8.8l-1.3-0.7c0-0.3,0-0.6,0-0.9l1.3-0.7c0.2-0.1,0.4-0.4,0.3-0.7
			c-0.2-0.8-0.5-1.4-0.8-2c-0.1-0.2-0.4-0.4-0.7-0.3l-1.4,0.4c-0.2-0.2-0.4-0.5-0.7-0.6L28,1.9c0.1-0.3,0-0.6-0.3-0.7
			c-0.3-0.2-0.6-0.3-0.9-0.5c-0.3-0.1-0.6-0.2-1-0.3c-0.3-0.1-0.6,0.1-0.7,0.3L24.4,2c-0.3,0-0.6,0-0.9,0l-0.7-1.3
			c-0.1-0.2-0.4-0.4-0.7-0.3c-0.3,0.1-0.6,0.2-0.9,0.3l-0.1,0.1c-0.6,0-0.9,0.2-1.1,0.3s-0.4,0.4-0.3,0.7l0.4,1.4
			c-0.2,0.2-0.5,0.4-0.7,0.7L18,3.5c-0.3-0.1-0.6,0-0.7,0.3c-0.2,0.3-0.3,0.6-0.4,0.8l-0.1,0.2c-0.1,0.3-0.2,0.6-0.3,0.9
			c-0.1,0.3,0.1,0.6,0.3,0.7l1.3,0.7c0,0.3,0,0.6,0,0.9l-1.3,0.7c-0.2,0.1-0.4,0.4-0.3,0.7s0.2,0.6,0.3,0.9l0.1,0.1
			c0.1,0.3,0.3,0.6,0.4,0.9c0.1,0.2,0.4,0.4,0.7,0.3l1.4-0.4c0.2,0.2,0.4,0.5,0.7,0.7l-0.4,1.4c-0.1,0.3,0,0.6,0.3,0.7
			c0.3,0.2,0.6,0.3,0.9,0.5c0.3,0.1,0.7,0.2,1,0.3c0.1,0,0.1,0,0.2,0c0.2,0,0.4-0.1,0.5-0.3l0.7-1.3c0.3,0,0.6,0,0.9,0l0.7,1.3
			c0.1,0.2,0.4,0.4,0.7,0.3c0.7-0.2,1.3-0.5,1.9-0.8c0.2-0.1,0.4-0.4,0.3-0.7L27.6,12c0.2-0.2,0.5-0.4,0.6-0.7l1.4,0.4
			c0.3,0.1,0.6,0,0.7-0.3c0.2-0.3,0.3-0.6,0.5-0.9c0.1-0.3,0.2-0.7,0.3-1C31.3,9.2,31.1,9,30.9,8.8z M29.7,10c0,0.1-0.1,0.2-0.2,0.4
			L28.2,10c-0.3-0.1-0.5,0-0.7,0.2c-0.3,0.4-0.6,0.7-1,1c-0.2,0.2-0.3,0.4-0.2,0.7l0.4,1.4c-0.2,0.1-0.5,0.2-0.7,0.3l-0.7-1.2
			c-0.1-0.2-0.4-0.3-0.6-0.3c-0.5,0.1-0.9,0.1-1.4,0c-0.3,0-0.5,0.1-0.6,0.3L22,13.6c-0.1,0-0.3-0.1-0.4-0.1s-0.2-0.1-0.4-0.2
			l0.4-1.4c0.1-0.3,0-0.5-0.2-0.7c-0.4-0.3-0.7-0.6-1-1C20.2,10,20,9.9,19.7,10l-1.4,0.4c0-0.1-0.1-0.2-0.1-0.3L18,10
			c0-0.1-0.1-0.2-0.1-0.3L19.1,9c0.2-0.1,0.3-0.4,0.3-0.6c-0.1-0.5-0.1-0.9,0-1.4c0-0.3-0.1-0.5-0.3-0.6l-1.2-0.7
			c0-0.1,0.1-0.2,0.1-0.3V5.2c0-0.1,0.1-0.2,0.1-0.3l1.4,0.4c0.3,0.1,0.5,0,0.7-0.2c0.3-0.4,0.6-0.7,1-1c0.2-0.2,0.3-0.4,0.2-0.7
			L21,2c0.1,0,0.2-0.1,0.3-0.1l0.1-0.1c0.1,0,0.2-0.1,0.3-0.1l0.7,1.2c0.1,0.2,0.4,0.3,0.6,0.3c0.5-0.1,0.9-0.1,1.4,0
			c0.3,0,0.5-0.1,0.6-0.3l0.7-1.2c0.1,0,0.3,0.1,0.4,0.1c0.1,0.1,0.2,0.1,0.4,0.2l-0.4,1.4c-0.1,0.3,0,0.5,0.2,0.7
			c0.4,0.3,0.7,0.6,1,1c0.2,0.2,0.4,0.3,0.7,0.2l1.4-0.4c0.1,0.2,0.2,0.5,0.3,0.7l-1.2,0.7c-0.2,0.1-0.3,0.4-0.3,0.6
			c0.1,0.5,0.1,0.9,0,1.4c0,0.3,0.1,0.5,0.3,0.6l1.2,0.7C29.8,9.8,29.7,9.9,29.7,10z"/>
	</g>
</g>
</svg>
