<?xml version="1.0" encoding="utf-8"?>
<!-- Generator: Adobe Illustrator 27.2.0, SVG Export Plug-In . SVG Version: 6.00 Build 0)  -->
<svg version="1.1" id="Layer_1" xmlns="http://www.w3.org/2000/svg" xmlns:xlink="http://www.w3.org/1999/xlink" x="0px" y="0px"
	 viewBox="0 0 32 32" style="enable-background:new 0 0 32 32;" xml:space="preserve">
<style type="text/css">
	.st0{fill:#4A4A4A;}
	.st1{fill:#7C0101;}
	.st2{fill:#037210;}
</style>
<rect x="2" y="14" class="st0" width="12" height="2"/>
<rect x="12" y="6" class="st0" width="2" height="8"/>
<rect x="12" y="16" class="st0" width="2" height="10"/>
<rect x="12" y="6" class="st0" width="8" height="2"/>
<rect x="12" y="24" class="st0" width="8" height="2"/>
<rect x="25" y="20" transform="matrix(0.7071 -0.7071 0.7071 0.7071 -10.0624 25.7071)" class="st1" width="2" height="10"/>
<rect x="21" y="24" transform="matrix(0.7071 -0.7071 0.7071 0.7071 -10.0624 25.7071)" class="st1" width="10" height="2"/>
<path class="st2" d="M26,3c-2.2,0-4,1.8-4,4s1.8,4,4,4s4-1.8,4-4S28.2,3,26,3z M26,9c-1.1,0-2-0.9-2-2s0.9-2,2-2s2,0.9,2,2
	S27.1,9,26,9z"/>
</svg>
