<?xml version="1.0" encoding="utf-8"?>
<!-- Generator: Adobe Illustrator 27.2.0, SVG Export Plug-In . SVG Version: 6.00 Build 0)  -->
<svg version="1.1" id="Layer_2_00000161606716428372032340000001939788382781920445_"
	 xmlns="http://www.w3.org/2000/svg" xmlns:xlink="http://www.w3.org/1999/xlink" x="0px" y="0px" viewBox="0 0 48 48"
	 style="enable-background:new 0 0 48 48;" xml:space="preserve">
<style type="text/css">
	.st0{fill:#4A4A4A;}
	.st1{fill:#7C0101;}
	.st2{fill:#037210;}
</style>
<rect x="6" y="15" class="st0" width="12" height="2"/>
<rect x="16" y="8" class="st0" width="2" height="7"/>
<rect x="16" y="17" class="st0" width="2" height="23"/>
<rect x="18" y="8" class="st0" width="8" height="2"/>
<rect x="18" y="22" class="st0" width="8" height="2"/>
<rect x="31" y="18" transform="matrix(0.7071 -0.7071 0.7071 0.7071 -6.8909 29.364)" class="st1" width="2" height="10"/>
<rect x="27" y="22" transform="matrix(0.7071 -0.7071 0.7071 0.7071 -6.8909 29.364)" class="st1" width="10" height="2"/>
<path class="st2" d="M32,5c-2.2,0-4,1.8-4,4s1.8,4,4,4s4-1.8,4-4S34.2,5,32,5z M32,11c-1.1,0-2-0.9-2-2s0.9-2,2-2s2,0.9,2,2
	S33.1,11,32,11z"/>
<rect x="31" y="34" transform="matrix(0.7071 -0.7071 0.7071 0.7071 -18.2046 34.0503)" class="st1" width="2" height="10"/>
<rect x="27" y="38" transform="matrix(0.7071 -0.7071 0.7071 0.7071 -18.2046 34.0503)" class="st1" width="10" height="2"/>
<rect x="18" y="38" class="st0" width="8" height="2"/>
</svg>
