<?xml version="1.0" encoding="utf-8"?>
<!-- Generator: Adobe Illustrator 24.1.2, SVG Export Plug-In . SVG Version: 6.00 Build 0)  -->
<svg version="1.1" id="Layer_1" xmlns="http://www.w3.org/2000/svg" xmlns:xlink="http://www.w3.org/1999/xlink" x="0px" y="0px"
	 viewBox="0 0 48 48" style="enable-background:new 0 0 48 48;" xml:space="preserve">
<style type="text/css">
	.st0{fill:#F3F3F3;}
</style>
<g>
	<g>
		<path class="st0" d="M40.1,8H11.9c-1,0-1.9,0.9-1.9,1.9V30c0,1.1,0.9,2,1.9,2H22v10l11-10h7.1c1.1,0,1.9-0.9,1.9-1.9V9.9
			C42,8.9,41.1,8,40.1,8z M40,28.1c0,1.1-0.9,1.9-1.9,1.9H32l-8,8v-8H13.9c-1,0-1.9-0.9-1.9-1.9V11.9c0-1,0.9-1.9,1.9-1.9H38
			c1.1,0,2,0.9,2,1.9V28.1z"/>
	</g>
</g>
<path class="st0" d="M18,22L18,22c-1.2,0-2-0.5-2-1.2v-7.5c0-0.8,0.8-1.2,2-1.2l0,0c1.2,0,2,0.5,2,1.2v7.5C20,21.5,19.2,22,18,22z"
	/>
<path class="st0" d="M18,28L18,28c-1.2,0-2-0.8-2-2l0,0c0-1.2,0.8-2,2-2l0,0c1.2,0,2,0.8,2,2l0,0C20,27.2,19.2,28,18,28z"/>
<path class="st0" d="M34,22L34,22c-1.2,0-2-0.5-2-1.2v-7.5c0-0.8,0.8-1.2,2-1.2l0,0c1.2,0,2,0.5,2,1.2v7.5C36,21.5,35.2,22,34,22z"
	/>
<path class="st0" d="M34,28L34,28c-1.2,0-2-0.8-2-2l0,0c0-1.2,0.8-2,2-2l0,0c1.2,0,2,0.8,2,2l0,0C36,27.2,35.2,28,34,28z"/>
<path class="st0" d="M26,22L26,22c-1.2,0-2-0.5-2-1.2v-7.5c0-0.8,0.8-1.2,2-1.2l0,0c1.2,0,2,0.5,2,1.2v7.5C28,21.5,27.2,22,26,22z"
	/>
<path class="st0" d="M26,28L26,28c-1.2,0-2-0.8-2-2l0,0c0-1.2,0.8-2,2-2l0,0c1.2,0,2,0.8,2,2l0,0C28,27.2,27.2,28,26,28z"/>
</svg>
