<?xml version="1.0" encoding="UTF-8"?>
<svg id="Layer_1" xmlns="http://www.w3.org/2000/svg" xmlns:xlink="http://www.w3.org/1999/xlink" version="1.1" viewBox="0 0 48 48">
  <!-- Generator: Adobe Illustrator 29.3.1, SVG Export Plug-In . SVG Version: 2.1.0 Build 151)  -->
  <defs>
    <style>
      .st0 {
        fill: #7c7c7c;
      }

      .st1 {
        fill: #2977cd;
      }

      .st2 {
        fill: #c1c1c1;
      }

      .st3 {
        fill: #fff;
      }

      .st4 {
        fill: #4a4a4a;
      }
    </style>
  </defs>
  <rect class="st3" x="3" y="13" width="42" height="28"/>
  <rect class="st2" x="34" y="34" width="8" height="4"/>
  <rect class="st1" x="24" y="34" width="8" height="4"/>
  <path class="st4" d="M2,8v34h44V8H2ZM39.5,9.5l.7-.7,1.3,1.3,1.3-1.3.7.7-1.3,1.3,1.3,1.3-.7.7-1.3-1.3-1.3,1.3-.7-.7,1.3-1.3-1.3-1.3ZM44,40H4V14h40v26Z"/>
  <rect class="st0" x="2" y="14" width="2" height="28"/>
  <rect class="st0" x="44" y="14" width="2" height="28"/>
  <rect class="st0" x="23" y="21" width="2" height="40" transform="translate(65 17) rotate(90)"/>
</svg>