<?xml version="1.0" encoding="utf-8"?>
<!-- Generator: Adobe Illustrator 22.1.0, SVG Export Plug-In . SVG Version: 6.00 Build 0)  -->
<svg version="1.1" id="Layer_1" xmlns="http://www.w3.org/2000/svg" xmlns:xlink="http://www.w3.org/1999/xlink" x="0px" y="0px"
	 viewBox="0 0 32 32" style="enable-background:new 0 0 32 32;" xml:space="preserve">
<style type="text/css">
	.st0{fill:#4A4A4A;}
</style>
<path class="st0" d="M27.9,30.6h-3c0-22.1-21-3.9-21-28.5h3C6.9,24.1,27.9,5.9,27.9,30.6z"/>
<g>
	<g>
		<path class="st0" d="M24.9,2c0,7.4-2.3,10.2-5.5,11.7l3.7,1.3c2.8-1.9,4.8-5.4,4.8-13H24.9z M3.9,30.6h3
			c0-11.3,5.5-12.1,10.9-13.4L11.9,16C7.6,17.4,3.9,20.2,3.9,30.6z"/>
	</g>
</g>
<rect x="6" y="26" class="st0" width="20" height="2"/>
<rect x="8" y="20" class="st0" width="16" height="2"/>
<rect x="6" y="4" class="st0" width="20" height="2"/>
<rect x="8" y="10" class="st0" width="16" height="2"/>
</svg>
