<?xml version="1.0" encoding="UTF-8"?>
<!-- Generator: Adobe Illustrator 19.2.1, SVG Export Plug-In . SVG Version: 6.00 Build 0)  -->
<svg xmlns="http://www.w3.org/2000/svg" xmlns:xlink="http://www.w3.org/1999/xlink" version="1.1" id="Layer_1" x="0px" y="0px" viewBox="0 0 48 48" style="enable-background:new 0 0 48 48;" xml:space="preserve">
<style type="text/css">
	.st0{display:none;}
	.st1{display:inline;}
	.st2{fill:#4A4A4A;}
	.st3{display:inline;fill:#4A4A4A;}
	.st4{display:inline;fill:#4A4A4A;stroke:#F3F3F3;stroke-miterlimit:10;}
</style>


<g id="Layer_3_1_">
	<path class="st2" d="M2,4.1V42c0,1.1,0.9,2,2.1,2H38c1.1,0,2.1-0.9,2.1-2.1V4.1C40,2.9,39.1,2,37.9,2H4.1C2.9,2,2,2.9,2,4.1z    M33.9,40H8.1C6.9,40,6,39.1,6,37.9V8.1C6,6.9,6.9,6,8.1,6H34c1.1,0,2,0.9,2,2.1V38C36,39.1,35.1,40,33.9,40z"/>
	<rect x="10" y="10" class="st2" width="22" height="2"/>
	<rect x="10" y="14" class="st2" width="22" height="2"/>
	<rect x="10" y="18" class="st2" width="22" height="2"/>
	<rect x="10" y="22" class="st2" width="22" height="2"/>
	<rect x="10" y="26" class="st2" width="22" height="2"/>
	<rect x="10" y="30" class="st2" width="22" height="2"/>
	<rect x="10" y="26" class="st2" width="22" height="2"/>
	<rect x="10" y="30" class="st2" width="22" height="2"/>
	<rect x="10" y="34" class="st2" width="22" height="2"/>
</g>
</svg>
