<?xml version="1.0" encoding="utf-8"?>
<!-- Generator: Adobe Illustrator 22.1.0, SVG Export Plug-In . SVG Version: 6.00 Build 0)  -->
<svg version="1.1" id="Layer_1" xmlns="http://www.w3.org/2000/svg" xmlns:xlink="http://www.w3.org/1999/xlink" x="0px" y="0px"
	 viewBox="0 0 48 48" style="enable-background:new 0 0 48 48;" xml:space="preserve">
<style type="text/css">
	.st0{fill:#F3F3F3;}
</style>
<rect x="4" y="38" class="st0" width="40" height="2"/>
<g>
	<g>
		<path class="st0" d="M31,5H18c-2.2,0-5,1.8-5,4v27h22V9C35,6.8,33.2,5,31,5z M29.6,28c-0.9,0.5-1.9,0.8-2.8,0.9v-2.7
			c0.7-0.2,1.3-0.4,1.6-0.7c0.7-0.5,1-1.2,1-2.1c0-1-0.5-1.7-1.4-2.3c-0.3-0.2-1.5-0.1-1.8-0.2V24h-1.1l-1-1c-0.3,0,0.2-2.7-0.1-2.7
			c-0.4,0-1.6-0.4-1.9-0.3v4h-2v-2.7c-0.8,0.6-1.2,1.3-1.2,2.2c0,0.9,0.4,1.6,1.1,2.1c0.4,0.3,1,0.5,1.8,0.7v2.6
			c-1.6-0.2-3-0.8-4-1.8s-1.5-2.2-1.5-3.6c0-1.8,0.7-3.3,2.1-4.3c0.7-0.5,0.8-0.9,1.8-1.2v-3h2v3c0.3,0,1.6-0.4,1.9-0.4
			c0,0,0,0,0.1,0V15h2v3c1.2,0.3,3.2,0.7,4,1.4c1.2,1,1.9,2.3,1.9,3.9C32.1,25.4,31.3,27,29.6,28z M10,2v34h2V4h24v32h2V2H10z
			 M24.1,18v-0.2C24,17.9,23.9,18,24.1,18z"/>
	</g>
</g>
</svg>
