<?xml version="1.0" encoding="utf-8"?>
<!-- Generator: Adobe Illustrator 19.2.1, SVG Export Plug-In . SVG Version: 6.00 Build 0)  -->
<svg version="1.1" id="Layer_1" xmlns="http://www.w3.org/2000/svg" xmlns:xlink="http://www.w3.org/1999/xlink" x="0px" y="0px"
	 viewBox="0 0 48 48" style="enable-background:new 0 0 48 48;" xml:space="preserve">
<style type="text/css">
	.st0{fill:#4A4A4A;}
</style>
<path class="st0" d="M12,38H10c-1.1,0-2-0.9-2-2V34c0-1.1,0.9-2,2-2H12c1.1,0,2,0.9,2,2V36C14,37.1,13.1,38,12,38z"/>
<path class="st0" d="M24,38H22c-1.1,0-2-0.9-2-2V34c0-1.1,0.9-2,2-2H24c1.1,0,2,0.9,2,2V36C26,37.1,25.1,38,24,38z"/>
<path class="st0" d="M36,38H34c-1.1,0-2-0.9-2-2V34c0-1.1,0.9-2,2-2H36c1.1,0,2,0.9,2,2V36C38,37.1,37.1,38,36,38z"/>
</svg>
