<?xml version="1.0" encoding="utf-8"?>
<!-- Generator: Adobe Illustrator 19.2.1, SVG Export Plug-In . SVG Version: 6.00 Build 0)  -->
<svg version="1.1" id="Layer_1" xmlns="http://www.w3.org/2000/svg" xmlns:xlink="http://www.w3.org/1999/xlink" x="0px" y="0px"
	 viewBox="0 0 48 48" style="enable-background:new 0 0 48 48;" xml:space="preserve">
<style type="text/css">
	.st0{fill:#4A4A4A;}
</style>
<path class="st0" d="M20,14v-2c0-1.1,0.9-2,2-2h2c1.1,0,2,0.9,2,2v2c0,1.1-0.9,2-2,2h-2C20.9,16,20,15.1,20,14z"/>
<path class="st0" d="M20,26v-2c0-1.1,0.9-2,2-2h2c1.1,0,2,0.9,2,2v2c0,1.1-0.9,2-2,2h-2C20.9,28,20,27.1,20,26z"/>
<path class="st0" d="M20,38v-2c0-1.1,0.9-2,2-2h2c1.1,0,2,0.9,2,2v2c0,1.1-0.9,2-2,2h-2C20.9,40,20,39.1,20,38z"/>
</svg>
