<?xml version="1.0" encoding="utf-8"?>
<!-- Generator: Adobe Illustrator 19.2.1, SVG Export Plug-In . SVG Version: 6.00 Build 0)  -->
<svg version="1.1" id="Layer_1" xmlns="http://www.w3.org/2000/svg" xmlns:xlink="http://www.w3.org/1999/xlink" x="0px" y="0px"
	 viewBox="0 0 48 48" style="enable-background:new 0 0 48 48;" xml:space="preserve">
<style type="text/css">
	.st0{fill:#F3F3F3;}
</style>
<g>
	<g>
		<path id="curvedarrow" class="st0" d="M38.6,14.8l-7.5-7.7c-0.3-0.2-0.6-0.2-0.9,0C30,7.1,30,7.3,30,7.3l0,0l-0.2,0.2
			l0,0v0.2l0,0v0.2v3.8C21.6,12.4,16.3,17,16.3,22c0,3.5,3,6.6,8.1,8.4h0.1c0.2,0,0.5-0.2,0.5-0.3c0.1-0.3,0-0.6-0.3-0.8
			c-2.5-1.2-3.9-2.9-3.9-4.7c0-3,3.3-5.4,8.9-5.7v3.6c0,0.3,0.1,0.6,0.4,0.8h0.2h0.2l0,0c0.1,0,0.4,0,0.6-0.2l7.5-7.1
			c0.3-0.2,0.4-0.5,0.4-0.8C39,15.2,38.8,14.9,38.6,14.8z"/>
	</g>
	<path class="st0" d="M41,22c-0.6,0-1,0.4-1,1v15L8,38V12h6c0.6,0,1-0.4,1-1c-0.1-1-0.4-1-1-1l-6.5,0C6.9,10,6,10.9,6,11.5v27
		C6,39.1,6.9,40,7.5,40h33c0.6,0,1.5-0.9,1.5-1.5V23C42,22.4,41.6,22,41,22z"/>
</g>
</svg>
