<?xml version="1.0" encoding="utf-8"?>
<!-- Generator: Adobe Illustrator 21.0.0, SVG Export Plug-In . SVG Version: 6.00 Build 0)  -->
<svg version="1.1" id="Layer_1" xmlns="http://www.w3.org/2000/svg" xmlns:xlink="http://www.w3.org/1999/xlink" x="0px" y="0px"
	 viewBox="0 0 32 32" style="enable-background:new 0 0 32 32;" xml:space="preserve">
<style type="text/css">
	.st0{fill:#4A4A4A;}
	.st1{fill:none;stroke:#4A4A4A;stroke-width:3;stroke-miterlimit:10;}
</style>
<g id="Layer_7">
	<path class="st0" d="M19.7,16c-1.6,0-2.8-1.3-2.8-2.8c0-1.3,1.1-2.6,2.5-2.7c-1-0.6-2-0.9-3.2-0.9c-3.6,0-6.5,2.9-6.5,6.5
		s2.9,6.5,6.5,6.5s6.5-2.9,6.5-6.5c0-0.6-0.1-1.1-0.2-1.7C21.9,15.2,20.8,16,19.7,16z"/>
</g>
<path class="st1" d="M29.9,13c0,0-12.3-16.6-27.7,0"/>
<path class="st1" d="M29.9,18.8c0,0-12.3,16.6-27.7,0"/>
</svg>
