<?xml version="1.0" encoding="UTF-8"?>
<!-- Generator: Adobe Illustrator 19.2.1, SVG Export Plug-In . SVG Version: 6.00 Build 0)  -->
<svg xmlns="http://www.w3.org/2000/svg" xmlns:xlink="http://www.w3.org/1999/xlink" version="1.1" id="Layer_1" x="0px" y="0px" viewBox="0 0 48 48" style="enable-background:new 0 0 48 48;" xml:space="preserve">
<style type="text/css">
	.st0{fill:#F3F3F3;}
	.st1{fill:#4A4A4A;}
	.st2{display:none;fill:#4A4A4A;}
</style>
<g id="Layer_7_copy">
	<path class="st0" d="M46,24c0,0-10-12.1-22-12C11.8,12.1,2,24,2,24s9,11.9,22,12C35.9,36.1,46,24,46,24z"/>
	<path class="st1" d="M29.6,24c-2.4,0-4.4-2-4.4-4.4c0-2.2,1.6-4,3.7-4.3C27.5,14.5,25.8,14,24,14c-5.5,0-10,4.5-10,10s4.5,10,10,10   s10-4.5,10-10c0-0.9-0.1-1.8-0.4-2.6C33,22.9,31.4,24,29.6,24z"/>
	
</g>
<g id="Layer_7_copy_2">
	<path class="st0" d="M24,12C11.8,12.1,2,24,2,24s9,11.9,22,12c11.9,0.1,22-12,22-12S36,11.9,24,12z M24,34c-5.5,0-10-4.5-10-10   s4.5-10,10-10c1.8,0,3.5,0.5,4.9,1.3c-2.1,0.3-3.7,2.1-3.7,4.3c0,2.4,2,4.4,4.4,4.4c1.8,0,3.3-1.1,4-2.6c0.2,0.8,0.4,1.7,0.4,2.6   C34,29.5,29.5,34,24,34z"/>
	
</g>
</svg>
