<?xml version="1.0" encoding="UTF-8"?>
<!-- Generator: Adobe Illustrator 19.2.1, SVG Export Plug-In . SVG Version: 6.00 Build 0)  -->
<svg xmlns="http://www.w3.org/2000/svg" xmlns:xlink="http://www.w3.org/1999/xlink" version="1.1" x="0px" y="0px" viewBox="0 0 48 48" style="enable-background:new 0 0 48 48;" xml:space="preserve">
<style type="text/css">
	.st0{display:none;}
	.st1{display:inline;fill:url(#SVGID_1_);}
	.st2{display:inline;}
	.st3{fill:#4A4A4A;}
	.st4{display:inline;fill:#4A4A4A;}
	.st5{fill:#1C8BE9;}
</style>

<g id="File">
	<g>
		<g>
			<path id="file-outline" class="st3" d="M30.9,0H15c-3,0-3,3-3,3v42c0,0,0,3,3,3h30c3,0,2.9-2.4,2.9-2.4V17.1L30.9,0z M44,43     c0,0,0,1.1-1,1H17c-1,0.1-1-0.6-1-1V5c0,0,0-0.9,1-1h15l12,12V43z"/>
		</g>
		<g>
			<path id="file-corner" class="st3" d="M48,1.5C48,0,46.5,0,46.5,0h-9.3c-0.4,0-0.9,0-1,0.5S36.5,1.7,37,2l9,9     c0.3,0.3,1.1,0.2,1.4,0.1c0.3-0.3,0.6-0.7,0.6-1.2"/>
		</g>
	</g>
</g>

</svg>
