<?xml version="1.0" encoding="utf-8"?>
<!-- Generator: Adobe Illustrator 19.2.1, SVG Export Plug-In . SVG Version: 6.00 Build 0)  -->
<svg version="1.1" id="Layer_1" xmlns="http://www.w3.org/2000/svg" xmlns:xlink="http://www.w3.org/1999/xlink" x="0px" y="0px"
	 viewBox="0 0 32 32" style="enable-background:new 0 0 32 32;" xml:space="preserve">
<style type="text/css">
	.st0{fill:#4A4A4A;}
</style>
<g>
	<g>
		<path id="folder-outline" class="st0" d="M30,4H19.5c-0.3,0-0.6,0.1-0.9,0.4L15,8H2c-1.1,0-2,0.9-2,2v17.5C0,29,1,30,2,30h28
			c1.1,0,2-0.9,2-2V6C32,4.9,31.1,4,30,4z M2,28V10h13.4c0.4,0,0.7-0.1,0.9-0.4L20,6c0,0,0,0,0,0h10v22H2z"/>
	</g>
	<g>
		<path id="folder-tab" class="st0" d="M1,4C0,4,0,5.1,0,5.1V6h14V4C14,4,2,4,1,4z"/>
	</g>
</g>
</svg>
