<?xml version="1.0" encoding="utf-8"?>
<!-- Generator: Adobe Illustrator 19.2.1, SVG Export Plug-In . SVG Version: 6.00 Build 0)  -->
<svg version="1.1" id="Layer_1" xmlns="http://www.w3.org/2000/svg" xmlns:xlink="http://www.w3.org/1999/xlink" x="0px" y="0px"
	 viewBox="0 0 48 48" style="enable-background:new 0 0 48 48;" xml:space="preserve">
<style type="text/css">
	.st0{fill:#4A4A4A;}
</style>
<g>
	<g>
		<path class="st0" d="M17,26c0,4.4,3.6,8,8,8V18C20.6,18,17,21.6,17,26z"/>
	</g>
</g>
<path class="st0" d="M25,14v4c3.9,0.5,8,3.5,8,8c0,4.9-4.1,7.5-8,8v4c5.1-0.5,11.9-4.9,12-12C37.1,19.2,30.1,14.5,25,14z"/>
<path class="st0" d="M32,12l-2-4H18l-2,4H2v28h44V12H32z M44,38H25c-4.6,0-11.9-5.2-12-12c-0.1-6.5,6.1-12,12-12h19V38z"/>
</svg>
