<?xml version="1.0" encoding="utf-8"?>
<!-- Generator: Adobe Illustrator 19.2.1, SVG Export Plug-In . SVG Version: 6.00 Build 0)  -->
<svg version="1.1" id="Layer_1" xmlns="http://www.w3.org/2000/svg" xmlns:xlink="http://www.w3.org/1999/xlink" x="0px" y="0px"
	 viewBox="0 0 48 48" style="enable-background:new 0 0 48 48;" xml:space="preserve">
<style type="text/css">
	.st0{fill:#4A4A4A;}
</style>
<g>
	<rect x="14" y="26" class="st0" width="6" height="6"/>
	<path class="st0" d="M44,21.2L26.3,5.6c-0.9-0.8-2.1-0.8-3,0L3.3,21.2c-0.9,0.8-1,2.2-0.3,3.1c0.8,0.9,3,0.9,3,0.9v16.5
		c0,0.8-0.2,2.2,1.2,2.2H40c1.7,0,1.8-1.5,1.8-2.2V25.2c0,0,2-0.3,2.5-0.8C45,23.4,44.9,21.9,44,21.2z M38,40h-4V26h-8v14H10V23
		l14.8-12.8L38,23V40z"/>
</g>
</svg>
