<?xml version="1.0" encoding="utf-8"?>
<!-- Generator: Adobe Illustrator 25.4.1, SVG Export Plug-In . SVG Version: 6.00 Build 0)  -->
<svg version="1.1" id="Layer_1" xmlns="http://www.w3.org/2000/svg" xmlns:xlink="http://www.w3.org/1999/xlink" x="0px" y="0px"
	 viewBox="0 0 48 48" style="enable-background:new 0 0 48 48;" xml:space="preserve">
<style type="text/css">
	.st0{fill:#F3F3F3;}
	.st1{fill:#4A4A4A;}
</style>
<rect x="7" y="11" class="st0" width="34" height="22"/>
<polygon class="st1" points="28,10 28,12 40,12 40,32 8,32 8,12 20,12 20,10 6,10 6,34 42,34 42,10 "/>
<rect x="22" y="6" class="st1" width="4" height="8"/>
<rect x="24" y="18" class="st1" width="12" height="2"/>
<rect x="24" y="22" class="st1" width="12" height="2"/>
<rect x="24" y="26" class="st1" width="10" height="2"/>
<path class="st1" d="M15.1,25h-0.2c-1.6,0-2.9-1.3-2.9-2.9v-1.2c0-1.6,1.3-2.9,2.9-2.9h0.2c1.6,0,2.9,1.3,2.9,2.9v1.2
	C18,23.7,16.7,25,15.1,25z"/>
<path class="st1" d="M20,28H10l0,0c0-1.7,1.3-3,3-3h4C18.7,25,20,26.3,20,28L20,28z"/>
</svg>
