<?xml version="1.0" encoding="utf-8"?>
<!-- Generator: Adobe Illustrator 25.4.1, SVG Export Plug-In . SVG Version: 6.00 Build 0)  -->
<svg version="1.1" id="Layer_1" xmlns="http://www.w3.org/2000/svg" xmlns:xlink="http://www.w3.org/1999/xlink" x="0px" y="0px"
	 viewBox="0 0 32 32" style="enable-background:new 0 0 32 32;" xml:space="preserve">
<style type="text/css">
	.st0{fill:#F3F3F3;}
</style>
<polygon class="st0" points="20,8 20,10 28,10 28,26 4,26 4,10 12,10 12,8 2,8 2,28 30,28 30,8 "/>
<rect x="14" y="4" class="st0" width="4" height="8"/>
<rect x="14" y="14" class="st0" width="12" height="2"/>
<rect x="14" y="18" class="st0" width="12" height="2"/>
<rect x="16" y="22" class="st0" width="10" height="2"/>
<rect x="6" y="22" class="st0" width="8" height="2"/>
<path class="st0" d="M12,20.1H5.8l0,0c0-1.1,0.9-2,2.1-2h2.1C11.1,18.1,12,19,12,20.1L12,20.1z"/>
<path class="st0" d="M9,18.1L9,18.1c-1.6,0-3-0.9-3-2v-1c0-1.1,1.4-2,3-2l0,0c1.7,0,3,0.9,3,2v1C12,17.2,10.7,18.1,9,18.1z"/>
</svg>
