<?xml version="1.0" encoding="utf-8"?>
<!-- Generator: Adobe Illustrator 25.4.1, SVG Export Plug-In . SVG Version: 6.00 Build 0)  -->
<svg version="1.1" id="Layer_1" xmlns="http://www.w3.org/2000/svg" xmlns:xlink="http://www.w3.org/1999/xlink" x="0px" y="0px"
	 viewBox="0 0 32 32" style="enable-background:new 0 0 32 32;" xml:space="preserve">
<style type="text/css">
	.st0{fill:#F6FFE6;}
	.st1{fill:#4A4A4A;}
	.st2{fill:#466868;}
	.st3{fill:#B8F6FF;}
	.st4{fill:#283233;}
</style>
<rect x="3" y="9" class="st0" width="26" height="18"/>
<polygon class="st1" points="20,8 20,10 28,10 28,26 4,26 4,10 12,10 12,8 2,8 2,28 30,28 30,8 "/>
<rect x="14" y="4" class="st2" width="4" height="8"/>
<rect x="6" y="12" class="st3" width="6" height="8"/>
<rect x="14" y="14" class="st4" width="12" height="2"/>
<rect x="14" y="18" class="st4" width="12" height="2"/>
<rect x="16" y="22" class="st4" width="10" height="2"/>
<rect x="6" y="22" class="st4" width="8" height="2"/>
<path class="st1" d="M12,20H6l0,0c0-1.1,0.9-2,2-2h2C11.1,18,12,18.9,12,20L12,20z"/>
<path class="st1" d="M9,18L9,18c-1.1,0-2-0.9-2-2v-1c0-1.1,0.9-2,2-2l0,0c1.1,0,2,0.9,2,2v1C11,17.1,10.1,18,9,18z"/>
</svg>
