<?xml version="1.0" encoding="utf-8"?>
<!-- Generator: Adobe Illustrator 19.2.1, SVG Export Plug-In . SVG Version: 6.00 Build 0)  -->
<svg version="1.1" xmlns="http://www.w3.org/2000/svg" xmlns:xlink="http://www.w3.org/1999/xlink" x="0px" y="0px"
	 viewBox="0 0 48 48" style="enable-background:new 0 0 48 48;" xml:space="preserve">
<style type="text/css">
	.st0{fill:#9B7324;}
	.st1{fill:#6D6E70;stroke:#4A4A4A;stroke-miterlimit:10;}
	.st2{fill:url(#SVGID_1_);}
	.st3{fill:#FFD683;}
	.st4{fill:#0E0E47;}
	.st5{fill:url(#SVGID_2_);}
	.st6{fill:#442D08;}
	.st7{fill:#EDEDED;}
	.st8{fill:#4A4A4A;}
	.st9{fill:#171100;}
</style>
<g id="Layer_4">
	<rect x="2" y="2" class="st0" width="44" height="44"/>
</g>
<g id="Layer_2">
	<circle class="st1" cx="18.5" cy="27.3" r="0"/>
	<radialGradient id="SVGID_1_" cx="23.8267" cy="19.1021" r="17.2785" gradientUnits="userSpaceOnUse">
		<stop  offset="0" style="stop-color:#7F7100"/>
		<stop  offset="1" style="stop-color:#FFF47F"/>
	</radialGradient>
	<ellipse class="st2" cx="23.8" cy="19.1" rx="19.1" ry="15.3"/>
	<ellipse class="st3" cx="24.2" cy="21.9" rx="11.2" ry="9.3"/>
	<polygon class="st3" points="30.4,29.4 16.4,29.2 14.8,33 9.1,41.8 35.7,42.5 30.6,32.2 	"/>
	<path class="st4" d="M46,39c-0.2-0.7-2-0.4-2.6-0.7c-0.6-0.3-2.1-0.2-2.7-0.3c-1.1-0.2-2.3-0.9-3.3-1.3c-2.3-0.9-5.2-1.9-6.2-4.3
		c-0.2-0.5-1-0.1-0.9,0.4c0.4,2,1.1,4.2,1.2,6.2c0.1,1.7-0.4,1.9-2.1,2c-1.1,0.1-2.2,0.1-3.4,0.1c-4.6-0.1-6-0.6-10.5-1.5
		c-0.9-2.7-1.1-4-0.1-5.9c0.2-0.4-0.3-1-0.7-0.7C11.6,35.4,2.1,37.6,2,38c-0.5,3.4-0.2,9,0,9c6.6-0.4,34.7-0.4,41.4,0
		c0.3,0,3.6,0.3,3.6,0C47.1,44.9,46.4,41.1,46,39z"/>
	<radialGradient id="SVGID_2_" cx="23.3827" cy="22.9062" r="15.1291" gradientUnits="userSpaceOnUse">
		<stop  offset="0" style="stop-color:#7F6300"/>
		<stop  offset="1" style="stop-color:#2A1400"/>
	</radialGradient>
	<path class="st5" d="M37.2,15.1c-3.2-5-9.2-7-14.8-7.1c-6.5-0.1-9.3,2-12.7,7.6c-2.7,4.4-1.9,9,1.2,12.7c0,0.7,0.1,1.5,0.2,2.2
		c0.2,2.5,4.2,2.6,4,0c0-0.3-0.1-0.7-0.1-1c0.1-0.1,0.1-0.2,0.2-0.2c0,0,0,0,0,0c-0.1,0.3-0.1,0.6,0.3,0.7c0.5,0.2,1,0.3,1.6,0.5
		c0.6,1.3,1.3,2.6,2,3.9c0.5,0.9,1,2.5,2,3c1.1,0.6,3.6,0.5,4.8,0.3c2.5-0.4,2.7-3,3.9-4.9c0.4-0.6,0.8-1.2,1.1-1.8
		c-0.1,1.9,2.6,2.4,3.8,0.9C37.9,27.5,40.5,20.4,37.2,15.1z M23.4,30.3c-0.5-0.1-1.2-0.5-2-1.1c1.3-0.7,3.6-0.8,5.1-0.2
		c0.2,0.2,0.4,0.3,0.6,0.5C26.1,30.2,24.9,30.5,23.4,30.3z M32.5,23.5c-0.2-0.1-0.4-0.1-0.5,0.1c-1.1,1.2-2.2,2.5-3.1,3.9
		c-0.1,0.2-0.3,0.4-0.4,0.6c-1-1.5-3.1-1.4-4.7-1.5c-1.7-0.1-3.5-0.2-4.8,0.7c-1.5-1.3-3-2.7-3.7-3.3c-0.2-0.1-0.4-0.1-0.5-0.1
		c0-0.5,0-1,0.1-1.5c0.1-1.8,0.6-4.7,2.2-6c0.8-0.6,2.8-0.6,3.8-0.8c4.5-1.1,10-2.1,11.5,3.9C32.6,20.8,32.7,22.1,32.5,23.5z"/>
	<path class="st6" d="M22.5,18.6c-1.9,0-4.1-0.3-5.9,0.3c-0.6,0.2-0.3,1.2,0.3,1c1.7-0.6,3.9-0.3,5.7-0.3
		C23.1,19.6,23.1,18.6,22.5,18.6z"/>
	<path class="st6" d="M30.6,19c-1.9-0.4-3.7-0.5-5.7-0.3c-0.6,0.1-0.4,1.1,0.3,1c1.8-0.3,3.4-0.1,5.2,0.3
		C30.9,20.1,31.2,19.2,30.6,19z"/>
	<ellipse class="st7" cx="20.6" cy="21.1" rx="2.6" ry="1.1"/>
	<ellipse class="st7" cx="27.9" cy="21.1" rx="2.6" ry="1.1"/>
	<path class="st8" d="M20.2,20.1c-1,0-1,1.6,0,1.6C21.2,21.7,21.2,20.1,20.2,20.1z"/>
	<path class="st8" d="M28.1,20.1c-1.2,0-1.2,1.5,0,1.5C29.3,21.6,29.3,20.1,28.1,20.1z"/>
	<path class="st0" d="M25.4,24.8c-0.9-1-0.9-2.1-0.8-3.4c0.1-0.6-0.9-0.6-1,0c-0.1,1.6,0,2.8,1.1,4.1C25.1,26,25.8,25.3,25.4,24.8z"
		/>
</g>
<g id="Layer_5">
	<path class="st9" d="M0,0v48h48V0H0z M46,46H2V2h44V46z"/>
</g>
</svg>
