<?xml version="1.0" encoding="UTF-8"?>
<!-- Generator: Adobe Illustrator 19.2.1, SVG Export Plug-In . SVG Version: 6.00 Build 0)  -->
<svg xmlns="http://www.w3.org/2000/svg" xmlns:xlink="http://www.w3.org/1999/xlink" version="1.1" x="0px" y="0px" viewBox="0 0 32 32" style="enable-background:new 0 0 32 32;" xml:space="preserve">
<style type="text/css">
	.st0{display:none;}
	.st1{display:inline;}
	.st2{fill:#FFFFFF;}
	.st3{stroke:#000000;stroke-width:3;}
	.st4{fill:url(#key__2_);}
</style>

<g id="Layer_2">
	<g>
		<g>
			<linearGradient id="key__2_" gradientUnits="userSpaceOnUse" x1="16.425" y1="20.575" x2="16.425" y2="8.6957">
				<stop offset="0" style="stop-color:#BB9900"/>
				<stop offset="1" style="stop-color:#FFEE55"/>
			</linearGradient>
			<path id="key__1_" class="st4" d="M30.9,14.6c0-3.3-2.6-5.9-5.9-5.9c-2.4,0-4.4,1.4-5.4,3.4l-16.8,0L2,14.1l2.5,2.3L7.1,15     l2.8,1.9l3.4-2.5l2.3,2.4l4,0c0.8,2.3,3,3.8,5.5,3.8C28.2,20.4,30.9,17.8,30.9,14.6z M24.3,16.8c-0.8-0.8-0.7-2,0-2.7     c0.7-0.7,2.1-0.8,2.8-0.1c0.7,0.7,0.7,2,0,2.7C26.3,17.4,25.1,17.5,24.3,16.8z"/>
		</g>
	</g>
</g>
</svg>
