<?xml version="1.0" encoding="UTF-8"?>
<!-- Generator: Adobe Illustrator 19.2.1, SVG Export Plug-In . SVG Version: 6.00 Build 0)  -->
<svg xmlns="http://www.w3.org/2000/svg" xmlns:xlink="http://www.w3.org/1999/xlink" version="1.1" x="0px" y="0px" viewBox="0 0 48 48" style="enable-background:new 0 0 48 48;" xml:space="preserve">
<style type="text/css">
	.st0{display:none;}
	.st1{display:inline;}
	.st2{fill:#4A4A4A;}
</style>

<g id="Layer_3">
	<g>
		<g>
			<path id="key__2_" class="st2" d="M23.2,5.5C18.6,3.9,13.6,6.3,12,11c-1.2,3.4-0.1,6.9,2.2,9.3L6,44.1l2.5,2.1l4.5-2.4l-0.8-4.4     l4.1-3l-2-6.1l4.5-2l1.9-5.6c3.6-0.1,6.9-2.4,8.1-6C30.2,12,27.8,7.1,23.2,5.5z M23.1,15.9c-1.5,0.7-3.2,0-3.8-1.3     c-0.7-1.3-0.1-3.3,1.2-3.9c1.3-0.7,3.2,0,3.8,1.3C25,13.3,24.6,15.2,23.1,15.9z"/>
		</g>
	</g>
</g>
</svg>
