<?xml version="1.0" encoding="UTF-8"?>
<!-- Generator: Adobe Illustrator 19.2.1, SVG Export Plug-In . SVG Version: 6.00 Build 0)  -->
<svg xmlns="http://www.w3.org/2000/svg" xmlns:xlink="http://www.w3.org/1999/xlink" version="1.1" x="0px" y="0px" viewBox="0 0 32 32" style="enable-background:new 0 0 32 32;" xml:space="preserve">
<style type="text/css">
	.st0{display:none;}
	.st1{display:inline;}
	.st2{fill:#FFFFFF;}
	.st3{stroke:#000000;stroke-width:3;}
	.st4{fill:#4A4A4A;}
</style>

<g id="Layer_2">
	<g>
		<g>
			<path id="key__1_" class="st4" d="M18.1,3.4c-3-1.2-6.4,0.4-7.6,3.4C9.7,9,10.3,11.4,11.8,13l-6,15.7l1.6,1.5l3.1-1.5l-0.5-3     l2.8-1.9l-1.2-4.1l3.1-1.3l1.4-3.7c2.4,0,4.6-1.4,5.5-3.8C22.7,7.9,21.2,4.5,18.1,3.4z M17.9,10.3c-1,0.5-2.1,0-2.5-1     s0-2.2,0.9-2.6c0.9-0.4,2.1,0,2.5,1C19.2,8.6,18.9,9.9,17.9,10.3z"/>
		</g>
	</g>
</g>
</svg>
