<?xml version="1.0" encoding="UTF-8"?>
<!-- Generator: Adobe Illustrator 19.2.1, SVG Export Plug-In . SVG Version: 6.00 Build 0)  -->
<svg xmlns="http://www.w3.org/2000/svg" xmlns:xlink="http://www.w3.org/1999/xlink" version="1.1" x="0px" y="0px" viewBox="0 0 32 32" style="enable-background:new 0 0 32 32;" xml:space="preserve">
<style type="text/css">
	.st0{display:none;}
	.st1{display:inline;}
	.st2{fill:#FFFFFF;}
	.st3{stroke:#000000;stroke-width:3;}
	.st4{fill:#4A4A4A;}
</style>

<g id="Layer_2">
	<g>
		<g>
			<path id="key__1_" class="st4" d="M17.2,3.6c-2.9,1.5-4.1,5-2.6,7.9c1.1,2.1,3.2,3.3,5.5,3.3l7.6,15l2.2-0.2l1-3.3l-2.5-1.7     l0.5-3.3L25,19.4l1.1-3.1l-1.8-3.5c1.6-1.8,2.1-4.4,0.9-6.6C23.6,3.3,20.1,2.2,17.2,3.6z M22.1,8.5c-0.3,1-1.4,1.5-2.4,1.2     c-0.9-0.3-1.6-1.5-1.3-2.4s1.4-1.5,2.4-1.2C21.8,6.4,22.5,7.5,22.1,8.5z"/>
		</g>
	</g>
</g>
</svg>
