<?xml version="1.0" encoding="UTF-8"?>
<!-- Generator: Adobe Illustrator 19.2.1, SVG Export Plug-In . SVG Version: 6.00 Build 0)  -->
<svg xmlns="http://www.w3.org/2000/svg" xmlns:xlink="http://www.w3.org/1999/xlink" version="1.1" x="0px" y="0px" viewBox="0 0 48 48" style="enable-background:new 0 0 48 48;" xml:space="preserve">
<style type="text/css">
	.st0{fill:#4A4A4A;}
	.st1{display:none;}
	.st2{display:inline;}
</style>
<g id="Layer_2_1_">
	<g>
		<g>
			<path id="key__1_" class="st0" d="M22.8,5.7c-4.4,2.2-6.1,7.5-3.9,11.8c1.6,3.2,4.9,4.9,8.2,4.9L38.5,45l3.3-0.3l1.5-4.9     l-3.8-2.5l0.7-5l-5.7-2.8l1.7-4.7l-2.7-5.3c2.5-2.7,3.1-6.6,1.4-10C32.5,5.3,27.2,3.5,22.8,5.7z M30.2,13.1     c-0.5,1.6-2.2,2.3-3.6,1.8c-1.4-0.5-2.4-2.2-2-3.6c0.5-1.4,2.2-2.3,3.6-1.8C29.7,9.9,30.7,11.5,30.2,13.1z"/>
		</g>
	</g>
</g>

</svg>
