<?xml version="1.0" encoding="utf-8"?>
<!-- Generator: Adobe Illustrator 21.0.0, SVG Export Plug-In . SVG Version: 6.00 Build 0)  -->
<svg version="1.1" id="Layer_1" xmlns="http://www.w3.org/2000/svg" xmlns:xlink="http://www.w3.org/1999/xlink" x="0px" y="0px"
	 viewBox="0 0 32 32" style="enable-background:new 0 0 32 32;" xml:space="preserve">
<style type="text/css">
	.st0{fill:#4A4A4A;}
</style>
<g>
	<g>
		<path class="st0" d="M25.8,11.9c0.2-0.2,0.4-0.5,0.6-0.8c0,0,0.1,0.1,0.1,0.1c0.8,0.8,2,0.8,2.8,0c0.8-0.8,0.8-2,0-2.8
			c-0.7-0.7-1.7-0.8-2.5-0.3c-0.2-0.7-0.5-1.3-1-1.9s-1.2-0.9-1.9-1c0.5-0.8,0.4-1.8-0.3-2.5c-0.8-0.8-2-0.8-2.8,0
			c-0.8,0.8-0.8,2,0,2.8c0,0,0.1,0.1,0.1,0.1c-0.3,0.2-0.6,0.4-0.8,0.6c-1.6,1.6-1.6,4.1,0,5.7S24.2,13.5,25.8,11.9z M24.8,16.2
			c-0.6,0-1,0.4-1,1s0.4,1,1,1h3c0.6,0,1-0.4,1-1s-0.4-1-1-1H24.8z M6,14.7l-2.1-2.1c-0.4-0.4-1-0.4-1.4,0C2,13,2,13.6,2.4,14
			l2.1,2.1c0.4,0.4,1,0.4,1.4,0C6.3,15.8,6.3,15.1,6,14.7z M22.1,17.1c0.1-1.9-0.6-3.8-2-5.2c-1.4-1.4-3.3-2.1-5.2-2L22.1,17.1z
			 M14.8,8.2c0.6,0,1-0.4,1-1v-3c0-0.6-0.4-1-1-1s-1,0.4-1,1v3C13.8,7.8,14.3,8.2,14.8,8.2z M8.5,13.5l-3.4-3.4
			c-0.2,0.4-0.1,0.8,0.2,1.1l2.1,2.1C7.7,13.6,8.1,13.7,8.5,13.5z M18.7,24.6l2.1,2.1c0.3,0.3,0.8,0.4,1.1,0.2l-3.4-3.4
			C18.3,23.9,18.4,24.3,18.7,24.6z M17.3,26c-0.4-0.4-1-0.4-1.4,0c-0.4,0.4-0.4,1,0,1.4l2.1,2.1c0.4,0.4,1,0.4,1.4,0
			c0.4-0.4,0.4-1,0-1.4L17.3,26z M8.6,13.6L6,16.1c-2.7,2.7-2.7,7.2,0,9.9c2.7,2.7,7.2,2.7,9.9,0l2.6-2.6L8.6,13.6z M2.6,4L28,29.4
			l1.4-1.4L4,2.6L2.6,4z"/>
	</g>
</g>
</svg>
