<?xml version="1.0" encoding="UTF-8"?>
<!-- Generator: Adobe Illustrator 19.2.1, SVG Export Plug-In . SVG Version: 6.00 Build 0)  -->
<svg xmlns="http://www.w3.org/2000/svg" xmlns:xlink="http://www.w3.org/1999/xlink" version="1.1" id="Layer_1" x="0px" y="0px" viewBox="0 0 48 48" style="enable-background:new 0 0 48 48;" xml:space="preserve">
<style type="text/css">
	.st0{display:none;}
	.st1{display:inline;}
	.st2{fill:#EFEFEF;}
	.st3{fill:#F3F3F3;}
	.st4{fill:#4A4A4A;}
</style>

<g id="Layer_2">
	<g>
		<rect x="6" y="40" class="st4" width="34" height="4"/>
		<rect x="6" y="10" class="st4" width="2" height="30"/>
		<rect x="26" y="6" class="st4" width="2" height="34"/>
		<rect x="38" y="20" class="st4" width="2" height="20"/>
		<rect x="12" y="12" class="st4" width="4" height="4"/>
		<rect x="18" y="12" class="st4" width="4" height="4"/>
		<rect x="12" y="22" class="st4" width="4" height="4"/>
		<rect x="18" y="22" class="st4" width="4" height="4"/>
		<rect x="12" y="32" class="st4" width="4" height="8"/>
		<rect x="18" y="32" class="st4" width="4" height="4"/>
		<rect x="32" y="22" class="st4" width="2" height="2"/>
		<rect x="32" y="26" class="st4" width="2" height="2"/>
		<rect x="32" y="30" class="st4" width="2" height="2"/>
		<rect x="32" y="34" class="st4" width="2" height="2"/>
		<rect x="32" y="38" class="st4" width="2" height="2"/>
	</g>
	<path class="st4" d="M6,10h22c1.1,0,2-0.9,2-2l0,0c0-1.1-0.9-2-2-2H6C4.9,6,4,6.9,4,8l0,0C4,9.1,4.9,10,6,10z"/>
	<path class="st4" d="M27,20h14c0.6,0,1-0.4,1-1l0,0c0-0.6-0.4-1-1-1H27c-0.6,0-1,0.4-1,1l0,0C26,19.6,26.4,20,27,20z"/>
</g>
</svg>
