<?xml version="1.0" encoding="UTF-8"?>
<svg xmlns="http://www.w3.org/2000/svg" xmlns:xlink="http://www.w3.org/1999/xlink" width="32px" height="32px" viewBox="0 0 32 32" x="0px" y="0px" version="1.1">
  <defs/>
  <g>
    <path d="M27.9,12.3L20,10.4v-6c0-0.3,0.5-0.8,0.4-1.4c-0.1-0.8-1-1.4-1.8-1.3L5.3,4c-0.8,0.1-2,0.8-1.8,1.6C3.5,6.1,3.7,6.4,4,6.6V29c0,0.5,0.5,1,1,1h13.7H27c0.5,0,1-0.5,1-1V15c0.3-0.2,0.8-0.5,0.9-0.9C29.1,13.3,28.7,12.5,27.9,12.3zM18,12.4V28h-5v-5h-3v5H6V6.9L18,5V12.4zM26,28h-2v-2h-2v2h-2V13.6l6,1.5V28z" fill="#4a4a4a" stroke="#4a4a4a" stroke-width="0"/>
    <rect x="10" y="8" width="3" height="3" fill="#4a4a4a" stroke="#4a4a4a" stroke-width="0"/>
    <rect x="10" y="13" width="3" height="3" fill="#4a4a4a" stroke="#4a4a4a" stroke-width="0"/>
    <rect x="10" y="18" width="3" height="3" fill="#4a4a4a" stroke="#4a4a4a" stroke-width="0"/>
    <rect x="22" y="16" width="2" height="2" fill="#4a4a4a" stroke="#4a4a4a" stroke-width="0"/>
    <rect x="22" y="19" width="2" height="2" fill="#4a4a4a" stroke="#4a4a4a" stroke-width="0"/>
    <rect x="22" y="22" width="2" height="2" fill="#4a4a4a" stroke="#4a4a4a" stroke-width="0"/>
  </g>
</svg>
