<?xml version="1.0" encoding="utf-8"?>
<!-- Generator: Adobe Illustrator 19.2.1, SVG Export Plug-In . SVG Version: 6.00 Build 0)  -->
<svg version="1.1" xmlns="http://www.w3.org/2000/svg" xmlns:xlink="http://www.w3.org/1999/xlink" x="0px" y="0px"
	 viewBox="0 0 48 48" style="enable-background:new 0 0 48 48;" xml:space="preserve">
<style type="text/css">
	.st0{fill:#4A4A4A;}
</style>
<g id="Layer_1">
</g>
<g id="Layer_2">
	<path class="st0" d="M5,4v24h24V4H5z M25,24H9V8h16V24z M21,20h-8v-8h8V20z"/>
	<rect x="5" y="32" class="st0" width="8" height="4"/>
	<rect x="9" y="36" class="st0" width="8" height="4"/>
	<rect x="5" y="40" class="st0" width="4" height="4"/>
	<rect x="13" y="40" class="st0" width="4" height="4"/>
	<rect x="17" y="36" class="st0" width="4" height="4"/>
	<rect x="17" y="32" class="st0" width="12" height="4"/>
	<rect x="25" y="40" class="st0" width="4" height="4"/>
	<rect x="39" y="6" transform="matrix(4.479243e-11 1 -1 4.479243e-11 51 -35)" class="st0" width="8" height="4"/>
	<rect x="35" y="10" transform="matrix(4.479243e-11 1 -1 4.479243e-11 51 -27)" class="st0" width="8" height="4"/>
	<rect x="33" y="4" transform="matrix(4.456506e-11 1 -1 4.456506e-11 41 -29)" class="st0" width="4" height="4"/>
	<rect x="33" y="12" transform="matrix(4.456506e-11 1 -1 4.456506e-11 49 -21)" class="st0" width="4" height="4"/>
	<rect x="37" y="16" transform="matrix(4.501980e-11 1 -1 4.501980e-11 57 -21)" class="st0" width="4" height="4"/>
	<rect x="37" y="20" transform="matrix(4.486793e-11 1 -1 4.486793e-11 65 -21)" class="st0" width="12" height="4"/>
	<rect x="33" y="24" transform="matrix(4.456506e-11 1 -1 4.456506e-11 61 -9)" class="st0" width="4" height="4"/>
	<rect x="21" y="36" class="st0" width="4" height="4"/>
	<rect x="29" y="36" class="st0" width="4" height="4"/>
	<rect x="33" y="32" class="st0" width="4" height="4"/>
	<rect x="33" y="28" class="st0" width="12" height="4"/>
	<rect x="41" y="36" class="st0" width="4" height="4"/>
	<rect x="33" y="40" class="st0" width="8" height="4"/>
</g>
<g id="Layer_3">
</g>
</svg>
