<?xml version="1.0" encoding="UTF-8"?>
<!-- Generator: Adobe Illustrator 19.2.1, SVG Export Plug-In . SVG Version: 6.00 Build 0)  -->
<svg xmlns="http://www.w3.org/2000/svg" xmlns:xlink="http://www.w3.org/1999/xlink" version="1.1" x="0px" y="0px" viewBox="0 0 48 48" style="enable-background:new 0 0 48 48;" xml:space="preserve">
<style type="text/css">
	.st0{display:none;}
	.st1{display:inline;}
	.st2{fill:#4A4A4A;}
</style>
<g id="Layer_1">
</g>

<g id="Layer_2">
	<path class="st2" d="M2,2v14h14V2H2z M14,14H4V4h10V14z M12,12H6V6h6V12z"/>
	<rect x="2" y="18" class="st2" width="4" height="2"/>
	<rect x="2" y="20" class="st2" width="2" height="2"/>
	<rect x="4" y="22" class="st2" width="2" height="2"/>
	<rect x="2" y="24" class="st2" width="6" height="2"/>
	<rect x="6" y="26" class="st2" width="6" height="2"/>
	<path class="st2" d="M2,30v14h14V30H2z M14,42H4V32h10V42z M12,40H6v-6h6V40z"/>
	<rect x="6" y="20" class="st2" width="6" height="2"/>
	<rect x="8" y="18" class="st2" width="2" height="2"/>
	<rect x="14" y="18" class="st2" width="4" height="2"/>
	<rect x="16" y="20" class="st2" width="4" height="2"/>
	<rect x="8" y="22" class="st2" width="12" height="2"/>
	<rect x="16" y="24" class="st2" width="2" height="2"/>
	<rect x="14" y="26" class="st2" width="2" height="2"/>
	<rect x="18" y="4" class="st2" width="2" height="4"/>
	<rect x="18" y="10" class="st2" width="2" height="8"/>
	<rect x="22" y="2" class="st2" width="2" height="6"/>
	<rect x="24" y="6" class="st2" width="2" height="2"/>
	<rect x="26" y="2" class="st2" width="2" height="4"/>
	<rect x="26" y="8" class="st2" width="2" height="4"/>
	<rect x="20" y="10" class="st2" width="6" height="2"/>
	<rect x="20" y="12" class="st2" width="4" height="2"/>
	<rect x="22" y="14" class="st2" width="2" height="2"/>
	<rect x="26" y="14" class="st2" width="2" height="2"/>
	<rect x="22" y="18" class="st2" width="6" height="2"/>
	<rect x="24" y="20" class="st2" width="2" height="3"/>
	<rect x="22" y="22" class="st2" width="4" height="2"/>
	<rect x="20" y="24" class="st2" width="4" height="2"/>
	<rect x="18" y="26" class="st2" width="4" height="2"/>
	<rect x="18" y="28" class="st2" width="2" height="4"/>
	<rect x="20" y="32" class="st2" width="4" height="2"/>
	<rect x="22" y="28" class="st2" width="2" height="4"/>
	<rect x="24" y="30" class="st2" width="4" height="2"/>
	<rect x="18" y="36" class="st2" width="2" height="2"/>
	<rect x="18" y="40" class="st2" width="2" height="4"/>
	<rect x="20" y="38" class="st2" width="6" height="2"/>
	<rect x="22" y="40" class="st2" width="2" height="4"/>
	<rect x="24" y="40" class="st2" width="4" height="2"/>
	<rect x="28" y="42" class="st2" width="2" height="2"/>
	<rect x="26" y="34" class="st2" width="4" height="2"/>
	<rect x="28" y="36" class="st2" width="6" height="4"/>
	<rect x="32" y="40" class="st2" width="2" height="4"/>
	<rect x="30" y="30" class="st2" width="2" height="6"/>
	<rect x="28" y="26" class="st2" width="4" height="4"/>
	<rect x="24" y="26" class="st2" width="2" height="2"/>
	<rect x="26" y="24" class="st2" width="10" height="2"/>
	<rect x="32" y="26" class="st2" width="2" height="2"/>
	<rect x="34" y="28" class="st2" width="2" height="4"/>
	<rect x="36" y="34" class="st2" width="2" height="2"/>
	<rect x="38" y="36" class="st2" width="2" height="4"/>
	<rect x="40" y="36" class="st2" width="2" height="2"/>
	<rect x="42" y="34" class="st2" width="2" height="6"/>
	<rect x="36" y="40" class="st2" width="2" height="4"/>
	<rect x="37" y="42" class="st2" width="5" height="2"/>
	<rect x="40" y="30" class="st2" width="2" height="4"/>
	<rect x="38" y="30" class="st2" width="2" height="2"/>
	<rect x="42" y="26" class="st2" width="2" height="4"/>
	<rect x="40" y="24" class="st2" width="2" height="2"/>
	<rect x="36" y="24" class="st2" width="2" height="2"/>
	<rect x="38" y="18" class="st2" width="4" height="4"/>
	<rect x="42" y="20" class="st2" width="2" height="4"/>
	<rect x="38" y="22" class="st2" width="2" height="2"/>
	<rect x="30" y="22" class="st2" width="6" height="2"/>
	<rect x="28" y="20" class="st2" width="2" height="2"/>
	<rect x="32" y="20" class="st2" width="2" height="2"/>
	<rect x="30" y="18" class="st2" width="6" height="2"/>
	<path class="st2" d="M30,2v14h14V2H30z M42,14H32V4h10V14z M40,12h-6V6h6V12z"/>
</g>
<g id="Layer_3">
</g>
</svg>
