<?xml version="1.0" encoding="utf-8"?>
<!-- Generator: Adobe Illustrator 19.2.1, SVG Export Plug-In . SVG Version: 6.00 Build 0)  -->
<svg version="1.1" id="Layer_1" xmlns="http://www.w3.org/2000/svg" xmlns:xlink="http://www.w3.org/1999/xlink" x="0px" y="0px"
	 viewBox="0 0 32 32" style="enable-background:new 0 0 32 32;" xml:space="preserve">
<style type="text/css">
	.st0{fill:#4A4A4A;}
</style>
<g>
	<g>
		<g id="questionmark">
			<path id="questionmarkpoint" class="st0" d="M18,28c0,0.6-0.2,1-0.6,1.4C17,29.8,16.4,30,16,30c-0.6,0-1-0.2-1.4-0.6
				C14.2,29,14,28.6,14,28c0-0.6,0.2-1,0.6-1.4S15.4,26,16,26c0.6,0,1,0.2,1.4,0.6C17.8,27,18,27.4,18,28z"/>
			<path id="questionmark" class="st0" d="M8,11c0.2-2.4,1-5,2.6-6.4s3.4-2.2,5.8-2.2c2.6,0,4.6,0.8,6,2.2C24,6,24.8,7.8,24.8,10
				c0,1.2-0.2,2.4-0.8,3.4s-1.6,2.2-3,3.6c-1.4,1.2-2,2.4-2.4,3.2S18,22.2,18,24h-4c0-2.4,0-3.8,1-5c1.4-2.1,1.4-2.6,2.8-3.8
				c1.4-1.2,2.8-2,3-2.8c0.4-0.6,0.4-1.4,0.4-2.2c0-1.4-0.4-2.2-1.4-3c-1-1-2.2-1.6-3.6-1.6c-2,0-4.8,2.2-5.2,5.4
				C11,11,8.3,11.1,8,11z"/>
		</g>
	</g>
</g>
</svg>
