<?xml version="1.0" encoding="utf-8"?>
<!-- Generator: Adobe Illustrator 21.0.0, SVG Export Plug-In . SVG Version: 6.00 Build 0)  -->
<svg version="1.1" id="Layer_1" xmlns="http://www.w3.org/2000/svg" xmlns:xlink="http://www.w3.org/1999/xlink" x="0px" y="0px"
	 viewBox="0 0 48 48" style="enable-background:new 0 0 48 48;" xml:space="preserve">
<style type="text/css">
	.st0{fill:#4A4A4A;stroke:#000000;stroke-miterlimit:10;}
	.st1{fill:#4A4A4A;}
</style>
<circle class="st0" cx="9" cy="3" r="0"/>
<g>
	<rect x="4" y="36" class="st1" width="8" height="8"/>
	<polygon class="st1" points="8,36 4,36 7,30 11,30 	"/>
</g>
<g>
	<rect x="14" y="36" class="st1" width="8" height="8"/>
	<polygon class="st1" points="18,36 14,36 17,30 21,30 	"/>
</g>
<g>
	<rect x="36" y="4" transform="matrix(-1 -8.981273e-11 8.981273e-11 -1 80 16)" class="st1" width="8" height="8"/>
	<polygon class="st1" points="40,12 44,12 41,18 37,18 	"/>
</g>
<g>
	<rect x="26" y="4" transform="matrix(-1 -8.981273e-11 8.981273e-11 -1 60 16)" class="st1" width="8" height="8"/>
	<polygon class="st1" points="30,12 34,12 31,18 27,18 	"/>
</g>
</svg>
