<?xml version="1.0" encoding="utf-8"?>
<!-- Generator: Adobe Illustrator 22.1.0, SVG Export Plug-In . SVG Version: 6.00 Build 0)  -->
<svg version="1.1" id="Layer_1" xmlns="http://www.w3.org/2000/svg" xmlns:xlink="http://www.w3.org/1999/xlink" x="0px" y="0px"
	 viewBox="0 0 32 32" style="enable-background:new 0 0 32 32;" xml:space="preserve">
<style type="text/css">
	.st0{fill:#F3F3F3;}
	.st1{fill:#1DA007;}
	.st2{fill:#FFA300;}
</style>
<g>
	<g>
		<path class="st0" d="M29,6H2.9C2.4,6,2,6.4,2,6.9v8.2C2,15.6,2.4,16,2.9,16h26.2c0.5,0,0.9-0.4,0.9-1V6.9C30,6.4,29.6,6,29,6z
			 M7,12c-0.6,0-1-0.4-1-1s0.4-1,1-1s1,0.4,1,1S7.6,12,7,12z M11,12c-0.6,0-1-0.4-1-1s0.4-1,1-1s1,0.4,1,1S11.6,12,11,12z M16,14h-2
			V8h2V14z M20,14h-2V8h2V14z M24,14h-2V8h2V14z"/>
	</g>
</g>
<g>
	<g>
		<path class="st0" d="M29,18H2.9C2.4,18,2,18.4,2,18.9v8.2C2,27.6,2.4,28,2.9,28h26.2c0.5,0,0.9-0.4,0.9-1v-8.1
			C30,18.4,29.6,18,29,18z M7,24c-0.6,0-1-0.4-1-1s0.4-1,1-1s1,0.4,1,1S7.6,24,7,24z M11,24c-0.6,0-1-0.4-1-1s0.4-1,1-1s1,0.4,1,1
			S11.6,24,11,24z M16,26h-2v-6h2V26z M20,26h-2v-6h2V26z M24,26h-2v-6h2V26z"/>
	</g>
</g>
<path class="st1" d="M7,12L7,12c-0.6,0-1-0.4-1-1v0c0-0.6,0.4-1,1-1h0c0.6,0,1,0.4,1,1v0C8,11.6,7.6,12,7,12z"/>
<path class="st1" d="M11,12L11,12c-0.6,0-1-0.4-1-1v0c0-0.6,0.4-1,1-1h0c0.6,0,1,0.4,1,1v0C12,11.6,11.6,12,11,12z"/>
<path class="st2" d="M7,24L7,24c-0.6,0-1-0.4-1-1v0c0-0.6,0.4-1,1-1h0c0.6,0,1,0.4,1,1v0C8,23.6,7.6,24,7,24z"/>
<path class="st1" d="M11,24L11,24c-0.6,0-1-0.4-1-1v0c0-0.6,0.4-1,1-1h0c0.6,0,1,0.4,1,1v0C12,23.6,11.6,24,11,24z"/>
</svg>
