<?xml version="1.0" encoding="utf-8"?>
<!-- Generator: Adobe Illustrator 22.1.0, SVG Export Plug-In . SVG Version: 6.00 Build 0)  -->
<svg version="1.1" id="Layer_1" xmlns="http://www.w3.org/2000/svg" xmlns:xlink="http://www.w3.org/1999/xlink" x="0px" y="0px"
	 viewBox="0 0 48 48" style="enable-background:new 0 0 48 48;" xml:space="preserve">
<style type="text/css">
	.st0{fill:#F3F3F3;}
</style>
<path class="st0" d="M41,20H6.9C6.4,20,6,20.4,6,20.9v8.2C6,29.6,6.4,30,6.9,30h34.2c0.5,0,0.9-0.4,0.9-1v-8.1
	C42,20.4,41.6,20,41,20z M11,26c-0.6,0-1-0.4-1-1c0-0.6,0.4-1,1-1s1,0.4,1,1C12,25.6,11.6,26,11,26z M15,26c-0.6,0-1-0.4-1-1
	c0-0.6,0.4-1,1-1s1,0.4,1,1C16,25.6,15.6,26,15,26z M24,28h-2v-6h2V28z M28,28h-2v-6h2V28z M32,28h-2v-6h2V28z M36,28h-2v-6h2V28z
	 M40,28h-2v-6h2V28z"/>
<path class="st0" d="M41,32H6.9C6.4,32,6,32.4,6,32.9v8.2C6,41.6,6.4,42,6.9,42h34.2c0.5,0,0.9-0.4,0.9-1v-8.1
	C42,32.4,41.6,32,41,32z M11,38c-0.6,0-1-0.4-1-1c0-0.6,0.4-1,1-1s1,0.4,1,1C12,37.6,11.6,38,11,38z M15,38c-0.6,0-1-0.4-1-1
	c0-0.6,0.4-1,1-1s1,0.4,1,1C16,37.6,15.6,38,15,38z M24,40h-2v-6h2V40z M28,40h-2v-6h2V40z M32,40h-2v-6h2V40z M36,40h-2v-6h2V40z
	 M40,40h-2v-6h2V40z"/>
<path class="st0" d="M41,8H6.9C6.4,8,6,8.4,6,8.9v8.2C6,17.6,6.4,18,6.9,18h34.2c0.5,0,0.9-0.4,0.9-1V8.9C42,8.4,41.6,8,41,8z
	 M11,14c-0.6,0-1-0.4-1-1c0-0.6,0.4-1,1-1s1,0.4,1,1C12,13.6,11.6,14,11,14z M15,14c-0.6,0-1-0.4-1-1c0-0.6,0.4-1,1-1s1,0.4,1,1
	C16,13.6,15.6,14,15,14z M24,16h-2v-6h2V16z M28,16h-2v-6h2V16z M32,16h-2v-6h2V16z M36,16h-2v-6h2V16z M40,16h-2v-6h2V16z"/>
</svg>
