<?xml version="1.0" encoding="utf-8"?>
<!-- Generator: Adobe Illustrator 22.1.0, SVG Export Plug-In . SVG Version: 6.00 Build 0)  -->
<svg version="1.1" id="Layer_1" xmlns="http://www.w3.org/2000/svg" xmlns:xlink="http://www.w3.org/1999/xlink" x="0px" y="0px"
	 viewBox="0 0 32 32" style="enable-background:new 0 0 32 32;" xml:space="preserve">
<style type="text/css">
	.st0{fill:#4A4A4A;}
	.st1{fill:#595959;}
	.st2{fill:#39FF63;}
	.st3{fill:#050505;}
</style>
<path class="st0" d="M25.1,10H0.9C0.4,10,0,9.6,0,9.1V0.9C0,0.4,0.4,0,0.9,0h24.1C25.6,0,26,0.4,26,0.9v8.1C26,9.6,25.6,10,25.1,10z
	"/>
<rect x="2" y="2" class="st1" width="22" height="6"/>
<path class="st2" d="M5,6L5,6C4.4,6,4,5.6,4,5v0c0-0.6,0.4-1,1-1h0c0.6,0,1,0.4,1,1v0C6,5.6,5.6,6,5,6z"/>
<rect x="20" y="2" class="st3" width="2" height="6"/>
<rect x="16" y="2" class="st3" width="2" height="6"/>
<rect x="12" y="2" class="st3" width="2" height="6"/>
<path class="st2" d="M9,6L9,6C8.4,6,8,5.6,8,5v0c0-0.6,0.4-1,1-1h0c0.6,0,1,0.4,1,1v0C10,5.6,9.6,6,9,6z"/>
<path class="st0" d="M25.1,22H0.9C0.4,22,0,21.6,0,21.1v-8.1C0,12.4,0.4,12,0.9,12h24.1c0.5,0,0.9,0.4,0.9,0.9v8.1
	C26,21.6,25.6,22,25.1,22z"/>
<rect x="2" y="14" class="st1" width="22" height="6"/>
<path class="st2" d="M5,18L5,18c-0.6,0-1-0.4-1-1v0c0-0.6,0.4-1,1-1h0c0.6,0,1,0.4,1,1v0C6,17.6,5.6,18,5,18z"/>
<rect x="20" y="14" class="st3" width="2" height="6"/>
<rect x="16" y="14" class="st3" width="2" height="6"/>
<rect x="12" y="14" class="st3" width="2" height="6"/>
<path class="st2" d="M9,18L9,18c-0.6,0-1-0.4-1-1v0c0-0.6,0.4-1,1-1h0c0.6,0,1,0.4,1,1v0C10,17.6,9.6,18,9,18z"/>
</svg>
