<?xml version="1.0" encoding="utf-8"?>
<!-- Generator: Adobe Illustrator 21.0.0, SVG Export Plug-In . SVG Version: 6.00 Build 0)  -->
<svg version="1.1" id="Layer_1" xmlns="http://www.w3.org/2000/svg" xmlns:xlink="http://www.w3.org/1999/xlink" x="0px" y="0px"
	 viewBox="0 0 32 32" style="enable-background:new 0 0 32 32;" xml:space="preserve">
<style type="text/css">
	.st0{fill:#494949;}
</style>
<g>
	<g>
		<path class="st0" d="M26,8H2v16h24l4-8L26,8z M8,18c-1.1,0-2-0.9-2-2s0.9-2,2-2s2,0.9,2,2S9.1,18,8,18z M14,18c-1.1,0-2-0.9-2-2
			s0.9-2,2-2s2,0.9,2,2S15.1,18,14,18z M20,18c-1.1,0-2-0.9-2-2s0.9-2,2-2s2,0.9,2,2S21.1,18,20,18z"/>
	</g>
</g>
</svg>
