<?xml version="1.0" encoding="utf-8"?>
<!-- Generator: Adobe Illustrator 21.0.0, SVG Export Plug-In . SVG Version: 6.00 Build 0)  -->
<svg version="1.1" id="Layer_1" xmlns="http://www.w3.org/2000/svg" xmlns:xlink="http://www.w3.org/1999/xlink" x="0px" y="0px"
	 viewBox="0 0 48 48" style="enable-background:new 0 0 48 48;" xml:space="preserve">
<style type="text/css">
	.st0{fill:#494949;}
</style>
<g>
	<g>
		<path class="st0" d="M40,11H4v24h36l6-12L40,11z M13,26c-1.7,0-3-1.3-3-3s1.3-3,3-3s3,1.3,3,3S14.7,26,13,26z M22,26
			c-1.7,0-3-1.3-3-3s1.3-3,3-3s3,1.3,3,3S23.7,26,22,26z M31,26c-1.7,0-3-1.3-3-3s1.3-3,3-3c1.7,0,3,1.3,3,3S32.7,26,31,26z"/>
	</g>
</g>
</svg>
