<?xml version="1.0" encoding="utf-8"?>
<!-- Generator: Adobe Illustrator 19.2.1, SVG Export Plug-In . SVG Version: 6.00 Build 0)  -->
<svg version="1.1" id="Layer_1" xmlns="http://www.w3.org/2000/svg" xmlns:xlink="http://www.w3.org/1999/xlink" x="0px" y="0px"
	 viewBox="0 0 32 32" style="enable-background:new 0 0 32 32;" xml:space="preserve">
<style type="text/css">
	.st0{fill:#4A4A4A;}
</style>
<g>
	<g>
		<path id="refreshsymbol" class="st0" d="M7.8,5.7c0.2,0,0.4,0,0.6,0.1l1.9,1.5c1.4-0.8,3-1.3,4.7-1.4c2.5-0.1,4.9,0.6,6.8,2.1
			c0.3,0.2,0.5,0.4,0.8,0.5c2,1.9,3.3,4.4,3.4,7.2s-0.8,5.4-2.7,7.5c-1.9,2-4.4,3.3-7.2,3.4c-2.8,0.1-5.4-0.8-7.5-2.7
			c-2-1.8-3.2-4.3-3.4-7c0-0.7,0.5-1.4,1.2-1.4c0.7,0,1.4,0.5,1.4,1.2c0.2,2,1.1,3.9,2.6,5.3s3.5,2.1,5.6,2s4-1,5.4-2.6
			c1.4-1.5,2.1-3.5,2-5.6c-0.1-2.1-1-4-2.6-5.4c-1.5-1.4-3.5-2.1-5.6-2c-0.9,0.1-1.8,0.3-2.6,0.6l1.7,1.3c0.2,0.1,0.2,0.3,0.2,0.5
			c-0.1,0.2-0.2,0.3-0.4,0.4l-6,1.8c-0.2,0-0.4,0-0.5-0.1c-0.1-0.1-0.2-0.2-0.2-0.4l0.1-6.2C7.5,6.1,7.6,5.9,7.8,5.7z"/>
	</g>
</g>
</svg>
