<?xml version="1.0" encoding="utf-8"?>
<!-- Generator: Adobe Illustrator 21.0.0, SVG Export Plug-In . SVG Version: 6.00 Build 0)  -->
<svg version="1.1" id="Layer_1" xmlns="http://www.w3.org/2000/svg" xmlns:xlink="http://www.w3.org/1999/xlink" x="0px" y="0px"
	 viewBox="0 0 48 48" style="enable-background:new 0 0 48 48;" xml:space="preserve">
<style type="text/css">
	.st0{fill:#F3F3F3;}
	.st1{fill:#4D4D4D;}
</style>
<rect x="2" y="2" class="st0" width="2" height="42"/>
<rect x="44" y="2" class="st0" width="2" height="42"/>
<rect x="4" y="2" class="st0" width="40" height="16"/>
<rect x="2" y="2" class="st0" width="2" height="42"/>
<g>
	<path class="st1" d="M12.4,12.2c0-0.3-0.1-0.5-0.4-0.7c-0.2-0.2-0.5-0.3-0.9-0.5s-0.7-0.3-1.2-0.4c-0.4-0.1-0.8-0.3-1.2-0.6
		S8.2,9.6,7.9,9.2C7.7,8.9,7.5,8.4,7.5,7.8c0-0.5,0.1-0.9,0.3-1.3C8,6.2,8.2,5.9,8.5,5.6c0.3-0.2,0.7-0.4,1.1-0.5
		c0.4-0.1,0.9-0.2,1.5-0.2c0.6,0,1.2,0.1,1.8,0.2c0.6,0.1,1,0.3,1.4,0.5l-0.7,1.7c-0.1-0.1-0.3-0.1-0.4-0.2C13,7,12.8,6.9,12.6,6.9
		c-0.2-0.1-0.5-0.1-0.7-0.1s-0.5,0-0.8,0c-0.5,0-0.8,0.1-1.1,0.2C9.7,7.1,9.6,7.3,9.6,7.6c0,0.3,0.1,0.5,0.4,0.7s0.5,0.3,0.9,0.5
		c0.4,0.1,0.7,0.3,1.2,0.4c0.4,0.1,0.8,0.3,1.2,0.6c0.4,0.2,0.7,0.5,0.9,0.9s0.4,0.8,0.4,1.3c0,0.5-0.1,1-0.3,1.4s-0.5,0.7-0.8,1
		c-0.3,0.3-0.7,0.4-1.2,0.6c-0.5,0.1-1,0.2-1.6,0.2c-0.4,0-0.7,0-1.1-0.1S8.9,15,8.6,14.9c-0.3-0.1-0.5-0.1-0.8-0.2
		c-0.2-0.1-0.4-0.1-0.5-0.2L8,12.7c0.1,0.1,0.2,0.1,0.4,0.2C8.6,13,8.8,13.1,9,13.1c0.2,0.1,0.5,0.1,0.7,0.1s0.5,0.1,0.8,0.1
		c0.6,0,1.1-0.1,1.4-0.3C12.3,12.9,12.4,12.6,12.4,12.2z"/>
	<path class="st1" d="M21.1,12.8h-3.3L17,14.9H15L18.8,5h1.5l3.9,9.9H22L21.1,12.8z M18.4,11.2h2.2l-0.8-2l-0.3-1.6h-0.1l-0.3,1.6
		L18.4,11.2z"/>
	<path class="st1" d="M31.8,14.9h-6.7V5.1h2.1v8h4.7V14.9z"/>
	<path class="st1" d="M32.9,5.1h6.3v1.8H35v2.1h3.8v1.8H35v2.2h4.3v1.8h-6.4V5.1z"/>
</g>
</svg>
