<?xml version="1.0" encoding="utf-8"?>
<!-- Generator: Adobe Illustrator 21.0.0, SVG Export Plug-In . SVG Version: 6.00 Build 0)  -->
<svg version="1.1" id="Layer_1" xmlns="http://www.w3.org/2000/svg" xmlns:xlink="http://www.w3.org/1999/xlink" x="0px" y="0px"
	 viewBox="0 0 32 32" style="enable-background:new 0 0 32 32;" xml:space="preserve">
<style type="text/css">
	.st0{fill:#4A4A4A;}
</style>
<rect x="2" y="26" class="st0" width="28" height="2"/>
<rect x="2" y="12" class="st0" width="28" height="4"/>
<rect x="2" y="16" class="st0" width="2" height="10"/>
<rect x="28" y="16" class="st0" width="2" height="10"/>
<rect x="10" y="16" class="st0" width="2" height="10"/>
<rect x="20" y="16" class="st0" width="2" height="10"/>
<rect x="6" y="10" class="st0" width="2" height="2"/>
<rect x="24" y="10" class="st0" width="2" height="2"/>
<g>
	<g>
		<path class="st0" d="M18.5,5.3c-1.1,0-1.7,0.8-1.7,1.7s0.6,1.6,1.7,1.6s1.7-0.8,1.7-1.7C20.2,6.2,19.7,5.3,18.5,5.3z M23.1,5.4
			c-0.3,0-0.5,0-0.6,0V7c0.1,0,0.3,0,0.6,0c0.8,0,1.3-0.3,1.3-0.9C24.3,5.6,23.8,5.4,23.1,5.4z M4,4v6h24V4H4z M8.6,9.1
			c-0.5,0-1-0.1-1.3-0.3l0.2-0.4c0.3,0.1,0.7,0.3,1.2,0.3c0.7,0,1.1-0.3,1.1-0.7s-0.3-0.6-1-0.8C8,6.9,7.4,6.6,7.4,6
			s0.7-1.1,1.7-1.1c0.5,0,0.9,0.1,1.2,0.2l-0.2,0.4c-0.2-0.1-0.5-0.2-1-0.2c-0.7,0-1,0.3-1,0.6c0,0.4,0.3,0.6,1,0.8
			C10,7,10.5,7.3,10.5,7.9S9.9,9.1,8.6,9.1z M15.3,9h-0.7V7.1h-2.5V9h-0.7V5h0.7v1.7h2.5V5h0.7V9z M18.5,9.1c-1.4,0-2.3-0.8-2.3-2.1
			s1-2.1,2.4-2.1s2.3,0.8,2.3,2C20.9,8.3,19.8,9.1,18.5,9.1z M24.6,7c-0.4,0.3-0.9,0.4-1.6,0.4c-0.2,0-0.4,0-0.5,0V9h-0.7V5
			c0.3,0,0.8-0.1,1.3-0.1c0.7,0,1.2,0.1,1.5,0.3C24.8,5.5,25,5.8,25,6.1C25,6.5,24.9,6.8,24.6,7z"/>
	</g>
</g>
</svg>
