<?xml version="1.0" encoding="utf-8"?>
<!-- Generator: Adobe Illustrator 21.0.0, SVG Export Plug-In . SVG Version: 6.00 Build 0)  -->
<svg version="1.1" id="Layer_3" xmlns="http://www.w3.org/2000/svg" xmlns:xlink="http://www.w3.org/1999/xlink" x="0px" y="0px"
	 viewBox="0 0 48 48" style="enable-background:new 0 0 48 48;" xml:space="preserve">
<style type="text/css">
	.st0{fill:#4A4A4A;}
</style>
<polygon class="st0" points="4,34 30,34 30,36 34,36 34,34 44,34 44,36 4,36 "/>
<rect x="4" y="22" class="st0" width="2" height="12"/>
<rect x="28" y="22" class="st0" width="2" height="12"/>
<rect x="12" y="22" class="st0" width="2" height="12"/>
<rect x="20" y="22" class="st0" width="2" height="12"/>
<rect x="8" y="16" class="st0" width="2" height="2"/>
<rect x="38" y="16" class="st0" width="2" height="2"/>
<g>
	<g>
		<path class="st0" d="M34.8,11.1c-0.5,0-0.8,0-1,0.1V13c0.2,0,0.5,0.1,0.9,0.1c1.3,0,2.1-0.4,2.1-1C36.7,11.4,36,11.1,34.8,11.1z
			 M27.5,11c-1.8,0-2.7,0.9-2.7,1.9s1,1.9,2.7,1.9s2.7-0.8,2.7-1.9C30.2,12,29.3,11,27.5,11z M6,10v6h36v-6H6z M11.7,15.3
			c-0.8,0-1.7-0.2-2.1-0.3l0.2-0.5c0.5,0.1,1.2,0.3,1.9,0.3c1.1,0,1.7-0.3,1.7-0.8c0-0.4-0.4-0.7-1.6-0.9c-1.4-0.3-2.2-0.7-2.2-1.3
			c0-0.8,1.1-1.3,2.7-1.3c0.9,0,1.5,0.1,1.8,0.2L14,11.3c-0.3-0.1-0.8-0.2-1.6-0.2c-1.1,0-1.6,0.4-1.6,0.7c0,0.4,0.5,0.7,1.7,0.9
			c1.4,0.3,2.1,0.7,2.1,1.4C14.6,14.7,13.7,15.3,11.7,15.3z M22.3,15.2h-1.1v-2.2h-4v2.2h-1.1v-4.6h1.1v2h4v-2h1.1V15.2z M27.4,15.3
			c-2.2,0-3.7-0.9-3.7-2.3s1.6-2.4,3.9-2.4s3.7,1,3.7,2.3C31.3,14.5,29.5,15.3,27.4,15.3z M37.2,12.9c-0.6,0.3-1.5,0.5-2.5,0.5
			c-0.3,0-0.6,0-0.9-0.1v1.9h-1.1v-4.5c0.5-0.1,1.2-0.1,2.1-0.1c1.1,0,1.8,0.2,2.3,0.4c0.5,0.2,0.7,0.5,0.7,1
			C37.8,12.4,37.6,12.7,37.2,12.9z"/>
	</g>
</g>
<polygon class="st0" points="1,18 47,18 45,22 3,22 "/>
<rect x="34" y="22" class="st0" width="2" height="12"/>
<rect x="42" y="22" class="st0" width="2" height="12"/>
<rect x="30" y="22" class="st0" width="4" height="2"/>
<rect x="2" y="36" class="st0" width="44" height="2"/>
</svg>
