<?xml version="1.0" encoding="utf-8"?>
<!-- Generator: Adobe Illustrator 25.2.1, SVG Export Plug-In . SVG Version: 6.00 Build 0)  -->
<svg version="1.1" id="Layer_1" xmlns="http://www.w3.org/2000/svg" xmlns:xlink="http://www.w3.org/1999/xlink" x="0px" y="0px"
	 viewBox="0 0 48 48" style="enable-background:new 0 0 48 48;" xml:space="preserve">
<style type="text/css">
	.st0{fill:#4A4A4A;}
</style>
<g>
	<g>
		<path class="st0" d="M4,34v6h36v-6H4z M38,38H6v-2h32V38z"/>
	</g>
</g>
<g>
	<g>
		<path class="st0" d="M4,26v6h36v-6H4z M38,30H6v-2h32V30z"/>
	</g>
</g>
<g>
	<g>
		<path class="st0" d="M4,10v6h36v-6H4z M38,14H6v-2h32V14z"/>
	</g>
</g>
<g>
	<g>
		<path class="st0" d="M4,2v6h36V2H4z M38,6H6V4h32V6z"/>
	</g>
</g>
<g>
	<g>
		<path class="st0" d="M4,42v6h36v-6H4z M38,46H6v-2h32V46z"/>
	</g>
</g>
<g>
	<g>
		<path class="st0" d="M4,18v6h36v-6H4z M38,22H6v-2h32V22z"/>
	</g>
</g>
</svg>
