<?xml version="1.0" encoding="utf-8"?>
<!-- Generator: Adobe Illustrator 25.2.1, SVG Export Plug-In . SVG Version: 6.00 Build 0)  -->
<svg version="1.1" id="Layer_1" xmlns="http://www.w3.org/2000/svg" xmlns:xlink="http://www.w3.org/1999/xlink" x="0px" y="0px"
	 viewBox="0 0 32 32" style="enable-background:new 0 0 32 32;" xml:space="preserve">
<style type="text/css">
	.st0{fill:url(#SVGID_1_);}
	.st1{fill:#4A4A4A;}
	.st2{fill:#929293;}
</style>
<g>
	<g>
		<g id="file-fill">
			
				<linearGradient id="SVGID_1_" gradientUnits="userSpaceOnUse" x1="9" y1="834.3937" x2="31" y2="856.3937" gradientTransform="matrix(1 0 0 1 0 -830.3937)">
				<stop  offset="0" style="stop-color:#FFFFFF"/>
				<stop  offset="1" style="stop-color:#F2F2F2"/>
			</linearGradient>
			<path class="st0" d="M31,4v22c0-0.1-22,0-22,0S9.1,4,9,4H31"/>
		</g>
	</g>
</g>
<rect x="8" y="4" class="st1" width="2" height="22"/>
<rect x="30" y="4" class="st1" width="2" height="22"/>
<rect x="12" y="10" class="st1" width="16" height="2"/>
<rect x="12" y="14" class="st1" width="8" height="2"/>
<rect x="23" y="14" class="st1" width="5" height="2"/>
<rect x="12" y="18" class="st1" width="16" height="2"/>
<rect x="12" y="4" class="st2" width="4" height="2"/>
<rect x="18" y="4" class="st2" width="4" height="2"/>
<rect x="24" y="4" class="st2" width="4" height="2"/>
<rect x="12" y="24" class="st2" width="4" height="2"/>
<rect x="18" y="24" class="st2" width="4" height="2"/>
<rect x="24" y="24" class="st2" width="4" height="2"/>
<g>
	<path class="st1" d="M3.9,16c-2.2,0-4,1.8-4,4s1.8,4,4,4s4-1.8,4-4S6.1,16,3.9,16z M3.9,22c-1.1,0-2-0.9-2-2s0.9-2,2-2s2,0.9,2,2
		S5,22,3.9,22z"/>
	<path class="st1" d="M3.9,23.8c-2.2,0-4,1.8-4,4s1.8,4,4,4s4-1.8,4-4S6.1,23.8,3.9,23.8z M3.9,29.8c-1.1,0-2-0.9-2-2s0.9-2,2-2
		s2,0.9,2,2S5,29.8,3.9,29.8z"/>
	<path class="st1" d="M19.3,18.7l-13,7.5l-1-1.7l4.9-2.9c1.3-0.8,2.7-1.4,4.2-1.8l4.7-1.5C19.4,18.2,19.5,18.5,19.3,18.7z"/>
	<path class="st1" d="M19.3,29.3l-13-7.5l-1,1.7l4.9,2.9c1.3,0.8,2.7,1.4,4.2,1.8l4.7,1.5C19.4,29.8,19.5,29.5,19.3,29.3z"/>
</g>
</svg>
