<?xml version="1.0" encoding="utf-8"?>
<!-- Generator: Adobe Illustrator 19.2.1, SVG Export Plug-In . SVG Version: 6.00 Build 0)  -->
<svg version="1.1" id="Layer_1" xmlns="http://www.w3.org/2000/svg" xmlns:xlink="http://www.w3.org/1999/xlink" x="0px" y="0px"
	 viewBox="0 0 48 48" style="enable-background:new 0 0 48 48;" xml:space="preserve">
<style type="text/css">
	.st0{fill:#4A4A4A;}
</style>
<rect x="4" y="30" class="st0" width="40" height="2"/>
<rect x="-6" y="28" transform="matrix(6.912142e-11 1 -1 6.912142e-11 36 22)" class="st0" width="26" height="2"/>
<rect x="28" y="28" transform="matrix(6.912142e-11 1 -1 6.912142e-11 70 -12)" class="st0" width="26" height="2"/>
<polygon class="st0" points="-15,9 -14,9 -14,9 -15,9 "/>
<g>
	<g>
		<path class="st0" d="M2,4v12h44V4H2z M10,14H6V6h4V14z M18,14h-4V6h4V14z M26,14h-4V6h4V14z M34,14h-4V6h4V14z M42,14h-4V6h4V14z"
			/>
	</g>
</g>
</svg>
