<?xml version="1.0" encoding="utf-8"?>
<!-- Generator: Adobe Illustrator 21.0.0, SVG Export Plug-In . SVG Version: 6.00 Build 0)  -->
<svg version="1.1" id="Layer_1" xmlns="http://www.w3.org/2000/svg" xmlns:xlink="http://www.w3.org/1999/xlink" x="0px" y="0px"
	 viewBox="0 0 32 32" style="enable-background:new 0 0 32 32;" xml:space="preserve">
<style type="text/css">
	.st0{fill:#4A4A4A;}
</style>
<g>
	<g>
		<path class="st0" d="M16,6C9.4,6,4,11.4,4,18s5.4,12,12,12s12-5.4,12-12S22.6,6,16,6z M16,28c-5.5,0-10-4.5-10-10S10.5,8,16,8
			s10,4.5,10,10S21.5,28,16,28z"/>
	</g>
</g>
<rect x="13" y="2" class="st0" width="6" height="2"/>
<rect x="2" y="6" transform="matrix(0.7071 -0.7071 0.7071 0.7071 -3.4853 5.5858)" class="st0" width="6" height="2"/>
<rect x="24" y="6" transform="matrix(0.7071 0.7071 -0.7071 0.7071 12.8579 -17.0416)" class="st0" width="6" height="2"/>
<rect x="17.6" y="12" transform="matrix(0.7071 0.7071 -0.7071 0.7071 16.3431 -8.6274)" class="st0" width="2" height="6.8"/>
<rect x="15" y="4" class="st0" width="2" height="2"/>
<rect x="5.6" y="6.7" transform="matrix(0.7071 -0.7071 0.7071 0.7071 -4.1673 7.2322)" class="st0" width="2" height="3.8"/>
<rect x="24.6" y="6.7" transform="matrix(0.7071 0.7071 -0.7071 0.7071 13.6256 -15.6023)" class="st0" width="2" height="3.8"/>
</svg>
