<?xml version="1.0" encoding="utf-8"?>
<!-- Generator: Adobe Illustrator 21.0.0, SVG Export Plug-In . SVG Version: 6.00 Build 0)  -->
<svg version="1.1" id="Layer_1" xmlns="http://www.w3.org/2000/svg" xmlns:xlink="http://www.w3.org/1999/xlink" x="0px" y="0px"
	 viewBox="0 0 48 48" style="enable-background:new 0 0 48 48;" xml:space="preserve">
<style type="text/css">
	.st0{fill:#4A4A4A;}
</style>
<g>
	<g>
		<path class="st0" d="M24.1,8h-0.1C14,8,6,16,6,25.9v0c0,10,8.1,18,18,18h0c9.9,0,18-8,18-18v-0.1C42,16,34,8,24.1,8z M24,41
			c-8.3,0-15-6.7-15-15s6.7-15,15-15s15,6.7,15,15S32.3,41,24,41z"/>
	</g>
</g>
<rect x="19" y="4" class="st0" width="10" height="2"/>
<rect x="4.8" y="9" transform="matrix(0.7071 -0.7071 0.7071 0.7071 -4.435 9.2929)" class="st0" width="8.5" height="2"/>
<rect x="34.8" y="9" transform="matrix(0.7071 0.7071 -0.7071 0.7071 18.4939 -24.6482)" class="st0" width="8.5" height="2"/>
<rect x="26.8" y="16" transform="matrix(0.7071 0.7071 -0.7071 0.7071 23.1183 -13.484)" class="st0" width="2" height="10.4"/>
<rect x="22" y="6" class="st0" width="4" height="2"/>
<rect x="9.2" y="9.7" transform="matrix(0.7071 -0.7071 0.7071 0.7071 -5.117 10.9393)" class="st0" width="2.8" height="3.8"/>
<rect x="36.1" y="9.6" transform="matrix(0.7071 0.7071 -0.7071 0.7071 19.1152 -23.1482)" class="st0" width="2.8" height="3.8"/>
</svg>
