<?xml version="1.0" encoding="utf-8"?>
<!-- Generator: Adobe Illustrator 23.1.1, SVG Export Plug-In . SVG Version: 6.00 Build 0)  -->
<svg version="1.1" id="Layer_1" xmlns="http://www.w3.org/2000/svg" xmlns:xlink="http://www.w3.org/1999/xlink" x="0px" y="0px"
	 viewBox="0 0 32 32" style="enable-background:new 0 0 32 32;" xml:space="preserve">
<style type="text/css">
	.st0{fill:#F9E555;}
	.st1{fill:#4A4A4A;}
</style>
<g>
	<g>
		<path id="tag-fill" class="st0" d="M30.6,18.7l-14-14h-5.2l-7,6.7v5.2l14,14c0.4,0.4,0.7,0.4,0.7,0.4c0.4,0,0.8-0.3,0.9-0.4
			l10.6-10.3C30.9,20,31.3,19.4,30.6,18.7z M13.6,13.7c-0.9,0.9-2.6,0.9-3.5,0c-1-1-1-2.5,0-3.5c0.5-0.5,1.1-0.7,1.8-0.7
			s1.3,0.3,1.8,0.7C14.5,11.1,14.5,12.7,13.6,13.7z"/>
	</g>
	<g>
		<path id="tag-string" class="st1" d="M4.3,2.3c-1.1-1-1.8-0.2-2,0s-1.1,1,0,2c0,0,8.2,7.6,8.9,6.9S5,3,4.3,2.3z"/>
	</g>
	<g>
		<path id="hole-outline" class="st1" d="M14.4,9.3c-1-1-2.4-1.2-3.6-0.9c0.3,0.4,0.5,0.7,0.7,1.1c0.1,0,0.2,0,0.3,0
			c0.7,0,1.3,0.3,1.8,0.7c1,1,1,2.5,0,3.5c-0.9,0.9-2.6,0.9-3.5,0c-0.6-0.6-0.8-1.4-0.7-2.1c-0.3-0.2-0.7-0.4-1.1-0.7
			c-0.4,1.3-0.1,2.7,0.9,3.7c0.7,0.7,1.6,1.1,2.6,1.1s1.9-0.4,2.6-1.1C15.9,13.1,15.9,10.8,14.4,9.3z"/>
	</g>
	<g>
		<path id="tag-outline" class="st1" d="M31.3,18L17,3.7h-6L8.7,5.8c0.4,0.5,0.9,1,1.3,1.6l1.8-1.7h4.4L30,19.5l0.1,0.1L30,19.7
			L19.3,29.9L19.2,30c0,0,0,0-0.1-0.1L5.4,16.2v-4.4L7.2,10c-0.5-0.4-1-0.8-1.5-1.3L3.4,11v6l14.3,14.3c0.5,0.5,1,0.7,1.5,0.7
			c0.9,0,1.6-0.7,1.6-0.7L31.3,21C31.3,21,32.8,19.5,31.3,18z"/>
	</g>
</g>
</svg>
