<?xml version="1.0" encoding="UTF-8"?>
<svg xmlns="http://www.w3.org/2000/svg" version="1.1" viewBox="0 0 32 32">
  <defs>
    <style>
      .cls-1 {
        fill: #ffc5c5;
      }

      .cls-2 {
        fill: #f9f9f9;
      }

      .cls-3 {
        fill: #4a4a4a;
      }
    </style>
  </defs>
  <!-- Generator: Adobe Illustrator 28.7.1, SVG Export Plug-In . SVG Version: 1.2.0 Build 142)  -->
  <g>
    <g id="Layer_1">
      <rect class="cls-2" x="1" y="5" width="30" height="18"/>
      <path class="cls-1" d="M28,11v-3h-6c0,.6-.4,1-1,1s-1-.4-1-1H4v3c1.7,0,3,1.3,3,3s-1.3,3-3,3v3h16c0-.6.4-1,1-1s1,.4,1,1h6v-3c-1.7,0-3-1.3-3-3s1.3-3,3-3ZM21,18c-.6,0-1-.4-1-1s.4-1,1-1,1,.4,1,1-.4,1-1,1ZM21,15c-.6,0-1-.4-1-1s.4-1,1-1,1,.4,1,1-.4,1-1,1ZM21,12c-.6,0-1-.4-1-1s.4-1,1-1,1,.4,1,1-.4,1-1,1Z"/>
      <path class="cls-3" d="M0,4v20h32V4H0ZM30,22H2V6h28v16Z"/>
      <rect class="cls-3" x="14" y="24" width="4" height="2"/>
      <polygon class="cls-3" points="24 28 8 28 12 26 20 26 24 28"/>
      <rect class="cls-3" x="10" y="10" width="4" height="2"/>
      <rect class="cls-3" x="10" y="14" width="2" height="2"/>
      <rect class="cls-3" x="13" y="14" width="4" height="2"/>
    </g>
  </g>
</svg>