<?xml version="1.0" encoding="UTF-8"?>
<svg xmlns="http://www.w3.org/2000/svg" version="1.1" viewBox="0 0 32 32">
  <defs>
    <style>
      .cls-1 {
        fill: #ffc5c5;
      }

      .cls-2 {
        fill: #4a4a4a;
      }
    </style>
  </defs>
  <!-- Generator: Adobe Illustrator 28.7.1, SVG Export Plug-In . SVG Version: 1.2.0 Build 142)  -->
  <g>
    <g id="Layer_1">
      <path class="cls-2" d="M29,18c-1.1,0-2-.9-2-2s.9-2,2-2,.7.1,1,.3v-6.3H2v6c1.1,0,2,.9,2,2s-.9,2-2,2v6h28v-6.3c-.3.2-.6.3-1,.3Z"/>
    </g>
    <g id="Layer_2">
      <path class="cls-1" d="M28,13v-3h-6c0,.6-.4,1-1,1s-1-.4-1-1H4v3c1.7,0,3,1.3,3,3s-1.3,3-3,3v3h16c0-.6.4-1,1-1s1,.4,1,1h6v-3c-1.7,0-3-1.3-3-3s1.3-3,3-3ZM21,20c-.6,0-1-.4-1-1s.4-1,1-1,1,.4,1,1-.4,1-1,1ZM21,17c-.6,0-1-.4-1-1s.4-1,1-1,1,.4,1,1-.4,1-1,1ZM21,14c-.6,0-1-.4-1-1s.4-1,1-1,1,.4,1,1-.4,1-1,1Z"/>
      <rect class="cls-2" x="8" y="12" width="6" height="2"/>
      <rect class="cls-2" x="8" y="16" width="2" height="2"/>
      <rect class="cls-2" x="12" y="16" width="4" height="2"/>
    </g>
  </g>
</svg>