<?xml version="1.0" encoding="UTF-8"?>
<!-- Generator: Adobe Illustrator 19.2.1, SVG Export Plug-In . SVG Version: 6.00 Build 0)  -->
<svg xmlns="http://www.w3.org/2000/svg" xmlns:xlink="http://www.w3.org/1999/xlink" version="1.1" x="0px" y="0px" viewBox="0 0 48 48" style="enable-background:new 0 0 48 48;" xml:space="preserve">
<style type="text/css">
	.st0{display:none;}
	.st1{display:inline;}
	.st2{fill:#EFEFEF;}
	.st3{fill:#F3F3F3;}
	.st4{fill:#4A4A4A;}
	.st5{display:inline;fill:#F3F3F3;}
</style>


<g id="Layer_3">
	<g>
		<g>
			<path class="st4" d="M37,10h-5V6.9C32,5.3,30.7,4,29.1,4H16c-1.7,0-2,1.3-2,3v3H9c-0.6,0-1,0.5-1,1v3h2v30h26V14h2v-3     C38,10.4,37.6,10,37,10z M16,7c0-0.6,0.4-1,1-1h11.9C29.5,6,30,6.5,30,7.1V10H16V7z M34,42H12V14h22V42z"/>
		</g>
	</g>
	<g>
		<rect x="16" y="18" class="st4" width="2" height="20"/>
		<rect x="22" y="18" class="st4" width="2" height="20"/>
		<rect x="28" y="18" class="st4" width="2" height="20"/>
	</g>
</g>
</svg>
