<?xml version="1.0" encoding="utf-8"?>
<!-- Generator: Adobe Illustrator 21.0.0, SVG Export Plug-In . SVG Version: 6.00 Build 0)  -->
<svg version="1.1" id="Layer_1" xmlns="http://www.w3.org/2000/svg" xmlns:xlink="http://www.w3.org/1999/xlink" x="0px" y="0px"
	 viewBox="0 0 48 48" style="enable-background:new 0 0 48 48;" xml:space="preserve">
<style type="text/css">
	.st0{fill:#F3F3F3;}
</style>
<g>
	<path class="st0" d="M40,16h-8v-1v-3c0-1.1-0.9-2-2-2H8c-1.1,0-2,0.9-2,2v18c0,1.1,0.9,2,2,2h3.1c0.3,2.2,2.1,4,4.4,4
		s4.2-1.8,4.4-4H30c0.4,0,0.7-0.1,1-0.3l0,0c0.1,2.4,2.1,4.3,4.5,4.3c2.3,0,4.2-1.8,4.4-4H40c1.1,0,2-0.9,2-2V18
		C42,16.9,41.1,16,40,16z M40,18v6h-8v-6H40z M15.5,34c-1.4,0-2.5-1.1-2.5-2.5c0-1.4,1.1-2.5,2.5-2.5s2.5,1.1,2.5,2.5
		C18,32.9,16.9,34,15.5,34z M19.7,30c-0.6-1.7-2.3-3-4.2-3s-3.6,1.3-4.2,3H8V12h22v5l0,0v13H19.7z M35.5,34c-1.4,0-2.5-1.1-2.5-2.5
		c0-1.4,1.1-2.5,2.5-2.5s2.5,1.1,2.5,2.5C38,32.9,36.9,34,35.5,34z"/>
</g>
</svg>
