<?xml version="1.0" encoding="utf-8"?>
<!-- Generator: Adobe Illustrator 21.0.0, SVG Export Plug-In . SVG Version: 6.00 Build 0)  -->
<svg version="1.1" id="Layer_1" xmlns="http://www.w3.org/2000/svg" xmlns:xlink="http://www.w3.org/1999/xlink" x="0px" y="0px"
	 viewBox="0 0 32 32" style="enable-background:new 0 0 32 32;" xml:space="preserve">
<style type="text/css">
	.st0{fill:#4A4A4A;}
</style>
<g>
	<path class="st0" d="M30,10l-8-1l0,0V6c0-1.1-0.9-2-2-2H2C0.9,4,0,4.9,0,6v14c0,1.1,0.9,2,2,2h1.1c0.3,2.2,2.1,4,4.4,4
		s4.2-1.8,4.4-4H20c0.4,0,0.7-0.1,1-0.3l0,0c0.1,2.4,2.1,4.3,4.5,4.3c2.3,0,4.2-1.8,4.4-4H30c1.1,0,2-0.9,2-2v-8
		C32,10.9,31.1,10,30,10z M28,11.8V14h-3v-2.6L28,11.8z M7.5,24C6.1,24,5,22.9,5,21.5S6.1,19,7.5,19s2.5,1.1,2.5,2.5S8.9,24,7.5,24z
		 M11.7,20c-0.6-1.7-2.3-3-4.2-3s-3.6,1.3-4.2,3H2V6h18v5l0,0v9H11.7z M25.5,24c-1.4,0-2.5-1.1-2.5-2.5s1.1-2.5,2.5-2.5
		s2.5,1.1,2.5,2.5S26.9,24,25.5,24z M30,20h-0.3c-0.6-1.7-2.3-3-4.2-3c-1.4,0-2.7,0.7-3.5,1.7V11l2,0.2V15h5l-0.1-3.1L30,12V20z"/>
</g>
</svg>
