<?xml version="1.0" encoding="utf-8"?>
<!-- Generator: Adobe Illustrator 22.1.0, SVG Export Plug-In . SVG Version: 6.00 Build 0)  -->
<svg version="1.1" id="Layer_1" xmlns="http://www.w3.org/2000/svg" xmlns:xlink="http://www.w3.org/1999/xlink" x="0px" y="0px"
	 viewBox="0 0 48 48" style="enable-background:new 0 0 48 48;" xml:space="preserve">
<style type="text/css">
	.st0{fill:#F3F3F3;}
</style>
<g id="Overlay">
	<g>
		<path id="bunny" class="st0" d="M28.5,7c1,0.6,3.7,2.6,5.3,4.2c0.2,0.2,0.6,0.6,0.7,0.7c0.1,0.1,0.6,0.6,0.7,0.7
			c0.6,1,1.6,2.3,2.5,2.6c3.2,1.2,5.9,4.1,6.6,7.2c0,0.5-0.2,1.2-0.5,1.6c-0.2,0.4-1,1-1.5,1.2c-0.6,0.2-2.9,0.2-2.9,0.2
			c-0.4,0-0.7-0.1-1.1-0.2c-0.1,0-0.2-0.1-0.4-0.1c-0.1,0-0.1,0-0.1,0s0,0.1-0.1,0.1c-0.1,0.1-0.2,0.4-0.2,0.5
			c-1.4,2.7-2.9,5.3-5.2,7.4c-0.1,0.1-0.1,0.1-0.2,0.2l-0.1,0.1v0.1c0,0.2,0,0.4-0.1,0.6c-0.1,0.4-0.1,0.7-0.2,1.1
			c-0.1,0.4-0.2,0.7-0.4,1.1c0,0.2-0.1,0.4-0.1,0.6c0,0.1-0.1,0.1,0,0.2l0.1,0.1c0.5,0.2,0.9,0.5,1.2,0.7c0.5,0.4,0.6,0.7,0.6,1.4
			c0,0.1,0,0.1-0.1,0.1c0,0-0.4-0.1-0.5-0.1c-0.1,0-0.1,0.4-0.2,0.5c0.2-0.1,0.1-0.1-0.2-0.1c-0.6,0.1-1.2-0.1-1.8-0.1
			c-0.2,0-0.5,0-0.7-0.1c-0.1,0-0.2-0.1-0.4,0c-0.1,0.1-0.2,0.2-0.4,0.4c-0.6,0.6-1.1,1-1.7,1.6c-0.4,0.2-0.6,0.5-0.9,0.6
			c-0.2,0.1-0.4,0.2-0.6,0.4c-0.1,0-0.1,0.1-0.2,0.1c-0.1,0-0.2,0-0.4,0c-0.2,0-0.5,0-0.6,0c0-0.1-0.1-0.2-0.2-0.2
			c-0.1,0-0.1,0-0.2,0c-0.1,0-0.1-0.1-0.1-0.2c0-0.1,0-0.2,0-0.4c0-0.5,0.2-0.6,0.6-1c0.2-0.2,0.6-0.5,0.7-0.7
			c0-0.1,0.1-0.2,0.1-0.4c0-0.1,0-0.4,0-0.4c-0.4-0.1-0.6-0.2-0.9-0.4c-0.6-0.1-1.4-0.2-2-0.4c-1.4-0.1-2.8-0.1-4.1-0.6
			c-0.1,0-0.1,0-0.2-0.1c0-0.1-0.1-0.1-0.1-0.2c-0.1-0.1-0.1-0.2-0.2-0.4c-0.1-0.2-0.2-0.6-0.5-0.7c-0.2-0.6-0.6-1-0.9-1.6
			c-0.4-0.6-0.6-1-1-1.5c-0.1-0.1-0.2-0.4-0.5-0.5c-0.9-1.2-2.2-1.8-3.4-2.5c-0.2-0.1-0.6-0.2-0.7-0.4C8.4,29,6.4,26.1,7,23.6
			c0.1-0.2,0.1-0.4,0.2-0.6v-0.1c0,0,0,0,0-0.1c0,0-0.1,0-0.1-0.1c-0.1-0.1-0.4-0.2-0.5-0.4c-0.2,0-0.4-0.2-0.5-0.6
			C6,21.2,5.9,21,5.8,20.9c-0.4-1.4-1.4-2.5-2.3-3.6c-1.2-1.1,0.7-2,1.8-2.2c2.2-0.1,4.3,1.6,4.7,3.8c0,0.2,0.1,0.5,0.1,0.6
			c0,0.1,0.1,0.2,0.1,0.4V20c0,0.1,0,0.1,0.1,0c0.4-0.1,0.6-0.2,1-0.4c0.6-0.2,1.2-0.6,1.8-0.7c0.4-0.1,0.6-0.2,0.9-0.4
			c3.6-1.2,7.7-0.2,11.1,1.5c0.2,0.1,0.6,0.4,0.7,0.5c0.2,0.1,0.6,0.2,0.7,0.4c0.9,0.4,2.1,0.6,2.9-0.2c0.4-0.5,0.6-0.9,0.9-1.5
			c0.2-0.6,0.6-1,1-1.4c0.5-0.4,0.9-0.6,1.1-0.9c0.1-0.2,0.2-0.5,0.2-0.6v0.2c0,0,0,0-0.1,0h0.1c-0.1-0.1-0.2-0.1-0.4-0.1
			c-1.4-0.6-2.7-1-4.1-1.5c-0.4-0.1-0.6-0.2-1-0.4c-0.2-0.1-0.6-0.2-0.7-0.4c-1.5-0.6-2.6-1.5-3.6-2.5c-0.2-0.2-0.4-0.5-0.6-0.7
			c-0.1-0.2-0.5-0.9-0.2-1c0.6-0.2,2.5,0,3.6,0.6c0.4,0.1,0.6,0.2,0.9,0.4c0.9,0.4,1.8,0.6,2.9,0.6c-0.4-0.9-1.1-1.5-1.8-2
			c-0.4-0.4-0.6-0.6-0.9-1c-0.2-0.5-0.6-1.2-0.5-1.5C26.8,6.9,27.5,6.5,28.5,7z M28.4,31.2c-0.5,0.1-0.9,0.2-1.5,0.2
			c-1.2,0.1-2.6,0.1-3.9,0c-1.2,0-2.3-0.1-3.6,0c0.1,0.6,0.2,1.4,0.6,2c0.2,0.6,0.6,1.1,0.9,1.6c0.2,0.2,0.4,0.6,0.6,0.7
			c0,0.1,0.1,0.1,0.1,0.2c0.1,0,0.1,0,0.2,0.1c0.1,0,0.4,0.1,0.5,0.1c0.6,0.1,1.4,0.4,2,0.5c0.7,0.1,1.5,0.2,2.2,0.2
			c0.5,0,0.7,0,1.2,0c0.1,0,0.1,0,0.2,0c0.1,0,0,0,0.1-0.1c0-0.1,0-0.1,0-0.2c0-0.1,0.1-0.4,0.1-0.6C28.4,34.4,28.4,32.8,28.4,31.2"
			/>
	</g>
</g>
</svg>
