<?xml version="1.0" encoding="utf-8"?>
<!-- Generator: Adobe Illustrator 21.0.0, SVG Export Plug-In . SVG Version: 6.00 Build 0)  -->
<svg version="1.1" id="Layer_1" xmlns="http://www.w3.org/2000/svg" xmlns:xlink="http://www.w3.org/1999/xlink" x="0px" y="0px"
	 viewBox="0 0 48 48" style="enable-background:new 0 0 48 48;" xml:space="preserve">
<style type="text/css">
	.st0{fill:#3091DD;}
	.st1{fill:#F3F3F3;}
</style>
<g>
	<g id="Layer_2">
		<path class="st0" d="M24,2C11.8,2,2,11.8,2,24s9.8,22,22,22s22-9.8,22-22S36.2,2,24,2z M24,42.3C13.9,42.3,5.7,34.2,5.7,24
			S13.9,5.7,24,5.7S42.3,13.9,42.3,24S34.1,42.3,24,42.3z"/>
	</g>
	<circle class="st0" cx="24" cy="24" r="20"/>
</g>
<g id="Overlay">
	<g>
		<path id="bunny" class="st1" d="M27.7,10.2c0.8,0.5,3,2.1,4.3,3.4c0.2,0.2,0.5,0.5,0.6,0.6s0.5,0.5,0.6,0.6
			c0.5,0.8,1.3,1.9,2,2.1c2.6,1,4.8,3.3,5.4,5.9c0,0.4-0.2,1-0.4,1.3s-0.8,0.8-1.2,1c-0.5,0.2-2.4,0.2-2.4,0.2
			c-0.3,0-0.6-0.1-0.9-0.2c-0.1,0-0.2-0.1-0.3-0.1s-0.1,0-0.1,0s0,0.1-0.1,0.1c-0.1,0.1-0.2,0.3-0.2,0.4c-1.1,2.2-2.4,4.3-4.2,6
			c-0.1,0.1-0.1,0.1-0.2,0.2l-0.1,0.1v0.1c0,0.2,0,0.3-0.1,0.5c-0.1,0.3-0.1,0.6-0.2,0.9c-0.1,0.3-0.2,0.6-0.3,0.9
			c0,0.2-0.1,0.3-0.1,0.5c0,0.1-0.1,0.1,0,0.2l0.1,0.1c0.4,0.2,0.7,0.4,1,0.6c0.4,0.3,0.5,0.6,0.5,1.1c0,0.1,0,0.1-0.1,0.1
			c0,0-0.3-0.1-0.4-0.1s-0.1,0.3-0.2,0.4c0.2-0.1,0.1-0.1-0.2-0.1c-0.5,0.1-1-0.1-1.5-0.1c-0.2,0-0.4,0-0.6-0.1
			c-0.1,0-0.2-0.1-0.3,0c-0.1,0.1-0.2,0.2-0.3,0.3c-0.5,0.5-0.9,0.8-1.4,1.3c-0.3,0.2-0.5,0.4-0.7,0.5s-0.3,0.2-0.5,0.3
			c-0.1,0-0.1,0.1-0.2,0.1s-0.2,0-0.3,0c-0.2,0-0.4,0-0.5,0c0-0.1-0.1-0.2-0.2-0.2s-0.1,0-0.2,0s-0.1-0.1-0.1-0.2c0-0.1,0-0.2,0-0.3
			c0-0.4,0.2-0.5,0.5-0.8c0.2-0.2,0.5-0.4,0.6-0.6c0-0.1,0.1-0.2,0.1-0.3s0-0.3,0-0.3c-0.3-0.1-0.5-0.2-0.7-0.3
			c-0.5-0.1-1.1-0.2-1.6-0.3c-1.1-0.1-2.3-0.1-3.3-0.5c-0.1,0-0.1,0-0.2-0.1c0-0.1-0.1-0.1-0.1-0.2c-0.1-0.1-0.1-0.2-0.2-0.3
			c-0.1-0.2-0.2-0.5-0.4-0.6c-0.2-0.5-0.5-0.8-0.7-1.3c-0.3-0.5-0.5-0.8-0.8-1.2c-0.1-0.1-0.2-0.3-0.4-0.4c-0.7-1-1.8-1.5-2.8-2
			c-0.2-0.1-0.5-0.2-0.6-0.3c-1.8-1-3.4-3.3-2.9-5.4c0.1-0.2,0.1-0.3,0.2-0.5v-0.1c0,0,0,0,0-0.1c0,0-0.1,0-0.1-0.1
			c-0.1-0.1-0.3-0.2-0.4-0.3c-0.2,0-0.3-0.2-0.4-0.5s-0.2-0.5-0.3-0.6c-0.3-1.1-1.1-2-1.9-2.9c-1-0.9,0.6-1.6,1.5-1.8
			c1.8-0.1,3.5,1.3,3.8,3.1c0,0.2,0.1,0.4,0.1,0.5s0.1,0.2,0.1,0.3v0.1c0,0.1,0,0.1,0.1,0c0.3-0.1,0.5-0.2,0.8-0.3
			c0.5-0.2,1-0.5,1.5-0.6c0.3-0.1,0.5-0.2,0.7-0.3c2.9-1,6.3-0.2,9,1.2c0.2,0.1,0.5,0.3,0.6,0.4c0.2,0.1,0.5,0.2,0.6,0.3
			c0.7,0.3,1.7,0.5,2.4-0.2c0.3-0.4,0.5-0.7,0.7-1.2s0.5-0.8,0.8-1.1c0.4-0.3,0.7-0.5,0.9-0.7c0.1-0.2,0.2-0.4,0.2-0.5V18
			c0,0,0,0-0.1,0h0.1c-0.1-0.1-0.2-0.1-0.3-0.1c-1.1-0.5-2.2-0.8-3.3-1.2c-0.3-0.1-0.5-0.2-0.8-0.3c-0.2-0.1-0.5-0.2-0.6-0.3
			c-1.2-0.5-2.1-1.2-2.9-2c-0.2-0.2-0.3-0.4-0.5-0.6c-0.1-0.2-0.4-0.7-0.2-0.8c0.5-0.2,2,0,2.9,0.5c0.3,0.1,0.5,0.2,0.7,0.3
			c0.7,0.3,1.5,0.5,2.4,0.5c-0.3-0.7-0.9-1.2-1.5-1.6c-0.3-0.3-0.5-0.5-0.7-0.8c-0.2-0.4-0.5-1-0.4-1.2
			C26.3,10.1,26.9,9.8,27.7,10.2z M27.6,29.9c-0.4,0.1-0.7,0.2-1.2,0.2c-1,0.1-2.1,0.1-3.2,0c-1,0-1.9-0.1-2.9,0
			c0.1,0.5,0.2,1.1,0.5,1.6c0.2,0.5,0.5,0.9,0.7,1.3c0.2,0.2,0.3,0.5,0.5,0.6c0,0.1,0.1,0.1,0.1,0.2c0.1,0,0.1,0,0.2,0.1
			c0.1,0,0.3,0.1,0.4,0.1c0.5,0.1,1.1,0.3,1.6,0.4c0.6,0.1,1.2,0.2,1.8,0.2c0.4,0,0.6,0,1,0c0.1,0,0.1,0,0.2,0s0,0,0.1-0.1
			c0-0.1,0-0.1,0-0.2c0-0.1,0.1-0.3,0.1-0.5C27.6,32.5,27.6,31.2,27.6,29.9"/>
	</g>
</g>
</svg>
