<?xml version="1.0" encoding="utf-8"?>
<!-- Generator: Adobe Illustrator 21.0.0, SVG Export Plug-In . SVG Version: 6.00 Build 0)  -->
<svg version="1.1" id="Layer_1" xmlns="http://www.w3.org/2000/svg" xmlns:xlink="http://www.w3.org/1999/xlink" x="0px" y="0px"
	 viewBox="0 0 32 32" style="enable-background:new 0 0 32 32;" xml:space="preserve">
<style type="text/css">
	.st0{fill:#4A4A4A;}
</style>
<g>
	<g>
		<path class="st0" d="M16,2C8.3,2,2,8.3,2,16s6.3,14,14,14s14-6.3,14-14S23.7,2,16,2z M16,25c-5,0-9-4-9-9s4-9,9-9s9,4,9,9
			S21,25,16,25z"/>
	</g>
</g>
<g>
	<g>
		<path class="st0" d="M16,9c-3.9,0-7,3.1-7,7s3.1,7,7,7s7-3.1,7-7S19.9,9,16,9z M16,22c-3.3,0-6-2.7-6-6s2.7-6,6-6s6,2.7,6,6
			S19.3,22,16,22z"/>
	</g>
</g>
</svg>
