<?xml version="1.0" encoding="utf-8"?>
<!-- Generator: Adobe Illustrator 21.0.0, SVG Export Plug-In . SVG Version: 6.00 Build 0)  -->
<svg version="1.1" id="Layer_3" xmlns="http://www.w3.org/2000/svg" xmlns:xlink="http://www.w3.org/1999/xlink" x="0px" y="0px"
	 viewBox="0 0 48 48" style="enable-background:new 0 0 48 48;" xml:space="preserve">
<style type="text/css">
	.st0{fill:#4A4A4A;}
</style>
<g>
	<g>
		<path class="st0" d="M24,3C12.4,3,3,12.4,3,24s9.4,21,21,21s21-9.4,21-21S35.6,3,24,3z M24,37.5c-7.5,0-13.5-6-13.5-13.5
			s6-13.5,13.5-13.5s13.5,6,13.5,13.5S31.5,37.5,24,37.5z"/>
	</g>
</g>
<g>
	<g>
		<path class="st0" d="M24,13.5c-5.8,0-10.5,4.7-10.5,10.5S18.2,34.5,24,34.5S34.5,29.8,34.5,24S29.8,13.5,24,13.5z M24,33
			c-5,0-9-4-9-9s4-9,9-9s9,4,9,9S29,33,24,33z"/>
	</g>
</g>
</svg>
