<?xml version="1.0" encoding="UTF-8"?>
<!-- Generator: Adobe Illustrator 19.2.1, SVG Export Plug-In . SVG Version: 6.00 Build 0)  -->
<svg xmlns="http://www.w3.org/2000/svg" xmlns:xlink="http://www.w3.org/1999/xlink" version="1.1" id="Layer_1" x="0px" y="0px" viewBox="0 0 48 48" style="enable-background:new 0 0 48 48;" xml:space="preserve">
<style type="text/css">
	.st0{display:none;}
	.st1{display:inline;fill:url(#SVGID_1_);}
	.st2{display:inline;}
	.st3{fill:#4A4A4A;}
	.st4{display:inline;fill:#4A4A4A;}
	.st5{fill:#1C8BE9;}
	.st6{fill:#F3F3F3;}
	.st7{fill:#4576EF;}
</style>
<g id="Layer_1_2_">



</g>
<g>
	<circle class="st6" cx="24" cy="24" r="19.8"/>
	<g id="Layer_2">
		<g>
			<path id="earth-fill" class="st7" d="M24,43.3c-5.3,0-10-2.2-13.3-5.8c0.1-0.4,1-3.1,1.6-4.2c0.7-1.2,0.9-1.4,2.2-2.7     c1.5-1.2-2.8-1.9-3.8-3c-0.9-1.1-1.5-1.1-2.6-2.1c-0.9-0.7-1.4,2.3-1.6,3.8C6.1,28,5.8,26.5,5.8,25c0-3.8,1.2-7.4,3.2-10.4     c-0.6,1.9-1.1,4.4,1.1,3.7c2.5-0.7,2.7-1.9,2.7-1.9l1.5-2.5c0,0,0.2,3.5,0.5,4c0.4,0.5,1.5,2,1.9-0.1c0.7-3.7,0.9-4.8,2.2-4.8     s4.2-1.1,4.4,2.2c0.4,3.3-0.4,1.4-2.1,2.2c-1.9,0.9-2.2,3.8-0.6,4.2c1.6,0.4,5.3,1.9,5.3,1.9l1.9,2.1l0.6,2.2     c0,0,0.4,2.5,0.4,2.7c0,0.2,0,2.3,0,2.3s0.1,4.6,1.7,3.5c1.7-1.1,6.2-8.2,5.3-10.7c-0.9-2.7-1-3,0.7-3.8c1.7-1,3-2.1,2.8-3.5     c0-1,0-1.4,0-2.1c1.4,2.6,2.2,5.6,2.2,8.5C42,35.1,33.9,43.3,24,43.3z"/>
		</g>
		<path class="st3" d="M24,3C12.4,3,3,12.4,3,24s9.4,21,21,21s21-9.4,21-21S35.6,3,24,3z M24,41.5c-9.6,0-17.5-7.8-17.5-17.5    S14.4,6.5,24,6.5S41.5,14.4,41.5,24S33.6,41.5,24,41.5z"/>
	</g>
</g>
</svg>
