<?xml version="1.0" encoding="UTF-8"?>
<svg xmlns="http://www.w3.org/2000/svg" xmlns:xlink="http://www.w3.org/1999/xlink" width="32px" height="32px" viewBox="0 0 32 32" x="0px" y="0px" version="1.1">
  <defs>
    <path id="headoutline" d="M2,16C2,8.3,8.3,2,16,2c7.7,0,14,6.3,14,14c0,7.7-6.3,14-14,14C8.3,30,2,23.7,2,16zM3.7,16c0,6.7,5.5,12.3,12.2,12.3c6.8,0,12.3-5.5,12.3-12.3c0-6.7-5.5-12.2-12.3-12.2C9.3,3.8,3.8,9.3,3.7,16z"/>
    <path id="lefteye" d="M9.9,12.4c0-1,0.8-1.7,1.8-1.7c1,0,1.7,0.8,1.7,1.8c0,1-0.8,1.7-1.7,1.7C10.7,14.2,9.9,13.4,9.9,12.4z"/>
    <path id="righteye" d="M18.6,12.4c0-1,0.8-1.7,1.8-1.7c1,0,1.7,0.8,1.7,1.8c0,1-0.8,1.8-1.8,1.7C19.4,14.2,18.6,13.4,18.6,12.4z"/>
  </defs>
  <g>
    <use xlink:href="#headoutline" fill="#ffffff" stroke="#ffffff" stroke-width="0"/>
    <use xlink:href="#headfill" fill="#ffffff"/>
    <use xlink:href="#lefteye" fill="#ffffff" stroke="#ffffff" stroke-width="0"/>
    <use xlink:href="#righteye" fill="#ffffff" stroke="#ffffff" stroke-width="0"/>
    <path d="M15.5,24.7c-2.9-0.1-5.5-1.5-7.2-4.4c-0.4-0.6-0.1-1.3,0.6-1.4c0.4-0.1,0.7,0.1,0.9,0.5c0.5,0.9,1.2,1.6,2,2.2C15.3,24,20,23,22.2,19.4c0.2-0.4,0.5-0.6,0.9-0.5c0.7,0.1,1,0.8,0.6,1.4c-0.8,1.3-1.8,2.3-3,3.1C19.3,24.2,17.7,24.6,15.5,24.7z" fill="#ffffff" stroke="#ffffff" stroke-width="0"/>
  </g>
</svg>
